<svg width="16" height="16" viewBox="0 0 16 16" fill="none" xmlns="http://www.w3.org/2000/svg">
<g id="WA.pointer">
<path id="Icon" d="M8.65768 14.367C10.0827 12.6908 13.3327 8.62817 13.3327 6.34623C13.3327 3.57865 10.9438 1.33325 7.99935 1.33325C5.0549 1.33325 2.66602 3.57865 2.66602 6.34623C2.66602 8.62817 5.91602 12.6908 7.34102 14.367C7.68268 14.7665 8.31602 14.7665 8.65768 14.367ZM7.99935 4.67523C8.47084 4.67523 8.92303 4.85128 9.25643 5.16466C9.58983 5.47803 9.77713 5.90305 9.77713 6.34623C9.77713 6.7894 9.58983 7.21442 9.25643 7.52779C8.92303 7.84117 8.47084 8.01722 7.99935 8.01722C7.52785 8.01722 7.07567 7.84117 6.74227 7.52779C6.40887 7.21442 6.22157 6.7894 6.22157 6.34623C6.22157 5.90305 6.40887 5.47803 6.74227 5.16466C7.07567 4.85128 7.52785 4.67523 7.99935 4.67523Z" fill="#333333"/>
</g>
</svg>
