<svg width="29" height="37" viewBox="0 0 29 37" fill="none" xmlns="http://www.w3.org/2000/svg">
<path d="M2 3.6256C2 1.82001 3.46372 0.356293 5.26931 0.356293C7.0749 0.356293 8.53862 1.82001 8.53862 3.6256V33.6437H2V3.6256Z" fill="#0B6357"/>
<g filter="url(#filter0_d_74_15634)">
<path d="M8.2414 12.4608H2C2 24.5653 11.362 27.1819 20.7241 25.6688L20.7242 33.6437H26.9656V16.5677C11.3621 22.6199 8.2414 18.5131 8.2414 12.4608Z" fill="#34A98F"/>
</g>
<path d="M8.53862 12.4608H2C2 24.5653 11.362 27.1819 20.7241 25.6688L26.9655 16.5677C11.362 22.6199 8.53862 18.5131 8.53862 12.4608Z" fill="#0B6357"/>
<path d="M20.7227 3.47699C20.7227 1.75348 22.1198 0.356293 23.8434 0.356293C25.5669 0.356293 26.9641 1.75348 26.9641 3.47699V9.33794C26.9641 11.0615 25.5669 12.4586 23.8434 12.4586C22.1198 12.4586 20.7227 11.0615 20.7227 9.33794V3.47699Z" fill="#34A98F"/>
<defs>
<filter id="filter0_d_74_15634" x="0.428371" y="12.4608" width="28.1081" height="24.3261" filterUnits="userSpaceOnUse" color-interpolation-filters="sRGB">
<feFlood flood-opacity="0" result="BackgroundImageFix"/>
<feColorMatrix in="SourceAlpha" type="matrix" values="0 0 0 0 0 0 0 0 0 0 0 0 0 0 0 0 0 0 127 0" result="hardAlpha"/>
<feOffset dy="1.57163"/>
<feGaussianBlur stdDeviation="0.785814"/>
<feComposite in2="hardAlpha" operator="out"/>
<feColorMatrix type="matrix" values="0 0 0 0 0 0 0 0 0 0 0 0 0 0 0 0 0 0 0.25 0"/>
<feBlend mode="normal" in2="BackgroundImageFix" result="effect1_dropShadow_74_15634"/>
<feBlend mode="normal" in="SourceGraphic" in2="effect1_dropShadow_74_15634" result="shape"/>
</filter>
</defs>
</svg>
