<svg width="315" height="230" viewBox="0 0 315 230" fill="none" xmlns="http://www.w3.org/2000/svg">
<g clip-path="url(#clip0_2750_209811)">
<path d="M107.812 0H42.1875C34.4531 0 28.125 6.32812 28.125 14.0625V135.938C28.125 143.672 34.4531 150 42.1875 150H107.812C115.547 150 121.875 143.672 121.875 135.938V14.0625C121.875 6.32812 115.547 0 107.812 0ZM75 140.625C69.8156 140.625 65.625 136.434 65.625 131.25C65.625 126.066 69.8156 121.875 75 121.875C80.1844 121.875 84.375 126.066 84.375 131.25C84.375 136.434 80.1844 140.625 75 140.625ZM112.5 112.5H37.5V18.75H112.5V112.5Z" fill="#333333"/>
<path d="M49.125 36.75H46.875V39H49.125V36.75Z" fill="#333333"/>
<path d="M51.375 36.75H49.125V39H51.375V36.75Z" fill="#333333"/>
<path d="M53.625 36.75H51.375V39H53.625V36.75Z" fill="#333333"/>
<path d="M55.875 36.75H53.625V39H55.875V36.75Z" fill="#333333"/>
<path d="M58.125 36.75H55.875V39H58.125V36.75Z" fill="#333333"/>
<path d="M60.375 36.75H58.125V39H60.375V36.75Z" fill="#333333"/>
<path d="M62.625 36.75H60.375V39H62.625V36.75Z" fill="#333333"/>
<path d="M67.125 36.75H64.875V39H67.125V36.75Z" fill="#333333"/>
<path d="M76.125 36.75H73.875V39H76.125V36.75Z" fill="#333333"/>
<path d="M78.375 36.75H76.125V39H78.375V36.75Z" fill="#333333"/>
<path d="M80.625 36.75H78.375V39H80.625V36.75Z" fill="#333333"/>
<path d="M82.875 36.75H80.625V39H82.875V36.75Z" fill="#333333"/>
<path d="M85.125 36.75H82.875V39H85.125V36.75Z" fill="#333333"/>
<path d="M89.625 36.75H87.375V39H89.625V36.75Z" fill="#333333"/>
<path d="M91.875 36.75H89.625V39H91.875V36.75Z" fill="#333333"/>
<path d="M94.125 36.75H91.875V39H94.125V36.75Z" fill="#333333"/>
<path d="M96.375 36.75H94.125V39H96.375V36.75Z" fill="#333333"/>
<path d="M98.625 36.75H96.375V39H98.625V36.75Z" fill="#333333"/>
<path d="M100.875 36.75H98.625V39H100.875V36.75Z" fill="#333333"/>
<path d="M103.125 36.75H100.875V39H103.125V36.75Z" fill="#333333"/>
<path d="M49.125 39H46.875V41.25H49.125V39Z" fill="#333333"/>
<path d="M62.625 39H60.375L60.375 41.25H62.625V39Z" fill="#333333"/>
<path d="M69.375 39H67.125V41.25H69.375V39Z" fill="#333333"/>
<path d="M73.875 39H71.625V41.25H73.875V39Z" fill="#333333"/>
<path d="M78.375 39H76.125V41.25H78.375V39Z" fill="#333333"/>
<path d="M80.625 39H78.375V41.25H80.625V39Z" fill="#333333"/>
<path d="M89.625 39H87.375V41.25H89.625V39Z" fill="#333333"/>
<path d="M103.125 39H100.875V41.25H103.125V39Z" fill="#333333"/>
<path d="M49.125 41.25H46.875V43.5H49.125V41.25Z" fill="#333333"/>
<path d="M53.625 41.25H51.375V43.5H53.625V41.25Z" fill="#333333"/>
<path d="M55.875 41.25H53.625V43.5H55.875V41.25Z" fill="#333333"/>
<path d="M58.125 41.25H55.875V43.5H58.125V41.25Z" fill="#333333"/>
<path d="M62.625 41.25H60.375V43.5H62.625V41.25Z" fill="#333333"/>
<path d="M69.375 41.25H67.125V43.5H69.375V41.25Z" fill="#333333"/>
<path d="M73.875 41.25H71.625V43.5H73.875V41.25Z" fill="#333333"/>
<path d="M78.375 41.25H76.125V43.5H78.375V41.25Z" fill="#333333"/>
<path d="M80.625 41.25H78.375V43.5H80.625V41.25Z" fill="#333333"/>
<path d="M82.875 41.25H80.625V43.5H82.875V41.25Z" fill="#333333"/>
<path d="M89.625 41.25H87.375V43.5H89.625V41.25Z" fill="#333333"/>
<path d="M94.125 41.25H91.875V43.5H94.125V41.25Z" fill="#333333"/>
<path d="M96.375 41.25H94.125V43.5H96.375V41.25Z" fill="#333333"/>
<path d="M98.625 41.25H96.375V43.5H98.625V41.25Z" fill="#333333"/>
<path d="M103.125 41.25H100.875V43.5H103.125V41.25Z" fill="#333333"/>
<path d="M49.125 43.5H46.875V45.75H49.125V43.5Z" fill="#333333"/>
<path d="M53.625 43.5H51.375V45.75H53.625V43.5Z" fill="#333333"/>
<path d="M55.875 43.5H53.625V45.75H55.875V43.5Z" fill="#333333"/>
<path d="M58.125 43.5H55.875V45.75H58.125V43.5Z" fill="#333333"/>
<path d="M62.625 43.5H60.375V45.75H62.625V43.5Z" fill="#333333"/>
<path d="M67.125 43.5H64.875V45.75H67.125V43.5Z" fill="#333333"/>
<path d="M71.625 43.5H69.375V45.75H71.625V43.5Z" fill="#333333"/>
<path d="M76.125 43.5H73.875V45.75H76.125V43.5Z" fill="#333333"/>
<path d="M82.875 43.5H80.625L80.625 45.75H82.875V43.5Z" fill="#333333"/>
<path d="M85.125 43.5H82.875V45.75H85.125V43.5Z" fill="#333333"/>
<path d="M89.625 43.5H87.375V45.75H89.625V43.5Z" fill="#333333"/>
<path d="M94.125 43.5H91.875V45.75H94.125V43.5Z" fill="#333333"/>
<path d="M96.375 43.5H94.125V45.75H96.375V43.5Z" fill="#333333"/>
<path d="M98.625 43.5H96.375V45.75H98.625V43.5Z" fill="#333333"/>
<path d="M103.125 43.5H100.875V45.75H103.125V43.5Z" fill="#333333"/>
<path d="M49.125 45.75H46.875V48H49.125V45.75Z" fill="#333333"/>
<path d="M53.625 45.75H51.375V48H53.625V45.75Z" fill="#333333"/>
<path d="M55.875 45.75H53.625V48H55.875V45.75Z" fill="#333333"/>
<path d="M58.125 45.75H55.875V48H58.125V45.75Z" fill="#333333"/>
<path d="M62.625 45.75H60.375V48H62.625V45.75Z" fill="#333333"/>
<path d="M67.125 45.75H64.875V48H67.125V45.75Z" fill="#333333"/>
<path d="M69.375 45.75H67.125V48H69.375V45.75Z" fill="#333333"/>
<path d="M82.875 45.75H80.625V48H82.875V45.75Z" fill="#333333"/>
<path d="M85.125 45.75H82.875V48H85.125V45.75Z" fill="#333333"/>
<path d="M89.625 45.75H87.375V48H89.625V45.75Z" fill="#333333"/>
<path d="M94.125 45.75H91.875V48H94.125V45.75Z" fill="#333333"/>
<path d="M96.375 45.75H94.125V48H96.375V45.75Z" fill="#333333"/>
<path d="M98.625 45.75H96.375V48H98.625V45.75Z" fill="#333333"/>
<path d="M103.125 45.75H100.875V48H103.125V45.75Z" fill="#333333"/>
<path d="M49.125 48H46.875V50.25H49.125V48Z" fill="#333333"/>
<path d="M62.625 48H60.375V50.25H62.625V48Z" fill="#333333"/>
<path d="M67.125 48H64.875V50.25H67.125V48Z" fill="#333333"/>
<path d="M71.625 48H69.375V50.25H71.625V48Z" fill="#333333"/>
<path d="M76.125 48H73.875V50.25H76.125V48Z" fill="#333333"/>
<path d="M78.375 48H76.125V50.25H78.375V48Z" fill="#333333"/>
<path d="M80.625 48H78.375V50.25H80.625L80.625 48Z" fill="#333333"/>
<path d="M85.125 48H82.875V50.25H85.125V48Z" fill="#333333"/>
<path d="M89.625 48H87.375V50.25H89.625V48Z" fill="#333333"/>
<path d="M103.125 48H100.875V50.25H103.125V48Z" fill="#333333"/>
<path d="M49.125 50.25H46.875V52.5H49.125V50.25Z" fill="#333333"/>
<path d="M51.375 50.25L49.125 50.25V52.5H51.375V50.25Z" fill="#333333"/>
<path d="M53.625 50.25H51.375V52.5H53.625V50.25Z" fill="#333333"/>
<path d="M55.875 50.25H53.625V52.5H55.875V50.25Z" fill="#333333"/>
<path d="M58.125 50.25H55.875V52.5H58.125V50.25Z" fill="#333333"/>
<path d="M60.375 50.25L58.125 50.25V52.5H60.375L60.375 50.25Z" fill="#333333"/>
<path d="M62.625 50.25H60.375L60.375 52.5H62.625V50.25Z" fill="#333333"/>
<path d="M67.125 50.25H64.875V52.5H67.125V50.25Z" fill="#333333"/>
<path d="M71.625 50.25H69.375V52.5H71.625V50.25Z" fill="#333333"/>
<path d="M76.125 50.25H73.875V52.5H76.125V50.25Z" fill="#333333"/>
<path d="M80.625 50.25H78.375V52.5H80.625V50.25Z" fill="#333333"/>
<path d="M85.125 50.25H82.875V52.5H85.125V50.25Z" fill="#333333"/>
<path d="M89.625 50.25H87.375V52.5H89.625V50.25Z" fill="#333333"/>
<path d="M91.875 50.25L89.625 50.25V52.5H91.875V50.25Z" fill="#333333"/>
<path d="M94.125 50.25H91.875V52.5H94.125V50.25Z" fill="#333333"/>
<path d="M96.375 50.25H94.125V52.5H96.375V50.25Z" fill="#333333"/>
<path d="M98.625 50.25H96.375V52.5H98.625V50.25Z" fill="#333333"/>
<path d="M100.875 50.25L98.625 50.25V52.5H100.875V50.25Z" fill="#333333"/>
<path d="M103.125 50.25H100.875V52.5H103.125V50.25Z" fill="#333333"/>
<path d="M67.125 52.5H64.875V54.75H67.125V52.5Z" fill="#333333"/>
<path d="M69.375 52.5H67.125V54.75H69.375V52.5Z" fill="#333333"/>
<path d="M76.125 52.5H73.875V54.75H76.125V52.5Z" fill="#333333"/>
<path d="M78.375 52.5H76.125V54.75H78.375V52.5Z" fill="#333333"/>
<path d="M82.875 52.5H80.625L80.625 54.75H82.875V52.5Z" fill="#333333"/>
<path d="M49.125 54.75H46.875V57H49.125V54.75Z" fill="#333333"/>
<path d="M51.375 54.75H49.125V57H51.375V54.75Z" fill="#333333"/>
<path d="M53.625 54.75H51.375V57H53.625V54.75Z" fill="#333333"/>
<path d="M58.125 54.75H55.875V57H58.125V54.75Z" fill="#333333"/>
<path d="M62.625 54.75H60.375V57H62.625V54.75Z" fill="#333333"/>
<path d="M67.125 54.75H64.875V57H67.125V54.75Z" fill="#333333"/>
<path d="M69.375 54.75H67.125V57H69.375V54.75Z" fill="#333333"/>
<path d="M71.625 54.75H69.375V57H71.625V54.75Z" fill="#333333"/>
<path d="M78.375 54.75H76.125V57H78.375V54.75Z" fill="#333333"/>
<path d="M80.625 54.75H78.375V57H80.625L80.625 54.75Z" fill="#333333"/>
<path d="M85.125 54.75H82.875V57H85.125V54.75Z" fill="#333333"/>
<path d="M87.375 54.75H85.125V57H87.375V54.75Z" fill="#333333"/>
<path d="M89.625 54.75H87.375V57H89.625V54.75Z" fill="#333333"/>
<path d="M91.875 54.75H89.625V57H91.875V54.75Z" fill="#333333"/>
<path d="M94.125 54.75H91.875V57H94.125V54.75Z" fill="#333333"/>
<path d="M96.375 54.75H94.125V57H96.375V54.75Z" fill="#333333"/>
<path d="M103.125 54.75H100.875V57H103.125V54.75Z" fill="#333333"/>
<path d="M51.375 57H49.125V59.25H51.375V57Z" fill="#333333"/>
<path d="M53.625 57H51.375V59.25H53.625V57Z" fill="#333333"/>
<path d="M55.875 57H53.625V59.25H55.875V57Z" fill="#333333"/>
<path d="M58.125 57H55.875V59.25H58.125V57Z" fill="#333333"/>
<path d="M60.375 57H58.125V59.25H60.375L60.375 57Z" fill="#333333"/>
<path d="M69.375 57H67.125V59.25H69.375V57Z" fill="#333333"/>
<path d="M71.625 57H69.375V59.25H71.625V57Z" fill="#333333"/>
<path d="M76.125 57H73.875V59.25H76.125V57Z" fill="#333333"/>
<path d="M78.375 57H76.125V59.25H78.375V57Z" fill="#333333"/>
<path d="M80.625 57H78.375V59.25H80.625V57Z" fill="#333333"/>
<path d="M94.125 57H91.875V59.25H94.125V57Z" fill="#333333"/>
<path d="M100.875 57H98.625V59.25H100.875V57Z" fill="#333333"/>
<path d="M103.125 57H100.875V59.25H103.125V57Z" fill="#333333"/>
<path d="M51.375 59.25H49.125V61.5H51.375V59.25Z" fill="#333333"/>
<path d="M58.125 59.25H55.875V61.5H58.125V59.25Z" fill="#333333"/>
<path d="M62.625 59.25H60.375L60.375 61.5H62.625V59.25Z" fill="#333333"/>
<path d="M64.875 59.25H62.625V61.5H64.875V59.25Z" fill="#333333"/>
<path d="M69.375 59.25H67.125V61.5H69.375V59.25Z" fill="#333333"/>
<path d="M71.625 59.25H69.375V61.5H71.625V59.25Z" fill="#333333"/>
<path d="M85.125 59.25H82.875V61.5H85.125V59.25Z" fill="#333333"/>
<path d="M87.375 59.25H85.125V61.5H87.375V59.25Z" fill="#333333"/>
<path d="M89.625 59.25H87.375V61.5H89.625V59.25Z" fill="#333333"/>
<path d="M94.125 59.25H91.875V61.5H94.125V59.25Z" fill="#333333"/>
<path d="M98.625 59.25H96.375V61.5H98.625V59.25Z" fill="#333333"/>
<path d="M100.875 59.25H98.625V61.5H100.875V59.25Z" fill="#333333"/>
<path d="M49.125 61.5H46.875V63.75H49.125V61.5Z" fill="#333333"/>
<path d="M58.125 61.5H55.875V63.75H58.125V61.5Z" fill="#333333"/>
<path d="M67.125 61.5H64.875V63.75H67.125V61.5Z" fill="#333333"/>
<path d="M69.375 61.5H67.125V63.75H69.375V61.5Z" fill="#333333"/>
<path d="M71.625 61.5H69.375V63.75H71.625V61.5Z" fill="#333333"/>
<path d="M80.625 61.5H78.375V63.75H80.625V61.5Z" fill="#333333"/>
<path d="M82.875 61.5H80.625V63.75H82.875V61.5Z" fill="#333333"/>
<path d="M87.375 61.5H85.125V63.75H87.375V61.5Z" fill="#333333"/>
<path d="M89.625 61.5H87.375V63.75H89.625V61.5Z" fill="#333333"/>
<path d="M51.375 63.75H49.125V66H51.375V63.75Z" fill="#333333"/>
<path d="M53.625 63.75H51.375V66H53.625V63.75Z" fill="#333333"/>
<path d="M58.125 63.75H55.875V66H58.125V63.75Z" fill="#333333"/>
<path d="M62.625 63.75H60.375V66H62.625V63.75Z" fill="#333333"/>
<path d="M64.875 63.75H62.625V66H64.875V63.75Z" fill="#333333"/>
<path d="M69.375 63.75H67.125V66H69.375V63.75Z" fill="#333333"/>
<path d="M71.625 63.75H69.375V66H71.625V63.75Z" fill="#333333"/>
<path d="M76.125 63.75H73.875V66H76.125V63.75Z" fill="#333333"/>
<path d="M80.625 63.75H78.375V66H80.625V63.75Z" fill="#333333"/>
<path d="M87.375 63.75H85.125V66H87.375V63.75Z" fill="#333333"/>
<path d="M91.875 63.75H89.625V66H91.875V63.75Z" fill="#333333"/>
<path d="M94.125 63.75H91.875V66H94.125V63.75Z" fill="#333333"/>
<path d="M98.625 63.75H96.375V66H98.625V63.75Z" fill="#333333"/>
<path d="M53.625 66H51.375V68.25H53.625V66Z" fill="#333333"/>
<path d="M55.875 66H53.625V68.25H55.875V66Z" fill="#333333"/>
<path d="M58.125 66H55.875V68.25H58.125V66Z" fill="#333333"/>
<path d="M64.875 66H62.625V68.25H64.875V66Z" fill="#333333"/>
<path d="M69.375 66H67.125V68.25H69.375V66Z" fill="#333333"/>
<path d="M71.625 66H69.375V68.25H71.625V66Z" fill="#333333"/>
<path d="M87.375 66H85.125V68.25H87.375V66Z" fill="#333333"/>
<path d="M94.125 66H91.875V68.25H94.125V66Z" fill="#333333"/>
<path d="M103.125 66H100.875V68.25H103.125V66Z" fill="#333333"/>
<path d="M49.125 68.25H46.875V70.5H49.125V68.25Z" fill="#333333"/>
<path d="M58.125 68.25H55.875V70.5H58.125V68.25Z" fill="#333333"/>
<path d="M62.625 68.25H60.375V70.5H62.625V68.25Z" fill="#333333"/>
<path d="M67.125 68.25H64.875V70.5H67.125V68.25Z" fill="#333333"/>
<path d="M69.375 68.25H67.125V70.5H69.375V68.25Z" fill="#333333"/>
<path d="M73.875 68.25H71.625V70.5H73.875V68.25Z" fill="#333333"/>
<path d="M76.125 68.25H73.875V70.5H76.125V68.25Z" fill="#333333"/>
<path d="M78.375 68.25H76.125V70.5H78.375V68.25Z" fill="#333333"/>
<path d="M80.625 68.25H78.375V70.5H80.625V68.25Z" fill="#333333"/>
<path d="M85.125 68.25H82.875V70.5H85.125V68.25Z" fill="#333333"/>
<path d="M91.875 68.25H89.625V70.5H91.875V68.25Z" fill="#333333"/>
<path d="M94.125 68.25H91.875V70.5H94.125V68.25Z" fill="#333333"/>
<path d="M96.375 68.25H94.125V70.5H96.375V68.25Z" fill="#333333"/>
<path d="M98.625 68.25H96.375V70.5H98.625V68.25Z" fill="#333333"/>
<path d="M100.875 68.25H98.625V70.5H100.875V68.25Z" fill="#333333"/>
<path d="M103.125 68.25H100.875V70.5H103.125V68.25Z" fill="#333333"/>
<path d="M67.125 70.5H64.875V72.75H67.125V70.5Z" fill="#333333"/>
<path d="M69.375 70.5H67.125V72.75H69.375V70.5Z" fill="#333333"/>
<path d="M71.625 70.5H69.375V72.75H71.625V70.5Z" fill="#333333"/>
<path d="M76.125 70.5H73.875V72.75H76.125V70.5Z" fill="#333333"/>
<path d="M78.375 70.5H76.125V72.75H78.375V70.5Z" fill="#333333"/>
<path d="M80.625 70.5H78.375V72.75H80.625V70.5Z" fill="#333333"/>
<path d="M82.875 70.5H80.625V72.75H82.875V70.5Z" fill="#333333"/>
<path d="M85.125 70.5H82.875V72.75H85.125V70.5Z" fill="#333333"/>
<path d="M87.375 70.5L85.125 70.5V72.75H87.375V70.5Z" fill="#333333"/>
<path d="M91.875 70.5H89.625V72.75H91.875V70.5Z" fill="#333333"/>
<path d="M94.125 70.5H91.875V72.75H94.125V70.5Z" fill="#333333"/>
<path d="M96.375 70.5H94.125V72.75H96.375V70.5Z" fill="#333333"/>
<path d="M49.125 72.75H46.875V75H49.125V72.75Z" fill="#333333"/>
<path d="M53.625 72.75H51.375V75H53.625V72.75Z" fill="#333333"/>
<path d="M58.125 72.75H55.875V75H58.125V72.75Z" fill="#333333"/>
<path d="M62.625 72.75H60.375V75H62.625V72.75Z" fill="#333333"/>
<path d="M64.875 72.75H62.625V75H64.875V72.75Z" fill="#333333"/>
<path d="M67.125 72.75H64.875V75H67.125V72.75Z" fill="#333333"/>
<path d="M78.375 72.75H76.125V75H78.375V72.75Z" fill="#333333"/>
<path d="M82.875 72.75H80.625L80.625 75H82.875V72.75Z" fill="#333333"/>
<path d="M85.125 72.75H82.875V75H85.125V72.75Z" fill="#333333"/>
<path d="M87.375 72.75H85.125V75H87.375V72.75Z" fill="#333333"/>
<path d="M89.625 72.75H87.375V75H89.625V72.75Z" fill="#333333"/>
<path d="M91.875 72.75H89.625V75H91.875V72.75Z" fill="#333333"/>
<path d="M94.125 72.75H91.875V75H94.125V72.75Z" fill="#333333"/>
<path d="M98.625 72.75H96.375V75H98.625V72.75Z" fill="#333333"/>
<path d="M103.125 72.75H100.875V75H103.125V72.75Z" fill="#333333"/>
<path d="M67.125 75H64.875V77.25H67.125V75Z" fill="#333333"/>
<path d="M71.625 75H69.375V77.25H71.625V75Z" fill="#333333"/>
<path d="M73.875 75H71.625V77.25H73.875V75Z" fill="#333333"/>
<path d="M80.625 75H78.375V77.25H80.625L80.625 75Z" fill="#333333"/>
<path d="M82.875 75H80.625L80.625 77.25H82.875V75Z" fill="#333333"/>
<path d="M85.125 75H82.875V77.25H85.125V75Z" fill="#333333"/>
<path d="M94.125 75H91.875V77.25H94.125V75Z" fill="#333333"/>
<path d="M96.375 75H94.125V77.25H96.375V75Z" fill="#333333"/>
<path d="M98.625 75H96.375V77.25H98.625V75Z" fill="#333333"/>
<path d="M100.875 75H98.625V77.25H100.875V75Z" fill="#333333"/>
<path d="M103.125 75H100.875V77.25H103.125V75Z" fill="#333333"/>
<path d="M49.125 77.25H46.875V79.5H49.125V77.25Z" fill="#333333"/>
<path d="M51.375 77.25H49.125V79.5H51.375V77.25Z" fill="#333333"/>
<path d="M53.625 77.25H51.375V79.5H53.625V77.25Z" fill="#333333"/>
<path d="M55.875 77.25H53.625V79.5H55.875V77.25Z" fill="#333333"/>
<path d="M58.125 77.25H55.875V79.5H58.125V77.25Z" fill="#333333"/>
<path d="M60.375 77.25H58.125V79.5H60.375V77.25Z" fill="#333333"/>
<path d="M62.625 77.25H60.375V79.5H62.625V77.25Z" fill="#333333"/>
<path d="M73.875 77.25H71.625V79.5H73.875V77.25Z" fill="#333333"/>
<path d="M76.125 77.25H73.875V79.5H76.125V77.25Z" fill="#333333"/>
<path d="M80.625 77.25H78.375V79.5H80.625V77.25Z" fill="#333333"/>
<path d="M82.875 77.25H80.625V79.5H82.875V77.25Z" fill="#333333"/>
<path d="M85.125 77.25H82.875V79.5H85.125V77.25Z" fill="#333333"/>
<path d="M89.625 77.25H87.375V79.5H89.625V77.25Z" fill="#333333"/>
<path d="M94.125 77.25H91.875V79.5H94.125V77.25Z" fill="#333333"/>
<path d="M96.375 77.25H94.125V79.5H96.375V77.25Z" fill="#333333"/>
<path d="M103.125 77.25H100.875V79.5H103.125V77.25Z" fill="#333333"/>
<path d="M49.125 79.5H46.875V81.75H49.125V79.5Z" fill="#333333"/>
<path d="M62.625 79.5H60.375L60.375 81.75H62.625V79.5Z" fill="#333333"/>
<path d="M69.375 79.5H67.125V81.75H69.375V79.5Z" fill="#333333"/>
<path d="M73.875 79.5H71.625V81.75H73.875V79.5Z" fill="#333333"/>
<path d="M82.875 79.5H80.625L80.625 81.75H82.875V79.5Z" fill="#333333"/>
<path d="M85.125 79.5H82.875V81.75H85.125V79.5Z" fill="#333333"/>
<path d="M94.125 79.5H91.875V81.75H94.125V79.5Z" fill="#333333"/>
<path d="M100.875 79.5H98.625V81.75H100.875V79.5Z" fill="#333333"/>
<path d="M49.125 81.75H46.875V84H49.125V81.75Z" fill="#333333"/>
<path d="M53.625 81.75H51.375V84H53.625V81.75Z" fill="#333333"/>
<path d="M55.875 81.75H53.625V84H55.875V81.75Z" fill="#333333"/>
<path d="M58.125 81.75H55.875V84H58.125V81.75Z" fill="#333333"/>
<path d="M62.625 81.75H60.375V84H62.625V81.75Z" fill="#333333"/>
<path d="M67.125 81.75H64.875V84H67.125V81.75Z" fill="#333333"/>
<path d="M69.375 81.75H67.125V84H69.375V81.75Z" fill="#333333"/>
<path d="M71.625 81.75H69.375V84H71.625V81.75Z" fill="#333333"/>
<path d="M78.375 81.75H76.125V84H78.375V81.75Z" fill="#333333"/>
<path d="M80.625 81.75H78.375V84H80.625L80.625 81.75Z" fill="#333333"/>
<path d="M85.125 81.75H82.875V84H85.125V81.75Z" fill="#333333"/>
<path d="M87.375 81.75H85.125V84H87.375V81.75Z" fill="#333333"/>
<path d="M89.625 81.75H87.375V84H89.625V81.75Z" fill="#333333"/>
<path d="M91.875 81.75H89.625V84H91.875V81.75Z" fill="#333333"/>
<path d="M94.125 81.75H91.875V84H94.125V81.75Z" fill="#333333"/>
<path d="M98.625 81.75H96.375V84H98.625V81.75Z" fill="#333333"/>
<path d="M100.875 81.75H98.625V84H100.875V81.75Z" fill="#333333"/>
<path d="M49.125 84H46.875V86.25H49.125V84Z" fill="#333333"/>
<path d="M53.625 84H51.375V86.25H53.625V84Z" fill="#333333"/>
<path d="M55.875 84H53.625V86.25H55.875V84Z" fill="#333333"/>
<path d="M58.125 84H55.875V86.25H58.125V84Z" fill="#333333"/>
<path d="M62.625 84H60.375V86.25H62.625V84Z" fill="#333333"/>
<path d="M69.375 84H67.125V86.25H69.375V84Z" fill="#333333"/>
<path d="M71.625 84H69.375V86.25H71.625V84Z" fill="#333333"/>
<path d="M73.875 84H71.625V86.25H73.875V84Z" fill="#333333"/>
<path d="M80.625 84H78.375V86.25H80.625V84Z" fill="#333333"/>
<path d="M82.875 84H80.625V86.25H82.875V84Z" fill="#333333"/>
<path d="M98.625 84H96.375V86.25H98.625V84Z" fill="#333333"/>
<path d="M103.125 84H100.875V86.25H103.125V84Z" fill="#333333"/>
<path d="M49.125 86.25H46.875V88.5H49.125V86.25Z" fill="#333333"/>
<path d="M53.625 86.25H51.375V88.5H53.625V86.25Z" fill="#333333"/>
<path d="M55.875 86.25H53.625V88.5H55.875V86.25Z" fill="#333333"/>
<path d="M58.125 86.25H55.875V88.5H58.125V86.25Z" fill="#333333"/>
<path d="M62.625 86.25H60.375V88.5H62.625V86.25Z" fill="#333333"/>
<path d="M67.125 86.25H64.875V88.5H67.125V86.25Z" fill="#333333"/>
<path d="M69.375 86.25H67.125V88.5H69.375V86.25Z" fill="#333333"/>
<path d="M73.875 86.25H71.625V88.5H73.875V86.25Z" fill="#333333"/>
<path d="M80.625 86.25H78.375V88.5H80.625V86.25Z" fill="#333333"/>
<path d="M82.875 86.25H80.625V88.5H82.875V86.25Z" fill="#333333"/>
<path d="M85.125 86.25H82.875V88.5H85.125V86.25Z" fill="#333333"/>
<path d="M87.375 86.25H85.125V88.5H87.375V86.25Z" fill="#333333"/>
<path d="M98.625 86.25H96.375V88.5H98.625V86.25Z" fill="#333333"/>
<path d="M100.875 86.25H98.625V88.5H100.875V86.25Z" fill="#333333"/>
<path d="M49.125 88.5H46.875V90.75H49.125V88.5Z" fill="#333333"/>
<path d="M62.625 88.5H60.375V90.75H62.625V88.5Z" fill="#333333"/>
<path d="M67.125 88.5H64.875V90.75H67.125V88.5Z" fill="#333333"/>
<path d="M69.375 88.5H67.125V90.75H69.375V88.5Z" fill="#333333"/>
<path d="M73.875 88.5H71.625V90.75H73.875V88.5Z" fill="#333333"/>
<path d="M78.375 88.5H76.125V90.75H78.375V88.5Z" fill="#333333"/>
<path d="M80.625 88.5H78.375V90.75H80.625V88.5Z" fill="#333333"/>
<path d="M85.125 88.5H82.875V90.75H85.125V88.5Z" fill="#333333"/>
<path d="M87.375 88.5H85.125V90.75H87.375V88.5Z" fill="#333333"/>
<path d="M91.875 88.5H89.625V90.75H91.875V88.5Z" fill="#333333"/>
<path d="M94.125 88.5H91.875V90.75H94.125V88.5Z" fill="#333333"/>
<path d="M96.375 88.5H94.125V90.75H96.375V88.5Z" fill="#333333"/>
<path d="M98.625 88.5H96.375V90.75H98.625V88.5Z" fill="#333333"/>
<path d="M100.875 88.5H98.625V90.75H100.875V88.5Z" fill="#333333"/>
<path d="M49.125 90.75H46.875V93H49.125V90.75Z" fill="#333333"/>
<path d="M51.375 90.75H49.125V93H51.375V90.75Z" fill="#333333"/>
<path d="M53.625 90.75H51.375V93H53.625V90.75Z" fill="#333333"/>
<path d="M55.875 90.75H53.625V93H55.875V90.75Z" fill="#333333"/>
<path d="M58.125 90.75H55.875V93H58.125V90.75Z" fill="#333333"/>
<path d="M60.375 90.75H58.125V93H60.375L60.375 90.75Z" fill="#333333"/>
<path d="M62.625 90.75H60.375L60.375 93H62.625V90.75Z" fill="#333333"/>
<path d="M67.125 90.75H64.875V93H67.125V90.75Z" fill="#333333"/>
<path d="M71.625 90.75H69.375V93H71.625V90.75Z" fill="#333333"/>
<path d="M73.875 90.75H71.625V93H73.875V90.75Z" fill="#333333"/>
<path d="M76.125 90.75H73.875V93H76.125V90.75Z" fill="#333333"/>
<path d="M80.625 90.75H78.375V93H80.625V90.75Z" fill="#333333"/>
<path d="M82.875 90.75H80.625V93H82.875V90.75Z" fill="#333333"/>
<path d="M89.625 90.75H87.375V93H89.625V90.75Z" fill="#333333"/>
<path d="M91.875 90.75H89.625V93H91.875V90.75Z" fill="#333333"/>
<path d="M94.125 90.75H91.875V93H94.125V90.75Z" fill="#333333"/>
<path d="M96.375 90.75H94.125V93H96.375V90.75Z" fill="#333333"/>
<path d="M98.625 90.75H96.375V93H98.625V90.75Z" fill="#333333"/>
<path d="M100.875 90.75H98.625V93H100.875V90.75Z" fill="#333333"/>
<path d="M103.125 90.75H100.875V93H103.125V90.75Z" fill="#333333"/>
</g>
<path d="M312.476 151.498C313.581 151.485 314.486 152.37 314.499 153.475L314.706 171.473C314.718 172.578 313.833 173.484 312.729 173.496C311.624 173.509 310.719 172.624 310.706 171.519L310.522 155.52L294.523 155.704C293.419 155.717 292.513 154.832 292.5 153.727C292.488 152.623 293.373 151.717 294.477 151.704L312.476 151.498ZM77.4935 171.844C79.0569 192.214 88.9239 206.485 104.158 215.243C119.488 224.055 140.397 227.356 163.998 225.306C211.191 221.207 268.387 195.773 311.069 152.1L313.929 154.895C270.611 199.22 212.536 225.105 164.344 229.291C140.252 231.383 118.44 228.067 102.164 218.711C85.7932 209.299 75.1708 193.85 73.5052 172.15L77.4935 171.844Z" fill="#333333"/>
<defs>
<clipPath id="clip0_2750_209811">
<rect width="150" height="150" fill="white"/>
</clipPath>
</defs>
</svg>
