<svg width="337" height="400" viewBox="0 0 337 400" fill="none" xmlns="http://www.w3.org/2000/svg">
<path d="M314.948 148.123L312.575 148.575C312.389 148.588 312.203 148.546 312.04 148.454C311.878 148.362 311.746 148.224 311.661 148.058C311.576 147.892 311.542 147.704 311.563 147.518C311.584 147.333 311.659 147.157 311.779 147.014H311.873C311.201 147.311 310.53 147.607 309.828 147.873C309.77 148.913 309.77 149.955 309.828 150.995L325.141 230.208L268.101 241.261C268.118 241.375 268.118 241.491 268.101 241.605C268.078 241.852 267.958 242.08 267.769 242.24C267.579 242.401 267.334 242.481 267.087 242.463C266.166 242.292 265.229 242.12 264.292 241.995L188.77 256.639C188.757 256.771 188.714 256.899 188.645 257.013C188.36 257.493 188.042 257.952 187.693 258.387C187.737 258.666 187.705 258.952 187.599 259.214C187.015 260.967 186.257 262.656 185.336 264.257C185.037 264.679 184.592 264.974 184.087 265.084C183.758 265.153 183.417 265.125 183.103 265.006C182.746 265.778 182.483 266.591 182.323 267.426L303.334 244.009L303.443 243.868C304.148 243.203 304.984 242.691 305.898 242.366C306.812 242.041 307.783 241.909 308.751 241.979C309.439 241.174 310.257 240.488 311.17 239.95C311.582 239.679 312.054 239.516 312.545 239.475C313.036 239.434 313.529 239.517 313.98 239.716C314.579 240.071 315.037 240.622 315.276 241.277C316.467 241.131 317.666 241.047 318.866 241.027L336.037 237.686L319.256 151.151C317.595 150.508 316.116 149.468 314.948 148.123Z" fill="#333333"/>
<path d="M158.517 34.9231L159.079 35.0324L170.365 32.8467C171.614 32.3003 172.847 31.7227 174.049 31.2075C176.32 30.1338 178.761 29.463 181.261 29.2248C182.752 29.156 184.242 29.3787 185.648 29.8805L282.713 11.0686L291.72 57.4974C291.824 57.3485 291.97 57.2327 292.138 57.1638C292.307 57.0949 292.491 57.0757 292.67 57.1086C292.85 57.1414 293.015 57.2249 293.149 57.3492C293.282 57.4734 293.376 57.6332 293.421 57.8097C293.945 59.8512 294.228 61.947 294.264 64.0543C294.215 65.0662 293.983 66.0608 293.577 66.9892L308.891 146.031C309.812 145.687 310.717 145.312 311.623 144.907C311.713 144.362 311.913 143.842 312.211 143.378C312.509 142.913 312.898 142.515 313.356 142.206C314.009 141.896 314.755 141.841 315.447 142.05C315.808 141.23 316.07 140.371 316.228 139.489C316.448 138.416 316.547 137.322 316.524 136.227L315.916 133.026C315.916 132.854 315.775 132.698 315.697 132.542C315.633 132.422 315.599 132.288 315.599 132.152C315.599 132.016 315.633 131.882 315.697 131.762L299.587 48.6769C299.494 48.6918 299.399 48.6918 299.306 48.6769C298.742 48.737 298.173 48.6424 297.658 48.4031C297.144 48.1638 296.704 47.7889 296.387 47.3187C295.943 46.4083 295.806 45.3785 295.997 44.3837C296.153 43.2128 296.45 42.0576 296.684 40.9023C296.935 39.8818 297.009 38.8256 296.902 37.78C296.864 37.6033 296.883 37.4191 296.956 37.2537C297.029 37.0884 297.152 36.9502 297.308 36.8589L290.159 0L150.181 27.2578C147.582 28.7698 144.618 29.5418 141.611 29.4902C141.469 29.4813 141.332 29.4365 141.212 29.3601C141.091 29.2837 140.993 29.1781 140.924 29.0531L71.4743 42.5259C71.4335 42.7065 71.3432 42.8723 71.2137 43.0046C71.0841 43.1369 70.9203 43.2306 70.7406 43.2753L67.0878 43.9778C67.0734 44.5328 66.9059 45.0731 66.6039 45.539C66.579 45.7569 66.4732 45.9575 66.3073 46.101C66.0676 46.297 65.8383 46.5054 65.6205 46.7254C65.199 47.1157 64.7931 47.5372 64.356 47.9119C64.2074 48.0546 64.0247 48.1568 63.8253 48.2085C63.6626 48.2367 63.4955 48.2228 63.3398 48.1681C63.184 48.1135 63.0449 48.0199 62.9355 47.8963C62.7741 47.7048 62.6905 47.4596 62.7013 47.2094C62.6925 47.1211 62.6925 47.0322 62.7013 46.944C62.1394 46.944 61.5774 46.944 61.031 46.8035C60.7854 46.776 60.5597 46.6555 60.4 46.4668C60.2404 46.2781 60.159 46.0355 60.1725 45.7887C60.1924 45.5429 60.3085 45.3149 60.4956 45.1541C60.6826 44.9933 60.9255 44.9129 61.1715 44.9301C61.761 45.0157 62.3555 45.0626 62.9511 45.0706H63.4194C63.4868 45.0783 63.5549 45.0783 63.6223 45.0706C63.1634 45.005 62.7428 44.7781 62.436 44.4305C62.4312 44.389 62.4312 44.3471 62.436 44.3056L22.2239 52.1114C22.4097 52.1137 22.592 52.1619 22.7546 52.2519C22.9555 52.3938 23.0937 52.608 23.1403 52.8495C23.1869 53.0911 23.1382 53.3412 23.0044 53.5477C22.6826 53.9755 22.3221 54.3727 21.9273 54.7342L21.818 54.859C21.818 54.781 21.9117 54.859 21.818 54.859C21.7506 54.9385 21.6881 55.0219 21.6307 55.1088C21.6307 55.1088 21.6307 55.2337 21.6307 55.2806C21.6234 55.3323 21.6234 55.3849 21.6307 55.4367C21.6234 55.4675 21.6234 55.4996 21.6307 55.5304C21.6103 55.6909 21.55 55.8438 21.4553 55.9751C21.3606 56.1063 21.2344 56.2117 21.0885 56.2816C20.9425 56.3514 20.7813 56.3836 20.6197 56.3751C20.4581 56.3666 20.3012 56.3177 20.1633 56.2329C20.0803 56.188 19.9907 56.1564 19.8979 56.1392C19.8014 56.1009 19.7023 56.0696 19.6013 56.0455C19.6041 56.4855 19.4852 56.9177 19.2579 57.2945C19.1689 57.4242 19.0464 57.5275 18.9036 57.5934C18.7607 57.6594 18.6027 57.6855 18.4462 57.6691C18.2894 58.5479 17.9944 59.3962 17.572 60.1826C17.1007 60.9859 16.4618 61.6781 15.6988 62.2121C15.8497 62.4147 15.9755 62.6349 16.0734 62.8678L75.8608 51.284V51.1903C76.1143 50.7658 76.4421 50.3903 76.8286 50.0819C77.085 49.8917 77.3817 49.7632 77.6957 49.7064C78.0098 49.6495 78.3327 49.6659 78.6394 49.7541C79.1301 49.906 79.59 50.1439 79.9975 50.4566L157.409 35.4539C157.499 35.2467 157.66 35.0788 157.864 34.9813C158.068 34.8837 158.3 34.8631 158.517 34.9231Z" fill="#333333"/>
<path d="M54.4123 282.726L40.363 210.366C40.2397 210.506 40.0771 210.607 39.8963 210.654C39.7155 210.701 39.5247 210.693 39.3484 210.631C39.115 210.55 38.9234 210.379 38.8152 210.157C38.707 209.935 38.691 209.679 38.7708 209.445C39.0044 208.758 39.3586 208.118 39.8167 207.556L21.4121 112.466L21.2404 112.169C20.866 111.397 20.5982 110.578 20.4443 109.734C20.1221 109.71 19.7986 109.71 19.4765 109.734C19.335 109.758 19.1899 109.749 19.0522 109.709C18.9144 109.669 18.7875 109.598 18.6809 109.502C18.5743 109.406 18.4908 109.287 18.4367 109.154C18.3825 109.021 18.3591 108.878 18.3681 108.735C18.3497 106.933 18.8132 105.16 19.7106 103.598L12.2489 65.1315C12.1243 64.9263 12.0147 64.7124 11.9211 64.4914L11.5464 63.7889C11.3931 63.7849 11.2438 63.7393 11.1145 63.6567C10.9852 63.5742 10.8809 63.458 10.8128 63.3205C10.7043 63.0988 10.6877 62.8432 10.7667 62.6094C10.8456 62.3755 11.0136 62.1822 11.2342 62.0716C11.6243 61.9202 11.98 61.6919 12.2801 61.4003C12.4927 61.1579 12.6665 60.8841 12.7953 60.5885C13.0406 59.9285 13.1725 59.2318 13.1855 58.5278C12.9511 58.2101 12.7813 57.8494 12.686 57.4662C12.6152 56.9419 12.6632 56.4083 12.8265 55.905C12.8595 55.7733 12.93 55.654 13.0294 55.5616C13.0294 54.9683 12.9358 54.3751 12.9045 53.7819L0.962677 56.0924L35.0399 231.91C35.21 231.819 35.4078 231.794 35.5952 231.84C35.7826 231.886 35.9462 232 36.0546 232.16C36.937 233.115 37.4226 234.371 37.4127 235.672C37.3658 235.929 37.2926 236.18 37.1941 236.422C37.3516 236.536 37.4673 236.698 37.5237 236.884C37.5801 237.07 37.574 237.27 37.5063 237.452C37.0497 238.347 36.9015 239.368 37.0849 240.356C37.2809 241.285 37.5471 242.198 37.881 243.088C38.4698 244.582 38.5467 246.229 38.0995 247.771L46.9974 293.716L49.5263 293.216C50.9479 292.747 52.3972 292.367 53.8659 292.077C53.8439 291.969 53.845 291.857 53.8692 291.75C53.8934 291.642 53.9402 291.541 54.0064 291.452C54.3775 291.023 54.7736 290.617 55.1928 290.235C55.1538 290.076 55.1538 289.91 55.1928 289.751C55.4547 288.67 56.0633 287.705 56.9255 287.003C57.7078 286.426 58.6734 286.154 59.6417 286.238C60.5748 286.356 61.4702 286.678 62.2637 287.183C63.0572 287.688 63.7291 288.362 64.2311 289.158C66.7912 288.533 69.5542 287.596 72.0363 288.861L169.07 270.127C169.099 269.873 169.151 269.622 169.226 269.378C169.623 268.113 170.363 266.983 171.365 266.115C171.514 265.987 171.701 265.91 171.898 265.896C172.095 265.882 172.291 265.931 172.457 266.037C172.533 265.914 172.638 265.813 172.764 265.743C172.89 265.672 173.031 265.635 173.175 265.635C173.319 265.635 173.461 265.672 173.587 265.743C173.712 265.813 173.818 265.914 173.893 266.037L174.284 266.505L174.455 266.661L174.752 266.864L175.08 267.02C174.783 266.118 174.783 265.144 175.08 264.241C175.262 263.734 175.548 263.269 175.919 262.877C176.29 262.485 176.737 262.173 177.234 261.962C177.141 261.837 177.082 261.691 177.061 261.537C177.041 261.383 177.059 261.226 177.115 261.081C177.171 260.937 177.263 260.808 177.382 260.708C177.501 260.608 177.643 260.54 177.796 260.51C177.999 260.485 178.205 260.526 178.383 260.628C178.561 260.729 178.702 260.885 178.784 261.072C178.867 261.26 178.886 261.469 178.841 261.669C178.795 261.868 178.686 262.048 178.53 262.181L178.639 262.306C178.747 262.527 178.764 262.783 178.685 263.017C178.606 263.251 178.438 263.444 178.217 263.555L177.858 263.726L177.655 263.836L177.546 263.914L177.296 264.132L177.203 264.241L177.047 264.476V264.569C177.011 264.651 176.98 264.734 176.953 264.819C177.263 264.41 177.625 264.043 178.03 263.726C178.301 263.539 178.595 263.387 178.904 263.274C179.669 261.587 180.387 259.87 181.105 258.184L54.4123 282.726Z" fill="#333333"/>
<path d="M79.7575 213.629C79.9237 213.447 80.1189 213.294 80.3351 213.176L108.527 157.474L95.5707 159.987L84.2064 182.234C84.2774 182.25 84.3457 182.277 84.4093 182.312C84.6103 182.454 84.7485 182.668 84.795 182.91C84.8416 183.151 84.7929 183.401 84.6591 183.608C84.3937 183.998 84.1908 184.419 83.9566 184.825C84.1596 184.95 84.3469 185.106 84.5498 185.216C84.7036 185.32 84.8227 185.468 84.8922 185.64C84.9617 185.813 84.9784 186.002 84.9401 186.184C84.9018 186.364 84.8122 186.529 84.682 186.659C84.5517 186.789 84.3866 186.879 84.2064 186.917L83.8942 187.089H83.8162H83.7225L83.1137 187.37H82.9732L82.7547 187.542L82.2707 187.963L82.021 188.229L81.9117 188.354L81.4746 188.916C81.1624 189.337 80.8814 189.774 80.5848 190.211C80.4399 190.415 80.2218 190.555 79.976 190.602L63.3511 223.167L64.9121 231.566L72.2958 230.13C72.5325 229.43 72.9278 228.794 73.4509 228.272C73.6982 228.04 73.9704 227.836 74.2627 227.664C74.255 227.607 74.255 227.549 74.2627 227.492C74.6127 223.711 75.8422 220.065 77.853 216.845C77.7528 216.689 77.6996 216.507 77.6996 216.322C77.6996 216.136 77.7528 215.955 77.853 215.799C78.1077 215.355 78.2067 214.838 78.134 214.331C78.1358 214.144 78.1919 213.961 78.2955 213.805C78.3991 213.649 78.5456 213.527 78.7175 213.452C78.8893 213.378 79.079 213.355 79.2636 213.386C79.4482 213.418 79.6198 213.502 79.7575 213.629Z" fill="#333333"/>
<path d="M128.321 208.68C128.305 208.914 128.241 209.142 128.134 209.351C127.671 210.258 126.918 210.983 125.995 211.412C125.808 211.693 125.605 211.958 125.433 212.224C125.332 212.366 125.191 212.475 125.027 212.536C125.027 212.676 124.918 212.833 124.887 212.973C124.85 213.094 124.789 213.207 124.708 213.304C124.626 213.401 124.526 213.48 124.413 213.538C124.3 213.595 124.177 213.628 124.05 213.637C123.924 213.645 123.797 213.627 123.678 213.585C123.558 213.543 123.449 213.476 123.356 213.391C123.263 213.305 123.188 213.201 123.136 213.085C123.084 212.97 123.056 212.845 123.054 212.718C123.052 212.592 123.075 212.466 123.123 212.349C123.276 211.812 123.475 211.29 123.716 210.787L122.826 210.959C122.585 211.001 122.336 210.948 122.133 210.811C121.929 210.675 121.786 210.465 121.734 210.225C121.71 210.154 121.71 210.078 121.734 210.007L121.187 210.116L117.659 191.773L106.389 193.958L109.917 212.192L82.021 217.594C81.8337 217.688 81.6619 217.828 81.4746 217.938V218.062C81.5434 218.264 81.5414 218.483 81.4689 218.684C81.3965 218.884 81.2578 219.054 81.0759 219.165C80.894 219.276 80.6797 219.321 80.4684 219.294C80.2571 219.267 80.0614 219.168 79.9136 219.015C79.3934 219.462 78.9177 219.959 78.493 220.498C78.656 220.451 78.8287 220.452 78.9915 220.499C79.1544 220.546 79.3008 220.637 79.4141 220.763C79.5009 220.849 79.5699 220.951 79.6169 221.064C79.664 221.176 79.6882 221.297 79.6882 221.419C79.6882 221.541 79.664 221.662 79.6169 221.774C79.5699 221.887 79.5009 221.989 79.4141 222.075L78.6648 222.699C78.7597 222.857 78.8099 223.038 78.8099 223.222C78.8099 223.406 78.7597 223.587 78.6648 223.745V223.854C78.6571 223.911 78.6571 223.969 78.6648 224.026C78.6648 224.245 78.6648 224.479 78.6648 224.713C78.632 225.132 78.4491 225.526 78.1496 225.821C77.8092 226.114 77.3922 226.304 76.9476 226.368H76.8384C76.8819 226.834 76.9497 227.298 77.0413 227.757C77.2535 228.181 77.421 228.626 77.5408 229.084L111.712 222.465L115.552 243.291L127.197 241.043L123.201 220.404L139.139 217.282L137.141 206.978L128.321 208.68Z" fill="#333333"/>
<path d="M195.976 152.478L195.227 153.134C194.868 153.446 194.524 153.758 194.196 154.086L193.775 154.555L193.541 154.836C193.273 155.225 192.873 155.503 192.415 155.62C191.957 155.736 191.473 155.683 191.052 155.469C190.63 155.256 190.301 154.897 190.124 154.459C189.947 154.021 189.936 153.533 190.091 153.087L190.528 151.432C190.528 151.432 190.403 151.307 190.356 151.214C190.23 150.979 190.165 150.716 190.169 150.449C190.138 150.195 190.171 149.938 190.263 149.699C190.263 149.512 190.403 149.325 190.481 149.137C190.139 148.806 189.855 148.421 189.638 147.998V147.873C183.054 144.409 175.462 143.37 168.19 144.938C148.521 148.747 136.969 167.184 142.214 194.52C147.459 221.856 165.161 234.626 184.83 230.817C186.598 230.48 188.336 230.005 190.028 229.396C190.575 228.616 191.121 227.835 191.59 227.07C191.775 226.803 192.024 226.586 192.316 226.441C192.607 226.295 192.93 226.225 193.255 226.238C193.58 226.25 193.897 226.344 194.176 226.512C194.455 226.679 194.688 226.914 194.852 227.195C208.074 219.827 214.942 203.481 210.634 181.25C208.183 168.355 202.907 158.676 195.976 152.478ZM182.77 220.154C169.579 222.715 158.371 213.691 154.203 192.21C150.035 170.728 157.06 158.176 170.25 155.632C173.716 154.882 177.32 155.089 180.678 156.231C184.035 157.372 187.019 159.404 189.31 162.111C189.532 161.953 189.781 161.837 190.044 161.767C190.555 161.675 191.081 161.787 191.51 162.079C191.939 162.371 192.237 162.819 192.339 163.328C192.505 164.319 192.531 165.328 192.417 166.326C195.515 171.627 197.631 177.445 198.661 183.498C202.86 205.058 195.835 217.625 182.77 220.154Z" fill="#333333"/>
<path d="M281.442 179.002L277.914 160.768L266.628 162.954L270.172 181.188L237.905 187.433L268.767 126.454L255.81 128.952L244.212 151.682C244.103 154.52 243.528 157.32 242.51 159.972C242.439 160.147 242.317 160.297 242.16 160.403C242.003 160.509 241.818 160.565 241.628 160.565C241.439 160.565 241.254 160.509 241.097 160.403C240.94 160.297 240.818 160.147 240.746 159.972C240.434 162.391 239.299 164.63 237.531 166.31C237.415 166.417 237.273 166.491 237.118 166.521C236.964 166.551 236.804 166.538 236.656 166.482L223.528 192.21L225.089 200.609L244.508 196.846C246.165 195.529 248.123 194.644 250.206 194.27C252.036 193.847 253.902 193.601 255.779 193.537C257.186 193.429 258.602 193.534 259.978 193.849L271.748 191.57L275.745 212.192L287.374 209.944L283.378 189.321L299.332 186.199L297.334 175.896L281.442 179.002Z" fill="#333333"/>
<path d="M62.2174 124.018L60.3754 114.526L79.4199 110.842L77.9838 103.458L58.9392 107.142L57.2221 98.2276L78.7799 94.0593L77.2189 86.4409L46.2325 92.4513L48.8862 106.127C49.3592 106.369 49.7787 106.703 50.1194 107.111C50.7082 107.854 51.0615 108.757 51.1341 109.702C51.337 111.654 50.8531 113.667 51.1341 115.556C51.1721 115.714 51.1628 115.88 51.1073 116.033C51.0517 116.185 50.9525 116.318 50.8219 116.415L54.2562 133.463L86.0075 127.312L84.5401 119.631L62.2174 124.018Z" fill="#333333"/>
<path d="M118.133 107.407C120.437 105.946 122.244 103.822 123.317 101.314C124.39 98.806 124.678 96.0318 124.143 93.3568C123.986 93.5214 123.776 93.6262 123.55 93.6534C123.367 93.6658 123.185 93.6233 123.027 93.5316C122.868 93.4398 122.741 93.3029 122.66 93.1382C122.447 92.6403 122.305 92.1147 122.239 91.5771C122.239 91.499 122.239 91.4366 122.239 91.3585C121.95 90.9897 121.743 90.5641 121.63 90.1096C121.593 89.8663 121.649 89.6179 121.788 89.4149C121.928 89.2119 122.139 89.0695 122.379 89.0168C122.474 88.9923 122.574 88.988 122.67 89.0041C122.767 89.0202 122.859 89.0565 122.941 89.1105C119.96 82.4443 112.779 79.4781 103.382 81.3047L85.6328 84.7392L88.0368 97.1192C88.2266 97.1998 88.3777 97.3509 88.4583 97.5407C89.9688 100.609 90.9102 103.925 91.2369 107.329C91.2744 107.572 91.2178 107.821 91.0786 108.024C90.9394 108.227 90.7281 108.369 90.4876 108.422C90.3998 108.437 90.31 108.437 90.2222 108.422L93.5785 125.876L103.07 124.034L100.853 112.621L109.579 110.92L119.694 120.818L129.888 118.835L118.133 107.407ZM107.113 103.52L99.3074 105.081L96.5288 90.7965L104.334 89.2353C110.125 88.1113 113.575 90.1721 114.449 94.6838C115.324 99.1955 112.92 102.458 107.113 103.52Z" fill="#333333"/>
<path d="M161.202 99.055C163.583 97.5428 165.433 95.3251 166.494 92.7113C167.554 90.0974 167.773 87.2178 167.118 84.4738C165.339 75.2786 157.393 70.923 146.435 73.0462L128.686 76.4963L136.632 117.492L146.123 115.666L143.906 104.238L152.632 102.536L162.763 112.434L172.957 110.451L161.202 99.055ZM150.181 95.1834L142.376 96.7445L139.613 82.4443L147.34 80.8832C147.824 80.7895 148.292 80.7271 148.73 80.6802L149.026 80.4304C149.054 80.1966 149.106 79.9664 149.182 79.7435C149.284 79.4727 149.468 79.241 149.709 79.0812C149.95 78.9214 150.236 78.8418 150.525 78.8537C151.079 78.9088 151.613 79.0904 152.086 79.3845C152.167 79.2864 152.268 79.2066 152.382 79.1503C152.389 78.8508 152.425 78.5526 152.492 78.2604C152.582 78.0373 152.756 77.8578 152.976 77.7591C153.195 77.6604 153.445 77.6502 153.672 77.7306C153.899 77.811 154.086 77.9758 154.195 78.1907C154.304 78.4057 154.325 78.6543 154.256 78.8849C154.068 79.603 154.412 80.2431 154.349 80.9768C154.328 81.1514 154.275 81.3207 154.193 81.4764C155.071 81.9859 155.82 82.6899 156.383 83.5343C156.946 84.3788 157.307 85.341 157.44 86.3472C158.377 90.7965 155.973 94.0593 150.181 95.1834Z" fill="#333333"/>
<path d="M206.113 65.1311L205.629 65.256C205.514 65.2951 205.404 65.3475 205.301 65.4121C205.253 65.4399 205.21 65.477 205.176 65.5214C205.038 65.6864 204.853 65.806 204.646 65.8648C204.524 65.8864 204.399 65.8837 204.279 65.8569C204.158 65.8302 204.044 65.7798 203.943 65.7087C203.838 65.645 203.749 65.5587 203.681 65.4561C203.614 65.3535 203.57 65.2371 203.553 65.1155C203.505 64.8719 203.555 64.6193 203.693 64.413C203.693 64.413 203.787 64.3349 203.818 64.2881C199.822 63.0139 195.566 62.7828 191.455 63.6168C178.498 66.1302 170.771 76.9959 173.128 89.1729C175.486 101.35 186.725 108.547 199.666 106.033C212.607 103.52 220.365 92.7167 217.992 80.4773C217.409 77.1461 216.023 74.0073 213.953 71.3332C211.883 68.659 209.192 66.5302 206.113 65.1311ZM198.121 97.9154C194.641 98.5903 191.035 97.8551 188.098 95.8716C185.16 93.888 183.13 90.8186 182.456 87.3386C181.781 83.8585 182.516 80.2529 184.499 77.3149C186.483 74.3769 189.552 72.3472 193.032 71.6723C194.784 71.3289 196.587 71.3289 198.339 71.6723C198.339 71.4538 198.48 71.2352 198.558 71.0479C198.635 70.8357 198.787 70.6588 198.985 70.5497C199.183 70.4407 199.414 70.4069 199.635 70.4546C199.808 70.4852 199.968 70.5695 200.091 70.6955C200.214 70.8215 200.295 70.9829 200.322 71.1572L200.868 71.0167C200.993 70.6264 201.118 70.2517 201.227 69.8614C201.336 69.4711 201.352 69.4087 201.399 69.1901C201.432 69.0827 201.458 68.9732 201.477 68.8623V68.753L201.57 68.191V67.988C201.477 67.3635 202.132 66.6142 202.804 66.942L204.661 67.8319C204.89 67.923 205.076 68.0981 205.181 68.3215C205.285 68.5449 205.3 68.7997 205.223 69.034C205.113 69.2668 205.02 69.5067 204.942 69.7521C204.942 69.8302 204.942 69.9239 204.864 70.0019C204.864 70.0019 204.864 70.0019 204.864 70.1112C204.833 70.4852 204.833 70.8612 204.864 71.2352C204.898 72.1228 204.846 73.0116 204.708 73.8892C204.751 73.9903 204.774 74.0992 204.774 74.2092C204.774 74.3193 204.751 74.4281 204.708 74.5293C204.676 74.636 204.617 74.7327 204.536 74.8103C206.577 76.8302 207.946 79.4307 208.455 82.257C208.881 83.9683 208.948 85.7495 208.65 87.4878C208.353 89.2262 207.697 90.8839 206.726 92.3558C205.755 93.8278 204.488 95.0819 203.007 96.0389C201.525 96.9959 199.862 97.6349 198.121 97.9154Z" fill="#333333"/>
<path d="M259.781 67.7226C259.729 67.7157 259.677 67.7157 259.625 67.7226C259.252 67.5909 258.908 67.3896 258.61 67.1294C258.469 67.3715 258.307 67.6013 258.126 67.8163C257.982 68.0141 257.768 68.1499 257.528 68.1962C257.287 68.2426 257.038 68.1961 256.831 68.0661C256.627 67.9267 256.486 67.7123 256.439 67.4696C256.392 67.2269 256.443 66.9755 256.581 66.7703C257.503 65.5139 258.084 64.0402 258.267 62.4927C255.145 56.1544 248.105 53.3912 238.941 55.1709L221.192 58.6054L229.091 99.5702L238.582 97.728L236.366 86.3004L245.092 84.6143L255.223 94.4964L265.416 92.5294L253.662 81.1329C255.876 79.7353 257.634 77.7222 258.721 75.3402C259.808 72.9582 260.176 70.3109 259.781 67.7226ZM242.688 77.2457L234.883 78.8068L232.213 64.4442L240.018 62.883C245.826 61.759 249.26 63.8353 250.134 68.3471C251.008 72.8588 248.479 76.1216 242.688 77.2457Z" fill="#333333"/>
<path d="M258.747 352.785L177.938 399.439C177.232 399.798 176.452 399.985 175.661 399.985C174.87 399.985 174.09 399.798 173.384 399.439L116.048 366.333C115.385 365.903 114.833 365.322 114.437 364.638C114.042 363.954 113.814 363.185 113.772 362.396V332.31C113.816 331.523 114.045 330.757 114.441 330.076C114.836 329.394 115.387 328.815 116.048 328.387L196.858 281.726C197.563 281.367 198.343 281.18 199.135 281.18C199.926 281.18 200.706 281.367 201.411 281.726L258.747 314.832C259.41 315.263 259.961 315.844 260.357 316.528C260.752 317.212 260.981 317.98 261.024 318.769V348.841C260.98 349.631 260.751 350.399 260.355 351.084C259.96 351.769 259.409 352.352 258.747 352.785Z" fill="#34A98F"/>
<path opacity="0.4" d="M175.661 364.645V399.978C174.868 399.999 174.083 399.814 173.384 399.439L116.041 366.333C115.38 365.9 114.829 365.318 114.435 364.633C114.041 363.947 113.813 363.179 113.772 362.389V332.31C113.81 331.606 113.995 330.917 114.315 330.289C114.634 329.661 115.082 329.106 115.628 328.66C114.801 329.361 114.928 330.362 116.034 331L173.377 364.113C174.081 364.482 174.867 364.665 175.661 364.645Z" fill="#333333"/>
<path opacity="0.2" d="M261.024 318.755V348.842C260.981 349.631 260.752 350.398 260.357 351.082C259.961 351.766 259.41 352.348 258.747 352.778L177.931 399.439C177.233 399.81 176.451 399.996 175.661 399.978V364.645C176.449 364.66 177.229 364.472 177.924 364.099L258.74 317.445C259.91 316.745 259.987 315.701 258.979 314.965C259.577 315.408 260.071 315.977 260.424 316.632C260.778 317.287 260.982 318.012 261.024 318.755Z" fill="#333333"/>
<path d="M116.041 328.387L196.851 281.727C197.556 281.367 198.336 281.18 199.128 281.18C199.919 281.18 200.699 281.367 201.404 281.727L258.74 314.832C260.001 315.533 260.001 316.731 258.74 317.459L177.93 364.113C177.224 364.468 176.445 364.654 175.654 364.654C174.863 364.654 174.083 364.468 173.377 364.113L116.041 331C114.78 330.271 114.78 329.087 116.041 328.387Z" fill="#34A98F"/>
<path opacity="0.3" d="M116.041 328.387L196.851 281.727C197.556 281.367 198.336 281.18 199.128 281.18C199.919 281.18 200.699 281.367 201.404 281.727L258.74 314.832C260.001 315.533 260.001 316.731 258.74 317.459L177.93 364.113C177.224 364.468 176.445 364.654 175.654 364.654C174.863 364.654 174.083 364.468 173.377 364.113L116.041 331C114.78 330.271 114.78 329.087 116.041 328.387Z" fill="#333333"/>
<path opacity="0.1" d="M113.772 345.297L174.456 380.322C174.824 380.532 175.241 380.643 175.665 380.643C176.088 380.643 176.505 380.532 176.873 380.322L261.031 331.749V335.035L176.873 383.621C176.505 383.832 176.088 383.942 175.665 383.942C175.241 383.942 174.824 383.832 174.456 383.621L113.772 348.596V345.297Z" fill="#333333"/>
<path d="M164.859 359.167C164.859 359.132 164.859 359.104 164.859 359.069C168.28 357.617 171.959 356.869 175.675 356.869C179.391 356.869 183.07 357.617 186.491 359.069C186.491 359.104 186.491 359.132 186.491 359.167L177.952 364.07C177.257 364.443 176.478 364.632 175.689 364.617C174.894 364.632 174.108 364.444 173.405 364.07L164.887 359.167" fill="#455A64"/>
<path d="M258.74 314.832L251.462 310.629C246.271 313.669 246.285 318.559 251.518 321.585H251.567L258.74 317.452C260.001 316.731 260.001 315.554 258.74 314.832Z" fill="#455A64"/>
<path d="M116.062 328.387L123.34 324.184C128.538 327.224 128.517 332.114 123.284 335.14H123.235L116.062 331.007C114.808 330.257 114.808 329.087 116.062 328.387Z" fill="#455A64"/>
<path d="M209.334 286.294L201.404 281.713C200.699 281.353 199.919 281.166 199.128 281.166C198.336 281.166 197.556 281.353 196.851 281.713L189.034 286.224C189.258 286.371 189.475 286.525 189.734 286.665C194.988 289.698 203.513 289.698 208.767 286.665C208.963 286.546 209.145 286.42 209.334 286.294Z" fill="#455A64"/>
<path d="M186.498 359.167C185.706 365.752 181.328 371.559 175.696 375.496V364.645C176.485 364.66 177.264 364.472 177.959 364.099L186.498 359.167Z" fill="#37474F"/>
<path d="M258.74 317.445L251.525 321.613C251.525 327.644 255.791 329.382 261.031 326.356V318.748C260.988 317.959 260.759 317.191 260.364 316.507C259.968 315.823 259.417 315.242 258.754 314.811L258.243 314.51L258.754 314.804C259.994 315.54 259.994 316.717 258.74 317.445Z" fill="#37474F"/>
<path d="M261.024 348.842V340.359C255.777 343.399 251.518 350.768 251.518 356.834C251.518 356.869 251.518 356.911 251.518 356.946L259.007 352.596C259.595 352.154 260.08 351.589 260.428 350.941C260.777 350.293 260.98 349.576 261.024 348.842Z" fill="#37474F"/>
<path d="M185.181 395.25C185.181 389.211 180.908 386.774 175.661 389.8V399.985C176.449 400 177.229 399.812 177.924 399.439L185.181 395.25Z" fill="#37474F"/>
<path d="M175.661 364.645V375.496C170.015 371.531 165.651 365.738 164.859 359.167L173.398 364.07C174.091 364.453 174.87 364.651 175.661 364.645Z" fill="#263238"/>
<path d="M166.183 395.25L173.433 399.453C174.128 399.826 174.908 400.014 175.696 399.999V389.8C170.421 386.774 166.183 389.211 166.183 395.25Z" fill="#263238"/>
<path d="M114.045 354.193C113.954 354.137 113.863 354.102 113.772 354.053V362.41C113.81 363.142 114.006 363.856 114.347 364.504C114.688 365.153 115.166 365.719 115.747 366.165L123.53 370.683C123.558 364.61 119.299 357.227 114.045 354.193Z" fill="#263238"/>
<path d="M116.062 330.972L123.285 335.14C123.285 341.171 119.011 343.616 113.772 340.597V332.275C113.819 331.486 114.052 330.72 114.451 330.038C114.851 329.357 115.405 328.779 116.069 328.352C114.815 329.087 114.808 330.243 116.062 330.972Z" fill="#263238"/>
<path d="M197.825 364.953L193.342 367.538C193.165 367.653 193.019 367.808 192.914 367.991C192.809 368.173 192.75 368.378 192.739 368.589V377.044C192.752 377.254 192.813 377.458 192.917 377.64C193.022 377.822 193.167 377.978 193.342 378.094L193.748 378.326C193.936 378.422 194.143 378.472 194.354 378.472C194.565 378.472 194.773 378.422 194.96 378.326L199.436 375.741C199.614 375.627 199.763 375.472 199.869 375.289C199.975 375.107 200.035 374.901 200.046 374.69V366.214C200.033 366.004 199.972 365.8 199.868 365.618C199.763 365.435 199.618 365.28 199.443 365.163L199.037 364.932C198.848 364.839 198.639 364.792 198.428 364.796C198.218 364.799 198.011 364.853 197.825 364.953Z" fill="#34A98F"/>
<path opacity="0.5" d="M197.825 364.953L193.342 367.538C193.165 367.653 193.019 367.808 192.914 367.991C192.809 368.173 192.75 368.378 192.739 368.589V377.044C192.752 377.254 192.813 377.458 192.917 377.64C193.022 377.822 193.167 377.978 193.342 378.094L193.748 378.326C193.936 378.422 194.143 378.472 194.354 378.472C194.565 378.472 194.773 378.422 194.96 378.326L199.436 375.741C199.614 375.627 199.763 375.472 199.869 375.289C199.975 375.107 200.035 374.901 200.046 374.69V366.214C200.033 366.004 199.972 365.8 199.868 365.618C199.763 365.435 199.618 365.28 199.443 365.163L199.037 364.932C198.848 364.839 198.639 364.792 198.428 364.796C198.218 364.799 198.011 364.853 197.825 364.953Z" fill="white"/>
<path opacity="0.1" d="M194.82 378.389C194.647 378.454 194.462 378.482 194.277 378.471C194.093 378.46 193.912 378.41 193.748 378.326L193.342 378.095C193.165 377.979 193.018 377.824 192.912 377.642C192.806 377.459 192.744 377.254 192.732 377.044V368.589C192.742 368.371 192.807 368.158 192.921 367.972L194.533 368.918C194.42 369.099 194.358 369.307 194.35 369.52V377.975C194.35 378.312 194.547 378.473 194.82 378.389Z" fill="#333333"/>
<path opacity="0.1" d="M194.82 378.389C194.647 378.454 194.462 378.482 194.277 378.471C194.093 378.46 193.912 378.41 193.748 378.326L193.342 378.095C193.165 377.979 193.018 377.824 192.912 377.642C192.806 377.459 192.744 377.254 192.732 377.044V368.589C192.742 368.371 192.807 368.158 192.921 367.972L194.533 368.918C194.42 369.099 194.358 369.307 194.35 369.52V377.975C194.35 378.312 194.547 378.473 194.82 378.389Z" fill="#34A98F"/>
<path d="M194.357 369.52V377.975C194.357 378.368 194.631 378.522 194.96 378.326L199.436 375.741C199.614 375.627 199.762 375.472 199.868 375.289C199.974 375.107 200.035 374.901 200.046 374.69V366.214C200.046 365.829 199.772 365.675 199.443 365.864L194.96 368.449C194.781 368.566 194.633 368.725 194.528 368.911C194.423 369.098 194.365 369.307 194.357 369.52Z" fill="#34A98F"/>
<path opacity="0.2" d="M194.357 369.52V377.975C194.357 378.368 194.631 378.522 194.96 378.326L199.436 375.741C199.614 375.627 199.762 375.472 199.868 375.289C199.974 375.107 200.035 374.901 200.046 374.69V366.214C200.046 365.829 199.772 365.675 199.443 365.864L194.96 368.449C194.781 368.566 194.633 368.725 194.528 368.911C194.423 369.098 194.365 369.307 194.357 369.52Z" fill="white"/>
<path d="M243.351 338.663L238.867 341.248C238.692 341.365 238.547 341.52 238.443 341.703C238.338 341.885 238.277 342.089 238.265 342.299V350.754C238.276 350.965 238.338 351.17 238.443 351.352C238.549 351.535 238.697 351.69 238.874 351.805L239.274 352.043C239.464 352.135 239.672 352.182 239.883 352.182C240.094 352.182 240.302 352.135 240.492 352.043L244.969 349.458C245.143 349.341 245.289 349.186 245.393 349.004C245.498 348.821 245.559 348.617 245.571 348.407V339.945C245.56 339.735 245.5 339.53 245.396 339.348C245.291 339.165 245.145 339.01 244.969 338.894L244.562 338.663C244.375 338.567 244.167 338.517 243.956 338.517C243.746 338.517 243.538 338.567 243.351 338.663Z" fill="#34A98F"/>
<path opacity="0.5" d="M243.351 338.663L238.867 341.248C238.692 341.365 238.547 341.52 238.443 341.703C238.338 341.885 238.277 342.089 238.265 342.299V350.754C238.276 350.965 238.338 351.17 238.443 351.352C238.549 351.535 238.697 351.69 238.874 351.805L239.274 352.043C239.464 352.135 239.672 352.182 239.883 352.182C240.094 352.182 240.302 352.135 240.492 352.043L244.969 349.458C245.143 349.341 245.289 349.186 245.393 349.004C245.498 348.821 245.559 348.617 245.571 348.407V339.945C245.56 339.735 245.5 339.53 245.396 339.348C245.291 339.165 245.145 339.01 244.969 338.894L244.562 338.663C244.375 338.567 244.167 338.517 243.956 338.517C243.746 338.517 243.538 338.567 243.351 338.663Z" fill="white"/>
<path opacity="0.1" d="M240.345 352.099C240.172 352.164 239.987 352.192 239.803 352.181C239.618 352.17 239.438 352.121 239.274 352.036L238.867 351.805C238.691 351.689 238.545 351.534 238.44 351.351C238.336 351.169 238.276 350.964 238.265 350.754V342.299C238.266 342.086 238.327 341.877 238.44 341.696L240.058 342.628C239.948 342.808 239.888 343.013 239.883 343.224V351.679C239.883 352.022 240.079 352.204 240.345 352.099Z" fill="#333333"/>
<path opacity="0.1" d="M240.345 352.099C240.172 352.164 239.987 352.192 239.803 352.181C239.618 352.17 239.438 352.121 239.274 352.036L238.867 351.805C238.691 351.689 238.545 351.534 238.44 351.351C238.336 351.169 238.276 350.964 238.265 350.754V342.299C238.266 342.086 238.327 341.877 238.44 341.696L240.058 342.628C239.948 342.808 239.888 343.013 239.883 343.224V351.679C239.883 352.022 240.079 352.204 240.345 352.099Z" fill="#34A98F"/>
<path d="M239.883 343.231V351.693C239.883 352.078 240.156 352.232 240.492 352.043L244.969 349.458C245.145 349.343 245.291 349.187 245.395 349.005C245.5 348.822 245.56 348.617 245.571 348.407V339.945C245.571 339.56 245.305 339.406 244.969 339.595L240.485 342.18C240.311 342.296 240.165 342.452 240.061 342.634C239.956 342.817 239.895 343.021 239.883 343.231Z" fill="#34A98F"/>
<path opacity="0.2" d="M239.883 343.231V351.693C239.883 352.078 240.156 352.232 240.492 352.043L244.969 349.458C245.145 349.343 245.291 349.187 245.395 349.005C245.5 348.822 245.56 348.617 245.571 348.407V339.945C245.571 339.56 245.305 339.406 244.969 339.595L240.485 342.18C240.311 342.296 240.165 342.452 240.061 342.634C239.956 342.817 239.895 343.021 239.883 343.231Z" fill="white"/>
<path d="M210.84 369.016V372.441C210.833 372.581 210.793 372.717 210.724 372.839C210.654 372.961 210.558 373.064 210.441 373.142L205.593 375.944C205.469 376.01 205.331 376.044 205.191 376.044C205.05 376.044 204.912 376.01 204.788 375.944L204.522 375.79C204.403 375.714 204.303 375.611 204.233 375.489C204.162 375.367 204.122 375.23 204.115 375.089V371.671C204.123 371.53 204.164 371.394 204.235 371.272C204.306 371.15 204.404 371.047 204.522 370.97L209.369 368.168C209.493 368.106 209.63 368.074 209.768 368.074C209.907 368.074 210.044 368.106 210.168 368.168L210.441 368.323C210.557 368.399 210.653 368.502 210.722 368.622C210.792 368.743 210.832 368.877 210.84 369.016Z" fill="#263238"/>
<path d="M210.441 373.142L205.594 375.944C205.369 376.077 205.187 375.944 205.187 375.713V372.294C205.194 372.154 205.234 372.016 205.305 371.894C205.375 371.772 205.474 371.669 205.594 371.594L210.441 368.792C210.658 368.666 210.84 368.792 210.84 369.023V372.448C210.832 372.587 210.792 372.722 210.722 372.842C210.653 372.963 210.557 373.065 210.441 373.142Z" fill="#37474F"/>
<path d="M235.421 354.803V358.221C235.414 358.362 235.374 358.499 235.304 358.621C235.233 358.743 235.134 358.846 235.015 358.922L230.167 361.724C230.043 361.786 229.906 361.818 229.768 361.818C229.629 361.818 229.492 361.786 229.368 361.724L229.102 361.57C228.984 361.493 228.886 361.39 228.816 361.268C228.745 361.146 228.704 361.01 228.696 360.869V357.451C228.702 357.31 228.743 357.173 228.813 357.051C228.884 356.929 228.983 356.826 229.102 356.75L233.943 353.948C234.068 353.886 234.206 353.853 234.346 353.853C234.485 353.853 234.623 353.886 234.748 353.948L235.015 354.102C235.132 354.179 235.231 354.282 235.301 354.404C235.372 354.526 235.413 354.662 235.421 354.803Z" fill="#263238"/>
<path d="M235.014 358.957L230.167 361.759C229.95 361.885 229.768 361.759 229.768 361.528V358.102C229.775 357.962 229.815 357.826 229.884 357.705C229.953 357.583 230.05 357.479 230.167 357.402L235.014 354.6C235.239 354.474 235.421 354.6 235.421 354.831V358.256C235.414 358.397 235.373 358.534 235.303 358.656C235.232 358.778 235.133 358.881 235.014 358.957Z" fill="#37474F"/>
<path d="M233.999 357.206L231.134 358.859V360.26L232.724 361.177V362.803C232.69 363.435 232.509 364.05 232.193 364.599C231.878 365.147 231.438 365.614 230.909 365.962L212.696 376.469C212.545 376.556 212.382 376.622 212.213 376.666C212.166 376.501 212.143 376.332 212.143 376.161V373.079L210.875 372.343L209.292 371.433L206.441 373.072V374.473L208.038 375.391V378.193C208.02 378.49 208.074 378.788 208.196 379.06C208.318 379.332 208.504 379.57 208.739 379.755C208.991 379.937 209.957 380.455 210.14 380.595C211.197 381.226 213.131 380.939 215.358 379.657L230.769 370.746C234.118 368.813 236.836 365.345 236.836 363.041V358.838L233.999 357.206Z" fill="#263238"/>
<path d="M209.285 379.012C209.285 381.345 211.996 381.667 215.351 379.713L230.762 370.802C234.111 368.869 236.829 365.401 236.829 363.097V358.894L234.027 357.241L231.162 358.894L234.027 360.547V363.608C233.993 364.239 233.812 364.853 233.496 365.401C233.181 365.949 232.741 366.415 232.212 366.76L213.999 377.268C212.991 377.849 212.178 377.38 212.178 376.217V373.135L209.32 371.489L206.469 373.128L209.334 374.781L209.285 379.012Z" fill="#37474F"/>
<path d="M233.999 357.206L231.14 358.866L234.006 360.512L236.829 358.859L233.999 357.206Z" fill="#455A64"/>
<path d="M209.271 371.489L206.42 373.128L209.285 374.781L212.129 373.135L209.271 371.489Z" fill="#455A64"/>
<path opacity="0.15" d="M172.123 363.363L113.772 329.592V362.389C113.816 363.114 114.015 363.822 114.356 364.464C114.696 365.105 115.171 365.666 115.747 366.109L161.63 392.434L172.123 363.363Z" fill="#333333"/>
<path opacity="0.15" d="M252.884 314.111L196.809 281.741L116.041 328.387C114.78 329.087 114.78 330.285 116.041 331.014L172.116 363.384L252.884 316.752C254.138 316.016 254.138 314.839 252.884 314.111Z" fill="#333333"/>
<path d="M246.18 316.962L165.371 363.622C164.664 363.978 163.885 364.164 163.094 364.164C162.303 364.164 161.523 363.978 160.817 363.622L103.481 330.488C102.82 330.055 102.269 329.473 101.873 328.788C101.478 328.103 101.249 327.334 101.205 326.545V296.493C101.248 295.703 101.476 294.934 101.872 294.249C102.267 293.564 102.819 292.982 103.481 292.549L184.291 245.889C184.997 245.533 185.777 245.348 186.568 245.348C187.359 245.348 188.138 245.533 188.844 245.889L246.18 278.995C246.843 279.427 247.395 280.009 247.791 280.694C248.186 281.379 248.415 282.148 248.457 282.938V313.025C248.415 313.814 248.187 314.582 247.791 315.267C247.396 315.951 246.844 316.532 246.18 316.962Z" fill="#34A98F"/>
<path opacity="0.45" d="M163.101 328.828V364.162C162.308 364.183 161.523 363.997 160.824 363.622L103.481 330.488C102.82 330.056 102.269 329.473 101.875 328.788C101.481 328.103 101.253 327.334 101.212 326.545V296.493C101.25 295.789 101.435 295.101 101.755 294.472C102.074 293.844 102.522 293.289 103.068 292.843C102.241 293.544 102.367 294.546 103.474 295.183L160.817 328.282C161.519 328.656 162.306 328.844 163.101 328.828Z" fill="white"/>
<path opacity="0.1" d="M163.101 328.828V364.162C162.308 364.183 161.523 363.997 160.824 363.622L103.481 330.488C102.82 330.056 102.269 329.473 101.875 328.788C101.481 328.103 101.253 327.334 101.212 326.545V296.493C101.25 295.789 101.435 295.101 101.755 294.472C102.074 293.844 102.522 293.289 103.068 292.843C102.241 293.544 102.367 294.546 103.474 295.183L160.817 328.282C161.519 328.656 162.306 328.844 163.101 328.828Z" fill="#333333"/>
<path opacity="0.55" d="M248.464 282.938V313.025C248.421 313.814 248.192 314.582 247.797 315.266C247.401 315.95 246.85 316.531 246.187 316.962L165.371 363.622C164.673 363.994 163.891 364.179 163.101 364.162V328.828C163.89 328.843 164.669 328.655 165.364 328.282L246.18 281.628C247.35 280.928 247.427 279.884 246.419 279.149C247.017 279.591 247.511 280.16 247.864 280.815C248.218 281.47 248.423 282.195 248.464 282.938Z" fill="white"/>
<path d="M103.474 292.549L184.291 245.889C184.996 245.533 185.774 245.348 186.564 245.348C187.354 245.348 188.132 245.533 188.837 245.889L246.18 278.995C247.434 279.695 247.434 280.9 246.18 281.622L165.363 328.282C164.66 328.641 163.881 328.828 163.09 328.828C162.3 328.828 161.521 328.641 160.817 328.282L103.474 295.176C102.22 294.455 102.22 293.278 103.474 292.549Z" fill="#34A98F"/>
<path opacity="0.65" d="M103.474 292.549L184.291 245.889C184.996 245.533 185.774 245.348 186.564 245.348C187.354 245.348 188.132 245.533 188.837 245.889L246.18 278.995C247.434 279.695 247.434 280.9 246.18 281.622L165.363 328.282C164.66 328.641 163.881 328.828 163.09 328.828C162.3 328.828 161.521 328.641 160.817 328.282L103.474 295.176C102.22 294.455 102.22 293.278 103.474 292.549Z" fill="white"/>
<path d="M109.113 294.763C109.052 294.76 108.992 294.743 108.938 294.714L107.502 293.887L108.938 293.054C109.019 293.007 109.115 292.995 109.205 293.019C109.295 293.043 109.372 293.102 109.418 293.183C109.464 293.264 109.477 293.36 109.453 293.45C109.428 293.54 109.369 293.617 109.288 293.663L108.903 293.887L109.288 294.104C109.368 294.152 109.426 294.23 109.45 294.32C109.474 294.411 109.461 294.507 109.415 294.588C109.384 294.641 109.34 294.685 109.287 294.715C109.234 294.746 109.174 294.762 109.113 294.763Z" fill="white"/>
<path d="M110.914 292.661C110.837 292.661 110.763 292.635 110.703 292.588C110.642 292.541 110.599 292.476 110.579 292.402C110.559 292.328 110.564 292.25 110.593 292.179C110.622 292.108 110.673 292.049 110.739 292.01L112.539 290.973C112.578 290.944 112.624 290.924 112.672 290.914C112.72 290.904 112.769 290.904 112.817 290.914C112.865 290.924 112.91 290.944 112.95 290.973C112.99 291.001 113.023 291.038 113.048 291.08C113.072 291.123 113.088 291.17 113.093 291.219C113.098 291.267 113.093 291.317 113.078 291.363C113.063 291.41 113.039 291.453 113.006 291.49C112.974 291.526 112.934 291.555 112.889 291.576L111.089 292.619C111.034 292.647 110.974 292.661 110.914 292.661ZM114.507 290.56C114.431 290.559 114.357 290.533 114.296 290.487C114.236 290.44 114.192 290.374 114.173 290.301C114.153 290.227 114.158 290.148 114.186 290.078C114.215 290.007 114.266 289.947 114.332 289.908L116.132 288.865C116.213 288.818 116.309 288.806 116.399 288.83C116.489 288.854 116.566 288.913 116.612 288.994C116.659 289.075 116.671 289.171 116.647 289.261C116.623 289.351 116.563 289.428 116.483 289.474L114.682 290.56C114.625 290.577 114.564 290.577 114.507 290.56ZM118.108 288.458C118.031 288.458 117.957 288.432 117.897 288.385C117.836 288.338 117.793 288.273 117.773 288.199C117.753 288.125 117.758 288.047 117.787 287.976C117.816 287.905 117.867 287.846 117.933 287.807L119.733 286.77C119.773 286.741 119.818 286.721 119.866 286.711C119.914 286.701 119.963 286.701 120.011 286.711C120.059 286.721 120.104 286.741 120.144 286.77C120.184 286.798 120.217 286.835 120.242 286.877C120.266 286.92 120.282 286.967 120.287 287.016C120.292 287.064 120.287 287.114 120.273 287.16C120.258 287.207 120.233 287.25 120.2 287.287C120.168 287.323 120.128 287.352 120.083 287.373L118.283 288.458C118.228 288.483 118.168 288.495 118.108 288.493V288.458ZM121.701 286.357C121.625 286.356 121.551 286.33 121.49 286.284C121.43 286.237 121.387 286.171 121.367 286.098C121.347 286.024 121.352 285.945 121.381 285.875C121.409 285.804 121.461 285.744 121.526 285.705L123.327 284.662C123.407 284.615 123.503 284.603 123.593 284.627C123.683 284.651 123.76 284.71 123.806 284.791C123.853 284.872 123.865 284.968 123.841 285.058C123.817 285.148 123.758 285.225 123.677 285.271L121.877 286.357C121.826 286.396 121.765 286.418 121.701 286.42V286.357ZM125.302 284.255C125.226 284.255 125.151 284.229 125.091 284.182C125.031 284.135 124.987 284.07 124.967 283.996C124.947 283.922 124.952 283.844 124.981 283.773C125.01 283.702 125.061 283.643 125.127 283.604L126.955 282.651C126.995 282.622 127.04 282.602 127.088 282.592C127.136 282.582 127.185 282.582 127.233 282.592C127.281 282.602 127.327 282.622 127.366 282.651C127.406 282.679 127.439 282.716 127.464 282.758C127.489 282.801 127.504 282.848 127.509 282.897C127.515 282.945 127.51 282.995 127.495 283.041C127.48 283.088 127.455 283.131 127.423 283.168C127.39 283.204 127.35 283.233 127.305 283.254L125.505 284.297C125.442 284.329 125.372 284.344 125.302 284.339V284.255ZM128.896 282.154C128.834 282.154 128.774 282.137 128.722 282.106C128.669 282.076 128.625 282.032 128.594 281.979C128.548 281.899 128.536 281.804 128.559 281.715C128.583 281.625 128.641 281.549 128.72 281.502L130.521 280.459C130.561 280.436 130.605 280.421 130.651 280.415C130.696 280.409 130.743 280.412 130.787 280.424C130.832 280.436 130.874 280.457 130.91 280.485C130.947 280.513 130.978 280.548 131.001 280.588C131.024 280.628 131.038 280.672 131.044 280.718C131.05 280.764 131.047 280.81 131.035 280.855C131.023 280.9 131.002 280.941 130.974 280.978C130.946 281.014 130.911 281.045 130.871 281.068L129.057 282.217C129.009 282.248 128.953 282.265 128.896 282.266V282.154ZM132.496 280.052C132.435 280.052 132.375 280.036 132.322 280.005C132.269 279.974 132.225 279.93 132.195 279.877C132.149 279.796 132.136 279.7 132.159 279.61C132.183 279.52 132.241 279.442 132.321 279.394L134.121 278.357C134.161 278.333 134.204 278.318 134.25 278.311C134.295 278.305 134.342 278.308 134.386 278.319C134.431 278.331 134.472 278.352 134.508 278.38C134.545 278.408 134.575 278.443 134.598 278.483C134.644 278.564 134.657 278.66 134.633 278.751C134.61 278.841 134.552 278.918 134.472 278.967L132.671 280.003C132.635 280.083 132.573 280.15 132.496 280.192V280.052ZM238.741 278.953C238.68 278.953 238.62 278.938 238.566 278.911L236.766 277.867C236.721 277.847 236.681 277.817 236.649 277.781C236.616 277.744 236.591 277.701 236.576 277.654C236.561 277.608 236.556 277.558 236.562 277.51C236.567 277.461 236.583 277.414 236.607 277.372C236.632 277.329 236.665 277.293 236.705 277.264C236.745 277.235 236.79 277.215 236.838 277.205C236.886 277.195 236.935 277.195 236.983 277.205C237.031 277.215 237.076 277.236 237.116 277.264L238.916 278.301C238.982 278.34 239.033 278.4 239.062 278.47C239.091 278.541 239.096 278.619 239.076 278.693C239.056 278.767 239.013 278.832 238.952 278.879C238.892 278.926 238.818 278.952 238.741 278.953ZM136.062 278.112C136.001 278.112 135.941 278.095 135.888 278.065C135.835 278.034 135.791 277.99 135.76 277.937C135.714 277.857 135.702 277.762 135.726 277.673C135.749 277.584 135.807 277.507 135.887 277.461L137.687 276.424C137.766 276.388 137.855 276.383 137.938 276.409C138.02 276.436 138.09 276.492 138.134 276.567C138.177 276.642 138.192 276.73 138.174 276.815C138.156 276.9 138.107 276.975 138.037 277.026L136.237 278.063C136.185 278.097 136.124 278.114 136.062 278.112ZM235.113 277.019C235.051 277.02 234.99 277.003 234.937 276.97L233.137 275.933C233.097 275.911 233.062 275.881 233.034 275.844C233.006 275.808 232.985 275.766 232.973 275.722C232.962 275.678 232.959 275.631 232.965 275.586C232.972 275.54 232.987 275.496 233.011 275.457C233.058 275.378 233.134 275.32 233.222 275.295C233.311 275.27 233.406 275.28 233.487 275.324L235.288 276.368C235.353 276.407 235.405 276.466 235.433 276.537C235.462 276.608 235.467 276.686 235.447 276.76C235.427 276.834 235.384 276.899 235.324 276.946C235.263 276.993 235.189 277.018 235.113 277.019ZM139.662 276.039C139.601 276.038 139.541 276.022 139.488 275.991C139.435 275.96 139.392 275.916 139.361 275.863C139.315 275.782 139.302 275.686 139.326 275.596C139.349 275.506 139.407 275.428 139.487 275.38L141.287 274.343C141.327 274.32 141.371 274.304 141.416 274.298C141.461 274.291 141.508 274.294 141.552 274.306C141.597 274.317 141.638 274.338 141.675 274.366C141.711 274.394 141.741 274.429 141.764 274.469C141.81 274.55 141.823 274.646 141.799 274.737C141.776 274.827 141.718 274.905 141.638 274.953L139.837 275.989C139.792 276.015 139.742 276.032 139.69 276.039H139.662ZM231.519 274.939C231.458 274.94 231.398 274.925 231.344 274.897L229.544 273.86C229.464 273.812 229.406 273.734 229.382 273.644C229.358 273.554 229.371 273.458 229.417 273.377C229.44 273.337 229.47 273.301 229.507 273.273C229.543 273.245 229.585 273.225 229.629 273.213C229.673 273.201 229.72 273.198 229.765 273.205C229.811 273.211 229.854 273.227 229.894 273.251L231.694 274.287C231.774 274.334 231.831 274.41 231.855 274.499C231.879 274.589 231.866 274.684 231.82 274.764C231.793 274.813 231.754 274.856 231.706 274.886C231.658 274.917 231.604 274.935 231.547 274.939H231.519ZM143.256 273.958C143.179 273.957 143.105 273.931 143.045 273.885C142.984 273.838 142.941 273.773 142.921 273.699C142.901 273.625 142.906 273.547 142.935 273.476C142.964 273.405 143.015 273.346 143.081 273.307L144.874 272.27C144.914 272.241 144.959 272.221 145.007 272.211C145.055 272.2 145.104 272.2 145.152 272.21C145.2 272.22 145.245 272.241 145.285 272.269C145.325 272.298 145.358 272.335 145.383 272.377C145.407 272.419 145.423 272.466 145.428 272.515C145.433 272.564 145.428 272.613 145.414 272.66C145.399 272.707 145.374 272.75 145.341 272.786C145.309 272.823 145.269 272.852 145.224 272.872L143.431 273.909C143.389 273.936 143.341 273.953 143.291 273.958H143.256ZM227.911 272.865C227.85 272.866 227.789 272.849 227.736 272.816L225.936 271.779C225.896 271.757 225.861 271.727 225.833 271.69C225.804 271.654 225.784 271.612 225.772 271.568C225.76 271.524 225.758 271.477 225.764 271.432C225.771 271.386 225.786 271.342 225.81 271.303C225.857 271.224 225.933 271.166 226.021 271.141C226.11 271.116 226.205 271.126 226.286 271.17L228.087 272.214C228.152 272.253 228.203 272.312 228.232 272.383C228.261 272.454 228.266 272.532 228.246 272.606C228.226 272.68 228.183 272.745 228.122 272.792C228.062 272.839 227.988 272.864 227.911 272.865ZM146.849 271.885C146.788 271.884 146.728 271.868 146.675 271.837C146.623 271.806 146.579 271.762 146.548 271.709C146.502 271.628 146.489 271.532 146.513 271.442C146.536 271.352 146.594 271.274 146.674 271.226L148.475 270.189C148.514 270.166 148.558 270.15 148.603 270.144C148.649 270.137 148.695 270.14 148.739 270.152C148.784 270.163 148.825 270.184 148.862 270.212C148.898 270.24 148.928 270.275 148.951 270.315C148.997 270.396 149.01 270.492 148.986 270.583C148.963 270.673 148.905 270.751 148.825 270.799L147.025 271.835C146.981 271.861 146.934 271.877 146.884 271.885H146.849ZM224.325 270.792C224.263 270.79 224.203 270.773 224.15 270.743L222.349 269.706C222.269 269.658 222.211 269.58 222.188 269.49C222.164 269.4 222.177 269.304 222.223 269.223C222.246 269.183 222.276 269.147 222.312 269.119C222.349 269.091 222.39 269.071 222.435 269.059C222.479 269.047 222.526 269.044 222.571 269.051C222.617 269.057 222.66 269.073 222.7 269.097L224.5 270.133C224.58 270.181 224.638 270.259 224.662 270.349C224.685 270.44 224.672 270.536 224.626 270.617C224.595 270.67 224.552 270.714 224.499 270.744C224.446 270.775 224.386 270.791 224.325 270.792ZM150.478 269.804C150.417 269.804 150.357 269.787 150.304 269.757C150.251 269.726 150.207 269.682 150.177 269.629C150.131 269.549 150.118 269.454 150.142 269.365C150.165 269.276 150.223 269.199 150.303 269.153L152.103 268.144C152.143 268.115 152.188 268.095 152.236 268.085C152.284 268.074 152.333 268.074 152.381 268.084C152.429 268.094 152.475 268.115 152.514 268.143C152.554 268.172 152.587 268.209 152.612 268.251C152.637 268.293 152.652 268.341 152.657 268.389C152.663 268.438 152.658 268.487 152.643 268.534C152.628 268.581 152.603 268.624 152.571 268.66C152.538 268.697 152.498 268.726 152.453 268.746L150.653 269.783C150.598 269.807 150.537 269.815 150.478 269.804ZM220.752 268.711C220.69 268.712 220.63 268.695 220.577 268.662L218.777 267.625C218.732 267.605 218.692 267.576 218.66 267.539C218.627 267.503 218.602 267.46 218.588 267.413C218.573 267.366 218.568 267.317 218.573 267.268C218.578 267.22 218.594 267.173 218.618 267.13C218.643 267.088 218.676 267.051 218.716 267.022C218.756 266.994 218.801 266.974 218.849 266.964C218.897 266.953 218.946 266.954 218.994 266.964C219.042 266.974 219.087 266.994 219.127 267.023L220.927 268.06C220.993 268.099 221.044 268.158 221.073 268.229C221.102 268.3 221.107 268.378 221.087 268.452C221.067 268.526 221.024 268.591 220.963 268.638C220.903 268.685 220.829 268.71 220.752 268.711ZM154.079 267.731C154.017 267.73 153.957 267.714 153.905 267.683C153.852 267.652 153.808 267.608 153.777 267.555C153.731 267.474 153.718 267.378 153.742 267.288C153.765 267.198 153.823 267.12 153.903 267.072L155.676 266.042C155.715 266.019 155.759 266.003 155.804 265.997C155.85 265.99 155.896 265.993 155.941 266.005C155.985 266.016 156.027 266.037 156.063 266.065C156.099 266.093 156.13 266.128 156.152 266.168C156.198 266.249 156.211 266.345 156.188 266.436C156.164 266.526 156.106 266.604 156.026 266.652L154.275 267.682C154.216 267.718 154.147 267.735 154.079 267.731ZM217.159 266.638C217.097 266.637 217.037 266.62 216.984 266.589L215.218 265.552C215.138 265.504 215.08 265.426 215.057 265.336C215.033 265.246 215.046 265.15 215.092 265.069C215.115 265.029 215.145 264.993 215.181 264.965C215.218 264.937 215.259 264.917 215.304 264.905C215.348 264.893 215.394 264.89 215.44 264.897C215.485 264.903 215.529 264.919 215.569 264.943L217.369 265.979C217.449 266.027 217.507 266.105 217.53 266.195C217.554 266.286 217.541 266.382 217.495 266.463C217.462 266.521 217.412 266.569 217.353 266.6C217.293 266.631 217.226 266.644 217.159 266.638ZM157.679 265.65C157.603 265.649 157.529 265.624 157.468 265.577C157.408 265.53 157.364 265.465 157.344 265.391C157.325 265.317 157.329 265.239 157.358 265.168C157.387 265.097 157.438 265.038 157.504 264.999L159.297 263.962C159.337 263.933 159.382 263.913 159.43 263.903C159.478 263.892 159.528 263.892 159.576 263.902C159.623 263.913 159.669 263.933 159.708 263.961C159.748 263.99 159.781 264.027 159.806 264.069C159.831 264.111 159.846 264.159 159.851 264.207C159.857 264.256 159.852 264.305 159.837 264.352C159.822 264.399 159.797 264.442 159.765 264.478C159.732 264.515 159.692 264.544 159.648 264.564L157.854 265.601C157.802 265.633 157.741 265.65 157.679 265.65ZM213.558 264.557C213.496 264.558 213.436 264.541 213.383 264.508L211.583 263.472C211.513 263.421 211.464 263.345 211.446 263.26C211.428 263.176 211.442 263.087 211.486 263.012C211.53 262.937 211.599 262.881 211.682 262.855C211.765 262.828 211.854 262.833 211.933 262.869L213.733 263.906C213.799 263.945 213.85 264.004 213.879 264.075C213.908 264.146 213.913 264.224 213.893 264.298C213.873 264.372 213.83 264.437 213.769 264.484C213.709 264.531 213.635 264.557 213.558 264.557ZM161.28 263.577C161.219 263.576 161.159 263.56 161.106 263.529C161.053 263.498 161.009 263.454 160.978 263.401C160.932 263.32 160.919 263.224 160.943 263.134C160.967 263.044 161.025 262.966 161.105 262.918L162.905 261.881C162.944 261.858 162.988 261.842 163.033 261.836C163.079 261.829 163.125 261.832 163.17 261.844C163.214 261.855 163.256 261.876 163.292 261.904C163.328 261.932 163.359 261.967 163.381 262.007C163.428 262.089 163.44 262.184 163.417 262.275C163.393 262.365 163.335 262.443 163.255 262.491L161.455 263.528C161.403 263.561 161.342 263.578 161.28 263.577ZM209.972 262.484C209.91 262.485 209.849 262.468 209.796 262.435L207.996 261.398C207.956 261.375 207.921 261.344 207.893 261.308C207.865 261.271 207.844 261.229 207.832 261.185C207.82 261.14 207.817 261.094 207.823 261.048C207.829 261.002 207.844 260.958 207.867 260.918C207.89 260.878 207.92 260.843 207.957 260.815C207.993 260.787 208.035 260.766 208.08 260.754C208.124 260.742 208.171 260.739 208.216 260.745C208.262 260.751 208.306 260.766 208.346 260.789L210.147 261.825C210.227 261.873 210.285 261.951 210.308 262.041C210.332 262.132 210.319 262.228 210.273 262.309C210.242 262.363 210.197 262.407 210.142 262.438C210.088 262.469 210.027 262.485 209.965 262.484H209.972ZM164.873 261.496C164.812 261.496 164.752 261.479 164.699 261.449C164.647 261.418 164.603 261.374 164.572 261.321C164.526 261.241 164.514 261.146 164.537 261.057C164.561 260.968 164.619 260.891 164.698 260.845L166.498 259.808C166.577 259.772 166.667 259.767 166.749 259.793C166.832 259.82 166.902 259.876 166.945 259.951C166.989 260.026 167.003 260.114 166.985 260.199C166.968 260.284 166.919 260.359 166.849 260.41L165.048 261.454C164.993 261.484 164.93 261.498 164.866 261.496H164.873ZM206.364 260.438C206.302 260.439 206.241 260.422 206.189 260.389L204.389 259.353C204.344 259.332 204.304 259.303 204.271 259.266C204.239 259.23 204.214 259.187 204.199 259.14C204.184 259.094 204.179 259.044 204.185 258.995C204.19 258.947 204.205 258.9 204.23 258.857C204.255 258.815 204.288 258.778 204.328 258.75C204.367 258.721 204.413 258.701 204.461 258.691C204.509 258.681 204.558 258.681 204.606 258.691C204.654 258.701 204.699 258.721 204.739 258.75L206.539 259.787C206.605 259.826 206.656 259.885 206.685 259.956C206.714 260.027 206.718 260.105 206.699 260.179C206.679 260.253 206.635 260.318 206.575 260.365C206.514 260.412 206.44 260.438 206.364 260.438ZM168.467 259.458C168.39 259.457 168.316 259.431 168.256 259.384C168.195 259.337 168.152 259.272 168.132 259.198C168.112 259.125 168.117 259.046 168.146 258.975C168.175 258.905 168.226 258.845 168.292 258.806L170.092 257.762C170.173 257.716 170.269 257.704 170.359 257.728C170.449 257.752 170.525 257.811 170.572 257.892C170.618 257.973 170.631 258.069 170.606 258.159C170.582 258.249 170.523 258.325 170.442 258.372L168.642 259.409C168.586 259.429 168.525 259.434 168.467 259.423V259.458ZM202.791 258.365C202.729 258.367 202.668 258.35 202.616 258.316L200.816 257.279C200.736 257.231 200.678 257.153 200.654 257.063C200.631 256.973 200.644 256.877 200.69 256.796C200.737 256.716 200.813 256.658 200.902 256.635C200.991 256.611 201.086 256.624 201.166 256.67L202.967 257.706C203.047 257.755 203.105 257.832 203.128 257.922C203.152 258.013 203.139 258.109 203.093 258.19C203.057 258.241 203.008 258.281 202.951 258.307C202.895 258.333 202.832 258.343 202.77 258.337L202.791 258.365ZM172.088 257.377C172.012 257.376 171.938 257.351 171.877 257.304C171.817 257.257 171.774 257.192 171.754 257.118C171.734 257.044 171.739 256.966 171.768 256.895C171.796 256.824 171.848 256.765 171.913 256.726L173.707 255.689C173.746 255.66 173.791 255.64 173.839 255.63C173.887 255.619 173.937 255.619 173.985 255.629C174.033 255.64 174.078 255.66 174.118 255.688C174.158 255.717 174.191 255.754 174.215 255.796C174.24 255.839 174.256 255.886 174.261 255.934C174.266 255.983 174.261 256.032 174.246 256.079C174.231 256.126 174.207 256.169 174.174 256.205C174.141 256.242 174.102 256.271 174.057 256.291L172.264 257.335C172.2 257.354 172.132 257.356 172.067 257.342L172.088 257.377ZM199.17 256.235C199.108 256.236 199.047 256.219 198.995 256.186L197.194 255.15C197.15 255.129 197.11 255.1 197.077 255.063C197.045 255.027 197.02 254.984 197.005 254.937C196.99 254.891 196.985 254.841 196.99 254.792C196.996 254.744 197.011 254.697 197.036 254.654C197.061 254.612 197.094 254.575 197.133 254.547C197.173 254.518 197.218 254.498 197.266 254.488C197.314 254.478 197.364 254.478 197.412 254.488C197.46 254.498 197.505 254.518 197.545 254.547L199.345 255.584C199.411 255.623 199.462 255.682 199.491 255.753C199.519 255.824 199.524 255.902 199.504 255.976C199.485 256.05 199.441 256.115 199.381 256.162C199.32 256.209 199.246 256.235 199.17 256.235ZM175.661 255.255C175.585 255.254 175.51 255.228 175.45 255.181C175.39 255.134 175.346 255.069 175.326 254.995C175.306 254.922 175.311 254.843 175.34 254.772C175.369 254.702 175.42 254.642 175.486 254.603L177.286 253.559C177.367 253.516 177.462 253.505 177.551 253.53C177.64 253.555 177.716 253.613 177.763 253.693C177.786 253.732 177.802 253.776 177.808 253.821C177.815 253.867 177.812 253.913 177.8 253.957C177.788 254.002 177.768 254.043 177.74 254.08C177.712 254.116 177.676 254.146 177.636 254.169L175.836 255.206C175.785 255.244 175.724 255.266 175.661 255.269V255.255ZM195.604 254.176C195.542 254.177 195.481 254.16 195.429 254.127L193.629 253.09C193.589 253.067 193.554 253.036 193.526 253C193.497 252.963 193.477 252.922 193.465 252.877C193.453 252.832 193.45 252.786 193.455 252.74C193.461 252.694 193.476 252.65 193.499 252.61C193.522 252.57 193.553 252.535 193.589 252.507C193.626 252.479 193.668 252.458 193.712 252.446C193.757 252.434 193.803 252.431 193.849 252.437C193.895 252.443 193.939 252.458 193.979 252.481L195.779 253.517C195.859 253.565 195.917 253.643 195.941 253.733C195.965 253.824 195.952 253.92 195.905 254.001C195.875 254.054 195.831 254.098 195.778 254.128C195.725 254.159 195.665 254.175 195.604 254.176ZM179.283 253.188C179.221 253.188 179.162 253.171 179.109 253.141C179.056 253.11 179.012 253.066 178.981 253.013C178.935 252.933 178.923 252.838 178.946 252.749C178.97 252.66 179.028 252.583 179.107 252.537L180.908 251.5C180.987 251.464 181.076 251.459 181.159 251.486C181.241 251.512 181.311 251.568 181.355 251.643C181.398 251.718 181.413 251.806 181.395 251.891C181.377 251.976 181.328 252.051 181.258 252.102L179.458 253.146C179.396 253.18 179.325 253.195 179.255 253.188H179.283ZM192.004 252.095C191.943 252.095 191.883 252.08 191.829 252.053L190 251.01C189.93 250.959 189.881 250.883 189.864 250.799C189.846 250.714 189.86 250.625 189.903 250.55C189.947 250.475 190.017 250.419 190.099 250.393C190.182 250.366 190.272 250.371 190.351 250.407L192.151 251.444C192.217 251.483 192.268 251.542 192.297 251.613C192.325 251.684 192.33 251.762 192.31 251.836C192.291 251.91 192.247 251.975 192.187 252.022C192.126 252.069 192.052 252.095 191.976 252.095H192.004ZM182.897 251.115C182.821 251.114 182.747 251.088 182.686 251.041C182.626 250.994 182.582 250.929 182.563 250.855C182.543 250.782 182.548 250.703 182.576 250.632C182.605 250.562 182.656 250.502 182.722 250.463L184.522 249.419C184.603 249.373 184.699 249.361 184.789 249.385C184.879 249.409 184.956 249.468 185.002 249.549C185.049 249.63 185.061 249.726 185.037 249.816C185.012 249.906 184.953 249.982 184.873 250.029L183.072 251.066C183.008 251.108 182.931 251.125 182.855 251.115H182.897ZM188.424 250.022C188.362 250.024 188.301 250.007 188.249 249.973L186.925 249.23C186.925 249.23 186.778 249.23 186.561 249.23C186.467 249.231 186.377 249.195 186.308 249.132C186.239 249.068 186.197 248.981 186.19 248.887C186.186 248.843 186.191 248.799 186.204 248.757C186.218 248.715 186.24 248.677 186.268 248.643C186.297 248.61 186.332 248.583 186.372 248.563C186.411 248.544 186.454 248.532 186.498 248.53H186.561C186.799 248.522 187.037 248.56 187.261 248.642L188.564 249.398C188.63 249.437 188.681 249.497 188.71 249.568C188.739 249.638 188.744 249.717 188.724 249.791C188.704 249.864 188.66 249.93 188.6 249.977C188.54 250.023 188.466 250.049 188.389 250.05L188.424 250.022Z" fill="white"/>
<path d="M240.541 281.187C240.479 281.188 240.418 281.172 240.363 281.141C240.309 281.111 240.264 281.066 240.233 281.012C240.21 280.972 240.195 280.928 240.189 280.882C240.183 280.837 240.186 280.79 240.198 280.746C240.211 280.701 240.232 280.66 240.261 280.623C240.29 280.587 240.326 280.558 240.366 280.536L240.744 280.312L240.366 280.087C240.285 280.042 240.226 279.966 240.201 279.877C240.176 279.787 240.188 279.692 240.233 279.611C240.281 279.531 240.359 279.473 240.449 279.449C240.539 279.426 240.635 279.439 240.716 279.485L242.117 280.312L240.716 281.138C240.664 281.171 240.603 281.188 240.541 281.187Z" fill="white"/>
<path d="M163.087 325.676C162.848 325.683 162.61 325.643 162.387 325.557L161.084 324.807C161.044 324.784 161.008 324.754 160.98 324.717C160.952 324.681 160.931 324.639 160.919 324.594C160.907 324.55 160.904 324.503 160.91 324.457C160.916 324.412 160.931 324.368 160.954 324.328C160.977 324.288 161.008 324.252 161.044 324.224C161.081 324.196 161.123 324.175 161.167 324.163C161.212 324.151 161.258 324.148 161.304 324.154C161.35 324.16 161.394 324.175 161.434 324.198L162.716 324.94C162.716 324.94 162.856 324.976 163.073 324.976C163.168 324.972 163.262 325.006 163.332 325.07C163.403 325.134 163.446 325.223 163.451 325.319C163.455 325.363 163.45 325.407 163.437 325.449C163.423 325.49 163.401 325.529 163.373 325.562C163.344 325.596 163.309 325.623 163.269 325.642C163.23 325.662 163.187 325.673 163.143 325.676H163.087ZM164.999 324.8C164.938 324.8 164.878 324.784 164.825 324.753C164.773 324.722 164.729 324.678 164.698 324.625C164.652 324.544 164.639 324.448 164.663 324.358C164.686 324.268 164.744 324.19 164.824 324.142L166.625 323.105C166.705 323.059 166.801 323.046 166.891 323.071C166.981 323.095 167.058 323.154 167.104 323.235C167.151 323.316 167.163 323.412 167.139 323.502C167.115 323.592 167.056 323.668 166.975 323.715L165.175 324.751C165.122 324.784 165.061 324.801 164.999 324.8ZM159.472 323.813C159.412 323.812 159.352 323.798 159.297 323.771L157.504 322.727C157.459 322.707 157.419 322.677 157.387 322.641C157.354 322.604 157.33 322.561 157.315 322.515C157.3 322.468 157.295 322.419 157.3 322.37C157.305 322.321 157.321 322.274 157.345 322.232C157.37 322.189 157.403 322.153 157.443 322.124C157.483 322.095 157.528 322.075 157.576 322.065C157.624 322.055 157.674 322.055 157.721 322.065C157.769 322.075 157.815 322.096 157.854 322.124L159.648 323.161C159.713 323.2 159.764 323.26 159.793 323.33C159.822 323.401 159.827 323.48 159.807 323.553C159.787 323.627 159.744 323.692 159.683 323.739C159.623 323.786 159.549 323.812 159.472 323.813ZM168.579 322.72C168.503 322.719 168.428 322.693 168.368 322.647C168.308 322.6 168.264 322.534 168.244 322.461C168.224 322.387 168.229 322.308 168.258 322.238C168.287 322.167 168.338 322.107 168.404 322.068L170.204 321.032C170.244 321.003 170.289 320.983 170.337 320.972C170.385 320.962 170.434 320.962 170.482 320.972C170.53 320.982 170.576 321.002 170.615 321.031C170.655 321.06 170.688 321.097 170.713 321.139C170.738 321.181 170.753 321.228 170.758 321.277C170.764 321.326 170.759 321.375 170.744 321.422C170.729 321.468 170.704 321.511 170.672 321.548C170.639 321.585 170.599 321.614 170.554 321.634L168.754 322.671C168.706 322.702 168.65 322.719 168.593 322.72H168.579ZM155.865 321.739C155.803 321.74 155.742 321.723 155.69 321.69L153.903 320.681C153.863 320.659 153.828 320.629 153.8 320.592C153.772 320.556 153.751 320.514 153.74 320.47C153.728 320.426 153.725 320.379 153.732 320.334C153.738 320.288 153.754 320.244 153.777 320.205C153.824 320.126 153.9 320.068 153.989 320.043C154.078 320.018 154.172 320.028 154.254 320.072L156.054 321.116C156.12 321.155 156.171 321.214 156.2 321.285C156.229 321.356 156.233 321.434 156.214 321.508C156.194 321.582 156.15 321.647 156.09 321.694C156.029 321.741 155.955 321.766 155.879 321.767L155.865 321.739ZM172.194 320.681C172.117 320.681 172.043 320.655 171.983 320.608C171.922 320.561 171.879 320.496 171.859 320.422C171.839 320.348 171.844 320.27 171.873 320.199C171.901 320.128 171.953 320.069 172.018 320.03L173.819 318.986C173.9 318.94 173.995 318.927 174.085 318.952C174.175 318.976 174.252 319.035 174.299 319.116C174.345 319.197 174.357 319.293 174.333 319.383C174.309 319.473 174.25 319.549 174.169 319.596L172.369 320.632C172.316 320.665 172.255 320.682 172.194 320.681ZM152.285 319.694C152.224 319.695 152.164 319.68 152.11 319.652L150.31 318.58C150.265 318.56 150.225 318.53 150.193 318.494C150.16 318.457 150.135 318.414 150.121 318.368C150.106 318.321 150.101 318.272 150.106 318.223C150.111 318.174 150.127 318.127 150.151 318.085C150.176 318.042 150.209 318.006 150.249 317.977C150.289 317.948 150.334 317.928 150.382 317.918C150.43 317.908 150.479 317.908 150.527 317.918C150.575 317.929 150.62 317.949 150.66 317.978L152.46 319.014C152.54 319.061 152.598 319.137 152.621 319.227C152.645 319.316 152.632 319.411 152.586 319.491C152.555 319.542 152.511 319.585 152.458 319.614C152.405 319.644 152.346 319.659 152.285 319.659V319.694ZM175.787 318.58C175.726 318.58 175.666 318.563 175.613 318.532C175.56 318.502 175.516 318.458 175.486 318.405C175.44 318.325 175.427 318.23 175.451 318.141C175.475 318.052 175.532 317.975 175.612 317.928L177.412 316.892C177.452 316.863 177.497 316.843 177.545 316.832C177.593 316.822 177.643 316.822 177.69 316.832C177.738 316.842 177.784 316.862 177.823 316.891C177.863 316.92 177.896 316.957 177.921 316.999C177.946 317.041 177.961 317.088 177.966 317.137C177.972 317.186 177.967 317.235 177.952 317.282C177.937 317.328 177.912 317.371 177.88 317.408C177.847 317.445 177.807 317.474 177.763 317.494L175.99 318.524C175.93 318.563 175.859 318.582 175.787 318.58ZM148.671 317.585C148.609 317.586 148.548 317.569 148.496 317.536L146.709 316.478C146.669 316.456 146.634 316.426 146.606 316.389C146.578 316.353 146.557 316.311 146.545 316.267C146.534 316.223 146.531 316.176 146.537 316.131C146.544 316.085 146.56 316.041 146.583 316.002C146.63 315.923 146.706 315.865 146.795 315.84C146.883 315.815 146.978 315.825 147.06 315.869L148.86 316.913C148.926 316.952 148.977 317.011 149.006 317.082C149.034 317.153 149.039 317.231 149.019 317.305C149 317.379 148.956 317.444 148.896 317.491C148.835 317.538 148.761 317.563 148.685 317.564L148.671 317.585ZM179.388 316.478C179.311 316.478 179.237 316.452 179.177 316.405C179.116 316.358 179.073 316.293 179.053 316.219C179.033 316.145 179.038 316.067 179.067 315.996C179.096 315.925 179.147 315.866 179.213 315.827L181.013 314.783C181.094 314.737 181.19 314.724 181.28 314.749C181.37 314.773 181.446 314.832 181.493 314.913C181.539 314.994 181.552 315.09 181.527 315.18C181.503 315.27 181.444 315.346 181.363 315.393L179.563 316.478C179.506 316.494 179.445 316.494 179.388 316.478ZM145.063 315.491C145.002 315.49 144.942 315.476 144.888 315.449L143.095 314.405C143.05 314.385 143.01 314.355 142.978 314.319C142.945 314.282 142.92 314.239 142.905 314.193C142.89 314.146 142.885 314.097 142.891 314.048C142.896 313.999 142.912 313.952 142.936 313.91C142.961 313.867 142.994 313.831 143.034 313.802C143.073 313.773 143.119 313.753 143.167 313.743C143.215 313.733 143.264 313.733 143.312 313.743C143.36 313.753 143.405 313.774 143.445 313.803L145.238 314.839C145.304 314.878 145.355 314.938 145.384 315.009C145.413 315.079 145.418 315.158 145.398 315.231C145.378 315.305 145.334 315.371 145.274 315.417C145.214 315.464 145.14 315.49 145.063 315.491ZM182.995 314.412C182.919 314.411 182.845 314.385 182.784 314.339C182.724 314.292 182.68 314.226 182.661 314.153C182.641 314.079 182.646 314.001 182.674 313.93C182.703 313.859 182.754 313.799 182.82 313.76L184.613 312.724C184.653 312.695 184.698 312.675 184.746 312.664C184.794 312.654 184.844 312.654 184.892 312.664C184.94 312.674 184.985 312.694 185.025 312.723C185.064 312.752 185.098 312.789 185.122 312.831C185.147 312.873 185.162 312.92 185.168 312.969C185.173 313.018 185.168 313.067 185.153 313.114C185.138 313.16 185.113 313.204 185.081 313.24C185.048 313.277 185.008 313.306 184.964 313.326L183.163 314.377C183.111 314.401 183.053 314.413 182.995 314.412ZM141.498 313.431C141.436 313.432 141.375 313.415 141.322 313.382L139.522 312.345C139.482 312.323 139.447 312.293 139.419 312.256C139.391 312.22 139.37 312.178 139.358 312.134C139.347 312.09 139.344 312.043 139.35 311.998C139.357 311.952 139.372 311.909 139.396 311.869C139.443 311.79 139.519 311.732 139.607 311.707C139.696 311.682 139.791 311.693 139.872 311.736L141.666 312.78C141.731 312.819 141.783 312.878 141.811 312.949C141.84 313.02 141.845 313.098 141.825 313.172C141.805 313.246 141.762 313.311 141.702 313.358C141.641 313.405 141.567 313.43 141.491 313.431H141.498ZM186.589 312.338C186.512 312.338 186.438 312.312 186.378 312.265C186.317 312.218 186.274 312.153 186.254 312.079C186.234 312.005 186.239 311.927 186.268 311.856C186.297 311.785 186.348 311.726 186.414 311.687L188.214 310.643C188.295 310.597 188.391 310.584 188.481 310.609C188.571 310.633 188.647 310.692 188.694 310.773C188.74 310.854 188.753 310.95 188.728 311.04C188.704 311.13 188.645 311.206 188.564 311.253L186.757 312.275C186.706 312.313 186.645 312.335 186.582 312.338H186.589ZM137.897 311.351C137.836 311.35 137.776 311.336 137.722 311.309L135.929 310.265C135.884 310.245 135.844 310.215 135.811 310.179C135.779 310.142 135.754 310.099 135.739 310.053C135.724 310.006 135.719 309.957 135.725 309.908C135.73 309.859 135.745 309.812 135.77 309.77C135.795 309.727 135.828 309.691 135.868 309.662C135.907 309.633 135.953 309.613 136.001 309.603C136.049 309.593 136.098 309.593 136.146 309.603C136.194 309.614 136.239 309.634 136.279 309.663L138.072 310.699C138.153 310.745 138.212 310.821 138.237 310.91C138.262 310.999 138.251 311.095 138.205 311.176C138.173 311.23 138.127 311.275 138.071 311.306C138.016 311.337 137.953 311.352 137.89 311.351H137.897ZM190.182 310.258C190.121 310.258 190.061 310.241 190.008 310.211C189.956 310.18 189.912 310.136 189.881 310.083C189.835 310.003 189.823 309.908 189.846 309.819C189.87 309.73 189.928 309.653 190.007 309.607L191.808 308.57C191.887 308.534 191.976 308.529 192.059 308.555C192.141 308.582 192.211 308.638 192.255 308.713C192.298 308.788 192.312 308.876 192.295 308.961C192.277 309.046 192.228 309.121 192.158 309.172L190.358 310.216C190.302 310.246 190.239 310.26 190.175 310.258H190.182ZM134.303 309.277C134.241 309.278 134.181 309.261 134.128 309.228L132.328 308.192C132.288 308.169 132.253 308.139 132.225 308.102C132.196 308.066 132.176 308.024 132.164 307.98C132.152 307.936 132.15 307.889 132.156 307.844C132.163 307.798 132.178 307.755 132.202 307.715C132.249 307.636 132.325 307.578 132.413 307.553C132.502 307.528 132.597 307.539 132.678 307.582L134.479 308.626C134.544 308.665 134.595 308.724 134.624 308.795C134.653 308.866 134.658 308.944 134.638 309.018C134.618 309.092 134.575 309.157 134.514 309.204C134.454 309.251 134.38 309.277 134.303 309.277ZM193.783 308.185C193.707 308.184 193.632 308.158 193.572 308.111C193.512 308.064 193.468 307.999 193.448 307.925C193.428 307.851 193.433 307.773 193.462 307.702C193.491 307.631 193.542 307.572 193.608 307.533L195.408 306.489C195.489 306.443 195.585 306.43 195.675 306.455C195.765 306.479 195.842 306.538 195.888 306.619C195.934 306.7 195.947 306.796 195.923 306.886C195.898 306.976 195.839 307.052 195.758 307.099L193.958 308.135C193.903 308.169 193.84 308.186 193.776 308.185H193.783ZM130.738 307.197C130.677 307.196 130.617 307.182 130.563 307.155L128.769 306.118C128.69 306.07 128.631 305.993 128.607 305.903C128.582 305.813 128.592 305.717 128.636 305.635C128.684 305.555 128.762 305.497 128.852 305.473C128.943 305.45 129.039 305.462 129.12 305.509L130.913 306.545C130.979 306.584 131.03 306.644 131.059 306.715C131.088 306.785 131.092 306.864 131.073 306.937C131.053 307.011 131.009 307.077 130.949 307.123C130.888 307.17 130.814 307.196 130.738 307.197ZM197.419 306.104C197.342 306.103 197.268 306.077 197.208 306.031C197.147 305.984 197.104 305.919 197.084 305.845C197.064 305.771 197.069 305.693 197.098 305.622C197.127 305.551 197.178 305.492 197.243 305.453L199.037 304.416C199.118 304.369 199.214 304.357 199.304 304.38C199.394 304.404 199.472 304.462 199.52 304.542C199.564 304.624 199.575 304.72 199.55 304.81C199.525 304.9 199.467 304.977 199.387 305.025L197.594 306.062C197.527 306.096 197.451 306.111 197.377 306.104H197.419ZM127.144 305.123C127.082 305.125 127.021 305.107 126.969 305.074L125.169 304.038C125.099 303.987 125.05 303.911 125.032 303.826C125.014 303.742 125.029 303.653 125.072 303.578C125.116 303.503 125.186 303.447 125.268 303.421C125.351 303.394 125.44 303.399 125.519 303.435L127.319 304.472C127.385 304.511 127.436 304.57 127.465 304.641C127.494 304.712 127.499 304.79 127.479 304.864C127.459 304.938 127.416 305.003 127.355 305.05C127.295 305.097 127.221 305.123 127.144 305.123ZM201.012 304.031C200.936 304.03 200.862 304.004 200.801 303.957C200.741 303.91 200.697 303.845 200.678 303.771C200.658 303.697 200.663 303.619 200.691 303.548C200.72 303.477 200.771 303.418 200.837 303.379L202.637 302.342C202.716 302.307 202.806 302.301 202.888 302.328C202.971 302.354 203.041 302.41 203.084 302.485C203.128 302.56 203.142 302.649 203.124 302.734C203.106 302.819 203.058 302.894 202.988 302.945L201.187 303.981C201.123 304.023 201.046 304.04 200.97 304.031H201.012ZM123.544 303.05C123.482 303.047 123.423 303.03 123.369 303.001L121.575 301.964C121.535 301.941 121.5 301.91 121.472 301.874C121.444 301.837 121.423 301.796 121.411 301.751C121.399 301.706 121.396 301.66 121.402 301.614C121.408 301.568 121.423 301.524 121.446 301.484C121.469 301.444 121.499 301.409 121.536 301.381C121.572 301.353 121.614 301.332 121.659 301.32C121.703 301.308 121.75 301.305 121.796 301.311C121.841 301.317 121.886 301.332 121.926 301.355L123.719 302.391C123.788 302.429 123.843 302.488 123.874 302.561C123.905 302.633 123.911 302.714 123.891 302.79C123.871 302.866 123.826 302.933 123.763 302.98C123.7 303.027 123.622 303.052 123.544 303.05ZM204.606 301.957C204.545 301.957 204.485 301.94 204.432 301.91C204.379 301.879 204.335 301.835 204.305 301.782C204.258 301.701 204.245 301.605 204.269 301.515C204.293 301.424 204.351 301.347 204.431 301.299L206.231 300.262C206.27 300.238 206.314 300.223 206.36 300.216C206.405 300.21 206.451 300.212 206.496 300.224C206.54 300.236 206.582 300.256 206.618 300.285C206.654 300.313 206.685 300.348 206.707 300.388C206.754 300.469 206.766 300.565 206.743 300.655C206.719 300.746 206.661 300.823 206.581 300.871L204.711 301.908C204.666 301.935 204.616 301.951 204.564 301.957H204.606ZM119.908 300.969C119.846 300.971 119.785 300.954 119.733 300.92L117.933 299.884C117.863 299.833 117.814 299.757 117.796 299.673C117.778 299.588 117.792 299.499 117.836 299.424C117.879 299.349 117.949 299.293 118.032 299.267C118.114 299.24 118.204 299.245 118.283 299.281L120.083 300.318C120.149 300.357 120.2 300.416 120.229 300.487C120.258 300.558 120.263 300.636 120.243 300.71C120.223 300.784 120.179 300.849 120.119 300.896C120.059 300.943 119.985 300.969 119.908 300.969ZM208.171 299.877C208.095 299.876 208.021 299.85 207.96 299.803C207.9 299.756 207.856 299.691 207.837 299.617C207.817 299.543 207.822 299.465 207.85 299.394C207.879 299.324 207.93 299.264 207.996 299.225L209.796 298.188C209.875 298.153 209.965 298.148 210.048 298.174C210.13 298.2 210.2 298.257 210.244 298.331C210.287 298.406 210.301 298.495 210.283 298.58C210.266 298.665 210.217 298.74 210.147 298.791L208.346 299.828C208.292 299.862 208.229 299.879 208.164 299.877H208.171ZM116.308 298.896C116.246 298.893 116.186 298.876 116.132 298.847L114.346 297.81C114.266 297.762 114.208 297.685 114.183 297.595C114.158 297.505 114.169 297.409 114.213 297.327C114.261 297.247 114.339 297.189 114.429 297.165C114.519 297.142 114.615 297.154 114.696 297.201L116.483 298.265C116.564 298.312 116.623 298.389 116.648 298.48C116.673 298.57 116.661 298.667 116.616 298.749C116.581 298.798 116.535 298.837 116.481 298.862C116.427 298.888 116.367 298.9 116.308 298.896ZM211.765 297.803C211.703 297.804 211.641 297.788 211.587 297.757C211.533 297.727 211.488 297.682 211.457 297.628C211.411 297.546 211.399 297.449 211.424 297.359C211.449 297.269 211.509 297.192 211.59 297.145L213.383 296.108C213.464 296.062 213.56 296.049 213.65 296.072C213.741 296.096 213.818 296.154 213.866 296.234C213.91 296.316 213.921 296.412 213.896 296.502C213.871 296.592 213.813 296.669 213.733 296.717L211.94 297.754C211.886 297.783 211.826 297.8 211.765 297.803ZM112.714 296.815C112.652 296.817 112.591 296.8 112.539 296.766L110.739 295.73C110.668 295.679 110.62 295.603 110.602 295.519C110.584 295.434 110.598 295.345 110.642 295.27C110.685 295.195 110.755 295.139 110.838 295.113C110.92 295.086 111.01 295.091 111.089 295.127L112.889 296.164C112.955 296.203 113.006 296.262 113.035 296.333C113.064 296.404 113.068 296.482 113.049 296.556C113.029 296.63 112.985 296.695 112.925 296.742C112.864 296.789 112.79 296.815 112.714 296.815ZM215.358 295.723C215.282 295.722 215.208 295.696 215.147 295.649C215.087 295.602 215.044 295.537 215.024 295.463C215.004 295.389 215.009 295.311 215.038 295.24C215.066 295.17 215.118 295.11 215.183 295.071L216.984 294.034C217.023 294.006 217.068 293.985 217.116 293.975C217.164 293.965 217.214 293.965 217.262 293.975C217.31 293.985 217.355 294.005 217.395 294.034C217.435 294.063 217.468 294.099 217.492 294.142C217.517 294.184 217.533 294.231 217.538 294.28C217.543 294.328 217.538 294.378 217.523 294.424C217.508 294.471 217.484 294.514 217.451 294.551C217.418 294.587 217.379 294.617 217.334 294.637L215.534 295.674C215.481 295.707 215.42 295.724 215.358 295.723ZM218.952 293.621C218.891 293.621 218.831 293.604 218.778 293.574C218.725 293.543 218.681 293.499 218.651 293.446C218.604 293.365 218.592 293.269 218.615 293.179C218.639 293.088 218.697 293.011 218.777 292.963L220.577 291.926C220.658 291.88 220.754 291.867 220.845 291.89C220.935 291.914 221.012 291.972 221.061 292.052C221.104 292.134 221.115 292.23 221.09 292.32C221.066 292.41 221.007 292.487 220.927 292.535L219.127 293.572C219.077 293.613 219.016 293.639 218.952 293.649V293.621ZM222.553 291.52C222.476 291.519 222.402 291.493 222.342 291.446C222.281 291.399 222.238 291.334 222.218 291.26C222.198 291.186 222.203 291.108 222.232 291.037C222.261 290.967 222.312 290.907 222.377 290.868L224.178 289.831C224.257 289.796 224.346 289.791 224.429 289.817C224.511 289.843 224.581 289.9 224.625 289.974C224.668 290.049 224.683 290.138 224.665 290.223C224.647 290.308 224.598 290.383 224.528 290.434L222.728 291.471C222.682 291.521 222.62 291.556 222.553 291.569V291.52ZM226.153 289.418C226.091 289.419 226.029 289.403 225.975 289.372C225.921 289.342 225.876 289.297 225.845 289.243C225.799 289.161 225.788 289.064 225.812 288.974C225.837 288.884 225.897 288.807 225.978 288.76L227.771 287.723C227.811 287.7 227.855 287.685 227.901 287.679C227.947 287.673 227.994 287.676 228.038 287.688C228.083 287.7 228.124 287.721 228.161 287.749C228.198 287.777 228.228 287.812 228.251 287.852C228.274 287.892 228.289 287.937 228.295 287.982C228.301 288.028 228.298 288.075 228.286 288.119C228.274 288.164 228.253 288.206 228.225 288.242C228.197 288.279 228.162 288.309 228.122 288.332L226.328 289.369C226.286 289.43 226.224 289.474 226.153 289.495V289.418ZM229.747 287.317C229.67 287.316 229.596 287.29 229.536 287.243C229.475 287.196 229.432 287.131 229.412 287.057C229.392 286.983 229.397 286.905 229.426 286.834C229.455 286.764 229.506 286.704 229.572 286.665L231.372 285.628C231.412 285.6 231.457 285.579 231.505 285.569C231.553 285.559 231.602 285.559 231.65 285.569C231.698 285.579 231.743 285.599 231.783 285.628C231.823 285.656 231.856 285.693 231.881 285.736C231.905 285.778 231.921 285.825 231.926 285.874C231.931 285.922 231.926 285.972 231.911 286.018C231.897 286.065 231.872 286.108 231.839 286.145C231.807 286.181 231.767 286.211 231.722 286.231L229.929 287.373C229.873 287.402 229.81 287.416 229.747 287.415V287.317ZM233.347 285.215C233.285 285.215 233.224 285.199 233.17 285.168C233.116 285.138 233.071 285.093 233.039 285.04C233.016 285 233.001 284.956 232.995 284.91C232.989 284.864 232.992 284.818 233.004 284.773C233.017 284.729 233.038 284.687 233.067 284.651C233.096 284.615 233.132 284.585 233.172 284.564L234.965 283.52C235.005 283.497 235.05 283.482 235.095 283.476C235.141 283.47 235.188 283.473 235.232 283.485C235.277 283.497 235.319 283.518 235.355 283.546C235.392 283.574 235.422 283.609 235.445 283.649C235.468 283.689 235.483 283.734 235.489 283.779C235.495 283.825 235.492 283.872 235.48 283.916C235.468 283.961 235.447 284.003 235.419 284.039C235.391 284.076 235.356 284.106 235.316 284.129L233.522 285.166C233.489 285.245 233.426 285.308 233.347 285.341V285.215ZM236.941 283.114C236.864 283.113 236.79 283.087 236.73 283.04C236.67 282.993 236.626 282.928 236.606 282.854C236.586 282.78 236.591 282.702 236.62 282.631C236.649 282.561 236.7 282.501 236.766 282.462L238.566 281.425C238.645 281.39 238.735 281.385 238.817 281.411C238.9 281.437 238.97 281.494 239.013 281.568C239.057 281.643 239.071 281.732 239.053 281.817C239.035 281.902 238.986 281.977 238.916 282.028L237.116 283.072C237.08 283.154 237.015 283.221 236.934 283.261L236.941 283.114Z" fill="white"/>
<path opacity="0.1" d="M101.205 309.473L161.889 344.498C162.256 344.712 162.673 344.824 163.097 344.824C163.522 344.824 163.939 344.712 164.306 344.498L248.471 295.919V299.204L164.306 347.798C163.939 348.011 163.522 348.124 163.097 348.124C162.673 348.124 162.256 348.011 161.889 347.798L101.205 312.773V309.473Z" fill="#333333"/>
<path d="M152.299 323.35C152.299 323.315 152.299 323.287 152.299 323.252C155.72 321.801 159.399 321.053 163.115 321.053C166.831 321.053 170.51 321.801 173.931 323.252C173.931 323.287 173.931 323.315 173.931 323.35L165.392 328.254C164.697 328.627 163.918 328.815 163.129 328.8C162.334 328.816 161.548 328.628 160.845 328.254L152.327 323.35" fill="#34A98F"/>
<path d="M246.18 279.009L238.902 274.806C233.704 277.839 233.718 282.735 238.958 285.754H239L246.18 281.614C247.441 280.914 247.441 279.737 246.18 279.009Z" fill="#34A98F"/>
<path d="M103.495 292.535L110.773 288.332C115.971 291.365 115.957 296.262 110.717 299.281H110.675L103.495 295.141C102.241 294.441 102.241 293.264 103.495 292.535Z" fill="#34A98F"/>
<path d="M196.767 250.47L188.837 245.889C188.133 245.533 187.354 245.348 186.564 245.348C185.775 245.348 184.996 245.533 184.291 245.889L176.474 250.407C176.691 250.554 176.915 250.701 177.174 250.841C182.435 253.875 190.953 253.875 196.214 250.841C196.396 250.722 196.578 250.631 196.767 250.47Z" fill="#34A98F"/>
<path d="M173.889 323.35C173.097 329.935 168.719 335.735 163.087 339.672V328.828C163.876 328.843 164.655 328.655 165.35 328.282L173.889 323.35Z" fill="#34A98F"/>
<path d="M246.18 281.628L238.958 285.789C238.958 291.828 243.224 293.558 248.471 290.539V282.931C248.428 282.142 248.199 281.375 247.804 280.691C247.408 280.007 246.857 279.425 246.194 278.995L245.683 278.693L246.194 278.988C247.441 279.723 247.441 280.9 246.18 281.628Z" fill="#34A98F"/>
<path d="M248.457 313.025V304.57C243.21 307.61 238.958 314.979 238.958 321.046C238.955 321.085 238.955 321.125 238.958 321.165L246.447 316.815C247.039 316.369 247.526 315.798 247.873 315.143C248.22 314.488 248.42 313.765 248.457 313.025Z" fill="#34A98F"/>
<path d="M172.614 359.433C172.614 353.395 168.341 350.95 163.101 353.976V364.162C163.89 364.176 164.669 363.988 165.364 363.615L172.614 359.433Z" fill="#34A98F"/>
<g opacity="0.15">
<path d="M173.889 323.35C173.097 329.935 168.719 335.735 163.087 339.672V328.828C163.876 328.843 164.655 328.655 165.35 328.282L173.889 323.35Z" fill="#333333"/>
<path d="M246.18 281.628L238.958 285.789C238.958 291.828 243.224 293.558 248.471 290.539V282.931C248.428 282.142 248.199 281.375 247.804 280.691C247.408 280.007 246.857 279.425 246.194 278.995L245.683 278.693L246.194 278.988C247.441 279.723 247.441 280.9 246.18 281.628Z" fill="#333333"/>
<path d="M248.457 313.025V304.57C243.21 307.61 238.958 314.979 238.958 321.046C238.955 321.085 238.955 321.125 238.958 321.165L246.447 316.815C247.039 316.369 247.526 315.798 247.873 315.143C248.22 314.488 248.42 313.765 248.457 313.025Z" fill="#333333"/>
<path d="M172.614 359.433C172.614 353.395 168.341 350.95 163.101 353.976V364.162C163.89 364.176 164.669 363.988 165.364 363.615L172.614 359.433Z" fill="#333333"/>
</g>
<path d="M163.101 328.828V339.672C157.455 335.707 153.091 329.921 152.299 323.35L160.838 328.254C161.531 328.637 162.31 328.834 163.101 328.828Z" fill="#34A98F"/>
<path d="M153.574 359.433L160.831 363.636C161.526 364.009 162.306 364.197 163.094 364.183V353.976C157.854 350.95 153.574 353.395 153.574 359.433Z" fill="#34A98F"/>
<path d="M101.478 318.37L101.205 318.23V326.587C101.248 327.321 101.45 328.037 101.797 328.685C102.144 329.333 102.628 329.898 103.215 330.341L110.998 334.867C110.998 328.786 106.732 321.382 101.478 318.37Z" fill="#34A98F"/>
<path d="M103.495 295.155L110.717 299.316C110.717 305.354 106.451 307.799 101.205 304.773V296.458C101.254 295.668 101.488 294.901 101.888 294.218C102.288 293.535 102.844 292.957 103.509 292.528C102.255 293.25 102.241 294.427 103.495 295.155Z" fill="#34A98F"/>
<g opacity="0.3">
<path d="M163.101 328.828V339.672C157.455 335.707 153.091 329.921 152.299 323.35L160.838 328.254C161.531 328.637 162.31 328.834 163.101 328.828Z" fill="#333333"/>
<path d="M153.574 359.433L160.831 363.636C161.526 364.009 162.306 364.197 163.094 364.183V353.976C157.854 350.95 153.574 353.395 153.574 359.433Z" fill="#333333"/>
<path d="M101.478 318.37L101.205 318.23V326.587C101.248 327.321 101.45 328.037 101.797 328.685C102.144 329.333 102.628 329.898 103.215 330.341L110.998 334.867C110.998 328.786 106.732 321.382 101.478 318.37Z" fill="#333333"/>
<path d="M103.495 295.155L110.717 299.316C110.717 305.354 106.451 307.799 101.205 304.773V296.458C101.254 295.668 101.488 294.901 101.888 294.218C102.288 293.535 102.844 292.957 103.509 292.528C102.255 293.25 102.241 294.427 103.495 295.155Z" fill="#333333"/>
</g>
<path d="M185.258 329.129L180.782 331.714C180.605 331.829 180.458 331.984 180.352 332.167C180.246 332.349 180.184 332.554 180.172 332.765V341.22C180.183 341.431 180.243 341.637 180.349 341.819C180.455 342.002 180.604 342.157 180.782 342.271L181.181 342.509C181.371 342.601 181.579 342.649 181.791 342.649C182.002 342.649 182.21 342.601 182.4 342.509L186.876 339.924C187.052 339.809 187.198 339.653 187.303 339.471C187.408 339.288 187.468 339.084 187.479 338.873V330.418C187.47 330.208 187.41 330.002 187.305 329.82C187.201 329.637 187.053 329.482 186.876 329.368L186.47 329.129C186.281 329.039 186.074 328.992 185.864 328.992C185.654 328.992 185.447 329.039 185.258 329.129Z" fill="#34A98F"/>
<path opacity="0.3" d="M185.258 329.129L180.782 331.714C180.605 331.829 180.458 331.984 180.352 332.167C180.246 332.349 180.184 332.554 180.172 332.765V341.22C180.183 341.431 180.243 341.637 180.349 341.819C180.455 342.002 180.604 342.157 180.782 342.271L181.181 342.509C181.371 342.601 181.579 342.649 181.791 342.649C182.002 342.649 182.21 342.601 182.4 342.509L186.876 339.924C187.052 339.809 187.198 339.653 187.303 339.471C187.408 339.288 187.468 339.084 187.479 338.873V330.418C187.47 330.208 187.41 330.002 187.305 329.82C187.201 329.637 187.053 329.482 186.876 329.368L186.47 329.129C186.281 329.039 186.074 328.992 185.864 328.992C185.654 328.992 185.447 329.039 185.258 329.129Z" fill="#333333"/>
<path opacity="0.1" d="M182.295 342.572C182.121 342.637 181.937 342.665 181.752 342.654C181.567 342.643 181.387 342.594 181.223 342.509L180.816 342.278C180.64 342.163 180.492 342.008 180.386 341.825C180.281 341.643 180.219 341.438 180.207 341.227V332.772C180.217 332.554 180.282 332.342 180.396 332.156L182.007 333.101C181.895 333.283 181.832 333.49 181.825 333.704V342.159C181.79 342.495 181.986 342.656 182.295 342.572Z" fill="#333333"/>
<path d="M181.79 333.704V342.159C181.79 342.544 182.064 342.698 182.4 342.509L186.876 339.924C187.052 339.809 187.198 339.653 187.303 339.471C187.408 339.288 187.468 339.084 187.478 338.873V330.418C187.478 330.026 187.212 329.872 186.876 330.068L182.4 332.653C182.222 332.767 182.074 332.922 181.968 333.104C181.861 333.287 181.801 333.493 181.79 333.704Z" fill="#34A98F"/>
<path opacity="0.2" d="M181.79 333.704V342.159C181.79 342.544 182.064 342.698 182.4 342.509L186.876 339.924C187.052 339.809 187.198 339.653 187.303 339.471C187.408 339.288 187.468 339.084 187.478 338.873V330.418C187.478 330.026 187.212 329.872 186.876 330.068L182.4 332.653C182.222 332.767 182.074 332.922 181.968 333.104C181.861 333.287 181.801 333.493 181.79 333.704Z" fill="#333333"/>
<path d="M230.783 302.84L226.307 305.424C226.13 305.54 225.983 305.695 225.877 305.877C225.771 306.06 225.71 306.265 225.698 306.475V314.937C225.71 315.148 225.771 315.353 225.877 315.535C225.983 315.718 226.13 315.873 226.307 315.988L226.714 316.219C226.901 316.316 227.109 316.366 227.319 316.366C227.53 316.366 227.738 316.316 227.925 316.219L232.402 313.634C232.579 313.519 232.726 313.364 232.832 313.182C232.938 312.999 232.999 312.794 233.011 312.584V304.129C233 303.918 232.938 303.713 232.832 303.53C232.727 303.347 232.579 303.192 232.402 303.078L231.995 302.84C231.806 302.749 231.599 302.702 231.389 302.702C231.18 302.702 230.973 302.749 230.783 302.84Z" fill="#34A98F"/>
<path opacity="0.3" d="M230.783 302.84L226.307 305.424C226.13 305.54 225.983 305.695 225.877 305.877C225.771 306.06 225.71 306.265 225.698 306.475V314.937C225.71 315.148 225.771 315.353 225.877 315.535C225.983 315.718 226.13 315.873 226.307 315.988L226.714 316.219C226.901 316.316 227.109 316.366 227.319 316.366C227.53 316.366 227.738 316.316 227.925 316.219L232.402 313.634C232.579 313.519 232.726 313.364 232.832 313.182C232.938 312.999 232.999 312.794 233.011 312.584V304.129C233 303.918 232.938 303.713 232.832 303.53C232.727 303.347 232.579 303.192 232.402 303.078L231.995 302.84C231.806 302.749 231.599 302.702 231.389 302.702C231.18 302.702 230.973 302.749 230.783 302.84Z" fill="#333333"/>
<path opacity="0.1" d="M227.785 316.282C227.612 316.347 227.427 316.375 227.243 316.364C227.058 316.353 226.878 316.304 226.714 316.219L226.307 315.988C226.131 315.873 225.985 315.717 225.88 315.535C225.776 315.352 225.716 315.147 225.705 314.937V306.482C225.706 306.269 225.767 306.061 225.88 305.88L227.498 306.812C227.388 306.991 227.328 307.196 227.323 307.407V315.862C227.323 316.205 227.519 316.366 227.785 316.282Z" fill="#333333"/>
<path d="M227.316 307.414V315.869C227.316 316.254 227.589 316.415 227.925 316.219L232.402 313.634C232.578 313.519 232.726 313.364 232.832 313.182C232.937 312.999 232.999 312.794 233.011 312.584V304.129C233.011 303.743 232.738 303.582 232.402 303.778L227.925 306.363C227.748 306.478 227.6 306.633 227.494 306.815C227.389 306.998 227.327 307.203 227.316 307.414Z" fill="#34A98F"/>
<path opacity="0.2" d="M227.316 307.414V315.869C227.316 316.254 227.589 316.415 227.925 316.219L232.402 313.634C232.578 313.519 232.726 313.364 232.832 313.182C232.937 312.999 232.999 312.794 233.011 312.584V304.129C233.011 303.743 232.738 303.582 232.402 303.778L227.925 306.363C227.748 306.478 227.6 306.633 227.494 306.815C227.389 306.998 227.327 307.203 227.316 307.414Z" fill="#333333"/>
<path d="M198.273 333.164V336.583C198.268 336.723 198.229 336.86 198.16 336.982C198.09 337.104 197.992 337.208 197.874 337.283L193.027 340.085C192.901 340.148 192.764 340.18 192.624 340.18C192.484 340.18 192.346 340.148 192.221 340.085L191.955 339.931C191.837 339.855 191.739 339.752 191.67 339.63C191.6 339.508 191.561 339.371 191.555 339.231V335.805C191.563 335.665 191.603 335.529 191.672 335.408C191.741 335.286 191.838 335.182 191.955 335.105L196.802 332.303C196.927 332.24 197.065 332.208 197.205 332.208C197.345 332.208 197.483 332.24 197.608 332.303L197.874 332.457C197.992 332.535 198.09 332.639 198.159 332.762C198.229 332.885 198.268 333.023 198.273 333.164Z" fill="#263238"/>
<path d="M197.874 337.318L193.026 340.12C192.802 340.246 192.627 340.12 192.627 339.889V336.464C192.633 336.323 192.672 336.187 192.741 336.065C192.811 335.943 192.909 335.839 193.026 335.763L197.874 332.961C198.098 332.835 198.273 332.961 198.273 333.199V336.618C198.268 336.758 198.229 336.895 198.16 337.017C198.09 337.139 197.992 337.243 197.874 337.318Z" fill="#37474F"/>
<path d="M222.854 318.979V322.398C222.846 322.537 222.805 322.673 222.736 322.795C222.667 322.916 222.57 323.02 222.455 323.098L217.607 325.9C217.482 325.963 217.344 325.995 217.204 325.995C217.065 325.995 216.927 325.963 216.802 325.9L216.535 325.746C216.418 325.67 216.32 325.566 216.25 325.445C216.181 325.323 216.142 325.186 216.136 325.046V321.62C216.142 321.48 216.181 321.343 216.25 321.221C216.32 321.099 216.418 320.996 216.535 320.92L221.383 318.118C221.506 318.052 221.643 318.018 221.782 318.018C221.921 318.018 222.059 318.052 222.181 318.118L222.455 318.272C222.573 318.349 222.671 318.454 222.74 318.577C222.81 318.7 222.849 318.838 222.854 318.979Z" fill="#263238"/>
<path d="M222.455 323.14L217.607 325.942C217.383 326.068 217.201 325.942 217.201 325.711V322.293C217.208 322.153 217.247 322.016 217.317 321.894C217.386 321.773 217.483 321.669 217.6 321.592L222.448 318.79C222.665 318.657 222.847 318.79 222.847 319.021V322.44C222.839 322.579 222.8 322.714 222.732 322.835C222.664 322.957 222.569 323.061 222.455 323.14Z" fill="#37474F"/>
<path d="M221.439 321.382L218.574 323.035L220.171 323.96L218.581 323.042V324.443L220.171 325.361V326.986C220.135 327.617 219.952 328.232 219.636 328.779C219.319 329.327 218.879 329.792 218.349 330.138L200.136 340.646C199.985 340.732 199.822 340.798 199.653 340.842C199.607 340.678 199.583 340.508 199.583 340.337V337.255L198.315 336.52L196.739 335.609L193.888 337.248V338.649L195.478 339.567V342.369C195.458 342.667 195.511 342.965 195.633 343.237C195.756 343.51 195.943 343.748 196.179 343.931C196.424 344.12 197.39 344.632 197.58 344.772C198.637 345.409 200.578 345.122 202.798 343.833L218.209 334.923C221.565 332.989 224.276 329.529 224.276 327.217V323.014L221.439 321.382Z" fill="#34A98F"/>
<path opacity="0.4" d="M221.439 321.382L218.574 323.035L220.171 323.96L218.581 323.042V324.443L220.171 325.361V326.986C220.135 327.617 219.952 328.232 219.636 328.779C219.319 329.327 218.879 329.792 218.349 330.138L200.136 340.646C199.985 340.732 199.822 340.798 199.653 340.842C199.607 340.678 199.583 340.508 199.583 340.337V337.255L198.315 336.52L196.739 335.609L193.888 337.248V338.649L195.478 339.567V342.369C195.458 342.667 195.511 342.965 195.633 343.237C195.756 343.51 195.943 343.748 196.179 343.931C196.424 344.12 197.39 344.632 197.58 344.772C198.637 345.409 200.578 345.122 202.798 343.833L218.209 334.923C221.565 332.989 224.276 329.529 224.276 327.217V323.014L221.439 321.382Z" fill="#333333"/>
<path d="M196.718 343.189C196.718 345.521 199.436 345.85 202.784 343.889L218.195 334.979C221.544 333.045 224.262 329.585 224.262 327.273V323.07L221.46 321.417L218.595 323.07L221.46 324.73V327.791C221.426 328.423 221.243 329.038 220.926 329.586C220.61 330.133 220.169 330.599 219.638 330.944L201.425 341.451C200.424 342.033 199.604 341.563 199.604 340.408V337.325L196.753 335.672L193.902 337.311L196.76 338.965L196.718 343.189Z" fill="#34A98F"/>
<path opacity="0.2" d="M196.718 343.189C196.718 345.521 199.436 345.85 202.784 343.889L218.195 334.979C221.544 333.045 224.262 329.585 224.262 327.273V323.07L221.46 321.417L218.595 323.07L221.46 324.73V327.791C221.426 328.423 221.243 329.038 220.926 329.586C220.61 330.133 220.169 330.599 219.638 330.944L201.425 341.451C200.424 342.033 199.604 341.563 199.604 340.408V337.325L196.753 335.672L193.902 337.311L196.76 338.965L196.718 343.189Z" fill="#333333"/>
<path d="M221.439 321.382L218.581 323.042L221.439 324.695L224.262 323.035L221.439 321.382Z" fill="#34A98F"/>
<path opacity="0.3" d="M221.439 321.382L218.581 323.042L221.439 324.695L224.262 323.035L221.439 321.382Z" fill="#333333"/>
<path d="M196.711 335.665L193.86 337.304L196.718 338.958L199.562 337.318L196.711 335.665Z" fill="#34A98F"/>
<path opacity="0.3" d="M196.711 335.665L193.86 337.304L196.718 338.958L199.562 337.318L196.711 335.665Z" fill="#333333"/>
</svg>
