<svg width="94" height="111" viewBox="0 0 94 111" fill="none" xmlns="http://www.w3.org/2000/svg">
<g clip-path="url(#clip0_5491_3342)">
<path d="M6.87015 35.9531C4.95763 35.9531 3.33492 36.6201 2.00104 37.954C0.667146 39.2878 0 40.8885 0 42.7566V71.4403C0 73.3552 0.666945 74.9765 2.00104 76.3106C3.33492 77.6445 4.95763 78.3116 6.87015 78.3116C8.78127 78.3116 10.3941 77.6447 11.7074 76.3106C13.018 74.9767 13.6751 73.3552 13.6751 71.4403V42.7566C13.6751 40.8883 13.0081 39.2878 11.674 37.954C10.34 36.6201 8.73832 35.9531 6.87015 35.9531Z" fill="#E9E9E9"/>
<path d="M62.1041 10.2052L66.8404 1.46812C67.1513 0.889683 67.0407 0.446124 66.5076 0.134228C65.929 -0.134718 65.4844 0.00156107 65.1737 0.533431L60.3712 9.34039C56.1454 7.47203 51.6759 6.53614 46.9627 6.53614C42.2485 6.53614 37.7786 7.47223 33.5544 9.34039L28.7517 0.533431C28.4396 0.00156107 27.995 -0.133514 27.4178 0.134228C26.8835 0.447529 26.7729 0.889683 27.085 1.46812L31.8215 10.2052C27.0188 12.6544 23.1937 16.0654 20.3477 20.4456C17.5017 24.8282 16.0781 29.6175 16.0781 34.8218H77.7803C77.7803 29.6187 76.3564 24.8293 73.5106 20.4456C70.6644 16.0654 66.8615 12.6544 62.1041 10.2052ZM34.7213 22.9135C34.2091 23.4269 33.5973 23.6824 32.8862 23.6824C32.1737 23.6824 31.5744 23.4269 31.0855 22.9135C30.5966 22.4025 30.3521 21.7932 30.3521 21.0797C30.3521 20.3686 30.5966 19.758 31.0855 19.2458C31.5744 18.7348 32.1751 18.4793 32.8862 18.4793C33.5973 18.4793 34.2091 18.7348 34.7213 19.2458C35.2323 19.7592 35.489 20.3686 35.489 21.0797C35.4876 21.792 35.2311 22.4025 34.7213 22.9135ZM62.8373 22.9135C62.3474 23.4269 61.7467 23.6824 61.0368 23.6824C60.3241 23.6824 59.7125 23.4269 59.2013 22.9135C58.6893 22.4025 58.4338 21.7932 58.4338 21.0797C58.4338 20.3686 58.6893 19.758 59.2013 19.2458C59.7125 18.7348 60.3241 18.4793 61.0368 18.4793C61.7479 18.4793 62.3472 18.7348 62.8373 19.2458C63.3266 19.7592 63.5707 20.3686 63.5707 21.0797C63.5707 21.792 63.3264 22.4025 62.8373 22.9135Z" fill="#E9E9E9"/>
<path d="M16.3438 81.6457C16.3438 83.6933 17.0548 85.4266 18.4773 86.849C19.9009 88.2714 21.6341 88.9825 23.6803 88.9825H28.6169L28.6845 104.127C28.6845 106.039 29.3515 107.663 30.6854 108.997C32.0193 110.331 33.6211 110.998 35.4881 110.998C37.3994 110.998 39.0231 110.331 40.3572 108.997C41.6913 107.663 42.3582 106.039 42.3582 104.127V88.9839H51.5634V104.127C51.5634 106.039 52.2301 107.663 53.5642 108.997C54.8983 110.331 56.5206 110.998 58.4333 110.998C60.3446 110.998 61.9684 110.331 63.3024 108.997C64.6365 107.663 65.3033 106.039 65.3033 104.127V88.9839H70.3065C72.3073 88.9839 74.0183 88.2726 75.4433 86.8502C76.8655 85.4278 77.577 83.6945 77.577 81.6472V37.2188H16.3438V81.6457Z" fill="#E9E9E9"/>
<path d="M87.0537 35.9531C85.1853 35.9531 83.5849 36.6102 82.2508 37.9208C80.9169 39.2339 80.25 40.8467 80.25 42.7566V71.4403C80.25 73.3552 80.9167 74.9765 82.2508 76.3106C83.5849 77.6447 85.1866 78.3116 87.0537 78.3116C88.965 78.3116 90.5887 77.6447 91.9228 76.3106C93.2569 74.9765 93.9237 73.3552 93.9237 71.4403V42.7566C93.9237 40.8465 93.2569 39.2339 91.9228 37.9208C90.5887 36.6102 88.965 35.9531 87.0537 35.9531Z" fill="#E9E9E9"/>
</g>
<defs>
<clipPath id="clip0_5491_3342">
<rect width="93.4975" height="111" fill="white"/>
</clipPath>
</defs>
</svg>
