<svg width="94" height="111" viewBox="0 0 94 111" fill="none" xmlns="http://www.w3.org/2000/svg">
<g clip-path="url(#clip0_5491_3410)">
<path d="M91.5379 86.5027C89.8593 90.3807 87.8723 93.9504 85.5702 97.2324C82.4321 101.706 79.8627 104.803 77.8826 106.523C74.8131 109.346 71.5243 110.792 68.0026 110.874C65.4743 110.874 62.4253 110.155 58.8762 108.695C55.3154 107.243 52.043 106.523 49.0509 106.523C45.9129 106.523 42.5473 107.243 38.9475 108.695C35.3421 110.155 32.4377 110.915 30.2171 110.99C26.8399 111.134 23.4737 109.648 20.1137 106.523C17.9691 104.653 15.2867 101.446 12.0733 96.9035C8.62553 92.0525 5.79101 86.4273 3.57039 80.0142C1.19219 73.0872 0 66.3794 0 59.8854C0 52.4466 1.6074 46.0307 4.82698 40.6542C7.35729 36.3356 10.7235 32.929 14.9366 30.4282C19.1497 27.9273 23.7019 26.6529 28.6042 26.5714C31.2867 26.5714 34.8043 27.4011 39.1756 29.0318C43.5347 30.668 46.3335 31.4977 47.5607 31.4977C48.4781 31.4977 51.5874 30.5275 56.8584 28.5933C61.8429 26.7995 66.0498 26.0568 69.4962 26.3494C78.835 27.1031 85.8511 30.7844 90.5171 37.4168C82.1649 42.4775 78.0334 49.5655 78.1156 58.6583C78.1909 65.7408 80.7603 71.6346 85.81 76.3143C88.0984 78.4863 90.6541 80.1649 93.4975 81.3571C92.8809 83.1454 92.23 84.8583 91.5379 86.5027ZM70.1197 2.22063C70.1197 7.7719 68.0916 12.9551 64.0492 17.7526C59.1708 23.4559 53.2702 26.7516 46.8714 26.2315C46.7899 25.5655 46.7426 24.8646 46.7426 24.1281C46.7426 18.7989 49.0626 13.0956 53.1825 8.43233C55.2393 6.07126 57.8553 4.10805 61.0276 2.54197C64.193 0.999254 67.1872 0.146099 70.0032 0C70.0855 0.742118 70.1197 1.48435 70.1197 2.22063Z" fill="#E9E9E9"/>
</g>
<defs>
<clipPath id="clip0_5491_3410">
<rect width="93.4975" height="111" fill="white"/>
</clipPath>
</defs>
</svg>
