<svg width="118" height="70" viewBox="0 0 118 70" fill="none" xmlns="http://www.w3.org/2000/svg">
<g clip-path="url(#clip0_6736_101917)">
<g filter="url(#filter0_d_6736_101917)">
<path d="M15.5909 34C24.2015 34 31.1818 27.2843 31.1818 19C31.1818 10.7157 24.2015 4 15.5909 4C6.98029 4 0 10.7157 0 19C0 27.2843 6.98029 34 15.5909 34Z" fill="#76D8C3"/>
<path d="M9.10772 23.6849C9.1467 23.8341 10.1194 27.3341 15.5909 27.3341C21.0633 27.3341 22.0352 23.8341 22.0742 23.6849C22.0969 23.597 22.0892 23.5043 22.0521 23.4209C22.0151 23.3376 21.9507 23.2682 21.8689 23.2233C21.7867 23.1785 21.6916 23.1606 21.5979 23.1722C21.5043 23.1838 21.417 23.2242 21.3492 23.2874C21.3327 23.3033 19.6567 24.8341 15.5909 24.8341C11.5252 24.8341 9.84829 23.3033 9.8327 23.2883C9.76564 23.2245 9.67886 23.1834 9.58543 23.1713C9.49201 23.1591 9.397 23.1765 9.31473 23.2208C9.23216 23.2656 9.16718 23.3354 9.12979 23.4192C9.09239 23.5031 9.08464 23.5964 9.10772 23.6849Z" fill="#333333"/>
<path d="M10.3942 18.1659C11.5901 18.1659 12.5596 16.86 12.5596 15.2492C12.5596 13.6384 11.5901 12.3325 10.3942 12.3325C9.19823 12.3325 8.22875 13.6384 8.22875 15.2492C8.22875 16.86 9.19823 18.1659 10.3942 18.1659Z" fill="#333333"/>
<path d="M20.7875 18.1659C21.9834 18.1659 22.9529 16.86 22.9529 15.2492C22.9529 13.6384 21.9834 12.3325 20.7875 12.3325C19.5915 12.3325 18.6221 13.6384 18.6221 15.2492C18.6221 16.86 19.5915 18.1659 20.7875 18.1659Z" fill="#333333"/>
</g>
<g filter="url(#filter1_f_6736_101917)">
<path d="M20.7875 75C26.5279 75 31.1814 70.5228 31.1814 65C31.1814 59.4772 26.5279 55 20.7875 55C15.0471 55 10.3936 59.4772 10.3936 65C10.3936 70.5228 15.0471 75 20.7875 75Z" fill="#76D8C3"/>
<path d="M16.4654 68.1233C16.4914 68.2227 17.1398 70.5561 20.7875 70.5561C24.4358 70.5561 25.0837 68.2227 25.1097 68.1233C25.1248 68.0646 25.1197 68.0028 25.095 67.9473C25.0703 67.8917 25.0274 67.8454 24.9728 67.8155C24.918 67.7857 24.8546 67.7737 24.7922 67.7815C24.7297 67.7892 24.6716 67.8161 24.6263 67.8583C24.6154 67.8688 23.498 68.8894 20.7875 68.8894C18.077 68.8894 16.9591 67.8688 16.9487 67.8588C16.904 67.8163 16.8461 67.789 16.7838 67.7808C16.7216 67.7727 16.6582 67.7843 16.6034 67.8138C16.5483 67.8438 16.505 67.8902 16.4801 67.9461C16.4551 68.002 16.45 68.0643 16.4654 68.1233Z" fill="#333333"/>
<path d="M17.323 64.4439C18.1203 64.4439 18.7666 63.5733 18.7666 62.4995C18.7666 61.4256 18.1203 60.555 17.323 60.555C16.5257 60.555 15.8794 61.4256 15.8794 62.4995C15.8794 63.5733 16.5257 64.4439 17.323 64.4439Z" fill="#333333"/>
<path d="M24.2519 64.4439C25.0491 64.4439 25.6955 63.5733 25.6955 62.4995C25.6955 61.4256 25.0491 60.555 24.2519 60.555C23.4546 60.555 22.8083 61.4256 22.8083 62.4995C22.8083 63.5733 23.4546 64.4439 24.2519 64.4439Z" fill="#333333"/>
</g>
<g filter="url(#filter2_d_6736_101917)">
<path d="M120.19 45.4137C124.676 55.5812 119.745 67.3225 109.177 71.6384C98.6102 75.9538 86.4052 71.2104 81.9193 61.0429C77.4339 50.8764 82.3653 39.1336 92.9322 34.8182C103.5 30.5023 115.705 35.2472 120.19 45.4137Z" fill="#FFD453"/>
<path d="M95.0472 58.0958C96.515 57.4964 96.9978 55.4077 96.1255 53.4307C95.2533 51.4537 93.3563 50.3369 91.8885 50.9363C90.4207 51.5357 89.9379 53.6244 90.8101 55.6014C91.6824 57.5785 93.5794 58.6952 95.0472 58.0958Z" fill="#333333"/>
<path d="M108.867 52.4519C110.335 51.8525 110.818 49.7638 109.945 47.7868C109.073 45.8098 107.176 44.693 105.708 45.2924C104.241 45.8919 103.758 47.9805 104.63 49.9575C105.502 51.9346 107.399 53.0513 108.867 52.4519Z" fill="#333333"/>
<path d="M112.106 58.3715L97.2232 64.4496C96.6363 64.6892 95.9584 64.4265 95.7088 63.8609C95.4593 63.2953 95.7338 62.6437 96.3207 62.404L111.204 56.326C111.792 56.0859 112.468 56.349 112.718 56.9146C112.968 57.4802 112.694 58.1314 112.106 58.3715Z" fill="#333333"/>
</g>
<g filter="url(#filter3_f_6736_101917)">
<path d="M99.7818 27.5C104.087 27.5 107.577 24.1421 107.577 20C107.577 15.8579 104.087 12.5 99.7818 12.5C95.4765 12.5 91.9863 15.8579 91.9863 20C91.9863 24.1421 95.4765 27.5 99.7818 27.5Z" fill="#EE9004"/>
<path d="M103.023 23.9079C103.004 23.8333 102.518 22.0833 99.7818 22.0833C97.0456 22.0833 96.5597 23.8333 96.5402 23.9079C96.5164 23.9983 96.5588 24.0921 96.6428 24.1387C96.7273 24.185 96.8329 24.1713 96.9027 24.1067C96.9109 24.0988 97.7489 23.3333 99.7818 23.3333C101.815 23.3333 102.653 24.0987 102.661 24.1062C102.702 24.1458 102.758 24.1667 102.813 24.1667C102.85 24.1667 102.887 24.1579 102.92 24.14C103.005 24.0933 103.047 23.9987 103.023 23.9079Z" fill="#333333"/>
<path d="M97.1833 19.5833C97.7813 19.5833 98.266 18.9304 98.266 18.125C98.266 17.3196 97.7813 16.6667 97.1833 16.6667C96.5853 16.6667 96.1006 17.3196 96.1006 18.125C96.1006 18.9304 96.5853 19.5833 97.1833 19.5833Z" fill="#333333"/>
<path d="M102.38 19.5833C102.978 19.5833 103.463 18.9304 103.463 18.125C103.463 17.3196 102.978 16.6667 102.38 16.6667C101.782 16.6667 101.298 17.3196 101.298 18.125C101.298 18.9304 101.782 19.5833 102.38 19.5833Z" fill="#333333"/>
</g>
<g filter="url(#filter4_d_6736_101917)">
<path d="M85.2303 34.5C85.2303 50.2399 71.9676 63 55.6076 63C39.2493 63 25.9849 50.2399 25.9849 34.5C25.9849 18.7617 39.2493 6 55.6076 6C71.9676 6 85.2303 18.7617 85.2303 34.5Z" fill="#34A969"/>
<path d="M44.9105 34.5C47.1827 34.5 49.0248 30.6011 49.0248 25.7917C49.0248 20.9822 47.1827 17.0833 44.9105 17.0833C42.6382 17.0833 40.7962 20.9822 40.7962 25.7917C40.7962 30.6011 42.6382 34.5 44.9105 34.5Z" fill="#333333"/>
<path d="M66.3047 34.5C68.5769 34.5 70.419 30.6011 70.419 25.7917C70.419 20.9822 68.5769 17.0833 66.3047 17.0833C64.0324 17.0833 62.1904 20.9822 62.1904 25.7917C62.1904 30.6011 64.0324 34.5 66.3047 34.5Z" fill="#333333"/>
<path d="M54.9724 42.4973C49.533 42.4973 45.9238 41.8877 41.4603 41.0528C40.4409 40.8636 38.4576 41.0528 38.4576 43.9417C38.4576 49.7195 45.3563 56.9417 54.9724 56.9417C64.587 56.9417 71.4872 49.7195 71.4872 43.9417C71.4872 41.0528 69.5039 40.8622 68.4845 41.0528C64.021 41.8877 60.4118 42.4973 54.9724 42.4973Z" fill="#333333"/>
<path d="M41.4603 43.9417C41.4603 43.9417 45.9643 45.3862 54.9724 45.3862C63.9805 45.3862 68.4845 43.9417 68.4845 43.9417C68.4845 43.9417 65.4818 49.7195 54.9724 49.7195C44.463 49.7195 41.4603 43.9417 41.4603 43.9417Z" fill="#FAFAFA"/>
</g>
</g>
<defs>
<filter id="filter0_d_6736_101917" x="-2" y="2" width="39.1816" height="38" filterUnits="userSpaceOnUse" color-interpolation-filters="sRGB">
<feFlood flood-opacity="0" result="BackgroundImageFix"/>
<feColorMatrix in="SourceAlpha" type="matrix" values="0 0 0 0 0 0 0 0 0 0 0 0 0 0 0 0 0 0 127 0" result="hardAlpha"/>
<feOffset dx="2" dy="2"/>
<feGaussianBlur stdDeviation="2"/>
<feComposite in2="hardAlpha" operator="out"/>
<feColorMatrix type="matrix" values="0 0 0 0 0 0 0 0 0 0 0 0 0 0 0 0 0 0 0.25 0"/>
<feBlend mode="normal" in2="BackgroundImageFix" result="effect1_dropShadow_6736_101917"/>
<feBlend mode="normal" in="SourceGraphic" in2="effect1_dropShadow_6736_101917" result="shape"/>
</filter>
<filter id="filter1_f_6736_101917" x="8.61578" y="53.2222" width="24.3436" height="23.5556" filterUnits="userSpaceOnUse" color-interpolation-filters="sRGB">
<feFlood flood-opacity="0" result="BackgroundImageFix"/>
<feBlend mode="normal" in="SourceGraphic" in2="BackgroundImageFix" result="shape"/>
<feGaussianBlur stdDeviation="0.888889" result="effect1_foregroundBlur_6736_101917"/>
</filter>
<filter id="filter2_d_6736_101917" x="78.2617" y="31.2234" width="49.5859" height="48.0098" filterUnits="userSpaceOnUse" color-interpolation-filters="sRGB">
<feFlood flood-opacity="0" result="BackgroundImageFix"/>
<feColorMatrix in="SourceAlpha" type="matrix" values="0 0 0 0 0 0 0 0 0 0 0 0 0 0 0 0 0 0 127 0" result="hardAlpha"/>
<feOffset dx="2" dy="2"/>
<feGaussianBlur stdDeviation="2"/>
<feComposite in2="hardAlpha" operator="out"/>
<feColorMatrix type="matrix" values="0 0 0 0 0 0 0 0 0 0 0 0 0 0 0 0 0 0 0.25 0"/>
<feBlend mode="normal" in2="BackgroundImageFix" result="effect1_dropShadow_6736_101917"/>
<feBlend mode="normal" in="SourceGraphic" in2="effect1_dropShadow_6736_101917" result="shape"/>
</filter>
<filter id="filter3_f_6736_101917" x="89.9863" y="10.5" width="19.5908" height="19" filterUnits="userSpaceOnUse" color-interpolation-filters="sRGB">
<feFlood flood-opacity="0" result="BackgroundImageFix"/>
<feBlend mode="normal" in="SourceGraphic" in2="BackgroundImageFix" result="shape"/>
<feGaussianBlur stdDeviation="1" result="effect1_foregroundBlur_6736_101917"/>
</filter>
<filter id="filter4_d_6736_101917" x="21.9849" y="2" width="75.2456" height="73" filterUnits="userSpaceOnUse" color-interpolation-filters="sRGB">
<feFlood flood-opacity="0" result="BackgroundImageFix"/>
<feColorMatrix in="SourceAlpha" type="matrix" values="0 0 0 0 0 0 0 0 0 0 0 0 0 0 0 0 0 0 127 0" result="hardAlpha"/>
<feOffset dx="4" dy="4"/>
<feGaussianBlur stdDeviation="4"/>
<feComposite in2="hardAlpha" operator="out"/>
<feColorMatrix type="matrix" values="0 0 0 0 0 0 0 0 0 0 0 0 0 0 0 0 0 0 0.25 0"/>
<feBlend mode="normal" in2="BackgroundImageFix" result="effect1_dropShadow_6736_101917"/>
<feBlend mode="normal" in="SourceGraphic" in2="effect1_dropShadow_6736_101917" result="shape"/>
</filter>
<clipPath id="clip0_6736_101917">
<rect width="118" height="70" fill="white"/>
</clipPath>
</defs>
</svg>
