<svg width="217" height="181" viewBox="0 0 217 181" fill="none" xmlns="http://www.w3.org/2000/svg">
<path d="M115.524 93.5562C115.524 95.0677 114.299 96.293 112.787 96.293H11.9578C10.4463 96.293 9.22103 95.0677 9.22103 93.5562V22.6876C9.22103 21.1761 10.4463 19.9508 11.9578 19.9508H112.787C114.299 19.9508 115.524 21.1761 115.524 22.6876V93.5562Z" fill="#C4C4C4" stroke="#C4C4C4" stroke-width="1.44042"/>
<path d="M115.524 171.339C115.524 172.85 114.299 174.076 112.787 174.076H11.9578C10.4463 174.076 9.22103 172.85 9.22103 171.339V100.47C9.22103 98.9588 10.4463 97.7335 11.9578 97.7335H112.787C114.299 97.7335 115.524 98.9588 115.524 100.47V171.339Z" fill="#E7E7E7" stroke="#C4C4C4" stroke-width="1.44042"/>
<rect x="17.7217" y="107.961" width="32.2654" height="32.2654" rx="3.457" fill="white"/>
<path d="M33.8529 125.954C37.9558 125.954 41.2791 122.631 41.2791 118.528C41.2791 114.425 37.9558 111.102 33.8529 111.102C29.7501 111.102 26.4268 114.425 26.4268 118.528C26.4268 122.631 29.7501 125.954 33.8529 125.954ZM33.8529 112.959C36.926 112.959 39.4225 115.455 39.4225 118.528C39.4225 121.601 36.926 124.098 33.8529 124.098C30.7798 124.098 28.2833 121.601 28.2833 118.528C28.2833 115.455 30.7798 112.959 33.8529 112.959Z" fill="#C4C4C4"/>
<path d="M45.9209 107.388H21.7859C19.2241 107.388 17.1445 109.467 17.1445 112.029V136.164C17.1445 138.726 19.2241 140.805 21.7859 140.805H45.9209C48.4827 140.805 50.5622 138.726 50.5622 136.164V112.029C50.5622 109.467 48.4827 107.388 45.9209 107.388ZM21.7859 109.244H45.9209C47.4565 109.244 48.7057 110.493 48.7057 112.029V133.138C40.1285 126 27.5783 126 19.0011 133.138V112.029C19.0011 110.493 20.2502 109.244 21.7859 109.244ZM45.9209 138.949H21.7859C20.2502 138.949 19.0011 137.7 19.0011 136.164V135.635C27.272 127.646 40.4348 127.646 48.7057 135.635V136.164C48.7057 137.7 47.4565 138.949 45.9209 138.949Z" fill="#C4C4C4"/>
<rect x="54.0186" y="109.69" width="53.0074" height="4.60934" rx="2.30467" fill="#C4C4C4"/>
<rect x="54.0186" y="121.788" width="53.0074" height="4.60934" rx="2.30467" fill="#C4C4C4"/>
<rect x="54.0186" y="133.887" width="53.0074" height="4.60934" rx="2.30467" fill="#C4C4C4"/>
<path fill-rule="evenodd" clip-rule="evenodd" d="M25.0421 148.461C25.2672 148.686 25.2672 149.051 25.0421 149.276L21.9926 152.326L25.0421 155.375C25.2672 155.6 25.2672 155.965 25.0421 156.19C24.8171 156.415 24.4523 156.415 24.2273 156.19L20.7703 152.733C20.5453 152.508 20.5453 152.143 20.7703 151.918L24.2273 148.461C24.4523 148.236 24.8171 148.236 25.0421 148.461Z" fill="black"/>
<path fill-rule="evenodd" clip-rule="evenodd" d="M25.0421 159.985C25.2672 160.21 25.2672 160.574 25.0421 160.799L21.9926 163.849L25.0421 166.899C25.2672 167.124 25.2672 167.488 25.0421 167.714C24.8171 167.939 24.4523 167.939 24.2273 167.714L20.7703 164.257C20.5453 164.031 20.5453 163.667 20.7703 163.442L24.2273 159.985C24.4523 159.76 24.8171 159.76 25.0421 159.985Z" fill="black"/>
<path fill-rule="evenodd" clip-rule="evenodd" d="M38.8683 148.461C39.0933 148.686 39.0933 149.051 38.8683 149.276L35.8187 152.326L38.8683 155.375C39.0933 155.6 39.0933 155.965 38.8683 156.19C38.6433 156.415 38.2785 156.415 38.0535 156.19L34.5965 152.733C34.3715 152.508 34.3715 152.143 34.5965 151.918L38.0535 148.461C38.2785 148.236 38.6433 148.236 38.8683 148.461Z" fill="black"/>
<path fill-rule="evenodd" clip-rule="evenodd" d="M38.8683 159.985C39.0933 160.21 39.0933 160.574 38.8683 160.799L35.8187 163.849L38.8683 166.899C39.0933 167.124 39.0933 167.488 38.8683 167.714C38.6433 167.939 38.2785 167.939 38.0535 167.714L34.5965 164.257C34.3715 164.031 34.3715 163.667 34.5965 163.442L38.0535 159.985C38.2785 159.76 38.6433 159.76 38.8683 159.985Z" fill="black"/>
<path fill-rule="evenodd" clip-rule="evenodd" d="M52.6984 148.461C52.9234 148.686 52.9234 149.051 52.6984 149.276L49.6488 152.326L52.6984 155.375C52.9234 155.6 52.9234 155.965 52.6984 156.19C52.4734 156.415 52.1086 156.415 51.8836 156.19L48.4266 152.733C48.2016 152.508 48.2016 152.143 48.4266 151.918L51.8836 148.461C52.1086 148.236 52.4734 148.236 52.6984 148.461Z" fill="black"/>
<path fill-rule="evenodd" clip-rule="evenodd" d="M52.6984 159.985C52.9234 160.21 52.9234 160.574 52.6984 160.799L49.6488 163.849L52.6984 166.899C52.9234 167.124 52.9234 167.488 52.6984 167.714C52.4734 167.939 52.1086 167.939 51.8836 167.714L48.4266 164.257C48.2016 164.031 48.2016 163.667 48.4266 163.442L51.8836 159.985C52.1086 159.76 52.4734 159.76 52.6984 159.985Z" fill="black"/>
<path fill-rule="evenodd" clip-rule="evenodd" d="M66.5246 148.461C66.7496 148.686 66.7496 149.051 66.5246 149.276L63.475 152.326L66.5246 155.375C66.7496 155.6 66.7496 155.965 66.5246 156.19C66.2996 156.415 65.9348 156.415 65.7097 156.19L62.2527 152.733C62.0277 152.508 62.0277 152.143 62.2527 151.918L65.7097 148.461C65.9348 148.236 66.2996 148.236 66.5246 148.461Z" fill="black"/>
<path fill-rule="evenodd" clip-rule="evenodd" d="M66.5246 159.985C66.7496 160.21 66.7496 160.574 66.5246 160.799L63.475 163.849L66.5246 166.899C66.7496 167.124 66.7496 167.488 66.5246 167.714C66.2996 167.939 65.9348 167.939 65.7097 167.714L62.2527 164.257C62.0277 164.031 62.0277 163.667 62.2527 163.442L65.7097 159.985C65.9348 159.76 66.2996 159.76 66.5246 159.985Z" fill="black"/>
<path fill-rule="evenodd" clip-rule="evenodd" d="M80.3546 148.461C80.5797 148.686 80.5797 149.051 80.3546 149.276L77.3051 152.326L80.3546 155.375C80.5797 155.6 80.5797 155.965 80.3546 156.19C80.1296 156.415 79.7648 156.415 79.5398 156.19L76.0828 152.733C75.8578 152.508 75.8578 152.143 76.0828 151.918L79.5398 148.461C79.7648 148.236 80.1296 148.236 80.3546 148.461Z" fill="black"/>
<path fill-rule="evenodd" clip-rule="evenodd" d="M80.3546 159.985C80.5797 160.21 80.5797 160.574 80.3546 160.799L77.3051 163.849L80.3546 166.899C80.5797 167.124 80.5797 167.488 80.3546 167.714C80.1296 167.939 79.7648 167.939 79.5398 167.714L76.0828 164.257C75.8578 164.031 75.8578 163.667 76.0828 163.442L79.5398 159.985C79.7648 159.76 80.1296 159.76 80.3546 159.985Z" fill="black"/>
<path fill-rule="evenodd" clip-rule="evenodd" d="M94.1808 148.461C94.4058 148.686 94.4058 149.051 94.1808 149.276L91.1312 152.326L94.1808 155.375C94.4058 155.6 94.4058 155.965 94.1808 156.19C93.9558 156.415 93.591 156.415 93.366 156.19L89.909 152.733C89.684 152.508 89.684 152.143 89.909 151.918L93.366 148.461C93.591 148.236 93.9558 148.236 94.1808 148.461Z" fill="black"/>
<path fill-rule="evenodd" clip-rule="evenodd" d="M94.1808 159.985C94.4058 160.21 94.4058 160.574 94.1808 160.799L91.1312 163.849L94.1808 166.899C94.4058 167.124 94.4058 167.488 94.1808 167.714C93.9558 167.939 93.591 167.939 93.366 167.714L89.909 164.257C89.684 164.031 89.684 163.667 89.909 163.442L93.366 159.985C93.591 159.76 93.9558 159.76 94.1808 159.985Z" fill="black"/>
<path fill-rule="evenodd" clip-rule="evenodd" d="M31.9552 148.461C32.1802 148.686 32.1802 149.051 31.9552 149.276L28.9056 152.326L31.9552 155.375C32.1802 155.6 32.1802 155.965 31.9552 156.19C31.7302 156.415 31.3654 156.415 31.1404 156.19L27.6834 152.733C27.4584 152.508 27.4584 152.143 27.6834 151.918L31.1404 148.461C31.3654 148.236 31.7302 148.236 31.9552 148.461Z" fill="black"/>
<path fill-rule="evenodd" clip-rule="evenodd" d="M31.9552 159.985C32.1802 160.21 32.1802 160.574 31.9552 160.799L28.9056 163.849L31.9552 166.899C32.1802 167.124 32.1802 167.488 31.9552 167.714C31.7302 167.939 31.3654 167.939 31.1404 167.714L27.6834 164.257C27.4584 164.031 27.4584 163.667 27.6834 163.442L31.1404 159.985C31.3654 159.76 31.7302 159.76 31.9552 159.985Z" fill="black"/>
<path fill-rule="evenodd" clip-rule="evenodd" d="M45.7853 148.461C46.0103 148.686 46.0103 149.051 45.7853 149.276L42.7357 152.326L45.7853 155.375C46.0103 155.6 46.0103 155.965 45.7853 156.19C45.5603 156.415 45.1955 156.415 44.9705 156.19L41.5135 152.733C41.2885 152.508 41.2885 152.143 41.5135 151.918L44.9705 148.461C45.1955 148.236 45.5603 148.236 45.7853 148.461Z" fill="black"/>
<path fill-rule="evenodd" clip-rule="evenodd" d="M45.7853 159.985C46.0103 160.21 46.0103 160.574 45.7853 160.799L42.7357 163.849L45.7853 166.899C46.0103 167.124 46.0103 167.488 45.7853 167.714C45.5603 167.939 45.1955 167.939 44.9705 167.714L41.5135 164.257C41.2885 164.031 41.2885 163.667 41.5135 163.442L44.9705 159.985C45.1955 159.76 45.5603 159.76 45.7853 159.985Z" fill="black"/>
<path fill-rule="evenodd" clip-rule="evenodd" d="M59.6115 148.461C59.8365 148.686 59.8365 149.051 59.6115 149.276L56.5619 152.326L59.6115 155.375C59.8365 155.6 59.8365 155.965 59.6115 156.19C59.3865 156.415 59.0217 156.415 58.7967 156.19L55.3397 152.733C55.1146 152.508 55.1146 152.143 55.3397 151.918L58.7967 148.461C59.0217 148.236 59.3865 148.236 59.6115 148.461Z" fill="black"/>
<path fill-rule="evenodd" clip-rule="evenodd" d="M59.6115 159.985C59.8365 160.21 59.8365 160.574 59.6115 160.799L56.5619 163.849L59.6115 166.899C59.8365 167.124 59.8365 167.488 59.6115 167.714C59.3865 167.939 59.0217 167.939 58.7967 167.714L55.3397 164.257C55.1146 164.031 55.1146 163.667 55.3397 163.442L58.7967 159.985C59.0217 159.76 59.3865 159.76 59.6115 159.985Z" fill="black"/>
<path fill-rule="evenodd" clip-rule="evenodd" d="M73.4416 148.461C73.6666 148.686 73.6666 149.051 73.4416 149.276L70.392 152.326L73.4416 155.375C73.6666 155.6 73.6666 155.965 73.4416 156.19C73.2166 156.415 72.8517 156.415 72.6267 156.19L69.1697 152.733C68.9447 152.508 68.9447 152.143 69.1697 151.918L72.6267 148.461C72.8517 148.236 73.2166 148.236 73.4416 148.461Z" fill="black"/>
<path fill-rule="evenodd" clip-rule="evenodd" d="M73.4416 159.985C73.6666 160.21 73.6666 160.574 73.4416 160.799L70.392 163.849L73.4416 166.899C73.6666 167.124 73.6666 167.488 73.4416 167.714C73.2166 167.939 72.8517 167.939 72.6267 167.714L69.1697 164.257C68.9447 164.031 68.9447 163.667 69.1697 163.442L72.6267 159.985C72.8517 159.76 73.2166 159.76 73.4416 159.985Z" fill="black"/>
<path fill-rule="evenodd" clip-rule="evenodd" d="M87.2677 148.461C87.4927 148.686 87.4927 149.051 87.2677 149.276L84.2181 152.326L87.2677 155.375C87.4927 155.6 87.4927 155.965 87.2677 156.19C87.0427 156.415 86.6779 156.415 86.4529 156.19L82.9959 152.733C82.7709 152.508 82.7709 152.143 82.9959 151.918L86.4529 148.461C86.6779 148.236 87.0427 148.236 87.2677 148.461Z" fill="black"/>
<path fill-rule="evenodd" clip-rule="evenodd" d="M87.2677 159.985C87.4927 160.21 87.4927 160.574 87.2677 160.799L84.2181 163.849L87.2677 166.899C87.4927 167.124 87.4927 167.488 87.2677 167.714C87.0427 167.939 86.6779 167.939 86.4529 167.714L82.9959 164.257C82.7709 164.031 82.7709 163.667 82.9959 163.442L86.4529 159.985C86.6779 159.76 87.0427 159.76 87.2677 159.985Z" fill="black"/>
<path fill-rule="evenodd" clip-rule="evenodd" d="M101.097 148.461C101.322 148.686 101.322 149.051 101.097 149.276L98.0472 152.326L101.097 155.375C101.322 155.6 101.322 155.965 101.097 156.19C100.872 156.415 100.507 156.415 100.282 156.19L96.825 152.733C96.6 152.508 96.6 152.143 96.825 151.918L100.282 148.461C100.507 148.236 100.872 148.236 101.097 148.461Z" fill="black"/>
<path fill-rule="evenodd" clip-rule="evenodd" d="M101.097 159.985C101.322 160.21 101.322 160.574 101.097 160.799L98.0472 163.849L101.097 166.899C101.322 167.124 101.322 167.488 101.097 167.714C100.872 167.939 100.507 167.939 100.282 167.714L96.825 164.257C96.6 164.031 96.6 163.667 96.825 163.442L100.282 159.985C100.507 159.76 100.872 159.76 101.097 159.985Z" fill="black"/>
<path d="M139.98 151.38L76.9322 46.4167L149.61 2.76151C151.103 1.86504 153.039 2.34819 153.936 3.84063L213.737 103.4C214.634 104.892 214.151 106.829 212.658 107.725L139.98 151.38Z" fill="#FAFAFA" stroke="#C4C4C4" stroke-width="1.65913"/>
<path d="M120.523 33.4383C114.394 37.1197 109.977 43.0873 108.246 50.0238C106.515 56.9603 107.612 64.3033 111.294 70.4327C114.975 76.5621 120.943 80.9788 127.879 82.7099C134.816 84.4404 142.159 83.3438 148.288 79.6621C154.417 75.9803 158.834 70.013 160.565 63.0765C162.296 56.14 161.199 48.7971 157.517 42.6676C153.83 36.5445 147.865 32.1318 140.929 30.4014C133.993 28.6709 126.654 29.7647 120.523 33.4383ZM146.152 76.1064C143.546 77.6722 138.27 75.2282 132.943 69.5253L146.55 61.352C149.079 68.7354 148.759 74.5406 146.152 76.1064ZM130.213 66.3261C127.673 63.0285 125.524 59.4503 123.806 55.6591L138.598 46.7742C139.864 48.424 141.037 50.1413 142.11 51.9222C143.179 53.7058 144.143 55.5486 145.005 57.4413L130.213 66.3261ZM114.849 68.2969C113.774 66.4871 112.953 64.5402 112.403 62.5082L120.226 57.8095C121.977 61.581 124.127 65.1592 126.633 68.4766L118.811 73.1753C117.275 71.736 115.942 70.0961 114.849 68.2969ZM122.659 36.9939C125.266 35.4282 130.541 37.8722 135.869 43.575L122.264 51.747C119.732 44.3649 120.052 38.5597 122.659 36.9939ZM142.178 44.6238L150 39.9251C153.104 42.8023 155.326 46.5002 156.408 50.5921L148.585 55.2908C147.715 53.4035 146.739 51.5674 145.666 49.7864C144.598 48.0028 143.435 46.2788 142.178 44.6238ZM146.467 37.209L139.52 41.3818C137.001 38.4314 133.974 35.9555 130.582 34.0736C136.081 33.1501 141.729 34.2664 146.464 37.2104L146.467 37.209ZM116.359 42.6167C116.427 46.4952 117.191 50.3301 118.612 53.9401L111.668 58.1116C111.302 52.549 112.969 47.0418 116.359 42.6167ZM122.347 75.8899L129.291 71.7185C131.81 74.6689 134.837 77.1449 138.229 79.0268C132.73 79.9409 127.086 78.8254 122.347 75.8899ZM152.452 70.4837C152.393 66.5998 151.639 62.7618 150.223 59.1455L157.168 54.9741C157.539 60.5455 155.862 66.0617 152.452 70.4837Z" fill="#C4C4C4"/>
<path d="M137.044 107.17L134.062 102.205L136.021 101.028C136.397 100.802 136.761 100.681 137.113 100.666C137.463 100.649 137.784 100.725 138.075 100.895C138.368 101.063 138.613 101.312 138.811 101.642C139.009 101.971 139.112 102.305 139.122 102.642C139.131 102.98 139.043 103.3 138.857 103.603C138.673 103.905 138.391 104.17 138.009 104.399L136.761 105.149L136.255 104.308L137.334 103.66C137.536 103.539 137.682 103.404 137.771 103.256C137.861 103.105 137.901 102.948 137.891 102.785C137.881 102.619 137.827 102.454 137.729 102.291C137.63 102.126 137.511 102.002 137.371 101.919C137.231 101.834 137.075 101.797 136.902 101.808C136.727 101.818 136.538 101.885 136.335 102.007L135.627 102.432L138.094 106.539L137.044 107.17ZM141.747 104.345L140.622 105.021L139.353 99.026L140.706 98.2134L145.4 102.15L144.275 102.826L140.731 99.7426L140.692 99.7659L141.747 104.345ZM140.504 102.435L143.161 100.839L143.653 101.659L140.996 103.255L140.504 102.435ZM146.453 96.7045C146.316 96.5206 146.142 96.4187 145.93 96.3987C145.718 96.3788 145.485 96.4445 145.233 96.596C145.062 96.6989 144.932 96.81 144.843 96.9294C144.753 97.0471 144.702 97.1669 144.689 97.2888C144.679 97.4098 144.705 97.5236 144.769 97.6303C144.819 97.7211 144.885 97.7875 144.965 97.8295C145.047 97.8705 145.138 97.8934 145.24 97.8982C145.341 97.9014 145.45 97.8921 145.567 97.8704C145.682 97.8471 145.802 97.815 145.925 97.7742L146.435 97.6129C146.68 97.5313 146.918 97.4766 147.148 97.4487C147.377 97.4207 147.594 97.426 147.797 97.4644C148 97.5027 148.186 97.5801 148.355 97.6964C148.526 97.8117 148.674 97.9724 148.8 98.1783C148.981 98.4831 149.061 98.7931 149.042 99.1084C149.023 99.4211 148.906 99.7252 148.693 100.021C148.479 100.314 148.171 100.582 147.767 100.824C147.366 101.065 146.98 101.214 146.609 101.269C146.239 101.324 145.899 101.281 145.588 101.14C145.277 100.997 145.011 100.749 144.788 100.397L145.804 99.7866C145.915 99.9462 146.046 100.057 146.197 100.118C146.349 100.176 146.513 100.191 146.689 100.162C146.866 100.131 147.045 100.06 147.226 99.9517C147.404 99.845 147.542 99.7264 147.642 99.596C147.744 99.4647 147.803 99.3311 147.821 99.1953C147.838 99.0595 147.811 98.9318 147.739 98.8122C147.672 98.7007 147.583 98.6269 147.471 98.5907C147.36 98.5536 147.226 98.5462 147.068 98.5686C146.912 98.59 146.73 98.6333 146.522 98.6983L145.9 98.8873C145.421 99.0369 144.994 99.0763 144.622 99.0053C144.249 98.9344 143.954 98.715 143.735 98.3471C143.553 98.0475 143.475 97.7368 143.502 97.415C143.53 97.0923 143.649 96.7825 143.857 96.4856C144.066 96.1887 144.351 95.9315 144.713 95.714C145.082 95.4927 145.441 95.3625 145.792 95.3235C146.144 95.2836 146.464 95.3298 146.753 95.4623C147.041 95.5947 147.277 95.8073 147.459 96.1002L146.453 96.7045ZM151.1 98.7264L149.975 99.4021L148.707 93.4075L150.06 92.595L154.754 96.5319L153.629 97.2076L150.084 94.1242L150.046 94.1475L151.1 98.7264ZM149.858 96.8171L152.515 95.2211L153.007 96.0405L150.35 97.6365L149.858 96.8171ZM155.351 96.173L152.369 91.2079L154.328 90.0313C154.704 89.8051 155.068 89.6843 155.42 89.669C155.77 89.652 156.091 89.7286 156.383 89.8989C156.675 90.0666 156.92 90.3152 157.118 90.6449C157.316 90.9747 157.42 91.3083 157.429 91.6459C157.438 91.9834 157.35 92.3036 157.164 92.6063C156.981 92.9081 156.698 93.1735 156.317 93.4026L155.068 94.1526L154.563 93.3113L155.642 92.6633C155.844 92.542 155.989 92.4072 156.078 92.2591C156.168 92.1084 156.208 91.9514 156.198 91.7881C156.188 91.6222 156.135 91.4577 156.037 91.2944C155.938 91.1296 155.818 91.0056 155.678 90.9226C155.539 90.837 155.382 90.8 155.209 90.8118C155.035 90.8219 154.846 90.8881 154.642 91.0104L153.934 91.4356L156.401 95.5424L155.351 96.173ZM162.843 88.2948C163.168 88.8363 163.342 89.3585 163.365 89.8616C163.39 90.3638 163.286 90.8209 163.054 91.2329C162.823 91.6424 162.488 91.9786 162.05 92.2417C161.609 92.5068 161.152 92.6444 160.681 92.6546C160.21 92.6649 159.759 92.5413 159.327 92.2838C158.895 92.0263 158.517 91.6277 158.193 91.0878C157.868 90.5464 157.693 90.0246 157.668 89.5225C157.644 89.0204 157.747 88.5646 157.979 88.1551C158.209 87.744 158.545 87.406 158.986 87.1409C159.424 86.8779 159.879 86.7412 160.35 86.7309C160.821 86.7181 161.273 86.8404 161.705 87.0979C162.138 87.3544 162.518 87.7534 162.843 88.2948ZM161.779 88.9341C161.568 88.5834 161.338 88.3192 161.088 88.1415C160.84 87.9628 160.584 87.868 160.32 87.8571C160.056 87.8463 159.797 87.917 159.544 88.0695C159.29 88.2219 159.106 88.4171 158.992 88.6551C158.877 88.8932 158.84 89.1641 158.879 89.4681C158.921 89.771 159.047 90.0978 159.257 90.4486C159.468 90.7993 159.697 91.064 159.945 91.2427C160.195 91.4204 160.452 91.5147 160.716 91.5255C160.98 91.5364 161.238 91.4656 161.492 91.3132C161.746 91.1608 161.93 90.9656 162.044 90.7275C162.159 90.4895 162.195 90.219 162.154 89.9161C162.114 89.6121 161.989 89.2848 161.779 88.9341ZM165.112 90.3103L162.129 85.3452L164.088 84.1686C164.463 83.9434 164.823 83.8183 165.169 83.7932C165.515 83.7655 165.831 83.832 166.117 83.9925C166.403 84.1505 166.645 84.3935 166.842 84.7216C167.04 85.0513 167.139 85.3777 167.14 85.7007C167.139 86.0221 167.042 86.3269 166.848 86.6151C166.655 86.9023 166.368 87.1605 165.987 87.3896L164.675 88.1774L164.168 87.3337L165.31 86.6479C165.511 86.5275 165.661 86.4 165.76 86.2655C165.86 86.1309 165.909 85.9893 165.907 85.8405C165.908 85.6908 165.859 85.5343 165.761 85.3711C165.662 85.2063 165.545 85.0872 165.411 85.0138C165.278 84.9395 165.127 84.9136 164.958 84.936C164.79 84.9558 164.604 85.0264 164.402 85.1477L163.695 85.5729L166.161 89.6797L165.112 90.3103ZM166.436 86.4402L169.027 87.9585L167.868 88.6545L165.304 87.1203L166.436 86.4402ZM166.94 83.6332L166.42 82.7678L170.498 80.3184L171.018 81.1839L169.498 82.0969L171.96 86.1965L170.923 86.8197L168.46 82.7202L166.94 83.6332ZM174.152 84.8801L171.17 79.915L174.515 77.9055L175.035 78.771L172.739 80.15L173.45 81.3331L175.574 80.0574L176.093 80.9229L173.97 82.1985L174.682 83.384L176.987 81.9992L177.507 82.8647L174.152 84.8801Z" fill="#C4C4C4"/>
<rect x="151.51" y="111.604" width="27.8733" height="13.273" rx="1.3273" transform="rotate(-30.9918 151.51 111.604)" fill="#C4C4C4"/>
<line x1="154.927" y1="117.293" x2="178.821" y2="102.941" stroke="#FAFAFA" stroke-width="1.3273"/>
<circle cx="166.874" cy="110.116" r="2.6546" transform="rotate(-30.9918 166.874 110.116)" fill="#C4C4C4" stroke="#FAFAFA" stroke-width="1.3273"/>
<rect x="2.00098" y="140.502" width="121" height="39" rx="3.74377" fill="#34A98F" fill-opacity="0.23" stroke="#34A98F" stroke-width="3" stroke-dasharray="6 3"/>
</svg>
