<svg width="255" height="86" viewBox="0 0 255 86" fill="none" xmlns="http://www.w3.org/2000/svg">
<path d="M232.016 74.1163C232.016 75.6235 230.794 76.8453 229.287 76.8453H128.745C127.238 76.8453 126.016 75.6235 126.016 74.1163V3.44931C126.016 1.94212 127.238 0.720299 128.745 0.720299H229.287C230.794 0.720299 232.016 1.94212 232.016 3.44931V74.1163Z" fill="#E7E7E7" stroke="#C4C4C4" stroke-width="1.43632"/>
<rect x="134.49" y="9.19336" width="53.4311" height="5.17076" rx="2.58538" fill="#C4C4C4"/>
<rect x="134.49" y="22.9819" width="53.4311" height="5.17076" rx="2.58538" fill="#C4C4C4"/>
<rect x="134.49" y="36.77" width="53.4311" height="5.17076" rx="2.58538" fill="#C4C4C4"/>
<path fill-rule="evenodd" clip-rule="evenodd" d="M139.494 49.5794C139.719 49.8038 139.719 50.1675 139.494 50.3919L136.453 53.4328L139.494 56.4738C139.719 56.6981 139.719 57.0619 139.494 57.2863C139.27 57.5106 138.906 57.5106 138.682 57.2863L135.235 53.8391C135.01 53.6147 135.01 53.2509 135.235 53.0266L138.682 49.5794C138.906 49.355 139.27 49.355 139.494 49.5794Z" fill="black"/>
<path fill-rule="evenodd" clip-rule="evenodd" d="M139.494 61.0696C139.719 61.294 139.719 61.6578 139.494 61.8821L136.453 64.9231L139.494 67.964C139.719 68.1884 139.719 68.5521 139.494 68.7765C139.27 69.0009 138.906 69.0009 138.682 68.7765L135.235 65.3293C135.01 65.105 135.01 64.7412 135.235 64.5168L138.682 61.0696C138.906 60.8453 139.27 60.8453 139.494 61.0696Z" fill="black"/>
<path fill-rule="evenodd" clip-rule="evenodd" d="M153.282 49.5794C153.507 49.8038 153.507 50.1675 153.282 50.3919L150.242 53.4328L153.282 56.4738C153.507 56.6981 153.507 57.0619 153.282 57.2863C153.058 57.5106 152.694 57.5106 152.47 57.2863L149.023 53.8391C148.798 53.6147 148.798 53.2509 149.023 53.0266L152.47 49.5794C152.694 49.355 153.058 49.355 153.282 49.5794Z" fill="black"/>
<path fill-rule="evenodd" clip-rule="evenodd" d="M153.282 61.0696C153.507 61.294 153.507 61.6578 153.282 61.8821L150.242 64.9231L153.282 67.964C153.507 68.1884 153.507 68.5521 153.282 68.7765C153.058 69.0009 152.694 69.0009 152.47 68.7765L149.023 65.3293C148.798 65.105 148.798 64.7412 149.023 64.5168L152.47 61.0696C152.694 60.8453 153.058 60.8453 153.282 61.0696Z" fill="black"/>
<path fill-rule="evenodd" clip-rule="evenodd" d="M167.072 49.5794C167.296 49.8038 167.296 50.1675 167.072 50.3919L164.031 53.4328L167.072 56.4738C167.296 56.6981 167.296 57.0619 167.072 57.2863C166.847 57.5106 166.483 57.5106 166.259 57.2863L162.812 53.8391C162.587 53.6147 162.587 53.2509 162.812 53.0266L166.259 49.5794C166.483 49.355 166.847 49.355 167.072 49.5794Z" fill="black"/>
<path fill-rule="evenodd" clip-rule="evenodd" d="M167.072 61.0696C167.296 61.294 167.296 61.6578 167.072 61.8821L164.031 64.9231L167.072 67.964C167.296 68.1884 167.296 68.5521 167.072 68.7765C166.847 69.0009 166.483 69.0009 166.259 68.7765L162.812 65.3293C162.587 65.105 162.587 64.7412 162.812 64.5168L166.259 61.0696C166.483 60.8453 166.847 60.8453 167.072 61.0696Z" fill="black"/>
<path fill-rule="evenodd" clip-rule="evenodd" d="M180.86 49.5794C181.084 49.8038 181.084 50.1675 180.86 50.3919L177.819 53.4328L180.86 56.4738C181.084 56.6981 181.084 57.0619 180.86 57.2863C180.635 57.5106 180.271 57.5106 180.047 57.2863L176.6 53.8391C176.376 53.6147 176.376 53.2509 176.6 53.0266L180.047 49.5794C180.271 49.355 180.635 49.355 180.86 49.5794Z" fill="black"/>
<path fill-rule="evenodd" clip-rule="evenodd" d="M180.86 61.0696C181.084 61.294 181.084 61.6578 180.86 61.8821L177.819 64.9231L180.86 67.964C181.084 68.1884 181.084 68.5521 180.86 68.7765C180.635 69.0009 180.271 69.0009 180.047 68.7765L176.6 65.3293C176.376 65.105 176.376 64.7412 176.6 64.5168L180.047 61.0696C180.271 60.8453 180.635 60.8453 180.86 61.0696Z" fill="black"/>
<path fill-rule="evenodd" clip-rule="evenodd" d="M194.648 49.5794C194.872 49.8038 194.872 50.1675 194.648 50.3919L191.607 53.4328L194.648 56.4738C194.872 56.6981 194.872 57.0619 194.648 57.2863C194.423 57.5106 194.06 57.5106 193.835 57.2863L190.388 53.8391C190.164 53.6147 190.164 53.2509 190.388 53.0266L193.835 49.5794C194.06 49.355 194.423 49.355 194.648 49.5794Z" fill="black"/>
<path fill-rule="evenodd" clip-rule="evenodd" d="M194.648 61.0696C194.872 61.294 194.872 61.6578 194.648 61.8821L191.607 64.9231L194.648 67.964C194.872 68.1884 194.872 68.5521 194.648 68.7765C194.423 69.0009 194.06 69.0009 193.835 68.7765L190.388 65.3293C190.164 65.105 190.164 64.7412 190.388 64.5168L193.835 61.0696C194.06 60.8453 194.423 60.8453 194.648 61.0696Z" fill="black"/>
<path fill-rule="evenodd" clip-rule="evenodd" d="M208.436 49.5794C208.66 49.8038 208.66 50.1675 208.436 50.3919L205.395 53.4328L208.436 56.4738C208.66 56.6981 208.66 57.0619 208.436 57.2863C208.211 57.5106 207.848 57.5106 207.623 57.2863L204.176 53.8391C203.952 53.6147 203.952 53.2509 204.176 53.0266L207.623 49.5794C207.848 49.355 208.211 49.355 208.436 49.5794Z" fill="black"/>
<path fill-rule="evenodd" clip-rule="evenodd" d="M208.436 61.0696C208.66 61.294 208.66 61.6578 208.436 61.8821L205.395 64.9231L208.436 67.964C208.66 68.1884 208.66 68.5521 208.436 68.7765C208.211 69.0009 207.848 69.0009 207.623 68.7765L204.176 65.3293C203.952 65.105 203.952 64.7412 204.176 64.5168L207.623 61.0696C207.848 60.8453 208.211 60.8453 208.436 61.0696Z" fill="black"/>
<path fill-rule="evenodd" clip-rule="evenodd" d="M146.389 49.5794C146.613 49.8038 146.613 50.1675 146.389 50.3919L143.348 53.4328L146.389 56.4738C146.613 56.6981 146.613 57.0619 146.389 57.2863C146.165 57.5106 145.801 57.5106 145.576 57.2863L142.129 53.8391C141.905 53.6147 141.905 53.2509 142.129 53.0266L145.576 49.5794C145.801 49.355 146.165 49.355 146.389 49.5794Z" fill="black"/>
<path fill-rule="evenodd" clip-rule="evenodd" d="M146.389 61.0696C146.613 61.294 146.613 61.6578 146.389 61.8821L143.348 64.9231L146.389 67.964C146.613 68.1884 146.613 68.5521 146.389 68.7765C146.165 69.0009 145.801 69.0009 145.576 68.7765L142.129 65.3293C141.905 65.105 141.905 64.7412 142.129 64.5168L145.576 61.0696C145.801 60.8453 146.165 60.8453 146.389 61.0696Z" fill="black"/>
<path fill-rule="evenodd" clip-rule="evenodd" d="M160.177 49.5794C160.401 49.8038 160.401 50.1675 160.177 50.3919L157.136 53.4328L160.177 56.4738C160.401 56.6981 160.401 57.0619 160.177 57.2863C159.953 57.5106 159.589 57.5106 159.364 57.2863L155.917 53.8391C155.693 53.6147 155.693 53.2509 155.917 53.0266L159.364 49.5794C159.589 49.355 159.953 49.355 160.177 49.5794Z" fill="black"/>
<path fill-rule="evenodd" clip-rule="evenodd" d="M160.177 61.0696C160.401 61.294 160.401 61.6578 160.177 61.8821L157.136 64.9231L160.177 67.964C160.401 68.1884 160.401 68.5521 160.177 68.7765C159.953 69.0009 159.589 69.0009 159.364 68.7765L155.917 65.3293C155.693 65.105 155.693 64.7412 155.917 64.5168L159.364 61.0696C159.589 60.8453 159.953 60.8453 160.177 61.0696Z" fill="black"/>
<path fill-rule="evenodd" clip-rule="evenodd" d="M173.965 49.5794C174.189 49.8038 174.189 50.1675 173.965 50.3919L170.924 53.4328L173.965 56.4738C174.189 56.6981 174.189 57.0619 173.965 57.2863C173.741 57.5106 173.377 57.5106 173.153 57.2863L169.705 53.8391C169.481 53.6147 169.481 53.2509 169.705 53.0266L173.153 49.5794C173.377 49.355 173.741 49.355 173.965 49.5794Z" fill="black"/>
<path fill-rule="evenodd" clip-rule="evenodd" d="M173.965 61.0696C174.189 61.294 174.189 61.6578 173.965 61.8821L170.924 64.9231L173.965 67.964C174.189 68.1884 174.189 68.5521 173.965 68.7765C173.741 69.0009 173.377 69.0009 173.153 68.7765L169.705 65.3293C169.481 65.105 169.481 64.7412 169.705 64.5168L173.153 61.0696C173.377 60.8453 173.741 60.8453 173.965 61.0696Z" fill="black"/>
<path fill-rule="evenodd" clip-rule="evenodd" d="M187.757 49.5794C187.981 49.8038 187.981 50.1675 187.757 50.3919L184.716 53.4328L187.757 56.4738C187.981 56.6981 187.981 57.0619 187.757 57.2863C187.533 57.5106 187.169 57.5106 186.945 57.2863L183.497 53.8391C183.273 53.6147 183.273 53.2509 183.497 53.0266L186.945 49.5794C187.169 49.355 187.533 49.355 187.757 49.5794Z" fill="black"/>
<path fill-rule="evenodd" clip-rule="evenodd" d="M187.757 61.0696C187.981 61.294 187.981 61.6578 187.757 61.8821L184.716 64.9231L187.757 67.964C187.981 68.1884 187.981 68.5521 187.757 68.7765C187.533 69.0009 187.169 69.0009 186.945 68.7765L183.497 65.3293C183.273 65.105 183.273 64.7412 183.497 64.5168L186.945 61.0696C187.169 60.8453 187.533 60.8453 187.757 61.0696Z" fill="black"/>
<path fill-rule="evenodd" clip-rule="evenodd" d="M201.545 49.5794C201.77 49.8038 201.77 50.1675 201.545 50.3919L198.504 53.4328L201.545 56.4738C201.77 56.6981 201.77 57.0619 201.545 57.2863C201.321 57.5106 200.957 57.5106 200.733 57.2863L197.285 53.8391C197.061 53.6147 197.061 53.2509 197.285 53.0266L200.733 49.5794C200.957 49.355 201.321 49.355 201.545 49.5794Z" fill="black"/>
<path fill-rule="evenodd" clip-rule="evenodd" d="M201.545 61.0696C201.77 61.294 201.77 61.6578 201.545 61.8821L198.504 64.9231L201.545 67.964C201.77 68.1884 201.77 68.5521 201.545 68.7765C201.321 69.0009 200.957 69.0009 200.733 68.7765L197.285 65.3293C197.061 65.105 197.061 64.7412 197.285 64.5168L200.733 61.0696C200.957 60.8453 201.321 60.8453 201.545 61.0696Z" fill="black"/>
<path fill-rule="evenodd" clip-rule="evenodd" d="M215.333 49.5794C215.558 49.8038 215.558 50.1675 215.333 50.3919L212.292 53.4328L215.333 56.4738C215.558 56.6981 215.558 57.0619 215.333 57.2863C215.109 57.5106 214.745 57.5106 214.521 57.2863L211.074 53.8391C210.849 53.6147 210.849 53.2509 211.074 53.0266L214.521 49.5794C214.745 49.355 215.109 49.355 215.333 49.5794Z" fill="black"/>
<path fill-rule="evenodd" clip-rule="evenodd" d="M215.333 61.0696C215.558 61.294 215.558 61.6578 215.333 61.8821L212.292 64.9231L215.333 67.964C215.558 68.1884 215.558 68.5521 215.333 68.7765C215.109 69.0009 214.745 69.0009 214.521 68.7765L211.074 65.3293C210.849 65.105 210.849 64.7412 211.074 64.5168L214.521 61.0696C214.745 60.8453 215.109 60.8453 215.333 61.0696Z" fill="black"/>
<rect x="119.499" y="43.502" width="119" height="39" rx="3.74377" fill="#34A98F" fill-opacity="0.23" stroke="#34A98F" stroke-width="3" stroke-dasharray="6 3"/>
<path d="M222.495 75.4074C221.637 74.55 221.21 73.4283 221.21 72.304C221.21 71.181 221.639 70.058 222.495 69.2019C223.352 68.3445 224.474 67.9172 225.598 67.9172C226.721 67.9172 227.844 68.3459 228.7 69.2019L234.905 75.4072L247.51 62.8024C248.368 61.9449 249.489 61.5176 250.612 61.5176C251.735 61.5176 252.858 61.9463 253.714 62.8024C254.572 63.6598 255.001 64.7814 255.001 65.9044C255.001 67.0274 254.572 68.1504 253.716 69.0078L238.009 84.715C237.151 85.5724 236.03 85.9998 234.905 85.9998C233.782 85.9998 232.659 85.571 231.802 84.715L222.495 75.4074Z" fill="#34A98F"/>
<path d="M106.717 74.1163C106.717 75.6235 105.496 76.8453 103.988 76.8453H3.4459C1.93871 76.8453 0.716888 75.6235 0.716888 74.1163V3.44931C0.716888 1.94212 1.93871 0.720299 3.4459 0.720299H103.988C105.496 0.720299 106.717 1.94212 106.717 3.44931V74.1163Z" fill="#E7E7E7" stroke="#C4C4C4" stroke-width="1.43632"/>
<rect x="6.96191" y="12.7144" width="36.0566" height="36.0566" rx="3.86321" fill="white"/>
<path d="M24.9862 32.8187C29.5712 32.8187 33.285 29.1049 33.285 24.5199C33.285 19.935 29.5712 16.2212 24.9862 16.2212C20.4013 16.2212 16.6875 19.935 16.6875 24.5199C16.6875 29.1049 20.4013 32.8187 24.9862 32.8187ZM24.9862 18.2959C28.4204 18.2959 31.2103 21.0858 31.2103 24.5199C31.2103 27.9541 28.4204 30.744 24.9862 30.744C21.5521 30.744 18.7622 27.9541 18.7622 24.5199C18.7622 21.0858 21.5521 18.2959 24.9862 18.2959Z" fill="#C4C4C4"/>
<path d="M38.4721 12.0718L11.5012 12.0718C8.63836 12.0718 6.31445 14.3957 6.31445 17.2585L6.31445 44.2294C6.31445 47.0922 8.63836 49.4161 11.5012 49.4161H38.4721C41.3349 49.4161 43.6588 47.0922 43.6588 44.2294V17.2585C43.6588 14.3957 41.3349 12.0718 38.4721 12.0718ZM11.5012 14.1465L38.4721 14.1465C40.1882 14.1465 41.5841 15.5424 41.5841 17.2585V40.8477C31.9991 32.871 17.9742 32.871 8.38914 40.8477V17.2585C8.38914 15.5424 9.78509 14.1465 11.5012 14.1465ZM38.4721 47.3414H11.5012C9.78509 47.3414 8.38914 45.9455 8.38914 44.2294V43.6378C17.6319 34.711 32.3414 34.711 41.5841 43.6378V44.2294C41.5841 45.9455 40.1882 47.3414 38.4721 47.3414Z" fill="#C4C4C4"/>
<rect x="47.6865" y="14.3647" width="53.4311" height="5.17076" rx="2.58538" fill="#C4C4C4"/>
<rect x="47.6865" y="28.1533" width="53.4311" height="5.17076" rx="2.58538" fill="#C4C4C4"/>
<rect x="47.6865" y="41.9419" width="53.4311" height="5.17076" rx="2.58538" fill="#C4C4C4"/>
<path d="M50.2174 64.6147C49.6806 64.4114 48.9565 64.1945 48.123 64.3313C47.0611 64.5072 46.0656 65.0174 45.2848 65.7543C45.2048 65.4259 45.0798 65.1054 44.912 64.8083C44.7909 64.5913 44.586 64.2903 44.2171 64.1632C43.9575 64.0733 43.7115 64.1046 43.5515 64.1378C43.5105 64.1456 43.4695 64.1554 43.4285 64.1652C43.5729 63.7254 43.651 63.2621 43.61 62.7637C43.5515 62.062 43.2489 61.3973 42.757 60.8969C42.2378 60.3653 41.5819 60.0799 40.9027 59.988C40.768 59.3273 40.5533 58.737 40.2565 58.2093C39.9989 57.7499 39.6632 57.4899 39.5206 57.3805C37.9961 56.0767 35.9954 56.2917 35.3376 56.3641C32.8917 56.628 31.2228 58.2503 30.0047 59.4329C27.9707 61.4091 26.3935 63.8407 25.3161 66.6576C25.2009 66.9606 25.3512 67.2987 25.6538 67.416C25.9544 67.5314 26.294 67.3809 26.4111 67.0779C27.4281 64.4215 28.9116 62.1326 30.8206 60.2755C31.9781 59.1516 33.4187 57.752 35.4644 57.5311C35.9973 57.4725 37.6193 57.2966 38.7613 58.2739L38.8198 58.3208C38.9096 58.3893 39.0951 58.5339 39.2376 58.786C39.4425 59.1496 39.6006 59.5582 39.7099 60.0116C39.2122 60.0937 38.734 60.2657 38.324 60.5003C37.2153 61.1375 36.3057 62.2732 35.6205 63.876C35.3648 64.4741 35.2223 64.9863 35.1716 65.4906C35.0838 66.3643 35.0798 67.9144 36.0402 68.4597C36.2628 68.5868 36.5067 68.6415 36.7605 68.6415C37.8712 68.6415 39.1829 67.5645 39.8973 66.6028C40.7718 65.4261 40.9201 64.2729 41.0333 62.7736C41.0743 62.2204 41.0841 61.7025 41.0568 61.2157C41.3788 61.3057 41.6775 61.4679 41.9215 61.7181C42.2182 62.0211 42.4095 62.4374 42.4446 62.8616C42.511 63.6689 42.064 64.4449 41.5897 65.2658C41.2774 65.8073 40.9553 66.3663 40.7484 66.9801C40.6508 67.2713 40.7952 67.59 41.0783 67.7072C41.3613 67.8245 41.6893 67.7033 41.8259 67.4297C42.3002 66.4856 42.8819 65.4652 43.7798 65.2874C43.7994 65.2835 43.815 65.2815 43.8267 65.2795C43.8403 65.2971 43.8638 65.3304 43.893 65.3831C44.2268 65.9754 44.3108 66.7182 44.1214 67.3711C44.0355 67.6623 44.1878 67.9711 44.4708 68.0826C44.7539 68.192 45.074 68.0689 45.2087 67.7952C45.8021 66.5912 46.9908 65.7096 48.3143 65.4907C48.8686 65.4008 49.3566 65.5434 49.8036 65.7135C50.1062 65.8269 50.4439 65.6764 50.559 65.3734C50.6723 65.0685 50.52 64.73 50.2174 64.6147ZM39.864 62.6835C39.7625 64.0264 39.6435 64.9763 38.9564 65.9009C38.1443 66.9916 36.94 67.621 36.6159 67.4373C36.3993 67.3141 36.2353 66.5967 36.3368 65.6057C36.3602 65.3653 36.4247 64.9724 36.696 64.3352C37.2777 62.9708 38.0213 62.0228 38.9056 61.5165C39.1906 61.3523 39.5283 61.2311 39.8797 61.1706C39.9109 61.6358 39.905 62.1401 39.864 62.6835Z" fill="#C4C4C4"/>
<path d="M95.623 62.4237L102.662 69.4666L109.704 62.4237C112.459 59.6693 116.678 63.8139 113.884 66.6076L106.845 73.6461L113.884 80.689C116.634 83.4347 112.45 87.6186 109.704 84.8685L102.662 77.83L95.623 84.8685C92.873 87.6186 88.6934 83.4347 91.4391 80.689L98.482 73.6461L91.4391 66.6076C88.6934 63.8575 92.873 59.6736 95.623 62.4237Z" fill="#FF6666"/>
</svg>
