<svg width="213" height="179" viewBox="0 0 213 179" fill="none" xmlns="http://www.w3.org/2000/svg">
<g id="undraw_confirmed_f581 1" clip-path="url(#clip0_3863_148939)">
<path id="Ellipse 2158" d="M24.3228 135.077C16.9994 80.9989 43.0015 118.501 95.2943 56.183C147.587 -6.13475 178.359 24.3913 182.367 52.8127C185.497 75.0136 151.172 158.956 120.498 164.501C78.2255 172.142 31.6461 189.156 24.3228 135.077Z" fill="#D9D9D9" fill-opacity="0.2"/>
<path id="Vector" d="M133.45 153.838L134.736 178.528C134.736 178.528 80.3426 126.757 73.5661 111.61C66.7896 96.4622 79.5454 58.9922 79.5454 58.9922L107.847 74.5383L133.45 153.838Z" fill="#9F616A"/>
<path id="Vector_2" d="M50.0477 48.6289L41.6767 49.4261C41.6767 49.4261 37.2919 58.993 50.8449 59.7902L50.0477 48.6289Z" fill="#9F616A"/>
<path id="Vector_3" d="M50.0477 63.3789L41.6767 64.1761C41.6767 64.1761 37.2919 73.743 50.8449 74.5402L50.0477 63.3789Z" fill="#9F616A"/>
<path id="Vector_4" d="M50.0477 79.3203L41.6767 80.1175C41.6767 80.1175 37.2919 89.6844 50.8449 90.4816L50.0477 79.3203Z" fill="#9F616A"/>
<path id="Vector_5" d="M52.4383 95.2656L44.0674 96.0629C44.0674 96.0629 39.6826 105.63 53.2356 106.427L52.4383 95.2656Z" fill="#9F616A"/>
<path id="Vector_6" d="M45.9727 52.471H46.6078V35.0708C46.6078 33.7483 46.8683 32.4387 47.3744 31.2169C47.8805 29.995 48.6223 28.8848 49.5575 27.9497C50.4926 27.0145 51.6028 26.2727 52.8247 25.7666C54.0465 25.2605 55.3561 25 56.6786 25H93.5433C94.8658 25 96.1754 25.2605 97.3972 25.7666C98.6191 26.2727 99.7293 27.0145 100.664 27.9496C101.6 28.8848 102.341 29.995 102.848 31.2168C103.354 32.4387 103.614 33.7482 103.614 35.0707V130.53C103.614 131.852 103.354 133.162 102.848 134.384C102.341 135.605 101.6 136.716 100.664 137.651C99.7293 138.586 98.6191 139.328 97.3973 139.834C96.1754 140.34 94.8659 140.6 93.5433 140.6H56.6786C54.0077 140.601 51.4462 139.539 49.5575 137.651C47.6689 135.762 46.6078 133.201 46.6078 130.53V64.8568H45.9727V52.471Z" fill="#3F3D56"/>
<path id="Vector_7" d="M56.2707 27.6211H61.0828C60.8615 28.1636 60.777 28.7523 60.8368 29.3352C60.8966 29.918 61.0988 30.4773 61.4257 30.9636C61.7525 31.4499 62.1939 31.8484 62.711 32.1239C63.2281 32.3995 63.8051 32.5436 64.391 32.5436H85.5103C86.0963 32.5436 86.6732 32.3995 87.1903 32.1239C87.7074 31.8484 88.1488 31.4499 88.4757 30.9636C88.8025 30.4773 89.0047 29.918 89.0645 29.3352C89.1243 28.7523 89.0398 28.1636 88.8185 27.6211H93.313C95.3076 27.6211 97.2206 28.4135 98.631 29.8239C100.041 31.2343 100.834 33.1472 100.834 35.1418V130.461C100.834 131.448 100.639 132.426 100.261 133.339C99.8833 134.251 99.3293 135.08 98.631 135.779C97.9326 136.477 97.1035 137.031 96.1911 137.409C95.2786 137.787 94.3006 137.981 93.313 137.981H56.2707C55.2831 137.981 54.3051 137.787 53.3927 137.409C52.4802 137.031 51.6511 136.477 50.9528 135.779C50.2544 135.08 49.7004 134.251 49.3225 133.339C48.9445 132.426 48.75 131.448 48.75 130.461V35.1418C48.75 34.1542 48.9445 33.1762 49.3225 32.2638C49.7004 31.3513 50.2544 30.5222 50.9528 29.8239C51.6511 29.1255 52.4802 28.5715 53.3927 28.1936C54.3051 27.8156 55.2831 27.6211 56.2707 27.6211Z" fill="white"/>
<path id="Vector_8" d="M82.7279 54.3242H66.8555V58.1544H82.7279V54.3242Z" fill="#17B8A6"/>
<path id="Vector_9" d="M83.4853 70.7812H66.1016V74.6114H83.4853V70.7812Z" fill="#E5E5E5"/>
<path id="Vector_10" d="M94.1935 79.0078H55.3945V82.838H94.1935V79.0078Z" fill="#E5E5E5"/>
<path id="Vector_11" d="M94.1935 87.2383H55.3945V91.0685H94.1935V87.2383Z" fill="#E5E5E5"/>
<path id="Vector_12" d="M171.001 166.696L126.384 115.795L124.79 83.1079L108.048 55.2046L103.265 43.2461C103.265 43.2461 92.1033 44.4419 101.272 67.1632L105.058 79.321C101.645 86.6733 99.8764 94.6818 99.8764 102.788V130.647C99.8764 137.207 131.138 172.94 134.776 178.399L171.001 166.696Z" fill="#9F616A"/>
<path id="Vector_13" opacity="0.2" d="M104.575 57.5691L107.903 55.9334L107.79 55.7024L104.714 57.2139L100.072 45.043L99.832 45.1348L104.575 57.5691Z" fill="black"/>
<path id="Vector_14" opacity="0.2" d="M41.7217 49.3055L41.6328 49.5469L46.5633 51.3631L46.6522 51.1217L41.7217 49.3055Z" fill="black"/>
<path id="Vector_15" opacity="0.2" d="M41.7217 64.2196L41.6328 64.4609L46.5633 66.2772L46.6522 66.0358L41.7217 64.2196Z" fill="black"/>
<path id="Vector_16" opacity="0.2" d="M41.7217 80.1649L41.6328 80.4062L46.5633 82.2225L46.6522 81.9811L41.7217 80.1649Z" fill="black"/>
<path id="Vector_17" opacity="0.2" d="M44.3027 96.1197L44.1914 96.3516L46.5919 97.5037L46.7031 97.2719L44.3027 96.1197Z" fill="black"/>
<path id="Vector_18" d="M74.8136 124.123C80.954 124.123 85.9318 119.145 85.9318 113.005C85.9318 106.865 80.954 101.887 74.8136 101.887C68.6731 101.887 63.6953 106.865 63.6953 113.005C63.6953 119.145 68.6731 124.123 74.8136 124.123Z" fill="#17B8A6"/>
<path id="Vector_19" d="M73.7533 117.697L70.4258 113.419L72.3609 111.913L73.9364 113.939L79.2594 108.32L81.0394 110.007L73.7533 117.697Z" fill="white"/>
</g>
<defs>
<clipPath id="clip0_3863_148939">
<rect width="213" height="179" fill="white"/>
</clipPath>
</defs>
</svg>
