<svg width="16" height="14" viewBox="0 0 16 14" fill="none" xmlns="http://www.w3.org/2000/svg">
<path id="Vector" d="M4.98414 12.3481C4.98415 12.5947 4.88297 12.8312 4.7028 13.0058C4.52263 13.1804 4.27817 13.2788 4.02302 13.2795H1.33398V5.11814H4.02035C4.14692 5.11814 4.27225 5.14224 4.38918 5.18904C4.50611 5.23585 4.61236 5.30446 4.70186 5.39095C4.79135 5.47744 4.86234 5.58011 4.91078 5.69311C4.95922 5.80612 4.98414 5.92723 4.98414 6.04955V12.3481ZM4.98414 12.3481L7.42823 13.12C7.42823 13.12 8.03526 13.3438 10.301 13.2924C12.5667 13.2409 12.1407 13.2563 12.6971 13.2383C13.6423 13.2383 14.4384 12.2786 13.3388 11.5788M10.2078 5.90546C10.5435 4.89266 10.7229 3.83757 10.7403 2.7742C10.7403 1.13524 8.87658 1.30505 8.87658 1.30505C8.87658 1.30505 8.1178 5.06154 4.98947 6.13445M8.46391 5.91833H13.8979C13.8979 5.91833 14.6008 5.97751 14.6008 6.83944C14.6008 7.70137 13.9272 7.70395 13.9272 7.70395H12.5427M12.5427 9.62593H13.8979M13.8979 9.62593C13.8979 9.62593 14.6673 9.62593 14.6673 8.66108C14.6673 7.69623 13.8979 7.70395 13.8979 7.70395M13.8979 9.62593C13.8979 9.62593 14.6673 9.63622 14.6673 10.6011C14.6673 11.5659 13.8979 11.5659 13.8979 11.5659H12.5427" stroke="white" stroke-width="0.8"/>
</svg>
