<svg width="24" height="24" viewBox="0 0 24 24" fill="none" xmlns="http://www.w3.org/2000/svg">
<path d="M3.57871 13.743L2.52622 14.322C2.28449 14.4546 2.1081 14.673 2.03586 14.9292C1.96362 15.1854 2.00144 15.4583 2.14101 15.688L3.70711 18.266C3.84669 18.4957 4.07657 18.6633 4.34619 18.7319C4.61581 18.8005 4.90308 18.7646 5.14482 18.632L6.20994 18.05C6.52773 17.8758 6.88817 17.7841 7.25507 17.7841C7.62196 17.7841 7.9824 17.8758 8.30019 18.05L8.32124 18.061C8.64078 18.235 8.90636 18.486 9.09115 18.7887C9.27595 19.0914 9.37342 19.4351 9.37373 19.785V21C9.37373 21.2652 9.48462 21.5196 9.682 21.7071C9.87938 21.8946 10.1471 22 10.4262 22H13.5837C13.8628 22 14.1305 21.8946 14.3279 21.7071C14.5253 21.5196 14.6362 21.2652 14.6362 21V19.782C14.6361 19.433 14.7329 19.0901 14.9167 18.788C15.1006 18.4858 15.365 18.2351 15.6834 18.061L15.7055 18.049C16.0233 17.8748 16.3838 17.7831 16.7507 17.7831C17.1175 17.7831 17.478 17.8748 17.7958 18.049L18.8567 18.631C19.0984 18.7636 19.3857 18.7995 19.6553 18.7309C19.9249 18.6623 20.1548 18.4947 20.2944 18.265L21.8605 15.687C21.9293 15.5731 21.9737 15.4474 21.9914 15.3172C22.009 15.1869 21.9995 15.0546 21.9633 14.9279C21.9272 14.8011 21.8651 14.6824 21.7806 14.5784C21.6962 14.4745 21.591 14.3873 21.4711 14.322L20.4186 13.743C20.098 13.5679 19.8318 13.3153 19.647 13.011C19.4622 12.7067 19.3653 12.3614 19.3661 12.01V11.989C19.3651 11.6378 19.462 11.2925 19.6468 10.9883C19.8317 10.6841 20.0979 10.4318 20.4186 10.257L21.4711 9.678C21.7128 9.54539 21.8892 9.32697 21.9614 9.0708C22.0337 8.81463 21.9959 8.54168 21.8563 8.312L20.2881 5.734C20.1485 5.50433 19.9186 5.33674 19.649 5.2681C19.3794 5.19946 19.0921 5.2354 18.8504 5.368L17.7874 5.95C17.4696 6.12421 17.1091 6.21592 16.7422 6.21592C16.3753 6.21592 16.0149 6.12421 15.6971 5.95L15.6824 5.94C15.3628 5.766 15.0973 5.51498 14.9125 5.21229C14.7277 4.90959 14.6302 4.56593 14.6299 4.216V3C14.6299 2.73478 14.519 2.48043 14.3216 2.29289C14.1242 2.10536 13.8565 2 13.5774 2H10.4199C10.1408 2 9.87307 2.10536 9.67569 2.29289C9.4783 2.48043 9.36742 2.73478 9.36742 3V4.294C9.36696 4.61976 9.27626 4.93967 9.10444 5.22158C8.93263 5.50349 8.68574 5.73747 8.3886 5.9L8.22757 5.988C7.93102 6.15044 7.59474 6.23595 7.25243 6.23595C6.91013 6.23595 6.57385 6.15044 6.2773 5.988L5.14692 5.368C4.90519 5.2354 4.61791 5.19946 4.34829 5.2681C4.07867 5.33674 3.84879 5.50433 3.70922 5.734L2.14311 8.312C2.00337 8.54144 1.96523 8.8142 2.03707 9.07034C2.10891 9.32649 2.28485 9.54505 2.52622 9.678L3.57871 10.257C3.89929 10.4321 4.16546 10.6847 4.35029 10.989C4.53511 11.2933 4.63202 11.6386 4.6312 11.99V12.011C4.63216 12.3622 4.5353 12.7075 4.35045 13.0117C4.1656 13.3159 3.89935 13.5682 3.57871 13.743ZM11.9986 9C12.6231 9 13.2336 9.17595 13.7528 9.50559C14.2721 9.83523 14.6768 10.3038 14.9158 10.8519C15.1548 11.4001 15.2173 12.0033 15.0955 12.5853C14.9736 13.1672 14.6729 13.7018 14.2313 14.1213C13.7897 14.5409 13.2271 14.8266 12.6146 14.9424C12.0022 15.0581 11.3673 14.9987 10.7903 14.7716C10.2134 14.5446 9.72025 14.1601 9.3733 13.6667C9.02635 13.1734 8.84117 12.5933 8.84117 12C8.84117 11.2043 9.17383 10.4413 9.76597 9.87868C10.3581 9.31607 11.1612 9 11.9986 9Z" fill="white"/>
</svg>
