<svg width="24" height="24" viewBox="0 0 24 24" fill="none" xmlns="http://www.w3.org/2000/svg">
<g id="Restaurantes">
<path id="Restaurantes_2" fill-rule="evenodd" clip-rule="evenodd" d="M9.15803 12.2103C5.86788 12.5278 2.75274 15.0235 2.27574 19.0634C1.51819 19.1827 1.1467 19.4632 1.05062 19.9883C0.756346 21.6072 1.88452 22.9627 3.5326 22.9627C9.46603 22.9636 15.3995 22.9636 21.3329 22.9627C22.4027 22.9627 23.0033 22.3613 23.0033 21.2898C23.0041 15.0852 23.0041 8.87985 23.0033 2.67446C23.0033 1.60291 22.4036 1.0015 21.3346 1.00064C18.79 0.999786 16.2445 0.999786 13.6999 1.00064C12.6249 1.0015 12.0218 1.59862 12.0218 2.66588C12.0212 4.74378 12.0214 6.82168 12.0216 8.89958L12.0218 12.0164V12.4789C11.735 12.4235 11.4621 12.3712 11.1943 12.3198C10.9638 12.2756 10.737 12.2321 10.5084 12.188V11.2941C10.5556 11.2941 10.5997 11.2945 10.6415 11.295H10.6415H10.6416H10.6416C10.7274 11.2959 10.8041 11.2967 10.8807 11.2932C11.3355 11.2726 11.6108 11.0101 11.5954 10.6163C11.5808 10.2465 11.3063 10.0097 10.8653 10.0063C10.1498 10.0003 9.43514 9.99687 8.72049 10.0089C8.34643 10.0149 8.08819 10.274 8.07447 10.6146C8.05903 10.9775 8.31297 11.2563 8.70161 11.2898C8.80476 11.2986 8.9091 11.2961 9.01328 11.2937H9.01331C9.06163 11.2926 9.10992 11.2915 9.15803 11.2915V12.2103ZM19.2391 21.6729C18.9691 21.6744 18.6985 21.6758 18.4271 21.6758C18.9839 19.658 18.3773 19.1381 17.4302 19.0686C17.3798 18.8704 17.3343 18.6716 17.289 18.4734C17.1907 18.0435 17.0931 17.6168 16.948 17.2069C16.3406 15.4876 15.2313 14.1613 13.6604 13.2338C13.4142 13.0888 13.301 12.9447 13.3018 12.6401C13.3147 9.35343 13.3147 6.06671 13.3035 2.77998C13.3027 2.41708 13.3953 2.27638 13.784 2.27896C16.2702 2.29354 18.7574 2.29354 21.2437 2.27896C21.6323 2.27638 21.725 2.41708 21.7241 2.77998C21.7155 8.91073 21.7147 15.0415 21.7258 21.1722C21.7267 21.5712 21.6048 21.6939 21.2102 21.6836C20.5546 21.6659 19.8986 21.6694 19.2391 21.6729ZM9.71912 13.4861C13.5549 13.4037 15.9159 16.5626 16.0283 19.0823H3.66043C3.39791 16.4717 6.51561 13.5556 9.71912 13.4861ZM2.34694 20.4155H17.3246C17.3521 21.21 16.9326 21.6733 16.181 21.6741C11.9497 21.6784 7.71843 21.6784 3.48713 21.6741C2.73644 21.6733 2.31606 21.2066 2.34694 20.4155ZM16.7821 9.32376H16.7822H16.7823H16.7824C17.0149 9.32344 17.2474 9.32311 17.4799 9.32311C17.7041 9.32311 17.9284 9.32339 18.1527 9.32367H18.1528H18.1528H18.1529H18.153C18.7135 9.32437 19.274 9.32507 19.834 9.3214C20.2904 9.31882 20.5881 9.05887 20.589 8.68052C20.5898 8.30132 20.293 8.03794 19.8366 8.03708C18.2957 8.03365 16.7549 8.03365 15.2141 8.03708C14.7328 8.03794 14.4239 8.30904 14.4394 8.6994C14.4539 9.07775 14.7474 9.31968 15.2115 9.32226C15.7348 9.32522 16.2585 9.32449 16.7821 9.32376ZM17.4999 11.8946C17.2733 11.8946 17.0467 11.895 16.8201 11.8954C16.2763 11.8963 15.7324 11.8971 15.1886 11.8929C14.733 11.8895 14.4353 11.6278 14.4362 11.2495C14.4371 10.8711 14.7348 10.6103 15.1912 10.6086C16.7466 10.6043 18.3012 10.6043 19.8566 10.6094C20.2864 10.6112 20.5721 10.8651 20.5858 11.2306C20.6004 11.6081 20.3001 11.8886 19.854 11.892C19.2877 11.897 18.7209 11.8961 18.1541 11.8953C17.936 11.895 17.7179 11.8946 17.4999 11.8946ZM17.7867 4.17301C17.7069 4.17417 17.6271 4.17534 17.5472 4.17534C17.4557 4.17561 17.364 4.17429 17.2724 4.17297C17.0789 4.17019 16.8854 4.1674 16.6927 4.17963C16.3341 4.20193 16.069 4.48676 16.069 4.81792C16.0699 5.14823 16.335 5.44335 16.6927 5.45537C17.2332 5.47338 17.7754 5.47167 18.3159 5.45622C18.6831 5.44593 18.9456 5.17396 18.9594 4.83852C18.9731 4.49277 18.6968 4.19936 18.3159 4.17791C18.1398 4.16787 17.9633 4.17044 17.7867 4.17301ZM8.31815 15.9685C8.30027 15.9932 8.28085 16.0274 8.25878 16.0662C8.20035 16.169 8.1234 16.3044 8.00758 16.3829C7.45422 16.7578 7.00638 17.215 6.66578 17.7924C6.45473 18.1502 6.09955 18.2334 5.78641 18.0532C5.46383 17.8662 5.3686 17.4965 5.57107 17.125C5.98287 16.3708 6.55683 15.7652 7.2955 15.3276C7.76994 15.0471 8.32587 15.3431 8.31815 15.9685ZM10.4792 15.2246C10.4629 14.8291 10.1609 14.6069 9.66249 14.619C9.62665 14.6209 9.59055 14.6219 9.5544 14.6228C9.4616 14.6254 9.36852 14.6279 9.279 14.6464C8.94441 14.7116 8.75051 14.9184 8.74365 15.2641C8.73679 15.6347 8.94955 15.8449 9.2953 15.9153C9.40571 15.9375 9.52344 15.9271 9.63937 15.9169C9.66666 15.9145 9.69386 15.9121 9.72083 15.9101C10.2184 15.8732 10.4964 15.6202 10.4792 15.2246Z" fill="#808080"/>
</g>
</svg>
