<svg width="24" height="24" viewBox="0 0 24 24" fill="none" xmlns="http://www.w3.org/2000/svg">
<path d="M9.22495 3.39691C8.88748 2.55322 8.07036 2 7.16168 2H4.10527C2.94256 2 2 2.94233 2 4.10503C2 13.988 10.012 22 19.895 22C21.0577 22 22 21.0573 22 19.8947L22.0006 16.8378C22.0006 15.929 21.4474 15.1121 20.6038 14.7746L17.6743 13.6032C16.9166 13.3001 16.0537 13.4366 15.4266 13.9591L14.6706 14.5897C13.7877 15.3254 12.4884 15.2669 11.6758 14.4542L9.54691 12.3234C8.73421 11.5107 8.67414 10.2126 9.40994 9.32964L10.0403 8.57367C10.5629 7.94661 10.7006 7.08351 10.3974 6.32566L9.22495 3.39691Z" stroke="#333333" stroke-width="0.8" stroke-linecap="round" stroke-linejoin="round"/>
</svg>
