<svg width="16" height="17" viewBox="0 0 16 17" fill="none" xmlns="http://www.w3.org/2000/svg">
<g id="1.TH.PINPOINT">
<path id="Pin point" fill-rule="evenodd" clip-rule="evenodd" d="M10.206 12.7815C10.932 11.8315 11.642 10.7735 12.166 9.71148C12.695 8.63848 13 7.63348 13 6.77148C13 5.4454 12.4732 4.17363 11.5355 3.23595C10.5979 2.29827 9.32608 1.77148 8 1.77148C6.67392 1.77148 5.40215 2.29827 4.46447 3.23595C3.52678 4.17363 3 5.4454 3 6.77148C3 7.63348 3.304 8.63848 3.834 9.71148C4.358 10.7735 5.068 11.8315 5.794 12.7815C6.48268 13.6771 7.21908 14.535 8 15.3515C8.7809 14.535 9.5173 13.6771 10.206 12.7815ZM14 6.77148C14 11.0855 8 16.7715 8 16.7715C8 16.7715 2 11.0855 2 6.77148C2 5.18019 2.63214 3.65406 3.75736 2.52884C4.88258 1.40363 6.4087 0.771484 8 0.771484C9.5913 0.771484 11.1174 1.40363 12.2426 2.52884C13.3679 3.65406 14 5.18019 14 6.77148ZM6.58579 8.1857C6.96086 8.56077 7.46957 8.77148 8 8.77148C8.53043 8.77148 9.03914 8.56077 9.41421 8.1857C9.78929 7.81063 10 7.30192 10 6.77148C10 6.24105 9.78929 5.73234 9.41421 5.35727C9.03914 4.9822 8.53043 4.77148 8 4.77148C7.46957 4.77148 6.96086 4.9822 6.58579 5.35727C6.21071 5.73234 6 6.24105 6 6.77148C6 7.30192 6.21071 7.81063 6.58579 8.1857ZM10.1213 8.89281C9.55871 9.45541 8.79565 9.77148 8 9.77148C7.20435 9.77148 6.44129 9.45541 5.87868 8.89281C5.31607 8.3302 5 7.56713 5 6.77148C5 5.97583 5.31607 5.21277 5.87868 4.65016C6.44129 4.08755 7.20435 3.77148 8 3.77148C8.79565 3.77148 9.55871 4.08755 10.1213 4.65016C10.6839 5.21277 11 5.97583 11 6.77148C11 7.56713 10.6839 8.3302 10.1213 8.89281Z" fill="#333333"/>
</g>
</svg>
