<svg width="24" height="25" viewBox="0 0 24 25" fill="none" xmlns="http://www.w3.org/2000/svg">
<g id="1.TH.AnswerReview">
<path id="Vector" d="M17.9563 16.0183C17.9863 15.7787 17.9963 15.5291 17.9963 15.2695V11.2759C17.9963 8.09103 16.3947 6.49359 13.2014 6.49359H6.7949C6.53463 6.49359 6.28438 6.50358 6.04413 6.53353M17.9563 16.0183C17.726 18.714 16.1344 20.0518 13.2014 20.0518H12.801C12.5508 20.0518 12.3105 20.1716 12.1604 20.3713L10.9591 21.9687C10.4286 22.6776 9.56771 22.6776 9.03717 21.9687L7.83594 20.3713C7.70581 20.2016 7.41552 20.0518 7.1953 20.0518H6.7949C3.60164 20.0518 2 19.2631 2 15.2695V11.2759C2 8.35062 3.35139 6.76316 6.04413 6.53353M17.9563 16.0183C20.649 15.7887 21.9998 14.2112 21.9998 11.2759V7.28233C21.9998 4.09745 20.3982 2.5 17.2049 2.5H10.7984C7.86543 2.5 6.27437 3.84785 6.04413 6.53353M13.9998 10.5001L8.49967 16.0003L5.99962 13.5002" stroke="#333333" stroke-width="0.8" stroke-miterlimit="10" stroke-linecap="round" stroke-linejoin="round"/>
</g>
</svg>
