<svg width="16" height="17" viewBox="0 0 16 17" fill="none" xmlns="http://www.w3.org/2000/svg">
<g id="1.TH.REVIEW">
<path id="Vector" d="M8.21858 1.19756C8.1788 1.11282 8.09362 1.05871 8 1.05871C7.90638 1.05871 7.8212 1.11282 7.78142 1.19756L5.67311 5.68884L0.963319 6.41272C0.873889 6.42646 0.799649 6.48905 0.770979 6.57487C0.742309 6.66069 0.764022 6.75533 0.827232 6.82007L4.24206 10.3175L3.43569 15.2613C3.4208 15.3526 3.45935 15.4443 3.53495 15.4976C3.61055 15.5508 3.70993 15.5562 3.79085 15.5115L8 13.1839L12.2092 15.5115C12.2901 15.5562 12.3895 15.5508 12.4651 15.4976C12.5407 15.4443 12.5792 15.3526 12.5643 15.2613L11.7579 10.3175L15.1728 6.82007C15.236 6.75533 15.2577 6.66069 15.229 6.57487C15.2004 6.48905 15.1261 6.42646 15.0367 6.41272L10.3269 5.68884L8.21858 1.19756Z" fill="#FFD453" stroke="#FFD453" stroke-width="0.482927" stroke-linecap="round" stroke-linejoin="round"/>
</g>
</svg>
