<svg width="32" height="32" viewBox="0 0 32 32" fill="none" xmlns="http://www.w3.org/2000/svg">
<g id="1.TH.Emoji">
<g id="Vector">
<path d="M16 32C24.8366 32 32 24.8366 32 16C32 7.16344 24.8366 0 16 0C7.16344 0 0 7.16344 0 16C0 24.8366 7.16344 32 16 32Z" fill="#D9D9D9"/>
<path d="M22.6533 24.3369C22.6133 24.1778 21.6151 20.4444 16 20.4444C10.384 20.4444 9.38667 24.1778 9.34667 24.3369C9.29778 24.5298 9.38489 24.7298 9.55733 24.8293C9.73067 24.928 9.94756 24.8987 10.0907 24.7609C10.1076 24.744 11.8276 23.1111 16 23.1111C20.1724 23.1111 21.8933 24.744 21.9093 24.76C21.9947 24.8444 22.1084 24.8889 22.2222 24.8889C22.2969 24.8889 22.3724 24.8702 22.4409 24.832C22.6151 24.7324 22.7022 24.5307 22.6533 24.3369Z" fill="#333333"/>
<path d="M10.6667 15.1111C11.894 15.1111 12.8889 13.7182 12.8889 12C12.8889 10.2818 11.894 8.88889 10.6667 8.88889C9.43937 8.88889 8.44444 10.2818 8.44444 12C8.44444 13.7182 9.43937 15.1111 10.6667 15.1111Z" fill="#333333"/>
<path d="M21.3333 15.1111C22.5606 15.1111 23.5556 13.7182 23.5556 12C23.5556 10.2818 22.5606 8.88889 21.3333 8.88889C20.106 8.88889 19.1111 10.2818 19.1111 12C19.1111 13.7182 20.106 15.1111 21.3333 15.1111Z" fill="#333333"/>
</g>
</g>
</svg>
