<svg width="56" height="56" viewBox="0 0 56 56" fill="none" xmlns="http://www.w3.org/2000/svg">
<g id="1.TH.Emoji">
<g id="Vector">
<path d="M56 28C56 43.4638 43.4638 56 28 56C12.5378 56 0 43.4638 0 28C0 12.5378 12.5378 0 28 0C43.4638 0 56 12.5378 56 28Z" fill="#D9D9D9"/>
<path d="M17.8889 28C20.0367 28 21.7778 24.1695 21.7778 19.4444C21.7778 14.7193 20.0367 10.8889 17.8889 10.8889C15.7411 10.8889 14 14.7193 14 19.4444C14 24.1695 15.7411 28 17.8889 28Z" fill="#333333"/>
<path d="M38.1111 28C40.2589 28 42 24.1695 42 19.4444C42 14.7193 40.2589 10.8889 38.1111 10.8889C35.9633 10.8889 34.2222 14.7193 34.2222 19.4444C34.2222 24.1695 35.9633 28 38.1111 28Z" fill="#333333"/>
<path d="M28 34.2222C22.3642 34.2222 18.6247 33.5658 14 32.6667C12.9438 32.4629 10.8889 32.6667 10.8889 35.7778C10.8889 42 18.0367 49.7778 28 49.7778C37.9618 49.7778 45.1111 42 45.1111 35.7778C45.1111 32.6667 43.0562 32.4613 42 32.6667C37.3753 33.5658 33.6358 34.2222 28 34.2222Z" fill="#333333"/>
<path d="M14 35.7778C14 35.7778 18.6667 37.3333 28 37.3333C37.3333 37.3333 42 35.7778 42 35.7778C42 35.7778 38.8889 42 28 42C17.1111 42 14 35.7778 14 35.7778Z" fill="white"/>
</g>
</g>
</svg>
