<svg width="24" height="24" viewBox="0 0 24 24" fill="none" xmlns="http://www.w3.org/2000/svg">
<path d="M16.0719 2H8.58515C7.92241 2 7.38515 2.53726 7.38515 3.2V5.61768M16.0719 2H16.8333C17.1483 2 17.4506 2.12385 17.6751 2.34481L20.6418 5.26509C20.871 5.49066 21 5.79874 21 6.12028V6.62487M16.0719 2V5.42487C16.0719 6.08761 16.6092 6.62487 17.2719 6.62487H21M21 6.62487V17.6551C21 18.3178 20.4627 18.8551 19.8 18.8551H15.8422M15.8422 18.8551H8.58515C7.92241 18.8551 7.38515 18.3178 7.38515 17.6551V5.61768M15.8422 18.8551V20.8C15.8422 21.4627 15.305 22 14.6422 22H4.2C3.53726 22 3 21.4627 3 20.8V6.81768C3 6.15494 3.53726 5.61768 4.2 5.61768H7.38515" stroke="#333333" stroke-width="0.8" stroke-linecap="round"/>
</svg>
