<svg width="33" height="33" viewBox="0 0 33 33" fill="none" xmlns="http://www.w3.org/2000/svg">
<rect x="0.998047" y="0.5" width="32" height="32" rx="16" fill="#F3F3F3"/>
<path d="M10.1002 9.10211C10.1957 9.00635 10.3092 8.93037 10.4341 8.87853C10.5591 8.82668 10.693 8.8 10.8283 8.8C10.9635 8.8 11.0975 8.82668 11.2224 8.87853C11.3473 8.93037 11.4608 9.00635 11.5564 9.10211L16.9984 14.5462L22.4404 9.10211C22.536 9.0065 22.6495 8.93066 22.7744 8.87891C22.8993 8.82717 23.0332 8.80054 23.1684 8.80054C23.3037 8.80054 23.4376 8.82717 23.5625 8.87891C23.6874 8.93066 23.8009 9.0065 23.8965 9.10211C23.9921 9.19773 24.068 9.31123 24.1197 9.43616C24.1715 9.56108 24.1981 9.69497 24.1981 9.83018C24.1981 9.9654 24.1715 10.0993 24.1197 10.2242C24.068 10.3491 23.9921 10.4626 23.8965 10.5583L18.4524 16.0003L23.8965 21.4423C23.9921 21.5379 24.068 21.6514 24.1197 21.7763C24.1715 21.9012 24.1981 22.0351 24.1981 22.1704C24.1981 22.3056 24.1715 22.4395 24.1197 22.5644C24.068 22.6893 23.9921 22.8028 23.8965 22.8984C23.8009 22.994 23.6874 23.0699 23.5625 23.1216C23.4376 23.1734 23.3037 23.2 23.1684 23.2C23.0332 23.2 22.8993 23.1734 22.7744 23.1216C22.6495 23.0699 22.536 22.994 22.4404 22.8984L16.9984 17.4544L11.5564 22.8984C11.4607 22.994 11.3472 23.0699 11.2223 23.1216C11.0974 23.1734 10.9635 23.2 10.8283 23.2C10.6931 23.2 10.5592 23.1734 10.4343 23.1216C10.3093 23.0699 10.1958 22.994 10.1002 22.8984C10.0046 22.8028 9.92876 22.6893 9.87701 22.5644C9.82527 22.4395 9.79863 22.3056 9.79863 22.1704C9.79863 22.0351 9.82527 21.9012 9.87701 21.7763C9.92876 21.6514 10.0046 21.5379 10.1002 21.4423L15.5443 16.0003L10.1002 10.5583C10.0044 10.4627 9.92846 10.3493 9.87662 10.2243C9.82478 10.0994 9.7981 9.96545 9.7981 9.83018C9.7981 9.69492 9.82478 9.56099 9.87662 9.43605C9.92846 9.31112 10.0044 9.19764 10.1002 9.10211Z" fill="#333333"/>
</svg>
