<svg width="16" height="16" viewBox="0 0 16 16" fill="none" xmlns="http://www.w3.org/2000/svg">
<g id="1.TH.Language">
<path id="Vector" d="M10.9245 7.36267H10.932M8.00429 7.36267H8.0118M5.08388 7.36267H5.09139M14.6663 5.31683V8.6434C14.6663 8.85963 14.658 9.06754 14.633 9.26714C14.4411 11.5126 13.1144 12.627 10.6697 12.627H10.3359C10.1273 12.627 9.92708 12.7268 9.80193 12.8931L8.80068 14.2237C8.35846 14.8142 7.64089 14.8142 7.19867 14.2237L6.19741 12.8931C6.08894 12.7517 5.84698 12.627 5.66342 12.627H5.32968C2.66802 12.627 1.33301 11.97 1.33301 8.6434V5.31683C1.33301 2.88012 2.45942 1.5578 4.7039 1.36653C4.90415 1.34158 5.11274 1.33325 5.32968 1.33325H10.6697C13.3313 1.33325 14.6663 2.66389 14.6663 5.31683Z" stroke="white" stroke-width="0.8" stroke-linecap="round" stroke-linejoin="round"/>
</g>
</svg>
