<svg width="220" height="44" viewBox="0 0 220 44" fill="none" xmlns="http://www.w3.org/2000/svg">
<path d="M2.85059 3.92858C2.85059 1.75888 4.60947 0 6.77917 0C8.94887 0 10.7078 1.75889 10.7078 3.92858V40H2.85059V3.92858Z" fill="#0B6357"/>
<g filter="url(#filter0_d_416_1595)">
<path d="M10.3506 14.5455H2.85059C2.85059 29.0909 14.1005 32.2351 25.3506 30.4169L25.3506 40H32.8506V19.4805C14.1006 26.7532 10.3506 21.8182 10.3506 14.5455Z" fill="#34A98F"/>
</g>
<path d="M10.7078 14.5455H2.85059C2.85059 29.0909 14.1005 32.2351 25.3506 30.4169L32.8506 19.4805C14.1005 26.7532 10.7078 21.8182 10.7078 14.5455Z" fill="#0B6357"/>
<path d="M25.3506 3.75001C25.3506 1.67894 27.0295 0 29.1006 0C31.1717 0 32.8506 1.67894 32.8506 3.75001V10.7928C32.8506 12.8639 31.1717 14.5428 29.1006 14.5428C27.0295 14.5428 25.3506 12.8639 25.3506 10.7928V3.75001Z" fill="#34A98F"/>
<path d="M48.1175 34.132C47.5931 34.132 47.0631 34.0693 46.5273 33.9439C46.003 33.8185 45.5299 33.6019 45.1081 33.2941C44.6864 32.975 44.3387 32.5475 44.0651 32.0117C43.8029 31.4646 43.6719 30.7692 43.6719 29.9257V15.1013H41.6884C41.4034 15.1013 41.1926 15.0614 41.0558 14.9816C40.919 14.8904 40.8506 14.6966 40.8506 14.4002V12.8101C40.8506 12.5137 40.919 12.3313 41.0558 12.2629C41.1926 12.1831 41.4034 12.1432 41.6884 12.1432H43.6719V8.50122C43.6719 8.30744 43.7118 8.17065 43.7915 8.09086C43.8713 7.99966 44.0081 7.92557 44.2019 7.86858C44.2703 7.84578 44.4071 7.82298 44.6123 7.80018C44.8289 7.76599 45.0511 7.72609 45.2791 7.68049C45.5527 7.6349 45.8491 7.5836 46.1683 7.52661C46.362 7.50381 46.5159 7.51521 46.6299 7.5608C46.7439 7.6064 46.8237 7.67479 46.8693 7.76598C46.9263 7.85718 46.9605 7.96547 46.9719 8.09086C46.9833 8.20485 46.989 8.33024 46.989 8.46702V12.1432H49.3657C49.6279 12.1432 49.816 12.2002 49.9299 12.3142C50.0553 12.4282 50.118 12.6334 50.118 12.9297V14.2805C50.118 14.5769 50.0553 14.7878 49.9299 14.9132C49.816 15.0386 49.6279 15.1013 49.3657 15.1013H46.989V29.8915C46.989 30.2905 47.0859 30.5698 47.2797 30.7293C47.4734 30.8889 47.7413 30.9687 48.0833 30.9687C48.3455 30.9687 48.5621 31.0485 48.733 31.2081C48.904 31.3677 48.9895 31.59 48.9895 31.8749V33.277C48.9895 33.5392 48.9097 33.7444 48.7501 33.8926C48.5906 34.0522 48.3797 34.132 48.1175 34.132Z" fill="#333333"/>
<path d="M56.9992 14.366C57.3183 13.9671 57.6603 13.6137 58.0251 13.3059C58.3898 12.9867 58.7945 12.7189 59.2391 12.5023C59.695 12.2857 60.208 12.1204 60.7779 12.0064C61.3479 11.8924 62.009 11.8354 62.7614 11.8354C64.0381 11.8354 65.2008 12.0805 66.2495 12.5707C67.3096 13.0494 68.2158 13.7106 68.9682 14.5541C69.7319 15.3862 70.319 16.3666 70.7293 17.4951C71.1511 18.6236 71.362 19.8319 71.362 21.12V32.7299C71.362 33.1174 71.2594 33.4081 71.0542 33.6019C70.8604 33.7957 70.6096 33.8926 70.3019 33.8926H69.0366C68.6148 33.8926 68.3412 33.8071 68.2158 33.6361C68.1019 33.4651 68.0449 33.1801 68.0449 32.7812V21.12C68.0449 20.436 67.9252 19.7407 67.6858 19.0339C67.4578 18.3158 67.1101 17.666 66.6428 17.0847C66.1868 16.5033 65.6112 16.0303 64.9158 15.6655C64.2319 15.3007 63.4396 15.1184 62.5391 15.1184C61.8894 15.1184 61.2339 15.2381 60.5728 15.4774C59.9116 15.7054 59.3132 16.0474 58.7774 16.5033C58.2531 16.9593 57.8256 17.5236 57.495 18.1961C57.1644 18.8686 56.9992 19.6381 56.9992 20.5044V33.1402C56.9992 33.6418 56.7484 33.8926 56.2468 33.8926H54.4857C53.9499 33.8926 53.682 33.6418 53.682 33.1402V6.46649C53.682 6.23851 53.7561 6.05613 53.9043 5.91934C54.0525 5.78255 54.2292 5.71416 54.4344 5.71416H56.2126C56.452 5.71416 56.6401 5.78825 56.7769 5.93644C56.9251 6.08463 56.9992 6.26131 56.9992 6.46649V14.366Z" fill="#333333"/>
<path d="M91.6145 28.9169C91.7171 28.8257 91.8254 28.7402 91.9394 28.6604C92.0648 28.5806 92.1901 28.5407 92.3155 28.5407C92.4865 28.5407 92.6518 28.6433 92.8114 28.8485C93.0394 29.1563 93.2218 29.4071 93.3586 29.6008C93.5067 29.7946 93.6264 29.9485 93.7176 30.0625C93.8088 30.1879 93.8772 30.2791 93.9228 30.3361C93.9798 30.4045 94.0254 30.4786 94.0596 30.5584C94.0938 30.6268 94.1109 30.7065 94.1109 30.7977C94.1109 30.9231 94.0596 31.0599 93.957 31.2081C93.8658 31.3449 93.7005 31.5102 93.4611 31.704C92.971 32.0915 92.458 32.4449 91.9223 32.7641C91.3979 33.0718 90.8451 33.3397 90.2637 33.5677C89.6823 33.7957 89.0668 33.9724 88.417 34.0978C87.7787 34.2231 87.1005 34.2858 86.3823 34.2858C85.3678 34.2858 84.3875 34.1548 83.4414 33.8926C82.4952 33.619 81.6004 33.2371 80.7569 32.747C79.9247 32.2454 79.161 31.6527 78.4657 30.9687C77.7817 30.2848 77.189 29.5267 76.6874 28.6946C76.1858 27.8625 75.7983 26.9734 75.5247 26.0272C75.2511 25.0697 75.1143 24.078 75.1143 23.0521C75.1143 22.0262 75.2397 21.0345 75.4905 20.0769C75.7527 19.1194 76.1175 18.2246 76.5848 17.3925C77.0636 16.5603 77.6392 15.8023 78.3118 15.1184C78.9843 14.4344 79.7367 13.8474 80.5688 13.3572C81.4123 12.8671 82.3185 12.4909 83.2875 12.2287C84.2678 11.9551 85.2994 11.8183 86.3823 11.8183C87.2372 11.8183 88.0865 11.9152 88.93 12.109C89.7735 12.3028 90.5829 12.5878 91.358 12.9639C92.1332 13.3287 92.857 13.7847 93.5295 14.3318C94.2135 14.879 94.8233 15.5059 95.3591 16.2127C96.0886 17.193 96.6301 18.3101 96.9835 19.564C97.3368 20.8179 97.5021 22.2599 97.4793 23.8899C97.4793 24.4257 97.2285 24.6936 96.727 24.6936H78.705C78.8988 25.6055 79.2351 26.449 79.7139 27.2241C80.204 27.9993 80.7854 28.6775 81.4579 29.2589C82.1419 29.8288 82.8999 30.2791 83.732 30.6097C84.5642 30.9288 85.4248 31.0884 86.3139 31.0884C86.9409 31.0884 87.5051 31.0314 88.0067 30.9174C88.5196 30.792 88.9813 30.6325 89.3917 30.4387C89.8134 30.2335 90.201 30.0055 90.5544 29.7547C90.9077 29.4925 91.2497 29.2247 91.5803 28.9511L91.6145 28.9169ZM82.2445 16.264C81.3781 16.8453 80.6315 17.5806 80.0045 18.4697C79.3776 19.3474 78.9501 20.3163 78.7221 21.3764H94.1793C94.0539 20.4303 93.7575 19.5697 93.2902 18.7946C92.8342 18.0194 92.2585 17.3583 91.5632 16.8111C90.8679 16.264 90.0813 15.8422 89.2036 15.5458C88.3373 15.2381 87.4367 15.0842 86.502 15.0842C85.7611 15.0842 85.0258 15.1811 84.2963 15.3748C83.5781 15.5686 82.8942 15.865 82.2445 16.264Z" fill="#333333"/>
<path d="M105.39 14.366C105.709 13.9671 106.051 13.6137 106.415 13.3059C106.78 12.9867 107.185 12.7189 107.629 12.5023C108.085 12.2857 108.598 12.1204 109.168 12.0064C109.738 11.8924 110.399 11.8354 111.152 11.8354C112.428 11.8354 113.591 12.0805 114.64 12.5707C115.7 13.0494 116.606 13.7106 117.359 14.5541C118.122 15.3862 118.709 16.3666 119.12 17.4951C119.542 18.6236 119.752 19.8319 119.752 21.12V32.7299C119.752 33.1174 119.65 33.4081 119.445 33.6019C119.251 33.7957 119 33.8926 118.692 33.8926H117.427C117.005 33.8926 116.732 33.8071 116.606 33.6361C116.492 33.4651 116.435 33.1801 116.435 32.7812V21.12C116.435 20.436 116.316 19.7407 116.076 19.0339C115.848 18.3158 115.501 17.666 115.033 17.0847C114.577 16.5033 114.002 16.0303 113.306 15.6655C112.622 15.3007 111.83 15.1184 110.93 15.1184C110.28 15.1184 109.624 15.2381 108.963 15.4774C108.302 15.7054 107.704 16.0474 107.168 16.5033C106.643 16.9593 106.216 17.5236 105.885 18.1961C105.555 18.8686 105.39 19.6381 105.39 20.5044V33.1402C105.39 33.6418 105.139 33.8926 104.637 33.8926H102.876C102.34 33.8926 102.072 33.6418 102.072 33.1402V6.46649C102.072 6.23851 102.147 6.05613 102.295 5.91934C102.443 5.78255 102.62 5.71416 102.825 5.71416H104.603C104.842 5.71416 105.03 5.78825 105.167 5.93644C105.315 6.08463 105.39 6.26131 105.39 6.46649V14.366Z" fill="#333333"/>
<path d="M123.607 23.0692C123.607 21.5303 123.904 20.0826 124.496 18.7262C125.101 17.3583 125.91 16.1614 126.924 15.1355C127.95 14.1095 129.142 13.3002 130.498 12.7075C131.855 12.1147 133.297 11.8183 134.824 11.8183C135.839 11.8183 136.819 11.9551 137.765 12.2287C138.722 12.4909 139.617 12.8728 140.449 13.3743C141.282 13.8645 142.04 14.4515 142.724 15.1355C143.408 15.8194 143.995 16.5831 144.485 17.4267C144.986 18.2588 145.368 19.1536 145.63 20.1111C145.904 21.0573 146.041 22.0433 146.041 23.0692C146.041 24.0951 145.904 25.0868 145.63 26.0443C145.368 26.9905 144.986 27.8796 144.485 28.7117C143.995 29.5438 143.408 30.3019 142.724 30.9858C142.04 31.6698 141.282 32.2568 140.449 32.747C139.617 33.2371 138.722 33.619 137.765 33.8926C136.819 34.1548 135.839 34.2858 134.824 34.2858C133.809 34.2858 132.823 34.1548 131.866 33.8926C130.92 33.619 130.031 33.2371 129.199 32.747C128.366 32.2568 127.608 31.6698 126.924 30.9858C126.241 30.3019 125.653 29.5438 125.163 28.7117C124.673 27.8796 124.291 26.9905 124.018 26.0443C123.744 25.0868 123.607 24.0951 123.607 23.0692ZM127.01 23.0692C127.01 24.1521 127.215 25.178 127.625 26.1469C128.036 27.1158 128.594 27.9651 129.301 28.6946C130.008 29.4242 130.834 30.0055 131.78 30.4387C132.727 30.8718 133.741 31.0884 134.824 31.0884C135.896 31.0884 136.899 30.8718 137.833 30.4387C138.779 30.0055 139.6 29.4242 140.296 28.6946C141.002 27.9651 141.555 27.1158 141.954 26.1469C142.365 25.178 142.57 24.1521 142.57 23.0692C142.57 22.0091 142.365 20.9889 141.954 20.0086C141.555 19.0282 141.002 18.1676 140.296 17.4267C139.6 16.6743 138.779 16.0759 137.833 15.6313C136.899 15.1868 135.896 14.9645 134.824 14.9645C133.741 14.9645 132.727 15.1868 131.78 15.6313C130.834 16.0759 130.008 16.6743 129.301 17.4267C128.594 18.1676 128.036 19.0282 127.625 20.0086C127.215 20.9889 127.01 22.0091 127.01 23.0692Z" fill="#333333"/>
<path d="M148.889 29.6521C148.832 29.4811 148.792 29.3444 148.769 29.2418C148.746 29.1278 148.746 29.0366 148.769 28.9682C148.803 28.8884 148.849 28.82 148.906 28.763C148.974 28.706 149.066 28.649 149.18 28.592L150.804 27.8397C151.089 27.7257 151.311 27.7428 151.471 27.891C151.63 28.0278 151.756 28.1988 151.847 28.4039C152.018 28.8485 152.286 29.2418 152.651 29.5837C153.027 29.9143 153.431 30.1879 153.865 30.4045C154.298 30.6211 154.737 30.7863 155.181 30.9003C155.626 31.0029 156.008 31.0542 156.327 31.0542C156.76 31.0542 157.239 30.9915 157.763 30.8661C158.287 30.7407 158.778 30.547 159.234 30.2848C159.701 30.0226 160.089 29.6863 160.396 29.276C160.715 28.8542 160.875 28.3583 160.875 27.7884C160.875 27.1728 160.727 26.677 160.431 26.3008C160.134 25.9246 159.747 25.6169 159.268 25.3775C158.8 25.1267 158.27 24.9272 157.678 24.779C157.096 24.6309 156.515 24.477 155.934 24.3174C154.908 24.0438 153.99 23.7132 153.181 23.3257C152.383 22.9267 151.699 22.4707 151.129 21.9578C150.57 21.4334 150.143 20.8407 149.846 20.1795C149.55 19.507 149.402 18.7547 149.402 17.9225C149.402 17.0106 149.579 16.1785 149.932 15.4261C150.285 14.6738 150.776 14.0298 151.402 13.494C152.041 12.9582 152.799 12.5422 153.677 12.2458C154.566 11.9494 155.546 11.8012 156.618 11.8012C157.495 11.8012 158.248 11.881 158.875 12.0406C159.513 12.2002 160.077 12.4396 160.567 12.7588C161.057 13.0665 161.508 13.4541 161.918 13.9215C162.328 14.3774 162.756 14.9075 163.2 15.5116C163.337 15.7396 163.411 15.9391 163.423 16.1101C163.434 16.2697 163.332 16.4293 163.115 16.5888L161.781 17.5977C161.519 17.7458 161.32 17.7857 161.183 17.7173C161.046 17.649 160.898 17.5179 160.738 17.3241C160.476 17.0163 160.22 16.7199 159.969 16.435C159.718 16.15 159.433 15.8992 159.114 15.6826C158.795 15.4546 158.43 15.278 158.02 15.1526C157.621 15.0158 157.142 14.9474 156.583 14.9474C156.082 14.9474 155.597 15.0044 155.13 15.1184C154.663 15.2324 154.241 15.4147 153.865 15.6655C153.5 15.9163 153.203 16.2355 152.976 16.623C152.759 16.9992 152.651 17.4495 152.651 17.9738C152.651 18.3728 152.787 18.7433 153.061 19.0852C153.335 19.4158 153.682 19.7179 154.104 19.9915C154.526 20.265 154.987 20.4987 155.489 20.6925C155.991 20.8863 156.475 21.0402 156.942 21.1542C158.025 21.4049 159.011 21.7241 159.9 22.1117C160.801 22.4992 161.57 22.9609 162.209 23.4967C162.847 24.0324 163.343 24.6594 163.696 25.3775C164.05 26.0842 164.226 26.8879 164.226 27.7884C164.226 28.7801 164.027 29.6749 163.628 30.4729C163.24 31.2594 162.693 31.9319 161.986 32.4905C161.291 33.0376 160.459 33.4594 159.49 33.7558C158.521 34.0522 157.467 34.2003 156.327 34.2003C155.609 34.2003 154.868 34.1092 154.104 33.9268C153.352 33.7444 152.639 33.4651 151.967 33.0889C151.294 32.7128 150.684 32.2397 150.137 31.6698C149.59 31.0998 149.174 30.4273 148.889 29.6521Z" fill="#333333"/>
<path d="M173.752 34.132C173.228 34.132 172.698 34.0693 172.162 33.9439C171.638 33.8185 171.165 33.6019 170.743 33.2941C170.321 32.975 169.973 32.5475 169.7 32.0117C169.438 31.4646 169.307 30.7692 169.307 29.9257V15.1013H167.323C167.038 15.1013 166.827 15.0614 166.69 14.9816C166.554 14.8904 166.485 14.6966 166.485 14.4002V12.8101C166.485 12.5137 166.554 12.3313 166.69 12.2629C166.827 12.1831 167.038 12.1432 167.323 12.1432H169.307V8.50122C169.307 8.30744 169.346 8.17065 169.426 8.09086C169.506 7.99966 169.643 7.92557 169.837 7.86858C169.905 7.84578 170.042 7.82298 170.247 7.80018C170.464 7.76599 170.686 7.72609 170.914 7.68049C171.187 7.6349 171.484 7.5836 171.803 7.52661C171.997 7.50381 172.151 7.51521 172.265 7.5608C172.379 7.6064 172.458 7.67479 172.504 7.76598C172.561 7.85718 172.595 7.96547 172.607 8.09086C172.618 8.20485 172.624 8.33024 172.624 8.46702V12.1432H175C175.263 12.1432 175.451 12.2002 175.565 12.3142C175.69 12.4282 175.753 12.6334 175.753 12.9297V14.2805C175.753 14.5769 175.69 14.7878 175.565 14.9132C175.451 15.0386 175.263 15.1013 175 15.1013H172.624V29.8915C172.624 30.2905 172.721 30.5698 172.914 30.7293C173.108 30.8889 173.376 30.9687 173.718 30.9687C173.98 30.9687 174.197 31.0485 174.368 31.2081C174.539 31.3677 174.624 31.59 174.624 31.8749V33.277C174.624 33.5392 174.544 33.7444 174.385 33.8926C174.225 34.0522 174.014 34.132 173.752 34.132Z" fill="#333333"/>
<path d="M194.774 28.9169C194.876 28.8257 194.985 28.7402 195.099 28.6604C195.224 28.5806 195.35 28.5407 195.475 28.5407C195.646 28.5407 195.811 28.6433 195.971 28.8485C196.199 29.1563 196.381 29.4071 196.518 29.6008C196.666 29.7946 196.786 29.9485 196.877 30.0625C196.968 30.1879 197.037 30.2791 197.082 30.3361C197.139 30.4045 197.185 30.4786 197.219 30.5584C197.253 30.6268 197.27 30.7065 197.27 30.7977C197.27 30.9231 197.219 31.0599 197.116 31.2081C197.025 31.3449 196.86 31.5102 196.621 31.704C196.13 32.0915 195.617 32.4449 195.082 32.7641C194.557 33.0718 194.004 33.3397 193.423 33.5677C192.842 33.7957 192.226 33.9724 191.576 34.0978C190.938 34.2231 190.26 34.2858 189.542 34.2858C188.527 34.2858 187.547 34.1548 186.601 33.8926C185.655 33.619 184.76 33.2371 183.916 32.747C183.084 32.2454 182.32 31.6527 181.625 30.9687C180.941 30.2848 180.348 29.5267 179.847 28.6946C179.345 27.8625 178.958 26.9734 178.684 26.0272C178.411 25.0697 178.274 24.078 178.274 23.0521C178.274 22.0262 178.399 21.0345 178.65 20.0769C178.912 19.1194 179.277 18.2246 179.744 17.3925C180.223 16.5603 180.799 15.8023 181.471 15.1184C182.144 14.4344 182.896 13.8474 183.728 13.3572C184.572 12.8671 185.478 12.4909 186.447 12.2287C187.427 11.9551 188.459 11.8183 189.542 11.8183C190.397 11.8183 191.246 11.9152 192.089 12.109C192.933 12.3028 193.742 12.5878 194.517 12.9639C195.293 13.3287 196.016 13.7847 196.689 14.3318C197.373 14.879 197.983 15.5059 198.518 16.2127C199.248 17.193 199.789 18.3101 200.143 19.564C200.496 20.8179 200.661 22.2599 200.639 23.8899C200.639 24.4257 200.388 24.6936 199.886 24.6936H181.864C182.058 25.6055 182.394 26.449 182.873 27.2241C183.363 27.9993 183.945 28.6775 184.617 29.2589C185.301 29.8288 186.059 30.2791 186.891 30.6097C187.724 30.9288 188.584 31.0884 189.473 31.0884C190.1 31.0884 190.665 31.0314 191.166 30.9174C191.679 30.792 192.141 30.6325 192.551 30.4387C192.973 30.2335 193.36 30.0055 193.714 29.7547C194.067 29.4925 194.409 29.2247 194.74 28.9511L194.774 28.9169ZM185.404 16.264C184.538 16.8453 183.791 17.5806 183.164 18.4697C182.537 19.3474 182.11 20.3163 181.882 21.3764H197.339C197.213 20.4303 196.917 19.5697 196.45 18.7946C195.994 18.0194 195.418 17.3583 194.723 16.8111C194.027 16.264 193.241 15.8422 192.363 15.5458C191.497 15.2381 190.596 15.0842 189.661 15.0842C188.92 15.0842 188.185 15.1811 187.456 15.3748C186.738 15.5686 186.054 15.865 185.404 16.264Z" fill="#333333"/>
<path d="M208.463 14.4686C208.6 14.2064 208.794 13.9215 209.045 13.6137C209.307 13.3059 209.62 13.0209 209.985 12.7588C210.35 12.4966 210.766 12.28 211.233 12.109C211.701 11.9266 212.214 11.8354 212.772 11.8354C213.388 11.8354 213.941 11.8639 214.431 11.9209C214.932 11.9665 215.405 12.0577 215.85 12.1945C216.295 12.3199 216.722 12.4966 217.132 12.7246C217.554 12.9411 217.993 13.2204 218.449 13.5624C218.586 13.665 218.734 13.7961 218.894 13.9557C219.065 14.1152 219.15 14.3033 219.15 14.5199C219.15 14.6453 219.122 14.7593 219.065 14.8619L218.056 16.4179C217.896 16.6116 217.737 16.7085 217.577 16.7085C217.486 16.7085 217.4 16.68 217.321 16.623C217.241 16.5546 217.144 16.4805 217.03 16.4008C216.323 15.922 215.633 15.5743 214.961 15.3577C214.3 15.1298 213.593 15.0158 212.841 15.0158C212.271 15.0158 211.724 15.1241 211.199 15.3406C210.675 15.5572 210.208 15.8707 209.797 16.2811C209.398 16.68 209.073 17.1759 208.823 17.7686C208.583 18.35 208.463 19.0111 208.463 19.7521V33.1402C208.463 33.6418 208.213 33.8926 207.711 33.8926H205.933C205.409 33.8926 205.146 33.6418 205.146 33.1402V12.9297C205.146 12.7018 205.22 12.5194 205.369 12.3826C205.517 12.2458 205.693 12.1774 205.899 12.1774H207.677C207.916 12.1774 208.104 12.2515 208.241 12.3997C208.389 12.5479 208.463 12.7246 208.463 12.9297V14.4686Z" fill="#333333"/>
<defs>
<filter id="filter0_d_416_1595" x="0.962013" y="14.5455" width="33.7771" height="29.2317" filterUnits="userSpaceOnUse" color-interpolation-filters="sRGB">
<feFlood flood-opacity="0" result="BackgroundImageFix"/>
<feColorMatrix in="SourceAlpha" type="matrix" values="0 0 0 0 0 0 0 0 0 0 0 0 0 0 0 0 0 0 127 0" result="hardAlpha"/>
<feOffset dy="1.88857"/>
<feGaussianBlur stdDeviation="0.944287"/>
<feComposite in2="hardAlpha" operator="out"/>
<feColorMatrix type="matrix" values="0 0 0 0 0 0 0 0 0 0 0 0 0 0 0 0 0 0 0.25 0"/>
<feBlend mode="normal" in2="BackgroundImageFix" result="effect1_dropShadow_416_1595"/>
<feBlend mode="normal" in="SourceGraphic" in2="effect1_dropShadow_416_1595" result="shape"/>
</filter>
</defs>
</svg>
