<svg width="24" height="24" viewBox="0 0 24 24" fill="none" xmlns="http://www.w3.org/2000/svg">
<g id="1.TH.Google">
<g id="Vector">
<path d="M17.812 18.7016C19.927 16.7291 20.8645 13.4516 20.302 10.3091H11.9095V13.7816H16.687C16.5942 14.3263 16.388 14.8455 16.0818 15.3054C15.7756 15.7654 15.3762 16.1559 14.9095 16.4516L17.812 18.7016Z" fill="#4285F4"/>
<path d="M3.93698 15.9341C4.55345 17.149 5.43766 18.208 6.52297 19.0314C7.60827 19.8549 8.86635 20.4212 10.2023 20.6876C11.5383 20.9541 12.9174 20.9138 14.2356 20.5698C15.5537 20.2258 16.7766 19.587 17.812 18.7016L14.9095 16.4516C14.2212 16.8979 13.4397 17.1806 12.6252 17.2779C11.8106 17.3752 10.9846 17.2846 10.2105 17.0131C9.43635 16.7415 8.73475 16.2962 8.1595 15.7114C7.58426 15.1265 7.15066 14.4176 6.89198 13.6391L3.93698 15.9341Z" fill="#34A853"/>
<path d="M6.89198 13.6391C6.51698 12.4691 6.51698 11.3891 6.89198 10.2191L3.93698 7.9166C3.32062 9.16438 3 10.5374 3 11.9291C3 13.3208 3.32062 14.6938 3.93698 15.9416L6.89198 13.6391Z" fill="#FBBC02"/>
<path d="M6.89198 10.2191C7.92698 6.9791 12.3295 5.1041 15.2845 7.8716L17.8645 5.3441C16.8542 4.41239 15.6407 3.72879 14.3203 3.34747C12.9999 2.96614 11.6089 2.89758 10.2574 3.14721C8.90588 3.39684 7.6311 3.9578 6.53404 4.78564C5.43699 5.61348 4.54781 6.68545 3.93698 7.9166L6.89198 10.2191Z" fill="#EA4335"/>
</g>
</g>
</svg>
