<svg width="56" height="56" viewBox="0 0 56 56" fill="none" xmlns="http://www.w3.org/2000/svg">
<g id="1.TH.Emoji" filter="url(#filter0_d_520_14227)">
<g id="Vector">
<path d="M52 26C52 39.2547 41.2547 50 28 50C14.7467 50 4 39.2547 4 26C4 12.7467 14.7467 2 28 2C41.2547 2 52 12.7467 52 26Z" fill="#FFD453"/>
<path d="M19.3333 28.6667C21.1743 28.6667 22.6667 26.5773 22.6667 24C22.6667 21.4227 21.1743 19.3333 19.3333 19.3333C17.4924 19.3333 16 21.4227 16 24C16 26.5773 17.4924 28.6667 19.3333 28.6667Z" fill="#664500"/>
<path d="M36.6667 28.6667C38.5076 28.6667 40 26.5773 40 24C40 21.4227 38.5076 19.3333 36.6667 19.3333C34.8257 19.3333 33.3333 21.4227 33.3333 24C33.3333 26.5773 34.8257 28.6667 36.6667 28.6667Z" fill="#664500"/>
<path d="M37.3333 36.6667H18.6667C17.9307 36.6667 17.3333 36.0707 17.3333 35.3333C17.3333 34.596 17.9307 34 18.6667 34H37.3333C38.0707 34 38.6667 34.596 38.6667 35.3333C38.6667 36.0707 38.0707 36.6667 37.3333 36.6667Z" fill="#664500"/>
</g>
</g>
<defs>
<filter id="filter0_d_520_14227" x="0" y="0" width="56" height="56" filterUnits="userSpaceOnUse" color-interpolation-filters="sRGB">
<feFlood flood-opacity="0" result="BackgroundImageFix"/>
<feColorMatrix in="SourceAlpha" type="matrix" values="0 0 0 0 0 0 0 0 0 0 0 0 0 0 0 0 0 0 127 0" result="hardAlpha"/>
<feOffset dy="2"/>
<feGaussianBlur stdDeviation="2"/>
<feComposite in2="hardAlpha" operator="out"/>
<feColorMatrix type="matrix" values="0 0 0 0 0 0 0 0 0 0 0 0 0 0 0 0 0 0 0.15 0"/>
<feBlend mode="normal" in2="BackgroundImageFix" result="effect1_dropShadow_520_14227"/>
<feBlend mode="normal" in="SourceGraphic" in2="effect1_dropShadow_520_14227" result="shape"/>
</filter>
</defs>
</svg>
