<svg width="40" height="40" viewBox="0 0 40 40" fill="none" xmlns="http://www.w3.org/2000/svg">
<rect width="40" height="40" rx="6" fill="#F3F3F3"/>
<path fill-rule="evenodd" clip-rule="evenodd" d="M22.7575 25.0125C23.665 23.825 24.5525 22.5025 25.2075 21.175C25.8688 19.8337 26.25 18.5775 26.25 17.5C26.25 15.8424 25.5915 14.2527 24.4194 13.0806C23.2473 11.9085 21.6576 11.25 20 11.25C18.3424 11.25 16.7527 11.9085 15.5806 13.0806C14.4085 14.2527 13.75 15.8424 13.75 17.5C13.75 18.5775 14.13 19.8337 14.7925 21.175C15.4475 22.5025 16.335 23.825 17.2425 25.0125C18.1034 26.132 19.0239 27.2044 20 28.225C20.9761 27.2044 21.8966 26.132 22.7575 25.0125ZM27.5 17.5C27.5 22.8925 20 30 20 30C20 30 12.5 22.8925 12.5 17.5C12.5 15.5109 13.2902 13.6032 14.6967 12.1967C16.1032 10.7902 18.0109 10 20 10C21.9891 10 23.8968 10.7902 25.3033 12.1967C26.7098 13.6032 27.5 15.5109 27.5 17.5ZM18.2322 19.2678C18.7011 19.7366 19.337 20 20 20C20.663 20 21.2989 19.7366 21.7678 19.2678C22.2366 18.7989 22.5 18.163 22.5 17.5C22.5 16.837 22.2366 16.2011 21.7678 15.7322C21.2989 15.2634 20.663 15 20 15C19.337 15 18.7011 15.2634 18.2322 15.7322C17.7634 16.2011 17.5 16.837 17.5 17.5C17.5 18.163 17.7634 18.7989 18.2322 19.2678ZM22.6517 20.1517C21.9484 20.8549 20.9946 21.25 20 21.25C19.0054 21.25 18.0516 20.8549 17.3483 20.1517C16.6451 19.4484 16.25 18.4946 16.25 17.5C16.25 16.5054 16.6451 15.5516 17.3483 14.8483C18.0516 14.1451 19.0054 13.75 20 13.75C20.9946 13.75 21.9484 14.1451 22.6517 14.8483C23.3549 15.5516 23.75 16.5054 23.75 17.5C23.75 18.4946 23.3549 19.4484 22.6517 20.1517Z" fill="#333333"/>
</svg>
