<svg width="32" height="32" viewBox="0 0 32 32" fill="none" xmlns="http://www.w3.org/2000/svg">
<g id="1.TH.Emoji">
<g id="Vector">
<path d="M32 16C32 24.8364 24.8364 32 16 32C7.16444 32 0 24.8364 0 16C0 7.16444 7.16444 0 16 0C24.8364 0 32 7.16444 32 16Z" fill="#BFBFBF"/>
<path d="M10.2222 16C11.4495 16 12.4444 13.8112 12.4444 11.1111C12.4444 8.41105 11.4495 6.22222 10.2222 6.22222C8.99492 6.22222 8 8.41105 8 11.1111C8 13.8112 8.99492 16 10.2222 16Z" fill="#333333"/>
<path d="M21.7778 16C23.0051 16 24 13.8112 24 11.1111C24 8.41105 23.0051 6.22222 21.7778 6.22222C20.5505 6.22222 19.5556 8.41105 19.5556 11.1111C19.5556 13.8112 20.5505 16 21.7778 16Z" fill="#333333"/>
<path d="M16 19.5556C12.7796 19.5556 10.6427 19.1804 8 18.6667C7.39644 18.5502 6.22222 18.6667 6.22222 20.4444C6.22222 24 10.3067 28.4444 16 28.4444C21.6924 28.4444 25.7778 24 25.7778 20.4444C25.7778 18.6667 24.6036 18.5493 24 18.6667C21.3573 19.1804 19.2204 19.5556 16 19.5556Z" fill="#333333"/>
<path d="M8 20.4444C8 20.4444 10.6667 21.3333 16 21.3333C21.3333 21.3333 24 20.4444 24 20.4444C24 20.4444 22.2222 24 16 24C9.77778 24 8 20.4444 8 20.4444Z" fill="white"/>
</g>
</g>
</svg>
