<svg width="56" height="56" viewBox="0 0 56 56" fill="none" xmlns="http://www.w3.org/2000/svg">
<g id="1.TH.Emoji">
<g id="Vector">
<path d="M56 28C56 43.4638 43.4638 56 28 56C12.5378 56 0 43.4638 0 28C0 12.5378 12.5378 0 28 0C43.4638 0 56 12.5378 56 28Z" fill="#D9D9D9"/>
<path d="M17.8889 31.1111C20.0367 31.1111 21.7778 28.6735 21.7778 25.6667C21.7778 22.6598 20.0367 20.2222 17.8889 20.2222C15.7411 20.2222 14 22.6598 14 25.6667C14 28.6735 15.7411 31.1111 17.8889 31.1111Z" fill="#333333"/>
<path d="M38.1111 31.1111C40.2589 31.1111 42 28.6735 42 25.6667C42 22.6598 40.2589 20.2222 38.1111 20.2222C35.9633 20.2222 34.2222 22.6598 34.2222 25.6667C34.2222 28.6735 35.9633 31.1111 38.1111 31.1111Z" fill="#333333"/>
<path d="M38.8889 40.4444H17.1111C16.2524 40.4444 15.5556 39.7491 15.5556 38.8889C15.5556 38.0287 16.2524 37.3333 17.1111 37.3333H38.8889C39.7491 37.3333 40.4444 38.0287 40.4444 38.8889C40.4444 39.7491 39.7491 40.4444 38.8889 40.4444Z" fill="#333333"/>
</g>
</g>
</svg>
