<svg width="14" height="16" viewBox="0 0 14 16" fill="none" xmlns="http://www.w3.org/2000/svg">
<g id="Group 3434">
<path id="Vector" d="M5.2498 7.71354C5.52511 9.45817 5.02073 10.412 3.59636 10.6126C2.01355 10.8355 1.36136 9.82573 1.08605 8.08109C0.715734 5.73349 1.58605 4.27337 2.82698 4.17933C3.95636 4.09391 4.97417 5.9692 5.2498 7.71354Z" stroke="#333333" stroke-width="0.8" stroke-miterlimit="10"/>
<path id="Vector_2" d="M5.98884 12.5556C6.08665 13.5461 5.52446 14.4705 4.67634 14.6288C3.82009 14.7883 2.84165 14.1416 2.64227 13.1648C2.4429 12.1881 3.19696 12.1363 4.12102 11.9681C5.04509 11.8 5.87071 11.361 5.98884 12.5556Z" stroke="#333333" stroke-width="0.8" stroke-miterlimit="10"/>
<path id="Vector_3" d="M8.74983 4.85619C8.47452 6.60082 8.97889 7.55468 10.403 7.75528C11.9861 7.97819 12.638 6.96838 12.9133 5.22374C13.2839 2.87584 12.4133 1.40769 11.1726 1.32198C10.0351 1.2434 9.02546 3.11155 8.74983 4.85619Z" stroke="#333333" stroke-width="0.8" stroke-miterlimit="10"/>
<path id="Vector_4" d="M8.01103 9.69834C7.91322 10.6885 8.4754 11.6132 9.32353 11.7715C10.1798 11.9311 11.1582 11.2843 11.3576 10.3076C11.557 9.33078 10.8029 9.279 9.87884 9.11054C8.95478 8.94209 8.12915 8.5034 8.01103 9.69834Z" stroke="#333333" stroke-width="0.8" stroke-miterlimit="10"/>
</g>
</svg>
