<svg width="16" height="16" viewBox="0 0 16 16" fill="none" xmlns="http://www.w3.org/2000/svg">
<path d="M14.603 13.2653L8.41283 2.2449C8.32057 2.08112 8.16136 2 8.00065 2C7.83995 2 7.67924 2.08112 7.58847 2.2449L1.39835 13.2653C1.21532 13.5929 1.44447 14 1.81052 14H14.1908C14.5568 14 14.786 13.5929 14.603 13.2653ZM7.52449 6.53061C7.52449 6.46327 7.57806 6.40816 7.64353 6.40816H8.35777C8.42325 6.40816 8.47681 6.46327 8.47681 6.53061V9.34694C8.47681 9.41429 8.42325 9.46939 8.35777 9.46939H7.64353C7.57806 9.46939 7.52449 9.41429 7.52449 9.34694V6.53061ZM8.00065 11.9184C7.81375 11.9144 7.63578 11.8353 7.50495 11.698C7.37412 11.5606 7.30084 11.376 7.30084 11.1837C7.30084 10.9914 7.37412 10.8067 7.50495 10.6694C7.63578 10.532 7.81375 10.4529 8.00065 10.449C8.18756 10.4529 8.36552 10.532 8.49635 10.6694C8.62719 10.8067 8.70046 10.9914 8.70046 11.1837C8.70046 11.376 8.62719 11.5606 8.49635 11.698C8.36552 11.8353 8.18756 11.9144 8.00065 11.9184Z" fill="#FF6666"/>
</svg>
