<svg width="72" height="72" viewBox="0 0 72 72" fill="none" xmlns="http://www.w3.org/2000/svg">
<g id="1.TH.Emoji" filter="url(#filter0_d_3689_42581)">
<g id="Vector">
<path d="M36 66C53.6731 66 68 51.6731 68 34C68 16.3269 53.6731 2 36 2C18.3269 2 4 16.3269 4 34C4 51.6731 18.3269 66 36 66Z" fill="#FFD453"/>
<path d="M49.3067 50.6738C49.2267 50.3556 47.2302 42.8889 36 42.8889C24.768 42.8889 22.7733 50.3556 22.6933 50.6738C22.5956 51.0596 22.7698 51.4596 23.1147 51.6587C23.4613 51.856 23.8951 51.7973 24.1813 51.5218C24.2151 51.488 27.6551 48.2222 36 48.2222C44.3449 48.2222 47.7867 51.488 47.8187 51.52C47.9893 51.6889 48.2169 51.7778 48.4444 51.7778C48.5938 51.7778 48.7449 51.7404 48.8818 51.664C49.2302 51.4649 49.4044 51.0613 49.3067 50.6738Z" fill="#664500"/>
<path d="M25.3333 32.2222C27.7879 32.2222 29.7778 29.4364 29.7778 26C29.7778 22.5636 27.7879 19.7778 25.3333 19.7778C22.8787 19.7778 20.8889 22.5636 20.8889 26C20.8889 29.4364 22.8787 32.2222 25.3333 32.2222Z" fill="#664500"/>
<path d="M46.6667 32.2222C49.1213 32.2222 51.1111 29.4364 51.1111 26C51.1111 22.5636 49.1213 19.7778 46.6667 19.7778C44.2121 19.7778 42.2222 22.5636 42.2222 26C42.2222 29.4364 44.2121 32.2222 46.6667 32.2222Z" fill="#664500"/>
</g>
</g>
<defs>
<filter id="filter0_d_3689_42581" x="0" y="0" width="72" height="72" filterUnits="userSpaceOnUse" color-interpolation-filters="sRGB">
<feFlood flood-opacity="0" result="BackgroundImageFix"/>
<feColorMatrix in="SourceAlpha" type="matrix" values="0 0 0 0 0 0 0 0 0 0 0 0 0 0 0 0 0 0 127 0" result="hardAlpha"/>
<feOffset dy="2"/>
<feGaussianBlur stdDeviation="2"/>
<feComposite in2="hardAlpha" operator="out"/>
<feColorMatrix type="matrix" values="0 0 0 0 0 0 0 0 0 0 0 0 0 0 0 0 0 0 0.15 0"/>
<feBlend mode="normal" in2="BackgroundImageFix" result="effect1_dropShadow_3689_42581"/>
<feBlend mode="normal" in="SourceGraphic" in2="effect1_dropShadow_3689_42581" result="shape"/>
</filter>
</defs>
</svg>
