<svg width="64" height="64" viewBox="0 0 64 64" fill="none" xmlns="http://www.w3.org/2000/svg">
<rect width="64" height="64" rx="32" fill="#34A98F"/>
<path d="M45.7085 17.07C45.6735 17.104 45.6406 17.1402 45.6101 17.1783L28.5128 38.9621L18.2092 28.6536C17.5093 28.0014 16.5836 27.6463 15.627 27.6632C14.6705 27.6801 13.7579 28.0676 13.0814 28.7441C12.4049 29.4205 12.0175 30.3332 12.0006 31.2897C11.9837 32.2462 12.3388 33.1719 12.9909 33.8719L26.0169 46.9028C26.3678 47.253 26.7857 47.5291 27.2456 47.7143C27.7055 47.8996 28.198 47.9904 28.6937 47.9812C29.1895 47.972 29.6783 47.863 30.131 47.6609C30.5837 47.4587 30.991 47.1674 31.3287 46.8043L50.981 22.239C51.6501 21.5367 52.016 20.5992 51.9995 19.6293C51.9829 18.6593 51.5853 17.7348 50.8926 17.0557C50.1999 16.3766 49.2677 15.9973 48.2976 16C47.3275 16.0027 46.3975 16.387 45.7085 17.07Z" fill="white"/>
</svg>
