<svg width="56" height="56" viewBox="0 0 56 56" fill="none" xmlns="http://www.w3.org/2000/svg">
<g id="1.TH.Emoji">
<g id="Vector">
<path d="M28 56C43.464 56 56 43.464 56 28C56 12.536 43.464 0 28 0C12.536 0 0 12.536 0 28C0 43.464 12.536 56 28 56Z" fill="#BFBFBF"/>
<path d="M39.6433 42.5896C39.5733 42.3111 37.8264 35.7778 28 35.7778C18.172 35.7778 16.4267 42.3111 16.3567 42.5896C16.2711 42.9271 16.4236 43.2771 16.7253 43.4513C17.0287 43.624 17.4082 43.5727 17.6587 43.3316C17.6882 43.302 20.6982 40.4444 28 40.4444C35.3018 40.4444 38.3133 43.302 38.3413 43.33C38.4907 43.4778 38.6898 43.5556 38.8889 43.5556C39.0196 43.5556 39.1518 43.5229 39.2716 43.456C39.5764 43.2818 39.7289 42.9287 39.6433 42.5896Z" fill="#333333"/>
<path d="M18.6667 26.4444C20.8144 26.4444 22.5556 24.0069 22.5556 21C22.5556 17.9931 20.8144 15.5556 18.6667 15.5556C16.5189 15.5556 14.7778 17.9931 14.7778 21C14.7778 24.0069 16.5189 26.4444 18.6667 26.4444Z" fill="#333333"/>
<path d="M37.3333 26.4444C39.4811 26.4444 41.2222 24.0069 41.2222 21C41.2222 17.9931 39.4811 15.5556 37.3333 15.5556C35.1856 15.5556 33.4444 17.9931 33.4444 21C33.4444 24.0069 35.1856 26.4444 37.3333 26.4444Z" fill="#333333"/>
</g>
</g>
</svg>
