<svg width="24" height="24" viewBox="0 0 24 24" fill="none" xmlns="http://www.w3.org/2000/svg">
<path d="M5.10216 5.10211C5.19769 5.00635 5.31117 4.93037 5.4361 4.87853C5.56104 4.82668 5.69497 4.8 5.83023 4.8C5.9655 4.8 6.09943 4.82668 6.22437 4.87853C6.3493 4.93037 6.46278 5.00635 6.5583 5.10211L12.0003 10.5462L17.4423 5.10211C17.5379 5.0065 17.6514 4.93066 17.7764 4.87891C17.9013 4.82717 18.0352 4.80054 18.1704 4.80054C18.3056 4.80054 18.4395 4.82717 18.5644 4.87891C18.6894 4.93066 18.8029 5.0065 18.8985 5.10211C18.9941 5.19773 19.0699 5.31123 19.1217 5.43616C19.1734 5.56108 19.2 5.69497 19.2 5.83018C19.2 5.9654 19.1734 6.09929 19.1217 6.22421C19.0699 6.34914 18.9941 6.46264 18.8985 6.55825L13.4544 12.0003L18.8985 17.4423C18.9941 17.5379 19.0699 17.6514 19.1217 17.7763C19.1734 17.9012 19.2 18.0351 19.2 18.1704C19.2 18.3056 19.1734 18.4395 19.1217 18.5644C19.0699 18.6893 18.9941 18.8028 18.8985 18.8984C18.8029 18.994 18.6894 19.0699 18.5644 19.1216C18.4395 19.1734 18.3056 19.2 18.1704 19.2C18.0352 19.2 17.9013 19.1734 17.7764 19.1216C17.6514 19.0699 17.5379 18.994 17.4423 18.8984L12.0003 13.4544L6.5583 18.8984C6.46269 18.994 6.34919 19.0699 6.22426 19.1216C6.09934 19.1734 5.96545 19.2 5.83023 19.2C5.69502 19.2 5.56113 19.1734 5.4362 19.1216C5.31128 19.0699 5.19778 18.994 5.10216 18.8984C5.00655 18.8028 4.93071 18.6893 4.87896 18.5644C4.82722 18.4395 4.80059 18.3056 4.80059 18.1704C4.80059 18.0351 4.82722 17.9012 4.87896 17.7763C4.93071 17.6514 5.00655 17.5379 5.10216 17.4423L10.5462 12.0003L5.10216 6.55825C5.0064 6.46273 4.93042 6.34925 4.87858 6.22432C4.82673 6.09938 4.80005 5.96545 4.80005 5.83018C4.80005 5.69492 4.82673 5.56099 4.87858 5.43605C4.93042 5.31112 5.0064 5.19764 5.10216 5.10211Z" fill="#333333"/>
</svg>
