<svg width="24" height="24" viewBox="0 0 24 24" fill="none" xmlns="http://www.w3.org/2000/svg">
<path d="M2 6.67596V6C2 4.89543 2.89543 4 4 4H20C21.1046 4 22 4.89543 22 6V7.09408M2 6.67596V17.8258M2 6.67596L10.1649 12.2783M22 7.09408V17.8258M22 7.09408L14.1438 12.2783M22 17.8258V18C22 19.1046 21.1046 20 20 20H4C2.89543 20 2 19.1046 2 18V17.8258M22 17.8258L14.1438 12.2783M14.1438 12.2783L12.1155 13.6167L10.1649 12.2783M2 17.8258C4.72164 15.9766 10.1649 12.2783 10.1649 12.2783" stroke="#333333" stroke-width="0.8" stroke-linejoin="round"/>
</svg>
