<svg width="7" height="6" viewBox="0 0 7 6" fill="none" xmlns="http://www.w3.org/2000/svg">
<path id="Vector 337" d="M0.6786 5.11698C0.467062 5.29448 0.43947 5.60986 0.616971 5.8214C0.794472 6.03293 1.10985 6.06053 1.32139 5.88302L0.6786 5.11698ZM6.8604 1.04407C6.88447 0.768975 6.68097 0.526458 6.40588 0.502391L1.92301 0.11019C1.64791 0.0861227 1.4054 0.289618 1.38133 0.56471C1.35726 0.839801 1.56076 1.08232 1.83585 1.10638L5.82063 1.45501L5.47201 5.43979C5.44794 5.71488 5.65143 5.95739 5.92653 5.98146C6.20162 6.00553 6.44413 5.80203 6.4682 5.52694L6.8604 1.04407ZM1.32139 5.88302L6.6837 1.38351L6.04091 0.617466L0.6786 5.11698L1.32139 5.88302Z" fill="#333333"/>
</svg>
