<svg width="16" height="16" viewBox="0 0 16 16" fill="none" xmlns="http://www.w3.org/2000/svg">
<circle cx="8.00016" cy="8.00016" r="6.26667" stroke="#333333" stroke-width="0.8"/>
<path fill-rule="evenodd" clip-rule="evenodd" d="M7.70778 6.38774C7.11698 6.66297 6.6145 7.13757 6.11164 7.83148C6.03992 7.93043 6.03703 7.99056 6.1107 8.04374C6.16249 8.08113 6.19259 8.06917 6.26804 7.98868C6.27813 7.97783 6.27813 7.97783 6.28845 7.96664C6.35367 7.89602 6.4062 7.83608 6.51842 7.70577C6.8892 7.27518 7.07031 7.09795 7.35177 6.93586C7.59535 6.7956 7.80941 7.00173 7.76865 7.26552C7.75721 7.33958 7.73751 7.39423 7.68676 7.51158C7.66658 7.55826 7.65806 7.57856 7.6486 7.60345C7.55712 7.84394 7.48006 8.04455 7.3186 8.46352L7.31088 8.48356C7.26206 8.61024 7.26206 8.61024 7.21329 8.7369C7.00183 9.28647 6.87352 9.62347 6.74113 9.97987L6.73337 10.0008C6.70969 10.0643 6.68611 10.1279 6.66261 10.1915C6.51092 10.6029 6.42416 10.8702 6.35818 11.1545C6.34788 11.1987 6.34788 11.1987 6.33743 11.2437C6.30026 11.4045 6.28036 11.5081 6.26924 11.6147C6.25 11.7988 6.26547 11.9497 6.32335 12.0764C6.38885 12.2199 6.52958 12.3225 6.69015 12.3458C6.95763 12.3846 7.21572 12.3818 7.43678 12.3315C7.56118 12.3033 7.68426 12.2662 7.80504 12.2208C8.15471 12.0894 8.49158 11.8842 8.81786 11.6131C9.10335 11.3751 9.37347 11.0853 9.65667 10.7251C9.68136 10.6939 9.68135 10.6939 9.70596 10.6627C9.7915 10.5536 9.8334 10.4828 9.84905 10.408C9.86606 10.3267 9.79739 10.2444 9.7425 10.272C9.71537 10.2856 9.68699 10.3138 9.64375 10.3683C9.61282 10.408 9.59601 10.4292 9.57918 10.4483C9.51202 10.5243 9.44111 10.6021 9.36427 10.6843C9.2376 10.8199 9.10889 10.9525 8.92222 11.1412C8.82715 11.2374 8.70758 11.3214 8.57902 11.3846C8.37326 11.4857 8.18765 11.3583 8.20994 11.1302C8.22465 10.9796 8.26112 10.824 8.31566 10.6735C8.4348 10.3445 8.53221 10.0786 8.74772 9.49258C8.84118 9.23841 8.88153 9.12862 8.93194 8.99118C9.08137 8.58388 9.20066 8.25599 9.31416 7.93962C9.45437 7.54882 9.53358 7.25751 9.57025 6.95668C9.59794 6.72979 9.53481 6.51278 9.39085 6.36359C9.23122 6.1982 9.00418 6.12202 8.72141 6.12536C8.40854 6.12908 8.04358 6.23131 7.70778 6.38774ZM9.84931 3.69037C9.28707 3.47162 8.61241 3.84743 8.49944 4.44266C8.41753 4.87408 8.57869 5.24655 8.90763 5.40256C9.5597 5.7118 10.3423 5.21629 10.3423 4.49404C10.3423 4.09227 10.1707 3.81545 9.84931 3.69037Z" fill="#333333"/>
</svg>
