<svg width="16" height="22" viewBox="0 0 16 22" fill="none" xmlns="http://www.w3.org/2000/svg">
<g id="Group 3431">
<path id="Vector" d="M11.75 2.60001C11.5291 2.60001 11.35 2.7791 11.35 3.00001C11.35 3.22093 11.5291 3.40001 11.75 3.40001V2.60001ZM13.625 3.00001V2.60001V3.00001ZM0.5 19H0.1H0.5ZM2.375 3.00001V2.60001V3.00001ZM4.25 3.40001C4.47091 3.40001 4.65 3.22093 4.65 3.00001C4.65 2.7791 4.47091 2.60001 4.25 2.60001V3.40001ZM11.75 3.40001H13.625V2.60001H11.75V3.40001ZM13.625 3.40001C14.0076 3.40001 14.3801 3.56188 14.659 3.85938L15.2426 3.31222C14.8183 2.85958 14.237 2.60001 13.625 2.60001V3.40001ZM14.659 3.85938C14.9387 4.15775 15.1 4.56764 15.1 5.00001H15.9C15.9 4.37152 15.6662 3.764 15.2426 3.31222L14.659 3.85938ZM15.1 5.00001V19H15.9V5.00001H15.1ZM15.1 19C15.1 19.4324 14.9387 19.8423 14.659 20.1406L15.2426 20.6878C15.6662 20.236 15.9 19.6285 15.9 19H15.1ZM14.659 20.1406C14.3801 20.4381 14.0076 20.6 13.625 20.6V21.4C14.237 21.4 14.8183 21.1404 15.2426 20.6878L14.659 20.1406ZM13.625 20.6H2.375V21.4H13.625V20.6ZM2.375 20.6C1.99244 20.6 1.61989 20.4381 1.34099 20.1406L0.75736 20.6878C1.18172 21.1404 1.763 21.4 2.375 21.4V20.6ZM1.34099 20.1406C1.06127 19.8423 0.9 19.4324 0.9 19H0.1C0.1 19.6285 0.333821 20.236 0.75736 20.6878L1.34099 20.1406ZM0.9 19V5.00001H0.1V19H0.9ZM0.9 5.00001C0.9 4.56764 1.06127 4.15775 1.34099 3.85938L0.75736 3.31222C0.333821 3.764 0.1 4.37152 0.1 5.00001H0.9ZM1.34099 3.85938C1.61989 3.56188 1.99244 3.40001 2.375 3.40001V2.60001C1.763 2.60001 1.18172 2.85958 0.75736 3.31222L1.34099 3.85938ZM2.375 3.40001H4.25V2.60001H2.375V3.40001ZM5.18811 1.4H10.8131V0.6H5.18811V1.4ZM10.8131 1.4C11.086 1.4 11.3506 1.64392 11.3506 2H12.1506C12.1506 1.25151 11.5757 0.6 10.8131 0.6V1.4ZM11.3506 2V4H12.1506V2H11.3506ZM11.3506 4C11.3506 4.35608 11.086 4.6 10.8131 4.6V5.4C11.5757 5.4 12.1506 4.74849 12.1506 4H11.3506ZM10.8131 4.6H5.18811V5.4H10.8131V4.6ZM5.18811 4.6C4.91518 4.6 4.65061 4.35608 4.65061 4H3.85061C3.85061 4.74849 4.4255 5.4 5.18811 5.4V4.6ZM4.65061 4V2H3.85061V4H4.65061ZM4.65061 2C4.65061 1.64392 4.91518 1.4 5.18811 1.4V0.6C4.4255 0.6 3.85061 1.25151 3.85061 2H4.65061ZM1.68663 8.55235H8.71787V7.75235H1.68663V8.55235ZM1.68663 12.0523H6.84287V11.2523H1.68663V12.0523ZM1.68663 16.0523H4.96787V15.2523H1.68663V16.0523Z" fill="#333333"/>
<path id="Vector_2" d="M9.99988 10.5625C9.99988 9.69956 10.6715 9 11.4999 9C12.3283 9 12.9999 9.69956 12.9999 10.5625C12.9999 11.1354 12.7039 11.6362 12.2626 11.9082C11.8823 12.1426 11.4999 12.4981 11.4999 12.9583V14" stroke="#333333" stroke-width="0.8" stroke-linecap="round"/>
<path id="Vector_3" d="M11.9 15.5C11.9 15.7209 11.7209 15.9 11.5 15.9C11.2791 15.9 11.1 15.7209 11.1 15.5C11.1 15.2791 11.2791 15.1 11.5 15.1C11.7209 15.1 11.9 15.2791 11.9 15.5Z" fill="#333333" stroke="#333333" stroke-width="0.2"/>
</g>
</svg>
