<svg width="20" height="21" viewBox="0 0 20 21" fill="none" xmlns="http://www.w3.org/2000/svg">
<mask id="path-1-inside-1_568_5840" fill="white">
<path d="M16.1872 16.5202C14.5462 18.1611 12.3206 19.083 10 19.083C7.67936 19.083 5.45376 18.1611 3.81282 16.5202C2.17187 14.8792 1.25 12.6537 1.25 10.333C1.25 8.01236 2.17187 5.78677 3.81282 4.14582C5.45376 2.50488 7.67936 1.58301 10 1.58301C12.3206 1.58301 14.5462 2.50488 16.1872 4.14582C17.8281 5.78677 18.75 8.01236 18.75 10.333C18.75 12.6537 17.8281 14.8792 16.1872 16.5202Z"/>
</mask>
<path d="M16.1872 16.5202L15.6215 15.9545L15.6215 15.9545L16.1872 16.5202ZM16.1872 4.14582L15.6215 4.71151V4.71151L16.1872 4.14582ZM3.81282 4.14582L3.24713 3.58014L3.24713 3.58014L3.81282 4.14582ZM3.81282 16.5202L4.3785 15.9545H4.3785L3.81282 16.5202ZM10 19.883C12.5328 19.883 14.9619 18.8769 16.7529 17.0859L15.6215 15.9545C14.1306 17.4454 12.1085 18.283 10 18.283V19.883ZM16.7529 17.0859C18.5438 15.2949 19.55 12.8658 19.55 10.333H17.95C17.95 12.4415 17.1124 14.4636 15.6215 15.9545L16.7529 17.0859ZM19.55 10.333C19.55 7.80019 18.5438 5.37111 16.7529 3.58014L15.6215 4.71151C17.1124 6.20242 17.95 8.22454 17.95 10.333H19.55ZM16.7529 3.58014C14.9619 1.78917 12.5328 0.783008 10 0.783008V2.38301C12.1085 2.38301 14.1306 3.22059 15.6215 4.71151L16.7529 3.58014ZM10 0.783008C7.46718 0.783008 5.0381 1.78917 3.24713 3.58014L4.3785 4.71151C5.86942 3.22059 7.89153 2.38301 10 2.38301V0.783008ZM3.24713 3.58014C1.45616 5.37111 0.45 7.80019 0.45 10.333H2.05C2.05 8.22454 2.88759 6.20242 4.3785 4.71151L3.24713 3.58014ZM0.45 10.333C0.45 12.8658 1.45616 15.2949 3.24713 17.0859L4.3785 15.9545C2.88759 14.4636 2.05 12.4415 2.05 10.333H0.45ZM3.24713 17.0859C5.0381 18.8769 7.46718 19.883 10 19.883V18.283C7.89153 18.283 5.86942 17.4454 4.3785 15.9545L3.24713 17.0859Z" fill="#333333" mask="url(#path-1-inside-1_568_5840)"/>
<path d="M9.84375 5.87988C9.84375 5.73484 9.78613 5.59574 9.68357 5.49318C9.58102 5.39062 9.44192 5.33301 9.29688 5.33301C9.15183 5.33301 9.01274 5.39062 8.91018 5.49318C8.80762 5.59574 8.75 5.73484 8.75 5.87988V11.8955C8.75003 11.9919 8.77554 12.0866 8.82394 12.1699C8.87235 12.2533 8.94192 12.3224 9.02562 12.3702L12.8538 14.5577C12.9794 14.6256 13.1266 14.6417 13.2639 14.6025C13.4012 14.5633 13.5177 14.4719 13.5886 14.3479C13.6594 14.2239 13.679 14.0772 13.643 13.9389C13.6071 13.8007 13.5185 13.6821 13.3963 13.6083L9.84375 11.5783V5.87988Z" fill="#333333"/>
</svg>
