<svg width="24" height="24" viewBox="0 0 24 24" fill="none" xmlns="http://www.w3.org/2000/svg">
<g id="1.WA.INFOHUESPED">
<path id="Vector" d="M10.5387 9.90207C10.5387 9.61509 10.6238 9.33455 10.7832 9.09593C10.9426 8.85732 11.1693 8.67134 11.4344 8.56151C11.6995 8.45169 11.9913 8.42295 12.2728 8.47894C12.5542 8.53493 12.8128 8.67312 13.0157 8.87605C13.2186 9.07898 13.3568 9.33753 13.4128 9.619C13.4688 9.90047 13.4401 10.1922 13.3302 10.4574C13.2204 10.7225 13.0344 10.9491 12.7958 11.1086C12.5572 11.268 12.2767 11.3531 11.9897 11.3531C11.6048 11.3531 11.2358 11.2002 10.9637 10.9281C10.6915 10.656 10.5387 10.2869 10.5387 9.90207ZM9.55499 5.06127H14.4162C14.4974 5.06127 14.5753 5.02902 14.6327 4.97161C14.6901 4.9142 14.7223 4.83634 14.7223 4.75515V3.46536C14.7218 3.38453 14.6893 3.30719 14.6319 3.25022C14.5746 3.19325 14.497 3.16128 14.4162 3.16128H13.1223V3.13679C13.1219 2.96175 13.0811 2.78916 13.0033 2.63239C12.9254 2.47562 12.8125 2.33886 12.6733 2.23271C12.4758 2.08177 12.2342 2 11.9856 2C11.737 2 11.4953 2.08177 11.2978 2.23271C11.1433 2.35469 11.0224 2.51416 10.9468 2.69597C10.8894 2.83587 10.8596 2.98556 10.8591 3.13679V3.16128H9.55499C9.47416 3.16128 9.3966 3.19325 9.33925 3.25022C9.2819 3.30719 9.24941 3.38453 9.24887 3.46536V4.76127C9.25047 4.8414 9.28343 4.9177 9.34067 4.97379C9.3979 5.02988 9.47485 5.06129 9.55499 5.06127ZM19.0346 5.43882V21.0224C19.0348 21.1509 19.0097 21.2781 18.9607 21.3969C18.9117 21.5156 18.8397 21.6235 18.7488 21.7143C18.658 21.8051 18.5501 21.8771 18.4314 21.9261C18.3127 21.9752 18.1855 22.0003 18.057 22H5.87745C5.749 22.0003 5.62177 21.9752 5.50304 21.9261C5.38432 21.8771 5.27645 21.8051 5.18562 21.7143C5.09479 21.6235 5.0228 21.5156 4.97377 21.3969C4.92474 21.2781 4.89964 21.1509 4.8999 21.0224V5.44495C4.8999 5.18568 5.0029 4.93704 5.18622 4.75371C5.36955 4.57039 5.61819 4.4674 5.87745 4.4674H8.32642V4.76127C8.32961 5.08504 8.45965 5.39464 8.68859 5.62359C8.91754 5.85254 9.22715 5.98257 9.55091 5.98576H14.4162C14.74 5.98257 15.0496 5.85254 15.2785 5.62359C15.5075 5.39464 15.6375 5.08504 15.6407 4.76127V4.4674H18.057C18.3163 4.4674 18.5649 4.57039 18.7482 4.75371C18.9316 4.93704 19.0346 5.18568 19.0346 5.44495V5.43882ZM8.19785 13.1715C8.19785 13.3338 8.26236 13.4896 8.37718 13.6044C8.49199 13.7192 8.64772 13.7837 8.8101 13.7837H9.48356V13.3347C9.48353 13.0025 9.56823 12.6758 9.72964 12.3855C9.89105 12.0952 10.1238 11.8508 10.406 11.6755C10.8394 12.064 11.4003 12.2798 11.9822 12.282C12.5642 12.2843 13.1268 12.0728 13.5631 11.6878C13.8391 11.8649 14.0662 12.1086 14.2234 12.3963C14.3807 12.6841 14.4631 13.0068 14.4631 13.3347V13.7817H15.1162C15.2786 13.7817 15.4343 13.7172 15.5491 13.6023C15.6639 13.4875 15.7284 13.3318 15.7284 13.1694V8.14494C15.7284 7.98256 15.6639 7.82683 15.5491 7.71202C15.4343 7.5972 15.2786 7.53269 15.1162 7.53269H12.2346C12.1529 7.52453 12.0713 7.52045 11.9897 7.52045C11.908 7.52045 11.8264 7.52453 11.7448 7.53269H8.80806C8.64568 7.53269 8.48995 7.5972 8.37513 7.71202C8.26032 7.82683 8.19581 7.98256 8.19581 8.14494L8.19785 13.1715ZM16.2733 19.4225C16.2733 19.2994 16.2246 19.1814 16.1378 19.0942C16.051 19.0069 15.9331 18.9577 15.8101 18.9571H8.11214C7.99432 18.965 7.88388 19.0173 7.8032 19.1035C7.72252 19.1897 7.67763 19.3034 7.67763 19.4214C7.67763 19.5395 7.72252 19.6532 7.8032 19.7394C7.88388 19.8256 7.99432 19.8779 8.11214 19.8857H15.8101C15.9329 19.8857 16.0508 19.8369 16.1377 19.75C16.2245 19.6632 16.2733 19.5453 16.2733 19.4225ZM16.2733 16.8204C16.2733 16.6974 16.2246 16.5793 16.1378 16.4921C16.051 16.4049 15.9331 16.3557 15.8101 16.3551H8.11214C7.99432 16.3629 7.88388 16.4152 7.8032 16.5015C7.72252 16.5877 7.67763 16.7013 7.67763 16.8194C7.67763 16.9375 7.72252 17.0511 7.8032 17.1373C7.88388 17.2236 7.99432 17.2759 8.11214 17.2837H15.8101C15.9329 17.2837 16.0508 17.2349 16.1377 17.148C16.2245 17.0611 16.2733 16.9433 16.2733 16.8204Z" fill="#333333"/>
</g>
</svg>
