<svg width="25" height="24" viewBox="0 0 25 24" fill="none" xmlns="http://www.w3.org/2000/svg">
<path d="M16.9188 9.8079L18.454 6.97587C18.5547 6.78838 18.5189 6.64461 18.3461 6.54351C18.1586 6.45633 18.0145 6.50051 17.9137 6.67291L16.3571 9.52758C14.9873 8.92197 13.5386 8.61861 12.0109 8.61861C10.4828 8.61861 9.03395 8.92203 7.66471 9.52758L6.10798 6.67291C6.00682 6.50051 5.86272 6.45672 5.67562 6.54351C5.50244 6.64506 5.46659 6.78838 5.56775 6.97587L7.10302 9.8079C5.54628 10.6018 4.30644 11.7074 3.38394 13.1272C2.46144 14.5478 2 16.1001 2 17.7871H22C22 16.1005 21.5385 14.5481 20.6161 13.1272C19.6935 11.7074 18.4608 10.6018 16.9188 9.8079ZM8.04295 13.9271C7.87693 14.0936 7.67863 14.1764 7.44814 14.1764C7.21719 14.1764 7.02293 14.0936 6.86446 13.9271C6.70598 13.7615 6.62674 13.564 6.62674 13.3327C6.62674 13.1022 6.70598 12.9043 6.86446 12.7383C7.02293 12.5727 7.21765 12.4899 7.44814 12.4899C7.67863 12.4899 7.87693 12.5727 8.04295 12.7383C8.20858 12.9047 8.29179 13.1022 8.29179 13.3327C8.29134 13.5636 8.20819 13.7615 8.04295 13.9271ZM17.1564 13.9271C16.9976 14.0936 16.8029 14.1764 16.5728 14.1764C16.3418 14.1764 16.1436 14.0936 15.9779 13.9271C15.8119 13.7615 15.7291 13.564 15.7291 13.3327C15.7291 13.1022 15.8119 12.9043 15.9779 12.7383C16.1436 12.5727 16.3418 12.4899 16.5728 12.4899C16.8033 12.4899 16.9976 12.5727 17.1564 12.7383C17.315 12.9047 17.3941 13.1022 17.3941 13.3327C17.3941 13.5636 17.315 13.7615 17.1564 13.9271Z" fill="white"/>
</svg>
