<svg width="20" height="20" viewBox="0 0 20 20" fill="none" xmlns="http://www.w3.org/2000/svg">
<g id="arrow-up-from-bracket" clip-path="url(#clip0_2607_245)">
<path id="Primary" d="M10.908 0.366229C10.4058 -0.122076 9.59018 -0.122076 9.08795 0.366229L3.94509 5.36647C3.44286 5.85478 3.44286 6.64779 3.94509 7.13609C4.44732 7.6244 5.26295 7.6244 5.76518 7.13609L8.71429 4.26876V12.4996C8.71429 13.1911 9.28884 13.7497 10 13.7497C10.7112 13.7497 11.2857 13.1911 11.2857 12.4996V4.26876L14.2348 7.13609C14.7371 7.6244 15.5527 7.6244 16.0549 7.13609C16.5571 6.64779 16.5571 5.85478 16.0549 5.36647L10.9121 0.366229H10.908ZM3.57143 13.7497C3.57143 13.0583 2.99688 12.4996 2.28571 12.4996C1.57455 12.4996 1 13.0583 1 13.7497V16.2498C1 18.3202 2.72768 20 4.85714 20H15.1429C17.2723 20 19 18.3202 19 16.2498V13.7497C19 13.0583 18.4254 12.4996 17.7143 12.4996C17.0031 12.4996 16.4286 13.0583 16.4286 13.7497V16.2498C16.4286 16.9413 15.854 17.4999 15.1429 17.4999H4.85714C4.14598 17.4999 3.57143 16.9413 3.57143 16.2498V13.7497Z" fill="#333333"/>
</g>
<defs>
<clipPath id="clip0_2607_245">
<rect width="20" height="20" fill="white"/>
</clipPath>
</defs>
</svg>
