<svg width="27" height="28" viewBox="0 0 27 28" fill="none" xmlns="http://www.w3.org/2000/svg">
<g id="arrow-up-from-bracket">
<path id="Primary" d="M14.0748 4.03287C13.5726 3.54457 12.7569 3.54457 12.2547 4.03287L7.11184 9.03312C6.60961 9.52142 6.60961 10.3144 7.11184 10.8027C7.61407 11.291 8.42969 11.291 8.93193 10.8027L11.881 7.93541V16.1663C11.881 16.8577 12.4556 17.4163 13.1667 17.4163C13.8779 17.4163 14.4525 16.8577 14.4525 16.1663V7.93541L17.4016 10.8027C17.9038 11.291 18.7194 11.291 19.2217 10.8027C19.7239 10.3144 19.7239 9.52142 19.2217 9.03312L14.0788 4.03287H14.0748ZM6.73818 17.4163C6.73818 16.7249 6.16362 16.1663 5.45246 16.1663C4.7413 16.1663 4.16675 16.7249 4.16675 17.4163V19.9165C4.16675 21.9869 5.89443 23.6666 8.02389 23.6666H18.3096C20.4391 23.6666 22.1667 21.9869 22.1667 19.9165V17.4163C22.1667 16.7249 21.5922 16.1663 20.881 16.1663C20.1699 16.1663 19.5953 16.7249 19.5953 17.4163V19.9165C19.5953 20.6079 19.0208 21.1665 18.3096 21.1665H8.02389C7.31273 21.1665 6.73818 20.6079 6.73818 19.9165V17.4163Z" fill="#333333"/>
</g>
</svg>
