<svg width="32" height="32" viewBox="0 0 32 32" fill="none" xmlns="http://www.w3.org/2000/svg">
<g filter="url(#filter0_d_312_3824)">
<rect x="4" y="2" width="24" height="24" rx="12" fill="white" shape-rendering="crispEdges"/>
<path d="M23 14.875C23.4832 14.875 23.875 14.4832 23.875 14C23.875 13.5168 23.4832 13.125 23 13.125V14.875ZM8.38128 13.3813C8.03957 13.723 8.03957 14.277 8.38128 14.6187L13.9497 20.1872C14.2915 20.5289 14.8455 20.5289 15.1872 20.1872C15.5289 19.8455 15.5289 19.2915 15.1872 18.9497L10.2374 14L15.1872 9.05025C15.5289 8.70854 15.5289 8.15452 15.1872 7.81282C14.8455 7.47111 14.2915 7.47111 13.9497 7.81282L8.38128 13.3813ZM23 13.125H9V14.875H23V13.125Z" fill="#333333"/>
</g>
<defs>
<filter id="filter0_d_312_3824" x="0" y="0" width="32" height="32" filterUnits="userSpaceOnUse" color-interpolation-filters="sRGB">
<feFlood flood-opacity="0" result="BackgroundImageFix"/>
<feColorMatrix in="SourceAlpha" type="matrix" values="0 0 0 0 0 0 0 0 0 0 0 0 0 0 0 0 0 0 127 0" result="hardAlpha"/>
<feOffset dy="2"/>
<feGaussianBlur stdDeviation="2"/>
<feComposite in2="hardAlpha" operator="out"/>
<feColorMatrix type="matrix" values="0 0 0 0 0 0 0 0 0 0 0 0 0 0 0 0 0 0 0.15 0"/>
<feBlend mode="normal" in2="BackgroundImageFix" result="effect1_dropShadow_312_3824"/>
<feBlend mode="normal" in="SourceGraphic" in2="effect1_dropShadow_312_3824" result="shape"/>
</filter>
</defs>
</svg>
