<svg width="20" height="20" viewBox="0 0 20 20" fill="none" xmlns="http://www.w3.org/2000/svg">
<path opacity="0.9" d="M2.18753 18.3332C2.11909 18.3333 2.05129 18.3199 1.98802 18.2938C1.92475 18.2677 1.86724 18.2294 1.81878 18.1811C1.75525 18.1174 1.70929 18.0384 1.68537 17.9517C1.66146 17.865 1.66041 17.7735 1.68232 17.6863L2.63232 13.8863C1.99933 12.6886 1.66788 11.3546 1.6667 9.99984C1.66918 7.79046 2.54795 5.67229 4.11022 4.11002C5.67248 2.54776 7.79065 1.66899 10 1.6665C12.2094 1.66899 14.3276 2.54776 15.8898 4.11002C17.4521 5.67229 18.3309 7.79046 18.3334 9.99984C18.3309 12.2092 17.4521 14.3274 15.8898 15.8897C14.3276 17.4519 12.2094 18.3307 10 18.3332C8.64528 18.3323 7.3112 18.0008 6.11357 17.3675L2.31357 18.3175C2.27235 18.3279 2.23002 18.3331 2.18753 18.3332ZM6.18336 16.2925C6.27271 16.2928 6.36053 16.3157 6.43857 16.3592C7.52656 16.9692 8.75272 17.2902 10 17.2915C11.9332 17.2893 13.7866 16.5204 15.1536 15.1534C16.5206 13.7864 17.2895 11.933 17.2917 9.99984C17.2895 8.06664 16.5206 6.21326 15.1536 4.84629C13.7866 3.47931 11.9332 2.71038 10 2.70817C8.06684 2.71038 6.21345 3.47931 4.84648 4.84629C3.4795 6.21326 2.71057 8.06664 2.70836 9.99984C2.71145 11.2476 3.03421 12.4737 3.64586 13.5613C3.7109 13.6772 3.72916 13.8136 3.6969 13.9425L2.90836 17.0967L6.06253 16.3082C6.10206 16.2983 6.14261 16.293 6.18336 16.2925Z" fill="#333333"/>
</svg>
