<svg width="14" height="12" viewBox="0 0 14 12" fill="none" xmlns="http://www.w3.org/2000/svg">
<path d="M11.798 0.374498C11.7857 0.386394 11.7742 0.399055 11.7635 0.412405L5.7795 8.03675L2.17322 4.42875C1.92825 4.20049 1.60425 4.07622 1.26946 4.08213C0.934681 4.08803 0.615259 4.22365 0.378494 4.46042C0.14173 4.69718 0.0061082 5.01661 0.00020133 5.35139C-0.00570554 5.68617 0.118563 6.01018 0.346828 6.25515L4.90593 10.816C5.02875 10.9386 5.175 11.0352 5.33596 11.1C5.49693 11.1649 5.6693 11.1966 5.84281 11.1934C6.01631 11.1902 6.18739 11.1521 6.34584 11.0813C6.50429 11.0105 6.64687 10.9086 6.76506 10.7815L13.6433 2.18366C13.8775 1.93784 14.0056 1.60972 13.9998 1.27024C13.994 0.930757 13.8549 0.607189 13.6124 0.369492C13.37 0.131795 13.0437 -0.000931841 12.7042 4.92514e-06C12.3646 0.000941692 12.0391 0.135467 11.798 0.374498Z" fill="#333333"/>
</svg>
