<svg width="32" height="33" viewBox="0 0 32 33" fill="none" xmlns="http://www.w3.org/2000/svg">
<g id="Check circle">
<g id="Vector">
<path d="M32 16.5C32 25.3366 24.8366 32.5 16 32.5C7.16344 32.5 0 25.3366 0 16.5C0 7.66344 7.16344 0.5 16 0.5C24.8366 0.5 32 7.66344 32 16.5Z" fill="#FAFAFA"/>
<path d="M22.8543 9.035C22.8367 9.05199 22.8203 9.07008 22.805 9.08915L14.2564 19.9811L9.10461 14.8268C8.75465 14.5007 8.29178 14.3232 7.81352 14.3316C7.33526 14.34 6.87894 14.5338 6.54071 14.872C6.20247 15.2103 6.00873 15.6666 6.00029 16.1448C5.99185 16.6231 6.16938 17.086 6.49547 17.4359L13.0085 23.9514C13.1839 24.1265 13.3929 24.2645 13.6228 24.3572C13.8528 24.4498 14.099 24.4952 14.3469 24.4906C14.5947 24.486 14.8391 24.4315 15.0655 24.3304C15.2918 24.2293 15.4955 24.0837 15.6644 23.9022L25.4905 11.6195C25.8251 11.2683 26.008 10.7996 25.9997 10.3146C25.9915 9.82965 25.7927 9.36741 25.4463 9.02785C25.0999 8.68828 24.6339 8.49867 24.1488 8.50001C23.6638 8.50134 23.1987 8.69352 22.8543 9.035Z" fill="#1B8632"/>
</g>
</g>
</svg>
