<svg width="24" height="24" viewBox="0 0 24 24" fill="none" xmlns="http://www.w3.org/2000/svg">
<path d="M5.10216 5.1029C5.19769 5.00713 5.31117 4.93115 5.4361 4.87931C5.56104 4.82747 5.69497 4.80078 5.83023 4.80078C5.9655 4.80078 6.09943 4.82747 6.22437 4.87931C6.3493 4.93115 6.46278 5.00713 6.5583 5.1029L12.0003 10.547L17.4423 5.1029C17.5379 5.00728 17.6514 4.93144 17.7764 4.8797C17.9013 4.82795 18.0352 4.80132 18.1704 4.80132C18.3056 4.80132 18.4395 4.82795 18.5644 4.8797C18.6894 4.93144 18.8029 5.00728 18.8985 5.1029C18.9941 5.19851 19.0699 5.31201 19.1217 5.43694C19.1734 5.56186 19.2 5.69575 19.2 5.83097C19.2 5.96618 19.1734 6.10007 19.1217 6.225C19.0699 6.34992 18.9941 6.46343 18.8985 6.55904L13.4544 12.0011L18.8985 17.4431C18.9941 17.5387 19.0699 17.6522 19.1217 17.7771C19.1734 17.902 19.2 18.0359 19.2 18.1711C19.2 18.3063 19.1734 18.4402 19.1217 18.5652C19.0699 18.6901 18.9941 18.8036 18.8985 18.8992C18.8029 18.9948 18.6894 19.0707 18.5644 19.1224C18.4395 19.1741 18.3056 19.2008 18.1704 19.2008C18.0352 19.2008 17.9013 19.1741 17.7764 19.1224C17.6514 19.0707 17.5379 18.9948 17.4423 18.8992L12.0003 13.4551L6.5583 18.8992C6.46269 18.9948 6.34919 19.0707 6.22426 19.1224C6.09934 19.1741 5.96545 19.2008 5.83023 19.2008C5.69502 19.2008 5.56113 19.1741 5.4362 19.1224C5.31128 19.0707 5.19778 18.9948 5.10216 18.8992C5.00655 18.8036 4.93071 18.6901 4.87896 18.5652C4.82722 18.4402 4.80059 18.3063 4.80059 18.1711C4.80059 18.0359 4.82722 17.902 4.87896 17.7771C4.93071 17.6522 5.00655 17.5387 5.10216 17.4431L10.5462 12.0011L5.10216 6.55904C5.0064 6.46351 4.93042 6.35003 4.87858 6.2251C4.82673 6.10016 4.80005 5.96623 4.80005 5.83097C4.80005 5.6957 4.82673 5.56177 4.87858 5.43683C4.93042 5.3119 5.0064 5.19842 5.10216 5.1029Z" fill="#333333"/>
</svg>
