<svg width="19" height="19" viewBox="0 0 19 19" fill="none" xmlns="http://www.w3.org/2000/svg">
<path fill-rule="evenodd" clip-rule="evenodd" d="M13.6562 1.37407C13.4223 1.37407 13.1907 1.42014 12.9746 1.50966C12.7585 1.59918 12.5621 1.73038 12.3967 1.89579C12.2313 2.06119 12.1001 2.25755 12.0106 2.47366C11.9211 2.68978 11.875 2.9214 11.875 3.15532C11.875 3.38924 11.9211 3.62086 12.0106 3.83697C12.1001 4.05309 12.2313 4.24945 12.3967 4.41485C12.5621 4.58026 12.7585 4.71146 12.9746 4.80098C13.1907 4.8905 13.4223 4.93657 13.6562 4.93657C14.1287 4.93657 14.5817 4.7489 14.9158 4.41485C15.2498 4.0808 15.4375 3.62774 15.4375 3.15532C15.4375 2.6829 15.2498 2.22984 14.9158 1.89579C14.5817 1.56174 14.1287 1.37407 13.6562 1.37407ZM10.7469 2.56157C10.8832 1.89046 11.2472 1.2871 11.7775 0.853721C12.3077 0.420341 12.9714 0.183594 13.6562 0.183594C14.3411 0.183594 15.0048 0.420341 15.535 0.853721C16.0653 1.2871 16.4293 1.89046 16.5656 2.56157H19V3.74907H16.5656C16.4293 4.42018 16.0653 5.02354 15.535 5.45692C15.0048 5.8903 14.3411 6.12705 13.6562 6.12705C12.9714 6.12705 12.3077 5.8903 11.7775 5.45692C11.2472 5.02354 10.8832 4.42018 10.7469 3.74907H0V2.56157H10.7469ZM5.34375 7.31157C4.87133 7.31157 4.41827 7.49924 4.08422 7.83329C3.75017 8.16734 3.5625 8.6204 3.5625 9.09282C3.5625 9.56524 3.75017 10.0183 4.08422 10.3524C4.41827 10.6864 4.87133 10.8741 5.34375 10.8741C5.81617 10.8741 6.26924 10.6864 6.60328 10.3524C6.93733 10.0183 7.125 9.56524 7.125 9.09282C7.125 8.6204 6.93733 8.16734 6.60328 7.83329C6.26924 7.49924 5.81617 7.31157 5.34375 7.31157ZM2.43438 8.49907C2.57065 7.82796 2.93475 7.2246 3.46497 6.79122C3.9952 6.35784 4.65895 6.12109 5.34375 6.12109C6.02855 6.12109 6.6923 6.35784 7.22253 6.79122C7.75275 7.2246 8.11685 7.82796 8.25313 8.49907H19V9.68657H8.25313C8.11685 10.3577 7.75275 10.961 7.22253 11.3944C6.6923 11.8278 6.02855 12.0645 5.34375 12.0645C4.65895 12.0645 3.9952 11.8278 3.46497 11.3944C2.93475 10.961 2.57065 10.3577 2.43438 9.68657H0V8.49907H2.43438ZM13.6562 13.2491C13.1838 13.2491 12.7308 13.4367 12.3967 13.7708C12.0627 14.1048 11.875 14.5579 11.875 15.0303C11.875 15.5027 12.0627 15.9558 12.3967 16.2899C12.7308 16.6239 13.1838 16.8116 13.6562 16.8116C14.1287 16.8116 14.5817 16.6239 14.9158 16.2899C15.2498 15.9558 15.4375 15.5027 15.4375 15.0303C15.4375 14.5579 15.2498 14.1048 14.9158 13.7708C14.5817 13.4367 14.1287 13.2491 13.6562 13.2491ZM10.7469 14.4366C10.8832 13.7655 11.2472 13.1621 11.7775 12.7287C12.3077 12.2953 12.9714 12.0586 13.6562 12.0586C14.3411 12.0586 15.0048 12.2953 15.535 12.7287C16.0653 13.1621 16.4293 13.7655 16.5656 14.4366H19V15.6241H16.5656C16.4293 16.2952 16.0653 16.8985 15.535 17.3319C15.0048 17.7653 14.3411 18.002 13.6562 18.002C12.9714 18.002 12.3077 17.7653 11.7775 17.3319C11.2472 16.8985 10.8832 16.2952 10.7469 15.6241H0V14.4366H10.7469Z" fill="#333333"/>
</svg>
