<svg width="20" height="20" viewBox="0 0 20 20" fill="none" xmlns="http://www.w3.org/2000/svg">
<g clip-path="url(#clip0_740_10178)">
<path d="M0.839844 3.33008H19.1698V7.77341H0.839844V3.33008Z" fill="#FF9933"/>
<path d="M0.839844 7.77344H19.1698V12.2168H0.839844V7.77344Z" fill="white"/>
<path d="M0.839844 12.2168H19.1698V16.6601H0.839844V12.2168Z" fill="#128807"/>
<path d="M10.0049 11.7715C11.0172 11.7715 11.8379 10.9757 11.8379 9.99413C11.8379 9.01254 11.0172 8.2168 10.0049 8.2168C8.99254 8.2168 8.17188 9.01254 8.17188 9.99413C8.17188 10.9757 8.99254 11.7715 10.0049 11.7715Z" fill="#000088"/>
<path d="M10.0043 11.5498C10.8901 11.5498 11.6081 10.8535 11.6081 9.99462C11.6081 9.13572 10.8901 8.43945 10.0043 8.43945C9.11847 8.43945 8.40039 9.13572 8.40039 9.99462C8.40039 10.8535 9.11847 11.5498 10.0043 11.5498Z" fill="white"/>
<path d="M10.0044 10.3057C10.1815 10.3057 10.3251 10.1664 10.3251 9.99463C10.3251 9.82285 10.1815 9.68359 10.0044 9.68359C9.82721 9.68359 9.68359 9.82285 9.68359 9.99463C9.68359 10.1664 9.82721 10.3057 10.0044 10.3057Z" fill="#000088"/>
<path d="M11.5856 10.2784C11.6308 10.2842 11.6722 10.2533 11.6782 10.2095C11.6841 10.1658 11.6523 10.1256 11.6072 10.1198C11.562 10.114 11.5206 10.1449 11.5146 10.1887C11.5087 10.2325 11.5405 10.2726 11.5856 10.2784Z" fill="#000088"/>
<path d="M10.0062 11.5513L10.0612 10.6182L10.0062 10.1738L9.95117 10.6182L10.0062 11.5513Z" fill="#000088"/>
<path d="M11.4552 10.6651C11.497 10.6818 11.5453 10.6621 11.5629 10.621C11.5806 10.58 11.561 10.5332 11.5191 10.5165C11.4773 10.4998 11.429 10.5196 11.4114 10.5606C11.3937 10.6017 11.4133 10.6484 11.4552 10.6651Z" fill="#000088"/>
<path d="M9.58842 11.499L9.89099 10.6106L9.95827 10.1677L9.78694 10.5837L9.58842 11.499Z" fill="#000088"/>
<path d="M11.2254 11.0061C11.2613 11.0328 11.3131 11.0258 11.341 10.9905C11.369 10.9552 11.3626 10.905 11.3267 10.8783C11.2908 10.8517 11.239 10.8587 11.2111 10.894C11.1831 10.9292 11.1895 10.9794 11.2254 11.0061Z" fill="#000088"/>
<path d="M9.20234 11.343L9.73138 10.5606L9.91408 10.1493L9.63759 10.5081L9.20234 11.343Z" fill="#000088"/>
<path d="M10.9162 11.2803C10.9437 11.3152 10.9955 11.3215 11.0319 11.2944C11.0682 11.2673 11.0754 11.217 11.0479 11.1822C11.0204 11.1474 10.9686 11.1411 10.9322 11.1682C10.8959 11.1953 10.8887 11.2455 10.9162 11.2803Z" fill="#000088"/>
<path d="M8.87083 11.0961L9.59035 10.473L9.87629 10.1212L9.51355 10.3985L8.87083 11.0961Z" fill="#000088"/>
<path d="M10.5408 11.4647C10.5585 11.5058 10.6067 11.5256 10.6485 11.5089C10.6904 11.4923 10.7099 11.4455 10.6922 11.4044C10.6745 11.3634 10.6263 11.3436 10.5844 11.3602C10.5426 11.3769 10.5231 11.4236 10.5408 11.4647Z" fill="#000088"/>
<path d="M8.61506 10.7752L9.47579 10.3565L9.84437 10.0879L9.41985 10.2627L8.61506 10.7752Z" fill="#000088"/>
<path d="M10.1319 11.5489C10.1381 11.593 10.1795 11.6242 10.2244 11.6187C10.2693 11.6132 10.3007 11.573 10.2945 11.529C10.2882 11.4849 10.2468 11.4537 10.2019 11.4592C10.157 11.4647 10.1257 11.5049 10.1319 11.5489Z" fill="#000088"/>
<path d="M8.45568 10.3972L9.39931 10.2097L9.8271 10.0428L9.3701 10.1045L8.45568 10.3972Z" fill="#000088"/>
<path d="M9.71385 11.5258C9.70818 11.5693 9.74042 11.6095 9.78586 11.6155C9.8313 11.6215 9.87274 11.5911 9.87841 11.5476C9.88408 11.504 9.85183 11.4639 9.80639 11.4578C9.76095 11.4518 9.71952 11.4822 9.71385 11.5258Z" fill="#000088"/>
<path d="M8.40281 9.99197L9.365 10.0468L9.82264 10.0003L9.36426 9.94848L8.40281 9.99197Z" fill="#000088"/>
<path d="M9.3158 11.4008C9.29849 11.4415 9.31867 11.4883 9.36088 11.5053C9.40309 11.5223 9.45134 11.5031 9.46865 11.4624C9.48597 11.4217 9.46578 11.3749 9.42358 11.3579C9.38137 11.3409 9.33312 11.3601 9.3158 11.4008Z" fill="#000088"/>
<path d="M8.45716 9.59192L9.37291 9.8851L9.82971 9.94943L9.40099 9.78311L8.45716 9.59192Z" fill="#000088"/>
<path d="M8.96194 11.1803C8.93396 11.2156 8.94037 11.2658 8.97626 11.2924C9.01215 11.3191 9.06393 11.3121 9.09191 11.2768C9.11989 11.2415 9.11348 11.1913 9.07759 11.1646C9.0417 11.138 8.98992 11.145 8.96194 11.1803Z" fill="#000088"/>
<path d="M8.61577 9.21902L9.42056 9.73149L9.84508 9.90628L9.4765 9.63768L8.61577 9.21902Z" fill="#000088"/>
<path d="M8.68029 10.8782C8.6439 10.9053 8.63667 10.9555 8.66416 10.9903C8.69164 11.0251 8.74342 11.0313 8.77981 11.0042C8.8162 10.9771 8.82343 10.9269 8.79594 10.8921C8.76846 10.8573 8.71668 10.851 8.68029 10.8782Z" fill="#000088"/>
<path d="M8.86929 8.89541L9.50955 9.59272L9.87266 9.86832L9.58844 9.51623L8.86929 8.89541Z" fill="#000088"/>
<path d="M8.49187 10.5186C8.44959 10.5357 8.42929 10.5824 8.44653 10.6231C8.46378 10.6637 8.51203 10.6828 8.55431 10.6657C8.59659 10.6486 8.61688 10.6018 8.59964 10.5612C8.5824 10.5206 8.53415 10.5015 8.49187 10.5186Z" fill="#000088"/>
<path d="M9.20356 8.65113L9.63584 9.48576L9.91278 9.84338L9.73216 9.43181L9.20356 8.65113Z" fill="#000088"/>
<path d="M8.4029 10.1204C8.35754 10.1264 8.32543 10.1665 8.33119 10.2101C8.33694 10.2538 8.37837 10.2843 8.42373 10.2783C8.46909 10.2724 8.5012 10.2322 8.49544 10.1886C8.48969 10.145 8.44825 10.1145 8.4029 10.1204Z" fill="#000088"/>
<path d="M9.58977 8.4946L9.78386 9.40961L9.95586 9.8246L9.89167 9.38151L9.58977 8.4946Z" fill="#000088"/>
<path d="M8.42564 9.71137C8.38075 9.70586 8.33932 9.7371 8.33309 9.78115C8.32687 9.8252 8.35821 9.86537 8.4031 9.87088C8.44799 9.87639 8.48942 9.84515 8.49565 9.8011C8.50187 9.75705 8.47053 9.71687 8.42564 9.71137Z" fill="#000088"/>
<path d="M10.0093 8.44001L9.95269 9.37298L10.0003 9.81675L10.0537 9.3723L10.0093 8.44001Z" fill="#000088"/>
<path d="M8.55657 9.32512C8.51472 9.30843 8.46647 9.32817 8.4488 9.3692C8.43113 9.41023 8.45073 9.45702 8.49258 9.4737C8.53443 9.49038 8.58268 9.47064 8.60035 9.42961C8.61802 9.38858 8.59842 9.3418 8.55657 9.32512Z" fill="#000088"/>
<path d="M10.4214 8.49129L10.1188 9.37962L10.0515 9.82249L10.2228 9.40652L10.4214 8.49129Z" fill="#000088"/>
<path d="M8.78441 8.98413C8.74852 8.95748 8.69674 8.96448 8.66875 8.99976C8.64077 9.03504 8.64718 9.08525 8.68306 9.1119C8.71895 9.13855 8.77073 9.13155 8.79872 9.09627C8.8267 9.06099 8.8203 9.01078 8.78441 8.98413Z" fill="#000088"/>
<path d="M10.8075 8.64719L10.2784 9.42967L10.0957 9.84097L10.3722 9.4821L10.8075 8.64719Z" fill="#000088"/>
<path d="M9.09374 8.70984C9.06626 8.67503 9.01448 8.6688 8.97809 8.69593C8.94169 8.72305 8.93447 8.77326 8.96196 8.80807C8.98944 8.84288 9.04122 8.8491 9.07761 8.82198C9.114 8.79485 9.12122 8.74465 9.09374 8.70984Z" fill="#000088"/>
<path d="M11.1391 8.89404L10.4196 9.51736L10.1335 9.86907L10.4963 9.59172L11.1391 8.89404Z" fill="#000088"/>
<path d="M9.469 8.52747C9.45129 8.4864 9.40304 8.4666 9.36122 8.48325C9.31941 8.49989 9.29986 8.54668 9.31756 8.58775C9.33526 8.62882 9.38351 8.64862 9.42533 8.63197C9.46715 8.61533 9.4867 8.56854 9.469 8.52747Z" fill="#000088"/>
<path d="M11.3947 9.21896L10.534 9.63762L10.1654 9.90622L10.5899 9.73143L11.3947 9.21896Z" fill="#000088"/>
<path d="M9.87789 8.44132C9.87168 8.39726 9.83024 8.36601 9.78535 8.37151C9.74045 8.37701 9.70909 8.41719 9.71531 8.46124C9.72152 8.5053 9.76296 8.53656 9.80785 8.53105C9.85275 8.52555 9.88411 8.48537 9.87789 8.44132Z" fill="#000088"/>
<path d="M11.5541 9.59307L10.6105 9.78052L10.1827 9.94741L10.6397 9.8857L11.5541 9.59307Z" fill="#000088"/>
<path d="M10.296 8.46271C10.3016 8.41921 10.2693 8.37903 10.2238 8.37297C10.1784 8.36691 10.1369 8.39727 10.1313 8.44077C10.1257 8.48427 10.158 8.52444 10.2034 8.5305C10.2489 8.53656 10.2903 8.50621 10.296 8.46271Z" fill="#000088"/>
<path d="M11.6068 9.99791L10.6446 9.94292L10.1871 9.9885L10.6455 10.0401L11.6068 9.99791Z" fill="#000088"/>
<path d="M10.696 8.58776C10.7133 8.54711 10.693 8.50032 10.6508 8.48326C10.6085 8.46621 10.5602 8.48534 10.543 8.52599C10.5257 8.56665 10.546 8.61344 10.5882 8.63049C10.6305 8.64755 10.6787 8.62842 10.696 8.58776Z" fill="#000088"/>
<path d="M11.5546 10.397L10.6387 10.1037L10.1819 10.0391L10.6108 10.2053L11.5546 10.397Z" fill="#000088"/>
<path d="M11.0466 8.80997C11.0742 8.77504 11.0671 8.72484 11.0309 8.69783C10.9946 8.67082 10.9428 8.67723 10.9152 8.71216C10.8876 8.74708 10.8946 8.79729 10.9309 8.8243C10.9672 8.85131 11.019 8.84489 11.0466 8.80997Z" fill="#000088"/>
<path d="M11.3928 10.7725L10.5863 10.2597L10.162 10.0831L10.5318 10.3513L11.3928 10.7725Z" fill="#000088"/>
<path d="M11.3282 9.11013C11.3642 9.08336 11.3708 9.03315 11.343 8.99799C11.3151 8.96282 11.2633 8.95601 11.2273 8.98278C11.1913 9.00955 11.1847 9.05976 11.2126 9.09492C11.2404 9.13009 11.2922 9.13689 11.3282 9.11013Z" fill="#000088"/>
<path d="M11.1394 11.0933L10.4971 10.3957L10.1343 10.1188L10.4199 10.4706L11.1394 11.0933Z" fill="#000088"/>
<path d="M11.5185 9.47328C11.5604 9.45649 11.5802 9.40971 11.5627 9.36878C11.5451 9.32785 11.4969 9.30829 11.4549 9.32507C11.4129 9.34186 11.3931 9.38865 11.4107 9.42957C11.4282 9.4705 11.4765 9.49007 11.5185 9.47328Z" fill="#000088"/>
<path d="M10.8071 11.3407L10.3727 10.5058L10.0961 10.1474L10.2782 10.5588L10.8071 11.3407Z" fill="#000088"/>
<path d="M11.6055 9.87144C11.6505 9.8658 11.6821 9.82562 11.6761 9.78171C11.67 9.7378 11.6286 9.70678 11.5835 9.71243C11.5385 9.71808 11.5069 9.75825 11.5129 9.80216C11.519 9.84607 11.5604 9.87709 11.6055 9.87144Z" fill="#000088"/>
<path d="M10.4193 11.4969L10.2222 10.5817L10.0507 10.166L10.117 10.609L10.4193 11.4969Z" fill="#000088"/>
</g>
<defs>
<clipPath id="clip0_740_10178">
<rect x="0.839844" y="3.33008" width="18.33" height="13.33" rx="2" fill="white"/>
</clipPath>
</defs>
</svg>
