<svg width="24" height="24" viewBox="0 0 24 24" fill="none" xmlns="http://www.w3.org/2000/svg">
<path d="M3.21572 15.7509H20.8433C21.0674 15.7509 21.249 15.5405 21.249 15.281C21.249 9.73968 17.8757 5.13202 13.4775 4.29105C13.5186 4.13054 13.5415 3.96106 13.5415 3.78532C13.5415 2.80094 12.8499 2 12 2C11.15 2 10.4585 2.80088 10.4585 3.78532C10.4585 3.9652 10.4822 4.13862 10.5252 4.30239C6.15463 5.17181 2.81 9.76343 2.81 15.281C2.81 15.5405 2.99165 15.7509 3.21572 15.7509Z" fill="black"/>
<path d="M21.5943 17.3603H2.40572C2.1816 17.3603 2 17.5706 2 17.8302V21.5301C2 21.7896 2.1816 22 2.40572 22H21.5943C21.8184 22 22 21.7896 22 21.5301V17.8302C22 17.5706 21.8183 17.3603 21.5943 17.3603Z" fill="black"/>
</svg>
