<svg width="40" height="40" viewBox="0 0 40 40" fill="none" xmlns="http://www.w3.org/2000/svg">
<rect width="40" height="40" rx="20" fill="#333333"/>
<circle cx="20" cy="20" r="17.5" stroke="white"/>
<path d="M20 30C22.6522 30 25.1957 28.9464 27.0711 27.0711C28.9464 25.1957 30 22.6522 30 20C30 17.3478 28.9464 14.8043 27.0711 12.9289C25.1957 11.0536 22.6522 10 20 10C17.3478 10 14.8043 11.0536 12.9289 12.9289C11.0536 14.8043 10 17.3478 10 20C10 22.6522 11.0536 25.1957 12.9289 27.0711C14.8043 28.9464 17.3478 30 20 30ZM16.4102 22.7148C17.1094 23.5234 18.3047 24.375 20 24.375C21.6953 24.375 22.8906 23.5234 23.5898 22.7148C23.8164 22.4531 24.2109 22.4258 24.4727 22.6523C24.7344 22.8789 24.7617 23.2734 24.5352 23.5352C23.6641 24.5352 22.1523 25.625 20 25.625C17.8477 25.625 16.3359 24.5352 15.4648 23.5352C15.2383 23.2734 15.2656 22.8789 15.5273 22.6523C15.7891 22.4258 16.1836 22.4531 16.4102 22.7148ZM15.6406 18.125C15.6406 17.7935 15.7723 17.4755 16.0067 17.2411C16.2412 17.0067 16.5591 16.875 16.8906 16.875C17.2221 16.875 17.5401 17.0067 17.7745 17.2411C18.0089 17.4755 18.1406 17.7935 18.1406 18.125C18.1406 18.4565 18.0089 18.7745 17.7745 19.0089C17.5401 19.2433 17.2221 19.375 16.8906 19.375C16.5591 19.375 16.2412 19.2433 16.0067 19.0089C15.7723 18.7745 15.6406 18.4565 15.6406 18.125ZM23.1406 16.875C23.4721 16.875 23.7901 17.0067 24.0245 17.2411C24.2589 17.4755 24.3906 17.7935 24.3906 18.125C24.3906 18.4565 24.2589 18.7745 24.0245 19.0089C23.7901 19.2433 23.4721 19.375 23.1406 19.375C22.8091 19.375 22.4912 19.2433 22.2567 19.0089C22.0223 18.7745 21.8906 18.4565 21.8906 18.125C21.8906 17.7935 22.0223 17.4755 22.2567 17.2411C22.4912 17.0067 22.8091 16.875 23.1406 16.875Z" fill="#FAFAFA"/>
</svg>
