<svg width="40" height="40" viewBox="0 0 40 40" fill="none" xmlns="http://www.w3.org/2000/svg">
<rect width="40" height="40" rx="20" fill="#333333"/>
<circle cx="20" cy="20" r="17.5" stroke="white"/>
<path d="M20 20C21.364 20 22.6721 19.4732 23.6365 18.5355C24.601 17.5979 25.1429 16.3261 25.1429 15C25.1429 13.6739 24.601 12.4021 23.6365 11.4645C22.6721 10.5268 21.364 10 20 10C18.636 10 17.3279 10.5268 16.3635 11.4645C15.399 12.4021 14.8571 13.6739 14.8571 15C14.8571 16.3261 15.399 17.5979 16.3635 18.5355C17.3279 19.4732 18.636 20 20 20ZM18.1638 21.875C14.2063 21.875 11 24.9922 11 28.8398C11 29.4805 11.5344 30 12.1933 30H27.8067C28.4656 30 29 29.4805 29 28.8398C29 24.9922 25.7938 21.875 21.8362 21.875H18.1638Z" fill="#FAFAFA"/>
</svg>
