<svg width="40" height="40" viewBox="0 0 40 40" fill="none" xmlns="http://www.w3.org/2000/svg">
<rect width="40" height="40" rx="20" fill="#333333"/>
<circle cx="20" cy="20" r="17.5" stroke="white"/>
<path d="M12.2222 12C10.9965 12 10 13.025 10 14.2857V25.7143C10 26.975 10.9965 28 12.2222 28H27.7778C29.0035 28 30 26.975 30 25.7143V14.2857C30 13.025 29.0035 12 27.7778 12H12.2222ZM15 21.1429H17.2222C18.7569 21.1429 20 22.4214 20 24C20 24.3143 19.75 24.5714 19.4444 24.5714H12.7778C12.4722 24.5714 12.2222 24.3143 12.2222 24C12.2222 22.4214 13.4653 21.1429 15 21.1429ZM13.8889 17.7143C13.8889 17.1081 14.123 16.5267 14.5398 16.098C14.9565 15.6694 15.5217 15.4286 16.1111 15.4286C16.7005 15.4286 17.2657 15.6694 17.6825 16.098C18.0992 16.5267 18.3333 17.1081 18.3333 17.7143C18.3333 18.3205 18.0992 18.9019 17.6825 19.3305C17.2657 19.7592 16.7005 20 16.1111 20C15.5217 20 14.9565 19.7592 14.5398 19.3305C14.123 18.9019 13.8889 18.3205 13.8889 17.7143ZM22.7778 16.5714H27.2222C27.5278 16.5714 27.7778 16.8286 27.7778 17.1429C27.7778 17.4571 27.5278 17.7143 27.2222 17.7143H22.7778C22.4722 17.7143 22.2222 17.4571 22.2222 17.1429C22.2222 16.8286 22.4722 16.5714 22.7778 16.5714ZM22.7778 18.8571H27.2222C27.5278 18.8571 27.7778 19.1143 27.7778 19.4286C27.7778 19.7429 27.5278 20 27.2222 20H22.7778C22.4722 20 22.2222 19.7429 22.2222 19.4286C22.2222 19.1143 22.4722 18.8571 22.7778 18.8571ZM22.7778 21.1429H27.2222C27.5278 21.1429 27.7778 21.4 27.7778 21.7143C27.7778 22.0286 27.5278 22.2857 27.2222 22.2857H22.7778C22.4722 22.2857 22.2222 22.0286 22.2222 21.7143C22.2222 21.4 22.4722 21.1429 22.7778 21.1429Z" fill="#FAFAFA"/>
</svg>
