<svg width="16" height="17" viewBox="0 0 16 17" fill="none" xmlns="http://www.w3.org/2000/svg">
<g id="1.TH.IMAGES">
<g id="Vector" filter="url(#filter0_b_771_1955)">
<path d="M3.49794 10.6038L3.09794 10.6041V10.6041L3.49794 10.6038ZM3.63317 2.00949L3.98927 2.19169L3.98927 2.19168L3.63317 2.00949ZM4.17537 1.46955L4.35636 1.82626L4.35637 1.82625L4.17537 1.46955ZM13.9892 1.46955L13.8082 1.82625L13.8082 1.82625L13.9892 1.46955ZM14.5317 2.00949L14.1756 2.19165L14.1756 2.19171L14.5317 2.00949ZM3.63317 11.7823L3.27707 11.9645L3.27708 11.9645L3.63317 11.7823ZM4.17537 12.3229L4.35638 11.9662L4.35633 11.9662L4.17537 12.3229ZM13.9892 12.3229L13.8082 11.9662L13.8082 11.9662L13.9892 12.3229ZM14.5317 11.7823L14.1756 11.6001L14.1756 11.6002L14.5317 11.7823ZM6.45642 7.1665L6.16554 6.89193C6.16134 6.89638 6.15724 6.90092 6.15325 6.90556L6.45642 7.1665ZM6.4573 7.16557L6.74818 7.44014C6.75238 7.43569 6.75648 7.43114 6.76047 7.4265L6.4573 7.16557ZM7.00698 6.65294L6.87386 6.27574L6.87376 6.27578L7.00698 6.65294ZM7.42964 6.65597L7.56809 6.2807L7.56802 6.28067L7.42964 6.65597ZM7.97286 7.17676L8.27962 6.92005L8.27962 6.92005L7.97286 7.17676ZM9.63033 9.15745L9.9371 8.90075L9.93709 8.90075L9.63033 9.15745ZM10.1363 9.64524L9.98932 10.0172L9.98949 10.0173L10.1363 9.64524ZM10.5406 9.66279L10.4279 9.279L10.4278 9.27903L10.5406 9.66279ZM11.092 9.21998L11.3743 9.50341L11.3743 9.50341L11.092 9.21998ZM11.4004 8.91287L11.1182 8.62944L11.1182 8.62945L11.4004 8.91287ZM11.9613 8.46327L11.8509 8.07882L11.8507 8.07885L11.9613 8.46327ZM12.3703 8.4862L12.5224 8.11628L12.5223 8.1162L12.3703 8.4862ZM12.8778 8.99432L13.1896 8.74381L13.1896 8.7438L12.8778 8.99432ZM14.3553 11.4722C14.4938 11.6443 14.7456 11.6715 14.9177 11.5329C15.0898 11.3944 15.1169 11.1426 14.9784 10.9705L14.3553 11.4722ZM3.49791 3.15937H2.66683V3.95937H3.49791V3.15937ZM0.933496 4.8927V13.3348H1.7335V4.8927H0.933496ZM2.66683 15.0682H11.072V14.2682H2.66683V15.0682ZM12.8053 13.3348V12.4575H12.0053V13.3348H12.8053ZM11.072 15.0682C12.0293 15.0682 12.8053 14.2921 12.8053 13.3348H12.0053C12.0053 13.8503 11.5874 14.2682 11.072 14.2682V15.0682ZM0.933496 13.3348C0.933496 14.2921 1.70954 15.0682 2.66683 15.0682V14.2682C2.15136 14.2682 1.7335 13.8503 1.7335 13.3348H0.933496ZM2.66683 3.15937C1.70954 3.15937 0.933496 3.93541 0.933496 4.8927H1.7335C1.7335 4.37724 2.15136 3.95937 2.66683 3.95937V3.15937ZM3.89794 10.6034C3.89791 10.5637 3.89791 10.5227 3.89791 10.4802H3.09791C3.09791 10.5227 3.09791 10.564 3.09794 10.6041L3.89794 10.6034ZM3.89791 10.4802V3.31232H3.09791V10.4802H3.89791ZM3.89791 3.31232C3.89791 2.95963 3.89822 2.71919 3.91348 2.53319C3.92835 2.35188 3.95538 2.25791 3.98927 2.19169L3.27708 1.8273C3.1757 2.02543 3.1351 2.23681 3.11616 2.46779C3.0976 2.69408 3.09791 2.97288 3.09791 3.31232H3.89791ZM3.98927 2.19168C4.06967 2.03454 4.19798 1.90661 4.35636 1.82626L3.99438 1.11284C3.68573 1.26944 3.43462 1.51936 3.27707 1.82731L3.98927 2.19168ZM4.35637 1.82625C4.42343 1.79222 4.51841 1.7652 4.70084 1.75037C4.88786 1.73515 5.12954 1.73484 5.48362 1.73484V0.934845C5.14268 0.934845 4.86296 0.934536 4.63598 0.952999C4.4044 0.971835 4.19276 1.01217 3.99437 1.11284L4.35637 1.82625ZM5.48362 1.73484H12.6814V0.934845H5.48362V1.73484ZM12.6814 1.73484C13.0355 1.73484 13.277 1.73515 13.4639 1.75036C13.6462 1.7652 13.7411 1.7922 13.8082 1.82625L14.1702 1.11284C13.9718 1.01219 13.7603 0.971842 13.5288 0.953C13.3019 0.934536 13.0223 0.934845 12.6814 0.934845V1.73484ZM13.8082 1.82625C13.9668 1.90673 14.0953 2.03477 14.1756 2.19165L14.8878 1.82734C14.7302 1.51913 14.4786 1.26932 14.1702 1.11284L13.8082 1.82625ZM14.1756 2.19171C14.2094 2.25781 14.2364 2.35162 14.2513 2.5326C14.2665 2.71829 14.2668 2.95827 14.2668 3.31029H15.0668C15.0668 2.97152 15.0671 2.69316 15.0486 2.46717C15.0297 2.23648 14.9891 2.02528 14.8878 1.82728L14.1756 2.19171ZM14.2668 3.31029V10.482H15.0668V3.31029H14.2668ZM14.2668 10.482C14.2668 10.7861 14.2667 11.0075 14.2565 11.1846L15.0551 11.2307C15.067 11.0253 15.0668 10.7774 15.0668 10.482H14.2668ZM3.09794 10.6041C3.09818 10.9053 3.09993 11.1575 3.11993 11.367C3.14038 11.5812 3.18188 11.7785 3.27707 11.9645L3.98927 11.6001C3.95749 11.538 3.93162 11.4513 3.91631 11.291C3.90056 11.1259 3.89818 10.9129 3.89794 10.6034L3.09794 10.6041ZM3.27708 11.9645C3.4344 12.272 3.68529 12.5228 3.99441 12.6796L4.35633 11.9662C4.19842 11.8861 4.06989 11.7577 3.98927 11.6001L3.27708 11.9645ZM3.99435 12.6796C4.1926 12.7802 4.40406 12.8205 4.63535 12.8393C4.86203 12.8578 5.14132 12.8575 5.48158 12.8575V12.0575C5.12818 12.0575 4.88695 12.0572 4.70025 12.042C4.51814 12.0271 4.42333 12.0002 4.35638 11.9662L3.99435 12.6796ZM5.48158 12.8575H12.6835V12.0575H5.48158V12.8575ZM12.6835 12.8575C13.0237 12.8575 13.3029 12.8578 13.5295 12.8393C13.7607 12.8205 13.972 12.7802 14.1702 12.6796L13.8082 11.9662C13.7412 12.0002 13.6465 12.0272 13.4645 12.042C13.278 12.0572 13.0369 12.0575 12.6835 12.0575V12.8575ZM14.1702 12.6796C14.479 12.5229 14.7304 12.2722 14.8878 11.9645L14.1756 11.6002C14.0951 11.7575 13.9663 11.8859 13.8082 11.9662L14.1702 12.6796ZM14.8878 11.9645C15.0021 11.741 15.0396 11.4995 15.0551 11.2307L14.2565 11.1846C14.2432 11.415 14.2143 11.5245 14.1756 11.6001L14.8878 11.9645ZM3.80111 10.8647L6.75959 7.42744L6.15325 6.90556L3.19477 10.3428L3.80111 10.8647ZM6.7473 7.44107L6.74818 7.44014L6.16642 6.891L6.16554 6.89193L6.7473 7.44107ZM6.76047 7.4265C6.89631 7.26866 6.98175 7.16993 7.05159 7.10171C7.08447 7.06959 7.1067 7.05152 7.12152 7.04115C7.12857 7.03622 7.13332 7.03348 7.13607 7.03203C7.1387 7.03064 7.13996 7.03019 7.1402 7.03011L6.87376 6.27578C6.71671 6.33125 6.5957 6.4287 6.49257 6.52943C6.39214 6.62754 6.28067 6.7576 6.15412 6.90464L6.76047 7.4265ZM7.1401 7.03014C7.18894 7.01291 7.24239 7.01325 7.29125 7.03127L7.56802 6.28067C7.34439 6.19821 7.09887 6.19634 6.87386 6.27574L7.1401 7.03014ZM7.29118 7.03124C7.29147 7.03135 7.29277 7.03184 7.29542 7.03328C7.29817 7.03478 7.30291 7.03761 7.3099 7.04265C7.32461 7.05324 7.34661 7.07163 7.37908 7.10422C7.44803 7.17345 7.53223 7.27348 7.6661 7.43346L8.27962 6.92005C8.15485 6.77094 8.04506 6.63922 7.94588 6.53965C7.844 6.43738 7.72435 6.33835 7.56809 6.2807L7.29118 7.03124ZM7.6661 7.43346L9.32357 9.41415L9.93709 8.90075L8.27962 6.92005L7.6661 7.43346ZM9.32356 9.41414C9.43887 9.55195 9.5413 9.67487 9.63429 9.76865C9.73028 9.86544 9.84268 9.95928 9.98932 10.0172L10.2834 9.27324C10.2832 9.27318 10.278 9.27128 10.2657 9.26227C10.2523 9.25242 10.2322 9.2354 10.2023 9.20533C10.1387 9.14119 10.0612 9.04911 9.9371 8.90075L9.32356 9.41414ZM9.98949 10.0173C10.2026 10.1014 10.4362 10.1104 10.6534 10.0465L10.4278 9.27903C10.3789 9.2934 10.3281 9.2909 10.2832 9.27317L9.98949 10.0173ZM10.6533 10.0466C10.8049 10.002 10.9257 9.9186 11.0305 9.83047C11.1321 9.74511 11.2459 9.63131 11.3743 9.50341L10.8098 8.93655C10.6716 9.07418 10.5854 9.15954 10.5158 9.21807C10.4831 9.24553 10.4613 9.26079 10.4469 9.26947C10.4337 9.27741 10.4282 9.2789 10.4279 9.279L10.6533 10.0466ZM11.3743 9.50341L11.6827 9.1963L11.1182 8.62945L10.8098 8.93655L11.3743 9.50341ZM11.6827 9.1963C11.8233 9.05626 11.9112 8.96923 11.9822 8.90965C12.0155 8.88168 12.0378 8.86614 12.0525 8.85732C12.066 8.84923 12.0716 8.84777 12.0718 8.84769L11.8507 8.07885C11.6968 8.12311 11.5743 8.20759 11.4679 8.29688C11.3647 8.38347 11.249 8.49914 11.1182 8.62944L11.6827 9.1963ZM12.0717 8.84773C12.1192 8.83408 12.1711 8.8368 12.2183 8.85619L12.5223 8.1162C12.3098 8.02894 12.0731 8.01498 11.8509 8.07882L12.0717 8.84773ZM12.2181 8.85612C12.2184 8.85626 12.2238 8.85835 12.2363 8.86782C12.2499 8.87817 12.2703 8.89599 12.3002 8.92738C12.3641 8.99422 12.4417 9.09026 12.5659 9.24483L13.1896 8.7438C13.074 8.59986 12.9718 8.47223 12.8788 8.37485C12.7828 8.27438 12.6704 8.17714 12.5224 8.11628L12.2181 8.85612ZM12.5659 9.24483L14.3439 11.4582L14.9676 10.9571L13.1896 8.74381L12.5659 9.24483ZM14.3442 11.4585L14.3553 11.4722L14.9784 10.9705L14.9674 10.9568L14.3442 11.4585ZM10.9439 5.14151C10.6449 5.14151 10.4804 5.02798 10.3809 4.90066C10.2692 4.75765 10.2202 4.56925 10.2202 4.42446H9.42024C9.42024 4.71672 9.51125 5.08684 9.75046 5.3931C10.0019 5.71504 10.3992 5.94151 10.9439 5.94151V5.14151ZM10.2202 4.42446C10.2202 4.27623 10.2695 4.08969 10.38 3.9493C10.4784 3.82433 10.6427 3.71151 10.9439 3.71151V2.91151C10.4014 2.91151 10.0039 3.13368 9.7514 3.45445C9.51101 3.75981 9.42024 4.12974 9.42024 4.42446H10.2202ZM10.9439 3.71151C11.2465 3.71151 11.4079 3.82428 11.5037 3.94742C11.6119 4.08665 11.6602 4.27326 11.6602 4.42446H12.4602C12.4602 4.13271 12.3736 3.76285 12.1352 3.45634C11.8844 3.13374 11.4876 2.91151 10.9439 2.91151V3.71151ZM11.6602 4.42446C11.6602 4.5722 11.6122 4.7607 11.5027 4.90255C11.4059 5.02805 11.2443 5.14151 10.9439 5.14151V5.94151C11.4898 5.94151 11.8864 5.71497 12.1362 5.39121C12.3733 5.0838 12.4602 4.71377 12.4602 4.42446H11.6602Z" fill="white"/>
</g>
</g>
<defs>
<filter id="filter0_b_771_1955" x="-3.06641" y="-3.06516" width="22.1333" height="22.1333" filterUnits="userSpaceOnUse" color-interpolation-filters="sRGB">
<feFlood flood-opacity="0" result="BackgroundImageFix"/>
<feGaussianBlur in="BackgroundImageFix" stdDeviation="2"/>
<feComposite in2="SourceAlpha" operator="in" result="effect1_backgroundBlur_771_1955"/>
<feBlend mode="normal" in="SourceGraphic" in2="effect1_backgroundBlur_771_1955" result="shape"/>
</filter>
</defs>
</svg>
