<svg width="32" height="33" viewBox="0 0 32 33" fill="none" xmlns="http://www.w3.org/2000/svg">
<circle cx="15.9998" cy="16.9815" r="12.9333" stroke="#333333" stroke-width="0.8"/>
<path fill-rule="evenodd" clip-rule="evenodd" d="M15.4156 13.7572C14.234 14.3076 13.229 15.2568 12.2233 16.6446C12.0798 16.8426 12.0741 16.9628 12.2214 17.0692C12.325 17.1439 12.3852 17.12 12.5361 16.9591C12.5563 16.9374 12.5563 16.9374 12.5769 16.915C12.7073 16.7737 12.8124 16.6539 13.0368 16.3932C13.7784 15.5321 14.1406 15.1776 14.7035 14.8534C15.1907 14.5729 15.6188 14.9852 15.5373 15.5127C15.5144 15.6608 15.475 15.7702 15.3735 16.0048C15.3332 16.0982 15.3161 16.1388 15.2972 16.1886C15.1142 16.6696 14.9601 17.0708 14.6372 17.9087L14.6218 17.9488C14.5241 18.2022 14.5241 18.2022 14.4266 18.4555C14.0037 19.5546 13.747 20.2286 13.4823 20.9414L13.4667 20.9832C13.4194 21.1103 13.3722 21.2375 13.3252 21.3647C13.0218 22.1875 12.8483 22.7221 12.7164 23.2907C12.6958 23.3791 12.6958 23.3791 12.6749 23.4691C12.6005 23.7907 12.5607 23.998 12.5385 24.211C12.5 24.5794 12.5309 24.881 12.6467 25.1345C12.7777 25.4214 13.0592 25.6266 13.3803 25.6732C13.9153 25.7509 14.4314 25.7454 14.8736 25.6448C15.1224 25.5882 15.3685 25.5142 15.6101 25.4234C16.3094 25.1604 16.9832 24.7501 17.6357 24.2078C18.2067 23.732 18.7469 23.1522 19.3133 22.4318C19.3627 22.3694 19.3627 22.3694 19.4119 22.3071C19.583 22.089 19.6668 21.9473 19.6981 21.7976C19.7321 21.6352 19.5948 21.4705 19.485 21.5256C19.4307 21.5528 19.374 21.6092 19.2875 21.7183C19.2256 21.7976 19.192 21.8401 19.1584 21.8782C19.024 22.0303 18.8822 22.1859 18.7285 22.3504C18.4752 22.6214 18.2178 22.8866 17.8444 23.2641C17.6543 23.4564 17.4152 23.6245 17.158 23.7509C16.7465 23.9531 16.3753 23.6982 16.4199 23.2421C16.4493 22.9409 16.5222 22.6296 16.6313 22.3286C16.8696 21.6707 17.0644 21.1389 17.4954 19.9668C17.6824 19.4585 17.7631 19.2389 17.8639 18.9641C18.1627 18.1494 18.4013 17.4937 18.6283 16.8609C18.9087 16.0793 19.0672 15.4967 19.1405 14.8951C19.1959 14.4413 19.0696 14.0072 18.7817 13.7089C18.4624 13.3781 18.0084 13.2257 17.4428 13.2324C16.8171 13.2398 16.0872 13.4443 15.4156 13.7572ZM19.6986 8.36243C18.5741 7.92493 17.2248 8.67654 16.9989 9.86701C16.8351 10.7298 17.1574 11.4748 17.8153 11.7868C19.1194 12.4053 20.6845 11.4143 20.6846 9.96978C20.6847 9.16623 20.3415 8.61258 19.6986 8.36243Z" fill="#333333"/>
</svg>
