<svg width="24" height="24" viewBox="0 0 24 24" fill="none" xmlns="http://www.w3.org/2000/svg">
<g clip-path="url(#clip0_694_6651)">
<path d="M1 4H23V20H1V4Z" fill="#012169"/>
<path d="M3.57812 4L11.9656 10.0333L20.3188 4H23V6.06667L14.75 12.0333L23 17.9667V20H20.25L12 14.0333L3.78437 20H1V18L9.21562 12.0667L1 6.13333V4H3.57812Z" fill="white"/>
<path d="M15.575 13.3667L23 18.6667V20L13.6844 13.3667H15.575ZM9.25 14.0333L9.45625 15.2L2.85625 20H1L9.25 14.0333ZM23 4V4.1L14.4406 10.3667L14.5094 8.9L21.2812 4H23ZM1 4L9.21562 9.86667H7.15313L1 5.4V4Z" fill="#C8102E"/>
<path d="M9.28438 4V20H14.7844V4H9.28438ZM1 9.33333V14.6667H23V9.33333H1Z" fill="white"/>
<path d="M1 10.4333V13.6333H23V10.4333H1ZM10.3844 4V20H13.6844V4H10.3844Z" fill="#C8102E"/>
</g>
<defs>
<clipPath id="clip0_694_6651">
<rect x="1" y="4" width="22" height="16" rx="2" fill="white"/>
</clipPath>
</defs>
</svg>
