<svg width="24" height="24" viewBox="0 0 24 24" fill="none" xmlns="http://www.w3.org/2000/svg">
<path d="M19.8318 6.33609H4.1593C3.88316 6.33609 3.6593 6.55995 3.6593 6.83609V20.8405C3.6593 21.1166 3.88316 21.3405 4.1593 21.3405H19.8318C20.1079 21.3405 20.3318 21.1166 20.3318 20.8405V6.83609C20.3318 6.55995 20.1079 6.33609 19.8318 6.33609Z" fill="black" stroke="black" stroke-width="0.8" stroke-miterlimit="10"/>
<path d="M18.1638 3H5.82758C5.55143 3 5.32758 3.22386 5.32758 3.5V5.83624C5.32758 6.11239 5.55143 6.33624 5.82758 6.33624H18.1638C18.44 6.33624 18.6638 6.11239 18.6638 5.83624V3.5C18.6638 3.22386 18.44 3 18.1638 3Z" fill="black" stroke="black" stroke-width="0.8" stroke-miterlimit="10"/>
<path d="M12 16.3363V21.3406" stroke="white" stroke-width="0.8" stroke-miterlimit="10"/>
<path d="M15.6746 16.3363H8.33398C8.05784 16.3363 7.83398 16.5601 7.83398 16.8363V20.8406C7.83398 21.1168 8.05784 21.3406 8.33398 21.3406H15.6746C15.9507 21.3406 16.1746 21.1168 16.1746 20.8406V16.8363C16.1746 16.5601 15.9507 16.3363 15.6746 16.3363Z" stroke="white" stroke-width="0.8" stroke-miterlimit="10"/>
<path d="M2 21.3406H22" stroke="black" stroke-width="0.8" stroke-miterlimit="10"/>
<path d="M6.16595 9.67261H7.83408" stroke="white" stroke-width="0.8" stroke-miterlimit="10" stroke-linecap="round"/>
<path d="M9.50208 9.67261H11.1702" stroke="white" stroke-width="0.8" stroke-miterlimit="10" stroke-linecap="round"/>
<path d="M12.8296 9.67261H14.4977" stroke="white" stroke-width="0.8" stroke-miterlimit="10" stroke-linecap="round"/>
<path d="M16.1659 9.67261H17.834" stroke="white" stroke-width="0.8" stroke-miterlimit="10" stroke-linecap="round"/>
<path d="M6.16595 13.0002H7.83408" stroke="white" stroke-width="0.8" stroke-miterlimit="10" stroke-linecap="round"/>
<path d="M9.50208 13.0002H11.1702" stroke="white" stroke-width="0.8" stroke-miterlimit="10" stroke-linecap="round"/>
<path d="M12.8296 13.0002H14.4977" stroke="white" stroke-width="0.8" stroke-miterlimit="10" stroke-linecap="round"/>
<path d="M16.1659 13.0002H17.834" stroke="white" stroke-width="0.8" stroke-miterlimit="10" stroke-linecap="round"/>
</svg>
