<svg width="20" height="20" viewBox="0 0 20 20" fill="none" xmlns="http://www.w3.org/2000/svg">
<rect x="0.839844" y="3.33008" width="18.33" height="13.33" rx="2" fill="white"/>
<path d="M11.7538 7.4798C11.09 7.01373 10.2689 6.83121 9.47102 6.97239C8.67314 7.11357 7.96384 7.56688 7.49915 8.23261C7.27973 8.5658 7.19861 8.97174 7.27306 9.36402C7.3475 9.7563 7.57164 10.1039 7.89777 10.333C8.22389 10.562 8.62625 10.6543 9.0192 10.5902C9.41215 10.5262 9.76466 10.3108 10.0017 9.99003C10.1168 9.8252 10.2631 9.68473 10.4323 9.57662C10.6015 9.46852 10.7903 9.3949 10.9878 9.35997C11.1854 9.32504 11.3879 9.32948 11.5837 9.37305C11.7796 9.41662 11.9649 9.49845 12.1293 9.61387C12.2936 9.7293 12.4336 9.87606 12.5414 10.0458C12.6492 10.2155 12.7226 10.4048 12.7574 10.603C12.7922 10.8012 12.7878 11.0043 12.7444 11.2007C12.7009 11.3972 12.6193 11.5831 12.5043 11.748C12.7344 11.4183 12.8976 11.0464 12.9844 10.6534C13.0712 10.2605 13.0801 9.85429 13.0104 9.45794C12.9407 9.0616 12.7938 8.68291 12.5782 8.3435C12.3626 8.00408 12.0825 7.7106 11.7538 7.4798Z" fill="#C60C30"/>
<path d="M12.1292 9.61445C11.7974 9.38137 11.3869 9.29002 10.988 9.36052C10.589 9.43101 10.2343 9.65756 10.0019 9.99035C9.76546 10.3128 9.41258 10.5297 9.01875 10.5947C8.62492 10.6596 8.2214 10.5673 7.89448 10.3377C7.56757 10.108 7.3432 9.75922 7.26936 9.36579C7.19553 8.97237 7.27808 8.56558 7.49937 8.23242C7.26251 8.56173 7.09326 8.93497 7.00146 9.33046C6.90966 9.72595 6.89714 10.1358 6.96462 10.5362C7.0321 10.9366 7.17825 11.3195 7.39456 11.6627C7.61087 12.006 7.89304 12.3027 8.22466 12.5356C8.55628 12.7685 8.93074 12.933 9.32628 13.0194C9.72182 13.1059 10.1305 13.1127 10.5287 13.0393C10.9269 12.966 11.3065 12.814 11.6456 12.5922C11.9847 12.3704 12.2765 12.0832 12.504 11.7473C12.6191 11.5826 12.7007 11.3967 12.7441 11.2004C12.7876 11.004 12.7921 10.801 12.7573 10.6029C12.7224 10.4049 12.6491 10.2156 12.5413 10.046C12.4335 9.8764 12.2935 9.72975 12.1292 9.61445Z" fill="#003478"/>
<path d="M13.2271 13.8565L14.2088 12.6828L14.5988 13.0112L13.6172 14.1849L13.2271 13.8565ZM14.5357 12.2921L15.5174 11.119L15.9074 11.4474L14.9257 12.6205L14.5357 12.2921ZM14.0072 14.5143L14.9889 13.3412L15.3789 13.6696L14.3972 14.8427L14.0072 14.5143ZM15.3168 12.9484L16.2995 11.7753L16.6895 12.1042L15.7068 13.2768L15.3168 12.9484ZM14.7867 15.1711L15.7694 13.998L16.1589 14.3264L15.1767 15.4995L14.7867 15.1711ZM16.0958 13.6057L17.077 12.4311L17.4675 12.7595L16.4863 13.9341L16.0958 13.6057ZM16.0978 6.37281L16.4879 6.04441L17.4705 7.21857L17.08 7.54697L16.0978 6.37281ZM14.7883 4.80691L15.1783 4.47852L16.1599 5.65268L15.7694 5.98057L14.7883 4.80691ZM14.0077 5.46473L14.3977 5.13633L16.689 7.87486L16.299 8.20325L14.0077 5.46473ZM13.2277 6.12051L13.6182 5.79211L14.5994 6.96576L14.2093 7.29365L13.2277 6.12051ZM14.5362 7.68589L14.9262 7.35749L15.9089 8.53063L15.5194 8.85903L14.5362 7.68589ZM4.09575 11.4469L4.48577 11.1185L6.77651 13.8575L6.38598 14.1859L4.09575 11.4469ZM3.31673 12.1037L3.70624 11.7758L4.68842 12.9494L4.29789 13.2778L3.31673 12.1037ZM4.62376 13.6696L5.01378 13.3412L5.99647 14.5143L5.60645 14.8427L4.62376 13.6696ZM2.53567 12.76L2.92569 12.4316L5.21694 15.1701L4.82641 15.4985L2.53567 12.76ZM2.53516 7.21755L4.82539 4.47903L5.21592 4.80691L2.92467 7.54595L2.53516 7.21755ZM3.3152 7.87486L5.60645 5.13582L5.99647 5.46422L3.70522 8.20274L3.3152 7.87486ZM4.09575 8.53114L6.387 5.79211L6.77702 6.12051L4.48577 8.85954L4.09575 8.53114Z" fill="#292F33"/>
</svg>
