<svg width="11" height="11" viewBox="0 0 11 11" fill="none" xmlns="http://www.w3.org/2000/svg">
<path d="M5.22843 0.574606C5.33641 0.34458 5.66359 0.34458 5.77157 0.574606L6.97705 3.14262C7.01952 3.23309 7.10426 3.29647 7.20305 3.31166L9.92331 3.72975C10.1646 3.76683 10.2629 4.06119 10.0924 4.23585L8.10582 6.27047C8.03927 6.33862 8.00905 6.43433 8.02438 6.52835L8.49053 9.38625C8.53085 9.63343 8.26843 9.81827 8.04926 9.69707L5.64518 8.36765C5.55484 8.31769 5.44516 8.31769 5.35482 8.36765L2.95074 9.69707C2.73157 9.81827 2.46915 9.63343 2.50947 9.38625L2.97562 6.52835C2.99095 6.43433 2.96073 6.33862 2.89418 6.27047L0.907608 4.23585C0.737072 4.06119 0.835411 3.76683 1.07669 3.72975L3.79695 3.31166C3.89574 3.29647 3.98048 3.23309 4.02295 3.14262L5.22843 0.574606Z" fill="white" stroke="#FF9C06" stroke-width="0.75" stroke-linecap="round" stroke-linejoin="round"/>
</svg>
