<svg width="24" height="25" viewBox="0 0 24 25" fill="none" xmlns="http://www.w3.org/2000/svg">
<path d="M6.9467 14.2918C5.71566 11.7794 7.391 6.88363 13.0266 7.68401C19.2338 8.5656 18.1167 18.2143 12.9412 17.8374C11.3036 17.7182 10.6843 16.3611 10.5227 14.9746M10.5227 14.9746C10.4001 13.9234 10.5406 12.8554 10.6996 12.2972C10.9709 11.3448 11.4207 11.4743 11.092 12.7341C10.932 13.3472 10.7369 14.1169 10.5227 14.9746ZM10.5227 14.9746C9.95111 17.2633 9.24437 20.1799 8.71066 22.4279M8.71066 22.4279C9.7408 22.7866 10.8477 22.9814 12 22.9814C17.5229 22.9814 22 18.5043 22 12.9814C22 7.4586 17.5229 2.98145 12 2.98145C6.47716 2.98145 2 7.4586 2 12.9814C2 17.3519 4.80372 21.0676 8.71066 22.4279Z" stroke="#333333" stroke-width="0.8" stroke-linecap="round" stroke-linejoin="round"/>
</svg>
