<svg width="16" height="16" viewBox="0 0 16 16" fill="none" xmlns="http://www.w3.org/2000/svg">
<path d="M8.36209 0.830027C8.29619 0.689642 8.15508 0.6 8 0.6C7.84492 0.6 7.70381 0.689642 7.63791 0.830027L5.56551 5.24481L0.939235 5.95585C0.791089 5.97862 0.668105 6.0823 0.620612 6.22446C0.573118 6.36663 0.609087 6.52341 0.713798 6.63065L4.0727 10.0708L3.27922 14.9356C3.25456 15.0868 3.31841 15.2388 3.44365 15.327C3.56889 15.4152 3.73351 15.4242 3.86757 15.35L8 13.0649L12.1324 15.35C12.2665 15.4242 12.4311 15.4152 12.5563 15.327C12.6816 15.2388 12.7454 15.0868 12.7208 14.9356L11.9273 10.0708L15.2862 6.63065C15.3909 6.52341 15.4269 6.36663 15.3794 6.22446C15.3319 6.0823 15.2089 5.97862 15.0608 5.95585L10.4345 5.24481L8.36209 0.830027Z" fill="#FFC506" stroke="#FFC506" stroke-width="0.8" stroke-linecap="round" stroke-linejoin="round"/>
</svg>
