<svg width="25" height="24" viewBox="0 0 25 24" fill="none" xmlns="http://www.w3.org/2000/svg">
<g id="email">
<path id="Vector" d="M0.724609 6.6001C0.724609 5.80445 1.04068 5.04139 1.60329 4.47878C2.1659 3.91617 2.92896 3.6001 3.72461 3.6001H21.7246C22.5203 3.6001 23.2833 3.91617 23.8459 4.47878C24.4085 5.04139 24.7246 5.80445 24.7246 6.6001V18.6001C24.7246 19.3957 24.4085 20.1588 23.8459 20.7214C23.2833 21.284 22.5203 21.6001 21.7246 21.6001H3.72461C2.92896 21.6001 2.1659 21.284 1.60329 20.7214C1.04068 20.1588 0.724609 19.3957 0.724609 18.6001V6.6001ZM3.72461 5.1001C3.32678 5.1001 2.94525 5.25813 2.66395 5.53944C2.38264 5.82074 2.22461 6.20227 2.22461 6.6001V6.9256L12.7246 13.2256L23.2246 6.9256V6.6001C23.2246 6.20227 23.0666 5.82074 22.7853 5.53944C22.504 5.25813 22.1224 5.1001 21.7246 5.1001H3.72461ZM23.2246 8.6746L16.1626 12.9121L23.2246 17.2576V8.6746ZM23.1736 18.9886L14.7136 13.7821L12.7246 14.9746L10.7356 13.7821L2.27561 18.9871C2.36085 19.3063 2.54908 19.5884 2.81109 19.7897C3.0731 19.9909 3.39423 20.1 3.72461 20.1001H21.7246C22.0548 20.1001 22.3758 19.9912 22.6378 19.7903C22.8997 19.5893 23.0881 19.3075 23.1736 18.9886ZM2.22461 17.2576L9.28661 12.9121L2.22461 8.6746V17.2576Z" fill="#808080"/>
</g>
</svg>
