<svg width="16" height="16" viewBox="0 0 16 16" fill="none" xmlns="http://www.w3.org/2000/svg">
<path d="M12.5697 3.02329C12.558 3.03462 12.547 3.04668 12.5369 3.05939L6.83778 10.3207L3.40323 6.88449C3.16993 6.66709 2.86135 6.54874 2.54251 6.55437C2.22367 6.55999 1.91946 6.68915 1.69397 6.91464C1.46848 7.14013 1.33931 7.44435 1.33369 7.76319C1.32806 8.08203 1.44641 8.39061 1.66381 8.62391L6.00581 12.9676C6.12278 13.0843 6.26207 13.1763 6.41537 13.2381C6.56866 13.2998 6.73283 13.3301 6.89808 13.327C7.06332 13.324 7.22625 13.2876 7.37716 13.2202C7.52806 13.1528 7.66385 13.0557 7.77641 12.9347L14.3271 4.74631C14.5502 4.51219 14.6722 4.19969 14.6667 3.87638C14.6611 3.55306 14.5286 3.2449 14.2977 3.01852C14.0668 2.79215 13.7561 2.66574 13.4327 2.66663C13.1093 2.66752 12.7993 2.79564 12.5697 3.02329Z" fill="#333333"/>
</svg>
