<svg width="25" height="24" viewBox="0 0 25 24" fill="none" xmlns="http://www.w3.org/2000/svg">
<g id="telefono">
<path id="Vector" d="M16.1282 16.7787L16.3708 16.8089L16.5437 16.6361L18.1515 15.0283C18.1518 15.028 18.1521 15.0276 18.1524 15.0273C18.3002 14.8817 18.4871 14.782 18.6903 14.7403C18.8937 14.6986 19.1047 14.7167 19.298 14.7924C19.2983 14.7926 19.2987 14.7927 19.2991 14.7929L21.2561 15.5743C21.2565 15.5744 21.2569 15.5746 21.2573 15.5747C21.452 15.654 21.6189 15.7891 21.7371 15.9629C21.8552 16.1365 21.9194 16.3411 21.9217 16.551V20.14C21.9203 20.2824 21.8903 20.423 21.8333 20.5535C21.7762 20.6846 21.6931 20.8027 21.5891 20.9008C21.485 20.9989 21.3622 21.0749 21.2281 21.1243C21.0947 21.1734 20.9527 21.1952 20.8108 21.1883C14.1006 20.77 10.1063 17.7324 7.71012 14.2754C5.29859 10.7962 4.48882 6.86407 4.23095 4.67546C4.21466 4.52725 4.22983 4.37727 4.27548 4.23531C4.32127 4.09289 4.3967 3.96179 4.4968 3.85061C4.5969 3.73944 4.71941 3.65072 4.85626 3.5903C4.99311 3.52987 5.1412 3.4991 5.2908 3.50002L5.2908 3.50003H5.29387H8.76462C8.97441 3.50078 9.17918 3.56421 9.35267 3.68218C9.52634 3.80028 9.6607 3.96763 9.73849 4.16271L9.73858 4.16293L10.522 6.12512L10.522 6.12512L10.5234 6.12848C10.6015 6.32001 10.6214 6.5303 10.5806 6.73309C10.5399 6.93577 10.4404 7.12196 10.2946 7.26845C10.2945 7.26853 10.2944 7.26861 10.2944 7.26869L8.685 8.87804L8.50716 9.05588L8.54393 9.30468L9.03856 9.23159C8.54393 9.30468 8.54397 9.30494 8.54401 9.30521L8.54411 9.30589L8.54438 9.30768L8.54519 9.31296L8.54795 9.33027C8.55032 9.34475 8.55376 9.36507 8.5584 9.39087C8.5677 9.44246 8.58183 9.51601 8.6019 9.60862C8.64201 9.79373 8.70598 10.0556 8.80267 10.3708C8.99566 10.9999 9.32119 11.8486 9.85264 12.7252C10.9206 14.4868 12.828 16.3671 16.1282 16.7787Z" stroke="#808080"/>
</g>
</svg>
