<svg width="25" height="24" viewBox="0 0 25 24" fill="none" xmlns="http://www.w3.org/2000/svg">
<g id="url" opacity="0.85">
<path id="Union" fill-rule="evenodd" clip-rule="evenodd" d="M4.8704 22.8114C4.13105 22.5056 3.4594 22.0568 2.89406 21.4906C1.75307 20.3469 1.1123 18.7973 1.1123 17.1817C1.1123 15.5662 1.75307 14.0166 2.89406 12.8728L6.3419 9.42622L8.06522 11.1495L4.61737 14.5962C3.93305 15.2826 3.54878 16.2124 3.54878 17.1817C3.54878 18.151 3.93305 19.0808 4.61737 19.7673C5.30417 20.451 6.23383 20.8349 7.20295 20.8349C8.17206 20.8349 9.10173 20.451 9.78853 19.7673L13.2352 16.3195L14.9585 18.0428L11.5118 21.4906C10.9462 22.0568 10.2744 22.5056 9.53482 22.8114C8.79527 23.1172 8.00261 23.2738 7.20234 23.2724C6.40225 23.2739 5.60976 23.1172 4.8704 22.8114ZM23.6337 6.84064C23.6337 8.456 22.9933 10.0055 21.8529 11.1495L18.4051 14.5962L16.6818 12.8728L20.1296 9.42622C20.8139 8.73973 21.1982 7.80996 21.1982 6.84064C21.1982 5.87133 20.8139 4.94155 20.1296 4.25507C19.4428 3.57134 18.5132 3.18748 17.544 3.18748C16.5749 3.18748 15.6453 3.57134 14.9585 4.25507L11.5118 7.70291L9.78853 5.9796L13.2352 2.53175C14.3789 1.39077 15.9285 0.75 17.544 0.75C19.1596 0.75 20.7092 1.39077 21.8529 2.53175C22.9933 3.67581 23.6337 5.22529 23.6337 6.84064ZM6.34033 16.3211L8.06486 18.0444L18.4072 7.70329L16.6839 5.97876L6.34033 16.3211Z" fill="#808080"/>
</g>
</svg>
