<svg width="49" height="12" viewBox="0 0 49 12" fill="none" xmlns="http://www.w3.org/2000/svg">
<g id="Vector">
<path d="M48.0705 10.3213C48.4532 10.3005 48.7828 10.5924 48.804 10.9781C48.8253 11.3535 48.5276 11.6766 48.1343 11.6975C47.7516 11.7183 47.422 11.4264 47.4008 11.0407C47.4008 11.0303 47.4008 11.0198 47.4008 11.0094C47.4008 10.6341 47.6984 10.3317 48.0705 10.3213ZM48.0705 10.2171C47.624 10.2171 47.2732 10.5715 47.2732 10.999C47.2732 11.4369 47.6347 11.7809 48.0705 11.7809C48.5064 11.7809 48.8678 11.4264 48.8678 10.999C48.8784 10.5715 48.517 10.2171 48.0705 10.2171ZM48.1874 11.0198C48.2831 10.999 48.3575 10.9156 48.3575 10.8113C48.3575 10.6654 48.23 10.6028 48.0493 10.6028H47.8154V11.3847H47.9536V11.0303H48.0599L48.23 11.2909C48.2831 11.3743 48.2938 11.3743 48.3682 11.3743H48.4319V11.3847L48.1874 11.0198ZM48.0493 11.0094H47.9536V10.6549H48.0386C48.1768 10.6549 48.23 10.7071 48.23 10.8322C48.23 10.9573 48.1874 11.0094 48.0493 11.0094Z" fill="#196C6E"/>
<path d="M13.5426 2.35634H10.5873V11.7811H13.5426V2.35634Z" fill="#196C6E"/>
<path d="M29.7331 10.8426C28.8614 10.8426 28.4468 10.3317 28.4468 9.456V3.1381H30.8068V2.35618H28.4575V0H25.6191L25.4809 2.35618H24.2159V3.1381H25.4809V9.35174C25.4809 10.9573 26.4164 11.9998 28.3299 11.9998C29.765 11.9998 30.6154 11.4264 30.9662 10.6549L30.828 10.509C30.5091 10.7279 30.1264 10.853 29.7331 10.8426Z" fill="#196C6E"/>
<path d="M35.9202 2.14783C32.763 2.14783 30.7644 4.30593 30.7644 7.12083C30.7644 9.91489 32.6354 12 35.8564 12C39.1412 12 41.0122 9.84191 41.0122 7.027C41.0016 4.23295 39.0456 2.14783 35.9202 2.14783ZM35.8989 11.3223C34.315 11.3223 34.0918 10.0608 34.0918 7.04785C34.0918 4.08699 34.3044 2.80464 35.8777 2.80464C37.4616 2.80464 37.6849 4.08699 37.6849 7.08955C37.6742 10.04 37.4829 11.3223 35.8989 11.3223Z" fill="#196C6E"/>
<path d="M45.147 3.98257L45.0832 2.35618H42.213V11.7809H45.1789V4.23278C45.3596 4.18065 45.5403 4.14938 45.7316 4.14938C46.2632 4.14938 46.8691 4.35789 48.7188 5.21279L48.8889 5.15023V2.50214C48.5487 2.26235 48.1341 2.13724 47.7195 2.13724C46.8797 2.14767 45.9124 2.65852 45.147 3.98257Z" fill="#196C6E"/>
<path d="M20.3783 10.6549L20.7185 11.7809H23.2485V4.5247C23.2485 2.91916 21.9622 2.13724 19.8574 2.13724C18.4435 2.13724 16.7001 2.52299 15.5095 2.90873L15.3713 4.55598L15.5414 4.63938C17.8057 3.14852 18.4754 2.80448 19.177 2.80448C19.9743 2.80448 20.3039 3.21108 20.3039 4.06597V6.02598C16.9553 6.70365 14.9142 7.20407 14.9142 9.43514C14.9142 10.9677 15.956 11.9998 17.6356 11.9998C18.9219 11.9998 19.8787 11.4056 20.3783 10.6549ZM17.8376 8.90344C17.8376 7.45429 18.3372 7.08939 20.3145 6.68279V10.3109C19.9531 10.5924 19.5066 10.7383 19.0495 10.7175C18.2097 10.7175 17.8376 10.2483 17.8376 8.90344Z" fill="#196C6E"/>
<path d="M7.54764 5.70312C8.54572 5.70312 9.35482 4.90961 9.35482 3.93077C9.35482 2.95193 8.54572 2.15842 7.54764 2.15842C6.54956 2.15842 5.74046 2.95193 5.74046 3.93077C5.74046 4.90961 6.54956 5.70312 7.54764 5.70312Z" fill="#196C6E"/>
<path d="M5.55974 11.7915L6.50585 9.7168L3.16788 2.35634H0L4.28408 11.7915H5.55974Z" fill="#196C6E"/>
</g>
</svg>
