<svg width="64" height="64" viewBox="0 0 64 64" fill="none" xmlns="http://www.w3.org/2000/svg">
<g filter="url(#filter0_dd_3885_53048)">
<rect x="8" y="5" width="48" height="48" rx="24" fill="#333333"/>
<rect x="8.5" y="5.5" width="47" height="47" rx="23.5" stroke="white"/>
<path d="M32 29.0013C33.8186 29.0013 35.5628 28.2989 36.8487 27.0487C38.1347 25.7984 38.8571 24.1027 38.8571 22.3346C38.8571 20.5665 38.1347 18.8708 36.8487 17.6206C35.5628 16.3703 33.8186 15.668 32 15.668C30.1814 15.668 28.4372 16.3703 27.1513 17.6206C25.8653 18.8708 25.1429 20.5665 25.1429 22.3346C25.1429 24.1027 25.8653 25.7984 27.1513 27.0487C28.4372 28.2989 30.1814 29.0013 32 29.0013ZM29.5518 31.5013C24.275 31.5013 20 35.6576 20 40.7878C20 41.6419 20.7125 42.3346 21.5911 42.3346H42.4089C43.2875 42.3346 44 41.6419 44 40.7878C44 35.6576 39.725 31.5013 34.4482 31.5013H29.5518Z" fill="#FAFAFA"/>
</g>
<defs>
<filter id="filter0_dd_3885_53048" x="0" y="0" width="64" height="64" filterUnits="userSpaceOnUse" color-interpolation-filters="sRGB">
<feFlood flood-opacity="0" result="BackgroundImageFix"/>
<feColorMatrix in="SourceAlpha" type="matrix" values="0 0 0 0 0 0 0 0 0 0 0 0 0 0 0 0 0 0 127 0" result="hardAlpha"/>
<feOffset dy="3"/>
<feGaussianBlur stdDeviation="0.5"/>
<feComposite in2="hardAlpha" operator="out"/>
<feColorMatrix type="matrix" values="0 0 0 0 0 0 0 0 0 0 0 0 0 0 0 0 0 0 0.04 0"/>
<feBlend mode="normal" in2="BackgroundImageFix" result="effect1_dropShadow_3885_53048"/>
<feColorMatrix in="SourceAlpha" type="matrix" values="0 0 0 0 0 0 0 0 0 0 0 0 0 0 0 0 0 0 127 0" result="hardAlpha"/>
<feOffset dy="3"/>
<feGaussianBlur stdDeviation="4"/>
<feComposite in2="hardAlpha" operator="out"/>
<feColorMatrix type="matrix" values="0 0 0 0 0 0 0 0 0 0 0 0 0 0 0 0 0 0 0.12 0"/>
<feBlend mode="normal" in2="effect1_dropShadow_3885_53048" result="effect2_dropShadow_3885_53048"/>
<feBlend mode="normal" in="SourceGraphic" in2="effect2_dropShadow_3885_53048" result="shape"/>
</filter>
</defs>
</svg>
