<svg width="20" height="20" viewBox="0 0 20 20" fill="none" xmlns="http://www.w3.org/2000/svg">
<g clip-path="url(#clip0_740_10216)">
<path fill-rule="evenodd" clip-rule="evenodd" d="M0.839844 3.33008H19.1698V16.6601H0.839844V3.33008Z" fill="#E30A17"/>
<path fill-rule="evenodd" clip-rule="evenodd" d="M12.4961 10.2028C12.4961 12.0412 10.9323 13.5325 9.00197 13.5325C7.07159 13.5325 5.50781 12.0412 5.50781 10.2C5.50781 8.35879 7.07159 6.87305 9.00197 6.87305C10.9323 6.87305 12.4961 8.36434 12.4961 10.2028Z" fill="white"/>
<path fill-rule="evenodd" clip-rule="evenodd" d="M12.6679 10.2042C12.6679 11.6761 11.4191 12.8675 9.8754 12.8675C8.33167 12.8675 7.08008 11.6733 7.08008 10.2015C7.08008 8.72961 8.33167 7.54102 9.8754 7.54102C11.4191 7.54102 12.6707 8.73238 12.6707 10.2042H12.6679Z" fill="#E30A17"/>
<path fill-rule="evenodd" clip-rule="evenodd" d="M13.1744 8.64731L13.1457 9.87756L11.9629 10.1886L13.1314 10.5913L13.1028 11.7215L13.8618 10.8384L15.0131 11.2272L14.3487 10.2802L15.1592 9.3388L13.9133 9.67205L13.1744 8.64453V8.64731Z" fill="white"/>
</g>
<defs>
<clipPath id="clip0_740_10216">
<rect x="0.839844" y="3.33008" width="18.33" height="13.33" rx="2" fill="white"/>
</clipPath>
</defs>
</svg>
