<svg width="24" height="24" viewBox="0 0 24 24" fill="none" xmlns="http://www.w3.org/2000/svg">
<g id="WA.AIRBNB">
<path id="Icon" d="M21.0657 16.1938C20.976 15.9421 20.8712 15.6985 20.7715 15.4728C20.618 15.1257 20.4573 14.7779 20.3018 14.4417L20.2895 14.415C18.9027 11.4118 17.4142 8.36756 15.8654 5.36688L15.7997 5.23948C15.6417 4.93306 15.4783 4.61623 15.3107 4.30491C15.112 3.91094 14.8708 3.53975 14.5915 3.19793C14.277 2.82282 13.884 2.52114 13.44 2.31416C12.9961 2.10718 12.512 1.99994 12.022 2C11.532 2.00006 11.048 2.10742 10.6041 2.31452C10.1602 2.52161 9.76722 2.82339 9.45291 3.19857C9.17391 3.54048 8.93286 3.91158 8.73404 4.30536C8.56497 4.61947 8.40013 4.93924 8.24072 5.24848L8.17967 5.36685C6.63085 8.36775 5.14236 11.412 3.75556 14.4149L3.73536 14.4586C3.58256 14.7894 3.42457 15.1314 3.27364 15.4727C3.1739 15.6982 3.06922 15.9416 2.97944 16.1939C2.72229 16.8815 2.64034 17.6221 2.74097 18.3491C2.84769 19.0838 3.14485 19.7779 3.60301 20.3628C4.06116 20.9476 4.66443 21.4028 5.35306 21.6833C5.87319 21.8937 6.42933 22.0013 6.99057 22C7.16687 21.9999 7.34302 21.9897 7.51814 21.9693C8.22797 21.8789 8.91257 21.6479 9.53178 21.2899C10.344 20.8336 11.1462 20.1649 12.0225 19.2093C12.8988 20.1649 13.701 20.8336 14.5133 21.2899C15.1325 21.6479 15.8171 21.8789 16.5269 21.9693C16.702 21.9897 16.8782 21.9999 17.0545 22C17.6157 22.0013 18.1718 21.8937 18.6919 21.6833C19.3805 21.4028 19.9838 20.9476 20.442 20.3628C20.9002 19.7779 21.1974 19.0838 21.3042 18.3491C21.4047 17.622 21.3227 16.8814 21.0657 16.1938ZM12.0225 17.2356C10.9377 15.8606 10.2416 14.5836 9.99734 13.5131C9.89728 13.112 9.87366 12.6957 9.92772 12.2858C9.97041 11.9854 10.0808 11.6985 10.2505 11.4468C10.4594 11.1759 10.7278 10.9565 11.0351 10.8056C11.3423 10.6547 11.6802 10.5762 12.0227 10.5762C12.3652 10.5763 12.703 10.6548 13.0102 10.8058C13.3175 10.9567 13.5858 11.1761 13.7947 11.4469C13.9645 11.6988 14.0748 11.9857 14.1175 12.2862C14.1715 12.6962 14.1478 13.1127 14.0475 13.5139C13.803 14.5843 13.1071 15.8609 12.0225 17.2356ZM20.0371 18.1681C19.9625 18.6818 19.7547 19.1671 19.4343 19.576C19.114 19.9849 18.6922 20.3033 18.2107 20.4994C17.7238 20.6944 17.1954 20.7636 16.6747 20.7003C16.1333 20.6306 15.6117 20.4524 15.141 20.1765C14.418 19.7703 13.6862 19.1468 12.8626 18.232C14.1737 16.6154 14.9923 15.1253 15.2955 13.7981C15.4319 13.24 15.4615 12.6612 15.3827 12.0922C15.3112 11.602 15.1292 11.1344 14.8504 10.7246C14.5238 10.2824 14.0978 9.923 13.6067 9.67531C13.1155 9.42763 12.573 9.29856 12.0227 9.29856C11.4724 9.29856 10.9298 9.42756 10.4386 9.67519C9.94741 9.92281 9.52141 10.2822 9.19484 10.7243C8.91614 11.134 8.73416 11.6015 8.66259 12.0916C8.58374 12.6604 8.61316 13.2389 8.74929 13.7968C9.05222 15.1246 9.87097 16.615 11.1825 18.2321C10.3589 19.1468 9.62703 19.7703 8.90402 20.1766C8.43339 20.4524 7.91176 20.6306 7.37044 20.7003C6.84963 20.7636 6.32125 20.6944 5.83434 20.4994C5.35285 20.3033 4.93104 19.9849 4.61071 19.5761C4.29037 19.1671 4.08263 18.6818 4.00804 18.1681C3.93629 17.6459 3.99735 17.1141 4.18558 16.6216C4.25713 16.4205 4.34086 16.2231 4.44459 15.9886C4.59134 15.6569 4.74708 15.3197 4.89771 14.9936L4.91794 14.9498C6.29699 11.9637 7.77723 8.93638 9.31759 5.95184L9.37891 5.83302C9.53572 5.52876 9.69791 5.21417 9.86153 4.91019C10.018 4.59688 10.2075 4.30107 10.4267 4.02775C10.6208 3.79314 10.8646 3.60426 11.1404 3.47459C11.4163 3.34491 11.7174 3.27766 12.0223 3.27764C12.3272 3.27761 12.6283 3.34482 12.9042 3.47444C13.18 3.60407 13.4238 3.79292 13.618 4.02749C13.8373 4.30061 14.0268 4.59632 14.1832 4.90961C14.3453 5.21089 14.5061 5.52264 14.6616 5.82411L14.7275 5.95197C16.2678 8.93619 17.748 11.9634 19.1272 14.9501L19.1396 14.9769C19.2928 15.3085 19.4513 15.6512 19.6005 15.9888C19.7043 16.2236 19.7882 16.4211 19.8596 16.6215C20.0477 17.114 20.1088 17.6458 20.0371 18.1681Z" fill="#E0565B"/>
</g>
</svg>
