<svg width="24" height="24" viewBox="0 0 24 24" fill="none" xmlns="http://www.w3.org/2000/svg">
<g id="WA.Answer-revier">
<g id="Icon">
<path d="M17.9959 10.776V14.7696C17.9959 15.0292 17.9859 15.2788 17.9559 15.5184C17.7256 18.2141 16.134 19.5519 13.201 19.5519H12.8006C12.5504 19.5519 12.3101 19.6717 12.16 19.8714L10.9587 21.4688C10.4282 22.1777 9.56732 22.1777 9.03678 21.4688L7.83555 19.8714C7.70542 19.7017 7.41513 19.5519 7.1949 19.5519H6.79451C3.60125 19.5519 1.99961 18.7632 1.99961 14.7696V10.776C1.99961 7.85071 3.351 6.26326 6.04374 6.03363C6.28399 6.00368 6.53424 5.99369 6.79451 5.99369H13.201C16.3943 5.99369 17.9959 7.59113 17.9959 10.776Z" fill="#333333"/>
<path d="M21.9994 6.78243V10.776C21.9994 13.7113 20.6486 15.2888 17.9559 15.5184C17.9859 15.2788 17.9959 15.0292 17.9959 14.7696V10.776C17.9959 7.59113 16.3943 5.99369 13.201 5.99369H6.79451C6.53424 5.99369 6.28399 6.00368 6.04374 6.03363C6.27398 3.34794 7.86504 2.0001 10.798 2.0001H17.2045C20.3978 2.0001 21.9994 3.59754 21.9994 6.78243Z" fill="#333333"/>
<path fill-rule="evenodd" clip-rule="evenodd" d="M7.66607 3.31479C7.06357 3.82577 6.66404 4.57339 6.49946 5.59841C6.59747 5.59506 6.69588 5.59369 6.79451 5.59369H13.201C14.8594 5.59369 16.1775 6.00875 17.0784 6.9073C17.9795 7.80605 18.3959 9.12133 18.3959 10.776V14.7696C18.3959 14.8677 18.3945 14.9656 18.3912 15.0631C19.4208 14.8994 20.1709 14.5023 20.6832 13.9021C21.2745 13.2094 21.5994 12.1871 21.5994 10.776V6.78243C21.5994 5.25223 21.215 4.17634 20.517 3.48014C19.8187 2.78376 18.7394 2.4001 17.2045 2.4001H10.798C9.38794 2.4001 8.36229 2.72433 7.66607 3.31479ZM18.319 15.8817C19.5823 15.7176 20.5901 15.2435 21.2917 14.4215C22.0489 13.5343 22.3994 12.3002 22.3994 10.776V6.78243C22.3994 5.12775 21.983 3.81247 21.0819 2.91372C20.181 2.01516 18.8629 1.6001 17.2045 1.6001H10.798C9.27508 1.6001 8.03872 1.94978 7.14862 2.70467C6.32377 3.40422 5.84579 4.40945 5.68071 5.67038C4.41674 5.83487 3.40897 6.3115 2.70748 7.13446C1.9504 8.02265 1.59961 9.25649 1.59961 10.776V14.7696C1.59961 16.801 2.00347 18.147 2.93688 18.96C3.85651 19.7609 5.19144 19.9519 6.79451 19.9519H7.1949C7.2238 19.9519 7.28895 19.9649 7.36897 20.0052C7.44773 20.0449 7.49851 20.0898 7.51738 20.1138L7.51811 20.1148L8.71654 21.7085C9.04542 22.1476 9.50548 22.4005 9.99776 22.4005C10.4902 22.4005 10.9499 22.1481 11.2788 21.7088L12.4797 20.1118C12.5541 20.0128 12.6758 19.9519 12.8006 19.9519H13.201C14.7233 19.9519 15.9599 19.605 16.8504 18.8514C17.676 18.1526 18.1541 17.1468 18.319 15.8817ZM6.79451 6.39369C6.54364 6.39369 6.31124 6.40338 6.09323 6.43056C6.08807 6.4312 6.08291 6.43174 6.07773 6.43218C4.80382 6.54082 3.90386 6.96414 3.31631 7.65343C2.72452 8.3477 2.39961 9.37023 2.39961 10.776V14.7696C2.39961 16.7317 2.79657 17.7769 3.4623 18.3567C4.1418 18.9485 5.20432 19.1519 6.79451 19.1519H7.1949C7.38624 19.1519 7.57634 19.2138 7.72906 19.2908C7.88198 19.3679 8.04111 19.4821 8.15298 19.628L8.15526 19.631L9.35648 21.2284C9.55811 21.4978 9.79455 21.6005 9.99776 21.6005C10.201 21.6005 10.4369 21.4986 10.6385 21.2292L11.8403 19.631C12.0661 19.3306 12.4249 19.1519 12.8006 19.1519H13.201C14.6118 19.1519 15.6375 18.8299 16.3336 18.2407C17.0242 17.6562 17.4484 16.7594 17.5573 15.4844C17.5578 15.4791 17.5583 15.4739 17.559 15.4686C17.5862 15.2514 17.5959 15.0197 17.5959 14.7696V10.776C17.5959 9.24581 17.2115 8.16993 16.5135 7.47373C15.8153 6.77734 14.7359 6.39369 13.201 6.39369H6.79451Z" fill="#FAFAFA"/>
<path fill-rule="evenodd" clip-rule="evenodd" d="M14.2067 9.79299C14.5972 10.1835 14.5972 10.8167 14.2067 11.2072L9.84814 15.5658C9.37951 16.0344 8.61971 16.0344 8.15108 15.5658L5.7925 13.2072C5.40198 12.8167 5.40198 12.1835 5.7925 11.793C6.18303 11.4025 6.81619 11.4025 7.20672 11.793L8.99961 13.5859L12.7925 9.79299C13.183 9.40247 13.8162 9.40247 14.2067 9.79299Z" fill="#FAFAFA"/>
</g>
</g>
</svg>
