<svg width="24" height="24" viewBox="0 0 24 24" fill="none" xmlns="http://www.w3.org/2000/svg">
<g id="WA.experiencias">
<path id="Icon" d="M10.6172 6.58393L12.5898 5.57143H19.5V9.42857H15.0156C14.1602 8.82188 13.1211 8.46429 12 8.46429C10.8789 8.46429 9.84375 8.82188 8.98438 9.42857H4.5V6.85714H9.5C9.88672 6.85714 10.2695 6.76473 10.6172 6.58393ZM2 6.85714V18.4286C2 19.8469 3.12109 21 4.5 21H19.5C20.8789 21 22 19.8469 22 18.4286V5.57143C22 4.15313 20.8789 3 19.5 3H12.5898C12.2031 3 11.8203 3.09241 11.4727 3.27321L9.5 4.28571H8.25V3.64286C8.25 3.28929 7.96875 3 7.625 3H5.125C4.78125 3 4.5 3.28929 4.5 3.64286V4.28571C3.12109 4.28571 2 5.43884 2 6.85714ZM8.5625 13.9286C8.5625 12.9908 8.92466 12.0915 9.56932 11.4284C10.214 10.7654 11.0883 10.3929 12 10.3929C12.9117 10.3929 13.786 10.7654 14.4307 11.4284C15.0753 12.0915 15.4375 12.9908 15.4375 13.9286C15.4375 14.8663 15.0753 15.7656 14.4307 16.4287C13.786 17.0918 12.9117 17.4643 12 17.4643C11.0883 17.4643 10.214 17.0918 9.56932 16.4287C8.92466 15.7656 8.5625 14.8663 8.5625 13.9286Z" fill="#777777"/>
</g>
</svg>
