<svg width="16" height="16" viewBox="0 0 16 16" fill="none" xmlns="http://www.w3.org/2000/svg">
<g id="WA.bed">
<path id="Icon" d="M2.00004 3.33337C2.36879 3.33337 2.66671 3.63129 2.66671 4.00004V9.33337H7.33337V6.00004C7.33337 5.63129 7.63129 5.33337 8.00004 5.33337H12.6667C13.7709 5.33337 14.6667 6.22921 14.6667 7.33337V12C14.6667 12.3688 14.3688 12.6667 14 12.6667C13.6313 12.6667 13.3334 12.3688 13.3334 12V11.3334H8.66671H8.00004H2.66671V12C2.66671 12.3688 2.36879 12.6667 2.00004 12.6667C1.63129 12.6667 1.33337 12.3688 1.33337 12V4.00004C1.33337 3.63129 1.63129 3.33337 2.00004 3.33337ZM5.00004 5.33337C5.44207 5.33337 5.86599 5.50897 6.17855 5.82153C6.49111 6.13409 6.66671 6.55801 6.66671 7.00004C6.66671 7.44207 6.49111 7.86599 6.17855 8.17855C5.86599 8.49111 5.44207 8.66671 5.00004 8.66671C4.55801 8.66671 4.13409 8.49111 3.82153 8.17855C3.50897 7.86599 3.33337 7.44207 3.33337 7.00004C3.33337 6.55801 3.50897 6.13409 3.82153 5.82153C4.13409 5.50897 4.55801 5.33337 5.00004 5.33337Z" fill="#333333"/>
</g>
</svg>
