<svg width="32" height="32" viewBox="0 0 32 32" fill="none" xmlns="http://www.w3.org/2000/svg">
<g id="WA.bookyournextstay">
<path id="Primary" d="M2.66669 6.66659C2.66669 5.92909 3.26252 5.33325 4.00002 5.33325H4.66669C6.50835 5.33325 8.00002 6.82492 8.00002 8.66659V20.6666C8.00002 21.0333 8.30002 21.3333 8.66669 21.3333H28C28.7375 21.3333 29.3334 21.9291 29.3334 22.6666C29.3334 23.4041 28.7375 23.9999 28 23.9999H25.2209C25.2959 24.2083 25.3334 24.4333 25.3334 24.6666C25.3334 25.7708 24.4375 26.6666 23.3334 26.6666C22.2292 26.6666 21.3334 25.7708 21.3334 24.6666C21.3334 24.4333 21.375 24.2083 21.4459 23.9999H13.2167C13.2917 24.2083 13.3292 24.4333 13.3292 24.6666C13.3292 25.7708 12.4334 26.6666 11.3292 26.6666C10.225 26.6666 9.32919 25.7708 9.32919 24.6666C9.32919 24.4333 9.37085 24.2083 9.44169 23.9999H8.66669C6.82502 23.9999 5.33335 22.5083 5.33335 20.6666V8.66659C5.33335 8.29992 5.03335 7.99992 4.66669 7.99992H4.00002C3.26252 7.99992 2.66669 7.40409 2.66669 6.66659ZM20.6667 9.33325V7.66659C20.6667 7.48325 20.5167 7.33325 20.3334 7.33325H17C16.8167 7.33325 16.6667 7.48325 16.6667 7.66659V9.33325H20.6667ZM14.6667 9.33325V7.66659C14.6667 6.37909 15.7125 5.33325 17 5.33325H20.3334C21.6209 5.33325 22.6667 6.37909 22.6667 7.66659V9.33325V18.6666H14.6667V9.33325ZM24 18.6666V9.33325H24.6667C25.7709 9.33325 26.6667 10.2291 26.6667 11.3333V16.6666C26.6667 17.7708 25.7709 18.6666 24.6667 18.6666H24ZM12.6667 9.33325H13.3334V18.6666H12.6667C11.5625 18.6666 10.6667 17.7708 10.6667 16.6666V11.3333C10.6667 10.2291 11.5625 9.33325 12.6667 9.33325Z" fill="#333333"/>
</g>
</svg>
