<svg width="25" height="24" viewBox="0 0 25 24" fill="none" xmlns="http://www.w3.org/2000/svg">
<g id="WA.Booking">
<g id="Icon">
<path d="M18.7438 2C20.8165 2 22.5 3.68275 22.5 5.75543L22.5 17.8044C22.5 19.8765 20.8165 21.5598 18.7438 21.5598H2.5V5.75543C2.5 3.68275 4.18351 2 6.25617 2H18.7438Z" fill="#0C3B7C"/>
<path d="M11.5896 14.9468L9.97871 14.9452V13.0191C9.97871 12.6076 10.1384 12.3934 10.4905 12.3444H11.5896C12.3733 12.3444 12.8803 12.8386 12.8803 13.6384C12.8803 14.4599 12.3862 14.9461 11.5896 14.9468ZM9.97871 9.24467C9.97871 8.80104 10.1664 8.59005 10.578 8.56278H11.4027C12.1094 8.56278 12.533 8.98555 12.533 9.69391C12.533 10.233 12.2426 10.8627 11.4283 10.8627H9.97871V9.24467ZM13.6465 11.6738L13.3553 11.5101L13.6096 11.2927C13.9056 11.0384 14.4014 10.4664 14.4014 9.47971C14.4014 7.96833 13.2293 6.99363 11.4155 6.99363H9.34576L9.1099 6.99283C8.57242 7.01289 8.14162 7.4501 8.13601 7.9908V16.5665H11.4564C13.4724 16.5665 14.7736 15.4691 14.7736 13.7692C14.7736 12.8539 14.3532 12.0717 13.6465 11.6738Z" fill="white"/>
<path d="M15.6383 15.3819C15.6383 14.7268 16.1667 14.1968 16.8177 14.1968C17.4703 14.1968 18.0012 14.7268 18.0012 15.3819C18.0012 16.0362 17.4703 16.567 16.8177 16.567C16.1667 16.567 15.6383 16.0362 15.6383 15.3819Z" fill="#00BAFC"/>
</g>
</g>
</svg>
