<svg width="20" height="20" viewBox="0 0 20 20" fill="none" xmlns="http://www.w3.org/2000/svg">
<g id="WA.calendar">
<path id="Icon" d="M5.71429 2.70841V3.75008H4.10714C3.21987 3.75008 2.5 4.44995 2.5 5.31258V6.87508H17.5V5.31258C17.5 4.44995 16.7801 3.75008 15.8929 3.75008H14.2857V2.70841C14.2857 2.13224 13.8069 1.66675 13.2143 1.66675C12.6217 1.66675 12.1429 2.13224 12.1429 2.70841V3.75008H7.85714V2.70841C7.85714 2.13224 7.37835 1.66675 6.78571 1.66675C6.19308 1.66675 5.71429 2.13224 5.71429 2.70841ZM17.5 7.91675H2.5V16.7709C2.5 17.6335 3.21987 18.3334 4.10714 18.3334H15.8929C16.7801 18.3334 17.5 17.6335 17.5 16.7709V7.91675Z" fill="#333333"/>
</g>
</svg>
