<svg width="20" height="20" viewBox="0 0 20 20" fill="none" xmlns="http://www.w3.org/2000/svg">
<g id="WA.check-out">
<path id="Icon" d="M9.99996 18.3333C12.2101 18.3333 14.3297 17.4554 15.8925 15.8926C17.4553 14.3298 18.3333 12.2101 18.3333 10C18.3333 7.78987 17.4553 5.67025 15.8925 4.10745C14.3297 2.54465 12.2101 1.66667 9.99996 1.66667C7.78982 1.66667 5.67021 2.54465 4.1074 4.10745C2.5446 5.67025 1.66663 7.78987 1.66663 10C1.66663 12.2101 2.5446 14.3298 4.1074 15.8926C5.67021 17.4554 7.78982 18.3333 9.99996 18.3333ZM6.06441 8.74349L9.55074 5.49154C9.67444 5.37761 9.83394 5.31251 9.99996 5.31251C10.166 5.31251 10.3287 5.37761 10.4492 5.49154L13.9355 8.74349C14.082 8.88021 14.1666 9.07227 14.1666 9.27409C14.1666 9.67448 13.8411 10 13.4407 10H11.5625V13.125C11.5625 13.7012 11.097 14.1667 10.5208 14.1667H9.47913C8.90295 14.1667 8.43746 13.7012 8.43746 13.125V10H6.5592C6.15881 10 5.83329 9.67448 5.83329 9.27409C5.83329 9.07227 5.91793 8.88021 6.06441 8.74349Z" fill="#333333"/>
</g>
</svg>
