<svg width="24" height="24" viewBox="0 0 24 24" fill="none" xmlns="http://www.w3.org/2000/svg">
<g id="WA.Compress">
<path id="Icon" d="M9.14286 3.42857C9.14286 2.63839 8.50446 2 7.71429 2C6.92411 2 6.28571 2.63839 6.28571 3.42857V6.28571H3.42857C2.63839 6.28571 2 6.92411 2 7.71429C2 8.50446 2.63839 9.14286 3.42857 9.14286H7.71429C8.50446 9.14286 9.14286 8.50446 9.14286 7.71429V3.42857ZM3.42857 14.8571C2.63839 14.8571 2 15.4955 2 16.2857C2 17.0759 2.63839 17.7143 3.42857 17.7143H6.28571V20.5714C6.28571 21.3616 6.92411 22 7.71429 22C8.50446 22 9.14286 21.3616 9.14286 20.5714V16.2857C9.14286 15.4955 8.50446 14.8571 7.71429 14.8571H3.42857ZM17.7143 3.42857C17.7143 2.63839 17.0759 2 16.2857 2C15.4955 2 14.8571 2.63839 14.8571 3.42857V7.71429C14.8571 8.50446 15.4955 9.14286 16.2857 9.14286H20.5714C21.3616 9.14286 22 8.50446 22 7.71429C22 6.92411 21.3616 6.28571 20.5714 6.28571H17.7143V3.42857ZM16.2857 14.8571C15.4955 14.8571 14.8571 15.4955 14.8571 16.2857V20.5714C14.8571 21.3616 15.4955 22 16.2857 22C17.0759 22 17.7143 21.3616 17.7143 20.5714V17.7143H20.5714C21.3616 17.7143 22 17.0759 22 16.2857C22 15.4955 21.3616 14.8571 20.5714 14.8571H16.2857Z" fill="#333333"/>
</g>
</svg>
