<svg width="24" height="24" viewBox="0 0 24 24" fill="none" xmlns="http://www.w3.org/2000/svg">
<g id="WA.coffee">
<path id="Icon" d="M5.4375 2C4.91797 2 4.5 2.41797 4.5 2.9375C4.5 4.45703 5.41406 5.25781 6.02734 5.79297L6.07031 5.83203C6.70703 6.38672 7 6.68359 7 7.3125C7 7.83203 7.41797 8.25 7.9375 8.25C8.45703 8.25 8.875 7.83203 8.875 7.3125C8.875 5.79297 7.96094 4.99219 7.34766 4.45703L7.30469 4.41797C6.66797 3.86328 6.375 3.56641 6.375 2.9375C6.375 2.41797 5.95703 2 5.4375 2ZM3.25 9.5C2.55859 9.5 2 10.0586 2 10.75V18.25C2 20.3203 3.67969 22 5.75 22H13.25C15.3203 22 17 20.3203 17 18.25H17.625C20.043 18.25 22 16.293 22 13.875C22 11.457 20.043 9.5 17.625 9.5H15.75H3.25ZM17 12H17.625C18.6602 12 19.5 12.8398 19.5 13.875C19.5 14.9102 18.6602 15.75 17.625 15.75H17V12ZM10.75 2.9375C10.75 2.41797 10.332 2 9.8125 2C9.29297 2 8.875 2.41797 8.875 2.9375C8.875 4.45703 9.78906 5.25781 10.4023 5.79297L10.4453 5.83203C11.082 6.38672 11.375 6.68359 11.375 7.3125C11.375 7.83203 11.793 8.25 12.3125 8.25C12.832 8.25 13.25 7.83203 13.25 7.3125C13.25 5.79297 12.3359 4.99219 11.7227 4.45703L11.6797 4.41797C11.043 3.86328 10.75 3.56641 10.75 2.9375Z" fill="#333333"/>
</g>
</svg>
