<svg width="16" height="16" viewBox="0 0 16 16" fill="none" xmlns="http://www.w3.org/2000/svg">
<g id="WA.Clock">
<path id="Icon" d="M7.9987 1.33398C9.76681 1.33398 11.4625 2.03636 12.7127 3.28661C13.963 4.53685 14.6654 6.23254 14.6654 8.00065C14.6654 9.76876 13.963 11.4645 12.7127 12.7147C11.4625 13.9649 9.76681 14.6673 7.9987 14.6673C6.23059 14.6673 4.5349 13.9649 3.28465 12.7147C2.03441 11.4645 1.33203 9.76876 1.33203 8.00065C1.33203 6.23254 2.03441 4.53685 3.28465 3.28661C4.5349 2.03636 6.23059 1.33398 7.9987 1.33398ZM7.3737 4.45898V8.00065C7.3737 8.20898 7.47786 8.4043 7.65234 8.52148L10.1523 10.1882C10.4388 10.3809 10.8268 10.3027 11.0195 10.0137C11.2122 9.72461 11.1341 9.33919 10.8451 9.14648L8.6237 7.66732V4.45898C8.6237 4.11263 8.34505 3.83398 7.9987 3.83398C7.65234 3.83398 7.3737 4.11263 7.3737 4.45898Z" fill="#333333"/>
</g>
</svg>
