<svg width="24" height="24" viewBox="0 0 24 24" fill="none" xmlns="http://www.w3.org/2000/svg">
<g id="WA.Chat">
<path id="Icon" d="M12.001 19.2484C17.5239 19.2484 22 15.612 22 11.1242C22 6.63635 17.5239 3 12.001 3C6.47814 3 2.00203 6.63635 2.00203 11.1242C2.00203 12.8857 2.69337 14.5145 3.86512 15.8464C3.79091 16.8033 3.41985 17.6548 3.02927 18.3031C2.81445 18.6625 2.59572 18.9515 2.43558 19.1468C2.35356 19.2444 2.29106 19.3187 2.24419 19.3694C2.22076 19.3929 2.20513 19.4124 2.19342 19.4241L2.1817 19.4358C2.00203 19.6155 1.95125 19.8811 2.0489 20.1155C2.14655 20.3498 2.37309 20.5021 2.62697 20.5021C3.74795 20.5021 4.87674 20.1545 5.81414 19.7483C6.70858 19.3577 7.47022 18.8929 7.93502 18.5531C9.17708 19.0023 10.5519 19.2523 12.001 19.2523V19.2484ZM7.00152 9.8743C7.33301 9.8743 7.65092 10.006 7.88532 10.2404C8.11971 10.4748 8.2514 10.7927 8.2514 11.1242C8.2514 11.4557 8.11971 11.7736 7.88532 12.008C7.65092 12.2424 7.33301 12.374 7.00152 12.374C6.67003 12.374 6.35212 12.2424 6.11773 12.008C5.88333 11.7736 5.75165 11.4557 5.75165 11.1242C5.75165 10.7927 5.88333 10.4748 6.11773 10.2404C6.35212 10.006 6.67003 9.8743 7.00152 9.8743ZM12.001 9.8743C12.3325 9.8743 12.6504 10.006 12.8848 10.2404C13.1192 10.4748 13.2509 10.7927 13.2509 11.1242C13.2509 11.4557 13.1192 11.7736 12.8848 12.008C12.6504 12.2424 12.3325 12.374 12.001 12.374C11.6695 12.374 11.3516 12.2424 11.1172 12.008C10.8828 11.7736 10.7511 11.4557 10.7511 11.1242C10.7511 10.7927 10.8828 10.4748 11.1172 10.2404C11.3516 10.006 11.6695 9.8743 12.001 9.8743ZM15.7506 11.1242C15.7506 10.7927 15.8823 10.4748 16.1167 10.2404C16.3511 10.006 16.669 9.8743 17.0005 9.8743C17.332 9.8743 17.6499 10.006 17.8843 10.2404C18.1187 10.4748 18.2504 10.7927 18.2504 11.1242C18.2504 11.4557 18.1187 11.7736 17.8843 12.008C17.6499 12.2424 17.332 12.374 17.0005 12.374C16.669 12.374 16.3511 12.2424 16.1167 12.008C15.8823 11.7736 15.7506 11.4557 15.7506 11.1242Z" fill="#333333"/>
</g>
</svg>
