<svg width="20" height="20" viewBox="0 0 20 20" fill="none" xmlns="http://www.w3.org/2000/svg">
<g id="WA.checkin.user">
<path id="icon" d="M4.19867 6.70925C4.19867 5.81388 4.55435 4.95518 5.18747 4.32206C5.8206 3.68894 6.67929 3.33325 7.57466 3.33325C8.47003 3.33325 9.32873 3.68894 9.96185 4.32206C10.595 4.95518 10.9507 5.81388 10.9507 6.70925C10.9507 7.60462 10.595 8.46331 9.96185 9.09644C9.32873 9.72956 8.47003 10.0852 7.57466 10.0852C6.67929 10.0852 5.8206 9.72956 5.18747 9.09644C4.55435 8.46331 4.19867 7.60462 4.19867 6.70925ZM1.66667 16.0539C1.66667 13.456 3.77139 11.3512 6.36933 11.3512H8.78C11.3779 11.3512 13.4827 13.456 13.4827 16.0539C13.4827 16.4864 13.1319 16.8372 12.6993 16.8372H2.45001C2.01746 16.8372 1.66667 16.4864 1.66667 16.0539ZM18.151 8.00162L14.775 11.3776C14.5271 11.6255 14.1262 11.6255 13.8809 11.3776L12.1929 9.68962C11.945 9.44169 11.945 9.04079 12.1929 8.79551C12.4408 8.55022 12.8417 8.54758 13.087 8.79551L14.3267 10.0351L17.2543 7.10487C17.5022 6.85695 17.9031 6.85695 18.1484 7.10487C18.3937 7.3528 18.3963 7.75369 18.1484 7.99898L18.151 8.00162Z" fill="#333333"/>
</g>
</svg>
