<svg width="64" height="64" viewBox="0 0 64 64" fill="none" xmlns="http://www.w3.org/2000/svg">
<g id="WA.circle-check">
<path id="Icon" d="M31.9997 58.6666C39.0721 58.6666 45.8549 55.8571 50.8559 50.8561C55.8568 45.8551 58.6663 39.0724 58.6663 31.9999C58.6663 24.9275 55.8568 18.1447 50.8559 13.1437C45.8549 8.14277 39.0721 5.33325 31.9997 5.33325C24.9272 5.33325 18.1445 8.14277 13.1435 13.1437C8.14252 18.1447 5.33301 24.9275 5.33301 31.9999C5.33301 39.0724 8.14252 45.8551 13.1435 50.8561C18.1445 55.8571 24.9272 58.6666 31.9997 58.6666ZM43.7705 27.1041L30.4372 40.4374C29.458 41.4166 27.8747 41.4166 26.9059 40.4374L20.2393 33.7708C19.2601 32.7916 19.2601 31.2083 20.2393 30.2395C21.2184 29.2708 22.8018 29.2603 23.7705 30.2395L28.6663 35.1353L40.2288 23.5624C41.208 22.5833 42.7913 22.5833 43.7601 23.5624C44.7288 24.5416 44.7393 26.1249 43.7601 27.0937L43.7705 27.1041Z" fill="#333333"/>
</g>
</svg>
