<svg width="16" height="16" viewBox="0 0 16 16" fill="none" xmlns="http://www.w3.org/2000/svg">
<g id="WA.Cancelacion">
<path id="Icon" d="M3.5556 3.80948C3.5556 3.17853 4.05328 2.66663 4.66671 2.66663H11.3334C11.9468 2.66663 12.4445 3.17853 12.4445 3.80948V11.0476H3.5556V3.80948ZM10.801 4.92853C10.5834 4.70472 10.2315 4.70472 10.0162 4.92853L7.4468 7.57139L6.35884 6.45234C6.14124 6.22853 5.78939 6.22853 5.57411 6.45234C5.35884 6.67615 5.35652 7.03805 5.57411 7.25948L7.0556 8.78329C7.27319 9.0071 7.62504 9.0071 7.84032 8.78329L10.801 5.73805C11.0186 5.51424 11.0186 5.15234 10.801 4.93091V4.92853ZM1.33337 9.90472C1.33337 9.27377 1.83106 8.76186 2.44449 8.76186H2.81486V11.8095H13.1852V8.76186H13.5556C14.169 8.76186 14.6667 9.27377 14.6667 9.90472V12.1904C14.6667 12.8214 14.169 13.3333 13.5556 13.3333H2.44449C1.83106 13.3333 1.33337 12.8214 1.33337 12.1904V9.90472Z" fill="#333333"/>
</g>
</svg>
