<svg width="16" height="16" viewBox="0 0 16 16" fill="none" xmlns="http://www.w3.org/2000/svg">
<g id="WA.circle-check">
<path id="Icon" d="M8 14.6666C9.76811 14.6666 11.4638 13.9643 12.714 12.714C13.9643 11.4638 14.6667 9.76809 14.6667 7.99998C14.6667 6.23187 13.9643 4.53618 12.714 3.28593C11.4638 2.03569 9.76811 1.33331 8 1.33331C6.23189 1.33331 4.5362 2.03569 3.28596 3.28593C2.03571 4.53618 1.33333 6.23187 1.33333 7.99998C1.33333 9.76809 2.03571 11.4638 3.28596 12.714C4.5362 13.9643 6.23189 14.6666 8 14.6666ZM10.9427 6.77602L7.60938 10.1094C7.36458 10.3541 6.96875 10.3541 6.72656 10.1094L5.0599 8.44269C4.8151 8.1979 4.8151 7.80206 5.0599 7.55988C5.30469 7.31769 5.70052 7.31508 5.94271 7.55988L7.16667 8.78383L10.0573 5.8906C10.3021 5.64581 10.6979 5.64581 10.9401 5.8906C11.1823 6.1354 11.1849 6.53123 10.9401 6.77342L10.9427 6.77602Z" fill="#34A98F"/>
</g>
</svg>
