<svg width="24" height="24" viewBox="0 0 24 24" fill="none" xmlns="http://www.w3.org/2000/svg">
<g id="WA.Confort">
<path id="Icon" d="M8.35764 11.2607C9.52778 12 10.5417 12.9786 11.3368 14.1357C11.5799 14.4893 11.8021 14.8607 12 15.2429C12.1979 14.8571 12.4201 14.4893 12.6632 14.1357C13.4583 12.9786 14.4722 12 15.6424 11.2607C17.1944 10.2786 19.0174 9.71429 20.9583 9.71429H21.3021C21.6875 9.71429 22 10.0357 22 10.4321C22 15.7179 17.8368 20 12.6979 20H12H11.3021C6.16319 20 2 15.7179 2 10.4321C2 10.0357 2.3125 9.71429 2.69792 9.71429H3.04167C4.98264 9.71429 6.80556 10.2786 8.35764 11.2607ZM12.4688 4.2C13.0139 4.80357 14.5903 6.76429 15.3993 10.0786C14.0799 10.85 12.9201 11.8929 12 13.1357C11.0799 11.8929 9.92014 10.8536 8.6007 10.0786C9.40625 6.76429 10.9826 4.80357 11.5312 4.2C11.6528 4.06786 11.8229 4 12 4C12.1771 4 12.3472 4.06786 12.4688 4.2Z" fill="#777777"/>
</g>
</svg>
