<svg width="20" height="20" viewBox="0 0 20 20" fill="none" xmlns="http://www.w3.org/2000/svg">
<g id="WA.copy">
<path id="Icon" d="M9.27083 1.66669H13.3105C13.724 1.66669 14.1211 1.8327 14.4141 2.12567L16.6243 4.33596C16.9173 4.62893 17.0833 5.02606 17.0833 5.43947V12.6042C17.0833 13.4668 16.3835 14.1667 15.5208 14.1667H9.27083C8.4082 14.1667 7.70833 13.4668 7.70833 12.6042V3.22919C7.70833 2.36656 8.4082 1.66669 9.27083 1.66669ZM4.0625 5.83335H6.66667V7.91669H4.58333V16.25H10.8333V15.2084H12.9167V16.7709C12.9167 17.6335 12.2168 18.3334 11.3542 18.3334H4.0625C3.19987 18.3334 2.5 17.6335 2.5 16.7709V7.39585C2.5 6.53322 3.19987 5.83335 4.0625 5.83335Z" fill="#333333"/>
</g>
</svg>
