<svg width="20" height="20" viewBox="0 0 20 20" fill="none" xmlns="http://www.w3.org/2000/svg">
<g id="WA.check-in">
<path id="Icon" d="M9.99996 1.66667C7.78982 1.66667 5.67021 2.54465 4.1074 4.10745C2.5446 5.67025 1.66663 7.78987 1.66663 10C1.66663 12.2101 2.5446 14.3298 4.1074 15.8926C5.67021 17.4554 7.78982 18.3333 9.99996 18.3333C12.2101 18.3333 14.3297 17.4554 15.8925 15.8926C17.4553 14.3298 18.3333 12.2101 18.3333 10C18.3333 7.78987 17.4553 5.67025 15.8925 4.10745C14.3297 2.54465 12.2101 1.66667 9.99996 1.66667ZM13.9355 11.2565L10.4492 14.5085C10.3255 14.6224 10.166 14.6875 9.99996 14.6875C9.83394 14.6875 9.67118 14.6224 9.55074 14.5085L6.06441 11.2565C5.91793 11.1198 5.83329 10.9277 5.83329 10.7259C5.83329 10.3255 6.15881 10 6.5592 10H8.43746V6.87501C8.43746 6.29883 8.90295 5.83334 9.47913 5.83334H10.5208C11.097 5.83334 11.5625 6.29883 11.5625 6.87501V10H13.4407C13.8411 10 14.1666 10.3255 14.1666 10.7259C14.1666 10.9277 14.082 11.1198 13.9355 11.2565Z" fill="#333333"/>
</g>
</svg>
