<svg width="16" height="16" viewBox="0 0 16 16" fill="none" xmlns="http://www.w3.org/2000/svg">
<g id="WA.circle-check">
<path id="Icon" d="M8.00004 14.6668C9.76815 14.6668 11.4638 13.9645 12.7141 12.7142C13.9643 11.464 14.6667 9.76827 14.6667 8.00016C14.6667 6.23205 13.9643 4.53636 12.7141 3.28612C11.4638 2.03588 9.76815 1.3335 8.00004 1.3335C6.23193 1.3335 4.53624 2.03588 3.286 3.28612C2.03575 4.53636 1.33337 6.23205 1.33337 8.00016C1.33337 9.76827 2.03575 11.464 3.286 12.7142C4.53624 13.9645 6.23193 14.6668 8.00004 14.6668ZM10.9427 6.7762L7.60942 10.1095C7.36462 10.3543 6.96879 10.3543 6.7266 10.1095L5.05994 8.44287C4.81514 8.19808 4.81514 7.80225 5.05994 7.56006C5.30473 7.31787 5.70056 7.31527 5.94275 7.56006L7.16671 8.78402L10.0573 5.89079C10.3021 5.646 10.698 5.646 10.9401 5.89079C11.1823 6.13558 11.1849 6.53141 10.9401 6.7736L10.9427 6.7762Z" fill="#FAFAFA"/>
</g>
</svg>
