<svg width="16" height="16" viewBox="0 0 16 16" fill="none" xmlns="http://www.w3.org/2000/svg">
<g id="WA.delete">
<path id="Icon" d="M5.62143 1.79492L5.42857 2.16732H2.85714C2.38304 2.16732 2 2.53971 2 3.00065C2 3.46159 2.38304 3.83398 2.85714 3.83398H13.1429C13.617 3.83398 14 3.46159 14 3.00065C14 2.53971 13.617 2.16732 13.1429 2.16732H10.5714L10.3786 1.79492C10.2339 1.51107 9.93661 1.33398 9.6125 1.33398H6.3875C6.06339 1.33398 5.76607 1.51107 5.62143 1.79492ZM13.1429 4.66732H2.85714L3.425 13.4954C3.46786 14.1543 4.03036 14.6673 4.70804 14.6673H11.292C11.9696 14.6673 12.5321 14.1543 12.575 13.4954L13.1429 4.66732Z" fill="#333333"/>
</g>
</svg>
