<svg width="24" height="24" viewBox="0 0 24 24" fill="none" xmlns="http://www.w3.org/2000/svg">
<g id="WA.Expand">
<path id="Icon" d="M3.42857 2C2.63839 2 2 2.63839 2 3.42857V7.71429C2 8.50446 2.63839 9.14286 3.42857 9.14286C4.21875 9.14286 4.85714 8.50446 4.85714 7.71429V4.85714H7.71429C8.50446 4.85714 9.14286 4.21875 9.14286 3.42857C9.14286 2.63839 8.50446 2 7.71429 2H3.42857ZM4.85714 16.2857C4.85714 15.4955 4.21875 14.8571 3.42857 14.8571C2.63839 14.8571 2 15.4955 2 16.2857V20.5714C2 21.3616 2.63839 22 3.42857 22H7.71429C8.50446 22 9.14286 21.3616 9.14286 20.5714C9.14286 19.7812 8.50446 19.1429 7.71429 19.1429H4.85714V16.2857ZM16.2857 2C15.4955 2 14.8571 2.63839 14.8571 3.42857C14.8571 4.21875 15.4955 4.85714 16.2857 4.85714H19.1429V7.71429C19.1429 8.50446 19.7812 9.14286 20.5714 9.14286C21.3616 9.14286 22 8.50446 22 7.71429V3.42857C22 2.63839 21.3616 2 20.5714 2H16.2857ZM22 16.2857C22 15.4955 21.3616 14.8571 20.5714 14.8571C19.7812 14.8571 19.1429 15.4955 19.1429 16.2857V19.1429H16.2857C15.4955 19.1429 14.8571 19.7812 14.8571 20.5714C14.8571 21.3616 15.4955 22 16.2857 22H20.5714C21.3616 22 22 21.3616 22 20.5714V16.2857Z" fill="#333333"/>
</g>
</svg>
