<svg width="25" height="24" viewBox="0 0 25 24" fill="none" xmlns="http://www.w3.org/2000/svg">
<g id="WA.Expedia">
<g id="Icon">
<path d="M6.62975 2H18.289C20.5767 2 22.4187 3.84953 22.4187 6.1466V17.8534C22.4187 20.1505 20.5767 22 18.289 22H6.62975C4.34201 22 2.5 20.1505 2.5 17.8534V6.1466C2.5 3.84953 4.34201 2 6.62975 2Z" fill="#FDDB32"/>
<path d="M8.07007 5.58076C7.88432 5.58076 7.76775 5.6237 7.66963 5.72222L5.67918 7.72079C5.64229 7.75784 5.62132 7.80836 5.62132 7.86057C5.62132 7.97003 5.70937 8.05844 5.81839 8.05844H14.4469L9.14224 13.3847C9.03783 13.4896 8.97703 13.5506 8.97703 13.7569V15.1585C8.97703 15.2435 9.01561 15.3168 9.07054 15.3724C9.12588 15.4279 9.19884 15.4662 9.28354 15.4662H10.6794C10.8845 15.4662 10.9453 15.4052 11.0497 15.3004L16.3543 9.97407V18.6378C16.3543 18.7468 16.4424 18.8356 16.5514 18.8356C16.6038 18.8356 16.6537 18.8146 16.6906 18.7775L18.681 16.779C18.7792 16.6805 18.8219 16.563 18.8219 16.3769V6.91664C18.8219 6.17902 18.2265 5.58118 17.4919 5.58118L8.07007 5.58076Z" fill="#191E3B"/>
<path d="M6.37985 15.8546H8.2944C8.45458 15.8546 8.5833 15.9838 8.5833 16.1447V18.0793C8.5833 18.2401 8.45458 18.3693 8.2944 18.3693H6.37985C6.21967 18.3693 6.09094 18.2401 6.09094 18.0793V16.1447C6.09052 15.9838 6.21967 15.8546 6.37985 15.8546Z" fill="#191E3B"/>
</g>
</g>
</svg>
