<svg width="20" height="20" viewBox="0 0 20 20" fill="none" xmlns="http://www.w3.org/2000/svg">
<g id="WA.flag">
<path id="icon" d="M3.5 1.25C3.5 0.558594 2.94141 0 2.25 0C1.55859 0 1 0.558594 1 1.25V2.5V14.375V18.75C1 19.4414 1.55859 20 2.25 20C2.94141 20 3.5 19.4414 3.5 18.75V13.75L6.01172 13.1211C7.61719 12.7188 9.31641 12.9062 10.7969 13.6445C12.5234 14.5078 14.5273 14.6133 16.332 13.9336L17.6875 13.4258C18.1758 13.2422 18.5 12.7773 18.5 12.2539V2.57812C18.5 1.67969 17.5547 1.09375 16.75 1.49609L16.375 1.68359C14.5664 2.58984 12.4375 2.58984 10.6289 1.68359C9.25781 0.996094 7.68359 0.824219 6.19531 1.19531L3.5 1.875V1.25Z" fill="#333333"/>
</g>
</svg>
