<svg width="24" height="24" viewBox="0 0 24 24" fill="none" xmlns="http://www.w3.org/2000/svg">
<g id="WA.Filtros">
<path id="Icon" d="M2 18.625C2 19.3164 2.55859 19.875 3.25 19.875H5.38672C5.86719 20.9805 6.96875 21.75 8.25 21.75C9.53125 21.75 10.6328 20.9805 11.1133 19.875H20.75C21.4414 19.875 22 19.3164 22 18.625C22 17.9336 21.4414 17.375 20.75 17.375H11.1133C10.6328 16.2695 9.53125 15.5 8.25 15.5C6.96875 15.5 5.86719 16.2695 5.38672 17.375H3.25C2.55859 17.375 2 17.9336 2 18.625ZM7 18.625C7 18.2935 7.1317 17.9755 7.36612 17.7411C7.60054 17.5067 7.91848 17.375 8.25 17.375C8.58152 17.375 8.89946 17.5067 9.13388 17.7411C9.3683 17.9755 9.5 18.2935 9.5 18.625C9.5 18.9565 9.3683 19.2745 9.13388 19.5089C8.89946 19.7433 8.58152 19.875 8.25 19.875C7.91848 19.875 7.60054 19.7433 7.36612 19.5089C7.1317 19.2745 7 18.9565 7 18.625ZM14.5 12.375C14.5 12.0435 14.6317 11.7255 14.8661 11.4911C15.1005 11.2567 15.4185 11.125 15.75 11.125C16.0815 11.125 16.3995 11.2567 16.6339 11.4911C16.8683 11.7255 17 12.0435 17 12.375C17 12.7065 16.8683 13.0245 16.6339 13.2589C16.3995 13.4933 16.0815 13.625 15.75 13.625C15.4185 13.625 15.1005 13.4933 14.8661 13.2589C14.6317 13.0245 14.5 12.7065 14.5 12.375ZM15.75 9.25C14.4688 9.25 13.3672 10.0195 12.8867 11.125H3.25C2.55859 11.125 2 11.6836 2 12.375C2 13.0664 2.55859 13.625 3.25 13.625H12.8867C13.3672 14.7305 14.4688 15.5 15.75 15.5C17.0312 15.5 18.1328 14.7305 18.6133 13.625H20.75C21.4414 13.625 22 13.0664 22 12.375C22 11.6836 21.4414 11.125 20.75 11.125H18.6133C18.1328 10.0195 17.0312 9.25 15.75 9.25ZM9.5 7.375C9.16848 7.375 8.85054 7.2433 8.61612 7.00888C8.3817 6.77446 8.25 6.45652 8.25 6.125C8.25 5.79348 8.3817 5.47554 8.61612 5.24112C8.85054 5.0067 9.16848 4.875 9.5 4.875C9.83152 4.875 10.1495 5.0067 10.3839 5.24112C10.6183 5.47554 10.75 5.79348 10.75 6.125C10.75 6.45652 10.6183 6.77446 10.3839 7.00888C10.1495 7.2433 9.83152 7.375 9.5 7.375ZM12.3633 4.875C11.8828 3.76953 10.7812 3 9.5 3C8.21875 3 7.11719 3.76953 6.63672 4.875H3.25C2.55859 4.875 2 5.43359 2 6.125C2 6.81641 2.55859 7.375 3.25 7.375H6.63672C7.11719 8.48047 8.21875 9.25 9.5 9.25C10.7812 9.25 11.8828 8.48047 12.3633 7.375H20.75C21.4414 7.375 22 6.81641 22 6.125C22 5.43359 21.4414 4.875 20.75 4.875H12.3633Z" fill="#333333"/>
</g>
</svg>
