<svg width="25" height="24" viewBox="0 0 25 24" fill="none" xmlns="http://www.w3.org/2000/svg">
<g id="WA.facebook">
<path id="Vector" d="M10.85 21.9C6.1 21.05 2.5 16.95 2.5 12C2.5 6.5 7 2 12.5 2C18 2 22.5 6.5 22.5 12C22.5 16.95 18.9 21.05 14.15 21.9L13.6 21.45H11.4L10.85 21.9Z" fill="url(#paint0_linear_2360_16662)"/>
<path id="Vector_2" d="M16.4004 14.7984L16.8504 11.9984H14.2004V10.0484C14.2004 9.24844 14.5004 8.64844 15.7004 8.64844H17.0004V6.09844C16.3004 5.99844 15.5004 5.89844 14.8004 5.89844C12.5004 5.89844 10.9004 7.29844 10.9004 9.79844V11.9984H8.40039V14.7984H10.9004V21.8484C11.4504 21.9484 12.0004 21.9984 12.5504 21.9984C13.1004 21.9984 13.6504 21.9484 14.2004 21.8484V14.7984H16.4004Z" fill="white"/>
</g>
<defs>
<linearGradient id="paint0_linear_2360_16662" x1="12.5005" y1="21.3045" x2="12.5005" y2="1.99632" gradientUnits="userSpaceOnUse">
<stop stop-color="#0062E0"/>
<stop offset="1" stop-color="#19AFFF"/>
</linearGradient>
</defs>
</svg>
