<svg width="24" height="24" viewBox="0 0 24 24" fill="none" xmlns="http://www.w3.org/2000/svg">
<g id="WA.google">
<g id="Vector">
<path d="M18.9645 19.5815C21.3868 17.3728 22.4605 13.7029 21.8163 10.1842H12.2042V14.0725H17.676C17.5697 14.6824 17.3336 15.2637 16.9829 15.7787C16.6322 16.2937 16.1747 16.731 15.6402 17.0621L18.9645 19.5815Z" fill="#4285F4"/>
<path d="M3.07314 16.4827C3.77919 17.843 4.7919 19.0288 6.03492 19.9508C7.27794 20.8728 8.71884 21.5069 10.249 21.8053C11.7791 22.1037 13.3586 22.0586 14.8683 21.6734C16.378 21.2882 17.7786 20.5729 18.9645 19.5815L15.6402 17.0621C14.8518 17.5619 13.9568 17.8784 13.0239 17.9873C12.0909 18.0963 11.1449 17.9949 10.2583 17.6908C9.37168 17.3868 8.56812 16.8882 7.90928 16.2333C7.25044 15.5784 6.75383 14.7846 6.45756 13.9129L3.07314 16.4827Z" fill="#34A853"/>
<path d="M6.45756 13.9129C6.02807 12.6028 6.02807 11.3935 6.45756 10.0834L3.07314 7.50525C2.36721 8.90243 2 10.4398 2 11.9982C2 13.5565 2.36721 15.0939 3.07314 16.4911L6.45756 13.9129Z" fill="#FBBC02"/>
<path d="M6.45756 10.0834C7.64297 6.45551 12.6852 4.35602 16.0697 7.45486L19.0246 4.62475C17.8674 3.58149 16.4777 2.81604 14.9654 2.38907C13.4531 1.96209 11.8599 1.88532 10.312 2.16483C8.76412 2.44435 7.30409 3.07248 6.04761 3.99943C4.79113 4.92639 3.77274 6.1267 3.07314 7.50525L6.45756 10.0834Z" fill="#EA4335"/>
</g>
</g>
</svg>
