<svg width="16" height="16" viewBox="0 0 16 16" fill="none" xmlns="http://www.w3.org/2000/svg">
<g id="WA.huespedes">
<path id="Icon" d="M3.33337 5.33329C3.33337 4.62605 3.61433 3.94777 4.11442 3.44767C4.61452 2.94758 5.2928 2.66663 6.00004 2.66663C6.70728 2.66663 7.38556 2.94758 7.88566 3.44767C8.38576 3.94777 8.66671 4.62605 8.66671 5.33329C8.66671 6.04054 8.38576 6.71881 7.88566 7.21891C7.38556 7.71901 6.70728 7.99996 6.00004 7.99996C5.2928 7.99996 4.61452 7.71901 4.11442 7.21891C3.61433 6.71881 3.33337 6.04054 3.33337 5.33329ZM1.33337 12.7145C1.33337 10.6625 2.99587 8.99996 5.04796 8.99996H6.95212C9.00421 8.99996 10.6667 10.6625 10.6667 12.7145C10.6667 13.0562 10.3896 13.3333 10.048 13.3333H1.95212C1.61046 13.3333 1.33337 13.0562 1.33337 12.7145ZM14.0271 13.3333H11.1542C11.2667 13.1375 11.3334 12.9104 11.3334 12.6666V12.5C11.3334 11.2354 10.7688 10.1 9.87921 9.33746C9.92921 9.33538 9.97712 9.33329 10.0271 9.33329H11.3063C13.1625 9.33329 14.6667 10.8375 14.6667 12.6937C14.6667 13.0479 14.3792 13.3333 14.0271 13.3333ZM10.3334 7.99996C9.68754 7.99996 9.10421 7.73746 8.68129 7.31454C9.09171 6.76038 9.33337 6.07496 9.33337 5.33329C9.33337 4.77496 9.19588 4.24788 8.95213 3.78538C9.33963 3.50204 9.81671 3.33329 10.3334 3.33329C11.623 3.33329 12.6667 4.37704 12.6667 5.66663C12.6667 6.95621 11.623 7.99996 10.3334 7.99996Z" fill="#333333"/>
</g>
</svg>
