<svg width="24" height="24" viewBox="0 0 24 24" fill="none" xmlns="http://www.w3.org/2000/svg">
<g id="WA.inbox">
<path id="Icon" d="M6.72656 3C5.57812 3 4.57812 3.80357 4.30078 4.94866L2.07422 14.1054C2.02344 14.3103 2 14.5192 2 14.7281V18.4286C2 19.8469 3.12109 21 4.5 21H19.5C20.8789 21 22 19.8469 22 18.4286V14.7281C22 14.5192 21.9766 14.3103 21.9258 14.1054L19.6992 4.94866C19.4219 3.80357 18.4219 3 17.2734 3H6.72656ZM6.72656 5.57143H17.2734L19.1484 13.2857H17.1484C16.6758 13.2857 16.2422 13.5589 16.0312 13.9969L15.4727 15.146C15.2617 15.5799 14.8281 15.8571 14.3555 15.8571H9.64844C9.17578 15.8571 8.74219 15.5839 8.53125 15.146L7.97266 13.9969C7.76172 13.5629 7.32812 13.2857 6.85547 13.2857H4.85156L6.72656 5.57143Z" fill="#777777"/>
</g>
</svg>
