<svg width="32" height="32" viewBox="0 0 32 32" fill="none" xmlns="http://www.w3.org/2000/svg">
<g id="WA.id">
<path id="Icon" d="M5.62959 5.33337C3.99533 5.33337 2.66663 6.70004 2.66663 8.38099V23.6191C2.66663 25.3 3.99533 26.6667 5.62959 26.6667H26.3703C28.0046 26.6667 29.3333 25.3 29.3333 23.6191V8.38099C29.3333 6.70004 28.0046 5.33337 26.3703 5.33337H5.62959ZM9.33329 17.5238H12.2963C14.3426 17.5238 16 19.2286 16 21.3334C16 21.7524 15.6666 22.0953 15.2592 22.0953H6.37033C5.96292 22.0953 5.62959 21.7524 5.62959 21.3334C5.62959 19.2286 7.287 17.5238 9.33329 17.5238ZM7.85181 12.9524C7.85181 12.1441 8.16398 11.369 8.71964 10.7974C9.27531 10.2259 10.0289 9.9048 10.8148 9.9048C11.6006 9.9048 12.3542 10.2259 12.9099 10.7974C13.4656 11.369 13.7777 12.1441 13.7777 12.9524C13.7777 13.7607 13.4656 14.5359 12.9099 15.1074C12.3542 15.679 11.6006 16 10.8148 16C10.0289 16 9.27531 15.679 8.71964 15.1074C8.16398 14.5359 7.85181 13.7607 7.85181 12.9524ZM19.7037 11.4286H25.6296C26.037 11.4286 26.3703 11.7715 26.3703 12.1905C26.3703 12.6096 26.037 12.9524 25.6296 12.9524H19.7037C19.2963 12.9524 18.9629 12.6096 18.9629 12.1905C18.9629 11.7715 19.2963 11.4286 19.7037 11.4286ZM19.7037 14.4762H25.6296C26.037 14.4762 26.3703 14.8191 26.3703 15.2381C26.3703 15.6572 26.037 16 25.6296 16H19.7037C19.2963 16 18.9629 15.6572 18.9629 15.2381C18.9629 14.8191 19.2963 14.4762 19.7037 14.4762ZM19.7037 17.5238H25.6296C26.037 17.5238 26.3703 17.8667 26.3703 18.2858C26.3703 18.7048 26.037 19.0477 25.6296 19.0477H19.7037C19.2963 19.0477 18.9629 18.7048 18.9629 18.2858C18.9629 17.8667 19.2963 17.5238 19.7037 17.5238Z" fill="#333333"/>
</g>
</svg>
