<svg width="33" height="32" viewBox="0 0 33 32" fill="none" xmlns="http://www.w3.org/2000/svg">
<g id="WA.instagram">
<path id="Vector" d="M16.5068 2.66907C10.9402 2.66907 9.31221 2.67481 8.99576 2.70106C7.85341 2.79602 7.14257 2.97588 6.36815 3.36145C5.77134 3.6578 5.30066 4.00133 4.83613 4.48288C3.99013 5.36107 3.47741 6.44149 3.2918 7.72576C3.20156 8.34923 3.17531 8.47639 3.16998 11.661C3.16793 12.7226 3.16998 14.1196 3.16998 15.9935C3.16998 21.5556 3.17613 23.1819 3.20279 23.4978C3.29508 24.6094 3.46941 25.3087 3.83857 26.0737C4.54408 27.538 5.89152 28.6373 7.47891 29.0475C8.02855 29.189 8.63562 29.2669 9.41496 29.3039C9.74515 29.3182 13.1107 29.3285 16.4782 29.3285C19.8458 29.3285 23.2134 29.3244 23.5354 29.308C24.4378 29.2655 24.9618 29.1952 25.5412 29.0454C27.1388 28.6332 28.4616 27.5503 29.1815 26.0655C29.5435 25.319 29.727 24.5929 29.8101 23.5394C29.8281 23.3097 29.8357 19.6474 29.8357 15.9901C29.8357 12.3321 29.8275 8.67655 29.8095 8.44685C29.7254 7.37629 29.5418 6.65642 29.1682 5.89554C28.8616 5.27268 28.5211 4.80754 28.0268 4.33193C27.1448 3.48943 26.066 2.9767 24.7805 2.7913C24.1576 2.70127 24.0335 2.6746 20.8465 2.66907H16.5068Z" fill="url(#paint0_radial_5279_2873)"/>
<path id="Vector_2" d="M16.5068 2.66907C10.9402 2.66907 9.31221 2.67481 8.99576 2.70106C7.85341 2.79602 7.14257 2.97588 6.36815 3.36145C5.77134 3.6578 5.30066 4.00133 4.83613 4.48288C3.99013 5.36107 3.47741 6.44149 3.2918 7.72576C3.20156 8.34923 3.17531 8.47639 3.16998 11.661C3.16793 12.7226 3.16998 14.1196 3.16998 15.9935C3.16998 21.5556 3.17613 23.1819 3.20279 23.4978C3.29508 24.6094 3.46941 25.3087 3.83857 26.0737C4.54408 27.538 5.89152 28.6373 7.47891 29.0475C8.02855 29.189 8.63562 29.2669 9.41496 29.3039C9.74515 29.3182 13.1107 29.3285 16.4782 29.3285C19.8458 29.3285 23.2134 29.3244 23.5354 29.308C24.4378 29.2655 24.9618 29.1952 25.5412 29.0454C27.1388 28.6332 28.4616 27.5503 29.1815 26.0655C29.5435 25.319 29.727 24.5929 29.8101 23.5394C29.8281 23.3097 29.8357 19.6474 29.8357 15.9901C29.8357 12.3321 29.8275 8.67655 29.8095 8.44685C29.7254 7.37629 29.5418 6.65642 29.1682 5.89554C28.8616 5.27268 28.5211 4.80754 28.0268 4.33193C27.1448 3.48943 26.066 2.9767 24.7805 2.7913C24.1576 2.70127 24.0335 2.6746 20.8465 2.66907H16.5068Z" fill="url(#paint1_radial_5279_2873)"/>
<path id="Vector_3" d="M16.5004 6.15564C13.8268 6.15564 13.4913 6.16733 12.4413 6.21512C11.3933 6.26311 10.6779 6.42902 10.052 6.67247C9.4045 6.92391 8.85527 7.26025 8.30809 7.80764C7.7605 8.35482 7.42415 8.90405 7.17189 9.55131C6.92784 10.1774 6.76171 10.893 6.71454 11.9406C6.66758 12.9907 6.65527 13.3264 6.65527 15.9999C6.65527 18.6735 6.66717 19.008 6.71475 20.0581C6.76295 21.1061 6.92886 21.8214 7.1721 22.4473C7.42374 23.0948 7.76009 23.644 8.30748 24.1912C8.85445 24.7388 9.40368 25.076 10.0507 25.3274C10.6771 25.5709 11.3926 25.7368 12.4404 25.7848C13.4905 25.8326 13.8258 25.8442 16.4992 25.8442C19.1729 25.8442 19.5074 25.8326 20.5575 25.7848C21.6055 25.7368 22.3217 25.5709 22.948 25.3274C23.5953 25.076 24.1437 24.7388 24.6907 24.1912C25.2382 23.644 25.5746 23.0948 25.8268 22.4475C26.0689 21.8214 26.235 21.1059 26.2842 20.0583C26.3314 19.0082 26.3437 18.6735 26.3437 15.9999C26.3437 13.3264 26.3314 12.9909 26.2842 11.9408C26.235 10.8928 26.0689 10.1774 25.8268 9.55151C25.5746 8.90405 25.2382 8.35482 24.6907 7.80764C24.1431 7.26005 23.5955 6.9237 22.9474 6.67247C22.3198 6.42902 21.6041 6.26311 20.556 6.21512C19.506 6.16733 19.1717 6.15564 16.4973 6.15564H16.5004ZM15.6173 7.92966C15.8794 7.92925 16.1718 7.92966 16.5004 7.92966C19.1288 7.92966 19.4404 7.9391 20.4783 7.98627C21.4381 8.03016 21.9591 8.19054 22.3061 8.32528C22.7655 8.50371 23.093 8.717 23.4373 9.06155C23.7819 9.4061 23.9952 9.73425 24.174 10.1936C24.3088 10.5403 24.4694 11.0612 24.513 12.021C24.5602 13.0588 24.5705 13.3705 24.5705 15.9977C24.5705 18.6249 24.5602 18.9366 24.513 19.9744C24.4692 20.9342 24.3088 21.4551 24.174 21.8017C23.9956 22.2611 23.7819 22.5882 23.4373 22.9326C23.0928 23.2771 22.7657 23.4904 22.3061 23.6689C21.9595 23.8042 21.4381 23.9642 20.4783 24.0081C19.4406 24.0552 19.1288 24.0655 16.5004 24.0655C13.8718 24.0655 13.5602 24.0552 12.5225 24.0081C11.5627 23.9638 11.0417 23.8034 10.6945 23.6687C10.2351 23.4902 9.90697 23.2769 9.56242 22.9324C9.21787 22.5878 9.00458 22.2605 8.82574 21.8009C8.69099 21.4543 8.53041 20.9334 8.48672 19.9736C8.43955 18.9358 8.43012 18.6241 8.43012 15.9952C8.43012 13.3664 8.43955 13.0563 8.48672 12.0185C8.53061 11.0587 8.69099 10.5378 8.82574 10.1908C9.00417 9.73138 9.21787 9.40323 9.56242 9.05868C9.90697 8.71413 10.2351 8.50084 10.6945 8.322C11.0415 8.18664 11.5627 8.02667 12.5225 7.98258C13.4306 7.94156 13.7825 7.92925 15.6173 7.9272V7.92966ZM21.7552 9.56423C21.103 9.56423 20.5739 10.0927 20.5739 10.7451C20.5739 11.3973 21.103 11.9265 21.7552 11.9265C22.4074 11.9265 22.9365 11.3973 22.9365 10.7451C22.9365 10.093 22.4074 9.56382 21.7552 9.56382V9.56423ZM16.5004 10.9445C13.7085 10.9445 11.4449 13.2081 11.4449 15.9999C11.4449 18.7918 13.7085 21.0544 16.5004 21.0544C19.2923 21.0544 21.555 18.7918 21.555 15.9999C21.555 13.2081 19.2923 10.9445 16.5004 10.9445ZM16.5004 12.7185C18.3126 12.7185 19.7818 14.1876 19.7818 15.9999C19.7818 17.8121 18.3126 19.2814 16.5004 19.2814C14.688 19.2814 13.219 17.8121 13.219 15.9999C13.219 14.1876 14.688 12.7185 16.5004 12.7185Z" fill="white"/>
</g>
<defs>
<radialGradient id="paint0_radial_5279_2873" cx="0" cy="0" r="1" gradientUnits="userSpaceOnUse" gradientTransform="translate(10.2524 31.3818) rotate(-90) scale(26.4214 24.5807)">
<stop stop-color="#FFDD55"/>
<stop offset="0.1" stop-color="#FFDD55"/>
<stop offset="0.5" stop-color="#FF543E"/>
<stop offset="1" stop-color="#C837AB"/>
</radialGradient>
<radialGradient id="paint1_radial_5279_2873" cx="0" cy="0" r="1" gradientUnits="userSpaceOnUse" gradientTransform="translate(-1.29774 4.58957) rotate(78.6776) scale(11.8106 48.6961)">
<stop stop-color="#3771C8"/>
<stop offset="0.128" stop-color="#3771C8"/>
<stop offset="1" stop-color="#6600FF" stop-opacity="0"/>
</radialGradient>
</defs>
</svg>
