<svg width="16" height="16" viewBox="0 0 16 16" fill="none" xmlns="http://www.w3.org/2000/svg">
<g id="WA.Idiomas">
<path id="Icon" d="M1.33337 5.33333C1.33337 4.59792 1.93129 4 2.66671 4H13.3334C14.0688 4 14.6667 4.59792 14.6667 5.33333V10.6667C14.6667 11.4021 14.0688 12 13.3334 12H2.66671C1.93129 12 1.33337 11.4021 1.33337 10.6667V5.33333ZM8.00004 5.33333V10.6667H13.3334V5.33333H8.00004ZM5.04796 6.33125C4.98129 6.18125 4.83129 6.08333 4.66671 6.08333C4.50212 6.08333 4.35212 6.18125 4.28546 6.33125L2.95212 9.33125C2.85837 9.54167 2.95421 9.7875 3.16462 9.88125C3.37504 9.975 3.62087 9.87917 3.71462 9.66875L3.90004 9.25H5.43337L5.61879 9.66875C5.71254 9.87917 5.95837 9.97292 6.16879 9.88125C6.37921 9.78958 6.47296 9.54167 6.38129 9.33125L5.04796 6.33125ZM4.66671 7.525L5.06254 8.41667H4.27087L4.66671 7.525ZM10.6667 6.08333C10.8959 6.08333 11.0834 6.27083 11.0834 6.5V6.58333H12.3334C12.5625 6.58333 12.75 6.77083 12.75 7C12.75 7.22917 12.5625 7.41667 12.3334 7.41667H12.2917L12.2584 7.51042C12.073 8.01875 11.7917 8.48125 11.4334 8.87292C11.4521 8.88542 11.4709 8.89583 11.4896 8.90625L11.8834 9.14167C12.0813 9.26042 12.1438 9.51667 12.0271 9.7125C11.9105 9.90833 11.6521 9.97292 11.4563 9.85625L11.0625 9.62083C10.9688 9.56458 10.8792 9.50625 10.7896 9.44375C10.5688 9.6 10.3334 9.73542 10.0813 9.84792L10.0063 9.88125C9.79587 9.975 9.55004 9.87917 9.45629 9.66875C9.36254 9.45833 9.45837 9.2125 9.66879 9.11875L9.74379 9.08542C9.87712 9.025 10.0063 8.95833 10.1292 8.88125L9.87504 8.62708C9.71254 8.46458 9.71254 8.2 9.87504 8.0375C10.0375 7.875 10.3021 7.875 10.4646 8.0375L10.7792 8.35208C11.0375 8.07917 11.248 7.7625 11.4 7.41458L10.6667 7.41667H9.16671C8.93754 7.41667 8.75004 7.22917 8.75004 7C8.75004 6.77083 8.93754 6.58333 9.16671 6.58333H10.25V6.5C10.25 6.27083 10.4375 6.08333 10.6667 6.08333Z" fill="#333333"/>
</g>
</svg>
