<svg width="20" height="20" viewBox="0 0 20 20" fill="none" xmlns="http://www.w3.org/2000/svg">
<g id="WA.kebab">
<path id="Icon" fill-rule="evenodd" clip-rule="evenodd" d="M8.33203 3.51787C8.33203 2.49512 9.1715 1.66602 10.207 1.66602C11.2426 1.66602 12.082 2.49512 12.082 3.51787C12.082 4.54062 11.2426 5.36972 10.207 5.36972C9.1715 5.36972 8.33203 4.54062 8.33203 3.51787ZM8.33203 9.99935C8.33203 8.9766 9.1715 8.1475 10.207 8.1475C11.2426 8.1475 12.082 8.9766 12.082 9.99935C12.082 11.0221 11.2426 11.8512 10.207 11.8512C9.1715 11.8512 8.33203 11.0221 8.33203 9.99935ZM8.33203 16.4808C8.33203 15.4581 9.1715 14.629 10.207 14.629C11.2426 14.629 12.082 15.4581 12.082 16.4808C12.082 17.5036 11.2426 18.3327 10.207 18.3327C9.1715 18.3327 8.33203 17.5036 8.33203 16.4808Z" fill="#333333"/>
</g>
</svg>
