<svg width="33" height="32" viewBox="0 0 33 32" fill="none" xmlns="http://www.w3.org/2000/svg">
<g id="WA.llamar">
<path id="Icon" d="M11.7548 3.94912C11.3538 2.98041 10.2965 2.46481 9.28615 2.74084L4.70302 3.99078C3.79681 4.24077 3.16663 5.06365 3.16663 6.00111C3.16663 18.886 13.6141 29.3334 26.4989 29.3334C27.4364 29.3334 28.2593 28.7032 28.5093 27.797L29.7592 23.2139C30.0352 22.2035 29.5196 21.1463 28.5509 20.7453L23.5511 18.662C22.7022 18.3079 21.7179 18.5526 21.1398 19.2662L19.0357 21.8337C15.3692 20.0994 12.4006 17.1308 10.6663 13.4643L13.2339 11.3655C13.9474 10.7821 14.1922 9.80302 13.838 8.9541L11.7548 3.95432V3.94912Z" fill="#333333"/>
</g>
</svg>
