<svg width="17" height="16" viewBox="0 0 17 16" fill="none" xmlns="http://www.w3.org/2000/svg">
<g id="Wa.logout">
<path id="Primary" d="M11.6745 3.97946L14.8724 7.26875C15.0599 7.46161 15.1667 7.72679 15.1667 8C15.1667 8.27321 15.0599 8.53839 14.8724 8.73125L11.6745 12.0205C11.5079 12.192 11.2839 12.2857 11.0495 12.2857C10.5625 12.2857 10.1667 11.8786 10.1667 11.3777V9.71429H6.83337C6.37244 9.71429 6.00004 9.33125 6.00004 8.85714V7.14286C6.00004 6.66875 6.37244 6.28571 6.83337 6.28571H10.1667V4.62232C10.1667 4.12143 10.5625 3.71429 11.0495 3.71429C11.2839 3.71429 11.5079 3.81071 11.6745 3.97946ZM6.00004 3.71429H4.33337C3.87244 3.71429 3.50004 4.09732 3.50004 4.57143V11.4286C3.50004 11.9027 3.87244 12.2857 4.33337 12.2857H6.00004C6.46098 12.2857 6.83337 12.6688 6.83337 13.1429C6.83337 13.617 6.46098 14 6.00004 14H4.33337C2.95317 14 1.83337 12.8482 1.83337 11.4286V4.57143C1.83337 3.15179 2.95317 2 4.33337 2H6.00004C6.46098 2 6.83337 2.38304 6.83337 2.85714C6.83337 3.33125 6.46098 3.71429 6.00004 3.71429Z" fill="#333333"/>
</g>
</svg>
