<svg width="20" height="20" viewBox="0 0 20 20" fill="none" xmlns="http://www.w3.org/2000/svg">
<g id="WA.lock">
<path id="Icon" d="M7.32143 6.35419V7.91669H12.6786V6.35419C12.6786 4.91539 11.4799 3.75002 10 3.75002C8.52009 3.75002 7.32143 4.91539 7.32143 6.35419ZM5.17857 7.91669V6.35419C5.17857 3.7663 7.33817 1.66669 10 1.66669C12.6618 1.66669 14.8214 3.7663 14.8214 6.35419V7.91669H15.3571C16.5391 7.91669 17.5 8.85093 17.5 10V16.25C17.5 17.3991 16.5391 18.3334 15.3571 18.3334H4.64286C3.46094 18.3334 2.5 17.3991 2.5 16.25V10C2.5 8.85093 3.46094 7.91669 4.64286 7.91669H5.17857Z" fill="#333333"/>
</g>
</svg>
