<svg width="33" height="32" viewBox="0 0 33 32" fill="none" xmlns="http://www.w3.org/2000/svg">
<g id="WA.llamar">
<path id="Icon" d="M11.7548 3.94904C11.3538 2.98033 10.2965 2.46473 9.28615 2.74076L4.70302 3.9907C3.79681 4.24069 3.16663 5.06357 3.16663 6.00103C3.16663 18.8859 13.6141 29.3333 26.4989 29.3333C27.4364 29.3333 28.2593 28.7032 28.5093 27.7969L29.7592 23.2138C30.0352 22.2034 29.5196 21.1462 28.5509 20.7452L23.5511 18.6619C22.7022 18.3078 21.7179 18.5526 21.1398 19.2661L19.0357 21.8337C15.3692 20.0994 12.4006 17.1307 10.6663 13.4642L13.2339 11.3654C13.9474 10.7821 14.1922 9.80294 13.838 8.95402L11.7548 3.95424V3.94904Z" fill="#333333"/>
</g>
</svg>
