<svg width="20" height="20" viewBox="0 0 20 20" fill="none" xmlns="http://www.w3.org/2000/svg">
<g id="WA.Lightning Bolt">
<path id="Icon" d="M13.2667 3.11857C13.4203 2.67262 13.3058 2.15181 12.9907 1.86536C12.6756 1.57891 12.2459 1.60495 11.9516 1.92395L5.28493 9.21536C5.02452 9.50181 4.93077 9.96078 5.05316 10.3644C5.17556 10.768 5.48806 11.0415 5.83441 11.0415H8.73806L6.73545 16.8811C6.58181 17.3271 6.69639 17.8479 7.0115 18.1343C7.3266 18.4208 7.75629 18.3947 8.05056 18.0757L14.7172 10.7843C14.9776 10.4979 15.0714 10.0389 14.949 9.63527C14.8266 9.23164 14.5167 8.96146 14.1677 8.96146H11.2641L13.2667 3.11857Z" fill="#333333"/>
</g>
</svg>
