<svg width="20" height="20" viewBox="0 0 20 20" fill="none" xmlns="http://www.w3.org/2000/svg">
<g id="WA.lock">
<path id="Icon" d="M7.32143 6.35413V7.91663H12.6786V6.35413C12.6786 4.91532 11.4799 3.74996 10 3.74996C8.52009 3.74996 7.32143 4.91532 7.32143 6.35413ZM5.17857 7.91663V6.35413C5.17857 3.76624 7.33817 1.66663 10 1.66663C12.6618 1.66663 14.8214 3.76624 14.8214 6.35413V7.91663H15.3571C16.5391 7.91663 17.5 8.85087 17.5 9.99996V16.25C17.5 17.399 16.5391 18.3333 15.3571 18.3333H4.64286C3.46094 18.3333 2.5 17.399 2.5 16.25V9.99996C2.5 8.85087 3.46094 7.91663 4.64286 7.91663H5.17857Z" fill="#333333" fill-opacity="0.5"/>
</g>
</svg>
