<svg width="25" height="24" viewBox="0 0 25 24" fill="none" xmlns="http://www.w3.org/2000/svg">
<g id="WA.experiencias">
<path id="Icon" d="M11.1172 6.58393L13.0898 5.57143H20V9.42857H15.5156C14.6602 8.82188 13.6211 8.46429 12.5 8.46429C11.3789 8.46429 10.3438 8.82188 9.48438 9.42857H5V6.85714H10C10.3867 6.85714 10.7695 6.76473 11.1172 6.58393ZM2.5 6.85714V18.4286C2.5 19.8469 3.62109 21 5 21H20C21.3789 21 22.5 19.8469 22.5 18.4286V5.57143C22.5 4.15313 21.3789 3 20 3H13.0898C12.7031 3 12.3203 3.09241 11.9727 3.27321L10 4.28571H8.75V3.64286C8.75 3.28929 8.46875 3 8.125 3H5.625C5.28125 3 5 3.28929 5 3.64286V4.28571C3.62109 4.28571 2.5 5.43884 2.5 6.85714ZM9.0625 13.9286C9.0625 12.9908 9.42466 12.0915 10.0693 11.4284C10.714 10.7654 11.5883 10.3929 12.5 10.3929C13.4117 10.3929 14.286 10.7654 14.9307 11.4284C15.5753 12.0915 15.9375 12.9908 15.9375 13.9286C15.9375 14.8663 15.5753 15.7656 14.9307 16.4287C14.286 17.0918 13.4117 17.4643 12.5 17.4643C11.5883 17.4643 10.714 17.0918 10.0693 16.4287C9.42466 15.7656 9.0625 14.8663 9.0625 13.9286Z" fill="#333333"/>
</g>
</svg>
