<svg width="33" height="32" viewBox="0 0 33 32" fill="none" xmlns="http://www.w3.org/2000/svg">
<g id="WA.MenuRestaurant">
<path id="Icon" d="M14.7222 26.6199C15.2222 26.8039 15.7592 26.4213 15.7592 25.8692V7.59026C15.7592 7.38684 15.6851 7.18342 15.5277 7.05749C14.6203 6.30193 12.537 5.33325 9.83329 5.33325C7.49533 5.33325 5.31014 5.97742 4.00459 6.50051C3.48144 6.71361 3.16663 7.25607 3.16663 7.84212V25.7771C3.16663 26.3535 3.75922 26.7555 4.28237 26.5763C5.7407 26.0677 8.05089 25.4817 9.83329 25.4817C11.4027 25.4817 13.4907 26.1598 14.7222 26.6199ZM18.2777 26.6199C19.5092 26.1598 21.5972 25.4817 23.1666 25.4817C24.949 25.4817 27.2592 26.0677 28.7176 26.5763C29.2407 26.7603 29.8333 26.3535 29.8333 25.7771V7.84212C29.8333 7.25607 29.5185 6.71361 28.9953 6.50535C27.6898 5.97742 25.5046 5.33325 23.1666 5.33325C20.4629 5.33325 18.3796 6.30193 17.4722 7.05749C17.3194 7.18342 17.2407 7.38684 17.2407 7.59026V25.8692C17.2407 26.4213 17.7824 26.8039 18.2777 26.6199Z" fill="#333333"/>
</g>
</svg>
