<svg width="16" height="16" viewBox="0 0 16 16" fill="none" xmlns="http://www.w3.org/2000/svg">
<g id="WA.mobile">
<path id="icon" d="M3.33337 3.00004C3.33337 2.08077 4.09436 1.33337 5.03034 1.33337H10.9697C11.9057 1.33337 12.6667 2.08077 12.6667 3.00004V13C12.6667 13.9193 11.9057 14.6667 10.9697 14.6667H5.03034C4.09436 14.6667 3.33337 13.9193 3.33337 13V3.00004ZM6.72731 13C6.72731 13.2292 6.91822 13.4167 7.15156 13.4167H8.84853C9.08186 13.4167 9.27277 13.2292 9.27277 13C9.27277 12.7709 9.08186 12.5834 8.84853 12.5834H7.15156C6.91822 12.5834 6.72731 12.7709 6.72731 13ZM10.9697 3.00004H5.03034V11.3334H10.9697V3.00004Z" fill="#333333"/>
</g>
</svg>
