<svg width="33" height="32" viewBox="0 0 33 32" fill="none" xmlns="http://www.w3.org/2000/svg">
<g id="WA.mail">
<path id="Icon" d="M5.66663 5.33325C4.28642 5.33325 3.16663 6.5277 3.16663 7.99992C3.16663 8.83881 3.53642 9.6277 4.16663 10.1333L15.5 19.1999C16.0937 19.6721 16.9062 19.6721 17.5 19.1999L28.8333 10.1333C29.4635 9.6277 29.8333 8.83881 29.8333 7.99992C29.8333 6.5277 28.7135 5.33325 27.3333 5.33325H5.66663ZM3.16663 11.5555V23.111C3.16663 25.0721 4.66142 26.6666 6.49996 26.6666H26.5C28.3385 26.6666 29.8333 25.0721 29.8333 23.111V11.5555L18.5 20.6221C17.3125 21.5721 15.6875 21.5721 14.5 20.6221L3.16663 11.5555Z" fill="#333333"/>
</g>
</svg>
