<svg width="25" height="24" viewBox="0 0 25 24" fill="none" xmlns="http://www.w3.org/2000/svg">
<g id="WA.servicios">
<path id="Icon" d="M10.9375 4C10.418 4 10 4.50156 10 5.125C10 5.74844 10.418 6.25 10.9375 6.25H11.5625V7.81094C7.17188 8.36875 3.75 12.8313 3.75 18.25H21.25C21.25 12.8313 17.8281 8.36875 13.4375 7.81094V6.25H14.0625C14.582 6.25 15 5.74844 15 5.125C15 4.50156 14.582 4 14.0625 4H12.5H10.9375ZM3.4375 19.75C2.91797 19.75 2.5 20.2516 2.5 20.875C2.5 21.4984 2.91797 22 3.4375 22H21.5625C22.082 22 22.5 21.4984 22.5 20.875C22.5 20.2516 22.082 19.75 21.5625 19.75H3.4375Z" fill="#FAFAFA"/>
</g>
</svg>
