<svg width="20" height="20" viewBox="0 0 20 20" fill="none" xmlns="http://www.w3.org/2000/svg">
<g id="WA.mail">
<path id="Icon" d="M3.22925 3.33331C2.36662 3.33331 1.66675 4.07984 1.66675 4.99998C1.66675 5.52429 1.89787 6.01734 2.29175 6.33331L9.37508 12C9.74618 12.2951 10.254 12.2951 10.6251 12L17.7084 6.33331C18.1023 6.01734 18.3334 5.52429 18.3334 4.99998C18.3334 4.07984 17.6335 3.33331 16.7709 3.33331H3.22925ZM1.66675 7.2222V14.4444C1.66675 15.6701 2.60099 16.6666 3.75008 16.6666H16.2501C17.3992 16.6666 18.3334 15.6701 18.3334 14.4444V7.2222L11.2501 12.8889C10.5079 13.4826 9.49227 13.4826 8.75008 12.8889L1.66675 7.2222Z" fill="#333333"/>
</g>
</svg>
