<svg width="25" height="24" viewBox="0 0 25 24" fill="none" xmlns="http://www.w3.org/2000/svg">
<g id="WA.alojamiento">
<path id="Icon" d="M2.5 3.25C2.5 2.55859 3.05859 2 3.75 2H21.25C21.9414 2 22.5 2.55859 22.5 3.25C22.5 3.94141 21.9414 4.5 21.25 4.5V19.5C21.9414 19.5 22.5 20.0586 22.5 20.75C22.5 21.4414 21.9414 22 21.25 22H14.375V20.125C14.375 19.0898 13.5352 18.25 12.5 18.25C11.4648 18.25 10.625 19.0898 10.625 20.125V22H3.75C3.05859 22 2.5 21.4414 2.5 20.75C2.5 20.0586 3.05859 19.5 3.75 19.5V4.5C3.05859 4.5 2.5 3.94141 2.5 3.25ZM6.25 6.375V7.625C6.25 7.96875 6.53125 8.25 6.875 8.25H8.125C8.46875 8.25 8.75 7.96875 8.75 7.625V6.375C8.75 6.03125 8.46875 5.75 8.125 5.75H6.875C6.53125 5.75 6.25 6.03125 6.25 6.375ZM11.875 5.75C11.5312 5.75 11.25 6.03125 11.25 6.375V7.625C11.25 7.96875 11.5312 8.25 11.875 8.25H13.125C13.4688 8.25 13.75 7.96875 13.75 7.625V6.375C13.75 6.03125 13.4688 5.75 13.125 5.75H11.875ZM16.25 6.375V7.625C16.25 7.96875 16.5312 8.25 16.875 8.25H18.125C18.4687 8.25 18.75 7.96875 18.75 7.625V6.375C18.75 6.03125 18.4687 5.75 18.125 5.75H16.875C16.5312 5.75 16.25 6.03125 16.25 6.375ZM6.875 9.5C6.53125 9.5 6.25 9.78125 6.25 10.125V11.375C6.25 11.7188 6.53125 12 6.875 12H8.125C8.46875 12 8.75 11.7188 8.75 11.375V10.125C8.75 9.78125 8.46875 9.5 8.125 9.5H6.875ZM11.25 10.125V11.375C11.25 11.7188 11.5312 12 11.875 12H13.125C13.4688 12 13.75 11.7188 13.75 11.375V10.125C13.75 9.78125 13.4688 9.5 13.125 9.5H11.875C11.5312 9.5 11.25 9.78125 11.25 10.125ZM16.875 9.5C16.5312 9.5 16.25 9.78125 16.25 10.125V11.375C16.25 11.7188 16.5312 12 16.875 12H18.125C18.4687 12 18.75 11.7188 18.75 11.375V10.125C18.75 9.78125 18.4687 9.5 18.125 9.5H16.875ZM15.3125 17C15.832 17 16.2617 16.5742 16.1328 16.0703C15.7187 14.4492 14.25 13.25 12.5 13.25C10.75 13.25 9.27734 14.4492 8.86719 16.0703C8.73828 16.5703 9.17188 17 9.6875 17H15.3125Z" fill="#333333"/>
</g>
</svg>
