<svg width="25" height="24" viewBox="0 0 25 24" fill="none" xmlns="http://www.w3.org/2000/svg">
<g id="WA.home">
<path id="Icon" d="M22.4948 11.9824C22.4948 12.6152 21.9739 13.1109 21.3835 13.1109H20.2723L20.2967 18.743C20.2967 18.8379 20.2897 18.9328 20.2793 19.0277V19.5938C20.2793 20.3707 19.6577 21 18.8903 21H18.3347C18.2965 21 18.2583 21 18.2201 20.9965C18.1715 21 18.1229 21 18.0742 21H16.9457H16.1123C15.3448 21 14.7233 20.3707 14.7233 19.5938V18.75V16.5C14.7233 15.8777 14.2267 15.375 13.6121 15.375H11.3896C10.775 15.375 10.2784 15.8777 10.2784 16.5V18.75V19.5938C10.2784 20.3707 9.65686 21 8.88943 21H8.05603H6.9483C6.89621 21 6.84412 20.9965 6.79203 20.993C6.75036 20.9965 6.70869 21 6.66702 21H6.11142C5.34399 21 4.72241 20.3707 4.72241 19.5938V15.6562C4.72241 15.6246 4.72241 15.5895 4.72588 15.5578V13.1109H3.61121C2.98615 13.1109 2.5 12.6187 2.5 11.9824C2.5 11.666 2.60418 11.3848 2.84725 11.1387L11.7508 3.28125C11.9939 3.03516 12.2717 3 12.5147 3C12.7578 3 13.0356 3.07031 13.244 3.24609L22.1128 11.1387C22.3906 11.3848 22.5295 11.666 22.4948 11.9824Z" fill="#FAFAFA"/>
</g>
</svg>
