<svg width="25" height="24" viewBox="0 0 25 24" fill="none" xmlns="http://www.w3.org/2000/svg">
<g id="WA.Instalaciones">
<path id="Icon" d="M6.9423 7.32292C6.9423 5.48958 8.43188 4 10.2652 4C11.9423 4 13.3555 5.25 13.5638 6.91319L13.5986 7.19792C13.6749 7.80556 13.2444 8.36111 12.6333 8.4375C12.0222 8.51389 11.4701 8.08333 11.3937 7.47222L11.359 7.1875C11.2895 6.63542 10.8208 6.22222 10.2652 6.22222C9.65758 6.22222 9.16452 6.71528 9.16452 7.32292V10.6667H15.8312V7.32292C15.8312 5.48958 17.3208 4 19.1541 4C20.8312 4 22.2444 5.25 22.4527 6.91319L22.4874 7.19792C22.5638 7.80556 22.1333 8.36111 21.5222 8.4375C20.9111 8.51389 20.359 8.08333 20.2826 7.47222L20.2479 7.1875C20.1784 6.63542 19.7097 6.22222 19.1541 6.22222C18.5465 6.22222 18.0534 6.71528 18.0534 7.32292V15.4236C17.9979 15.4583 17.9388 15.4931 17.8867 15.5313C17.2617 15.9618 16.4944 16.2361 15.8312 16.2361V12.8854H9.16452V16.2361C8.5048 16.2361 7.73397 15.9618 7.11244 15.5313C7.05688 15.4931 7.00133 15.4549 6.9423 15.4236V7.32292ZM13.1402 16.4271C13.9215 16.9653 14.8763 17.3333 15.8312 17.3333C16.7652 17.3333 17.7548 16.9583 18.5187 16.4271C18.9319 16.1319 19.4944 16.1563 19.8798 16.4861C20.3798 16.8993 21.0083 17.2153 21.6367 17.3611C22.234 17.5 22.6055 18.0972 22.4666 18.6944C22.3277 19.2917 21.7305 19.6632 21.1333 19.5243C20.2826 19.3264 19.5742 18.9514 19.1124 18.6563C18.1055 19.1979 16.977 19.5556 15.8312 19.5556C14.7236 19.5556 13.727 19.2118 13.0395 18.8993C12.8381 18.8056 12.6541 18.7153 12.4979 18.6319C12.3416 18.7153 12.1611 18.809 11.9562 18.8993C11.2687 19.2118 10.2722 19.5556 9.16452 19.5556C8.01869 19.5556 6.89022 19.1979 5.88327 18.6597C5.418 18.9514 4.71313 19.3299 3.86244 19.5278C3.26522 19.6667 2.66799 19.2951 2.52911 18.6979C2.39022 18.1007 2.76174 17.5035 3.35897 17.3646C3.98744 17.2188 4.61591 16.9028 5.11591 16.4896C5.50133 16.1632 6.06383 16.1389 6.47702 16.4306C7.24438 16.9583 8.23049 17.3333 9.16452 17.3333C10.1194 17.3333 11.0742 16.9653 11.8555 16.4271C12.2409 16.1528 12.7548 16.1528 13.1402 16.4271Z" fill="#777777"/>
</g>
</svg>
