<svg width="20" height="20" viewBox="0 0 20 20" fill="none" xmlns="http://www.w3.org/2000/svg">
<g id="WA.mail">
<path id="Icon" d="M3.22949 3.33337C2.36686 3.33337 1.66699 4.0799 1.66699 5.00004C1.66699 5.52435 1.89811 6.0174 2.29199 6.33337L9.37533 12C9.74642 12.2952 10.2542 12.2952 10.6253 12L17.7087 6.33337C18.1025 6.0174 18.3337 5.52435 18.3337 5.00004C18.3337 4.0799 17.6338 3.33337 16.7712 3.33337H3.22949ZM1.66699 7.22226V14.4445C1.66699 15.6702 2.60124 16.6667 3.75033 16.6667H16.2503C17.3994 16.6667 18.3337 15.6702 18.3337 14.4445V7.22226L11.2503 12.8889C10.5081 13.4827 9.49251 13.4827 8.75033 12.8889L1.66699 7.22226Z" fill="#333333" fill-opacity="0.5"/>
</g>
</svg>
