<svg width="25" height="24" viewBox="0 0 25 24" fill="none" xmlns="http://www.w3.org/2000/svg">
<g id="WA.menajes">
<path id="Icon" d="M10.9141 5.75H8.125H6.71094H6.25V6.09375V7.625V9.20312V12.6797L2.50781 9.91016C2.57031 9.20312 2.93359 8.54688 3.51172 8.12109L4.375 7.48047V5.75C4.375 4.71484 5.21484 3.875 6.25 3.875H9.24219L11.1914 2.43359C11.5703 2.15234 12.0273 2 12.5 2C12.9727 2 13.4297 2.15234 13.8086 2.42969L15.7578 3.875H18.75C19.7852 3.875 20.625 4.71484 20.625 5.75V7.48047L21.4883 8.12109C22.0664 8.54688 22.4297 9.20312 22.4922 9.91016L18.75 12.6797V9.20312V7.625V6.09375V5.75H18.2891H16.875H14.0859H10.9102H10.9141ZM2.5 19.5V11.457L11 17.7539C11.4336 18.0742 11.9609 18.25 12.5 18.25C13.0391 18.25 13.5664 18.0781 14 17.7539L22.5 11.457V19.5C22.5 20.8789 21.3789 22 20 22H5C3.62109 22 2.5 20.8789 2.5 19.5ZM9.375 8.25H15.625C15.9688 8.25 16.25 8.53125 16.25 8.875C16.25 9.21875 15.9688 9.5 15.625 9.5H9.375C9.03125 9.5 8.75 9.21875 8.75 8.875C8.75 8.53125 9.03125 8.25 9.375 8.25ZM9.375 10.75H15.625C15.9688 10.75 16.25 11.0312 16.25 11.375C16.25 11.7188 15.9688 12 15.625 12H9.375C9.03125 12 8.75 11.7188 8.75 11.375C8.75 11.0312 9.03125 10.75 9.375 10.75Z" fill="#333333"/>
</g>
</svg>
