<svg width="72" height="82" viewBox="0 0 72 82" fill="none" xmlns="http://www.w3.org/2000/svg">
<g filter="url(#filter0_dd_3886_56255)">
<path fill-rule="evenodd" clip-rule="evenodd" d="M19.3161 8C16.3801 8 14 10.3801 14 13.3161V45.8079C14 48.7439 16.3801 51.124 19.3161 51.124H27.8031C28.1573 51.124 28.485 51.3113 28.6647 51.6164L34.1675 60.9577C34.9899 62.3539 37.0093 62.3539 37.8318 60.9577L43.3346 51.6164C43.5143 51.3113 43.842 51.124 44.1962 51.124H52.6839C55.6199 51.124 58 48.7439 58 45.8079V13.3161C58 10.3801 55.6199 8 52.6839 8H19.3161Z" fill="#333333"/>
<path d="M34.1675 60.9577L33.3059 61.4652L34.1675 60.9577ZM37.8318 60.9577L38.6934 61.4652L37.8318 60.9577ZM43.3346 51.6164L42.4729 51.1088L43.3346 51.6164ZM28.6647 51.6164L27.8031 52.124L28.6647 51.6164ZM15 13.3161C15 10.9324 16.9324 9 19.3161 9V7C15.8278 7 13 9.82781 13 13.3161H15ZM15 45.8079V13.3161H13V45.8079H15ZM19.3161 50.124C16.9324 50.124 15 48.1916 15 45.8079H13C13 49.2962 15.8278 52.124 19.3161 52.124V50.124ZM27.8031 50.124H19.3161V52.124H27.8031V50.124ZM35.0291 60.4501L29.5264 51.1088L27.8031 52.124L33.3059 61.4652L35.0291 60.4501ZM36.9702 60.4501C36.5345 61.1897 35.4648 61.1897 35.0291 60.4501L33.3059 61.4652C34.5151 63.518 37.4842 63.518 38.6934 61.4652L36.9702 60.4501ZM42.4729 51.1088L36.9702 60.4501L38.6934 61.4652L44.1962 52.124L42.4729 51.1088ZM52.6839 50.124H44.1962V52.124H52.6839V50.124ZM57 45.8079C57 48.1916 55.0676 50.124 52.6839 50.124V52.124C56.1722 52.124 59 49.2962 59 45.8079H57ZM57 13.3161V45.8079H59V13.3161H57ZM52.6839 9C55.0676 9 57 10.9324 57 13.3161H59C59 9.8278 56.1722 7 52.6839 7V9ZM19.3161 9H52.6839V7H19.3161V9ZM44.1962 52.124H44.1962V50.124C43.4879 50.124 42.8324 50.4986 42.4729 51.1088L44.1962 52.124ZM27.8031 52.124L29.5264 51.1088C29.1669 50.4986 28.5114 50.124 27.8031 50.124V52.124Z" fill="white"/>
<path d="M19.3335 15.416C19.3335 14.2637 20.2645 13.3327 21.4168 13.3327H50.5835C51.7358 13.3327 52.6668 14.2637 52.6668 15.416C52.6668 16.5684 51.7358 17.4994 50.5835 17.4994V42.4994C51.7358 42.4994 52.6668 43.4304 52.6668 44.5827C52.6668 45.735 51.7358 46.666 50.5835 46.666H39.1252V43.541C39.1252 41.8158 37.7254 40.416 36.0002 40.416C34.2749 40.416 32.8752 41.8158 32.8752 43.541V46.666H21.4168C20.2645 46.666 19.3335 45.735 19.3335 44.5827C19.3335 43.4304 20.2645 42.4994 21.4168 42.4994V17.4994C20.2645 17.4994 19.3335 16.5684 19.3335 15.416ZM25.5835 20.6244V22.7077C25.5835 23.2806 26.0522 23.7494 26.6252 23.7494H28.7085C29.2814 23.7494 29.7502 23.2806 29.7502 22.7077V20.6244C29.7502 20.0515 29.2814 19.5827 28.7085 19.5827H26.6252C26.0522 19.5827 25.5835 20.0515 25.5835 20.6244ZM34.9585 19.5827C34.3856 19.5827 33.9168 20.0515 33.9168 20.6244V22.7077C33.9168 23.2806 34.3856 23.7494 34.9585 23.7494H37.0418C37.6147 23.7494 38.0835 23.2806 38.0835 22.7077V20.6244C38.0835 20.0515 37.6147 19.5827 37.0418 19.5827H34.9585ZM42.2502 20.6244V22.7077C42.2502 23.2806 42.7189 23.7494 43.2918 23.7494H45.3752C45.9481 23.7494 46.4168 23.2806 46.4168 22.7077V20.6244C46.4168 20.0515 45.9481 19.5827 45.3752 19.5827H43.2918C42.7189 19.5827 42.2502 20.0515 42.2502 20.6244ZM26.6252 25.8327C26.0522 25.8327 25.5835 26.3015 25.5835 26.8744V28.9577C25.5835 29.5306 26.0522 29.9994 26.6252 29.9994H28.7085C29.2814 29.9994 29.7502 29.5306 29.7502 28.9577V26.8744C29.7502 26.3015 29.2814 25.8327 28.7085 25.8327H26.6252ZM33.9168 26.8744V28.9577C33.9168 29.5306 34.3856 29.9994 34.9585 29.9994H37.0418C37.6147 29.9994 38.0835 29.5306 38.0835 28.9577V26.8744C38.0835 26.3015 37.6147 25.8327 37.0418 25.8327H34.9585C34.3856 25.8327 33.9168 26.3015 33.9168 26.8744ZM43.2918 25.8327C42.7189 25.8327 42.2502 26.3015 42.2502 26.8744V28.9577C42.2502 29.5306 42.7189 29.9994 43.2918 29.9994H45.3752C45.9481 29.9994 46.4168 29.5306 46.4168 28.9577V26.8744C46.4168 26.3015 45.9481 25.8327 45.3752 25.8327H43.2918ZM40.6877 38.3327C41.5535 38.3327 42.2697 37.6231 42.0548 36.7832C41.3647 34.0814 38.9168 32.0827 36.0002 32.0827C33.0835 32.0827 30.6291 34.0814 29.9455 36.7832C29.7306 37.6166 30.4533 38.3327 31.3127 38.3327H40.6877Z" fill="#FAFAFA"/>
</g>
<defs>
<filter id="filter0_dd_3886_56255" x="0" y="0" width="72" height="82.0048" filterUnits="userSpaceOnUse" color-interpolation-filters="sRGB">
<feFlood flood-opacity="0" result="BackgroundImageFix"/>
<feColorMatrix in="SourceAlpha" type="matrix" values="0 0 0 0 0 0 0 0 0 0 0 0 0 0 0 0 0 0 127 0" result="hardAlpha"/>
<feOffset dy="6"/>
<feGaussianBlur stdDeviation="6.5"/>
<feComposite in2="hardAlpha" operator="out"/>
<feColorMatrix type="matrix" values="0 0 0 0 0 0 0 0 0 0 0 0 0 0 0 0 0 0 0.12 0"/>
<feBlend mode="normal" in2="BackgroundImageFix" result="effect1_dropShadow_3886_56255"/>
<feColorMatrix in="SourceAlpha" type="matrix" values="0 0 0 0 0 0 0 0 0 0 0 0 0 0 0 0 0 0 127 0" result="hardAlpha"/>
<feOffset dy="0.5"/>
<feGaussianBlur stdDeviation="2"/>
<feComposite in2="hardAlpha" operator="out"/>
<feColorMatrix type="matrix" values="0 0 0 0 0 0 0 0 0 0 0 0 0 0 0 0 0 0 0.12 0"/>
<feBlend mode="normal" in2="effect1_dropShadow_3886_56255" result="effect2_dropShadow_3886_56255"/>
<feBlend mode="normal" in="SourceGraphic" in2="effect2_dropShadow_3886_56255" result="shape"/>
</filter>
</defs>
</svg>
