<svg width="24" height="24" viewBox="0 0 24 24" fill="none" xmlns="http://www.w3.org/2000/svg">
<g id="WA.Monumentos">
<path id="Icon" d="M11.3773 2.16404C11.76 1.94532 12.2326 1.94532 12.6193 2.16404L19.3295 5.99562L19.4974 6.06202V6.09718L21.3683 7.16736C21.8604 7.44858 22.1026 8.02664 21.958 8.57345C21.8135 9.12026 21.3175 9.50303 20.7512 9.50303H3.24931C2.68297 9.50303 2.18693 9.12026 2.04242 8.57345C1.8979 8.02664 2.14006 7.44858 2.63219 7.16736L4.49916 6.09718V6.06202L4.67102 5.99953L11.3773 2.16404ZM4.49916 10.749H6.99887V18.2481H8.56118V10.749H11.0609V18.2481H12.9357V10.749H15.4354V18.2481H16.9977V10.749H19.4974V18.416C19.5208 18.4278 19.5443 18.4434 19.5677 18.459L21.4425 19.7089C21.8995 20.0135 22.1065 20.5838 21.9463 21.111C21.7862 21.6383 21.298 21.9977 20.7473 21.9977H3.24931C2.69859 21.9977 2.21427 21.6383 2.05414 21.111C1.894 20.5838 2.0971 20.0135 2.55798 19.7089L4.43276 18.459C4.4562 18.4434 4.47963 18.4317 4.50307 18.416V10.749H4.49916Z" fill="#333333"/>
</g>
</svg>
