<svg width="25" height="24" viewBox="0 0 25 24" fill="none" xmlns="http://www.w3.org/2000/svg">
<g id="WA.destino">
<path id="Icon" d="M12.5 22C15.1522 22 17.6957 20.9464 19.5711 19.0711C21.4464 17.1957 22.5 14.6522 22.5 12C22.5 9.34784 21.4464 6.8043 19.5711 4.92893C17.6957 3.05357 15.1522 2 12.5 2C9.84784 2 7.3043 3.05357 5.42893 4.92893C3.55357 6.8043 2.5 9.34784 2.5 12C2.5 14.6522 3.55357 17.1957 5.42893 19.0711C7.3043 20.9464 9.84784 22 12.5 22ZM14.4805 14.6992L8.84375 16.8672C8.08594 17.1602 7.33984 16.4141 7.63281 15.6562L9.80078 10.0195C9.92969 9.6875 10.1875 9.42969 10.5195 9.30078L16.1562 7.13281C16.9141 6.83984 17.6602 7.58594 17.3672 8.34375L15.1992 13.9805C15.0742 14.3125 14.8125 14.5703 14.4805 14.6992ZM13.75 12C13.75 11.6685 13.6183 11.3505 13.3839 11.1161C13.1495 10.8817 12.8315 10.75 12.5 10.75C12.1685 10.75 11.8505 10.8817 11.6161 11.1161C11.3817 11.3505 11.25 11.6685 11.25 12C11.25 12.3315 11.3817 12.6495 11.6161 12.8839C11.8505 13.1183 12.1685 13.25 12.5 13.25C12.8315 13.25 13.1495 13.1183 13.3839 12.8839C13.6183 12.6495 13.75 12.3315 13.75 12Z" fill="#FAFAFA"/>
</g>
</svg>
