<svg width="24" height="24" viewBox="0 0 24 24" fill="none" xmlns="http://www.w3.org/2000/svg">
<g id="WA.Naturaleza">
<path id="Icon" d="M11.5214 2.23047L6.21429 8.61719C6.075 8.78125 6 9 6 9.22266C6 9.72266 6.36786 10.125 6.825 10.125H7.71429L5.09286 12.9922C4.94286 13.1562 4.85714 13.3828 4.85714 13.6172C4.85714 14.1055 5.21786 14.5 5.66429 14.5H6.85714L4.19286 17.9961C4.06786 18.1602 4 18.3672 4 18.582C4 19.0898 4.375 19.5 4.83929 19.5H10.8571V20.75C10.8571 21.4414 11.3679 22 12 22C12.6321 22 13.1429 21.4414 13.1429 20.75V19.5H19.1607C19.625 19.5 20 19.0898 20 18.582C20 18.3672 19.9321 18.1602 19.8071 17.9961L17.1429 14.5H18.3357C18.7821 14.5 19.1429 14.1055 19.1429 13.6172C19.1429 13.3828 19.0571 13.1562 18.9071 12.9922L16.2857 10.125H17.175C17.6286 10.125 18 9.72266 18 9.22266C18 9 17.925 8.78125 17.7857 8.61719L12.4786 2.23047C12.3571 2.08203 12.1821 2 12 2C11.8179 2 11.6429 2.08203 11.5214 2.23047Z" fill="#333333"/>
</g>
</svg>
