<svg width="33" height="32" viewBox="0 0 33 32" fill="none" xmlns="http://www.w3.org/2000/svg">
<g id="WA.normas">
<path id="Icon" d="M16.5 2.66667C14.1778 2.66667 12.2 4.05729 11.4723 6H9.38893C7.42782 6 5.83337 7.49479 5.83337 9.33333V26C5.83337 27.8385 7.42782 29.3333 9.38893 29.3333H23.6112C25.5723 29.3333 27.1667 27.8385 27.1667 26V9.33333C27.1667 7.49479 25.5723 6 23.6112 6H21.5278C20.8 4.05729 18.8223 2.66667 16.5 2.66667ZM16.5 6C16.9715 6 17.4237 6.1756 17.7571 6.48816C18.0905 6.80072 18.2778 7.22464 18.2778 7.66667C18.2778 8.1087 18.0905 8.53262 17.7571 8.84518C17.4237 9.15774 16.9715 9.33333 16.5 9.33333C16.0285 9.33333 15.5764 9.15774 15.243 8.84518C14.9096 8.53262 14.7223 8.1087 14.7223 7.66667C14.7223 7.22464 14.9096 6.80072 15.243 6.48816C15.5764 6.1756 16.0285 6 16.5 6ZM9.83337 16.8333C9.83337 16.5018 9.97385 16.1839 10.2239 15.9495C10.4739 15.715 10.8131 15.5833 11.1667 15.5833C11.5203 15.5833 11.8595 15.715 12.1095 15.9495C12.3596 16.1839 12.5 16.5018 12.5 16.8333C12.5 17.1649 12.3596 17.4828 12.1095 17.7172C11.8595 17.9516 11.5203 18.0833 11.1667 18.0833C10.8131 18.0833 10.4739 17.9516 10.2239 17.7172C9.97385 17.4828 9.83337 17.1649 9.83337 16.8333ZM15.6112 16H22.7223C23.2112 16 23.6112 16.375 23.6112 16.8333C23.6112 17.2917 23.2112 17.6667 22.7223 17.6667H15.6112C15.1223 17.6667 14.7223 17.2917 14.7223 16.8333C14.7223 16.375 15.1223 16 15.6112 16ZM9.83337 21.8333C9.83337 21.5018 9.97385 21.1839 10.2239 20.9495C10.4739 20.715 10.8131 20.5833 11.1667 20.5833C11.5203 20.5833 11.8595 20.715 12.1095 20.9495C12.3596 21.1839 12.5 21.5018 12.5 21.8333C12.5 22.1649 12.3596 22.4828 12.1095 22.7172C11.8595 22.9516 11.5203 23.0833 11.1667 23.0833C10.8131 23.0833 10.4739 22.9516 10.2239 22.7172C9.97385 22.4828 9.83337 22.1649 9.83337 21.8333ZM14.7223 21.8333C14.7223 21.375 15.1223 21 15.6112 21H22.7223C23.2112 21 23.6112 21.375 23.6112 21.8333C23.6112 22.2917 23.2112 22.6667 22.7223 22.6667H15.6112C15.1223 22.6667 14.7223 22.2917 14.7223 21.8333Z" fill="#333333"/>
</g>
</svg>
