<svg width="24" height="24" viewBox="0 0 24 24" fill="none" xmlns="http://www.w3.org/2000/svg">
<g id="WA.Ocio">
<path id="Icon" d="M9.25 6.375C9.25 4.99609 10.3711 3.875 11.75 3.875C13.1289 3.875 14.25 4.99609 14.25 6.375V8.25H9.25V6.375ZM7.375 8.25H4.875C3.83984 8.25 3 9.08984 3 10.125V18.25C3 20.3203 4.67969 22 6.75 22H16.75C18.8203 22 20.5 20.3203 20.5 18.25V10.125C20.5 9.08984 19.6602 8.25 18.625 8.25H16.125V6.375C16.125 3.95703 14.168 2 11.75 2C9.33203 2 7.375 3.95703 7.375 6.375V8.25ZM8.3125 10.125C8.56114 10.125 8.7996 10.2238 8.97541 10.3996C9.15123 10.5754 9.25 10.8139 9.25 11.0625C9.25 11.3111 9.15123 11.5496 8.97541 11.7254C8.7996 11.9012 8.56114 12 8.3125 12C8.06386 12 7.8254 11.9012 7.64959 11.7254C7.47377 11.5496 7.375 11.3111 7.375 11.0625C7.375 10.8139 7.47377 10.5754 7.64959 10.3996C7.8254 10.2238 8.06386 10.125 8.3125 10.125ZM14.25 11.0625C14.25 10.8139 14.3488 10.5754 14.5246 10.3996C14.7004 10.2238 14.9389 10.125 15.1875 10.125C15.4361 10.125 15.6746 10.2238 15.8504 10.3996C16.0262 10.5754 16.125 10.8139 16.125 11.0625C16.125 11.3111 16.0262 11.5496 15.8504 11.7254C15.6746 11.9012 15.4361 12 15.1875 12C14.9389 12 14.7004 11.9012 14.5246 11.7254C14.3488 11.5496 14.25 11.3111 14.25 11.0625Z" fill="#333333"/>
</g>
</svg>
