<svg width="24" height="24" viewBox="0 0 24 24" fill="none" xmlns="http://www.w3.org/2000/svg">
<g id="WA.Otros">
<path id="Icon" d="M21.5407 2.2879C21.8297 2.52225 21.9977 2.87768 21.9977 3.25264V8.87706C21.9977 9.9121 20.8767 10.7519 19.4979 10.7519C18.1192 10.7519 16.9982 9.9121 16.9982 8.87706C16.9982 7.84201 18.1192 7.00225 19.4979 7.00225V4.77592L15.7483 5.52584V10.1269C15.7483 11.162 14.6274 12.0017 13.2486 12.0017C11.8698 12.0017 10.7488 11.162 10.7488 10.1269C10.7488 9.09188 11.8698 8.25212 13.2486 8.25212V4.50251C13.2486 3.90492 13.6704 3.39325 14.2524 3.27607L20.5017 2.0262C20.8689 1.95199 21.2478 2.04964 21.5407 2.28399V2.2879ZM4.91742 13.8765L5.37831 13.1813C5.60876 12.8337 5.99934 12.6267 6.41727 12.6267H8.82717C9.2451 12.6267 9.63568 12.8337 9.86613 13.1813L10.3309 13.8765H11.3738C12.4088 13.8765 13.2486 14.7163 13.2486 15.7513V20.1259C13.2486 21.1609 12.4088 22.0007 11.3738 22.0007H3.87456C2.83951 22.0007 1.99976 21.1609 1.99976 20.1259V15.7513C1.99976 14.7163 2.83951 13.8765 3.87456 13.8765H4.91742ZM9.49898 17.9386C9.49898 17.4414 9.30145 16.9645 8.94986 16.6129C8.59827 16.2613 8.1214 16.0638 7.62417 16.0638C7.12694 16.0638 6.65008 16.2613 6.29848 16.6129C5.94689 16.9645 5.74937 17.4414 5.74937 17.9386C5.74937 18.4358 5.94689 18.9127 6.29848 19.2643C6.65008 19.6159 7.12694 19.8134 7.62417 19.8134C8.1214 19.8134 8.59827 19.6159 8.94986 19.2643C9.30145 18.9127 9.49898 18.4358 9.49898 17.9386ZM20.697 12.8727L19.1972 16.3763H21.3727C21.6344 16.3763 21.8649 16.5364 21.9586 16.7825C22.0524 17.0286 21.9821 17.302 21.7868 17.4738L16.7873 21.8484C16.5686 22.0398 16.2444 22.0554 16.01 21.8835C15.7757 21.7117 15.6897 21.3992 15.803 21.1336L17.2989 17.6261H15.1234C14.8617 17.6261 14.6313 17.466 14.5375 17.2199C14.4438 16.9739 14.5141 16.7005 14.7094 16.5286L19.7089 12.1541C19.9276 11.9627 20.2518 11.947 20.4861 12.1189C20.7205 12.2908 20.8064 12.6032 20.6931 12.8688L20.697 12.8727ZM7.45622 10.5605C7.20234 10.8144 6.79223 10.8144 6.55788 10.5605L2.77702 6.65854C1.68338 5.52584 1.74197 3.65494 2.97231 2.60036C4.02689 1.68249 5.64391 1.85825 6.62037 2.85424L7.01095 3.26436L7.38201 2.85424C8.35847 1.85825 9.95596 1.68249 11.0496 2.60036C12.2604 3.65494 12.319 5.52584 11.2254 6.65854L7.46013 10.5605H7.45622Z" fill="#333333"/>
</g>
</svg>
