<svg width="33" height="32" viewBox="0 0 33 32" fill="none" xmlns="http://www.w3.org/2000/svg">
<g id="WA.pinterest">
<circle id="Vector" cx="16.5001" cy="16" r="13.3333" fill="white"/>
<path id="Vector_2" d="M16.5001 2.66663C9.13271 2.66663 3.16675 8.63707 3.16675 16.01C3.16675 21.6599 6.67025 26.4883 11.6352 28.4317C11.5151 27.3699 11.415 25.7671 11.6753 24.605C11.9155 23.5632 13.2368 17.9734 13.2368 17.9734C13.2368 17.9734 12.8364 17.172 12.8364 15.9899C12.8364 14.1267 13.9175 12.7443 15.2388 12.7443C16.38 12.7443 16.9205 13.6058 16.9205 14.6276C16.9205 15.7696 16.1998 17.4926 15.8194 19.0753C15.4991 20.3977 16.4801 21.4795 17.8014 21.4795C20.1637 21.4795 21.9856 18.9752 21.9856 15.3689C21.9856 12.1833 19.6833 9.93935 16.42 9.93935C12.6362 9.93935 10.394 12.7843 10.394 15.7295C10.394 16.8715 10.8344 18.1137 11.395 18.7748C11.4951 18.9151 11.5151 19.0152 11.4951 19.1555C11.395 19.5762 11.1748 20.4778 11.1347 20.6581C11.0747 20.8985 10.9345 20.9586 10.6943 20.8384C9.03261 20.0571 7.99157 17.6328 7.99157 15.6694C7.99157 11.462 11.0546 7.59525 16.8004 7.59525C21.425 7.59525 25.0086 10.901 25.0086 15.2887C25.0086 19.8767 22.1057 23.5832 18.1017 23.5832C16.7603 23.5832 15.4791 22.882 15.0386 22.0606C15.0386 22.0606 14.378 24.605 14.2178 25.2261C13.9175 26.3881 13.0967 27.8307 12.5561 28.7322C13.7974 29.1129 15.1187 29.3333 16.5001 29.3333C23.8675 29.3333 29.8334 23.3628 29.8334 15.9899C29.8334 8.63707 23.8675 2.66663 16.5001 2.66663Z" fill="#BD081C"/>
</g>
</svg>
