<svg width="20" height="20" viewBox="0 0 20 20" fill="none" xmlns="http://www.w3.org/2000/svg">
<g id="WA.parentesco">
<path id="icon" d="M13.0486 4.00003C13.0486 3.16753 13.7722 2.50003 14.6746 2.50003C15.5771 2.50003 16.3007 3.16753 16.3007 4.00003C16.3007 4.83253 15.5771 5.50003 14.6746 5.50003C13.7722 5.50003 13.0486 4.83253 13.0486 4.00003ZM16.3007 17.5V13H18.3332L16.2681 7.27753C16.0405 6.66253 15.4226 6.25003 14.7234 6.25003H14.6259C13.9267 6.25003 13.3007 6.66253 13.0811 7.27753L12.382 9.21253C13.26 9.66253 13.8616 10.51 13.8616 11.5V17.5H16.3007ZM10.2031 9.62503C10.8779 9.62503 11.4226 9.12253 11.4226 8.50003C11.4226 7.87753 10.8779 7.37503 10.2031 7.37503C9.52829 7.37503 8.98358 7.87753 8.98358 8.50003C8.98358 9.12253 9.52829 9.62503 10.2031 9.62503ZM4.51203 5.50003C5.41447 5.50003 6.13805 4.83253 6.13805 4.00003C6.13805 3.16753 5.41447 2.50003 4.51203 2.50003C3.60959 2.50003 2.88602 3.16753 2.88602 4.00003C2.88602 4.83253 3.60959 5.50003 4.51203 5.50003ZM6.13805 17.5V12.25H7.35756V7.75003C7.35756 6.92503 6.62585 6.25003 5.73154 6.25003H3.29252C2.39821 6.25003 1.6665 6.92503 1.6665 7.75003V12.25H2.88602V17.5H6.13805ZM11.4226 17.5V14.5H12.2356V11.5C12.2356 10.885 11.6828 10.375 11.0161 10.375H9.39008C8.72341 10.375 8.17057 10.885 8.17057 11.5V14.5H8.98358V17.5H11.4226Z" fill="#333333"/>
</g>
</svg>
