<svg width="20" height="20" viewBox="0 0 20 20" fill="none" xmlns="http://www.w3.org/2000/svg">
<g id="WA.pin-point">
<path id="Icon" d="M10.8228 17.9587C12.6041 15.8634 16.6666 10.7852 16.6666 7.93272C16.6666 4.47325 13.6805 1.6665 9.99992 1.6665C6.31936 1.6665 3.33325 4.47325 3.33325 7.93272C3.33325 10.7852 7.39575 15.8634 9.177 17.9587C9.60409 18.458 10.3958 18.458 10.8228 17.9587ZM9.99992 5.84398C10.5893 5.84398 11.1545 6.06404 11.5713 6.45576C11.988 6.84747 12.2221 7.37875 12.2221 7.93272C12.2221 8.48669 11.988 9.01797 11.5713 9.40968C11.1545 9.8014 10.5893 10.0215 9.99992 10.0215C9.41055 10.0215 8.84532 9.8014 8.42857 9.40968C8.01182 9.01797 7.7777 8.48669 7.7777 7.93272C7.7777 7.37875 8.01182 6.84747 8.42857 6.45576C8.84532 6.06404 9.41055 5.84398 9.99992 5.84398Z" fill="#333333"/>
</g>
</svg>
