<svg width="12" height="12" viewBox="0 0 12 12" fill="none" xmlns="http://www.w3.org/2000/svg">
<path d="M6.49375 10.7753C7.5625 9.51814 10 6.47119 10 4.75973C10 2.68405 8.20833 1 6 1C3.79167 1 2 2.68405 2 4.75973C2 6.47119 4.4375 9.51814 5.50625 10.7753C5.7625 11.0749 6.2375 11.0749 6.49375 10.7753ZM6 3.50649C6.35362 3.50649 6.69276 3.63852 6.94281 3.87355C7.19286 4.10858 7.33333 4.42735 7.33333 4.75973C7.33333 5.09211 7.19286 5.41088 6.94281 5.64591C6.69276 5.88094 6.35362 6.01297 6 6.01297C5.64638 6.01297 5.30724 5.88094 5.05719 5.64591C4.80714 5.41088 4.66667 5.09211 4.66667 4.75973C4.66667 4.42735 4.80714 4.10858 5.05719 3.87355C5.30724 3.63852 5.64638 3.50649 6 3.50649Z" fill="#FAFAFA"/>
</svg>
