<svg width="16" height="16" viewBox="0 0 16 16" fill="none" xmlns="http://www.w3.org/2000/svg">
<g id="WA.PaperTicket">
<path id="Icon" d="M2.81486 3.33337C1.99773 3.33337 1.33337 3.98112 1.33337 4.77782V6.22226C1.33337 6.42087 1.50467 6.5766 1.6968 6.64205C2.13199 6.78876 2.44449 7.19275 2.44449 7.66671C2.44449 8.14067 2.13199 8.54466 1.6968 8.69136C1.50467 8.75681 1.33337 8.91254 1.33337 9.11115V10.5556C1.33337 11.3523 1.99773 12 2.81486 12H13.1852C14.0024 12 14.6667 11.3523 14.6667 10.5556V9.11115C14.6667 8.91254 14.4954 8.75681 14.3033 8.69136C13.8681 8.54466 13.5556 8.14067 13.5556 7.66671C13.5556 7.19275 13.8681 6.78876 14.3033 6.64205C14.4954 6.5766 14.6667 6.42087 14.6667 6.22226V4.77782C14.6667 3.98112 14.0024 3.33337 13.1852 3.33337H2.81486ZM4.29634 5.86115V9.47226C4.29634 9.67087 4.463 9.83337 4.66671 9.83337H11.3334C11.5371 9.83337 11.7037 9.67087 11.7037 9.47226V5.86115C11.7037 5.66254 11.5371 5.50004 11.3334 5.50004H4.66671C4.463 5.50004 4.29634 5.66254 4.29634 5.86115ZM3.5556 5.50004C3.5556 5.10056 3.88661 4.77782 4.29634 4.77782H11.7037C12.1135 4.77782 12.4445 5.10056 12.4445 5.50004V9.83337C12.4445 10.2329 12.1135 10.5556 11.7037 10.5556H4.29634C3.88661 10.5556 3.5556 10.2329 3.5556 9.83337V5.50004Z" fill="#333333"/>
</g>
</svg>
