<svg width="20" height="20" viewBox="0 0 20 20" fill="none" xmlns="http://www.w3.org/2000/svg">
<g id="WA.Passport">
<path id="Icon" d="M2.5 3.74996C2.5 2.60087 3.46094 1.66663 4.64286 1.66663H15.3571C16.5391 1.66663 17.5 2.60087 17.5 3.74996V16.25C17.5 17.399 16.5391 18.3333 15.3571 18.3333H4.64286C3.46094 18.3333 2.5 17.399 2.5 16.25V3.74996ZM8.62723 10.7421C7.69308 10.3125 7.0067 9.4596 6.82924 8.43746H8.13839C8.19196 9.42704 8.39621 10.1888 8.62723 10.7421ZM10.01 11.0416H10H9.98996C9.9096 10.9277 9.79911 10.7519 9.68527 10.5045C9.48437 10.0618 9.27009 9.38798 9.20982 8.43746H10.7868C10.7266 9.38798 10.5156 10.0618 10.3114 10.5045C10.1975 10.7519 10.0871 10.9277 10.0067 11.0416H10.01ZM11.3728 10.7421C11.6004 10.1855 11.8047 9.42704 11.8616 8.43746H13.1708C12.9933 9.4596 12.3069 10.3125 11.3728 10.7421ZM11.8616 7.39579C11.808 6.40621 11.6038 5.64449 11.3728 5.09111C12.3069 5.52079 12.9933 6.37366 13.1708 7.39579H11.8616ZM9.98996 4.79163H10H10.01C10.0904 4.90556 10.2009 5.08134 10.3147 5.32874C10.5156 5.77144 10.7299 6.44527 10.7902 7.39579H9.21317C9.27344 6.44527 9.48437 5.77144 9.68862 5.32874C9.80246 5.08134 9.91295 4.90556 9.9933 4.79163H9.98996ZM8.62723 5.09111C8.39955 5.64775 8.19531 6.40621 8.13839 7.39579H6.82924C7.0067 6.37366 7.69308 5.52079 8.62723 5.09111ZM14.2857 7.91663C14.2857 6.81156 13.8342 5.75175 13.0305 4.97035C12.2267 4.18895 11.1366 3.74996 10 3.74996C8.86336 3.74996 7.77327 4.18895 6.96954 4.97035C6.16581 5.75175 5.71429 6.81156 5.71429 7.91663C5.71429 9.0217 6.16581 10.0815 6.96954 10.8629C7.77327 11.6443 8.86336 12.0833 10 12.0833C11.1366 12.0833 12.2267 11.6443 13.0305 10.8629C13.8342 10.0815 14.2857 9.0217 14.2857 7.91663ZM6.25 14.1666C5.95536 14.1666 5.71429 14.401 5.71429 14.6875C5.71429 14.9739 5.95536 15.2083 6.25 15.2083H13.75C14.0446 15.2083 14.2857 14.9739 14.2857 14.6875C14.2857 14.401 14.0446 14.1666 13.75 14.1666H6.25Z" fill="#333333"/>
</g>
</svg>
