<svg width="24" height="24" viewBox="0 0 24 24" fill="none" xmlns="http://www.w3.org/2000/svg">
<path d="M12.2683 19.3105C12.6154 19.3105 12.9191 19.6142 12.9191 19.9613V21.3496C12.9191 21.6967 12.6154 22.0004 12.2683 22.0004H10.88C10.5329 22.0004 10.2292 21.6967 10.2292 21.3496V19.9613C10.2292 19.6142 10.5329 19.3105 10.88 19.3105H12.2683Z" fill="#FAFAFA"/>
<path d="M12.9191 15.9696C12.9191 15.0586 13.4831 14.2343 14.2641 13.8872H14.3074C16.5634 12.9761 18.1252 10.7636 18.1252 8.16052C18.1252 4.77657 15.3486 2 11.9647 2C8.84106 2 6.23802 4.29935 5.80418 7.29284V7.33623C5.7608 7.72668 6.06449 8.03037 6.45494 8.03037H7.84323C8.1903 8.03037 8.4506 7.81345 8.49399 7.55315V7.46638C8.79767 5.86117 10.2293 4.64642 11.9213 4.64642C13.8736 4.64642 15.4354 6.20825 15.4354 8.16052C15.4354 9.07159 15.0883 9.89588 14.5244 10.5466L14.481 10.59C14.0905 11.0239 13.5699 11.2842 13.0493 11.4577C11.3139 12.0651 10.1426 13.7137 10.1426 15.5358V16.1866C10.1426 16.5336 10.4029 16.7939 10.75 16.7939H12.1382C12.4853 16.7939 12.8324 16.5336 12.8324 16.1432L12.9191 15.9696Z" fill="#FAFAFA"/>
</svg>
