<svg width="24" height="24" viewBox="0 0 24 24" fill="none" xmlns="http://www.w3.org/2000/svg">
<g id="WA.Restaurantes">
<path id="Icon" d="M19.7143 2C19.0714 2 14.5714 3.25 14.5714 8.875V13.25C14.5714 14.6289 15.7246 15.75 17.1429 15.75H18.4286V20.75C18.4286 21.4414 19.0031 22 19.7143 22C20.4254 22 21 21.4414 21 20.75V15.75V11.375V3.25C21 2.55859 20.4254 2 19.7143 2ZM5.57143 2.625C5.57143 2.30469 5.32634 2.03906 4.99688 2.00391C4.66741 1.96875 4.37411 2.17969 4.30179 2.48828L3.08437 7.8125C3.02812 8.05859 3 8.30859 3 8.55859C3 10.3516 4.41027 11.8242 6.21429 11.9844V20.75C6.21429 21.4414 6.78884 22 7.5 22C8.21116 22 8.78571 21.4414 8.78571 20.75V11.9844C10.5897 11.8242 12 10.3516 12 8.55859C12 8.30859 11.9719 8.05859 11.9156 7.8125L10.6982 2.48828C10.6259 2.17578 10.3246 1.96875 9.99911 2.00391C9.67366 2.03906 9.42857 2.30469 9.42857 2.625V7.86719C9.42857 8.07812 9.25179 8.25 9.03482 8.25C8.82991 8.25 8.66116 8.09766 8.64107 7.89844L8.13884 2.57031C8.11071 2.24609 7.83348 2 7.5 2C7.16652 2 6.88929 2.24609 6.86116 2.57031L6.36295 7.89844C6.34286 8.09766 6.17411 8.25 5.9692 8.25C5.75223 8.25 5.57545 8.07812 5.57545 7.86719V2.625H5.57143ZM7.51205 8.5625H7.5H7.48795L7.5 8.53516L7.51205 8.5625Z" fill="#333333"/>
</g>
</svg>
