<svg width="25" height="24" viewBox="0 0 25 24" fill="none" xmlns="http://www.w3.org/2000/svg">
<g id="WA.Restaurantes">
<path id="Icon" d="M20.2143 2C19.5714 2 15.0714 3.25 15.0714 8.875V13.25C15.0714 14.6289 16.2246 15.75 17.6429 15.75H18.9286V20.75C18.9286 21.4414 19.5031 22 20.2143 22C20.9254 22 21.5 21.4414 21.5 20.75V15.75V11.375V3.25C21.5 2.55859 20.9254 2 20.2143 2ZM6.07143 2.625C6.07143 2.30469 5.82634 2.03906 5.49688 2.00391C5.16741 1.96875 4.87411 2.17969 4.80179 2.48828L3.58437 7.8125C3.52812 8.05859 3.5 8.30859 3.5 8.55859C3.5 10.3516 4.91027 11.8242 6.71429 11.9844V20.75C6.71429 21.4414 7.28884 22 8 22C8.71116 22 9.28571 21.4414 9.28571 20.75V11.9844C11.0897 11.8242 12.5 10.3516 12.5 8.55859C12.5 8.30859 12.4719 8.05859 12.4156 7.8125L11.1982 2.48828C11.1259 2.17578 10.8246 1.96875 10.4991 2.00391C10.1737 2.03906 9.92857 2.30469 9.92857 2.625V7.86719C9.92857 8.07812 9.75179 8.25 9.53482 8.25C9.32991 8.25 9.16116 8.09766 9.14107 7.89844L8.63884 2.57031C8.61071 2.24609 8.33348 2 8 2C7.66652 2 7.38929 2.24609 7.36116 2.57031L6.86295 7.89844C6.84286 8.09766 6.67411 8.25 6.4692 8.25C6.25223 8.25 6.07545 8.07812 6.07545 7.86719V2.625H6.07143ZM8.01205 8.5625H8H7.98795L8 8.53516L8.01205 8.5625Z" fill="#333333"/>
</g>
</svg>
