<svg width="32" height="32" viewBox="0 0 32 32" fill="none" xmlns="http://www.w3.org/2000/svg">
<g id="WA.referido">
<g id="icon">
<path d="M16.3621 17.1C16.4275 17.61 16.0027 18.06 15.4147 18.06H12.6704L11.2329 16.2299C10.8082 15.7199 10.1547 15.3899 9.436 15.3899C8.74992 15.3899 8.09651 15.6899 7.6718 16.2299L6.2343 18.06H3.62067C3.06527 18.06 2.60788 17.61 2.67323 17.1L2.99993 14.1899C3.22862 12.4798 4.50277 11.0998 6.16896 10.5598L6.20163 10.5298C7.1164 11.1598 8.25986 11.5498 9.50134 11.5498C10.7428 11.5498 11.8863 11.1898 12.801 10.5598H12.8664C14.5326 11.1298 15.8067 12.5098 16.0354 14.2199L16.3621 17.1Z" fill="#333333"/>
<path d="M5.45021 6.41661C5.45021 8.48667 7.27976 10.1667 9.53401 10.1667C11.7883 10.1667 13.6178 8.48667 13.6178 6.41661C13.6178 4.34655 11.7883 2.6665 9.53401 2.6665C7.27976 2.6665 5.45021 4.34655 5.45021 6.41661Z" fill="#333333"/>
<path d="M25.8361 21.773H25.8034C24.8887 22.403 23.7452 22.763 22.5037 22.763C21.2623 22.763 20.1188 22.403 19.204 21.773L19.1387 21.803C17.4725 22.373 16.1983 23.753 15.9697 25.4631L15.643 28.3732C15.5776 28.8832 16.035 29.3332 16.5904 29.3332H28.3844C28.9398 29.3332 29.3645 28.8832 29.3318 28.3732L29.0051 25.4931C28.7765 23.723 27.535 22.343 25.8361 21.773Z" fill="#333333"/>
<path d="M18.3875 17.6328C18.3875 19.7028 20.217 21.3829 22.4713 21.3829C24.7255 21.3829 26.5551 19.7028 26.5551 17.6328C26.5551 15.5627 24.7255 13.8827 22.4713 13.8827C20.217 13.8827 18.3875 15.5627 18.3875 17.6328Z" fill="#333333"/>
<path d="M12.7029 22.1396H11.3634C11.4614 24.0596 12.2128 25.8297 13.4543 27.2397C13.6176 27.4197 13.4543 27.6897 13.1929 27.6597C10.1219 27.2997 7.73698 24.9897 7.57363 22.1396H6.20147C5.64607 22.1396 5.31937 21.5696 5.64607 21.1496L8.88044 17.0394C9.1418 16.7094 9.6972 16.7094 9.95856 17.0394L13.1929 21.1496C13.5523 21.5696 13.2256 22.1396 12.7029 22.1396Z" fill="#333333"/>
</g>
</g>
</svg>
