<svg width="32" height="32" viewBox="0 0 32 32" fill="none" xmlns="http://www.w3.org/2000/svg">
<g id="WA.referente">
<g id="icon">
<path d="M28.6034 6.66822C28.1824 6.66822 27.8175 6.99257 27.8175 7.43487C27.7894 8.31947 27.6491 9.82328 27.3964 10.354C27.0596 11.0027 25.965 11.0617 25.7685 11.0617H23.4107C22.8494 11.0617 22.5687 11.5335 22.1476 12.2707C21.9231 12.6245 21.6705 13.0963 21.3617 13.4796L21.3337 13.5091V10.2656H10.6676V13.4796C10.6676 13.4796 10.6396 13.4796 10.6396 13.4501C10.3308 13.0373 10.0782 12.595 9.85366 12.2412C9.43264 11.5335 9.15195 11.0322 8.59058 11.0322H6.23283C6.00829 11.0322 4.91362 11.0027 4.60486 10.3245C4.35225 9.82328 4.2119 8.34895 4.18384 7.43487C4.18384 6.99257 3.81895 6.63874 3.39792 6.66822C2.97689 6.66822 2.64007 7.05155 2.66814 7.49384C2.66814 7.90666 2.75234 10.0592 3.28565 11.0912C3.84701 12.2117 5.05396 12.536 5.78374 12.6245C5.78374 12.654 5.78374 12.654 5.78374 12.6835V16.9885L4.88555 24.3011C4.82941 24.8024 5.16623 25.2742 5.6434 25.3332C5.67146 25.3332 5.7276 25.3332 5.75567 25.3332C6.20476 25.3332 6.56966 24.9793 6.62579 24.537L7.43978 17.8731L8.25376 24.537C8.3099 25.0088 8.67479 25.3332 9.12388 25.3332C9.15195 25.3332 9.20809 25.3332 9.23616 25.3332C9.71332 25.2742 10.0501 24.8024 9.99401 24.3011L9.12388 16.9885V13.9514C9.23616 14.1283 9.34843 14.2757 9.46071 14.4527C9.79753 14.9244 10.2466 15.1603 10.6676 15.2783V16.5757H21.3337V15.2783C21.7828 15.1603 22.2038 14.895 22.5687 14.4527C22.6809 14.2757 22.7932 14.1283 22.9055 13.9514V16.959L22.0073 24.2717C21.9512 24.7729 22.288 25.2447 22.7652 25.3037C22.7932 25.3037 22.8494 25.3037 22.8774 25.3037C23.3265 25.3037 23.6914 24.9498 23.7475 24.5076L24.5615 17.8436L25.3755 24.5076C25.4317 24.9793 25.7965 25.3037 26.2456 25.3037C26.2737 25.3037 26.3298 25.3037 26.3579 25.3037C26.8351 25.2447 27.1719 24.7729 27.1158 24.2717L26.2456 16.959V12.654C26.2456 12.6245 26.2456 12.6245 26.2456 12.595C26.9754 12.5065 28.1824 12.2117 28.7437 11.0617C29.249 10.0297 29.3332 7.87717 29.3332 7.46436C29.3332 7.05155 29.0244 6.66822 28.6034 6.66822ZM11.2852 15.9565V10.8848H20.7442V15.9565H11.2852Z" fill="#333333"/>
<path d="M24.5613 10.5646C25.5689 10.5646 26.3857 9.70652 26.3857 8.648C26.3857 7.58948 25.5689 6.73137 24.5613 6.73137C23.5537 6.73137 22.7368 7.58948 22.7368 8.648C22.7368 9.70652 23.5537 10.5646 24.5613 10.5646Z" fill="#333333"/>
<path d="M7.43952 10.5646C8.44714 10.5646 9.26397 9.70652 9.26397 8.648C9.26397 7.58948 8.44714 6.73137 7.43952 6.73137C6.43191 6.73137 5.61507 7.58948 5.61507 8.648C5.61507 9.70652 6.43191 10.5646 7.43952 10.5646Z" fill="#333333"/>
<path d="M15.9159 13.6574H16.1123C16.2808 13.6574 16.4492 13.8343 16.4211 14.0112C16.393 14.1881 16.2527 14.3061 16.0843 14.3061H15.8036C15.6913 14.3061 15.6071 14.2176 15.6071 14.1292C15.6071 14.0997 15.579 14.0702 15.551 14.0702H15.2422C15.2142 14.0702 15.1861 14.0997 15.1861 14.1292C15.2142 14.4535 15.4668 14.7189 15.7755 14.7189V15.0433C15.7755 15.0727 15.8036 15.1022 15.8317 15.1022H16.1404C16.1685 15.1022 16.1966 15.0727 16.1966 15.0433V14.7189C16.5334 14.6599 16.786 14.3945 16.8421 14.0407C16.8983 13.5689 16.5334 13.1856 16.1123 13.1856H15.8878C15.7194 13.1856 15.551 13.0087 15.579 12.8318C15.6071 12.6548 15.7475 12.5369 15.9159 12.5369H16.1966C16.3088 12.5369 16.393 12.6254 16.393 12.7138C16.393 12.7433 16.4211 12.7728 16.4492 12.7728H16.7579C16.786 12.7728 16.8141 12.7433 16.8141 12.7138C16.786 12.3895 16.5334 12.1241 16.2246 12.1241V11.7997C16.2246 11.7703 16.1966 11.7408 16.1685 11.7408H15.8597C15.8317 11.7408 15.8036 11.7703 15.8036 11.7997V12.1241C15.4106 12.1831 15.13 12.5369 15.158 12.9792C15.1861 13.3625 15.5229 13.6574 15.9159 13.6574Z" fill="#333333"/>
</g>
</g>
</svg>
