<svg width="25" height="24" viewBox="0 0 25 24" fill="none" xmlns="http://www.w3.org/2000/svg">
<g id="WA.Redirect">
<path id="Icon" d="M15 1.83337C14.3086 1.83337 13.75 2.39197 13.75 3.08337C13.75 3.77478 14.3086 4.33337 15 4.33337H18.2305L10.3672 12.2006C9.87891 12.6888 9.87891 13.4818 10.3672 13.9701C10.8555 14.4584 11.6484 14.4584 12.1367 13.9701L20 6.10291V9.33337C20 10.0248 20.5586 10.5834 21.25 10.5834C21.9414 10.5834 22.5 10.0248 22.5 9.33337V3.08337C22.5 2.39197 21.9414 1.83337 21.25 1.83337H15ZM5.625 3.08337C3.89844 3.08337 2.5 4.48181 2.5 6.20837V18.7084C2.5 20.4349 3.89844 21.8334 5.625 21.8334H18.125C19.8516 21.8334 21.25 20.4349 21.25 18.7084V14.3334C21.25 13.642 20.6914 13.0834 20 13.0834C19.3086 13.0834 18.75 13.642 18.75 14.3334V18.7084C18.75 19.0521 18.4688 19.3334 18.125 19.3334H5.625C5.28125 19.3334 5 19.0521 5 18.7084V6.20837C5 5.86462 5.28125 5.58337 5.625 5.58337H10C10.6914 5.58337 11.25 5.02478 11.25 4.33337C11.25 3.64197 10.6914 3.08337 10 3.08337H5.625Z" fill="#FAFAFA"/>
</g>
</svg>
