<svg width="20" height="20" viewBox="0 0 20 20" fill="none" xmlns="http://www.w3.org/2000/svg">
<g id="Wa.reserva">
<path id="Primary" d="M6.78571 1.66602C7.37835 1.66602 7.85714 2.13151 7.85714 2.70768V3.74935H12.1429V2.70768C12.1429 2.13151 12.6217 1.66602 13.2143 1.66602C13.8069 1.66602 14.2857 2.13151 14.2857 2.70768V3.74935H15.8929C16.7801 3.74935 17.5 4.44922 17.5 5.31185V6.87435H2.5V5.31185C2.5 4.44922 3.21987 3.74935 4.10714 3.74935H5.71429V2.70768C5.71429 2.13151 6.19308 1.66602 6.78571 1.66602ZM2.5 7.91602H17.5V16.7702C17.5 17.6328 16.7801 18.3327 15.8929 18.3327H4.10714C3.21987 18.3327 2.5 17.6328 2.5 16.7702V7.91602ZM13.5156 11.5944C13.8304 11.2884 13.8304 10.7936 13.5156 10.4909C13.2009 10.1882 12.692 10.1849 12.3806 10.4909L9.19978 13.5833L7.62612 12.0534C7.31138 11.7474 6.80246 11.7474 6.49107 12.0534C6.17969 12.3594 6.17634 12.8542 6.49107 13.1569L8.63393 15.2402C8.94866 15.5462 9.45759 15.5462 9.76897 15.2402L13.5156 11.5944Z" fill="#333333"/>
</g>
</svg>
