<svg width="20" height="20" viewBox="0 0 20 20" fill="none" xmlns="http://www.w3.org/2000/svg">
<g id="WA.sexo">
<path id="icon" d="M11.2046 2.1484C11.325 1.85543 11.6115 1.66663 11.9272 1.66663H15.5731C16.006 1.66663 16.3543 2.01493 16.3543 2.44788V6.09371C16.3543 6.40946 16.1655 6.69592 15.8726 6.81637C15.5796 6.93681 15.2443 6.8717 15.0197 6.6471L13.7502 5.37756L12.9461 6.1816C13.4572 6.98238 13.7502 7.93616 13.7502 8.95829C13.7502 11.569 11.8296 13.7304 9.32308 14.108V14.9479H10.1043C10.5373 14.9479 10.8856 15.2962 10.8856 15.7291C10.8856 16.1621 10.5373 16.5104 10.1043 16.5104H9.32308V17.552C9.32308 17.985 8.97477 18.3333 8.54183 18.3333C8.10889 18.3333 7.76058 17.985 7.76058 17.552V16.5104H6.97933C6.54639 16.5104 6.19808 16.1621 6.19808 15.7291C6.19808 15.2962 6.54639 14.9479 6.97933 14.9479H7.76058V14.108C5.25407 13.7304 3.3335 11.569 3.3335 8.95829C3.3335 6.08069 5.66423 3.74996 8.54183 3.74996C9.83089 3.74996 11.0125 4.21871 11.9207 4.99345L12.6466 4.27079L11.3739 3.00126C11.1493 2.77665 11.0841 2.44137 11.2046 2.1484ZM11.6668 8.95829C11.6668 8.12949 11.3376 7.33464 10.7515 6.74858C10.1655 6.16253 9.37063 5.83329 8.54183 5.83329C7.71303 5.83329 6.91817 6.16253 6.33212 6.74858C5.74607 7.33464 5.41683 8.12949 5.41683 8.95829C5.41683 9.78709 5.74607 10.582 6.33212 11.168C6.91817 11.7541 7.71303 12.0833 8.54183 12.0833C9.37063 12.0833 10.1655 11.7541 10.7515 11.168C11.3376 10.582 11.6668 9.78709 11.6668 8.95829Z" fill="#333333"/>
</g>
</svg>
