<svg width="16" height="16" viewBox="0 0 16 16" fill="none" xmlns="http://www.w3.org/2000/svg">
<g id="WA.star">
<path id="Primary" d="M8.72542 1.802C8.5916 1.51554 8.3088 1.33325 7.99823 1.33325C7.68765 1.33325 7.40738 1.51554 7.27103 1.802L5.64747 5.24731L2.02159 5.7994C1.7186 5.84627 1.4661 6.06502 1.37267 6.3645C1.27925 6.66398 1.355 6.99471 1.57215 7.21606L4.20318 9.90096L3.58203 13.6952C3.53153 14.0077 3.65778 14.3254 3.90776 14.5103C4.15773 14.6952 4.4885 14.7187 4.7612 14.5702L8.00075 12.7864L11.2403 14.5702C11.513 14.7187 11.8438 14.6978 12.0937 14.5103C12.3437 14.3228 12.47 14.0077 12.4195 13.6952L11.7958 9.90096L14.4268 7.21606C14.644 6.99471 14.7223 6.66398 14.6263 6.3645C14.5304 6.06502 14.2804 5.84627 13.9774 5.7994L10.349 5.24731L8.72542 1.802Z" fill="#777777"/>
</g>
</svg>
