<svg width="24" height="24" viewBox="0 0 24 24" fill="none" xmlns="http://www.w3.org/2000/svg">
<g id="WA.stay">
<path id="Icon" fill-rule="evenodd" clip-rule="evenodd" d="M11 2H13C15.76 2 18 3.94783 18 6.34783V20.2609C18 21.2217 17.105 22 16 22H8C6.895 22 6 21.2217 6 20.2609V13.3043C6 11.387 7.785 9.83043 9.995 9.82609L13.005 9.82174C14.105 9.82174 15 9.04348 15 8.08261V6.33913C15 5.37826 14.1 4.6 12.995 4.6L10.995 4.60435C9.895 4.6087 9 5.38696 9 6.34348V6.78261C9 7.26087 8.55 7.65217 8 7.65217H7C6.45 7.65217 6 7.26087 6 6.78261V6.34783C6 3.94783 8.24 2 11 2ZM8.81818 15.5C8.81818 14.9477 9.2659 14.5 9.81818 14.5H14.8182C15.3705 14.5 15.8182 14.9477 15.8182 15.5C15.8182 16.0523 15.3705 16.5 14.8182 16.5H9.81818C9.2659 16.5 8.81818 16.0523 8.81818 15.5ZM9.81818 18C9.2659 18 8.81818 18.4477 8.81818 19C8.81818 19.5523 9.2659 20 9.81818 20H14.8182C15.3705 20 15.8182 19.5523 15.8182 19C15.8182 18.4477 15.3705 18 14.8182 18H9.81818Z" fill="#777777"/>
</g>
</svg>
