<svg width="16" height="16" viewBox="0 0 16 16" fill="none" xmlns="http://www.w3.org/2000/svg">
<g id="WA.star">
<path id="Primary" d="M8.7253 1.80212C8.59148 1.51567 8.30868 1.33337 7.99811 1.33337C7.68753 1.33337 7.40726 1.51567 7.27091 1.80212L5.64735 5.24744L2.02147 5.79952C1.71847 5.8464 1.46598 6.06515 1.37255 6.36462C1.27913 6.6641 1.35488 6.99483 1.57203 7.21619L4.20306 9.90108L3.58191 13.6954C3.53141 14.0079 3.65766 14.3256 3.90763 14.5105C4.15761 14.6954 4.48838 14.7188 4.76108 14.5704L8.00063 12.7865L11.2402 14.5704C11.5129 14.7188 11.8437 14.698 12.0936 14.5105C12.3436 14.323 12.4698 14.0079 12.4194 13.6954L11.7957 9.90108L14.4267 7.21619C14.6439 6.99483 14.7221 6.6641 14.6262 6.36462C14.5302 6.06515 14.2803 5.8464 13.9773 5.79952L10.3489 5.24744L8.7253 1.80212Z" fill="#FFD453"/>
</g>
</svg>
