<svg width="24" height="24" viewBox="0 0 24 24" fill="none" xmlns="http://www.w3.org/2000/svg">
<g id="WA.SMS">
<g id="Icon">
<path d="M14.8841 17.6375H6.45416V5.05585H14.8841V6.15174H16.3804V3.13804C16.3804 2.5058 15.8746 2 15.2424 2H6.13804C5.5058 2 5 2.5058 5 3.13804V20.862C5 21.4942 5.5058 22 6.13804 22H15.2424C15.8746 22 16.3804 21.4942 16.3804 20.862V15.1718H14.8841V17.6375ZM9.34141 3.15911H11.9547C12.1654 3.15911 12.334 3.32771 12.334 3.53846C12.334 3.74921 12.1654 3.91781 11.9547 3.91781H9.34141C9.13066 3.91781 8.96206 3.74921 8.96206 3.53846C8.98314 3.32771 9.15174 3.15911 9.34141 3.15911ZM10.6902 20.7777C10.1633 20.7777 9.72076 20.3562 9.72076 19.8293C9.72076 19.3024 10.1423 18.8809 10.6902 18.8809C11.2171 18.8809 11.6386 19.3024 11.6386 19.8293C11.6386 20.3562 11.2171 20.7777 10.6902 20.7777Z" fill="#333333"/>
<path d="M17.5606 7.35301H10.079C9.38355 7.35301 8.83561 7.90095 8.83561 8.59642V12.7482C8.83561 13.4436 9.38355 13.9916 10.079 13.9916H10.7956V15.3193C10.7956 15.9305 11.5543 16.2255 11.9547 15.7829L13.6407 13.9916H17.5395C18.235 13.9916 18.7829 13.4436 18.7829 12.7482V8.59642C18.804 7.90095 18.235 7.35301 17.5606 7.35301ZM16.4436 12.1791H11.2171C10.9642 12.1791 10.7745 11.9684 10.7745 11.7366C10.7745 11.5047 10.9852 11.294 11.2171 11.294H16.4436C16.6965 11.294 16.8862 11.5047 16.8862 11.7366C16.8862 11.9684 16.6754 12.1791 16.4436 12.1791ZM16.4436 10.0506H11.2171C10.9642 10.0506 10.7745 9.83984 10.7745 9.60801C10.7745 9.35511 10.9852 9.16544 11.2171 9.16544H16.4436C16.6965 9.16544 16.8862 9.37619 16.8862 9.60801C16.8862 9.86091 16.6754 10.0506 16.4436 10.0506Z" fill="#333333"/>
</g>
</g>
</svg>
