<svg width="16" height="16" viewBox="0 0 16 16" fill="none" xmlns="http://www.w3.org/2000/svg">
<g id="WA.star">
<path id="Primary" d="M8.72554 1.80206C8.59172 1.5156 8.30892 1.33331 7.99835 1.33331C7.68778 1.33331 7.4075 1.5156 7.27115 1.80206L5.64759 5.24738L2.02172 5.79946C1.71872 5.84633 1.46622 6.06508 1.3728 6.36456C1.27937 6.66404 1.35512 6.99477 1.57227 7.21613L4.2033 9.90102L3.58216 13.6953C3.53166 14.0078 3.65791 14.3255 3.90788 14.5104C4.15785 14.6953 4.48862 14.7187 4.76132 14.5703L8.00087 12.7864L11.2404 14.5703C11.5131 14.7187 11.8439 14.6979 12.0939 14.5104C12.3438 14.3229 12.4701 14.0078 12.4196 13.6953L11.7959 9.90102L14.427 7.21613C14.6441 6.99477 14.7224 6.66404 14.6264 6.36456C14.5305 6.06508 14.2805 5.84633 13.9775 5.79946L10.3491 5.24738L8.72554 1.80206Z" fill="#333333"/>
</g>
</svg>
