<svg width="20" height="20" viewBox="0 0 20 20" fill="none" xmlns="http://www.w3.org/2000/svg">
<g id="WA.stay">
<path id="Icon" fill-rule="evenodd" clip-rule="evenodd" d="M9.16667 1.66663H10.8333C13.1333 1.66663 15 3.28981 15 5.28981V16.884C15 17.6847 14.2542 18.3333 13.3333 18.3333H6.66667C5.74583 18.3333 5 17.6847 5 16.884V11.0869C5 9.48909 6.4875 8.19199 8.32917 8.18836L10.8375 8.18474C11.7542 8.18474 12.5 7.53619 12.5 6.73547V5.28257C12.5 4.48184 11.75 3.83329 10.8292 3.83329L9.1625 3.83692C8.24583 3.84054 7.5 4.48909 7.5 5.28619V5.65213C7.5 6.05068 7.125 6.37677 6.66667 6.37677H5.83333C5.375 6.37677 5 6.05068 5 5.65213V5.28981C5 3.28981 6.86667 1.66663 9.16667 1.66663ZM7.18182 12.9166C7.18182 12.3643 7.62953 11.9166 8.18182 11.9166H12.3485C12.9008 11.9166 13.3485 12.3643 13.3485 12.9166C13.3485 13.4689 12.9008 13.9166 12.3485 13.9166H8.18182C7.62953 13.9166 7.18182 13.4689 7.18182 12.9166ZM8.18182 14.8333C7.62953 14.8333 7.18182 15.281 7.18182 15.8333C7.18182 16.3856 7.62953 16.8333 8.18182 16.8333H12.3485C12.9008 16.8333 13.3485 16.3856 13.3485 15.8333C13.3485 15.281 12.9008 14.8333 12.3485 14.8333H8.18182Z" fill="#333333"/>
</g>
</svg>
