<svg width="16" height="16" viewBox="0 0 16 16" fill="none" xmlns="http://www.w3.org/2000/svg">
<g id="WA.star">
<path id="Primary" d="M8.72603 1.802C8.59221 1.51554 8.30941 1.33325 7.99884 1.33325C7.68827 1.33325 7.40799 1.51554 7.27164 1.802L5.64808 5.24731L2.0222 5.7994C1.71921 5.84627 1.46671 6.06502 1.37328 6.3645C1.27986 6.66398 1.35561 6.99471 1.57276 7.21606L4.20379 9.90096L3.58264 13.6952C3.53214 14.0077 3.65839 14.3254 3.90837 14.5103C4.15834 14.6952 4.48911 14.7187 4.76181 14.5702L8.00136 12.7864L11.2409 14.5702C11.5136 14.7187 11.8444 14.6978 12.0944 14.5103C12.3443 14.3228 12.4706 14.0077 12.4201 13.6952L11.7964 9.90096L14.4274 7.21606C14.6446 6.99471 14.7229 6.66398 14.6269 6.3645C14.531 6.06502 14.281 5.84627 13.978 5.7994L10.3496 5.24731L8.72603 1.802Z" fill="#333333"/>
</g>
</svg>
