<svg width="24" height="24" viewBox="0 0 24 24" fill="none" xmlns="http://www.w3.org/2000/svg">
<g id="WA.Tripadvisor">
<g id="Icon">
<path d="M12 22C17.5228 22 22 17.5228 22 12C22 6.47715 17.5228 2 12 2C6.47715 2 2 6.47715 2 12C2 17.5228 6.47715 22 12 22Z" fill="#34E0A1"/>
<path d="M18.1765 10.0492L19.3832 8.7363H16.7072C15.3676 7.8212 13.7497 7.28824 12 7.28824C10.2525 7.28824 8.63908 7.82235 7.30164 8.7363H4.61896L5.82567 10.0492C5.08602 10.724 4.62233 11.6961 4.62233 12.7754C4.62233 14.8123 6.27375 16.4637 8.31062 16.4637C9.27822 16.4637 10.1598 16.0905 10.8179 15.4804L12 16.7676L13.1821 15.4816C13.8402 16.0916 14.7207 16.4637 15.6883 16.4637C17.7251 16.4637 19.3788 14.8123 19.3788 12.7754C19.3799 11.695 18.9162 10.7229 18.1765 10.0492ZM8.31171 15.2715C6.93292 15.2715 5.81563 14.1542 5.81563 12.7754C5.81563 11.3966 6.93295 10.2793 8.31171 10.2793C9.69047 10.2793 10.8078 11.3966 10.8078 12.7754C10.8078 14.1542 9.69047 15.2715 8.31171 15.2715ZM12.0011 12.7028C12.0011 11.0603 10.8067 9.65028 9.23015 9.04803C10.0827 8.69159 11.0178 8.49383 12 8.49383C12.9821 8.49383 13.9184 8.69159 14.7709 9.04803C13.1955 9.6514 12.0011 11.0603 12.0011 12.7028ZM15.6894 15.2715C14.3106 15.2715 13.1933 14.1542 13.1933 12.7754C13.1933 11.3966 14.3106 10.2793 15.6894 10.2793C17.0682 10.2793 18.1855 11.3966 18.1855 12.7754C18.1855 14.1542 17.0681 15.2715 15.6894 15.2715ZM15.6894 11.4659C14.9665 11.4659 14.381 12.0514 14.381 12.7743C14.381 13.4972 14.9665 14.0827 15.6894 14.0827C16.4123 14.0827 16.9978 13.4972 16.9978 12.7743C16.9977 12.0525 16.4123 11.4659 15.6894 11.4659ZM9.62008 12.7754C9.62008 13.4983 9.0346 14.0838 8.31171 14.0838C7.58882 14.0838 7.00334 13.4983 7.00334 12.7754C7.00334 12.0525 7.58882 11.467 8.31171 11.467C9.0346 11.4659 9.62008 12.0525 9.62008 12.7754Z" fill="black"/>
</g>
</g>
</svg>
