<svg width="25" height="24" viewBox="0 0 25 24" fill="none" xmlns="http://www.w3.org/2000/svg">
<g id="WA.Transporte">
<path id="Icon" d="M10 2C9.30859 2 8.75 2.55859 8.75 3.25V4.5V4.50781C7.24219 4.59375 5.92578 5.57422 5.42188 7.01172L4.04688 10.9375C3.14062 11.3125 2.5 12.207 2.5 13.25V18.875V20.75C2.5 21.4414 3.05859 22 3.75 22H5C5.69141 22 6.25 21.4414 6.25 20.75V18.875H18.75V20.75C18.75 21.4414 19.3086 22 20 22H21.25C21.9414 22 22.5 21.4414 22.5 20.75V18.875V13.25C22.5 12.207 21.8594 11.3125 20.9531 10.9375L19.5781 7.01172C19.0742 5.57422 17.7578 4.58984 16.25 4.50781V4.5V3.25C16.25 2.55859 15.6914 2 15 2L10 2ZM8.96094 7H16.0391C16.5703 7 17.043 7.33594 17.2188 7.83594L18.2383 10.75H6.76172L7.78125 7.83594C7.95703 7.33594 8.42969 7 8.96094 7ZM6.25 13.25C6.58152 13.25 6.89946 13.3817 7.13388 13.6161C7.3683 13.8505 7.5 14.1685 7.5 14.5C7.5 14.8315 7.3683 15.1495 7.13388 15.3839C6.89946 15.6183 6.58152 15.75 6.25 15.75C5.91848 15.75 5.60054 15.6183 5.36612 15.3839C5.1317 15.1495 5 14.8315 5 14.5C5 14.1685 5.1317 13.8505 5.36612 13.6161C5.60054 13.3817 5.91848 13.25 6.25 13.25ZM17.5 14.5C17.5 14.1685 17.6317 13.8505 17.8661 13.6161C18.1005 13.3817 18.4185 13.25 18.75 13.25C19.0815 13.25 19.3995 13.3817 19.6339 13.6161C19.8683 13.8505 20 14.1685 20 14.5C20 14.8315 19.8683 15.1495 19.6339 15.3839C19.3995 15.6183 19.0815 15.75 18.75 15.75C18.4185 15.75 18.1005 15.6183 17.8661 15.3839C17.6317 15.1495 17.5 14.8315 17.5 14.5Z" fill="#FFF"/>
</g>
</svg>
