<svg width="24" height="24" viewBox="0 0 24 24" fill="none" xmlns="http://www.w3.org/2000/svg">
<g id="WA.user">
<path id="Icon" d="M12 12C13.364 12 14.6721 11.4732 15.6365 10.5355C16.601 9.59785 17.1429 8.32608 17.1429 7C17.1429 5.67392 16.601 4.40215 15.6365 3.46447C14.6721 2.52678 13.364 2 12 2C10.636 2 9.32792 2.52678 8.36345 3.46447C7.39898 4.40215 6.85714 5.67392 6.85714 7C6.85714 8.32608 7.39898 9.59785 8.36345 10.5355C9.32792 11.4732 10.636 12 12 12ZM10.1638 13.875C6.20625 13.875 3 16.9922 3 20.8398C3 21.4805 3.53438 22 4.1933 22H19.8067C20.4656 22 21 21.4805 21 20.8398C21 16.9922 17.7938 13.875 13.8362 13.875H10.1638Z" fill="#FAFAFA"/>
</g>
</svg>
