<svg width="20" height="20" viewBox="0 0 20 20" fill="none" xmlns="http://www.w3.org/2000/svg">
<g id="WA.user">
<path id="Icon" d="M10 10C11.1366 10 12.2267 9.56103 13.0305 8.77963C13.8342 7.99823 14.2857 6.93842 14.2857 5.83335C14.2857 4.72829 13.8342 3.66848 13.0305 2.88708C12.2267 2.10567 11.1366 1.66669 10 1.66669C8.86336 1.66669 7.77327 2.10567 6.96954 2.88708C6.16581 3.66848 5.71429 4.72829 5.71429 5.83335C5.71429 6.93842 6.16581 7.99823 6.96954 8.77963C7.77327 9.56103 8.86336 10 10 10ZM8.46987 11.5625C5.17188 11.5625 2.5 14.1602 2.5 17.3666C2.5 17.9004 2.94531 18.3334 3.49442 18.3334H16.5056C17.0547 18.3334 17.5 17.9004 17.5 17.3666C17.5 14.1602 14.8281 11.5625 11.5301 11.5625H8.46987Z" fill="#333333"/>
</g>
</svg>
