<svg width="24" height="24" viewBox="0 0 24 24" fill="none" xmlns="http://www.w3.org/2000/svg">
<g id="WA.VidaNocturna">
<path id="Icon" d="M3.25209 2C2.74822 2 2.29122 2.30467 2.09592 2.77339C1.90062 3.24211 2.00999 3.77723 2.36543 4.13658L10.7516 12.5188V19.4989H8.25177C7.5604 19.4989 7.00185 20.0574 7.00185 20.7488C7.00185 21.4401 7.5604 21.9987 8.25177 21.9987H12.0015H15.7513C16.4426 21.9987 17.0012 21.4401 17.0012 20.7488C17.0012 20.0574 16.4426 19.4989 15.7513 19.4989H13.2514V12.5188L21.6337 4.13267C21.9931 3.77332 22.0985 3.2382 21.9032 2.76948C21.7079 2.30076 21.2548 2 20.7509 2H3.25209ZM8.77126 6.99967L6.27143 4.49984H17.7355L15.2357 6.99967H8.77126Z" fill="#333333"/>
</g>
</svg>
