<svg width="16" height="16" viewBox="0 0 16 16" fill="none" xmlns="http://www.w3.org/2000/svg">
<g id="WA.Walking">
<path id="Icon" d="M7.99988 2.58344C7.99988 2.2519 8.12624 1.93394 8.35118 1.69951C8.57611 1.46508 8.88118 1.33337 9.19928 1.33337C9.51738 1.33337 9.82245 1.46508 10.0474 1.69951C10.2723 1.93394 10.3987 2.2519 10.3987 2.58344C10.3987 2.91497 10.2723 3.23293 10.0474 3.46736C9.82245 3.70179 9.51738 3.8335 9.19928 3.8335C8.88118 3.8335 8.57611 3.70179 8.35118 3.46736C8.12624 3.23293 7.99988 2.91497 7.99988 2.58344ZM7.1628 6.52373C7.13781 6.53415 7.11532 6.54457 7.09033 6.55498L6.89043 6.64613C6.48064 6.83625 6.16579 7.19824 6.02337 7.64097L5.9584 7.84411C5.81847 8.28163 5.36619 8.51602 4.9464 8.37018C4.52661 8.22434 4.30172 7.75296 4.44165 7.31544L4.50662 7.1123C4.79148 6.22424 5.42117 5.50024 6.24076 5.12002L6.44066 5.02887C6.9604 4.78927 7.52262 4.66427 8.09233 4.66427C9.20678 4.66427 10.2113 5.36222 10.6386 6.43258L11.0234 7.39357L11.5581 7.67223C11.9529 7.87796 12.1128 8.37799 11.9154 8.78947C11.718 9.20095 11.2383 9.36762 10.8435 9.16188L10.1738 8.81551C9.91642 8.68009 9.71402 8.45612 9.60408 8.17746L9.3642 7.57847L8.88194 9.28428L10.1188 10.6906C10.2538 10.8443 10.3487 11.0292 10.3987 11.2323L10.9734 13.6309C11.0808 14.0762 10.821 14.5293 10.3912 14.6413C9.9614 14.7533 9.52912 14.4825 9.42167 14.0345L8.87194 11.7401L7.10533 9.73222C6.73551 9.31293 6.59808 8.72696 6.73801 8.17746L7.1603 6.52373H7.1628ZM5.71852 11.6985L6.34321 10.0734C6.39568 10.1515 6.45565 10.2244 6.51812 10.2974L7.53511 11.4537L7.17279 12.3964C7.11282 12.5527 7.02287 12.6959 6.90792 12.8157L5.36619 14.4226C5.05385 14.7481 4.5466 14.7481 4.23426 14.4226C3.92191 14.097 3.92191 13.5683 4.23426 13.2428L5.71852 11.6985Z" fill="#333333"/>
</g>
</svg>
