<svg width="20" height="20" viewBox="0 0 20 20" fill="none" xmlns="http://www.w3.org/2000/svg">
<g id="WA.website">
<path id="Icon" d="M13.125 10C13.125 10.7227 13.0859 11.4193 13.0175 12.0834H6.98564C6.91402 11.4193 6.87822 10.7227 6.87822 10C6.87822 9.27736 6.91728 8.58075 6.98564 7.91669H13.0175C13.0892 8.58075 13.125 9.27736 13.125 10ZM14.0625 7.91669H18.0696C18.2421 8.58401 18.3333 9.28062 18.3333 10C18.3333 10.7194 18.2421 11.416 18.0696 12.0834H14.0625C14.1308 11.4128 14.1666 10.7162 14.1666 10C14.1666 9.28387 14.1308 8.58726 14.0625 7.91669ZM17.7278 6.87502H13.929C13.6035 4.79494 12.9589 3.05341 12.1289 1.94012C14.6777 2.61395 16.7513 4.46291 17.7246 6.87502H17.7278ZM12.8743 6.87502H7.12561C7.32418 5.69012 7.63017 4.64195 8.00452 3.79234C8.34631 3.02411 8.72717 2.46747 9.09501 2.11591C9.4596 1.77085 9.76233 1.66669 9.99996 1.66669C10.2376 1.66669 10.5403 1.77085 10.9049 2.11591C11.2727 2.46747 11.6536 3.02411 11.9954 3.79234C12.373 4.63869 12.6757 5.68687 12.8743 6.87502ZM6.07092 6.87502H2.27209C3.24866 4.46291 5.31897 2.61395 7.87105 1.94012C7.04098 3.05341 6.39644 4.79494 6.07092 6.87502ZM1.9303 7.91669H5.93746C5.8691 8.58726 5.83329 9.28387 5.83329 10C5.83329 10.7162 5.8691 11.4128 5.93746 12.0834H1.9303C1.75777 11.416 1.66663 10.7194 1.66663 10C1.66663 9.28062 1.75777 8.58401 1.9303 7.91669ZM8.00452 16.2044C7.62691 15.3581 7.32418 14.3099 7.12561 13.125H12.8743C12.6757 14.3099 12.3698 15.3581 11.9954 16.2044C11.6536 16.9727 11.2727 17.5293 10.9049 17.8809C10.5403 18.2292 10.2376 18.3334 9.99996 18.3334C9.76233 18.3334 9.4596 18.2292 9.09501 17.8841C8.72717 17.5326 8.34631 16.9759 8.00452 16.2077V16.2044ZM6.07092 13.125C6.39644 15.2051 7.04098 16.9466 7.87105 18.0599C5.31897 17.3861 3.24866 15.5371 2.27209 13.125H6.07092ZM17.7278 13.125C16.7513 15.5371 14.681 17.3861 12.1321 18.0599C12.9622 16.9466 13.6035 15.2051 13.9323 13.125H17.7311H17.7278Z" fill="#333333"/>
</g>
</svg>
