<svg width="24" height="24" viewBox="0 0 24 24" fill="none" xmlns="http://www.w3.org/2000/svg">
<g id="WA.Whatsapp">
<path id="Icon" d="M21.9999 12C21.9999 6.48552 17.5144 2 12 2C6.48552 2 2 6.48552 2 12C2 13.6153 2.39421 15.2187 3.14181 16.6393L2.47114 21.3279L6.5542 20.3868C8.17558 21.4421 10.0554 21.9986 12 21.9986C17.5145 21.9998 21.9999 17.5144 21.9999 12ZM6.56983 10.1695C6.06503 7.64303 7.47728 6.78485 8.36669 6.49869C8.73327 6.38211 9.13592 6.56961 9.28976 6.92897L10.1912 9.03352C10.3667 9.44216 10.2681 9.92533 9.94481 10.233L9.28014 10.87C9.97604 13.1621 12.4952 14.4854 12.9509 14.7066L13.6216 14.042C13.9112 13.7523 14.3475 13.6537 14.7358 13.7896L17.0254 14.5864C17.3571 14.703 17.5735 15.0299 17.5362 15.3677C17.4257 16.3833 16.7081 16.9518 16.1276 17.2535C15.767 17.4386 15.362 17.5335 14.9497 17.5335C14.7899 17.5335 14.6324 17.5179 14.4726 17.4903C7.73565 16.2835 6.57845 10.2307 6.56983 10.1695Z" fill="#333333"/>
</g>
</svg>
