<svg width="33" height="32" viewBox="0 0 33 32" fill="none" xmlns="http://www.w3.org/2000/svg">
<g id="WA.wifi">
<path id="Icon" d="M5.4247 13.7875C8.2997 11.0292 12.1997 9.33333 16.4997 9.33333C20.7997 9.33333 24.6997 11.0292 27.5747 13.7875C28.108 14.2958 28.9497 14.2792 29.458 13.75C29.9664 13.2208 29.9497 12.375 29.4205 11.8667C26.0705 8.64583 21.5164 6.66667 16.4997 6.66667C11.483 6.66667 6.92887 8.64583 3.5747 11.8625C3.04554 12.375 3.02887 13.2167 3.5372 13.75C4.04554 14.2833 4.89137 14.3 5.42054 13.7875H5.4247ZM16.4997 16C18.8664 16 21.0247 16.8792 22.6747 18.3333C23.2289 18.8208 24.0705 18.7667 24.558 18.2167C25.0455 17.6667 24.9914 16.8208 24.4414 16.3333C22.3247 14.4667 19.5414 13.3333 16.4997 13.3333C13.458 13.3333 10.6747 14.4667 8.5622 16.3333C8.00804 16.8208 7.95804 17.6625 8.44554 18.2167C8.93304 18.7708 9.7747 18.8208 10.3289 18.3333C11.9747 16.8792 14.133 16 16.5039 16H16.4997ZM19.1664 22.6667C19.1664 21.9594 18.8854 21.2811 18.3853 20.7811C17.8852 20.281 17.2069 20 16.4997 20C15.7925 20 15.1142 20.281 14.6141 20.7811C14.114 21.2811 13.833 21.9594 13.833 22.6667C13.833 23.3739 14.114 24.0522 14.6141 24.5523C15.1142 25.0524 15.7925 25.3333 16.4997 25.3333C17.2069 25.3333 17.8852 25.0524 18.3853 24.5523C18.8854 24.0522 19.1664 23.3739 19.1664 22.6667Z" fill="#333333"/>
</g>
</svg>
