<svg width="33" height="32" viewBox="0 0 33 32" fill="none" xmlns="http://www.w3.org/2000/svg">
<g id="WA.website">
<path id="Icon" d="M21.5 16.0001C21.5 17.1563 21.4375 18.2709 21.3281 19.3334H11.677C11.5625 18.2709 11.5052 17.1563 11.5052 16.0001C11.5052 14.8438 11.5677 13.7292 11.677 12.6667H21.3281C21.4427 13.7292 21.5 14.8438 21.5 16.0001ZM23 12.6667H29.4114C29.6875 13.7345 29.8333 14.849 29.8333 16.0001C29.8333 17.1511 29.6875 18.2657 29.4114 19.3334H23C23.1093 18.2605 23.1666 17.1459 23.1666 16.0001C23.1666 14.8542 23.1093 13.7397 23 12.6667ZM28.8645 11.0001H22.7864C22.2656 7.67196 21.2343 4.8855 19.9062 3.10425C23.9843 4.18237 27.302 7.14071 28.8593 11.0001H28.8645ZM21.0989 11.0001H11.901C12.2187 9.10425 12.7083 7.42717 13.3073 6.06779C13.8541 4.83862 14.4635 3.948 15.052 3.3855C15.6354 2.83341 16.1198 2.66675 16.5 2.66675C16.8802 2.66675 17.3645 2.83341 17.9479 3.3855C18.5364 3.948 19.1458 4.83862 19.6927 6.06779C20.2968 7.42196 20.7812 9.09904 21.0989 11.0001ZM10.2135 11.0001H4.13538C5.69788 7.14071 9.01038 4.18237 13.0937 3.10425C11.7656 4.8855 10.7343 7.67196 10.2135 11.0001ZM3.5885 12.6667H9.99996C9.89058 13.7397 9.83329 14.8542 9.83329 16.0001C9.83329 17.1459 9.89058 18.2605 9.99996 19.3334H3.5885C3.31246 18.2657 3.16663 17.1511 3.16663 16.0001C3.16663 14.849 3.31246 13.7345 3.5885 12.6667ZM13.3073 25.9272C12.7031 24.573 12.2187 22.8959 11.901 21.0001H21.0989C20.7812 22.8959 20.2916 24.573 19.6927 25.9272C19.1458 27.1563 18.5364 28.047 17.9479 28.6095C17.3645 29.1667 16.8802 29.3334 16.5 29.3334C16.1198 29.3334 15.6354 29.1667 15.052 28.6147C14.4635 28.0522 13.8541 27.1615 13.3073 25.9324V25.9272ZM10.2135 21.0001C10.7343 24.3282 11.7656 27.1147 13.0937 28.8959C9.01038 27.8178 5.69788 24.8595 4.13538 21.0001H10.2135ZM28.8645 21.0001C27.302 24.8595 23.9895 27.8178 19.9114 28.8959C21.2395 27.1147 22.2656 24.3282 22.7916 21.0001H28.8698H28.8645Z" fill="#333333"/>
</g>
</svg>
