<svg width="20" height="20" viewBox="0 0 20 20" fill="none" xmlns="http://www.w3.org/2000/svg">
<g clip-path="url(#clip0_740_10200)">
<path d="M0.839844 3.33008H19.1698V16.6601H0.839844V3.33008Z" fill="#DE2910"/>
<path d="M3.03968 8.26121L4.27694 4.66211L5.5142 8.26121L2.21484 6.06176H6.33904L3.03968 8.26121Z" fill="#FFDE00"/>
<path d="M8.40632 4.7328L7.13303 5.0064L7.98236 4.04674L7.89906 5.33832L7.19246 4.19488L8.40632 4.7328Z" fill="#FFDE00"/>
<path d="M9.69 6.31096L8.40694 6.08431L9.57364 5.51916L8.98025 6.67832L8.78631 5.35865L9.69 6.31096Z" fill="#FFDE00"/>
<path d="M9.50345 8.52668L8.42728 7.81232L9.73025 7.75771L8.70089 8.58141L9.0789 7.29979L9.50345 8.52668Z" fill="#FFDE00"/>
<path d="M7.88575 9.9733L7.17763 8.91134L8.40125 9.34893L7.12366 9.72322L7.98283 8.68262L7.88575 9.9733Z" fill="#FFDE00"/>
</g>
<defs>
<clipPath id="clip0_740_10200">
<rect x="0.839844" y="3.33008" width="18.33" height="13.33" rx="2" fill="white"/>
</clipPath>
</defs>
</svg>
