<svg width="58" height="115" viewBox="0 0 58 115" fill="none" xmlns="http://www.w3.org/2000/svg">
<path d="M58 26.6998V39.7085C57.9995 39.8286 57.9515 39.9437 57.8666 40.0287C57.7816 40.1136 57.6666 40.1616 57.5464 40.1621H57.2236V107.929C57.2236 108.858 57.0407 109.777 56.6854 110.635C56.33 111.493 55.8092 112.272 55.1526 112.929C54.496 113.586 53.7165 114.106 52.8586 114.462C52.0008 114.817 51.0813 115 50.1528 115H7.80895C6.88051 115 5.96119 114.817 5.10346 114.462C4.24573 114.106 3.4664 113.585 2.80999 112.929C2.15357 112.272 1.63293 111.493 1.27777 110.635C0.922617 109.777 0.739917 108.858 0.740099 107.929V42.5384H0.506387C0.421599 42.5385 0.340224 42.505 0.280085 42.4453C0.219945 42.3855 0.185945 42.3043 0.185526 42.2195V34.816C0.185526 34.7309 0.219331 34.6493 0.279504 34.5891C0.339677 34.5289 0.421289 34.4951 0.506387 34.4951H0.740099V31.7064H0.504404C0.415448 31.7059 0.330314 31.6702 0.267597 31.6071C0.20488 31.544 0.169676 31.4586 0.169678 31.3697V24.0671C0.169887 23.9784 0.205219 23.8934 0.267947 23.8307C0.330675 23.7679 0.415693 23.7326 0.504404 23.7324H0.740099V19.926H0.500451C0.421657 19.926 0.346088 19.8947 0.290372 19.839C0.234656 19.7833 0.203357 19.7077 0.203357 19.6289V15.6439C0.203147 15.5649 0.234317 15.489 0.290022 15.4329C0.345726 15.3768 0.42141 15.3451 0.500451 15.3448H0.740099V7.27576C0.740151 5.40104 1.4849 3.60311 2.81051 2.27746C4.13612 0.951807 5.93403 0.207014 7.80876 0.206909H50.1528C52.0277 0.206909 53.8259 0.951599 55.1519 2.27721C56.4779 3.60282 57.2231 5.4008 57.2236 7.27576V26.2462H57.5464C57.6666 26.2467 57.7816 26.2947 57.8666 26.3796C57.9515 26.4646 57.9995 26.5796 58 26.6998Z" fill="#090814"/>
<path d="M31.0145 3.43542H24.134C23.856 3.43542 23.6306 3.66084 23.6306 3.9389V4.53348C23.6306 4.81155 23.856 5.03696 24.134 5.03696H31.0145C31.2926 5.03696 31.518 4.81155 31.518 4.53348V3.9389C31.518 3.66084 31.2926 3.43542 31.0145 3.43542Z" fill="#E6E8EC"/>
<path d="M33.624 5.14503C34.1257 5.14503 34.5325 4.73827 34.5325 4.23652C34.5325 3.73476 34.1257 3.328 33.624 3.328C33.1222 3.328 32.7155 3.73476 32.7155 4.23652C32.7155 4.73827 33.1222 5.14503 33.624 5.14503Z" fill="#E6E8EC"/>
<path d="M55.3149 6.88697V108.444C55.3137 110.964 53.1852 113.005 50.56 113.005H7.5973C6.34595 113.011 5.14068 112.534 4.2334 111.672C3.79511 111.256 3.44583 110.755 3.20673 110.2C2.96763 109.645 2.84369 109.048 2.84241 108.443V6.88697C2.84241 4.36662 4.97138 2.32361 7.59749 2.32381H14.0276V3.11606C14.0276 5.19116 15.7805 6.8733 17.9429 6.8733H39.7926C41.9548 6.8733 43.7079 5.19116 43.7079 3.11586V2.32361H50.5608C53.1873 2.32361 55.3167 4.36623 55.3157 6.88677L55.3149 6.88697Z" fill="white"/>
<path d="M10.1483 69.9167H48.1764C48.5966 69.9167 48.9996 70.0837 49.2968 70.3808C49.5939 70.678 49.7609 71.081 49.7609 71.5012V73.6799C49.7609 74.1002 49.5939 74.5032 49.2968 74.8003C48.9996 75.0975 48.5966 75.2644 48.1764 75.2644H10.1483C9.72811 75.2644 9.32508 75.0975 9.02793 74.8003C8.73078 74.5032 8.56384 74.1002 8.56384 73.6799V71.5012C8.56384 71.081 8.73078 70.678 9.02793 70.3808C9.32508 70.0837 9.72811 69.9167 10.1483 69.9167Z" fill="#E6E6E6"/>
<path d="M10.1483 79.4231H48.1764C48.5966 79.4231 48.9996 79.59 49.2968 79.8872C49.5939 80.1843 49.7609 80.5874 49.7609 81.0076V83.1863C49.7609 83.6065 49.5939 84.0095 49.2968 84.3067C48.9996 84.6038 48.5966 84.7708 48.1764 84.7708H10.1483C9.72811 84.7708 9.32508 84.6038 9.02793 84.3067C8.73078 84.0095 8.56384 83.6065 8.56384 83.1863V81.0076C8.56384 80.5874 8.73078 80.1843 9.02793 79.8872C9.32508 79.59 9.72811 79.4231 10.1483 79.4231Z" fill="#E6E6E6"/>
<path d="M10.1483 88.9294H48.1764C48.5966 88.9294 48.9996 89.0964 49.2968 89.3935C49.5939 89.6907 49.7609 90.0937 49.7609 90.5139V92.6926C49.7609 93.1129 49.5939 93.5159 49.2968 93.813C48.9996 94.1102 48.5966 94.2771 48.1764 94.2771H10.1483C9.72811 94.2771 9.32508 94.1102 9.02793 93.813C8.73078 93.5159 8.56384 93.1129 8.56384 92.6926V90.5139C8.56384 90.0937 8.73078 89.6907 9.02793 89.3935C9.32508 89.0964 9.72811 88.9294 10.1483 88.9294Z" fill="#E6E6E6"/>
<path d="M45.2054 22.1825C47.3931 22.1825 49.1666 20.409 49.1666 18.2213C49.1666 16.0335 47.3931 14.26 45.2054 14.26C43.0177 14.26 41.2441 16.0335 41.2441 18.2213C41.2441 20.409 43.0177 22.1825 45.2054 22.1825Z" fill="#333333"/>
<path d="M10.0677 31.4968H48.0957C48.5159 31.4968 48.9189 31.6638 49.2161 31.9609C49.5132 32.2581 49.6802 32.6611 49.6802 33.0813V57.245C49.6802 57.6652 49.5132 58.0682 49.2161 58.3654C48.9189 58.6625 48.5159 58.8295 48.0957 58.8295H10.0677C9.64742 58.8295 9.2444 58.6625 8.94724 58.3654C8.65009 58.0682 8.48315 57.6652 8.48315 57.245V33.0813C8.48315 32.6611 8.65009 32.2581 8.94724 31.9609C9.2444 31.6638 9.64742 31.4968 10.0677 31.4968Z" fill="#E6E6E6"/>
</svg>
