<svg width="24" height="24" viewBox="0 0 24 24" fill="none" xmlns="http://www.w3.org/2000/svg">
<path d="M22 17.1691V7.64154V7.48406C22 6.55886 21.252 5.79114 20.3071 5.79114H17.315C16.6457 4.80689 15.8189 3.9998 14.874 3.9998H9.5C8.55512 3.9998 7.72835 4.80689 7.05906 5.79114H3.69291C2.76772 5.79114 2 6.53917 2 7.48406V8.52736C2 8.52736 2 8.52736 2 8.54705V16.2636C2 16.2636 2 16.2636 2 16.2833V17.3266C2 18.2518 2.74803 19.0195 3.69291 19.0195H20.3071C21.2323 19.0195 22 18.2715 22 17.3266V17.1691ZM9.5 4.76752H14.8937C15.3858 4.76752 15.9173 5.20059 16.4094 5.81083H7.98425C8.47638 5.18091 8.98819 4.76752 9.5 4.76752ZM7.5315 12.5037C7.5315 9.94469 9.53937 7.85807 12 7.85807C14.4606 7.85807 16.4685 9.94469 16.4685 12.5037C16.4685 15.0628 14.4606 17.1494 12 17.1494C9.53937 17.1494 7.5315 15.0628 7.5315 12.5037ZM8.12205 8.92106C7.29528 9.86595 6.78346 11.1258 6.78346 12.5037C6.78346 13.803 7.23622 14.9841 7.96457 15.9289H2.74803V8.92106H8.12205ZM17.2165 12.5037C17.2165 11.1258 16.7047 9.86595 15.878 8.92106H21.252V15.9289H16.0354C16.7638 14.9841 17.2165 13.803 17.2165 12.5037ZM21.252 8.17303H15.1102C14.2441 7.50374 13.1614 7.11004 12 7.11004C10.8386 7.11004 9.75591 7.50374 8.88976 8.17303H2.74803V7.66122C2.74803 7.05099 3.24016 6.55886 3.85039 6.55886H20.1496C20.7598 6.55886 21.252 7.05099 21.252 7.66122V8.17303ZM20.1496 18.2715H3.85039C3.24016 18.2715 2.74803 17.7793 2.74803 17.1691V16.6573H8.69291C9.59842 17.425 10.7598 17.8974 12 17.8974C13.2402 17.8974 14.4213 17.425 15.3071 16.6573H21.252V17.1691C21.252 17.7793 20.7598 18.2715 20.1496 18.2715Z" fill="#333333"/>
<path d="M12 16.323C14.0472 16.323 15.7008 14.6105 15.7008 12.5042C15.7008 10.3979 14.0472 8.68525 12 8.68525C9.95274 8.68525 8.29919 10.3979 8.29919 12.5042C8.29919 14.6105 9.95274 16.323 12 16.323ZM12 9.4136C13.6338 9.4136 14.9724 10.7916 14.9724 12.5042C14.9724 14.1971 13.6338 15.5947 12 15.5947C10.3661 15.5947 9.02754 14.2168 9.02754 12.5042C9.02754 10.7916 10.3661 9.4136 12 9.4136Z" fill="#333333"/>
</svg>
