<svg width="49" height="48" viewBox="0 0 49 48" fill="none" xmlns="http://www.w3.org/2000/svg">
<g id="1.TH.Emojis" filter="url(#filter0_d_6774_3094)">
<g id="Vector">
<path d="M22.7497 41.9987C33.7954 41.9987 42.7497 33.0444 42.7497 21.9987C42.7497 10.953 33.7954 1.99866 22.7497 1.99866C11.704 1.99866 2.74968 10.953 2.74968 21.9987C2.74968 33.0444 11.704 41.9987 22.7497 41.9987Z" fill="#EE9004"/>
<path d="M31.0663 32.4198C31.0163 32.2209 29.7686 27.5542 22.7497 27.5542C15.7297 27.5542 14.483 32.2209 14.433 32.4198C14.3719 32.6609 14.4808 32.9109 14.6963 33.0353C14.913 33.1587 15.1841 33.122 15.363 32.9498C15.3841 32.9287 17.5341 30.8875 22.7497 30.8875C27.9652 30.8875 30.1163 32.9287 30.1363 32.9487C30.243 33.0542 30.3852 33.1098 30.5275 33.1098C30.6208 33.1098 30.7152 33.0864 30.8008 33.0387C31.0186 32.9142 31.1275 32.662 31.0663 32.4198Z" fill="#333333"/>
<path d="M16.083 20.8875C17.6171 20.8875 18.8608 19.1464 18.8608 16.9987C18.8608 14.8509 17.6171 13.1098 16.083 13.1098C14.5489 13.1098 13.3052 14.8509 13.3052 16.9987C13.3052 19.1464 14.5489 20.8875 16.083 20.8875Z" fill="#333333"/>
<path d="M29.4163 20.8875C30.9505 20.8875 32.1941 19.1464 32.1941 16.9987C32.1941 14.8509 30.9505 13.1098 29.4163 13.1098C27.8822 13.1098 26.6386 14.8509 26.6386 16.9987C26.6386 19.1464 27.8822 20.8875 29.4163 20.8875Z" fill="#333333"/>
</g>
</g>
<defs>
<filter id="filter0_d_6774_3094" x="0.74968" y="-0.00134277" width="48.0003" height="48.0013" filterUnits="userSpaceOnUse" color-interpolation-filters="sRGB">
<feFlood flood-opacity="0" result="BackgroundImageFix"/>
<feColorMatrix in="SourceAlpha" type="matrix" values="0 0 0 0 0 0 0 0 0 0 0 0 0 0 0 0 0 0 127 0" result="hardAlpha"/>
<feOffset dx="2" dy="2"/>
<feGaussianBlur stdDeviation="2"/>
<feComposite in2="hardAlpha" operator="out"/>
<feColorMatrix type="matrix" values="0 0 0 0 0 0 0 0 0 0 0 0 0 0 0 0 0 0 0.25 0"/>
<feBlend mode="normal" in2="BackgroundImageFix" result="effect1_dropShadow_6774_3094"/>
<feBlend mode="normal" in="SourceGraphic" in2="effect1_dropShadow_6774_3094" result="shape"/>
</filter>
</defs>
</svg>
