<svg width="49" height="48" viewBox="0 0 49 48" fill="none" xmlns="http://www.w3.org/2000/svg">
<g id="1.TH.Emojis" filter="url(#filter0_d_6774_3102)">
<g id="Vector">
<path d="M22.2497 41.9987C33.2954 41.9987 42.2497 33.0444 42.2497 21.9987C42.2497 10.953 33.2954 1.99866 22.2497 1.99866C11.204 1.99866 2.24966 10.953 2.24966 21.9987C2.24966 33.0444 11.204 41.9987 22.2497 41.9987Z" fill="#7FDA8C"/>
<path d="M13.933 28.2452C13.983 28.4441 15.2308 33.1108 22.2497 33.1108C29.2697 33.1108 30.5164 28.4441 30.5664 28.2452C30.5956 28.1279 30.5856 28.0043 30.5381 27.8932C30.4906 27.7821 30.408 27.6895 30.303 27.6297C30.1976 27.57 30.0756 27.5462 29.9555 27.5616C29.8353 27.577 29.7234 27.6309 29.6364 27.7152C29.6153 27.7363 27.4653 29.7774 22.2497 29.7774C17.0341 29.7774 14.883 27.7363 14.863 27.7163C14.777 27.6313 14.6657 27.5766 14.5458 27.5603C14.426 27.5441 14.3041 27.5673 14.1986 27.6263C14.0927 27.6862 14.0093 27.7791 13.9613 27.891C13.9134 28.0028 13.9034 28.1272 13.933 28.2452Z" fill="#333333"/>
<path d="M15.5833 20.8865C17.1174 20.8865 18.361 19.1453 18.361 16.9976C18.361 14.8498 17.1174 13.1087 15.5833 13.1087C14.0491 13.1087 12.8055 14.8498 12.8055 16.9976C12.8055 19.1453 14.0491 20.8865 15.5833 20.8865Z" fill="#333333"/>
<path d="M28.9158 20.8865C30.4499 20.8865 31.6936 19.1453 31.6936 16.9976C31.6936 14.8498 30.4499 13.1087 28.9158 13.1087C27.3817 13.1087 26.138 14.8498 26.138 16.9976C26.138 19.1453 27.3817 20.8865 28.9158 20.8865Z" fill="#333333"/>
</g>
</g>
<defs>
<filter id="filter0_d_6774_3102" x="0.249664" y="-0.00134277" width="48.0003" height="48.0013" filterUnits="userSpaceOnUse" color-interpolation-filters="sRGB">
<feFlood flood-opacity="0" result="BackgroundImageFix"/>
<feColorMatrix in="SourceAlpha" type="matrix" values="0 0 0 0 0 0 0 0 0 0 0 0 0 0 0 0 0 0 127 0" result="hardAlpha"/>
<feOffset dx="2" dy="2"/>
<feGaussianBlur stdDeviation="2"/>
<feComposite in2="hardAlpha" operator="out"/>
<feColorMatrix type="matrix" values="0 0 0 0 0 0 0 0 0 0 0 0 0 0 0 0 0 0 0.25 0"/>
<feBlend mode="normal" in2="BackgroundImageFix" result="effect1_dropShadow_6774_3102"/>
<feBlend mode="normal" in="SourceGraphic" in2="effect1_dropShadow_6774_3102" result="shape"/>
</filter>
</defs>
</svg>
