<svg width="32" height="32" viewBox="0 0 32 32" fill="none" xmlns="http://www.w3.org/2000/svg">
<g id="1.TH.Emojis">
<g id="Vector">
<path d="M31.9996 15.9992C31.9996 24.8357 24.8361 31.9992 15.9996 31.9992C7.16408 31.9992 -0.000366211 24.8357 -0.000366211 15.9992C-0.000366211 7.16365 7.16408 -0.000793457 15.9996 -0.000793457C24.8361 -0.000793457 31.9996 7.16365 31.9996 15.9992Z" fill="#DADADA"/>
<path d="M10.2219 15.9992C11.4492 15.9992 12.4441 13.8104 12.4441 11.1103C12.4441 8.41026 11.4492 6.22143 10.2219 6.22143C8.99456 6.22143 7.99963 8.41026 7.99963 11.1103C7.99963 13.8104 8.99456 15.9992 10.2219 15.9992Z" fill="#333333" fill-opacity="0.5"/>
<path d="M21.7774 15.9992C23.0047 15.9992 23.9996 13.8104 23.9996 11.1103C23.9996 8.41026 23.0047 6.22143 21.7774 6.22143C20.5501 6.22143 19.5552 8.41026 19.5552 11.1103C19.5552 13.8104 20.5501 15.9992 21.7774 15.9992Z" fill="#333333" fill-opacity="0.5"/>
<path d="M15.9996 19.5548C12.7792 19.5548 10.6423 19.1796 7.99963 18.6659C7.39608 18.5494 6.22186 18.6659 6.22186 20.4437C6.22186 23.9992 10.3063 28.4436 15.9996 28.4436C21.6921 28.4436 25.7774 23.9992 25.7774 20.4437C25.7774 18.6659 24.6032 18.5485 23.9996 18.6659C21.357 19.1796 19.2201 19.5548 15.9996 19.5548Z" fill="#333333" fill-opacity="0.5"/>
</g>
</g>
</svg>
