<svg width="33" height="32" viewBox="0 0 33 32" fill="none" xmlns="http://www.w3.org/2000/svg">
<g id="1.TH.Emojis">
<g id="Vector">
<path d="M32.4996 15.9992C32.4996 24.8357 25.3361 31.9992 16.4996 31.9992C7.66408 31.9992 0.499634 24.8357 0.499634 15.9992C0.499634 7.16365 7.66408 -0.000793457 16.4996 -0.000793457C25.3361 -0.000793457 32.4996 7.16365 32.4996 15.9992Z" fill="#DADADA"/>
<path d="M10.7219 17.777C11.9492 17.777 12.9441 16.3841 12.9441 14.6659C12.9441 12.9477 11.9492 11.5548 10.7219 11.5548C9.49456 11.5548 8.49963 12.9477 8.49963 14.6659C8.49963 16.3841 9.49456 17.777 10.7219 17.777Z" fill="#333333" fill-opacity="0.5"/>
<path d="M22.2774 17.777C23.5047 17.777 24.4996 16.3841 24.4996 14.6659C24.4996 12.9477 23.5047 11.5548 22.2774 11.5548C21.0501 11.5548 20.0552 12.9477 20.0552 14.6659C20.0552 16.3841 21.0501 17.777 22.2774 17.777Z" fill="#333333" fill-opacity="0.5"/>
<path d="M22.7219 23.1103H10.2774C9.78675 23.1103 9.38852 22.713 9.38852 22.2214C9.38852 21.7299 9.78675 21.3325 10.2774 21.3325H22.7219C23.2134 21.3325 23.6107 21.7299 23.6107 22.2214C23.6107 22.713 23.2134 23.1103 22.7219 23.1103Z" fill="#333333" fill-opacity="0.5"/>
</g>
</g>
</svg>
