<svg width="33" height="32" viewBox="0 0 33 32" fill="none" xmlns="http://www.w3.org/2000/svg">
<g id="1.TH.Emojis">
<g id="Vector">
<path d="M16.4996 31.9992C25.3362 31.9992 32.4996 24.8358 32.4996 15.9992C32.4996 7.16265 25.3362 -0.000793457 16.4996 -0.000793457C7.66308 -0.000793457 0.499634 7.16265 0.499634 15.9992C0.499634 24.8358 7.66308 31.9992 16.4996 31.9992Z" fill="#DADADA"/>
<path d="M23.153 24.3361C23.113 24.177 22.1147 20.4437 16.4996 20.4437C10.8836 20.4437 9.8863 24.177 9.8463 24.3361C9.79741 24.529 9.88452 24.729 10.057 24.8285C10.2303 24.9272 10.4472 24.8979 10.5903 24.7601C10.6072 24.7432 12.3272 23.1103 16.4996 23.1103C20.6721 23.1103 22.393 24.7432 22.409 24.7592C22.4943 24.8437 22.6081 24.8881 22.7219 24.8881C22.7965 24.8881 22.8721 24.8694 22.9405 24.8312C23.1147 24.7317 23.2019 24.5299 23.153 24.3361Z" fill="#333333" fill-opacity="0.5"/>
<path d="M11.1663 15.1103C12.3936 15.1103 13.3885 13.7174 13.3885 11.9992C13.3885 10.281 12.3936 8.8881 11.1663 8.8881C9.939 8.8881 8.94408 10.281 8.94408 11.9992C8.94408 13.7174 9.939 15.1103 11.1663 15.1103Z" fill="#333333" fill-opacity="0.5"/>
<path d="M21.833 15.1103C23.0603 15.1103 24.0552 13.7174 24.0552 11.9992C24.0552 10.281 23.0603 8.8881 21.833 8.8881C20.6057 8.8881 19.6107 10.281 19.6107 11.9992C19.6107 13.7174 20.6057 15.1103 21.833 15.1103Z" fill="#333333" fill-opacity="0.5"/>
</g>
</g>
</svg>
