<svg width="33" height="32" viewBox="0 0 33 32" fill="none" xmlns="http://www.w3.org/2000/svg">
<g id="1.TH.Emojis">
<g id="Vector">
<path d="M16.4996 31.9992C25.3362 31.9992 32.4996 24.8358 32.4996 15.9992C32.4996 7.16265 25.3362 -0.000793457 16.4996 -0.000793457C7.66308 -0.000793457 0.499634 7.16265 0.499634 15.9992C0.499634 24.8358 7.66308 31.9992 16.4996 31.9992Z" fill="#DADADA"/>
<path d="M9.84633 20.9965C9.88633 21.1556 10.8846 24.8889 16.4997 24.8889C22.1157 24.8889 23.113 21.1556 23.153 20.9965C23.1764 20.9026 23.1684 20.8037 23.1304 20.7148C23.0924 20.6259 23.0263 20.5519 22.9423 20.504C22.858 20.4563 22.7604 20.4372 22.6643 20.4495C22.5681 20.4619 22.4786 20.505 22.409 20.5725C22.3921 20.5893 20.6721 22.2222 16.4997 22.2222C12.3272 22.2222 10.6063 20.5893 10.5903 20.5733C10.5215 20.5053 10.4325 20.4615 10.3366 20.4486C10.2407 20.4356 10.1432 20.4541 10.0588 20.5013C9.97404 20.5492 9.90736 20.6236 9.86898 20.713C9.8306 20.8025 9.82264 20.9021 9.84633 20.9965Z" fill="#333333" fill-opacity="0.5"/>
<path d="M11.1665 15.1095C12.3938 15.1095 13.3887 13.7166 13.3887 11.9983C13.3887 10.2801 12.3938 8.88723 11.1665 8.88723C9.93922 8.88723 8.9443 10.2801 8.9443 11.9983C8.9443 13.7166 9.93922 15.1095 11.1665 15.1095Z" fill="#333333" fill-opacity="0.5"/>
<path d="M21.8325 15.1095C23.0598 15.1095 24.0548 13.7166 24.0548 11.9983C24.0548 10.2801 23.0598 8.88723 21.8325 8.88723C20.6052 8.88723 19.6103 10.2801 19.6103 11.9983C19.6103 13.7166 20.6052 15.1095 21.8325 15.1095Z" fill="#333333" fill-opacity="0.5"/>
</g>
</g>
</svg>
