<svg width="48" height="48" viewBox="0 0 48 48" fill="none" xmlns="http://www.w3.org/2000/svg">
<g id="1.TH.Emojis" filter="url(#filter0_d_6774_3090)">
<g id="Vector">
<path d="M41.9997 21.9987C41.9997 33.0442 33.0452 41.9987 21.9997 41.9987C10.9552 41.9987 1.99967 33.0442 1.99967 21.9987C1.99967 10.9542 10.9552 1.99866 21.9997 1.99866C33.0452 1.99866 41.9997 10.9542 41.9997 21.9987Z" fill="#FF6666"/>
<path d="M30.3163 35.1975C30.2663 34.9987 29.0186 30.332 21.9997 30.332C14.9797 30.332 13.733 34.9987 13.683 35.1975C13.6538 35.3148 13.6637 35.4384 13.7113 35.5496C13.7588 35.6607 13.8414 35.7532 13.9463 35.8131C14.0519 35.8724 14.1737 35.896 14.2938 35.8806C14.4139 35.8652 14.5258 35.8115 14.613 35.7275C14.6341 35.7064 16.7841 33.6653 21.9997 33.6653C27.2152 33.6653 29.3663 35.7064 29.3863 35.7264C29.4724 35.8114 29.5837 35.8662 29.7035 35.8824C29.8234 35.8987 29.9452 35.8755 30.0508 35.8164C30.1567 35.7566 30.2401 35.6636 30.288 35.5518C30.336 35.44 30.3459 35.3156 30.3163 35.1975ZM19.4519 21.2131C15.8352 17.5964 10.023 17.5542 9.77745 17.5542C9.49135 17.5669 9.22116 17.6894 9.02314 17.8963C8.82511 18.1031 8.71451 18.3784 8.71437 18.6648C8.71423 18.9512 8.82455 19.2266 9.02237 19.4336C9.22019 19.6407 9.49026 19.7635 9.77634 19.7764C9.80856 19.7764 11.9152 19.8009 14.2019 20.5953C13.543 21.3064 13.1108 22.4109 13.1108 23.6653C13.1108 25.8142 14.3541 27.5542 15.8886 27.5542C17.423 27.5542 18.6663 25.8142 18.6663 23.6653C18.6663 23.472 18.6452 23.2875 18.6252 23.102C18.6397 23.102 18.653 23.1098 18.6663 23.1098C18.8863 23.1103 19.1014 23.0454 19.2845 22.9234C19.4675 22.8014 19.6101 22.6277 19.6943 22.4245C19.7785 22.2213 19.8004 21.9977 19.7572 21.782C19.7141 21.5663 19.6078 21.3683 19.4519 21.2131ZM34.2219 17.5542C33.9763 17.5542 28.1652 17.5964 24.5474 21.2131C24.3916 21.3683 24.2853 21.5663 24.2421 21.782C24.199 21.9977 24.2209 22.2213 24.305 22.4245C24.3892 22.6277 24.5318 22.8014 24.7149 22.9234C24.8979 23.0454 25.113 23.1103 25.333 23.1098C25.3475 23.1098 25.3597 23.102 25.373 23.102C25.3552 23.2875 25.333 23.472 25.333 23.6653C25.333 25.8142 26.5763 27.5542 28.1108 27.5542C29.6452 27.5542 30.8886 25.8142 30.8886 23.6653C30.8886 22.4109 30.4563 21.3064 29.7974 20.5953C31.2252 20.1081 32.7165 19.8322 34.2241 19.7764C34.37 19.7763 34.5145 19.7474 34.6492 19.6914C34.784 19.6355 34.9064 19.5535 35.0095 19.4502C35.1125 19.3469 35.1943 19.2244 35.25 19.0895C35.3057 18.9546 35.3343 18.8101 35.3341 18.6642C35.334 18.5183 35.3051 18.3738 35.2491 18.2391C35.1931 18.1043 35.1112 17.9819 35.0079 17.8789C34.9046 17.7758 34.782 17.6941 34.6472 17.6384C34.5123 17.5827 34.3678 17.5541 34.2219 17.5542Z" fill="#333333"/>
</g>
</g>
<defs>
<filter id="filter0_d_6774_3090" x="-0.000328064" y="-0.00134277" width="48.0003" height="48.0013" filterUnits="userSpaceOnUse" color-interpolation-filters="sRGB">
<feFlood flood-opacity="0" result="BackgroundImageFix"/>
<feColorMatrix in="SourceAlpha" type="matrix" values="0 0 0 0 0 0 0 0 0 0 0 0 0 0 0 0 0 0 127 0" result="hardAlpha"/>
<feOffset dx="2" dy="2"/>
<feGaussianBlur stdDeviation="2"/>
<feComposite in2="hardAlpha" operator="out"/>
<feColorMatrix type="matrix" values="0 0 0 0 0 0 0 0 0 0 0 0 0 0 0 0 0 0 0.25 0"/>
<feBlend mode="normal" in2="BackgroundImageFix" result="effect1_dropShadow_6774_3090"/>
<feBlend mode="normal" in="SourceGraphic" in2="effect1_dropShadow_6774_3090" result="shape"/>
</filter>
</defs>
</svg>
