<svg width="32" height="32" viewBox="0 0 32 32" fill="none" xmlns="http://www.w3.org/2000/svg">
<g id="1.TH.Emojis">
<g id="Vector">
<path d="M31.9995 15.9993C31.9995 24.8357 24.836 31.9993 15.9995 31.9993C7.16396 31.9993 -0.000488281 24.8357 -0.000488281 15.9993C-0.000488281 7.16371 7.16396 -0.000732422 15.9995 -0.000732422C24.836 -0.000732422 31.9995 7.16371 31.9995 15.9993Z" fill="#DADADA"/>
<path d="M22.6528 26.5584C22.6128 26.3993 21.6146 22.6659 15.9995 22.6659C10.3835 22.6659 9.38618 26.3993 9.34618 26.5584C9.32282 26.6522 9.33076 26.7511 9.36879 26.84C9.40682 26.9289 9.47286 27.0029 9.55684 27.0508C9.6413 27.0982 9.73877 27.1172 9.83484 27.1049C9.9309 27.0925 10.0204 27.0496 10.0902 26.9824C10.1071 26.9655 11.8271 25.3326 15.9995 25.3326C20.172 25.3326 21.8928 26.9655 21.9088 26.9815C21.9777 27.0495 22.0667 27.0933 22.1626 27.1063C22.2585 27.1193 22.356 27.1007 22.4404 27.0535C22.5251 27.0056 22.5918 26.9312 22.6302 26.8418C22.6686 26.7523 22.6765 26.6528 22.6528 26.5584ZM13.9613 15.3708C11.068 12.4775 6.41818 12.4437 6.22173 12.4437C5.99286 12.4538 5.77671 12.5519 5.61829 12.7173C5.45986 12.8828 5.37139 13.1031 5.37127 13.3322C5.37116 13.5613 5.45942 13.7816 5.61767 13.9472C5.77592 14.1129 5.99198 14.2111 6.22085 14.2215C6.24662 14.2215 7.93196 14.241 9.76129 14.8766C9.23418 15.4455 8.8884 16.329 8.8884 17.3326C8.8884 19.0517 9.88307 20.4437 11.1106 20.4437C12.3382 20.4437 13.3328 19.0517 13.3328 17.3326C13.3328 17.1779 13.316 17.0304 13.3 16.8819C13.3115 16.8819 13.3222 16.8882 13.3328 16.8882C13.5088 16.8885 13.6809 16.8366 13.8273 16.739C13.9738 16.6414 14.0879 16.5025 14.1552 16.34C14.2226 16.1774 14.2401 15.9985 14.2055 15.8259C14.171 15.6534 14.086 15.495 13.9613 15.3708ZM25.7773 12.4437C25.5808 12.4437 20.932 12.4775 18.0377 15.3708C17.913 15.495 17.828 15.6534 17.7935 15.8259C17.7589 15.9985 17.7765 16.1774 17.8438 16.34C17.9111 16.5025 18.0253 16.6414 18.1717 16.739C18.3181 16.8366 18.4902 16.8885 18.6662 16.8882C18.6777 16.8882 18.6875 16.8819 18.6982 16.8819C18.684 17.0304 18.6662 17.1779 18.6662 17.3326C18.6662 19.0517 19.6608 20.4437 20.8884 20.4437C22.116 20.4437 23.1106 19.0517 23.1106 17.3326C23.1106 16.329 22.7648 15.4455 22.2377 14.8766C23.3799 14.4868 24.573 14.2661 25.7791 14.2215C25.8958 14.2214 26.0114 14.1983 26.1192 14.1535C26.227 14.1087 26.3249 14.0431 26.4073 13.9605C26.4898 13.8779 26.5552 13.7798 26.5997 13.6719C26.6443 13.5641 26.6672 13.4484 26.6671 13.3317C26.667 13.215 26.6438 13.0994 26.5991 12.9916C26.5543 12.8838 26.4887 12.7859 26.4061 12.7034C26.3235 12.621 26.2254 12.5556 26.1175 12.511C26.0096 12.4665 25.894 12.4436 25.7773 12.4437Z" fill="#333333" fill-opacity="0.5"/>
</g>
</g>
</svg>
