<svg width="49" height="48" viewBox="0 0 49 48" fill="none" xmlns="http://www.w3.org/2000/svg">
<g id="1.TH.Emojis" filter="url(#filter0_d_6774_3098)">
<g id="Vector">
<path d="M42.4997 21.9987C42.4997 33.0442 33.5452 41.9987 22.4997 41.9987C11.4552 41.9987 2.49968 33.0442 2.49968 21.9987C2.49968 10.9542 11.4552 1.99866 22.4997 1.99866C33.5452 1.99866 42.4997 10.9542 42.4997 21.9987Z" fill="#FFD453"/>
<path d="M15.2775 24.2209C16.8116 24.2209 18.0552 22.4798 18.0552 20.332C18.0552 18.1842 16.8116 16.4431 15.2775 16.4431C13.7433 16.4431 12.4997 18.1842 12.4997 20.332C12.4997 22.4798 13.7433 24.2209 15.2775 24.2209Z" fill="#333333"/>
<path d="M29.7219 24.2209C31.256 24.2209 32.4997 22.4798 32.4997 20.332C32.4997 18.1842 31.256 16.4431 29.7219 16.4431C28.1878 16.4431 26.9441 18.1842 26.9441 20.332C26.9441 22.4798 28.1878 24.2209 29.7219 24.2209Z" fill="#333333"/>
<path d="M30.2775 30.8875H14.7219C14.1086 30.8875 13.6108 30.3909 13.6108 29.7764C13.6108 29.162 14.1086 28.6653 14.7219 28.6653H30.2775C30.8919 28.6653 31.3886 29.162 31.3886 29.7764C31.3886 30.3909 30.8919 30.8875 30.2775 30.8875Z" fill="#333333"/>
</g>
</g>
<defs>
<filter id="filter0_d_6774_3098" x="0.49968" y="-0.00134277" width="48.0003" height="48.0013" filterUnits="userSpaceOnUse" color-interpolation-filters="sRGB">
<feFlood flood-opacity="0" result="BackgroundImageFix"/>
<feColorMatrix in="SourceAlpha" type="matrix" values="0 0 0 0 0 0 0 0 0 0 0 0 0 0 0 0 0 0 127 0" result="hardAlpha"/>
<feOffset dx="2" dy="2"/>
<feGaussianBlur stdDeviation="2"/>
<feComposite in2="hardAlpha" operator="out"/>
<feColorMatrix type="matrix" values="0 0 0 0 0 0 0 0 0 0 0 0 0 0 0 0 0 0 0.25 0"/>
<feBlend mode="normal" in2="BackgroundImageFix" result="effect1_dropShadow_6774_3098"/>
<feBlend mode="normal" in="SourceGraphic" in2="effect1_dropShadow_6774_3098" result="shape"/>
</filter>
</defs>
</svg>
