<svg width="151" height="97" viewBox="0 0 151 97" fill="none" xmlns="http://www.w3.org/2000/svg">
<g clip-path="url(#clip0_3798_6835)">
<path d="M70.4636 51.3665C65.2727 51.3665 60.1983 49.8688 55.8822 47.063C51.5661 44.2571 48.2021 40.269 46.2156 35.603C44.2291 30.937 43.7094 25.8026 44.7221 20.8492C45.7348 15.8958 48.2345 11.3458 51.905 7.7746C55.5755 4.20339 60.2521 1.77137 65.3433 0.786079C70.4345 -0.199214 75.7116 0.306475 80.5074 2.2392C85.3032 4.17192 89.4022 7.44487 92.2862 11.6442C95.1701 15.8435 96.7094 20.7805 96.7094 25.8309C96.7015 32.601 93.9338 39.0917 89.0135 43.8788C84.0932 48.666 77.422 51.3588 70.4636 51.3665ZM70.4636 0.980386C65.4119 0.980386 60.4737 2.43785 56.2733 5.16846C52.073 7.89908 48.7993 11.7802 46.8661 16.321C44.9329 20.8619 44.427 25.8585 45.4126 30.679C46.3981 35.4996 48.8307 39.9275 52.4028 43.4029C55.9749 46.8784 60.526 49.2451 65.4806 50.204C70.4353 51.1629 75.5709 50.6707 80.238 48.7899C84.9052 46.909 88.8942 43.7238 91.7008 39.6372C94.5074 35.5505 96.0054 30.7459 96.0054 25.8309C95.9977 19.2424 93.3043 12.9259 88.5159 8.26717C83.7276 3.6084 77.2353 0.987834 70.4636 0.980386Z" fill="#3F3D56"/>
<path d="M83.9726 45.8937C84.16 45.6372 84.4065 45.4268 84.6924 45.2794C84.9783 45.1321 85.2956 45.0517 85.619 45.0449C85.9425 45.038 86.2631 45.1048 86.5553 45.2399C86.8475 45.375 87.1032 45.5747 87.302 45.823L94.2809 43.5151L93.3134 47.121L86.8345 48.7598C86.4289 49.0272 85.9394 49.1471 85.452 49.0984C84.9645 49.0498 84.5103 48.8358 84.1688 48.4939C83.8274 48.1519 83.6206 47.704 83.5847 47.2285C83.5488 46.7531 83.6861 46.2805 83.9726 45.8937Z" fill="#FFB8B8"/>
<path d="M138.788 96.0069C139.303 90.6179 140.723 85.3477 142.993 80.4066C143.626 79.0316 144.322 77.6868 145.082 76.3723C145.277 76.0341 144.743 75.7302 144.548 76.0684C141.784 80.8562 139.848 86.0533 138.816 91.4521C138.529 92.9597 138.314 94.478 138.17 96.0069C138.133 96.3925 138.752 96.3901 138.788 96.0069Z" fill="#E6E6E6"/>
<path d="M146.581 77.338C148.745 77.338 150.5 75.6308 150.5 73.5249C150.5 71.4191 148.745 69.7119 146.581 69.7119C144.416 69.7119 142.662 71.4191 142.662 73.5249C142.662 75.6308 144.416 77.338 146.581 77.338Z" fill="#E6E6E6"/>
<path d="M139.19 96.1081C139.523 92.6121 140.445 89.193 141.917 85.9875C142.328 85.0954 142.78 84.223 143.273 83.3703C143.297 83.3257 143.303 83.2735 143.289 83.2247C143.275 83.1759 143.242 83.1343 143.197 83.1087C143.152 83.0832 143.099 83.0756 143.048 83.0876C142.998 83.0996 142.954 83.1303 142.926 83.1731C141.133 86.2791 139.877 89.6508 139.208 93.1532C139.022 94.1313 138.882 95.1163 138.788 96.1081C138.764 96.3583 139.166 96.3567 139.19 96.1081Z" fill="#E6E6E6"/>
<path d="M144.245 83.9967C145.649 83.9967 146.787 82.8892 146.787 81.523C146.787 80.1568 145.649 79.0493 144.245 79.0493C142.84 79.0493 141.702 80.1568 141.702 81.523C141.702 82.8892 142.84 83.9967 144.245 83.9967Z" fill="#E6E6E6"/>
<path d="M138.683 95.8748C136.736 92.9185 135.301 89.6712 134.436 86.2625C134.195 85.3135 134 84.3553 133.85 83.3879C133.841 83.3379 133.813 83.2932 133.771 83.2632C133.729 83.2331 133.676 83.2201 133.625 83.2268C133.573 83.2336 133.526 83.2596 133.494 83.2993C133.462 83.3391 133.447 83.3895 133.452 83.4399C134.001 86.9619 135.142 90.3721 136.829 93.534C137.301 94.4166 137.813 95.2769 138.366 96.115C138.506 96.3265 138.821 96.0849 138.683 95.8748Z" fill="#E6E6E6"/>
<path d="M133.448 83.8234C134.852 83.8234 135.991 82.7159 135.991 81.3497C135.991 79.9835 134.852 78.876 133.448 78.876C132.044 78.876 130.906 79.9835 130.906 81.3497C130.906 82.7159 132.044 83.8234 133.448 83.8234Z" fill="#E6E6E6"/>
<path d="M118.343 60.2052C118.51 59.9589 118.619 59.6801 118.664 59.3882C118.708 59.0963 118.686 58.7985 118.599 58.5159C118.512 58.2332 118.362 57.9725 118.161 57.7522C117.959 57.5318 117.71 57.3572 117.432 57.2405L117.966 50.0879L114.624 51.9086L114.629 58.4217C114.458 58.8899 114.471 59.4027 114.663 59.8628C114.855 60.323 115.214 60.6986 115.672 60.9184C116.129 61.1383 116.654 61.1871 117.147 61.0557C117.639 60.9242 118.065 60.6216 118.343 60.2052Z" fill="#FFB8B8"/>
<path d="M117.511 32.4006L118.425 55.162L114.712 54.9613L113.887 31.0797L114.67 30.7212C114.968 30.5849 115.296 30.5224 115.625 30.5394C115.954 30.5563 116.273 30.6523 116.554 30.8186C116.836 30.9849 117.07 31.2164 117.237 31.4925C117.404 31.7686 117.498 32.0806 117.511 32.4006Z" fill="#00BFA6"/>
<path d="M106.029 93.8623L103.5 93.8621L102.297 84.3721L106.03 84.3723L106.029 93.8623Z" fill="#FFB8B8"/>
<path d="M101.694 93.1592H106.571V96.1468H98.6235C98.6235 95.7544 98.703 95.3659 98.8573 95.0035C99.0116 94.641 99.2378 94.3116 99.5229 94.0342C99.8081 93.7568 100.147 93.5367 100.519 93.3866C100.892 93.2365 101.291 93.1592 101.694 93.1592Z" fill="#2F2E41"/>
<path d="M127.069 90.9219L124.774 91.9556L119.584 83.8355L122.971 82.3101L127.069 90.9219Z" fill="#FFB8B8"/>
<path d="M122.831 92.0559L127.257 90.0626L128.547 92.7737L121.335 96.0222C120.993 95.3032 120.958 94.4813 121.239 93.7375C121.52 92.9937 122.092 92.3888 122.831 92.0559Z" fill="#2F2E41"/>
<path d="M100.024 62.8911L102.632 91.8478L106.139 91.4464L108.731 64.996L123.053 90.2423L126.766 89.2388C126.766 89.2388 114.815 54.46 113.887 51.5501C112.87 48.3601 104.811 47.135 104.811 47.135L104.502 46.834C101.039 51.369 99.6526 57.2533 100.024 62.8911Z" fill="#2F2E41"/>
<path d="M113.918 28.2092C116.716 28.2092 118.984 26.0024 118.984 23.2801C118.984 20.5579 116.716 18.3511 113.918 18.3511C111.12 18.3511 108.852 20.5579 108.852 23.2801C108.852 26.0024 111.12 28.2092 113.918 28.2092Z" fill="#FFB8B8"/>
<path d="M117.099 32.7909L113.578 50.6459C113.578 50.6459 108.227 49.6063 106.321 48.3541C105.566 47.8564 104.882 47.3426 104.304 46.877C104.191 46.7867 104.083 46.6964 103.978 46.6101C103.025 45.8174 102.439 45.2274 102.439 45.2274C102.439 45.2274 102.745 43.7724 103.118 42.0505C103.535 40.1219 104.04 37.8562 104.298 36.931C104.865 34.9021 106.812 32.538 108.33 30.9285C108.88 30.3448 109.583 29.9177 110.363 29.6928C111.143 29.468 111.971 29.4539 112.759 29.6522L115.506 30.3425C116.042 30.477 116.505 30.805 116.801 31.2599C117.097 31.7148 117.203 32.2623 117.099 32.7909Z" fill="#00BFA6"/>
<path opacity="0.2" d="M108.584 40.5895C108.584 40.5895 106.691 44.4186 103.978 46.61C103.025 45.8173 102.439 45.2273 102.439 45.2273C102.439 45.2273 102.745 43.7724 103.118 42.0505C105.391 40.8825 107.734 40.146 108.584 40.5895Z" fill="black"/>
<path d="M111.942 33.5805C111.755 33.4877 111.56 33.4121 111.359 33.3548C110.947 33.2451 110.514 33.2365 110.099 33.3297C109.683 33.4228 109.298 33.6149 108.977 33.8886L97.8474 41.8203L88.9956 44.7172L90.5949 48.3979L103.791 45.2624L112.543 37.6951C112.844 37.414 113.072 37.0673 113.209 36.6836C113.345 36.2998 113.385 35.89 113.327 35.488C113.268 35.086 113.112 34.7034 112.871 34.3717C112.63 34.04 112.312 33.7688 111.942 33.5805Z" fill="#00BFA6"/>
<path d="M114.218 28.1642C114.939 27.1141 115.508 25.6581 114.714 24.659C113.931 23.6728 112.385 23.8181 111.185 23.3817C109.514 22.7739 108.544 20.8632 108.846 19.1521C109.149 17.441 110.561 16.0225 112.242 15.4421C113.924 14.8618 115.821 15.0505 117.468 15.7189C119.495 16.5416 121.235 18.1332 121.964 20.1493C122.693 22.1653 122.303 24.586 120.79 26.1356C119.168 27.797 116.623 28.2397 114.268 28.2129" fill="#2F2E41"/>
<path d="M122.173 22.3522C122.38 23.4742 123.645 24.1115 124.808 24.2516C125.97 24.3916 127.173 24.212 128.305 24.5062C130.3 25.0249 131.616 26.892 132.341 28.7739C133.065 30.6558 133.387 32.6869 134.328 34.4757C135.269 36.2645 137.094 37.8415 139.152 37.6742C138.749 38.6618 138.042 39.5044 137.129 40.087C136.215 40.6695 135.139 40.9636 134.047 40.9292C132.956 40.8948 131.901 40.5334 131.029 39.8945C130.156 39.2556 129.507 38.3703 129.17 37.3592C128.414 35.0881 129.282 32.3796 127.96 30.3686C127.228 29.2558 125.964 28.6012 124.746 28.018C123.528 27.4348 122.249 26.8361 121.432 25.7808C120.615 24.7256 120.452 23.059 121.459 22.1724" fill="#2F2E41"/>
<path d="M146.844 96.2523H80.7773C80.7122 96.2523 80.6497 96.2271 80.6037 96.1823C80.5576 96.1375 80.5317 96.0767 80.5317 96.0134C80.5317 95.95 80.5576 95.8892 80.6037 95.8444C80.6497 95.7996 80.7122 95.7744 80.7773 95.7744H146.844C146.909 95.7744 146.971 95.7996 147.017 95.8444C147.063 95.8892 147.089 95.95 147.089 96.0134C147.089 96.0767 147.063 96.1375 147.017 96.1823C146.971 96.2271 146.909 96.2523 146.844 96.2523Z" fill="#3F3D56"/>
<path d="M66.812 96.2523H0.745601C0.680464 96.2523 0.617993 96.2271 0.571934 96.1823C0.525875 96.1375 0.5 96.0767 0.5 96.0134C0.5 95.95 0.525875 95.8892 0.571934 95.8444C0.617993 95.7996 0.680464 95.7744 0.745601 95.7744H66.812C66.8771 95.7744 66.9396 95.7996 66.9856 95.8444C67.0317 95.8892 67.0576 95.95 67.0576 96.0134C67.0576 96.0767 67.0317 96.1375 66.9856 96.1823C66.9396 96.2271 66.8771 96.2523 66.812 96.2523Z" fill="#3F3D56"/>
<path d="M42.9499 93.6413L45.3676 92.9194L43.6564 83.5034L40.0884 84.5689L42.9499 93.6413Z" fill="#A0616A"/>
<path d="M50.7188 93.7114L43.1209 95.9801L42.2199 93.1239L46.8823 91.7318C47.6609 91.4994 48.5024 91.5773 49.2219 91.9486C49.9414 92.3198 50.4798 92.9539 50.7188 93.7114Z" fill="#2F2E41"/>
<path d="M21.4985 93.6951H24.0273L25.2303 84.2051L21.498 84.2053L21.4985 93.6951Z" fill="#A0616A"/>
<path d="M28.9048 95.9795L20.9571 95.9798L20.957 92.9923L25.834 92.9921C26.6484 92.992 27.4294 93.3067 28.0053 93.867C28.5812 94.4272 28.9047 95.1871 28.9048 95.9795Z" fill="#2F2E41"/>
<path d="M22.1426 62.1723C21.9348 61.9951 21.7695 61.7757 21.6583 61.5296C21.5471 61.2835 21.4928 61.0167 21.499 60.748C21.5053 60.4792 21.572 60.2151 21.6945 59.9742C21.8171 59.7332 21.9924 59.5214 22.2082 59.3535L24.1688 35.3325L28.1562 36.3018L24.9636 59.7335C25.2295 60.1049 25.346 60.5583 25.2913 61.0077C25.2365 61.4571 25.0142 61.8714 24.6664 62.172C24.3187 62.4726 23.8697 62.6387 23.4046 62.6387C22.9394 62.6388 22.4904 62.4728 22.1426 62.1723Z" fill="#A0616A"/>
<path d="M31.571 26.2165C34.369 26.2165 36.6372 24.0097 36.6372 21.2874C36.6372 18.5652 34.369 16.3584 31.571 16.3584C28.7731 16.3584 26.5049 18.5652 26.5049 21.2874C26.5049 24.0097 28.7731 26.2165 31.571 26.2165Z" fill="#A0616A"/>
<path d="M24.6516 35.8087C23.4477 34.2006 23.4106 31.9858 24.7074 30.4477C25.5538 29.4439 26.9695 28.6406 29.3331 28.6406C35.6331 28.6406 38.0228 33.502 38.0228 33.502C38.0228 33.502 40.6297 38.152 39.109 42.3792C37.5883 46.6065 37.5883 47.0292 37.5883 47.0292L27.5951 46.1837C27.5951 46.1837 29.281 41.9921 24.6516 35.8087Z" fill="#CCCCCC"/>
<path d="M21.5698 40.0168L23.7226 33.1643C23.8668 32.7054 24.1128 32.283 24.4432 31.9268C24.7737 31.5706 25.1805 31.2894 25.6349 31.103C26.0893 30.9166 26.5803 30.8296 27.0731 30.8481C27.5659 30.8667 28.0485 30.9903 28.4868 31.2102C29.2472 31.5934 29.8294 32.2436 30.1153 33.0289C30.4013 33.8143 30.3695 34.6761 30.0266 35.4395L27.2897 41.5038L21.5698 40.0168Z" fill="#CCCCCC"/>
<path d="M37.371 45.9727L45.8435 88.6679L41.2814 89.9361L30.202 61.8249L25.2055 90.5702L20.4261 91.2043C20.4261 91.2043 18.3297 53.1706 27.5951 46.184L37.371 45.9727Z" fill="#2F2E41"/>
<path d="M48.7582 41.5408C48.6848 41.6259 48.6184 41.7164 48.5596 41.8116L38.3421 42.2936L36.3747 36.4497L32.9585 38.0294L36.1738 46.7334L48.8101 44.329C49.1071 44.6444 49.4957 44.8644 49.9242 44.9597C50.3528 45.055 50.801 45.0211 51.2093 44.8625C51.6176 44.7039 51.9666 44.4282 52.2099 44.0719C52.4531 43.7157 52.5792 43.2958 52.5712 42.8681C52.5632 42.4405 52.4216 42.0253 52.1652 41.6779C51.9089 41.3304 51.5498 41.0672 51.1359 40.9231C50.722 40.779 50.2728 40.7609 49.848 40.8713C49.4233 40.9816 49.0432 41.2151 48.7582 41.5408Z" fill="#A0616A"/>
<path d="M31.4191 34.1158C31.3614 33.6392 31.4121 33.1562 31.5674 32.7008C31.7228 32.2454 31.979 31.8288 32.3181 31.4803C32.6572 31.1319 33.0707 30.8602 33.5296 30.6844C33.9885 30.5086 34.4814 30.433 34.9737 30.4629C35.8283 30.5163 36.63 30.8839 37.2164 31.4911C37.8027 32.0984 38.1298 32.8999 38.1312 33.7331V40.3561L32.2796 41.2321L31.4191 34.1158Z" fill="#CCCCCC"/>
<path d="M32.6853 26.2611C31.9249 26.2578 31.3383 25.4789 31.3724 24.7399C31.4065 24.0008 31.9167 23.3506 32.5314 22.915C33.146 22.4795 33.8669 22.2143 34.5524 21.8941C35.2378 21.5739 35.9173 21.1745 36.3406 20.5599C36.5962 20.1576 36.7489 19.7015 36.7856 19.2298C36.8223 18.7582 36.7421 18.2849 36.5516 17.8497C36.1578 16.9794 35.4815 16.2586 34.6265 15.7979C33.3542 15.0803 31.8529 14.8494 30.4152 15.1501C28.9943 15.4534 26.8768 16.293 26.0443 17.4536L25.1763 19.7531C24.2919 20.7878 24.9766 22.3245 25.5203 23.562C26.064 24.7995 27.2216 25.7306 28.5279 26.1732C29.8533 26.5876 31.272 26.629 32.6205 26.2926" fill="#2F2E41"/>
<path d="M28.0554 18.6027C27.6823 18.0209 27.0355 17.6508 26.3669 17.4337C25.5924 17.1821 24.7685 17.1078 23.9596 17.2167C23.1507 17.3255 22.3786 17.6146 21.7033 18.0613C21.028 18.508 20.4677 19.1003 20.0662 19.7922C19.6647 20.484 19.4328 21.2567 19.3884 22.05C19.3175 23.3172 19.7254 24.5564 19.965 25.8039C20.2046 27.0513 20.2523 28.4291 19.5454 29.4957C19.0069 30.308 18.1089 30.8195 17.2226 31.2562C16.4839 31.6202 15.6849 31.9618 14.8602 31.8892C14.0355 31.8167 13.2067 31.1812 13.2285 30.3758C12.9525 30.9533 12.7661 31.5674 12.6754 32.1981C12.6174 32.8315 12.7778 33.5149 13.248 33.9565C13.9314 34.5984 15.0142 34.5515 15.9534 34.413C17.9865 34.1131 20.0453 33.5509 21.6516 32.3017C23.2579 31.0524 24.3237 28.9954 23.9007 27.0375C23.724 26.2196 23.3088 25.4729 22.9732 24.7035C22.6376 23.9342 22.3757 23.0926 22.5298 22.2704C22.6211 21.8468 22.8067 21.4479 23.0738 21.1018C23.3408 20.7556 23.6827 20.4708 24.0753 20.2672C24.8692 19.8656 25.7777 19.7316 26.6583 19.8861C27.2357 19.9783 27.9566 20.1214 28.299 19.6599C28.3897 19.5137 28.4361 19.3454 28.4327 19.1746C28.4293 19.0039 28.3762 18.8375 28.2797 18.6949C28.0821 18.4126 27.8305 18.1701 27.5386 17.9805" fill="#2F2E41"/>
<g clip-path="url(#clip1_3798_6835)">
<path d="M78.3118 22.2715V18.5382C78.3118 16.7542 77.0261 15.1462 74.6918 14.0107C72.6329 13.0091 69.9233 12.4575 67.0621 12.4575C64.2008 12.4575 61.491 13.0091 59.4322 14.0107C57.098 15.1462 55.8125 16.7542 55.8125 18.5382V23.4026V28.2671V33.1315C55.8125 34.9157 57.098 36.5236 59.4322 37.6592C61.491 38.6608 64.2008 39.2123 67.0621 39.2123C69.2419 39.2123 71.32 38.8959 73.1152 38.2959C74.3015 38.8816 75.6426 39.2123 77.0617 39.2123C81.8868 39.2123 85.8125 35.3928 85.8125 30.6983C85.8124 26.4166 82.5469 22.8636 78.3118 22.2715Z" fill="#EE8700"/>
<path d="M77.0905 24.6177C77.0807 24.6179 77.0713 24.6192 77.0615 24.6192C77.0517 24.6192 77.0423 24.618 77.0324 24.6177C73.5993 24.633 70.811 27.3546 70.811 30.6985C70.811 34.0518 73.6149 36.7799 77.0615 36.7799C80.508 36.7799 83.312 34.0518 83.312 30.6985C83.312 27.3546 80.5237 24.633 77.0905 24.6177ZM77.7069 29.559C78.0165 29.559 78.2781 29.8177 78.2781 30.124C78.2781 30.4305 78.0219 30.6797 77.7069 30.6797H76.4931V30.8863H77.7069C78.0165 30.8863 78.2781 31.1449 78.2781 31.4511C78.2781 31.7575 78.0219 32.0069 77.7069 32.0069H76.4931V32.1191C76.4931 32.7879 76.8123 33.113 77.4689 33.113C77.7568 33.113 78.4263 33.0379 78.4263 32.3418C78.4263 32.3354 78.4265 32.3291 78.4269 32.3228C78.4417 32.0792 78.6169 31.7947 79.0618 31.7947C79.4597 31.7947 79.6973 32.0259 79.6973 32.413C79.6973 33.527 78.7734 34.305 77.4506 34.305C76.0553 34.305 75.2223 33.4878 75.2223 32.1191V32.0069H74.988C74.6675 32.0069 74.4259 31.7681 74.4259 31.4511C74.4259 31.1344 74.6728 30.8863 74.988 30.8863H75.2223V30.6797H74.988C74.6675 30.6797 74.4259 30.4408 74.4259 30.124C74.4259 29.8072 74.6728 29.559 74.988 29.559H75.2223V29.3134C75.2223 27.9014 76.0345 27.0916 77.4506 27.0916C78.7734 27.0916 79.6973 27.8587 79.6973 28.9569C79.6973 29.3441 79.4597 29.5753 79.0618 29.5753C78.6228 29.5753 78.4264 29.305 78.4264 29.037C78.4264 28.3572 77.7503 28.2837 77.4597 28.2837C76.7913 28.2837 76.493 28.6012 76.493 29.3133V29.5589H77.7069V29.559H77.7069Z" fill="#FFD700"/>
<path d="M67.0619 34.348C64.2006 34.348 61.4908 33.7965 59.432 32.7949C59.0266 32.5976 58.6535 32.3858 58.3125 32.1616V33.1318C58.3125 34.8539 62.0542 36.7801 67.0618 36.7801C68.285 36.7801 69.4913 36.6618 70.6054 36.4398C69.9978 35.7936 69.4913 35.0562 69.11 34.2514C68.4374 34.3152 67.7522 34.348 67.0619 34.348Z" fill="#FFD700"/>
<path d="M67.0619 24.6191C64.2006 24.6191 61.4909 24.0675 59.432 23.066C59.0266 22.8686 58.6535 22.6569 58.3125 22.4326V23.4028C58.3125 25.1249 62.0542 27.0509 67.0618 27.0509C67.7923 27.0509 68.5142 27.0101 69.2162 26.9297C69.7624 25.8578 70.5336 24.913 71.4698 24.1544C70.096 24.4581 68.6015 24.6191 67.0619 24.6191Z" fill="#FFD700"/>
<path d="M67.0623 22.1864C72.07 22.1864 75.8116 20.2603 75.8116 18.5382C75.8116 16.8162 72.07 14.8901 67.0623 14.8901C62.0547 14.8901 58.313 16.8162 58.313 18.5382C58.313 20.2603 62.0548 22.1864 67.0623 22.1864Z" fill="#FFD700"/>
<path d="M67.0621 31.915C67.5098 31.915 67.9547 31.8996 68.394 31.8692C68.3396 31.4862 68.3108 31.0954 68.3108 30.6981C68.3108 30.2711 68.3437 29.8516 68.4062 29.4414C67.9619 29.4687 67.5132 29.4832 67.0619 29.4832C64.2006 29.4832 61.4909 28.9316 59.432 27.9301C59.0266 27.7329 58.6535 27.5211 58.3125 27.2969V28.2671C58.3127 29.989 62.0545 31.915 67.0621 31.915Z" fill="#FFD700"/>
<path d="M77.4596 28.2833C77.7502 28.2833 78.4263 28.3568 78.4263 29.0367C78.4263 29.3047 78.6228 29.575 79.0618 29.575C79.4596 29.575 79.6973 29.3438 79.6973 28.9566C79.6973 27.8584 78.7734 27.0913 77.4506 27.0913C76.0344 27.0913 75.2222 27.9011 75.2222 29.3131V29.5587H74.9879C74.6728 29.5587 74.4258 29.8067 74.4258 30.1236C74.4258 30.4404 74.6674 30.6794 74.9879 30.6794H75.2222V30.8859H74.9879C74.6728 30.8859 74.4258 31.134 74.4258 31.4508C74.4258 31.7677 74.6674 32.0066 74.9879 32.0066H75.2222V32.1187C75.2222 33.4875 76.0553 34.3047 77.4506 34.3047C78.7734 34.3047 79.6973 33.5267 79.6973 32.4127C79.6973 32.0256 79.4597 31.7944 79.0618 31.7944C78.6168 31.7944 78.4417 32.0789 78.4268 32.3224C78.4264 32.3287 78.4263 32.3351 78.4263 32.3415C78.4263 33.0376 77.7567 33.1127 77.4688 33.1127C76.8122 33.1127 76.493 32.7876 76.493 32.1187V32.0066H77.7068C78.0218 32.0066 78.2781 31.7572 78.2781 31.4508C78.2781 31.1446 78.0164 30.8859 77.7068 30.8859H76.493V30.6794H77.7068C78.0218 30.6794 78.2781 30.4301 78.2781 30.1236C78.2781 29.8174 78.0164 29.5587 77.7068 29.5587H76.493V29.3131C76.4931 28.6009 76.7911 28.2833 77.4596 28.2833Z" fill="#EE8700"/>
</g>
</g>
<defs>
<clipPath id="clip0_3798_6835">
<rect width="150" height="96" fill="white" transform="translate(0.5 0.29541)"/>
</clipPath>
<clipPath id="clip1_3798_6835">
<rect width="30" height="29.1881" fill="white" transform="translate(55.8125 11.2407)"/>
</clipPath>
</defs>
</svg>
