<svg width="151" height="97" viewBox="0 0 151 97" fill="none" xmlns="http://www.w3.org/2000/svg">
<g id="Group 632554">
<path id="Vector" d="M150.287 57.8556C150.293 64.0391 148.466 70.0868 145.036 75.2405C141.606 80.3941 136.725 84.4244 131.006 86.8262C125.286 89.2279 118.982 89.8941 112.883 88.7413C106.785 87.5886 101.164 84.6681 96.7251 80.3461C92.286 76.024 89.2264 70.4928 87.9299 64.4456C86.6333 58.3985 87.1574 52.1046 89.4366 46.353C91.7158 40.6014 95.6485 35.648 100.742 32.1138C105.835 28.5796 111.862 26.6219 118.068 26.486C118.166 26.4839 118.264 26.4818 118.364 26.4797C118.504 26.4775 118.647 26.4775 118.789 26.4775C119.147 26.4775 119.505 26.4839 119.86 26.4966C120.643 26.5221 121.418 26.5758 122.184 26.6578C122.627 26.7044 123.063 26.7616 123.499 26.8252C123.548 26.8337 123.599 26.8401 123.648 26.8486C125.449 27.1251 127.221 27.5585 128.945 28.144C135.17 30.2587 140.574 34.2605 144.401 39.5886C148.229 44.9166 150.287 51.3039 150.287 57.8556Z" fill="white"/>
<path id="Vector_2" d="M118.76 89.5053C101.272 89.5061 87.038 75.3415 87.0215 57.9164C87.0137 49.6457 90.2592 41.7012 96.062 35.7864C101.865 29.8715 109.763 26.4571 118.063 26.2754L118.359 26.269C118.86 26.2618 119.371 26.2683 119.868 26.2861C120.652 26.3116 121.439 26.3662 122.207 26.4484C122.613 26.4911 123.046 26.5463 123.53 26.6169L123.685 26.641C131.16 27.7973 137.972 31.5803 142.891 37.3058C147.809 43.0313 150.508 50.3212 150.5 57.857V57.8568C150.516 75.2914 136.292 89.4889 118.791 89.5053L118.76 89.5053ZM118.786 26.6909C118.646 26.6909 118.505 26.6909 118.367 26.693L118.073 26.6994C101.17 27.0694 87.4312 41.0732 87.4471 57.916C87.4634 75.1063 101.508 89.0805 118.76 89.0813H118.79C136.056 89.065 150.09 75.0579 150.074 57.8572V57.857C150.082 50.4218 147.419 43.2291 142.566 37.5803C137.713 31.9314 130.991 28.1994 123.616 27.0595L123.463 27.0356C122.99 26.9666 122.563 26.9122 122.162 26.87C121.404 26.7889 120.627 26.735 119.853 26.7099C119.502 26.6972 119.144 26.6909 118.789 26.6909H118.786Z" fill="#CBCBCB"/>
<path id="Vector_3" d="M94.6862 59.549C94.7486 59.4508 94.5864 59.2368 94.3237 59.0712C94.0611 58.9055 93.7976 58.8508 93.7351 58.9491C93.6727 59.0473 93.835 59.2613 94.0976 59.4269C94.3602 59.5926 94.6237 59.6473 94.6862 59.549Z" fill="#3F3D56"/>
<path id="Vector_4" d="M93.7666 57.7249C93.8357 57.6162 93.9257 57.522 94.0314 57.4479C94.137 57.3737 94.2563 57.3211 94.3824 57.2929C94.5085 57.2647 94.639 57.2615 94.7663 57.2835C94.8936 57.3055 95.0154 57.3523 95.1246 57.4211L107.596 65.2888C107.705 65.3577 107.8 65.4473 107.874 65.5526C107.949 65.6578 108.002 65.7767 108.03 65.9023C108.058 66.0279 108.061 66.1579 108.039 66.2847C108.017 66.4116 107.97 66.5328 107.901 66.6416L93.7666 57.7249Z" fill="#00BFA6"/>
<path id="Vector_5" d="M92.5889 58.1426L92.9812 57.5254C93.0767 57.3753 93.228 57.2691 93.4021 57.2301C93.5761 57.1912 93.7585 57.2228 93.9092 57.3178L108.109 66.2758C108.197 66.3315 108.274 66.4041 108.334 66.4893C108.394 66.5745 108.437 66.6706 108.46 66.7723C108.483 66.874 108.486 66.9791 108.468 67.0818C108.45 67.1845 108.412 67.2826 108.356 67.3707L108.03 67.8836L92.5889 58.1426Z" fill="#2F2E41"/>
<path id="Vector_6" d="M94.6996 58.4806L94.5488 58.7178L95.4999 59.3177L95.6506 59.0806L94.6996 58.4806Z" fill="#D0CDE1"/>
<path id="Vector_7" d="M96.0082 59.3038L95.8574 59.541L96.8085 60.141L96.9592 59.9038L96.0082 59.3038Z" fill="#D0CDE1"/>
<path id="Vector_8" d="M118.873 29.7084C123.769 29.7084 127.738 25.7547 127.738 20.8776C127.738 16.0005 123.769 12.0469 118.873 12.0469C113.978 12.0469 110.009 16.0005 110.009 20.8776C110.009 25.7547 113.978 29.7084 118.873 29.7084Z" fill="#FFB8B8"/>
<path id="Vector_9" d="M127.313 88.0715C120.121 90.0724 112.451 89.4753 105.659 86.386L106.34 68.2588L106.391 66.8489L106.41 66.391L106.433 65.7168L106.45 65.2864C106.45 65.2864 106.478 65.2843 106.531 65.2822C106.676 65.2716 107.01 65.2482 107.489 65.2207C108.044 65.1889 108.791 65.1486 109.662 65.1125C109.868 65.1041 110.081 65.0956 110.3 65.085C114.884 64.9154 122.044 64.8793 122.991 66.2553L123.11 67.0652L123.302 68.3733L123.693 71.0468C123.693 71.0468 128.145 79.8666 127.313 88.0715Z" fill="#2F2E41"/>
<path id="Vector_10" d="M129.562 42.3527L127.816 58.4191L124.491 65.7465L123.259 68.4636L105.422 68.2482L107.26 55.8636C104.665 49.1866 110.827 46.4943 110.827 46.4943L117.219 33.4481C117.219 33.4481 118.921 32.6001 123.367 32.3866C127.5 32.1882 124.242 32.8121 124.242 32.8121C129.647 32.2736 129.562 42.3527 129.562 42.3527Z" fill="#CCCCCC"/>
<path id="Vector_11" opacity="0.2" d="M124.2 59.2667L120.875 66.594C119.807 64.6039 118.994 62.3499 118.994 61.0188C118.994 57.3573 122.67 59.2957 122.67 59.2957C122.67 59.2957 119.697 43.088 119.697 38.2419C119.697 35.0229 122.391 49.3083 124.2 59.2667Z" fill="black"/>
<path id="Vector_12" d="M129.089 15.4969C128.512 14.095 127.62 12.8436 126.481 11.8393C126.948 11.6833 127.338 11.3561 127.572 10.9241C127.913 10.2513 127.732 9.40754 127.268 8.80536C126.845 8.29658 126.298 7.90451 125.68 7.6667C126.133 7.87203 126.629 7.96703 127.126 7.94387C127.729 7.8814 128.332 7.41003 128.296 6.82519C128.262 6.26803 127.712 5.89129 127.218 5.60053C126.898 5.41192 126.577 5.22331 126.257 5.03471C126.352 4.85148 126.436 4.66254 126.507 4.46899C126.784 3.76537 126.85 2.99721 126.699 2.25677C126.548 1.51633 126.186 0.835104 125.655 0.294922C126.704 1.35873 126.436 3.00512 125.4 4.34121C125.366 4.38426 125.331 4.42625 125.296 4.46875C125.091 4.34783 124.885 4.22692 124.68 4.10602C124.168 3.80445 123.635 3.49584 123.04 3.42472C122.446 3.3536 121.768 3.58819 121.525 4.11681C121.265 4.68265 121.561 5.40474 121.222 5.93012C120.926 6.38984 120.279 6.48772 119.718 6.46595C119.157 6.44417 118.561 6.35592 118.062 6.60304C117.368 6.94658 117.14 7.87566 117.449 8.56853C117.586 8.86364 117.79 9.12275 118.046 9.32523C116.561 9.53174 115.099 9.97093 113.662 10.4176C111.968 10.9443 110.242 11.5038 108.825 12.5699C107.409 13.636 106.336 15.3189 106.471 17.082C106.606 18.8452 108.365 21.6221 110.117 21.3403L110.384 20.5083C111.443 20.0065 112.634 19.8468 113.789 20.0514C114.944 20.256 116.006 20.8147 116.828 21.6496C116.848 20.5395 118.544 20.1707 119.389 20.8944C120.234 21.6182 120.397 22.8418 120.463 23.9502C120.528 25.0586 120.59 26.2654 121.323 27.1018C122.027 27.9046 123.225 28.1535 124.267 27.9143C125.31 27.6752 126.211 27.0164 126.957 26.2532C129.665 23.4842 130.537 19.0835 129.089 15.4969Z" fill="#2F2E41"/>
<path id="Vector_13" d="M100.817 67.1868C101.275 67.5158 101.801 67.7406 102.357 67.8453C102.912 67.95 103.484 67.9321 104.032 67.7929C104.58 67.6536 105.09 67.3964 105.527 67.0393C105.965 66.6823 106.318 66.234 106.563 65.7262L130.71 66.2019L132.308 60.9301L104.514 60.4327C103.63 60.08 102.647 60.0624 101.752 60.3833C100.856 60.7042 100.11 61.3413 99.6538 62.1738C99.1981 63.0063 99.0647 63.9765 99.279 64.9004C99.4933 65.8243 100.04 66.6378 100.817 67.1868Z" fill="#FFB8B8"/>
<path id="Vector_14" d="M124.292 31.941C124.292 31.941 118.671 32.3718 118.671 37.218C118.671 42.0641 123.752 59.2949 123.752 59.2949C123.752 59.2949 120.076 57.3564 120.076 61.018C120.076 64.6795 126.238 75.3411 126.887 68.2334C126.887 68.2334 136.183 72.7564 135.643 64.2487C135.103 55.741 129.265 37.7564 129.265 37.7564C129.265 37.7564 128.616 31.618 124.292 31.941Z" fill="#CCCCCC"/>
<path id="Vector_15" d="M63.7346 60.0025C63.7358 66.3052 61.8316 72.4621 58.2702 77.6712C54.7088 82.8804 49.6552 86.9004 43.7677 89.2075C43.3059 89.3919 42.8356 89.5636 42.3631 89.7226C41.8353 89.9029 41.3018 90.0682 40.7627 90.2188C40.3881 90.3227 40.01 90.4202 39.6283 90.5113C33.883 91.8829 27.8673 91.6273 22.26 89.7735C21.8195 89.6272 21.3832 89.4703 20.9512 89.3071C20.3702 89.0845 19.7955 88.8449 19.2316 88.5884C19.189 88.5714 19.1486 88.5523 19.1081 88.5333C18.8868 88.4315 18.6719 88.3297 18.4526 88.2216H18.4505C18.1504 88.0774 17.8532 87.9276 17.5588 87.7721C16.882 87.4159 16.2202 87.0364 15.5732 86.6336C15.2369 86.4258 14.9056 86.2103 14.5793 85.987C9.44321 82.5324 5.44468 77.6447 3.08472 71.9363C0.724764 66.2278 0.108341 59.9525 1.31268 53.8966C2.51703 47.8406 5.48858 42.2734 9.85501 37.8925C14.2214 33.5116 19.7886 30.5118 25.8588 29.269C26.4143 29.1545 26.9754 29.0556 27.5422 28.9722C27.8977 28.9171 28.2573 28.8704 28.617 28.8302C28.8745 28.8005 29.132 28.7729 29.3938 28.7517H29.3959C30.0961 28.6881 30.8027 28.6485 31.5156 28.633C31.6135 28.6309 31.7114 28.6288 31.8114 28.6266C31.8668 28.6266 31.9221 28.6245 31.9774 28.6266H31.9796C32.0647 28.6245 32.1498 28.6245 32.2371 28.6245C32.5946 28.6245 32.9522 28.6309 33.3076 28.6436C34.0907 28.669 34.8654 28.7227 35.6316 28.8047C36.0742 28.8514 36.5105 28.9086 36.9468 28.9722C36.9958 28.9807 37.0468 28.9871 37.0958 28.9955C37.2405 29.0189 37.3873 29.0422 37.5321 29.0676C37.8385 29.1164 38.1429 29.1736 38.4472 29.2351C38.7324 29.2924 39.0154 29.3517 39.2985 29.4153C40.3446 29.6531 41.3775 29.9453 42.3929 30.2909C49.2745 32.6346 55.1334 37.2724 58.9802 43.421C59.0887 43.5927 59.1951 43.7665 59.2994 43.9425C59.3803 44.074 59.4569 44.2054 59.5335 44.339C59.5612 44.3835 59.5867 44.428 59.6101 44.4725C59.6271 44.498 59.6399 44.5234 59.6548 44.5489C59.7953 44.7927 59.9315 45.0407 60.0634 45.2888C62.4814 49.8186 63.7423 54.8721 63.7346 60.0025Z" fill="white"/>
<path id="Vector_16" d="M32.2408 91.5936C28.8262 91.5935 25.4339 91.047 22.1934 89.9749C21.7755 89.8361 21.3448 89.6825 20.8761 89.5054C20.2848 89.2789 19.7022 89.0354 19.1435 88.7813C19.1063 88.7667 19.0622 88.7461 19.018 88.7253C18.8062 88.6278 18.5991 88.5299 18.3884 88.4263L18.3585 88.4126C18.0596 88.2691 17.7572 88.1166 17.4596 87.9596C16.7817 87.6028 16.1091 87.2171 15.4607 86.8135C15.1234 86.605 14.7862 86.3855 14.4591 86.1617C9.28865 82.6836 5.26344 77.7628 2.88784 72.0158C0.512237 66.2688 -0.108113 59.9512 1.10451 53.8545C2.31714 47.7578 5.30881 42.1532 9.7047 37.7429C14.1006 33.3325 19.7052 30.3126 25.8164 29.0614C26.3736 28.9466 26.944 28.846 27.5115 28.7625C27.8477 28.7104 28.2123 28.6622 28.5936 28.6195C28.8528 28.5896 29.1127 28.5619 29.3769 28.5404C30.0782 28.477 30.7963 28.4367 31.5113 28.421L31.8645 28.4143C31.9049 28.4136 31.9454 28.4133 31.9858 28.4148C32.0616 28.4126 32.1484 28.4126 32.2374 28.4126C32.5975 28.4126 32.9603 28.419 33.3156 28.4317C34.1005 28.4573 34.8878 28.5119 35.6547 28.594C36.0608 28.6367 36.4937 28.6919 36.978 28.7625L37.1826 28.7948C37.3113 28.8154 37.4412 28.8363 37.5694 28.8589C37.8454 28.9028 38.139 28.9565 38.4899 29.0274C38.7764 29.085 39.061 29.1446 39.3457 29.2086C40.3992 29.4482 41.4394 29.7426 42.462 30.0904C49.3865 32.4564 55.2829 37.1238 59.1611 43.309C59.2702 43.4814 59.3775 43.6567 59.483 43.8348C59.5632 43.965 59.6409 44.0983 59.7186 44.2338C59.7436 44.2737 59.7698 44.3192 59.7942 44.3651C59.8061 44.3837 59.8166 44.4023 59.827 44.4209L59.8391 44.4422C59.9728 44.6744 60.1076 44.9184 60.2519 45.1895C62.3455 49.1207 63.5821 53.448 63.8806 57.8883C64.1791 62.3285 63.5328 66.7815 61.984 70.9556C60.4352 75.1297 58.0188 78.9309 54.8931 82.1102C51.7674 85.2896 48.0029 87.7753 43.846 89.4048C43.3953 89.5848 42.9189 89.7596 42.4316 89.9235C41.9038 90.1038 41.3615 90.2719 40.8205 90.4229C40.4459 90.5269 40.0617 90.626 39.6784 90.7177C37.2423 91.2994 34.7459 91.5934 32.2408 91.5936ZM18.4996 88.0096H18.5007L18.5475 88.0317C18.7649 88.1389 18.9781 88.2398 19.1977 88.3408C19.2364 88.359 19.2727 88.3763 19.3111 88.3916C19.8711 88.646 20.4456 88.8862 21.0279 89.1092C21.4903 89.284 21.9158 89.4356 22.3277 89.5725C27.897 91.4152 33.8726 91.669 39.5791 90.3052C39.9575 90.2148 40.3366 90.117 40.7059 90.0145C41.2388 89.8658 41.7734 89.7 42.2945 89.5222C42.7753 89.3603 43.2441 89.1883 43.6889 89.0107C49.5511 86.7399 54.5845 82.7522 58.1253 77.5735C61.6661 72.3947 63.5477 66.2684 63.5221 60.0025V60.0022C63.5253 54.9071 62.2733 49.8891 59.8759 45.3884C59.7338 45.1212 59.6013 44.8813 59.4706 44.6545L59.4549 44.6267C59.4481 44.6147 59.4416 44.6025 59.4335 44.5905L59.422 44.571C59.4009 44.5309 59.3778 44.4908 59.3529 44.4506C59.2736 44.3126 59.1981 44.183 59.1184 44.0535C59.0133 43.8762 58.9079 43.704 58.8005 43.5341C54.9741 37.4314 49.1565 32.8261 42.3244 30.4916C41.316 30.1486 40.2903 29.8584 39.2515 29.6222C38.9705 29.5589 38.6891 29.4999 38.4055 29.4431C38.0603 29.3733 37.7723 29.3206 37.4989 29.277C37.3692 29.2542 37.2414 29.2337 37.1148 29.2133L36.9107 29.1811C36.4378 29.1123 36.0103 29.0579 35.6095 29.0156C34.8528 28.9346 34.0762 28.8807 33.301 28.8556C32.95 28.8429 32.5924 28.8366 32.2374 28.8366C32.1509 28.8369 32.0685 28.8366 31.9851 28.8386C31.9365 28.8373 31.9031 28.8378 31.8698 28.8382L31.5205 28.845C30.8154 28.8604 30.1072 28.9001 29.4156 28.9629L29.3942 28.9638C29.1521 28.984 28.897 29.0114 28.6418 29.0408C28.2658 29.0829 27.9072 29.1303 27.5753 29.1818C27.0142 29.2644 26.4518 29.3634 25.9023 29.4767C19.873 30.711 14.3435 33.6905 10.0065 38.0418C5.66956 42.3931 2.71806 47.9227 1.52183 53.9377C0.325601 59.9527 0.937843 66.1856 3.28185 71.8555C5.62585 77.5254 9.59737 82.3801 14.6988 85.8113C15.0218 86.0324 15.3534 86.2482 15.6857 86.4536C16.326 86.8521 16.9896 87.2327 17.6586 87.5847C17.9372 87.7319 18.2198 87.8746 18.4996 88.0096Z" fill="#CBCBCB"/>
<path id="Vector_17" d="M59.1907 53.1887C58.8468 53.6358 58.4088 54.0023 57.9073 54.2625C57.4059 54.5226 56.8533 54.6701 56.2884 54.6945C55.7236 54.7189 55.1603 54.6197 54.6381 54.4037C54.1159 54.1878 53.6476 53.8604 53.2662 53.4447L44.9562 56.4405L41.897 51.8537L53.692 47.7872C54.4356 47.1951 55.3713 46.8954 56.3219 46.9447C57.2725 46.994 58.1719 47.389 58.8497 48.0548C59.5274 48.7206 59.9365 49.611 59.9994 50.5572C60.0622 51.5034 59.7745 52.4397 59.1907 53.1887Z" fill="#9F616A"/>
<path id="Vector_18" d="M33.2256 53.6164L50.3458 47.979L53.2308 54.2525L37.2692 59.1288L33.2256 53.6164Z" fill="#CCCCCC"/>
<path id="Vector_19" d="M39.6291 90.5123C33.8838 91.8839 27.868 91.6283 22.2607 89.7745L22.6438 86.1661L22.9992 82.795L28.3304 74.5837L30.0393 71.9526L37.0816 74.5032L37.7988 79.0085L38.9417 86.1936L39.6291 90.5123Z" fill="#2F2E41"/>
<path id="Vector_20" d="M43.7688 89.207C43.3069 89.3915 42.8366 89.5632 42.3641 89.7222C41.8363 89.9024 41.3029 90.0678 40.7637 90.2183C40.3892 90.3222 40.011 90.4198 39.6294 90.5109C33.8841 91.8825 27.8683 91.6269 22.2611 89.7731C21.8205 89.6268 21.3842 89.4699 20.9522 89.3067C21.0112 90.5622 20.9728 91.8203 20.8373 93.0699C20.2225 91.6055 19.6869 90.1094 19.2326 88.588C19.2007 88.4862 19.1709 88.3844 19.1411 88.2827C18.9921 87.7696 18.8602 87.2798 18.741 86.8198C18.6048 86.2876 18.4878 85.7936 18.3899 85.342C18.0004 83.5696 17.877 82.4735 17.877 82.4735L22.0376 73.8657L22.8697 73.9611L23.2145 73.9993L25.3001 74.2367L28.3307 74.5823L33.2405 75.1399L37.7991 79.007L41.8832 82.4735C41.8832 82.4735 42.2237 83.6268 42.7579 85.5371C43.0473 86.5632 43.3899 87.8077 43.7688 89.207Z" fill="#2F2E41"/>
<path id="Vector_21" d="M30.5784 31.9486C34.6441 31.9486 37.94 28.6652 37.94 24.6149C37.94 20.5647 34.6441 17.2812 30.5784 17.2812C26.5127 17.2812 23.2168 20.5647 23.2168 24.6149C23.2168 28.6652 26.5127 31.9486 30.5784 31.9486Z" fill="#9F616A"/>
<path id="Vector_22" d="M35.7035 40.0655C35.7035 40.0655 33.9342 34.6172 29.7733 34.6172C28.7331 34.6172 27.0544 34.7031 25.6897 35.5902C20.1956 39.1618 16.8532 45.2327 16.5971 51.7632L15.3179 84.3882C15.3179 84.3882 22.3594 86.939 24.92 85.9824C27.4805 85.0259 30.0411 78.6487 30.0411 78.6487C30.0411 78.6487 29.401 87.2579 31.9615 86.939C34.5221 86.6202 44.1242 85.9824 44.4442 84.707C44.7643 83.4316 39.5443 56.0083 39.5443 56.0083L35.7035 40.0655Z" fill="#CCCCCC"/>
<path id="Vector_23" d="M26.9999 26.7665C27.6603 26.7273 28.3051 26.9496 28.961 27.0364C31.3074 27.3467 33.7483 25.6505 34.2664 23.3497C34.3079 23.0433 34.3996 22.7457 34.5378 22.4689C34.8989 21.8815 35.7213 21.7695 36.3993 21.9046C37.0773 22.0397 37.7199 22.3558 38.4104 22.3919C39.4764 22.4476 40.4999 21.7938 41.0681 20.8934C41.6362 19.993 41.7971 18.8851 41.7204 17.8244L41.2093 18.3588C41.0016 17.9211 40.9215 17.4341 40.9779 16.9533C40.7071 16.8815 40.4223 16.8801 40.1508 16.9493C39.8792 17.0185 39.6301 17.156 39.4272 17.3486C38.9766 17.3964 39.3167 16.5159 38.9819 16.2116C38.8191 16.112 38.625 16.0758 38.437 16.1101C37.4783 16.1193 36.7028 15.3888 35.9474 14.8008C34.6384 13.7841 33.1077 13.0886 31.4791 12.7703C30.3965 12.56 29.2454 12.5262 28.2188 12.9278C27.3756 13.2576 26.6699 13.8582 26.017 14.4837C24.4097 16.0233 22.9864 17.8324 22.3178 19.9515C21.7742 21.6872 21.7588 23.5445 22.2735 25.2889C22.5429 26.1949 23.355 29.2974 24.5437 29.3697C26.0374 29.4605 25.1406 26.8771 26.9999 26.7665Z" fill="#2F2E41"/>
<path id="Vector_24" opacity="0.1" d="M30.1049 49.7217L22.5666 60.736L20.1558 86.3197L30.1049 49.7217Z" fill="black"/>
<path id="Vector_25" d="M62.0537 42.9872C62.2341 42.7353 62.3035 42.4765 62.2087 42.4091C62.1139 42.3418 61.8908 42.4913 61.7104 42.7432C61.53 42.995 61.4606 43.2538 61.5555 43.3212C61.6503 43.3886 61.8734 43.2391 62.0537 42.9872Z" fill="#3F3D56"/>
<path id="Vector_26" d="M52.0048 54.8551C51.7924 54.7041 51.6488 54.4752 51.6058 54.2187C51.5627 53.9623 51.6237 53.6993 51.7753 53.4876L60.3491 41.5164C60.5007 41.3048 60.7305 41.1618 60.9879 41.1189C61.2453 41.076 61.5093 41.1368 61.7218 41.2878L52.0048 54.8551Z" fill="#00BFA6"/>
<path id="Vector_27" d="M52.3544 56.0501L51.8583 55.6975C51.7731 55.637 51.7008 55.5603 51.6454 55.472C51.59 55.3836 51.5526 55.2852 51.5353 55.1824C51.5181 55.0797 51.5213 54.9745 51.5448 54.873C51.5684 54.7715 51.6118 54.6756 51.6725 54.5907L61.4345 40.9605C61.5381 40.8159 61.6951 40.7182 61.871 40.6889C62.0469 40.6596 62.2273 40.7011 62.3725 40.8043L62.9695 41.2286L52.3544 56.0501Z" fill="#2F2E41"/>
<path id="Vector_28" d="M61.1391 42.3379L60.4858 43.25L60.7147 43.4127L61.368 42.5006L61.1391 42.3379Z" fill="#D0CDE1"/>
<path id="Vector_29" d="M60.2411 43.5918L59.5879 44.5039L59.8168 44.6666L60.47 43.7545L60.2411 43.5918Z" fill="#D0CDE1"/>
<path id="Vector_30" d="M21.8698 94.6639C22.2001 94.2068 22.4257 93.6831 22.5308 93.1296C22.6359 92.5762 22.618 92.0066 22.4782 91.4608C22.3384 90.9151 22.0802 90.4065 21.7218 89.971C21.3634 89.5354 20.9134 89.1834 20.4037 88.9398L20.8812 80.1487L15.5893 78.5566L15.09 90.9808C14.736 91.861 14.7183 92.84 15.0404 93.7323C15.3626 94.6247 16.002 95.3683 16.8377 95.8223C17.6734 96.2763 18.6473 96.4091 19.5747 96.1956C20.5021 95.9821 21.3188 95.4371 21.8698 94.6639Z" fill="#9F616A"/>
<path id="Vector_31" d="M21.8404 87.4334H14.1847L12.0781 63.9413L12.0853 63.92L19.2509 42.9555C19.5032 42.2173 19.907 41.5395 20.4367 40.9654C20.9663 40.3912 21.6102 39.9332 22.3273 39.6206C23.0444 39.3079 23.819 39.1475 24.6017 39.1494C25.3845 39.1514 26.1583 39.3157 26.8738 39.6319C27.5893 39.9481 28.2309 40.4093 28.7577 40.9861C29.2844 41.5629 29.6849 42.2426 29.9335 42.9821C30.1821 43.7215 30.2734 44.5044 30.2016 45.2809C30.1297 46.0574 29.8964 46.8105 29.5164 47.4922L21.0849 62.6187L21.8404 87.4334Z" fill="#CCCCCC"/>
</g>
</svg>
