<svg width="48" height="48" viewBox="0 0 48 48" fill="none" xmlns="http://www.w3.org/2000/svg">
<g id="1.TH.Emoji" filter="url(#filter0_d_4939_129558)">
<g id="Vector">
<path d="M24 42C35.0457 42 44 33.0457 44 22C44 10.9543 35.0457 2 24 2C12.9543 2 4 10.9543 4 22C4 33.0457 12.9543 42 24 42Z" fill="#FFD453"/>
<path d="M32.3167 32.4211C32.2667 32.2222 31.0189 27.5556 24 27.5556C16.98 27.5556 15.7333 32.2222 15.6833 32.4211C15.6222 32.6622 15.7311 32.9122 15.9467 33.0367C16.1633 33.16 16.4344 33.1233 16.6133 32.9511C16.6344 32.93 18.7844 30.8889 24 30.8889C29.2156 30.8889 31.3667 32.93 31.3867 32.95C31.4933 33.0556 31.6356 33.1111 31.7778 33.1111C31.8711 33.1111 31.9656 33.0878 32.0511 33.04C32.2689 32.9156 32.3778 32.6633 32.3167 32.4211Z" fill="#333333"/>
<path d="M17.3333 20.8889C18.8675 20.8889 20.1111 19.1478 20.1111 17C20.1111 14.8522 18.8675 13.1111 17.3333 13.1111C15.7992 13.1111 14.5556 14.8522 14.5556 17C14.5556 19.1478 15.7992 20.8889 17.3333 20.8889Z" fill="#333333"/>
<path d="M30.6667 20.8889C32.2008 20.8889 33.4444 19.1478 33.4444 17C33.4444 14.8522 32.2008 13.1111 30.6667 13.1111C29.1325 13.1111 27.8889 14.8522 27.8889 17C27.8889 19.1478 29.1325 20.8889 30.6667 20.8889Z" fill="#333333"/>
</g>
</g>
<defs>
<filter id="filter0_d_4939_129558" x="0" y="0" width="48" height="48" filterUnits="userSpaceOnUse" color-interpolation-filters="sRGB">
<feFlood flood-opacity="0" result="BackgroundImageFix"/>
<feColorMatrix in="SourceAlpha" type="matrix" values="0 0 0 0 0 0 0 0 0 0 0 0 0 0 0 0 0 0 127 0" result="hardAlpha"/>
<feOffset dy="2"/>
<feGaussianBlur stdDeviation="2"/>
<feComposite in2="hardAlpha" operator="out"/>
<feColorMatrix type="matrix" values="0 0 0 0 0 0 0 0 0 0 0 0 0 0 0 0 0 0 0.15 0"/>
<feBlend mode="normal" in2="BackgroundImageFix" result="effect1_dropShadow_4939_129558"/>
<feBlend mode="normal" in="SourceGraphic" in2="effect1_dropShadow_4939_129558" result="shape"/>
</filter>
</defs>
</svg>
