<svg width="33" height="32" viewBox="0 0 33 32" fill="none" xmlns="http://www.w3.org/2000/svg">
<g id="1.TH.Emoji">
<g id="Vector">
<path d="M32.5 16C32.5 24.8364 25.3364 32 16.5 32C7.66444 32 0.5 24.8364 0.5 16C0.5 7.16444 7.66444 0 16.5 0C25.3364 0 32.5 7.16444 32.5 16Z" fill="#D9D9D9"/>
<path d="M23.1533 26.5591C23.1133 26.4 22.1151 22.6667 16.5 22.6667C10.884 22.6667 9.88667 26.4 9.84667 26.5591C9.82331 26.6529 9.83125 26.7518 9.86928 26.8407C9.90731 26.9296 9.97334 27.0037 10.0573 27.0516C10.1418 27.099 10.2393 27.1179 10.3353 27.1056C10.4314 27.0933 10.5209 27.0503 10.5907 26.9831C10.6076 26.9662 12.3276 25.3333 16.5 25.3333C20.6724 25.3333 22.3933 26.9662 22.4093 26.9822C22.4782 27.0502 22.5672 27.094 22.6631 27.107C22.759 27.12 22.8565 27.1015 22.9409 27.0542C23.0256 27.0063 23.0923 26.932 23.1307 26.8425C23.1691 26.7531 23.177 26.6535 23.1533 26.5591ZM14.4618 15.3716C11.5684 12.4782 6.91867 12.4444 6.72222 12.4444C6.49335 12.4546 6.27719 12.5526 6.11877 12.7181C5.96035 12.8836 5.87187 13.1038 5.87176 13.3329C5.87165 13.562 5.9599 13.7823 6.11816 13.948C6.27641 14.1136 6.49247 14.2119 6.72133 14.2222C6.74711 14.2222 8.43244 14.2418 10.2618 14.8773C9.73467 15.4462 9.38889 16.3298 9.38889 17.3333C9.38889 19.0524 10.3836 20.4444 11.6111 20.4444C12.8387 20.4444 13.8333 19.0524 13.8333 17.3333C13.8333 17.1787 13.8164 17.0311 13.8004 16.8827C13.812 16.8827 13.8227 16.8889 13.8333 16.8889C14.0093 16.8893 14.1814 16.8374 14.3278 16.7398C14.4743 16.6422 14.5884 16.5033 14.6557 16.3407C14.723 16.1781 14.7406 15.9992 14.706 15.8266C14.6715 15.6541 14.5865 15.4957 14.4618 15.3716ZM26.2778 12.4444C26.0813 12.4444 21.4324 12.4782 18.5382 15.3716C18.4135 15.4957 18.3285 15.6541 18.294 15.8266C18.2594 15.9992 18.277 16.1781 18.3443 16.3407C18.4116 16.5033 18.5257 16.6422 18.6722 16.7398C18.8186 16.8374 18.9907 16.8893 19.1667 16.8889C19.1782 16.8889 19.188 16.8827 19.1987 16.8827C19.1844 17.0311 19.1667 17.1787 19.1667 17.3333C19.1667 19.0524 20.1613 20.4444 21.3889 20.4444C22.6164 20.4444 23.6111 19.0524 23.6111 17.3333C23.6111 16.3298 23.2653 15.4462 22.7382 14.8773C23.8804 14.4875 25.0735 14.2668 26.2796 14.2222C26.3963 14.2221 26.5119 14.199 26.6196 14.1542C26.7275 14.1094 26.8254 14.0439 26.9078 13.9612C26.9903 13.8786 27.0557 13.7806 27.1002 13.6727C27.1448 13.5648 27.1677 13.4492 27.1676 13.3324C27.1674 13.2157 27.1443 13.1002 27.0996 12.9923C27.0548 12.8845 26.9892 12.7866 26.9066 12.7042C26.824 12.6217 26.7259 12.5563 26.618 12.5118C26.5101 12.4672 26.3945 12.4443 26.2778 12.4444Z" fill="#333333"/>
</g>
</g>
</svg>
