<svg width="32" height="32" viewBox="0 0 32 32" fill="none" xmlns="http://www.w3.org/2000/svg">
<g id="1.TH.Emoji">
<g id="Vector">
<path d="M16 32C24.8366 32 32 24.8366 32 16C32 7.16344 24.8366 0 16 0C7.16344 0 0 7.16344 0 16C0 24.8366 7.16344 32 16 32Z" fill="#D9D9D9"/>
<path d="M9.3467 20.9973C9.3867 21.1564 10.3849 24.8897 16 24.8897C21.616 24.8897 22.6134 21.1564 22.6534 20.9973C22.6767 20.9034 22.6688 20.8045 22.6308 20.7156C22.5927 20.6267 22.5267 20.5527 22.4427 20.5048C22.3583 20.4571 22.2608 20.438 22.1646 20.4503C22.0685 20.4627 21.979 20.5058 21.9094 20.5732C21.8925 20.5901 20.1725 22.223 16 22.223C11.8276 22.223 10.1067 20.5901 10.0907 20.5741C10.0219 20.5061 9.93282 20.4623 9.83694 20.4494C9.74107 20.4364 9.64357 20.4549 9.55914 20.5021C9.4744 20.55 9.40772 20.6244 9.36935 20.7138C9.33097 20.8033 9.32301 20.9028 9.3467 20.9973Z" fill="#333333"/>
<path d="M10.6669 15.1102C11.8942 15.1102 12.8891 13.7174 12.8891 11.9991C12.8891 10.2809 11.8942 8.88802 10.6669 8.88802C9.43958 8.88802 8.44466 10.2809 8.44466 11.9991C8.44466 13.7174 9.43958 15.1102 10.6669 15.1102Z" fill="#333333"/>
<path d="M21.3336 15.1102C22.5609 15.1102 23.5558 13.7174 23.5558 11.9991C23.5558 10.2809 22.5609 8.88802 21.3336 8.88802C20.1063 8.88802 19.1113 10.2809 19.1113 11.9991C19.1113 13.7174 20.1063 15.1102 21.3336 15.1102Z" fill="#333333"/>
</g>
</g>
</svg>
