<svg width="48" height="48" viewBox="0 0 48 48" fill="none" xmlns="http://www.w3.org/2000/svg">
<g id="1.TH.Emoji" filter="url(#filter0_d_4939_129567)">
<g id="Vector">
<path d="M44 22C44 33.0456 35.0456 42 24 42C12.9556 42 4 33.0456 4 22C4 10.9556 12.9556 2 24 2C35.0456 2 44 10.9556 44 22Z" fill="#FFD453"/>
<path d="M16.7778 22C18.3119 22 19.5556 19.264 19.5556 15.8889C19.5556 12.5138 18.3119 9.77778 16.7778 9.77778C15.2437 9.77778 14 12.5138 14 15.8889C14 19.264 15.2437 22 16.7778 22Z" fill="#333333"/>
<path d="M31.2222 22C32.7563 22 34 19.264 34 15.8889C34 12.5138 32.7563 9.77778 31.2222 9.77778C29.6881 9.77778 28.4444 12.5138 28.4444 15.8889C28.4444 19.264 29.6881 22 31.2222 22Z" fill="#333333"/>
<path d="M24 26.4444C19.9744 26.4444 17.3033 25.9756 14 25.3333C13.2456 25.1878 11.7778 25.3333 11.7778 27.5556C11.7778 32 16.8833 37.5556 24 37.5556C31.1156 37.5556 36.2222 32 36.2222 27.5556C36.2222 25.3333 34.7544 25.1867 34 25.3333C30.6967 25.9756 28.0256 26.4444 24 26.4444Z" fill="#333333"/>
<path d="M14 27.5556C14 27.5556 17.3333 28.6667 24 28.6667C30.6667 28.6667 34 27.5556 34 27.5556C34 27.5556 31.7778 32 24 32C16.2222 32 14 27.5556 14 27.5556Z" fill="white"/>
</g>
</g>
<defs>
<filter id="filter0_d_4939_129567" x="0" y="0" width="48" height="48" filterUnits="userSpaceOnUse" color-interpolation-filters="sRGB">
<feFlood flood-opacity="0" result="BackgroundImageFix"/>
<feColorMatrix in="SourceAlpha" type="matrix" values="0 0 0 0 0 0 0 0 0 0 0 0 0 0 0 0 0 0 127 0" result="hardAlpha"/>
<feOffset dy="2"/>
<feGaussianBlur stdDeviation="2"/>
<feComposite in2="hardAlpha" operator="out"/>
<feColorMatrix type="matrix" values="0 0 0 0 0 0 0 0 0 0 0 0 0 0 0 0 0 0 0.15 0"/>
<feBlend mode="normal" in2="BackgroundImageFix" result="effect1_dropShadow_4939_129567"/>
<feBlend mode="normal" in="SourceGraphic" in2="effect1_dropShadow_4939_129567" result="shape"/>
</filter>
</defs>
</svg>
