<svg width="48" height="48" viewBox="0 0 48 48" fill="none" xmlns="http://www.w3.org/2000/svg">
<g id="1.TH.Emoji" filter="url(#filter0_d_4939_129564)">
<g id="Vector">
<path d="M24 42C35.0457 42 44 33.0457 44 22C44 10.9543 35.0457 2 24 2C12.9543 2 4 10.9543 4 22C4 33.0457 12.9543 42 24 42Z" fill="#FFD453"/>
<path d="M15.6834 28.2466C15.7334 28.4455 16.9811 33.1121 24 33.1121C31.02 33.1121 32.2667 28.4455 32.3167 28.2466C32.3459 28.1293 32.336 28.0057 32.2884 27.8945C32.2409 27.7834 32.1584 27.6909 32.0534 27.631C31.9479 27.5714 31.826 27.5475 31.7058 27.5629C31.5856 27.5783 31.4737 27.6322 31.3867 27.7166C31.3656 27.7377 29.2156 29.7788 24 29.7788C18.7845 29.7788 16.6334 27.7377 16.6134 27.7177C16.5273 27.6327 16.416 27.5779 16.2962 27.5617C16.1763 27.5455 16.0545 27.5686 15.9489 27.6277C15.843 27.6875 15.7597 27.7805 15.7117 27.8923C15.6637 28.0041 15.6538 28.1286 15.6834 28.2466Z" fill="#333333"/>
<path d="M17.3336 20.8878C18.8677 20.8878 20.1114 19.1467 20.1114 16.9989C20.1114 14.8511 18.8677 13.11 17.3336 13.11C15.7995 13.11 14.5558 14.8511 14.5558 16.9989C14.5558 19.1467 15.7995 20.8878 17.3336 20.8878Z" fill="#333333"/>
<path d="M30.6669 20.8878C32.2011 20.8878 33.4447 19.1467 33.4447 16.9989C33.4447 14.8511 32.2011 13.11 30.6669 13.11C29.1328 13.11 27.8892 14.8511 27.8892 16.9989C27.8892 19.1467 29.1328 20.8878 30.6669 20.8878Z" fill="#333333"/>
</g>
</g>
<defs>
<filter id="filter0_d_4939_129564" x="0" y="0" width="48" height="48" filterUnits="userSpaceOnUse" color-interpolation-filters="sRGB">
<feFlood flood-opacity="0" result="BackgroundImageFix"/>
<feColorMatrix in="SourceAlpha" type="matrix" values="0 0 0 0 0 0 0 0 0 0 0 0 0 0 0 0 0 0 127 0" result="hardAlpha"/>
<feOffset dy="2"/>
<feGaussianBlur stdDeviation="2"/>
<feComposite in2="hardAlpha" operator="out"/>
<feColorMatrix type="matrix" values="0 0 0 0 0 0 0 0 0 0 0 0 0 0 0 0 0 0 0.15 0"/>
<feBlend mode="normal" in2="BackgroundImageFix" result="effect1_dropShadow_4939_129564"/>
<feBlend mode="normal" in="SourceGraphic" in2="effect1_dropShadow_4939_129564" result="shape"/>
</filter>
</defs>
</svg>
