<svg width="49" height="48" viewBox="0 0 49 48" fill="none" xmlns="http://www.w3.org/2000/svg">
<g id="1.TH.Emoji" filter="url(#filter0_d_4939_129674)">
<g id="Vector">
<path d="M44.5 22C44.5 33.0456 35.5456 42 24.5 42C13.4556 42 4.5 33.0456 4.5 22C4.5 10.9556 13.4556 2 24.5 2C35.5456 2 44.5 10.9556 44.5 22Z" fill="#FFD453"/>
<path d="M32.8167 35.1989C32.7667 35 31.5189 30.3333 24.5 30.3333C17.48 30.3333 16.2333 35 16.1833 35.1989C16.1541 35.3162 16.1641 35.4398 16.2116 35.5509C16.2591 35.662 16.3417 35.7546 16.4467 35.8144C16.5522 35.8737 16.6741 35.8974 16.7942 35.882C16.9142 35.8666 17.0262 35.8129 17.1133 35.7289C17.1344 35.7078 19.2844 33.6667 24.5 33.6667C29.7156 33.6667 31.8667 35.7078 31.8867 35.7278C31.9727 35.8128 32.084 35.8675 32.2039 35.8838C32.3237 35.9 32.4456 35.8768 32.5511 35.8178C32.657 35.7579 32.7404 35.665 32.7884 35.5532C32.8363 35.4414 32.8463 35.3169 32.8167 35.1989ZM21.9522 21.2144C18.3356 17.5978 12.5233 17.5556 12.2778 17.5556C11.9917 17.5682 11.7215 17.6907 11.5235 17.8976C11.3254 18.1045 11.2148 18.3798 11.2147 18.6661C11.2146 18.9525 11.3249 19.2279 11.5227 19.435C11.7205 19.642 11.9906 19.7648 12.2767 19.7778C12.3089 19.7778 14.4156 19.8022 16.7022 20.5967C16.0433 21.3078 15.6111 22.4122 15.6111 23.6667C15.6111 25.8156 16.8544 27.5556 18.3889 27.5556C19.9233 27.5556 21.1667 25.8156 21.1667 23.6667C21.1667 23.4733 21.1456 23.2889 21.1256 23.1033C21.14 23.1033 21.1533 23.1111 21.1667 23.1111C21.3866 23.1116 21.6018 23.0467 21.7848 22.9247C21.9678 22.8027 22.1105 22.6291 22.1946 22.4259C22.2788 22.2226 22.3007 21.999 22.2575 21.7833C22.2144 21.5676 22.1081 21.3696 21.9522 21.2144ZM36.7222 17.5556C36.4767 17.5556 30.6656 17.5978 27.0478 21.2144C26.8919 21.3696 26.7856 21.5676 26.7425 21.7833C26.6993 21.999 26.7212 22.2226 26.8054 22.4259C26.8895 22.6291 27.0322 22.8027 27.2152 22.9247C27.3982 23.0467 27.6134 23.1116 27.8333 23.1111C27.8478 23.1111 27.86 23.1033 27.8733 23.1033C27.8556 23.2889 27.8333 23.4733 27.8333 23.6667C27.8333 25.8156 29.0767 27.5556 30.6111 27.5556C32.1456 27.5556 33.3889 25.8156 33.3889 23.6667C33.3889 22.4122 32.9567 21.3078 32.2978 20.5967C33.7255 20.1094 35.2169 19.8335 36.7244 19.7778C36.8704 19.7776 37.0148 19.7487 37.1496 19.6928C37.2843 19.6368 37.4067 19.5548 37.5098 19.4516C37.6129 19.3483 37.6946 19.2257 37.7503 19.0908C37.806 18.956 37.8346 18.8115 37.8344 18.6656C37.8343 18.5196 37.8054 18.3752 37.7494 18.2404C37.6935 18.1057 37.6115 17.9833 37.5082 17.8802C37.4049 17.7771 37.2824 17.6954 37.1475 17.6397C37.0126 17.584 36.8681 17.5554 36.7222 17.5556Z" fill="#333333"/>
</g>
</g>
<defs>
<filter id="filter0_d_4939_129674" x="0.5" y="0" width="48" height="48" filterUnits="userSpaceOnUse" color-interpolation-filters="sRGB">
<feFlood flood-opacity="0" result="BackgroundImageFix"/>
<feColorMatrix in="SourceAlpha" type="matrix" values="0 0 0 0 0 0 0 0 0 0 0 0 0 0 0 0 0 0 127 0" result="hardAlpha"/>
<feOffset dy="2"/>
<feGaussianBlur stdDeviation="2"/>
<feComposite in2="hardAlpha" operator="out"/>
<feColorMatrix type="matrix" values="0 0 0 0 0 0 0 0 0 0 0 0 0 0 0 0 0 0 0.15 0"/>
<feBlend mode="normal" in2="BackgroundImageFix" result="effect1_dropShadow_4939_129674"/>
<feBlend mode="normal" in="SourceGraphic" in2="effect1_dropShadow_4939_129674" result="shape"/>
</filter>
</defs>
</svg>
