<svg width="207" height="40" viewBox="0 0 207 40" fill="none" xmlns="http://www.w3.org/2000/svg">
<g id="Logo Alojamiento" clip-path="url(#clip0_700_1502)">
<g id="Vector">
<path d="M153.746 17.1896C153.741 18.3016 152.85 19.204 151.751 19.204C150.653 19.2032 149.764 18.2936 149.764 17.1824C149.768 16.0664 150.657 15.1656 151.76 15.1672C152.856 15.1688 153.746 16.0752 153.746 17.1896Z" fill="#00B173"/>
<path d="M151.768 3.0952L161.328 12.428V30.6624H156.089V16.612C156.089 13.7192 154.169 12.0976 151.774 12.0976C149.008 12.0976 147.414 13.9792 147.414 16.612V30.6624H142.182V12.4312L151.768 3.0952Z" fill="#00B173"/>
<path d="M13.6263 31.0776C5.96107 31.0776 0 24.5408 0 16.196C0 7.848 5.96107 1.3128 13.6263 1.3128C19.9915 1.3128 24.6968 4.9728 26.4421 10.8112H20.6439C19.3849 8.2216 16.8733 6.288 13.6263 6.288C9.00328 6.288 5.35452 10.8112 5.35452 16.1952C5.35452 21.62 9.00328 26.1424 13.6263 26.1424C16.8306 26.1424 19.3849 24.128 20.6439 21.54H26.4033C24.6177 27.3368 19.8729 31.0776 13.6263 31.0776Z" fill="#003A70"/>
<path d="M50.2484 30.5848H45.1374V28.3248C43.5171 30.0504 41.2846 31.036 38.7319 31.036C33.2999 31.036 28.7939 26.268 28.7939 20.02C28.7939 13.728 33.2991 8.9584 38.7319 8.9584C41.2846 8.9584 43.5171 9.9472 45.1374 11.6736V9.4128H50.2484V30.5848ZM39.5441 13.976C36.5817 13.976 34.1872 16.6088 34.1872 20.0608C34.1872 23.4304 36.5817 26.0216 39.5441 26.0216C42.5017 26.0216 44.8962 23.348 44.8962 20.0608C44.8962 16.6912 42.5017 13.976 39.5441 13.976Z" fill="#003A70"/>
<path d="M87.1915 30.5848H81.8393V18.2096C81.8393 16.9784 81.4313 14.0168 77.9462 14.0168C75.5556 14.0168 73.8933 15.8248 73.8933 18.2096V30.5848H68.4961V18.2096C68.4961 16.9784 68.1332 14.0168 64.6046 14.0168C62.2527 14.0168 60.5889 15.8248 60.5889 18.2096V30.5848H55.1972V9.4136H60.3445V11.4688C61.643 9.8664 63.4682 8.8808 65.7386 8.8808C68.3364 8.8808 70.5253 9.9872 71.9851 11.88C73.4853 10.0304 75.6758 8.8808 78.3503 8.8808C83.946 8.8808 87.1915 12.6616 87.1915 18.2104V30.5848Z" fill="#003A70"/>
<path d="M103.416 31.0368C101.023 31.0368 98.8764 30.0904 97.2924 28.5312V40H91.8999V9.4136H97.0496V11.6328C98.6708 9.948 100.902 8.92 103.416 8.92C108.89 8.92 113.352 13.688 113.352 19.9368C113.351 26.2272 108.89 31.0368 103.416 31.0368ZM102.645 13.976C99.6838 13.976 97.2924 16.6464 97.2924 19.9368C97.2924 23.2696 99.6838 25.9808 102.645 25.9808C105.607 25.9808 107.999 23.3896 107.999 19.9368C107.998 16.5256 105.606 13.976 102.645 13.976Z" fill="#003A70"/>
<path d="M137.239 30.5848H132.13V28.3248C130.506 30.0504 128.278 31.036 125.723 31.036C120.29 31.036 115.785 26.268 115.785 20.02C115.785 13.728 120.29 8.9584 125.723 8.9584C128.278 8.9584 130.507 9.9472 132.13 11.6736V9.4128H137.239V30.5848ZM126.534 13.976C123.572 13.976 121.179 16.6088 121.179 20.0608C121.179 23.4304 123.572 26.0216 126.534 26.0216C129.491 26.0216 131.885 23.348 131.885 20.0608C131.886 16.6912 129.492 13.976 126.534 13.976Z" fill="#003A70"/>
<path d="M182.617 30.5848H177.264V0H182.617V30.5848Z" fill="#003A70"/>
<path d="M171.969 30.5848H166.619V10.5664H171.969V30.5848Z" fill="#003A70"/>
<path d="M165.567 3.8192C165.567 1.704 167.246 0 169.301 0C171.392 0 173.023 1.704 173.023 3.8192C173.023 5.8984 171.391 7.552 169.301 7.552C167.246 7.552 165.567 5.8984 165.567 3.8192Z" fill="#003A70"/>
<path d="M206.667 19.9432C206.667 13.3976 202.077 8.828 196.396 8.828C190.808 8.828 186.286 13.4632 186.14 19.6328H186.125C186.125 19.6872 186.125 20.3336 186.125 20.3336C186.437 26.5216 190.813 31.064 196.394 31.0192C200.519 30.984 203.919 28.9352 205.597 25.4128L201.38 23.84C200.446 25.5112 198.636 26.4272 196.679 26.4272C193.729 26.4272 191.476 24.068 191.192 21.196H206.667V19.9432ZM191.405 17.0856C192.026 14.716 193.875 13.0592 196.459 13.0592C198.875 13.0592 200.8 14.7888 201.477 17.0856H191.405Z" fill="#003A70"/>
</g>
</g>
<defs>
<clipPath id="clip0_700_1502">
<rect width="206.667" height="40" fill="white"/>
</clipPath>
</defs>
</svg>
