<svg width="24" height="24" viewBox="0 0 24 24" fill="none" xmlns="http://www.w3.org/2000/svg">
<path fill-rule="evenodd" clip-rule="evenodd" d="M16.265 14.0163L16.265 14.0163L16.265 14.0163C16.3871 14.0936 16.5098 14.1713 16.6389 14.2395C16.6049 14.2344 16.5708 14.2295 16.5366 14.2246L16.5364 14.2246C16.4727 14.2155 16.4087 14.2064 16.3445 14.1957C14.6492 13.903 13.1125 13.2849 11.9199 11.9538C11.7567 11.7713 11.6164 11.7742 11.4515 11.9584C10.4266 13.1013 9.12793 13.731 7.67344 14.0669C6.63322 14.3071 5.57873 14.3858 4.51339 14.338C4.00954 14.3153 3.60954 14.65 3.56275 15.1135C3.51083 15.6272 3.81496 16.0307 4.33251 16.11C4.45291 16.1287 4.4763 16.1881 4.50541 16.2855C4.53612 16.3875 4.56584 16.49 4.59557 16.5924C4.68514 16.9011 4.77475 17.21 4.89171 17.5077C5.70027 19.5654 7.11539 20.9706 9.2004 21.6441C10.4192 22.0382 11.6706 22.0662 12.9208 21.9152C14.6052 21.7111 16.0512 20.9864 17.1924 19.6802C18.0363 18.7147 18.5482 17.5741 18.8574 16.3304C18.8888 16.2033 18.9202 16.1257 19.0794 16.1036C19.5416 16.0389 19.8492 15.626 19.8138 15.1602C19.7784 14.6931 19.4172 14.3438 18.9482 14.3363C18.7905 14.3337 18.6328 14.3383 18.4752 14.3428C18.3766 14.3457 18.2781 14.3485 18.1796 14.3497L18.1589 14.3499C18.1013 14.3509 18.0386 14.3519 17.9918 14.3269C17.5403 14.086 17.0911 13.8411 16.6664 13.6096L16.6661 13.6095L16.3873 13.4575C16.4249 13.3717 16.4656 13.2896 16.5053 13.2094L16.5053 13.2094C16.5889 13.0405 16.6685 12.8798 16.7079 12.7094C16.8569 12.068 16.8124 11.4243 16.6332 10.7905C16.2908 9.57943 15.4309 8.84532 14.2121 8.72812C14.0555 8.71314 13.8987 8.6989 13.7419 8.68466C13.4167 8.6551 13.0913 8.62554 12.7667 8.58935C12.6908 8.58118 12.571 8.52579 12.5573 8.4704C12.5105 8.27973 12.4592 8.06807 12.7177 7.96311C12.7867 7.93454 12.8569 7.87623 12.8974 7.81209C13.0749 7.53221 13.3185 7.46107 13.6369 7.47157C14.0158 7.48381 14.3342 7.21151 14.4563 6.85116C14.648 6.28615 14.3034 5.70715 13.702 5.59986C13.1496 5.50132 12.6081 5.40103 12.2589 4.86984C12.1573 4.71532 11.9188 4.78587 11.848 4.97129C11.8261 5.029 11.8118 5.08953 11.7975 5.1501L11.7975 5.15014C11.7884 5.18871 11.7793 5.22729 11.7682 5.26517C11.7271 5.40453 11.6324 5.43951 11.5245 5.35555C11.2341 5.12989 11.0041 4.85584 10.9533 4.46925C10.9334 4.31649 10.9117 4.17421 10.7393 4.13281C10.5647 4.09083 10.47 4.2092 10.4038 4.34098C10.2605 4.62684 10.1221 4.91534 9.97958 5.21224L9.97939 5.21262C9.92053 5.33527 9.86098 5.45936 9.80012 5.58528C9.70425 5.59565 9.65325 5.60117 9.61582 5.58122C9.57327 5.55854 9.54827 5.50294 9.49484 5.38412L9.49484 5.38412C9.22437 4.78179 9.39955 3.9987 9.89997 3.57597C10.09 3.41503 10.3142 3.30891 10.551 3.38879C10.8232 3.48092 10.9642 3.37597 11.1182 3.16372C11.5011 2.63603 12.0112 2.41096 12.6532 2.58413C13.0954 2.70308 13.4692 2.95498 13.8195 3.24594C14.0928 3.47276 14.0928 3.49142 13.844 3.74564C13.4868 4.11182 13.4903 4.16372 13.8937 4.4815L13.9279 4.50774C14.2218 4.74063 14.2215 4.74114 14.0249 5.04546L14.0072 5.07275C13.9587 5.14855 13.9565 5.31473 14.0067 5.38237C14.0557 5.44884 14.2184 5.49316 14.2971 5.4605C14.7679 5.26692 14.8626 4.6296 14.4837 4.28442C14.4334 4.23851 14.3804 4.1961 14.3259 4.15244L14.3258 4.15243L14.3258 4.15243C14.3 4.13176 14.2739 4.11081 14.2475 4.08908C14.2651 4.06875 14.2821 4.04959 14.2987 4.031L14.2987 4.03098C14.3272 3.99895 14.3542 3.96863 14.3798 3.9369C14.6178 3.64127 14.6012 3.25352 14.3228 2.99579C13.9462 2.64711 13.5319 2.35382 13.0537 2.16548C12.1813 1.82204 11.4155 2.01563 10.7907 2.72349C10.7314 2.79055 10.6149 2.84069 10.5271 2.83836C10.1351 2.8267 9.79954 2.95323 9.51253 3.2197C8.85233 3.83252 8.65889 4.8436 9.0549 5.65875C9.11424 5.78062 9.1091 5.85292 9.02579 5.96137C8.61667 6.49723 8.86545 7.27449 9.50111 7.44591C9.60757 7.47478 9.72109 7.47693 9.83427 7.47907C9.87881 7.47992 9.92331 7.48076 9.96731 7.48323C10.062 7.48848 10.6926 8.0395 10.7045 8.13454C10.7086 8.16468 10.7078 8.19569 10.7069 8.22675V8.22676V8.22677C10.7066 8.23957 10.7062 8.25239 10.7062 8.26515L10.7064 8.43999V8.44005V8.44012C10.7065 8.5565 10.7066 8.67279 10.7062 8.78935C10.7051 8.97069 10.7639 9.10888 10.9619 9.12462C11.1228 9.13745 11.2164 9.01442 11.2198 8.79868C11.2218 8.68449 11.2213 8.57031 11.2208 8.45788L11.2208 8.45752C11.2206 8.40817 11.2204 8.35915 11.2204 8.31063H12.0118C12.0181 8.36426 12.0246 8.41631 12.031 8.46731L12.031 8.4675L12.031 8.46764C12.0444 8.574 12.0572 8.67587 12.066 8.77827C12.0826 8.96835 12.179 9.06631 12.3644 9.08264C12.553 9.09903 12.7415 9.11664 12.9301 9.13426C13.2446 9.16365 13.5592 9.19305 13.8743 9.21675C14.3913 9.25582 14.8871 9.34036 15.3214 9.66748C16.2149 10.3398 16.4495 11.8202 16.1647 12.7683C16.0923 13.0097 15.86 13.1363 15.5861 13.1246C15.3071 13.1129 15.1085 12.9689 15.0378 12.7217C14.9687 12.482 15.0646 12.2989 15.2323 12.1386C15.5 11.882 15.5953 11.5637 15.5068 11.2045C15.29 10.3252 14.6127 9.93861 13.7613 10.1952C13.6198 10.2377 13.5405 10.3287 13.5587 10.4832C13.577 10.6383 13.6751 10.7147 13.8235 10.706C13.9035 10.7014 13.9829 10.6901 14.0623 10.6789C14.124 10.6701 14.1856 10.6614 14.2475 10.6558C14.6823 10.6162 15.0885 11.1118 14.987 11.5759C14.9664 11.5661 14.9458 11.5567 14.9254 11.5474L14.9254 11.5474C14.8815 11.5274 14.8383 11.5077 14.797 11.485C12.8586 10.4272 10.9202 9.36893 8.98414 8.30713C8.89398 8.25757 8.81181 8.1806 8.74734 8.09897C8.50597 7.79343 8.20126 7.61851 7.81781 7.58702C7.8014 7.58566 7.7845 7.5849 7.76747 7.58414C7.71166 7.58164 7.65457 7.57908 7.60954 7.55495C7.26316 7.37178 6.91892 7.18355 6.5779 6.99709L6.30226 6.8465C6.41924 6.03892 6.23379 5.66866 5.53422 5.28674C5.42266 5.22575 5.31123 5.16445 5.19978 5.10315L5.19977 5.10314L5.19976 5.10314L5.19975 5.10313C4.90421 4.94056 4.60859 4.77794 4.31026 4.62086C3.64663 4.27101 2.93337 4.49025 2.56875 5.15263C2.43237 5.39986 2.30284 5.65059 2.17503 5.9019C1.81554 6.60685 2.03466 7.34504 2.71768 7.72638C3.01726 7.89387 3.31876 8.05743 3.62026 8.22099C3.72075 8.27551 3.82125 8.33002 3.92167 8.38468C4.62295 8.76661 5.02238 8.71704 5.60783 8.16777C5.65911 8.19534 5.71017 8.22476 5.76151 8.25434L5.76153 8.25435L5.76154 8.25436L5.76155 8.25436C5.87528 8.3199 5.99038 8.38622 6.11225 8.43483C6.39128 8.5462 6.4626 8.70305 6.44891 9.03191C6.41016 9.95984 6.42107 10.8906 6.43197 11.8208L6.43579 12.1532C6.44149 12.6587 6.8238 13.0733 7.31282 13.0715C7.55533 13.071 7.81952 12.9835 8.03521 12.8622C8.3774 12.6699 8.7077 12.4556 9.03805 12.2413C9.18255 12.1476 9.32707 12.0538 9.47258 11.9619C9.50635 11.9408 9.54159 11.9225 9.59031 11.8972L9.59034 11.8972C9.61572 11.884 9.64476 11.8689 9.67915 11.8506C9.67915 11.9314 9.67825 12.0082 9.67739 12.0821C9.6755 12.2442 9.67377 12.3926 9.682 12.5403C9.69056 12.6984 9.78642 12.7992 9.94733 12.7922C10.0951 12.7864 10.1893 12.6937 10.187 12.5398C10.1807 12.1468 10.171 11.7538 10.1476 11.3619C10.1362 11.1672 9.96902 11.0745 9.79213 11.1456C9.74718 11.1639 9.70557 11.1914 9.66424 11.2187C9.65152 11.2271 9.63883 11.2355 9.62608 11.2436C9.43549 11.3646 9.24527 11.4862 9.05509 11.6077L9.05496 11.6078L9.05488 11.6078C8.61764 11.8872 8.18058 12.1664 7.73963 12.4395C7.29456 12.7153 6.94534 12.51 6.94477 11.9829C6.94463 11.7536 6.94406 11.5243 6.94349 11.295V11.295V11.2949C6.94178 10.6071 6.94006 9.91934 6.94991 9.23191C6.95333 9.0115 6.99556 8.78177 7.06974 8.57477C7.20041 8.20976 7.51481 8.04883 7.86973 8.12171C8.23093 8.19576 8.482 8.50655 8.482 8.88089C8.482 9.23191 8.31025 9.50421 8.09341 9.75319C7.91139 9.96193 7.80012 10.2004 7.79498 10.4815C7.7916 10.667 7.79203 10.8527 7.79246 11.0386V11.0386V11.0386C7.79276 11.1658 7.79306 11.293 7.79213 11.4202C7.79099 11.6016 7.86859 11.7258 8.05005 11.7252C8.23207 11.724 8.30796 11.5975 8.30682 11.4179C8.30651 11.3412 8.30512 11.2643 8.30372 11.1874C8.29996 10.9802 8.29619 10.7726 8.31367 10.5672C8.32679 10.4173 8.3753 10.2447 8.46659 10.131C8.74734 9.78176 8.96816 9.41208 9.00582 8.92054L14.6526 12.0045C14.591 12.1608 14.5419 12.2855 14.4894 12.4191C14.1094 12.2126 13.7453 12.0144 13.3818 11.8161L12.5519 11.3627L12.5503 11.3618L12.5486 11.3609C11.5721 10.8274 10.5956 10.2938 9.61866 9.76135C9.41838 9.65232 9.27116 9.68147 9.2004 9.84298C9.11595 10.0354 9.22266 10.1433 9.37672 10.2243C9.40855 10.2412 9.43981 10.258 9.47108 10.2749L9.47144 10.2751L10.1742 10.6588L10.1751 10.6593L10.1752 10.6594C11.5965 11.4355 13.0175 12.2114 14.4369 12.9917C14.4968 13.0247 14.5476 13.074 14.5987 13.1235C14.6397 13.1633 14.6808 13.2031 14.7268 13.2348C14.7807 13.2721 14.8344 13.3149 14.8884 13.3579L14.8884 13.3579C15.0311 13.4716 15.1757 13.5868 15.3305 13.6062C15.6884 13.6514 15.9747 13.8326 16.2649 14.0163L16.265 14.0163ZM11.9422 14.6051C13.8943 15.9934 16.0763 16.2581 18.3935 16.1718C18.343 16.3191 18.2963 16.4647 18.2502 16.6083C18.1535 16.9092 18.0597 17.2015 17.9399 17.4826C16.8283 20.0826 14.8278 21.3315 12.1014 21.4499C11.0503 21.4954 10.0152 21.4073 9.01495 21.0266C7.24663 20.3531 6.05747 19.0925 5.36646 17.3182C5.28563 17.1106 5.21925 16.8971 5.15288 16.6836L5.15287 16.6836L5.15286 16.6835C5.12881 16.6062 5.10475 16.5288 5.08001 16.4517C5.06279 16.3977 5.04998 16.3425 5.03548 16.28L5.03547 16.2799L5.03544 16.2798C5.02785 16.2471 5.0198 16.2123 5.0104 16.1747C7.28828 16.2564 9.47658 15.9986 11.4281 14.6068V14.8704C11.4281 16.3689 11.4281 17.8674 11.4286 19.366C11.4286 19.3861 11.4269 19.4081 11.4251 19.4302L11.4251 19.4302C11.4204 19.4875 11.4157 19.546 11.4412 19.5788C11.5085 19.6645 11.613 19.7788 11.698 19.7753C11.7807 19.7718 11.8709 19.6458 11.9342 19.556C11.9559 19.5257 11.951 19.4752 11.9462 19.4253C11.9442 19.4041 11.9422 19.383 11.9422 19.3636V14.868V14.6051ZM7.23008 14.6908C8.91453 14.3928 10.4386 13.7543 11.6871 12.4733C12.1995 12.9998 12.7616 13.4272 13.3881 13.7631C14.6572 14.447 16.0249 14.752 17.4435 14.8441C17.8027 14.8674 18.1636 14.8646 18.5243 14.8617H18.5244H18.5244C18.6336 14.8609 18.7427 14.86 18.8517 14.8599C19.1268 14.8599 19.2922 14.9835 19.2997 15.2126C19.3071 15.4365 19.1633 15.5712 18.8997 15.5951C17.3927 15.7316 15.8988 15.6756 14.4363 15.2406C13.4908 14.9596 12.6121 14.545 11.8903 13.836C11.7625 13.7106 11.6255 13.7019 11.4931 13.829C10.5185 14.7666 9.31795 15.2062 8.03635 15.4593C6.85404 15.6925 5.66089 15.7059 4.46432 15.5951C4.20241 15.5712 4.06147 15.433 4.07345 15.2051C4.08486 14.9852 4.24806 14.8494 4.50826 14.8628C5.42238 14.9094 6.32965 14.85 7.23008 14.6908ZM6.59336 7.6056L6.59363 7.60575L6.59384 7.60586C6.72169 7.67552 6.851 7.74598 6.98243 7.81792C6.91274 7.89492 6.85117 7.96272 6.79037 8.02968L6.78924 8.03093L6.78921 8.03095L6.67773 8.15378C6.36181 7.98188 6.04931 7.81231 5.73681 7.64273L5.73647 7.64255L5.73622 7.64241C5.46803 7.49664 5.39042 7.51647 5.23122 7.76894C5.02695 8.09256 4.67659 8.19576 4.33936 8.01734C3.86632 7.76661 3.39557 7.51064 2.92937 7.24708C2.53337 7.02318 2.41069 6.59636 2.61554 6.18236C2.74735 5.91706 2.88258 5.6535 3.02695 5.39461C3.24606 5.00161 3.65862 4.87217 4.05348 5.07975C4.52766 5.32872 4.9967 5.58762 5.46346 5.85C5.81154 6.04534 5.91824 6.38936 5.75904 6.75962C5.65119 7.01035 5.6803 7.10422 5.91539 7.23425C6.13918 7.35814 6.36391 7.48059 6.59336 7.6056ZM11.0075 5.59695C11.4498 6.04359 11.7722 6.04067 12.1904 5.62727C12.2624 5.66068 12.3337 5.69351 12.4044 5.72608L12.4051 5.72638L12.4052 5.72642C12.5909 5.81195 12.7726 5.89562 12.9522 5.98295C12.995 6.00336 13.0486 6.04884 13.0555 6.09024C13.1793 6.82026 12.5425 7.69198 11.8246 7.78235C11.0338 7.88206 10.4107 7.34271 10.3182 6.47916C10.2714 6.04067 10.377 5.49257 10.587 5.08674C10.6317 5.14134 10.675 5.19725 10.7183 5.25314L10.7183 5.25317L10.7184 5.25321L10.7184 5.25322L10.7184 5.25322C10.8106 5.37218 10.9027 5.49104 11.0075 5.59695ZM9.38129 6.38644C9.4218 6.20102 9.58328 6.12114 9.77444 6.1258C9.80582 6.40802 9.83378 6.66633 9.86288 6.93746C9.70425 6.98819 9.53307 6.96195 9.44634 6.80743C9.38072 6.69023 9.35276 6.51764 9.38129 6.38644ZM13.4606 6.93746L13.5981 6.12522C13.8868 6.19111 14.0238 6.36837 13.9873 6.60918C13.9502 6.85233 13.7527 6.97595 13.4606 6.93746ZM20.0764 13.2386C19.398 12.8683 18.9734 12.9208 18.4028 13.4555L18.099 13.2902L18.0985 13.29C17.8653 13.163 17.6305 13.0352 17.3957 12.9086C17.1908 12.7984 17.0505 12.8199 16.9683 12.9692C16.885 13.1196 16.9437 13.2561 17.1457 13.3674C17.5275 13.5774 17.9098 13.7861 18.2932 13.9937C18.5432 14.129 18.6219 14.1056 18.7806 13.8567C18.9774 13.5482 19.3203 13.4351 19.637 13.6001C20.1312 13.8578 20.6208 14.1249 21.1041 14.4024C21.4698 14.6123 21.5931 15.0374 21.4094 15.4205C21.2747 15.701 21.1292 15.9768 20.9768 16.2473C20.7629 16.6263 20.352 16.7482 19.9623 16.5575C19.9278 16.5407 19.8939 16.5193 19.8601 16.498C19.7933 16.4559 19.7269 16.4141 19.6576 16.4082C19.5566 16.3995 19.3997 16.445 19.3586 16.519C19.3169 16.5942 19.3489 16.7878 19.4151 16.8374C20.2248 17.4461 21.055 17.1686 21.4242 16.5045C21.5645 16.2521 21.6963 15.9944 21.828 15.7368L21.8281 15.7368L21.8281 15.7367L21.8282 15.7365C22.1951 15.0193 21.9765 14.2841 21.2804 13.8969C21.0107 13.7467 20.7397 13.5995 20.4689 13.4523L20.4687 13.4522L20.4678 13.4517C20.3373 13.3808 20.2068 13.3098 20.0764 13.2386ZM12.4552 6.48563C12.4421 6.65123 12.3548 6.74918 12.1979 6.74802C12.0415 6.74685 11.9428 6.64714 11.9462 6.48505C11.9497 6.33636 12.0393 6.2419 12.1905 6.23782C12.352 6.23374 12.4353 6.3282 12.4552 6.48563ZM11.09 6.74655C11.2481 6.75588 11.3394 6.66434 11.3571 6.49175C11.3468 6.33898 11.2686 6.24044 11.1066 6.23577C10.9554 6.23169 10.8629 6.31973 10.8532 6.47075C10.843 6.63285 10.9325 6.73723 11.09 6.74655Z" fill="#333333"/>
</svg>
