<svg width="24" height="24" viewBox="0 0 24 24" fill="none" xmlns="http://www.w3.org/2000/svg">
<path fill-rule="evenodd" clip-rule="evenodd" d="M20.9848 19.5965C22.1302 19.8998 22.0529 20.5754 21.9389 21.4995C21.92 21.6543 21.68 21.7974 21.4817 21.9156C21.4505 21.9342 21.4204 21.9522 21.3924 21.9694C21.3255 22.0106 21.2272 22.0013 21.1297 21.9921C21.0882 21.9882 21.0469 21.9843 21.0082 21.9843H2.97714C2.19013 21.9843 2.00196 21.7998 2.00118 21.0289C2.0004 20.0945 2.12767 19.9092 3.00759 19.5879C3.00759 19.5268 3.00319 19.4636 2.99875 19.3998C2.9887 19.2557 2.97846 19.1088 3.01853 18.9765C3.10129 18.7036 3.20279 18.3893 3.40188 18.2126C3.60644 18.0312 3.665 17.874 3.66422 17.6262C3.65719 15.6199 3.65798 13.6137 3.66422 11.6074C3.665 11.3822 3.58536 11.2548 3.42374 11.089C3.22387 10.8842 3.08723 10.5785 3.02243 10.2931C2.97561 10.0859 2.98687 9.86585 2.99798 9.64874C3.0028 9.55448 3.00759 9.46079 3.00759 9.36895C2.12376 9.03666 2.00118 8.85918 2.00118 7.92954C2.00118 7.74909 2.00089 7.56864 2.00059 7.38821C1.99993 6.98232 1.99926 6.57654 2.00196 6.17114C2.00587 5.61836 2.23463 5.28138 2.74448 5.10468L3.34594 4.89628C6.09044 3.94532 8.83474 2.99443 11.5851 2.06323C11.835 1.97879 12.1637 1.97879 12.4143 2.06402C15.0759 2.96613 17.7316 3.88684 20.3875 4.80757L21.2175 5.09529C21.7656 5.28529 21.9873 5.6035 21.9904 6.17739C21.9931 6.60125 21.9925 7.0251 21.9918 7.44896C21.9915 7.6373 21.9912 7.82564 21.9912 8.01398C21.9912 8.8537 21.8132 9.09686 20.9848 9.35253C20.9848 9.44503 20.9895 9.53986 20.9943 9.63558V9.63559V9.63561V9.63563C21.0054 9.85865 21.0167 10.0865 20.9692 10.3009C20.906 10.5855 20.7662 10.8944 20.5632 11.093C20.393 11.2595 20.3282 11.3948 20.329 11.6152C20.3344 13.6348 20.3344 15.6536 20.3282 17.6731C20.3274 17.8959 20.3992 18.0249 20.5655 18.1907C20.767 18.3916 20.8825 18.702 20.9731 18.9843C21.0148 19.115 21.0043 19.2622 20.9939 19.4073V19.4073V19.4073V19.4073C20.9894 19.4714 20.9848 19.535 20.9848 19.5965ZM6.99931 9.66171L6.99931 9.66233C6.99897 9.86917 6.99864 10.0651 6.99967 10.2611C7.00201 10.627 6.83571 10.8951 6.56634 11.1375C6.44532 11.2462 6.34304 11.4479 6.34148 11.6082C6.32869 13.3262 6.33041 15.0442 6.33213 16.7622V16.7624L6.33289 17.5871C6.33289 17.6716 6.33923 17.7558 6.34552 17.8393L6.34552 17.8394L6.34552 17.8394C6.3486 17.8803 6.35166 17.921 6.35397 17.9616H17.6291C17.633 17.933 17.6375 17.907 17.6417 17.8826L17.6418 17.8825L17.6418 17.8825C17.65 17.8347 17.6572 17.7932 17.6572 17.7513L17.6577 17.1262V17.126V17.1258V17.1256C17.6592 15.2499 17.6608 13.3746 17.6509 11.4987C17.6501 11.3846 17.5604 11.236 17.4651 11.1633C17.1528 10.9233 16.9818 10.6293 16.9896 10.2306C16.994 10.0246 16.993 9.81862 16.992 9.60763C16.9916 9.51587 16.9912 9.42315 16.9912 9.32908H6.99967C6.99967 9.44391 6.99949 9.55428 6.99931 9.66171ZM11.9544 8.63244L14.1582 8.63253C16.3624 8.63268 18.5667 8.63283 20.7709 8.63166C21.2511 8.63166 21.3151 8.56754 21.3182 8.09452C21.3197 7.8623 21.3187 7.63008 21.3177 7.3979V7.39785V7.3978V7.39775C21.3161 7.01789 21.3145 6.63815 21.3237 6.2587C21.3307 5.94987 21.212 5.79428 20.9161 5.69342C19.5101 5.21274 18.1053 4.72832 16.7006 4.24391L16.7003 4.24379C15.2331 3.73781 13.7658 3.23185 12.2972 2.73016C12.127 2.6723 11.9037 2.66058 11.7358 2.71765C10.1627 3.25436 8.59118 3.79636 7.01953 4.33841L7.01915 4.33854L7.01896 4.3386L7.01893 4.33861C5.6945 4.7954 4.36997 5.25222 3.04429 5.70593C2.75619 5.80444 2.66406 5.9702 2.66952 6.25401C2.67663 6.63464 2.67515 7.01559 2.67368 7.39667V7.39667V7.39668V7.39668C2.67289 7.6019 2.6721 7.80716 2.67264 8.01242C2.67421 8.591 2.71481 8.63244 3.29414 8.63244C5.21721 8.63296 7.14063 8.63278 9.06394 8.63261H9.06781L11.9544 8.63244ZM2.69997 21.2877H21.269C21.4275 20.4284 21.3432 20.3236 20.521 20.3236H3.42765C2.67577 20.3236 2.64376 20.3572 2.67655 21.1235C2.67762 21.1502 2.68196 21.1765 2.68885 21.2182C2.69204 21.2376 2.69577 21.2602 2.69997 21.2877ZM20.2852 19.6325C20.4195 18.7364 20.3415 18.6434 19.4904 18.6434H4.38956C4.35398 18.6434 4.31602 18.6396 4.27802 18.6359C4.19096 18.6273 4.10371 18.6187 4.04446 18.6551C3.89923 18.7435 3.73215 18.8717 3.68062 19.0195C3.63721 19.145 3.64697 19.2894 3.65697 19.4372C3.66135 19.5021 3.66578 19.5676 3.66578 19.6325H20.2852ZM4.37316 11.333V17.96H5.65128V11.333H4.37316ZM18.3567 11.3338V17.9608H19.6356V11.3338H18.3567ZM6.30478 9.33768H3.66344L3.66318 9.59926C3.66286 9.80851 3.66256 10.0094 3.66422 10.2102C3.66656 10.5183 3.82584 10.6528 4.13112 10.6449C4.31673 10.6404 4.50255 10.6415 4.68836 10.6427H4.68837H4.68838H4.68839C4.85274 10.6437 5.01709 10.6448 5.18126 10.6418C5.35948 10.6387 5.51135 10.6426 5.64049 10.6459H5.64051H5.64052H5.64053C6.35997 10.6644 6.37363 10.6647 6.30478 9.33768ZM17.6673 9.33611C17.6673 9.4326 17.664 9.52806 17.6607 9.62236V9.62237C17.6528 9.84748 17.6452 10.066 17.6837 10.2759C17.7095 10.4151 17.9086 10.6176 18.039 10.6254C18.6722 10.6622 19.3101 10.6622 19.9433 10.6262C20.0768 10.6184 20.2821 10.419 20.3079 10.2798C20.3475 10.0697 20.3398 9.85067 20.3318 9.62405V9.62397C20.3284 9.52931 20.3251 9.43332 20.3251 9.33611H17.6673ZM8.65713 13.645L8.65688 12.8528C8.65656 12.1927 8.65624 11.5326 8.65791 10.8726C8.65947 10.2025 8.88355 9.96951 9.53862 9.96873C11.1759 9.9656 12.8139 9.96639 14.4512 9.96873C15.1086 9.96951 15.3343 10.2009 15.3351 10.8694C15.3366 12.7178 15.3366 14.5653 15.3351 16.4136C15.3343 17.0931 15.1235 17.3065 14.4543 17.3073C12.8038 17.3089 11.1533 17.3096 9.5027 17.3073C8.88433 17.3065 8.66103 17.0813 8.65869 16.4558C8.65585 15.7748 8.65632 15.0938 8.65678 14.4125V14.4123V14.4122V14.4121C8.65696 14.1564 8.65713 13.9008 8.65713 13.645ZM9.37231 10.6646V15.4973C9.49822 15.3676 9.6179 15.2437 9.73348 15.1241L9.73357 15.124L9.73364 15.1239C9.99071 14.8579 10.2276 14.6128 10.4677 14.3706C10.9893 13.8436 11.0049 13.846 11.5179 14.3565C11.5816 14.4203 11.6479 14.4815 11.7215 14.5494L11.7215 14.5494C11.7616 14.5863 11.8038 14.6253 11.8489 14.6677C11.9905 14.5249 12.1309 14.3836 12.2704 14.2433C12.6346 13.8768 12.9922 13.517 13.3457 13.154C13.5635 12.9304 13.7641 12.9296 13.9804 13.1525C14.122 13.2986 14.2678 13.4401 14.4277 13.5953L14.4278 13.5953L14.4278 13.5954C14.4946 13.6602 14.5638 13.7274 14.6363 13.7983V10.6638C12.8756 10.6646 11.1369 10.6646 9.37231 10.6646ZM12.3541 15.1791L12.3647 15.1933C12.3778 15.2112 12.3956 15.2355 12.4165 15.2565C12.6039 15.4386 12.7858 15.6443 12.5329 15.8804C12.3004 16.098 12.1208 15.9126 11.9578 15.7444L11.9426 15.7287C11.7822 15.5635 11.6219 15.3981 11.4625 15.2334L11.4614 15.2323L11.4607 15.2316L11.4601 15.231L11.4595 15.2304C11.3173 15.0836 11.1758 14.9375 11.0354 14.7928C10.1406 15.5223 9.38481 16.3659 9.377 16.6278H14.6542C14.6542 16.4841 14.6545 16.3419 14.6548 16.2007C14.6556 15.7583 14.6565 15.3266 14.6488 14.8945C14.6472 14.8155 14.5933 14.7232 14.5371 14.6607C14.3401 14.441 14.1384 14.2256 13.9442 14.018L13.9439 14.0177L13.9438 14.0176L13.9438 14.0176L13.9437 14.0174C13.8733 13.9423 13.8039 13.8681 13.736 13.7952L12.3541 15.1791ZM9.82057 7.98018H9.82065H9.82073C10.5377 7.97992 11.2546 7.97967 11.9715 7.97967C12.663 7.97967 13.3546 7.97984 14.0462 7.98002C15.8905 7.98048 17.7349 7.98095 19.5793 7.97811C20.1602 7.97654 20.5607 7.65598 20.6497 7.14855C20.734 6.67005 20.4584 6.22439 19.933 6.03831C17.4243 5.15011 14.915 4.2627 12.3993 3.39405C12.1721 3.31508 11.8715 3.30413 11.6467 3.38154C9.10525 4.25566 6.56931 5.14464 4.04118 6.05707C3.79914 6.14464 3.54773 6.37685 3.43062 6.60828C3.09098 7.27834 3.62034 7.97654 4.44249 7.97811C6.23498 7.98146 8.02786 7.98082 9.82057 7.98018ZM19.3685 7.29867H11.9933H4.73684L4.64561 7.29849C4.58497 7.29832 4.52445 7.29815 4.46357 7.29867C4.26136 7.30023 4.01463 7.29476 4.03884 7.03362C4.05133 6.89366 4.23091 6.71462 4.37691 6.65207C4.72982 6.5012 5.094 6.37606 5.45814 6.25092L5.45815 6.25092L5.45817 6.25091L5.4583 6.25087C5.57345 6.2113 5.68859 6.17173 5.80338 6.13135C6.22803 5.98193 6.65254 5.83215 7.07704 5.68236L7.07717 5.68231L7.07729 5.68227L7.0773 5.68227C8.58751 5.14938 10.0976 4.61654 11.6139 4.10085C11.8489 4.02032 12.1588 4.02032 12.3939 4.10085C14.3414 4.7701 16.2836 5.45556 18.2258 6.14098L18.226 6.14102L18.2267 6.14128C18.6598 6.29414 19.093 6.447 19.5262 6.59968C19.5514 6.6087 19.578 6.61697 19.6048 6.62532C19.6941 6.65315 19.7862 6.68184 19.8408 6.74198C19.9166 6.82486 19.9728 6.97185 19.9556 7.0774C19.9423 7.1595 19.8127 7.25019 19.7167 7.28381C19.6404 7.31059 19.5526 7.30623 19.4652 7.30189C19.4327 7.30028 19.4002 7.29867 19.3685 7.29867ZM11.9956 12.3228C11.9886 12.8685 11.5412 13.3087 10.9939 13.3072C10.4474 13.3056 10.0008 12.8631 9.99529 12.3173C9.98982 11.7599 10.4598 11.2978 11.0189 11.3119C11.567 11.3259 12.0026 11.7771 11.9956 12.3228ZM11.0056 11.8435C10.9522 11.915 10.8965 11.9778 10.8472 12.0335C10.7524 12.1406 10.681 12.2213 10.6933 12.2861C10.7103 12.3772 10.8027 12.454 10.8949 12.5307C10.934 12.5633 10.9731 12.5957 11.0064 12.6293C11.0377 12.5963 11.0757 12.5639 11.1137 12.5315L11.1138 12.5315C11.2 12.4582 11.2861 12.3849 11.2937 12.304C11.3009 12.2291 11.2359 12.1467 11.1493 12.0369C11.1048 11.9806 11.0546 11.917 11.0056 11.8435ZM12.0145 6.6435C12.5509 6.63021 13.0053 6.16343 12.999 5.62942C12.9936 5.09072 12.5337 4.6349 11.9973 4.63568C11.4453 4.6349 10.9753 5.11809 10.9932 5.66695C11.0104 6.20331 11.4836 6.65601 12.0145 6.6435ZM12.2699 5.49555C12.3244 5.54356 12.3862 5.59806 12.4587 5.6521C12.383 5.70228 12.3164 5.75488 12.2576 5.80122C12.1461 5.8892 12.0631 5.95465 12.0012 5.93826C11.912 5.91525 11.8409 5.82047 11.7698 5.72571C11.7394 5.68523 11.709 5.64475 11.6772 5.60988C11.7115 5.5805 11.7455 5.54457 11.7795 5.50861C11.8568 5.42686 11.9342 5.34502 12.016 5.34013C12.0888 5.33603 12.1659 5.40396 12.2699 5.49555Z" fill="#333333"/>
</svg>
