<svg width="24" height="24" viewBox="0 0 24 24" fill="none" xmlns="http://www.w3.org/2000/svg">
<path d="M9.49999 22H14.5M12 22V14.4729M12 14.4729L5 6.67696H19L12 14.4729ZM7.34998 9.09635C7.34998 9.09635 8.50496 8.71999 9.1 8.71999C9.69504 8.71999 10.255 9.09635 10.85 9.09635C11.4451 9.09635 12.005 8.71999 12.6 8.71999C13.1951 8.71999 13.755 9.09635 14.3501 9.09635C14.9451 9.09635 15.5051 8.70983 16.1001 8.71999C16.3637 8.7245 16.8701 8.91322 16.8701 8.91322M13.55 8.82753L15.588 4.51398M16.423 2.74674L16.7759 1.99997M16.88 3.62844C16.88 4.16291 16.4771 4.59618 15.98 4.59618C15.483 4.59618 15.08 4.16291 15.08 3.62844C15.08 3.09396 15.483 2.66069 15.98 2.66069C16.4771 2.66069 16.88 3.09396 16.88 3.62844Z" stroke="#333333" stroke-width="0.8" stroke-linecap="round" stroke-linejoin="round"/>
</svg>
