<svg width="32" height="33" viewBox="0 0 32 33" fill="none" xmlns="http://www.w3.org/2000/svg">
<g id="1.TH.PARQUES">
<path id="Vector" d="M3.65622 16.4363C2.30004 21.2227 6.50514 23.0801 8.77722 23.4106C10.7079 22.9739 14.8518 22.1361 13.4038 16.4363C14.4633 11.8694 12.4149 10.1701 8.49468 7.23169C3.29598 11.1968 3.10292 15.0202 3.65622 16.4363Z" stroke="#333333" stroke-width="0.8" stroke-linejoin="round"/>
<path id="Vector_2" d="M17.926 14.6839C16.5707 20.6729 20.7731 22.997 23.0437 23.4105C24.9731 22.8642 29.1144 21.8158 27.6673 14.6839C29.3335 9.83325 26.9614 7.50993 23.0437 3.83325C17.8483 8.79456 16.6669 11.1666 17.926 14.6839Z" stroke="#333333" stroke-width="0.8" stroke-linejoin="round"/>
<path id="Vector_3" d="M2.66602 29.8333H29.3327" stroke="#333333" stroke-width="0.8" stroke-linecap="round"/>
<path id="Vector_4" d="M8.70898 29.8333V16.6626" stroke="#333333" stroke-width="0.8" stroke-linecap="round"/>
<path id="Vector_5" d="M11.3482 17.4254C11.4103 17.2134 11.2887 16.9912 11.0767 16.9291C10.8647 16.867 10.6425 16.9885 10.5804 17.2006L11.3482 17.4254ZM9.15376 19.5911C9.43384 18.9694 9.81599 18.7343 10.2076 18.5284C10.5823 18.3313 11.1506 18.1 11.3482 17.4254L10.5804 17.2006C10.4973 17.4842 10.3113 17.57 9.83522 17.8203C9.37602 18.0618 8.81089 18.4045 8.42436 19.2625L9.15376 19.5911Z" fill="#333333"/>
<path id="Vector_6" d="M22.9688 29.8333V16.9065" stroke="#333333" stroke-width="0.8" stroke-linecap="round"/>
<path id="Vector_7" d="M25.3002 17.1504C25.4061 18.6587 23.7461 18.3894 23.0043 20.0772C22.4745 18.4253 21.4856 19.2333 20.3906 17.4916" stroke="#333333" stroke-width="0.8" stroke-linecap="round"/>
</g>
</svg>
