<svg width="24" height="24" viewBox="0 0 24 24" fill="none" xmlns="http://www.w3.org/2000/svg">
<path d="M15.7551 13.6245V21.6898L15.4449 22H8.93061L8.6204 21.6898V13.6245M15.7551 13.6245L16.3755 13.0041V7.42048L16.0653 7.11028M15.7551 13.6245H8.6204M8.3102 6.80008L8 7.42048V13.0041L8.6204 13.6245M8.3102 6.80008V4.93887M8.3102 6.80008H8.93061M10.7918 15.4857V20.449M13.2734 15.4857V20.449M16.0653 7.11028L15.7551 6.80008H15.4449M16.0653 7.11028V4.93887M8.93061 6.80008L10.1714 3.69806H12.1877M8.93061 6.80008H15.4449M15.4449 6.80008L14.204 3.69806H12.1877M12.1877 3.69806V2M12.3428 8.35108C13.2429 8.39009 14.204 8.97149 14.204 10.2123C14.204 11.4531 13.2734 12.0735 12.3428 12.0735C11.4122 12.0735 10.4816 11.4531 10.4816 10.2123C10.4816 8.97149 11.4427 8.31208 12.3428 8.35108Z" stroke="#333333" stroke-width="0.8" stroke-linecap="round" stroke-linejoin="round"/>
</svg>
