<svg width="48" height="48" viewBox="0 0 48 48" fill="none" xmlns="http://www.w3.org/2000/svg">
<path d="M29.5559 45C30.1082 45 30.5559 44.5523 30.5559 44C30.5559 43.4477 30.1082 43 29.5559 43V45ZM18.8892 43C18.3369 43 17.8892 43.4477 17.8892 44C17.8892 44.5523 18.3369 45 18.8892 45V43ZM24.2224 18.1111H10.0002V20.1111H24.2224V18.1111ZM10.0002 19.1111C11.0002 19.1111 11.0002 19.1115 11.0002 19.1119C11.0002 19.112 11.0002 19.1123 11.0002 19.1125C11.0002 19.1128 11.0002 19.113 11.0002 19.1132C11.0002 19.1134 11.0002 19.1131 11.0002 19.1124C11.0002 19.1109 11.0003 19.1076 11.0003 19.1025C11.0005 19.0923 11.0008 19.0749 11.0015 19.0509C11.0029 19.0028 11.0059 18.9281 11.0121 18.8307C11.0245 18.6356 11.0496 18.3512 11.1005 18.0077C11.2031 17.3155 11.4063 16.4096 11.8029 15.5172C12.1991 14.6258 12.7729 13.7816 13.6002 13.1611C14.4152 12.5499 15.5346 12.1111 17.1113 12.1111V10.1111C15.1325 10.1111 13.5852 10.6724 12.4002 11.5611C11.2275 12.4406 10.468 13.5964 9.97529 14.705C9.483 15.8126 9.2418 16.9067 9.12212 17.7146C9.0619 18.121 9.0315 18.4616 9.01611 18.704C9.0084 18.8254 9.00443 18.9226 9.00239 18.9917C9.00136 19.0262 9.00082 19.0538 9.00053 19.0738C9.00039 19.0839 9.00031 19.092 9.00026 19.0983C9.00024 19.1014 9.00023 19.104 9.00022 19.1062C9.00022 19.1072 9.00021 19.1082 9.00021 19.109C9.00021 19.1094 9.00021 19.1099 9.00021 19.1101C9.00021 19.1106 9.00021 19.1111 10.0002 19.1111ZM17.1113 12.1111C18.6881 12.1111 19.8074 12.5499 20.6224 13.1611C21.4498 13.7816 22.0236 14.6258 22.4197 15.5172C22.8163 16.4096 23.0196 17.3155 23.1221 18.0077C23.173 18.3512 23.1982 18.6356 23.2106 18.8307C23.2167 18.9281 23.2197 19.0028 23.2211 19.0509C23.2218 19.0749 23.2222 19.0923 23.2223 19.1025C23.2224 19.1076 23.2224 19.1109 23.2224 19.1124C23.2224 19.1131 23.2224 19.1134 23.2224 19.1132C23.2224 19.113 23.2224 19.1128 23.2224 19.1125C23.2224 19.1123 23.2224 19.112 23.2224 19.1119C23.2224 19.1115 23.2224 19.1111 24.2224 19.1111C25.2224 19.1111 25.2224 19.1106 25.2224 19.1101C25.2224 19.1099 25.2224 19.1094 25.2224 19.109C25.2224 19.1082 25.2224 19.1072 25.2224 19.1062C25.2224 19.104 25.2224 19.1014 25.2224 19.0983C25.2223 19.092 25.2223 19.0839 25.2221 19.0738C25.2218 19.0538 25.2213 19.0262 25.2203 18.9917C25.2182 18.9226 25.2142 18.8254 25.2065 18.704C25.1911 18.4616 25.1607 18.121 25.1005 17.7146C24.9808 16.9067 24.7396 15.8126 24.2474 14.705C23.7547 13.5964 22.9951 12.4406 21.8224 11.5611C20.6374 10.6724 19.0901 10.1111 17.1113 10.1111V12.1111ZM15.3335 12C16.3335 12 16.3335 12.0005 16.3335 12.001C16.3335 12.0011 16.3335 12.0016 16.3335 12.0018C16.3335 12.0023 16.3335 12.0027 16.3335 12.0029C16.3335 12.0034 16.3335 12.0034 16.3335 12.003C16.3335 12.0022 16.3336 11.9995 16.3337 11.995C16.3338 11.986 16.3342 11.9699 16.335 11.9472C16.3367 11.9017 16.3403 11.8298 16.3478 11.7354C16.3628 11.5461 16.3934 11.2684 16.4557 10.9321C16.5811 10.2553 16.83 9.36542 17.3188 8.48564C17.8044 7.61165 18.5232 6.7524 19.598 6.10749C20.6714 5.46348 22.155 5 24.2224 5V3C21.8454 3 19.9957 3.53652 18.569 4.39251C17.1439 5.2476 16.1961 6.38835 15.5705 7.51436C14.9482 8.63458 14.6416 9.74473 14.4892 10.5679C14.4125 10.9816 14.3737 11.3289 14.354 11.5771C14.3442 11.7014 14.3391 11.8015 14.3364 11.8731C14.3351 11.909 14.3344 11.9378 14.334 11.9591C14.3338 11.9698 14.3337 11.9786 14.3336 11.9854C14.3336 11.9888 14.3336 11.9917 14.3336 11.9942C14.3336 11.9954 14.3335 11.9965 14.3335 11.9975C14.3335 11.9979 14.3335 11.9986 14.3335 11.9988C14.3335 11.9994 14.3335 12 15.3335 12ZM24.2224 5C26.2899 5 27.7735 5.46348 28.8468 6.10749C29.9217 6.7524 30.6405 7.61165 31.1261 8.48564C31.6148 9.36542 31.8638 10.2553 31.9892 10.9321C32.0514 11.2684 32.0821 11.5461 32.0971 11.7354C32.1046 11.8298 32.1082 11.9017 32.1098 11.9472C32.1107 11.9699 32.1111 11.986 32.1112 11.995C32.1113 11.9995 32.1113 12.0022 32.1113 12.003C32.1113 12.0034 32.1113 12.0034 32.1113 12.0029C32.1113 12.0027 32.1113 12.0023 32.1113 12.0018C32.1113 12.0016 32.1113 12.0011 32.1113 12.001C32.1113 12.0005 32.1113 12 33.1113 12C34.1113 12 34.1113 11.9994 34.1113 11.9988C34.1113 11.9986 34.1113 11.9979 34.1113 11.9975C34.1113 11.9965 34.1113 11.9954 34.1113 11.9942C34.1113 11.9917 34.1113 11.9888 34.1113 11.9854C34.1112 11.9786 34.1111 11.9698 34.1109 11.9591C34.1105 11.9378 34.1098 11.909 34.1085 11.8731C34.1058 11.8015 34.1007 11.7014 34.0908 11.5771C34.0711 11.3289 34.0323 10.9816 33.9557 10.5679C33.8033 9.74473 33.4967 8.63458 32.8744 7.51436C32.2488 6.38835 31.301 5.2476 29.8758 4.39251C28.4492 3.53652 26.5994 3 24.2224 3V5ZM24.2225 45H29.5559V43H24.2225V45ZM24.2225 43H18.8892V45H24.2225V43ZM25.2225 44V34.2222H23.2225V44H25.2225ZM24.4014 33.2384C19.6433 32.3732 16.3084 30.7107 14.1662 28.3897C12.0378 26.0837 10.9832 23.0152 11.0002 19.1155L9.00022 19.1068C8.98159 23.3881 10.1493 26.9864 12.6965 29.7462C15.2299 32.491 19.024 34.2934 24.0437 35.2061L24.4014 33.2384ZM24.333 35.2161C32.7132 34.285 40.0728 27.5263 39.442 19.037L37.4475 19.1852C37.9773 26.316 31.7319 32.3817 24.1121 33.2283L24.333 35.2161ZM38.4448 18.1111H10.0002V20.1111H38.4448V18.1111ZM38.4448 18.1111H24.2224V20.1111H38.4448V18.1111ZM24.2224 19.1111C25.2224 19.1111 25.2224 19.1115 25.2224 19.1119C25.2224 19.112 25.2224 19.1123 25.2224 19.1125C25.2224 19.1128 25.2224 19.1131 25.2224 19.1132C25.2224 19.1134 25.2224 19.1131 25.2224 19.1124C25.2224 19.1109 25.2225 19.1076 25.2225 19.1025C25.2227 19.0923 25.223 19.0749 25.2237 19.0509C25.2252 19.0028 25.2281 18.9281 25.2343 18.8307C25.2467 18.6356 25.2719 18.3512 25.3228 18.0077C25.4253 17.3155 25.6285 16.4096 26.0252 15.5173C26.4213 14.6258 26.9951 13.7816 27.8225 13.1611C28.6375 12.5499 29.7568 12.1111 31.3336 12.1111V10.1111C29.3548 10.1111 27.8075 10.6724 26.6225 11.5611C25.4498 12.4406 24.6902 13.5964 24.1975 14.705C23.7052 15.8126 23.464 16.9067 23.3443 17.7146C23.2841 18.121 23.2537 18.4616 23.2383 18.704C23.2306 18.8254 23.2267 18.9226 23.2246 18.9916C23.2236 19.0262 23.223 19.0538 23.2228 19.0738C23.2226 19.0839 23.2225 19.092 23.2225 19.0983C23.2225 19.1014 23.2225 19.104 23.2224 19.1061C23.2224 19.1072 23.2224 19.1082 23.2224 19.109C23.2224 19.1094 23.2224 19.1099 23.2224 19.1101C23.2224 19.1106 23.2224 19.1111 24.2224 19.1111ZM31.3336 12.1111C32.9103 12.1111 34.0297 12.5499 34.8447 13.1611C35.6721 13.7816 36.2458 14.6258 36.642 15.5173C37.0386 16.4096 37.2419 17.3155 37.3444 18.0077C37.3953 18.3512 37.4205 18.6356 37.4329 18.8307C37.4391 18.9281 37.442 19.0028 37.4435 19.0509C37.4442 19.0749 37.4445 19.0923 37.4446 19.1025C37.4447 19.1076 37.4447 19.1109 37.4448 19.1124C37.4448 19.1131 37.4448 19.1134 37.4448 19.1132C37.4448 19.1131 37.4448 19.1128 37.4448 19.1125C37.4448 19.1123 37.4448 19.112 37.4448 19.1119C37.4448 19.1115 37.4448 19.1111 38.4448 19.1111C39.4448 19.1111 39.4448 19.1106 39.4448 19.1101C39.4448 19.1099 39.4448 19.1094 39.4448 19.109C39.4448 19.1082 39.4448 19.1072 39.4448 19.1061C39.4447 19.104 39.4447 19.1014 39.4447 19.0982C39.4447 19.092 39.4446 19.0839 39.4444 19.0738C39.4442 19.0538 39.4436 19.0262 39.4426 18.9916C39.4405 18.9226 39.4366 18.8253 39.4289 18.704C39.4135 18.4616 39.3831 18.121 39.3228 17.7146C39.2032 16.9067 38.9619 15.8126 38.4696 14.705C37.9769 13.5964 37.2174 12.4406 36.0447 11.5611C34.8597 10.6724 33.3124 10.1111 31.3336 10.1111V12.1111Z" fill="#333333"/>
</svg>
