<svg width="24" height="24" viewBox="0 0 24 24" fill="none" xmlns="http://www.w3.org/2000/svg">
<path d="M14.7779 22.4C14.9988 22.4 15.1779 22.2209 15.1779 22C15.1779 21.7791 14.9988 21.6 14.7779 21.6V22.4ZM9.4446 21.6C9.22369 21.6 9.0446 21.7791 9.0446 22C9.0446 22.2209 9.22369 22.4 9.4446 22.4V21.6ZM12.1112 9.15556H5.00011V9.95556H12.1112V9.15556ZM5.00011 9.55556C5.40011 9.55556 5.40011 9.55571 5.40011 9.55586C5.40011 9.55589 5.4001 9.55601 5.4001 9.55607C5.4001 9.55618 5.4001 9.55623 5.4001 9.55623C5.4001 9.55621 5.40011 9.55596 5.40011 9.55548C5.40012 9.55451 5.40013 9.55261 5.40017 9.54981C5.40025 9.54422 5.40043 9.53503 5.4008 9.52248C5.40154 9.49738 5.40308 9.45892 5.40625 9.40903C5.41259 9.30911 5.42543 9.16409 5.45134 8.98917C5.50347 8.6373 5.60699 8.17495 5.81007 7.71801C6.01299 7.26145 6.30917 6.82376 6.74011 6.50056C7.16611 6.18105 7.74718 5.95556 8.55566 5.95556V5.15556C7.58637 5.15556 6.8341 5.43006 6.26011 5.86056C5.69104 6.28735 5.32055 6.84967 5.07903 7.3931C4.83767 7.93616 4.71896 8.47381 4.65998 8.87194C4.63034 9.07202 4.6154 9.2395 4.60785 9.35833C4.60408 9.41782 4.60214 9.4653 4.60115 9.49879C4.60065 9.51554 4.60039 9.52881 4.60025 9.53835C4.60019 9.54312 4.60015 9.54696 4.60013 9.54983C4.60012 9.55127 4.60011 9.55247 4.60011 9.55343C4.60011 9.5539 4.60011 9.55432 4.60011 9.55468C4.60011 9.55485 4.60011 9.55507 4.60011 9.55516C4.60011 9.55537 4.60011 9.55556 5.00011 9.55556ZM8.55566 5.95556C9.36414 5.95556 9.94521 6.18105 10.3712 6.50056C10.8022 6.82376 11.0983 7.26145 11.3012 7.71801C11.5043 8.17496 11.6079 8.6373 11.66 8.98917C11.6859 9.16409 11.6987 9.30911 11.7051 9.40903C11.7082 9.45892 11.7098 9.49738 11.7105 9.52248C11.7109 9.53503 11.7111 9.54422 11.7111 9.54981C11.7112 9.55261 11.7112 9.55451 11.7112 9.55548C11.7112 9.55596 11.7112 9.55621 11.7112 9.55623C11.7112 9.55623 11.7112 9.55618 11.7112 9.55607C11.7112 9.55601 11.7112 9.55589 11.7112 9.55586C11.7112 9.55571 11.7112 9.55556 12.1112 9.55556C12.5112 9.55556 12.5112 9.55537 12.5112 9.55516C12.5112 9.55507 12.5112 9.55485 12.5112 9.55468C12.5112 9.55432 12.5112 9.5539 12.5112 9.55343C12.5112 9.55247 12.5112 9.55127 12.5112 9.54983C12.5112 9.54696 12.5111 9.54312 12.5111 9.53835C12.5109 9.52881 12.5107 9.51554 12.5102 9.49879C12.5092 9.4653 12.5072 9.41782 12.5035 9.35833C12.4959 9.2395 12.481 9.07202 12.4513 8.87194C12.3924 8.47381 12.2737 7.93616 12.0323 7.3931C11.7908 6.84966 11.4203 6.28735 10.8512 5.86056C10.2772 5.43006 9.52496 5.15556 8.55566 5.15556V5.95556ZM7.66677 6C8.06677 6 8.06677 6.0002 8.06677 6.00039C8.06677 6.00043 8.06677 6.0006 8.06677 6.00069C8.06677 6.00086 8.06677 6.00097 8.06677 6.00102C8.06677 6.00112 8.06677 6.00099 8.06677 6.00063C8.06678 5.9999 8.0668 5.99824 8.06684 5.99569C8.06693 5.99059 8.06714 5.9819 8.06758 5.96988C8.06847 5.94583 8.07033 5.90849 8.0742 5.85977C8.08194 5.7622 8.09767 5.61986 8.12953 5.44784C8.19355 5.10211 8.32093 4.64617 8.57199 4.19426C8.82177 3.74466 9.19263 3.30096 9.74757 2.968C10.3019 2.63539 11.062 2.4 12.1112 2.4V1.6C10.9382 1.6 10.0316 1.86461 9.33597 2.282C8.64091 2.69904 8.17844 3.25534 7.87266 3.80574C7.56817 4.35383 7.41777 4.89789 7.3429 5.30216C7.30532 5.50514 7.28632 5.6753 7.27671 5.79648C7.27189 5.85714 7.26941 5.90574 7.26813 5.94027C7.26749 5.95755 7.26715 5.97133 7.26697 5.98136C7.26688 5.98637 7.26683 5.99046 7.2668 5.99357C7.26679 5.99513 7.26678 5.99645 7.26678 5.99752C7.26678 5.99806 7.26677 5.99853 7.26677 5.99895C7.26677 5.99915 7.26677 5.99942 7.26677 5.99952C7.26677 5.99977 7.26677 6 7.66677 6ZM12.1112 2.4C13.1604 2.4 13.9205 2.63539 14.4749 2.968C15.0298 3.30096 15.4007 3.74466 15.6504 4.19426C15.9015 4.64617 16.0289 5.10211 16.0929 5.44784C16.1248 5.61986 16.1405 5.7622 16.1482 5.85977C16.1521 5.90849 16.154 5.94583 16.1549 5.96988C16.1553 5.9819 16.1555 5.99059 16.1556 5.99569C16.1556 5.99824 16.1557 5.9999 16.1557 6.00063C16.1557 6.00099 16.1557 6.00112 16.1557 6.00102C16.1557 6.00097 16.1557 6.00086 16.1557 6.00069C16.1557 6.0006 16.1557 6.00043 16.1557 6.00039C16.1557 6.0002 16.1557 6 16.5557 6C16.9557 6 16.9557 5.99977 16.9557 5.99952C16.9557 5.99942 16.9557 5.99915 16.9557 5.99895C16.9557 5.99853 16.9557 5.99806 16.9557 5.99752C16.9557 5.99645 16.9556 5.99513 16.9556 5.99357C16.9556 5.99046 16.9556 5.98637 16.9555 5.98136C16.9553 5.97133 16.9549 5.95755 16.9543 5.94027C16.953 5.90574 16.9505 5.85714 16.9457 5.79648C16.9361 5.6753 16.9171 5.50514 16.8795 5.30216C16.8047 4.89789 16.6543 4.35383 16.3498 3.80574C16.044 3.25534 15.5815 2.69904 14.8865 2.282C14.1908 1.86461 13.2842 1.6 12.1112 1.6V2.4ZM12.1113 22.4H14.7779V21.6H12.1113V22.4ZM12.1113 21.6H9.4446V22.4H12.1113V21.6ZM12.5113 22V17.1111H11.7113V22H12.5113ZM12.1828 16.7176C9.79067 16.2826 8.10027 15.4443 7.00961 14.2627C5.92448 13.087 5.39153 11.5263 5.4001 9.5573L4.60011 9.55381C4.59088 11.6754 5.16907 13.448 6.42174 14.8053C7.66889 16.1565 9.54298 17.0507 12.0397 17.5047L12.1828 16.7176ZM12.1554 17.5087C16.3075 17.0473 19.9316 13.7026 19.6213 9.52592L18.8235 9.58519C19.0934 13.2185 15.915 16.286 12.0671 16.7136L12.1554 17.5087ZM19.2224 9.15556H5.00011V9.95556H19.2224V9.15556ZM19.2224 9.15556H12.1112V9.95556H19.2224V9.15556ZM12.1112 9.55556C12.5112 9.55556 12.5112 9.55572 12.5112 9.55586C12.5112 9.55589 12.5112 9.55602 12.5112 9.55607C12.5112 9.55618 12.5112 9.55624 12.5112 9.55623C12.5112 9.55621 12.5112 9.55596 12.5112 9.55548C12.5112 9.55451 12.5112 9.55261 12.5113 9.54982C12.5114 9.54422 12.5115 9.53503 12.5119 9.52248C12.5127 9.49738 12.5142 9.45892 12.5174 9.40903C12.5237 9.30911 12.5365 9.16409 12.5625 8.98918C12.6146 8.63731 12.7181 8.17496 12.9212 7.71801C13.1241 7.26145 13.4203 6.82376 13.8512 6.50056C14.2772 6.18105 14.8583 5.95556 15.6668 5.95556V5.15556C14.6975 5.15556 13.9452 5.43006 13.3712 5.86055C12.8022 6.28735 12.4317 6.84966 12.1901 7.3931C11.9488 7.93615 11.8301 8.4738 11.7711 8.87193C11.7415 9.07202 11.7265 9.2395 11.719 9.35833C11.7152 9.41781 11.7133 9.46529 11.7123 9.49879C11.7118 9.51554 11.7115 9.52881 11.7114 9.53834C11.7113 9.54312 11.7113 9.54695 11.7112 9.54983C11.7112 9.55127 11.7112 9.55247 11.7112 9.55342C11.7112 9.5539 11.7112 9.55432 11.7112 9.55467C11.7112 9.55485 11.7112 9.55507 11.7112 9.55516C11.7112 9.55536 11.7112 9.55555 12.1112 9.55556ZM15.6668 5.95556C16.4753 5.95556 17.0563 6.18105 17.4824 6.50056C17.9133 6.82376 18.2095 7.26145 18.4124 7.71801C18.6155 8.17496 18.719 8.63731 18.7711 8.98918C18.7971 9.1641 18.8099 9.30911 18.8162 9.40903C18.8194 9.45892 18.8209 9.49738 18.8217 9.52248C18.8221 9.53503 18.8222 9.54422 18.8223 9.54982C18.8224 9.55262 18.8224 9.55451 18.8224 9.55548C18.8224 9.55596 18.8224 9.55622 18.8224 9.55623C18.8224 9.55624 18.8224 9.55618 18.8224 9.55607C18.8224 9.55602 18.8224 9.55589 18.8224 9.55586C18.8224 9.55572 18.8224 9.55556 19.2224 9.55556C19.6224 9.55555 19.6224 9.55536 19.6224 9.55516C19.6224 9.55507 19.6224 9.55485 19.6224 9.55467C19.6224 9.55432 19.6224 9.5539 19.6224 9.55342C19.6224 9.55247 19.6224 9.55127 19.6224 9.54983C19.6223 9.54695 19.6223 9.54311 19.6222 9.53834C19.6221 9.5288 19.6218 9.51553 19.6213 9.49878C19.6203 9.46529 19.6184 9.41781 19.6146 9.35833C19.6071 9.2395 19.5921 9.07201 19.5625 8.87193C19.5035 8.4738 19.3848 7.93615 19.1434 7.3931C18.9019 6.84966 18.5314 6.28735 17.9624 5.86055C17.3884 5.43006 16.6361 5.15556 15.6668 5.15556V5.95556Z" fill="#333333"/>
</svg>
