<svg width="24" height="24" viewBox="0 0 24 24" fill="none" xmlns="http://www.w3.org/2000/svg">
<path d="M7.32 3C6.20625 3 5.39203 3.14344 4.83375 3.63C4.27547 4.11656 4.08 4.88297 4.08 5.88V7.32H3.72C3.32625 7.32 3 7.64625 3 8.04V10.92C3 11.3138 3.32625 11.64 3.72 11.64H4.08V17.76C4.08 18.2002 4.21781 18.57 4.44 18.8513V19.92C4.44 20.512 4.92797 21 5.52 21H6.96C7.55203 21 8.04 20.512 8.04 19.92V19.56H15.96V19.92C15.96 20.512 16.448 21 17.04 21H18.48C19.072 21 19.56 20.512 19.56 19.92V18.8513C19.7822 18.57 19.92 18.2002 19.92 17.76V11.64H20.28C20.6737 11.64 21 11.3138 21 10.92V8.04C21 7.64625 20.6737 7.32 20.28 7.32H19.92V6.24C19.92 5.28797 19.8441 4.50891 19.4587 3.91125C19.0734 3.31359 18.3675 3 17.4 3H7.32ZM7.32 3.72H17.4C18.2325 3.72 18.6066 3.91547 18.8513 4.29375C19.0959 4.67203 19.2 5.33438 19.2 6.24V17.76C19.2 18.2592 19.0566 18.4561 18.7613 18.615C18.4659 18.7739 17.9709 18.84 17.4 18.84H6.6C6.02906 18.84 5.53406 18.7739 5.23875 18.615C4.94344 18.4561 4.8 18.2592 4.8 17.76V5.88C4.8 4.97438 4.96453 4.47938 5.30625 4.18125C5.64797 3.88313 6.27375 3.72 7.32 3.72ZM8.4 4.08C8.00625 4.08 7.68 4.40625 7.68 4.8V5.52C7.68 5.91375 8.00625 6.24 8.4 6.24H15.96C16.3538 6.24 16.68 5.91375 16.68 5.52V4.8C16.68 4.40625 16.3538 4.08 15.96 4.08H8.4ZM8.4 4.8H15.96V5.52H8.4V4.8ZM6.96 6.6C6.53953 6.6 6.15563 6.70688 5.89125 6.97125C5.62688 7.23563 5.52 7.61953 5.52 8.04V12.36C5.52 12.7805 5.62688 13.1644 5.89125 13.4288C6.15563 13.6931 6.53953 13.8 6.96 13.8L17.04 13.7775C17.3339 13.7775 17.6503 13.665 17.94 13.44C18.2297 13.215 18.48 12.8367 18.48 12.36V8.04C18.48 7.61953 18.3731 7.23563 18.1088 6.97125C17.8444 6.70688 17.4605 6.6 17.04 6.6H6.96ZM6.96 7.32H17.04C17.3395 7.32 17.4956 7.39313 17.5913 7.48875C17.6869 7.58437 17.76 7.74047 17.76 8.04V12.36C17.76 12.6033 17.6573 12.7453 17.5013 12.8663C17.3452 12.9872 17.123 13.0575 17.04 13.0575L6.96 13.08C6.66047 13.08 6.50437 13.0069 6.40875 12.9113C6.31313 12.8156 6.24 12.6595 6.24 12.36V8.04C6.24 7.74047 6.31313 7.58437 6.40875 7.48875C6.50437 7.39313 6.66047 7.32 6.96 7.32ZM3.72 8.04H4.08V10.92H3.72V8.04ZM19.92 8.04H20.28V10.92H19.92V8.04ZM7.14 14.88C6.24984 14.88 5.52 15.6098 5.52 16.5C5.52 17.3902 6.24984 18.12 7.14 18.12C8.03016 18.12 8.76 17.3902 8.76 16.5C8.76 15.6098 8.03016 14.88 7.14 14.88ZM16.86 14.88C15.9698 14.88 15.24 15.6098 15.24 16.5C15.24 17.3902 15.9698 18.12 16.86 18.12C17.7502 18.12 18.48 17.3902 18.48 16.5C18.48 15.6098 17.7502 14.88 16.86 14.88ZM7.14 15.6C7.64063 15.6 8.04 15.9994 8.04 16.5C8.04 17.0006 7.64063 17.4 7.14 17.4C6.63938 17.4 6.24 17.0006 6.24 16.5C6.24 15.9994 6.63938 15.6 7.14 15.6ZM16.86 15.6C17.3606 15.6 17.76 15.9994 17.76 16.5C17.76 17.0006 17.3606 17.4 16.86 17.4C16.3594 17.4 15.96 17.0006 15.96 16.5C15.96 15.9994 16.3594 15.6 16.86 15.6ZM5.16 19.3575C5.59172 19.5206 6.08391 19.56 6.6 19.56H7.32V19.92C7.32 20.1225 7.1625 20.28 6.96 20.28H5.52C5.3175 20.28 5.16 20.1225 5.16 19.92V19.3575ZM18.84 19.3575V19.92C18.84 20.1225 18.6825 20.28 18.48 20.28H17.04C16.8375 20.28 16.68 20.1225 16.68 19.92V19.56H17.4C17.9161 19.56 18.4083 19.5206 18.84 19.3575Z" fill="#333333"/>
</svg>
