<svg width="24" height="24" viewBox="0 0 24 24" fill="none" xmlns="http://www.w3.org/2000/svg">
<path d="M17.0351 21.9997H3.46444C2.0522 21.2964 1.91981 19.9484 2.03014 19.3623H17.9178C18.006 20.3293 17.3661 21.5235 17.0351 21.9997Z" stroke="#333333" stroke-width="0.8" stroke-linejoin="round"/>
<path d="M3.3542 19.363C3.24387 17.0919 4.43544 12.5498 10.0844 12.5498C15.7333 12.5498 16.9984 17.0919 16.9249 19.363" stroke="#333333" stroke-width="0.8"/>
<path d="M6.22266 17.3843C6.33299 16.8348 6.84051 15.67 7.98795 15.4062" stroke="#333333" stroke-width="0.8" stroke-linecap="round" stroke-linejoin="round"/>
<path d="M9.31201 14.9668H10.0843" stroke="#333333" stroke-width="0.8" stroke-linecap="round" stroke-linejoin="round"/>
<path d="M10.0842 12.4395V10.3516" stroke="#333333" stroke-width="0.8"/>
<path d="M8.76025 10.3516H11.2979" stroke="#333333" stroke-width="0.8" stroke-linecap="round" stroke-linejoin="round"/>
<path d="M12.8425 12.989V3C12.8425 2.44771 13.2902 2 13.8425 2H21C21.5523 2 22 2.44772 22 3V20.8901C22 21.4424 21.5523 21.8901 21 21.8901H17.1454" stroke="#333333" stroke-width="0.8"/>
<path d="M16.5938 4.85742H18.4694" stroke="#333333" stroke-width="0.8" stroke-linecap="round" stroke-linejoin="round"/>
<path d="M15 9H19.96" stroke="#333333" stroke-linecap="round"/>
<path d="M15 11H19.96" stroke="#333333" stroke-linecap="round"/>
</svg>
