<svg width="24" height="24" viewBox="0 0 24 24" fill="none" xmlns="http://www.w3.org/2000/svg">
<path d="M12.9946 19.4849C15.2739 18.6711 16.5443 16.6821 17.2067 14.5034M8.8132 19.4849C4.15362 17.9658 3.71773 11.4701 4.04257 8.38747L17.7539 8.21484C17.8002 8.63468 17.8317 9.11846 17.8398 9.64518M17.8398 9.64518C18.9444 9.34925 21.1217 9.44296 20.9947 12.1853C20.8678 14.9275 18.4165 14.8733 17.2067 14.5034M17.8398 9.64518C17.8621 11.0867 17.7096 12.8497 17.2067 14.5034" stroke="#333333" stroke-width="0.8" stroke-linejoin="round"/>
<path d="M18.9097 19.4844H3C3 20.8654 3.29462 21.9998 5.31166 21.9998H16.598C18.4564 21.9998 18.9097 21.2106 18.9097 19.4844Z" stroke="#333333" stroke-width="0.8" stroke-linejoin="round"/>
<path d="M12.0201 6.06905C12.7453 4.68804 11.2948 3.40567 12.0201 2M9.66307 6.06905C10.3883 4.68804 8.93784 3.40567 9.66307 2M7.39673 6.06905C7.98597 4.90999 7.17009 4.19482 7.6007 3.40567M14.309 6.06905C14.8983 4.90999 14.0824 4.19482 14.513 3.40567" stroke="#333333" stroke-width="0.8" stroke-linecap="round" stroke-linejoin="round"/>
</svg>
