<svg width="24" height="24" viewBox="0 0 24 24" fill="none" xmlns="http://www.w3.org/2000/svg">
<path d="M22 17.1693V7.64173V7.48425C22 6.55905 21.252 5.79134 20.3071 5.79134H17.315C16.6457 4.80709 15.8189 4 14.874 4H9.5C8.55512 4 7.72835 4.80709 7.05906 5.79134H3.69291C2.76772 5.79134 2 6.53937 2 7.48425V8.52756C2 8.52756 2 8.52756 2 8.54724V16.2638C2 16.2638 2 16.2638 2 16.2835V17.3268C2 18.252 2.74803 19.0197 3.69291 19.0197H20.3071C21.2323 19.0197 22 18.2717 22 17.3268V17.1693ZM9.5 4.76772H14.8937C15.3858 4.76772 15.9173 5.20079 16.4094 5.81102H7.98425C8.47638 5.1811 8.98819 4.76772 9.5 4.76772ZM7.5315 12.5039C7.5315 9.94488 9.53937 7.85827 12 7.85827C14.4606 7.85827 16.4685 9.94488 16.4685 12.5039C16.4685 15.063 14.4606 17.1496 12 17.1496C9.53937 17.1496 7.5315 15.063 7.5315 12.5039ZM8.12205 8.92126C7.29528 9.86614 6.78346 11.126 6.78346 12.5039C6.78346 13.8031 7.23622 14.9843 7.96457 15.9291H2.74803V8.92126H8.12205ZM17.2165 12.5039C17.2165 11.126 16.7047 9.86614 15.878 8.92126H21.252V15.9291H16.0354C16.7638 14.9843 17.2165 13.8031 17.2165 12.5039ZM21.252 8.17323H15.1102C14.2441 7.50394 13.1614 7.11024 12 7.11024C10.8386 7.11024 9.75591 7.50394 8.88976 8.17323H2.74803V7.66142C2.74803 7.05118 3.24016 6.55906 3.85039 6.55906H20.1496C20.7598 6.55906 21.252 7.05118 21.252 7.66142V8.17323ZM20.1496 18.2717H3.85039C3.24016 18.2717 2.74803 17.7795 2.74803 17.1693V16.6575H8.69291C9.59842 17.4252 10.7598 17.8976 12 17.8976C13.2402 17.8976 14.4213 17.4252 15.3071 16.6575H21.252V17.1693C21.252 17.7795 20.7598 18.2717 20.1496 18.2717Z" fill="#333333"/>
<path d="M12.0001 16.3233C14.0473 16.3233 15.7009 14.6107 15.7009 12.5044C15.7009 10.3981 14.0473 8.68555 12.0001 8.68555C9.95286 8.68555 8.29932 10.3981 8.29932 12.5044C8.29932 14.6107 9.95286 16.3233 12.0001 16.3233ZM12.0001 9.41389C13.634 9.41389 14.9725 10.7918 14.9725 12.5044C14.9725 14.1974 13.634 15.595 12.0001 15.595C10.3662 15.595 9.02766 14.217 9.02766 12.5044C9.02766 10.7918 10.3662 9.41389 12.0001 9.41389Z" fill="#333333"/>
</svg>
