<svg width="22" height="22" viewBox="0 0 22 22" fill="none" xmlns="http://www.w3.org/2000/svg">
<path d="M3.5974 7.83871H1.3C1.13431 7.83871 1 7.70439 1 7.53871V6.34405C1 6.23181 1.06266 6.12895 1.16241 6.07747L10.8624 1.07102C10.9487 1.02646 11.0513 1.02646 11.1376 1.07102L20.8376 6.07747C20.9373 6.12895 21 6.23181 21 6.34405V7.53871C21 7.70439 20.8657 7.83871 20.7 7.83871H19.0519M3.5974 7.83871L10.8598 3.78787C10.9474 3.73902 11.0536 3.73716 11.1428 3.78292L19.0519 7.83871M3.5974 7.83871L4.24675 16.871M3.5974 7.83871H6.71429M19.0519 7.83871H18.2727M2.2987 18.9355H1.3C1.13431 18.9355 1 19.0698 1 19.2355V20.7C1 20.8657 1.13431 21 1.3 21H20.7C20.8657 21 21 20.8657 21 20.7V19.2355C21 19.0698 20.8657 18.9355 20.7 18.9355H19.7013M2.2987 18.9355V17.171C2.2987 17.0053 2.43302 16.871 2.5987 16.871H4.24675M2.2987 18.9355H19.7013M19.7013 18.9355V17.171C19.7013 17.0053 19.567 16.871 19.4013 16.871H17.7857M4.24675 16.871H6.32468M6.32468 16.871L6.71429 7.83871M6.32468 16.871H10.0909M6.71429 7.83871H9.44156M10.0909 16.871L9.44156 7.83871M10.0909 16.871H12.039M9.44156 7.83871H12.4286M12.039 16.871L12.4286 7.83871M12.039 16.871H15.8701M12.4286 7.83871H15.4156M15.8701 16.871L15.4156 7.83871M15.8701 16.871H17.7857M15.4156 7.83871H18.2727M17.7857 16.871L18.2727 7.83871" stroke="#333333" stroke-width="0.8"/>
</svg>
