<svg width="76" height="76" viewBox="0 0 76 76" fill="none" xmlns="http://www.w3.org/2000/svg">
<g filter="url(#filter0_d_638_7716)">
<rect x="10" y="5" width="56" height="56" rx="6" fill="white"/>
<path d="M39.9891 47.9692C44.5476 46.3415 47.0884 42.3636 48.4134 38.0061M31.6263 47.9692C22.3071 44.9309 21.4353 31.9396 22.085 25.7743L49.5077 25.4291C49.6003 26.2687 49.6633 27.2363 49.6796 28.2897M49.6796 28.2897C51.8886 27.6979 56.2432 27.8853 55.9894 33.3699C55.7355 38.8545 50.8329 38.746 48.4134 38.0061M49.6796 28.2897C49.7242 31.1727 49.419 34.6988 48.4134 38.0061" stroke="#333333" stroke-width="2" stroke-linejoin="round"/>
<path d="M51.8193 47.9692H20C20 50.7312 20.5892 53 24.6233 53H47.196C50.9128 53 51.8193 51.4217 51.8193 47.9692Z" stroke="#333333" stroke-width="2" stroke-linejoin="round"/>
<path d="M38.04 21.1381C39.4904 18.3761 36.5895 15.8113 38.04 13M33.326 21.1381C34.7765 18.3761 31.8756 15.8113 33.326 13M28.7933 21.1381C29.9718 18.82 28.3401 17.3896 29.2013 15.8113M42.618 21.1381C43.7965 18.82 42.1647 17.3896 43.0259 15.8113" stroke="#333333" stroke-width="2" stroke-linecap="round" stroke-linejoin="round"/>
</g>
<defs>
<filter id="filter0_d_638_7716" x="0" y="0" width="76" height="76" filterUnits="userSpaceOnUse" color-interpolation-filters="sRGB">
<feFlood flood-opacity="0" result="BackgroundImageFix"/>
<feColorMatrix in="SourceAlpha" type="matrix" values="0 0 0 0 0 0 0 0 0 0 0 0 0 0 0 0 0 0 127 0" result="hardAlpha"/>
<feOffset dy="5"/>
<feGaussianBlur stdDeviation="5"/>
<feComposite in2="hardAlpha" operator="out"/>
<feColorMatrix type="matrix" values="0 0 0 0 0 0 0 0 0 0 0 0 0 0 0 0 0 0 0.15 0"/>
<feBlend mode="normal" in2="BackgroundImageFix" result="effect1_dropShadow_638_7716"/>
<feBlend mode="normal" in="SourceGraphic" in2="effect1_dropShadow_638_7716" result="shape"/>
</filter>
</defs>
</svg>
