<svg width="76" height="76" viewBox="0 0 76 76" fill="none" xmlns="http://www.w3.org/2000/svg">
<g filter="url(#filter0_d_616_847)">
<rect x="10" y="5" width="56" height="56" rx="6" fill="white"/>
<path fill-rule="evenodd" clip-rule="evenodd" d="M55.9696 48.193C58.2604 48.7997 58.1058 50.1508 57.8778 51.9991C57.84 52.3086 57.3601 52.5948 56.9633 52.8313C56.9011 52.8684 56.8409 52.9043 56.7847 52.9389C56.6511 53.0212 56.4544 53.0026 56.2594 52.9842C56.1764 52.9764 56.0938 52.9686 56.0165 52.9686H19.9543C18.3803 52.9686 18.0039 52.5995 18.0024 51.0577C18.0008 49.1891 18.2553 48.8185 20.0152 48.1758C20.0152 48.0535 20.0064 47.9271 19.9975 47.7997C19.9774 47.5114 19.9569 47.2175 20.0371 46.9529C20.2026 46.4072 20.4056 45.7786 20.8038 45.4252C21.2129 45.0624 21.33 44.7481 21.3284 44.2524C21.3144 40.2399 21.316 36.2274 21.3284 32.2148C21.33 31.7645 21.1707 31.5096 20.8475 31.1781C20.4477 30.7684 20.1745 30.157 20.0449 29.5862C19.9512 29.1719 19.9737 28.7317 19.996 28.2975C20.0056 28.109 20.0152 27.9216 20.0152 27.7379C18.2475 27.0733 18.0024 26.7184 18.0024 24.8591C18.0024 24.4982 18.0018 24.1373 18.0012 23.7764C17.9999 22.9646 17.9985 22.1531 18.0039 21.3423C18.0117 20.2367 18.4693 19.5628 19.489 19.2094L20.6917 18.7926C26.1807 16.8907 31.6694 14.9889 37.1703 13.1265C37.67 12.9576 38.3274 12.9576 38.8286 13.128C44.1514 14.9321 49.4626 16.7734 54.7739 18.6148L54.7747 18.6151L54.7751 18.6152L56.435 19.1906C57.5312 19.5706 57.9746 20.207 57.9809 21.3548C57.9863 22.2025 57.985 23.0502 57.9836 23.8979C57.983 24.2746 57.9825 24.6513 57.9825 25.028C57.9825 26.7074 57.6264 27.1937 55.9696 27.7051C55.9696 27.8901 55.9791 28.0797 55.9886 28.2712V28.2712V28.2712V28.2713C56.0108 28.7173 56.0334 29.173 55.9384 29.6019C55.8119 30.1711 55.5324 30.7887 55.1264 31.1859C54.786 31.519 54.6564 31.7895 54.6579 32.2305C54.6689 36.2696 54.6689 40.3071 54.6564 44.3462C54.6548 44.7919 54.7985 45.0499 55.1311 45.3814C55.534 45.7833 55.7651 46.4041 55.9462 46.9686C56.0296 47.23 56.0086 47.5245 55.9879 47.8145V47.8146V47.8146V47.8147C55.9787 47.9427 55.9696 48.0699 55.9696 48.193ZM27.9986 28.3234L27.9986 28.3247C27.9979 28.7383 27.9973 29.1302 27.9993 29.5221C28.004 30.2539 27.6714 30.7903 27.1327 31.275C26.8906 31.4924 26.6861 31.8958 26.683 32.2164C26.6574 35.6524 26.6608 39.0884 26.6643 42.5245V42.5248L26.6658 44.1742C26.6658 44.3432 26.6785 44.5115 26.691 44.6787L26.691 44.6787L26.691 44.6788C26.6972 44.7605 26.7033 44.8421 26.7079 44.9232H49.2581C49.2661 44.8661 49.275 44.814 49.2835 44.7651L49.2835 44.765L49.2835 44.7649C49.3 44.6694 49.3143 44.5864 49.3143 44.5026L49.3153 43.2525V43.2521V43.2516V43.2512C49.3184 39.4997 49.3215 35.7492 49.3019 31.9975C49.3003 31.7692 49.1207 31.4721 48.9302 31.3266C48.3056 30.8466 47.9636 30.2586 47.9792 29.4611C47.9879 29.0492 47.986 28.6372 47.9841 28.2153C47.9832 28.0317 47.9824 27.8463 47.9824 27.6582H27.9993C27.9993 27.8878 27.999 28.1086 27.9986 28.3234ZM37.9089 26.2649L42.3164 26.2651C46.7249 26.2654 51.1333 26.2657 55.5418 26.2633C56.5021 26.2633 56.6302 26.1351 56.6364 25.189C56.6394 24.7246 56.6374 24.2602 56.6354 23.7958V23.7957V23.7956V23.7955C56.6322 23.0358 56.6289 22.2763 56.6473 21.5174C56.6614 20.8997 56.424 20.5886 55.8322 20.3868C53.0212 19.4258 50.2127 18.4573 47.4043 17.4889L47.4043 17.4889L47.4023 17.4882L47.4013 17.4878L47.4011 17.4878C44.4664 16.4757 41.5318 15.4637 38.5944 14.4603C38.254 14.3446 37.8074 14.3212 37.4716 14.4353C34.3252 15.5088 31.1819 16.5929 28.0384 17.677L28.0379 17.6772C25.389 18.5908 22.7399 19.5044 20.0886 20.4119C19.5124 20.6089 19.3281 20.9404 19.339 21.508C19.3533 22.2693 19.3503 23.0312 19.3474 23.7933V23.7933V23.7934V23.7934C19.3458 24.2038 19.3442 24.6143 19.3453 25.0248C19.3484 26.182 19.4296 26.2649 20.5883 26.2649C24.437 26.2659 28.2864 26.2656 32.1356 26.2652H32.1358H32.136H32.1361C34.0605 26.265 35.9848 26.2649 37.9089 26.2649ZM19.3999 51.5753H56.538C56.855 49.8568 56.6864 49.6472 55.0421 49.6472H20.8553C19.3515 49.6472 19.2875 49.7145 19.3531 51.2469C19.3552 51.3004 19.3639 51.3531 19.3777 51.4365C19.3841 51.4751 19.3915 51.5203 19.3999 51.5753ZM54.5705 48.2649C54.8391 46.4729 54.6829 46.2868 52.9808 46.2868H22.7791C22.708 46.2868 22.632 46.2793 22.556 46.2718C22.3819 46.2546 22.2074 46.2373 22.0889 46.3102C21.7985 46.4869 21.4643 46.7434 21.3612 47.0389C21.2744 47.29 21.2939 47.5788 21.3139 47.8744C21.3227 48.0041 21.3316 48.1352 21.3316 48.2649H54.5705ZM22.7463 31.666V44.9201H25.3026V31.666H22.7463ZM50.7135 31.6675V44.9217H53.2713V31.6675H50.7135ZM26.6096 27.6754H21.3269C21.3269 27.8532 21.3266 28.0271 21.3264 28.1982V28.1983V28.1984V28.1985C21.3257 28.617 21.3251 29.0187 21.3284 29.4205C21.3331 30.0366 21.6517 30.3055 22.2622 30.2899C22.6335 30.2808 23.0051 30.2831 23.3767 30.2854H23.3767H23.3768H23.3768C23.7055 30.2875 24.0342 30.2895 24.3625 30.2836C24.719 30.2775 25.0227 30.2853 25.281 30.2919H25.281H25.281H25.2811C26.7199 30.3288 26.7473 30.3295 26.6096 27.6754ZM49.3346 27.6722C49.3346 27.8652 49.328 28.0561 49.3214 28.2447V28.2447C49.3057 28.695 49.2904 29.1319 49.3674 29.5518C49.419 29.8302 49.8172 30.2352 50.0779 30.2508C51.3443 30.3243 52.6201 30.3243 53.8865 30.2524C54.1536 30.2367 54.5642 29.838 54.6158 29.5596C54.6951 29.1394 54.6796 28.7013 54.6636 28.2481V28.2479C54.6569 28.0586 54.6501 27.8666 54.6501 27.6722H49.3346ZM31.3143 36.2901C31.3143 35.7619 31.314 35.2337 31.3138 34.7055C31.3131 33.3854 31.3125 32.0653 31.3158 30.7451C31.3189 29.405 31.7671 28.939 33.0772 28.9375C36.3518 28.9312 39.6279 28.9328 42.9024 28.9375C44.2173 28.939 44.6685 29.4019 44.6701 30.7389C44.6732 34.4355 44.6732 38.1306 44.6701 41.8272C44.6685 43.1861 44.2469 43.613 42.9087 43.6146C39.6076 43.6177 36.3065 43.6193 33.0054 43.6146C31.7687 43.613 31.3221 43.1627 31.3174 41.9117C31.3117 40.5496 31.3126 39.1876 31.3136 37.8249V37.8247V37.8244V37.8242C31.3139 37.3129 31.3143 36.8016 31.3143 36.2901ZM32.7446 30.3292V39.9946C32.9965 39.7351 33.2358 39.4874 33.467 39.2481L33.4671 39.248L33.4678 39.2473L33.468 39.2471C33.9819 38.7153 34.4553 38.2253 34.9355 37.7412C35.9786 36.6873 36.0098 36.692 37.0357 37.7131C37.1631 37.8406 37.2957 37.9629 37.4429 38.0986L37.4429 38.0987C37.5231 38.1726 37.6075 38.2505 37.6978 38.3354C37.9804 38.0503 38.2607 37.7683 38.5391 37.4882L38.5397 37.4876L38.5403 37.4869L38.541 37.4863C39.2695 36.7534 39.9845 36.034 40.6913 35.3081C41.127 34.8608 41.5283 34.8593 41.9608 35.3049C42.244 35.5973 42.5356 35.8803 42.8556 36.1908C42.9892 36.3204 43.1277 36.4547 43.2725 36.5966V30.3276C39.7513 30.3292 36.2737 30.3292 32.7446 30.3292ZM38.7139 39.3657L38.7294 39.3867C38.7556 39.4225 38.7911 39.4709 38.8331 39.5129C39.2078 39.8773 39.5717 40.2885 39.0657 40.7608C38.6008 41.196 38.2416 40.8253 37.9156 40.4887L37.8852 40.4574C37.5638 40.1265 37.2429 39.7952 36.9235 39.4654L36.9234 39.4653L36.9232 39.4651L36.923 39.465L36.9191 39.4609C36.6348 39.1673 36.3517 38.8751 36.0707 38.5856C34.2812 40.0446 32.7696 41.7318 32.754 42.2557H43.3084C43.3084 41.9683 43.309 41.6838 43.3095 41.4016C43.3112 40.5166 43.3129 39.6532 43.2975 38.7889C43.2944 38.631 43.1866 38.4465 43.0742 38.3214C42.6799 37.8818 42.2764 37.4506 41.8877 37.0353L41.8877 37.0353L41.8867 37.0342C41.7462 36.8841 41.6076 36.736 41.4721 36.5903L38.7081 39.3581L38.7139 39.3657ZM33.6411 24.9604H33.6413H33.6415C35.0754 24.9598 36.5092 24.9593 37.9429 24.9593C39.3261 24.9593 40.7093 24.9597 42.0925 24.96H42.0941C45.7822 24.961 49.4704 24.9619 53.1586 24.9562C54.3203 24.9531 55.1214 24.312 55.2994 23.2971C55.4681 22.3401 54.9168 21.4488 53.8659 21.0766C48.8487 19.3002 43.8299 17.5254 38.7986 15.7881C38.3442 15.6302 37.743 15.6083 37.2933 15.7631C32.2105 17.5113 27.1386 19.2893 22.0824 21.1141C21.5983 21.2893 21.0955 21.7537 20.8612 22.2166C20.182 23.5567 21.2407 24.9531 22.885 24.9562C26.47 24.9629 30.0557 24.9616 33.6411 24.9604ZM52.7369 23.5973H37.9866H23.4737C23.413 23.5973 23.3525 23.5972 23.292 23.597L23.2912 23.597H23.291C23.1698 23.5966 23.0488 23.5963 22.9271 23.5973C22.5227 23.6005 22.0293 23.5895 22.0777 23.0672C22.1027 22.7873 22.4618 22.4292 22.7538 22.3041C23.4597 22.0024 24.188 21.7521 24.9163 21.5018C25.1467 21.4227 25.3771 21.3435 25.6068 21.2627C26.4563 20.9638 27.3055 20.6642 28.1546 20.3645C31.1751 19.2988 34.1952 18.2331 37.2277 17.2017C37.6977 17.0406 38.3177 17.0406 38.7877 17.2017C42.6827 18.5402 46.5672 19.9111 50.4516 21.2819L50.452 21.2821L50.4534 21.2826L50.4549 21.2831C51.3207 21.5886 52.1865 21.8942 53.0524 22.1994C53.1028 22.2174 53.1559 22.2339 53.2095 22.2506C53.3882 22.3063 53.5724 22.3637 53.6817 22.484C53.8331 22.6497 53.9456 22.9437 53.9112 23.1548C53.8847 23.319 53.6254 23.5004 53.4334 23.5676C53.2809 23.6212 53.1052 23.6125 52.9305 23.6038C52.8654 23.6006 52.8005 23.5973 52.7369 23.5973ZM37.9912 33.6456C37.9772 34.7371 37.0824 35.6175 35.9878 35.6143C34.8947 35.6112 34.0015 34.7261 33.9906 33.6347C33.9796 32.5197 34.9197 31.5956 36.0378 31.6237C37.134 31.6518 38.0053 32.5541 37.9912 33.6456ZM36.0112 32.687C35.9043 32.8299 35.7931 32.9556 35.6944 33.067C35.5048 33.2811 35.3619 33.4425 35.3866 33.5721C35.4206 33.7544 35.6054 33.9081 35.7898 34.0614C35.8681 34.1265 35.9462 34.1915 36.0128 34.2586C36.0754 34.1925 36.1514 34.1278 36.2275 34.0631L36.2275 34.063C36.3999 33.9163 36.5722 33.7697 36.5874 33.6081C36.6019 33.4583 36.4718 33.2934 36.2985 33.0739C36.2096 32.9611 36.1092 32.834 36.0112 32.687ZM38.029 22.287C39.1017 22.2604 40.0106 21.3269 39.9981 20.2588C39.9871 19.1814 39.0674 18.2698 37.9946 18.2714C36.8906 18.2698 35.9506 19.2362 35.9865 20.3339C36.0208 21.4066 36.9671 22.312 38.029 22.287ZM38.5398 19.9911C38.6488 20.0871 38.7725 20.1961 38.9175 20.3042C38.7661 20.4046 38.6327 20.5098 38.5152 20.6024C38.2921 20.7784 38.1262 20.9093 38.0024 20.8765C37.8241 20.8305 37.6818 20.6409 37.5395 20.4514C37.4787 20.3705 37.418 20.2895 37.3544 20.2198C37.4231 20.161 37.491 20.0891 37.559 20.0172C37.7136 19.8537 37.8683 19.69 38.0321 19.6803C38.1776 19.6721 38.3318 19.8079 38.5398 19.9911Z" fill="#333333"/>
</g>
<defs>
<filter id="filter0_d_616_847" x="0" y="0" width="76" height="76" filterUnits="userSpaceOnUse" color-interpolation-filters="sRGB">
<feFlood flood-opacity="0" result="BackgroundImageFix"/>
<feColorMatrix in="SourceAlpha" type="matrix" values="0 0 0 0 0 0 0 0 0 0 0 0 0 0 0 0 0 0 127 0" result="hardAlpha"/>
<feOffset dy="5"/>
<feGaussianBlur stdDeviation="5"/>
<feComposite in2="hardAlpha" operator="out"/>
<feColorMatrix type="matrix" values="0 0 0 0 0 0 0 0 0 0 0 0 0 0 0 0 0 0 0.15 0"/>
<feBlend mode="normal" in2="BackgroundImageFix" result="effect1_dropShadow_616_847"/>
<feBlend mode="normal" in="SourceGraphic" in2="effect1_dropShadow_616_847" result="shape"/>
</filter>
</defs>
</svg>
