<svg width="24" height="24" viewBox="0 0 24 24" fill="none" xmlns="http://www.w3.org/2000/svg">
<path d="M12.9945 19.4846C15.2738 18.6708 16.5442 16.6818 17.2067 14.5031M8.81314 19.4846C4.15356 17.9655 3.71767 11.4698 4.04251 8.38718L17.7538 8.21455C17.8001 8.63439 17.8316 9.11817 17.8398 9.64489M17.8398 9.64489C18.9443 9.34896 21.1216 9.44267 20.9947 12.185C20.8678 14.9273 18.4165 14.873 17.2067 14.5031M17.8398 9.64489C17.8621 11.0864 17.7095 12.8494 17.2067 14.5031" stroke="#333333" stroke-width="0.8" stroke-linejoin="round"/>
<path d="M18.9097 19.4846H3C3 20.8656 3.29462 22 5.31166 22H16.598C18.4564 22 18.9097 21.2109 18.9097 19.4846Z" stroke="#333333" stroke-width="0.8" stroke-linejoin="round"/>
<path d="M12.02 6.06905C12.7452 4.68804 11.2948 3.40567 12.02 2M9.66302 6.06905C10.3882 4.68804 8.93779 3.40567 9.66302 2M7.39668 6.06905C7.98593 4.90999 7.17005 4.19482 7.60065 3.40567M14.309 6.06905C14.8982 4.90999 14.0824 4.19482 14.513 3.40567" stroke="#333333" stroke-width="0.8" stroke-linecap="round" stroke-linejoin="round"/>
</svg>
