<svg width="20" height="20" viewBox="0 0 20 20" fill="none" xmlns="http://www.w3.org/2000/svg">
<path fill-rule="evenodd" clip-rule="evenodd" d="M18.9848 17.5965C20.1302 17.8998 20.0529 18.5754 19.9389 19.4995C19.92 19.6543 19.68 19.7974 19.4817 19.9156C19.4505 19.9342 19.4204 19.9522 19.3924 19.9694C19.3255 20.0106 19.2272 20.0013 19.1297 19.9921C19.0882 19.9882 19.0469 19.9843 19.0082 19.9843H0.977145C0.190129 19.9843 0.00196347 19.7998 0.0011827 19.0289C0.000401935 18.0945 0.127667 17.9092 1.00759 17.5879C1.00759 17.5268 1.00319 17.4636 0.998749 17.3998C0.988704 17.2557 0.978463 17.1088 1.01853 16.9765C1.10129 16.7036 1.20279 16.3893 1.40188 16.2126C1.60644 16.0312 1.665 15.874 1.66422 15.6262C1.65719 13.6199 1.65798 11.6137 1.66422 9.60742C1.665 9.38225 1.58536 9.2548 1.42374 9.08905C1.22387 8.8842 1.08723 8.57849 1.02243 8.29311C0.97561 8.08595 0.98687 7.86585 0.997978 7.64874C1.0028 7.55448 1.00759 7.46079 1.00759 7.36895C0.123764 7.03666 0.0011827 6.85918 0.0011827 5.92954C0.0011827 5.74909 0.000886953 5.56864 0.00059124 5.38821C-7.39937e-05 4.98232 -0.000739038 4.57654 0.00196347 4.17114C0.00586732 3.61836 0.234633 3.28138 0.744475 3.10468L1.34594 2.89628C4.09044 1.94532 6.83474 0.994429 9.58513 0.0632334C9.83498 -0.0212077 10.1637 -0.0212077 10.4143 0.0640153C13.0759 0.96613 15.7316 1.88684 18.3875 2.80757L19.2175 3.09529C19.7656 3.28529 19.9873 3.6035 19.9904 4.17739C19.9931 4.60125 19.9925 5.0251 19.9918 5.44896C19.9915 5.6373 19.9912 5.82564 19.9912 6.01398C19.9912 6.8537 19.8132 7.09686 18.9848 7.35253C18.9848 7.44503 18.9895 7.53986 18.9943 7.63558V7.63559V7.63561V7.63563C19.0054 7.85865 19.0167 8.08649 18.9692 8.30093C18.906 8.58553 18.7662 8.89436 18.5632 9.09296C18.393 9.25949 18.3282 9.39476 18.329 9.61524C18.3344 11.6348 18.3344 13.6536 18.3282 15.6731C18.3274 15.8959 18.3992 16.0249 18.5655 16.1907C18.767 16.3916 18.8825 16.702 18.9731 16.9843C19.0148 17.115 19.0043 17.2622 18.9939 17.4073V17.4073V17.4073V17.4073C18.9894 17.4714 18.9848 17.535 18.9848 17.5965ZM4.99931 7.66171L4.99931 7.66233C4.99897 7.86917 4.99864 8.06511 4.99967 8.26106C5.00201 8.62697 4.83571 8.89515 4.56634 9.13752C4.44532 9.2462 4.34304 9.44792 4.34148 9.6082C4.32869 11.3262 4.33041 13.0442 4.33213 14.7622V14.7624L4.33289 15.5871C4.33289 15.6716 4.33923 15.7558 4.34552 15.8393L4.34552 15.8394L4.34552 15.8394C4.3486 15.8803 4.35166 15.921 4.35397 15.9616H15.6291C15.633 15.933 15.6375 15.907 15.6417 15.8826L15.6418 15.8825L15.6418 15.8825C15.65 15.8347 15.6572 15.7932 15.6572 15.7513L15.6577 15.1262V15.126V15.1258V15.1256C15.6592 13.2499 15.6608 11.3746 15.6509 9.49874C15.6501 9.38459 15.5604 9.23604 15.4651 9.16332C15.1528 8.92329 14.9818 8.62931 14.9896 8.23056C14.994 8.02459 14.993 7.81862 14.992 7.60763C14.9916 7.51587 14.9912 7.42315 14.9912 7.32908H4.99967C4.99967 7.44391 4.99949 7.55428 4.99931 7.66171ZM9.95443 6.63244L12.1582 6.63253C14.3624 6.63268 16.5667 6.63283 18.7709 6.63166C19.2511 6.63166 19.3151 6.56754 19.3182 6.09452C19.3197 5.8623 19.3187 5.63008 19.3177 5.3979V5.39785V5.3978V5.39775C19.3161 5.01789 19.3145 4.63815 19.3237 4.2587C19.3307 3.94987 19.212 3.79428 18.9161 3.69342C17.5101 3.21274 16.1053 2.72832 14.7006 2.24391L14.7003 2.24379C13.2331 1.73781 11.7658 1.23185 10.2972 0.730162C10.127 0.672304 9.90368 0.660576 9.73582 0.717652C8.16269 1.25436 6.59118 1.79636 5.01953 2.33841L5.01915 2.33854L5.01896 2.3386L5.01893 2.33861C3.6945 2.7954 2.36997 3.25222 1.04429 3.70593C0.756187 3.80444 0.664056 3.9702 0.669521 4.25401C0.676626 4.63464 0.675155 5.01559 0.673683 5.39667V5.39667V5.39668V5.39668C0.672891 5.6019 0.672098 5.80716 0.672644 6.01242C0.674206 6.591 0.714806 6.63244 1.29414 6.63244C3.21721 6.63296 5.14063 6.63278 7.06394 6.63261H7.06781L9.95443 6.63244ZM0.699971 19.2877H19.269C19.4275 18.4284 19.3432 18.3236 18.521 18.3236H1.42765C0.675768 18.3236 0.643756 18.3572 0.676548 19.1235C0.677615 19.1502 0.681964 19.1765 0.688846 19.2182C0.692035 19.2376 0.695769 19.2602 0.699971 19.2877ZM18.2852 17.6325C18.4195 16.7364 18.3415 16.6434 17.4904 16.6434H2.38956C2.35398 16.6434 2.31602 16.6396 2.27802 16.6359C2.19096 16.6273 2.10371 16.6187 2.04446 16.6551C1.89923 16.7435 1.73215 16.8717 1.68062 17.0195C1.63721 17.145 1.64697 17.2894 1.65697 17.4372C1.66135 17.5021 1.66578 17.5676 1.66578 17.6325H18.2852ZM2.37316 9.33299V15.96H3.65128V9.33299H2.37316ZM16.3567 9.33377V15.9608H17.6356V9.33377H16.3567ZM4.30478 7.33768H1.66344L1.66318 7.59926C1.66286 7.80851 1.66256 8.00937 1.66422 8.21023C1.66656 8.51829 1.82584 8.65277 2.13112 8.64495C2.31673 8.64039 2.50255 8.64155 2.68836 8.64271H2.68837H2.68838H2.68839C2.85274 8.64373 3.01709 8.64476 3.18126 8.64182C3.35948 8.63873 3.51135 8.64263 3.64049 8.64594H3.64051H3.64052H3.64053C4.35997 8.66439 4.37363 8.66474 4.30478 7.33768ZM15.6673 7.33611C15.6673 7.4326 15.664 7.52806 15.6607 7.62236V7.62237C15.6528 7.84748 15.6452 8.06597 15.6837 8.27591C15.7095 8.41508 15.9086 8.61759 16.039 8.6254C16.6722 8.66215 17.3101 8.66215 17.9433 8.62619C18.0768 8.61837 18.2821 8.41899 18.3079 8.27982C18.3475 8.06972 18.3398 7.85067 18.3318 7.62405V7.62397C18.3284 7.52931 18.3251 7.43332 18.3251 7.33611H15.6673ZM6.65713 11.645L6.65688 10.8528C6.65656 10.1927 6.65624 9.53263 6.65791 8.87256C6.65947 8.20251 6.88355 7.96951 7.53862 7.96873C9.17589 7.9656 10.8139 7.96639 12.4512 7.96873C13.1086 7.96951 13.3343 8.20094 13.3351 8.86944C13.3366 10.7178 13.3366 12.5653 13.3351 14.4136C13.3343 15.0931 13.1235 15.3065 12.4543 15.3073C10.8038 15.3089 9.15325 15.3096 7.5027 15.3073C6.88433 15.3065 6.66103 15.0813 6.65869 14.4558C6.65585 13.7748 6.65632 13.0938 6.65678 12.4125V12.4123V12.4122V12.4121C6.65696 12.1564 6.65713 11.9008 6.65713 11.645ZM7.37231 8.66459V13.4973C7.49822 13.3676 7.6179 13.2437 7.73348 13.1241L7.73357 13.124L7.73364 13.1239C7.99071 12.8579 8.22755 12.6128 8.46773 12.3706C8.98929 11.8436 9.0049 11.846 9.51787 12.3565C9.58157 12.4203 9.64788 12.4815 9.72148 12.5494L9.72151 12.5494C9.76157 12.5863 9.80379 12.6253 9.84892 12.6677C9.99048 12.5249 10.1309 12.3836 10.2704 12.2433C10.6346 11.8768 10.9922 11.517 11.3457 11.154C11.5635 10.9304 11.7641 10.9296 11.9804 11.1525C12.122 11.2986 12.2678 11.4401 12.4277 11.5953L12.4278 11.5953L12.4278 11.5954C12.4946 11.6602 12.5638 11.7274 12.6363 11.7983V8.66381C10.8756 8.66459 9.13685 8.66459 7.37231 8.66459ZM10.3541 13.1791L10.3647 13.1933C10.3778 13.2112 10.3956 13.2355 10.4165 13.2565C10.6039 13.4386 10.7858 13.6443 10.5329 13.8804C10.3004 14.098 10.1208 13.9126 9.95778 13.7444L9.94261 13.7287C9.78215 13.5635 9.62191 13.3981 9.46246 13.2334L9.46135 13.2323L9.46069 13.2316L9.46007 13.231L9.45949 13.2304C9.31735 13.0836 9.17584 12.9375 9.03535 12.7928C8.14059 13.5223 7.38481 14.3659 7.377 14.6278H12.6542C12.6542 14.4841 12.6545 14.3419 12.6548 14.2007C12.6556 13.7583 12.6565 13.3266 12.6488 12.8945C12.6472 12.8155 12.5933 12.7232 12.5371 12.6607C12.3401 12.441 12.1384 12.2256 11.9442 12.018L11.9439 12.0177L11.9438 12.0176L11.9438 12.0176L11.9437 12.0174C11.8733 11.9423 11.8039 11.8681 11.736 11.7952L10.3541 13.1791ZM7.82057 5.98018H7.82065H7.82073C8.53768 5.97992 9.2546 5.97967 9.97145 5.97967C10.663 5.97967 11.3546 5.97984 12.0462 5.98002C13.8905 5.98048 15.7349 5.98095 17.5793 5.97811C18.1602 5.97654 18.5607 5.65598 18.6497 5.14855C18.734 4.67005 18.4584 4.22439 17.933 4.03831C15.4243 3.15011 12.915 2.2627 10.3993 1.39405C10.1721 1.31508 9.87152 1.30413 9.64666 1.38154C7.10525 2.25566 4.56931 3.14464 2.04118 4.05707C1.79914 4.14464 1.54773 4.37685 1.43062 4.60828C1.09098 5.27834 1.62034 5.97654 2.44249 5.97811C4.23498 5.98146 6.02786 5.98082 7.82057 5.98018ZM17.3685 5.29867H9.99332H2.73684L2.64561 5.29849C2.58497 5.29832 2.52445 5.29815 2.46357 5.29867C2.26136 5.30023 2.01463 5.29476 2.03884 5.03362C2.05133 4.89366 2.23091 4.71462 2.37691 4.65207C2.72982 4.5012 3.094 4.37606 3.45814 4.25092L3.45815 4.25092L3.45817 4.25091L3.4583 4.25087C3.57345 4.2113 3.68859 4.17173 3.80338 4.13135C4.22803 3.98193 4.65254 3.83215 5.07704 3.68236L5.07717 3.68231L5.07729 3.68227L5.0773 3.68227C6.58751 3.14938 8.0976 2.61654 9.61386 2.10085C9.84887 2.02032 10.1588 2.02032 10.3939 2.10085C12.3414 2.7701 14.2836 3.45556 16.2258 4.14098L16.226 4.14102L16.2267 4.14128C16.6598 4.29414 17.093 4.447 17.5262 4.59968C17.5514 4.6087 17.578 4.61697 17.6048 4.62532C17.6941 4.65315 17.7862 4.68184 17.8408 4.74198C17.9166 4.82486 17.9728 4.97185 17.9556 5.0774C17.9423 5.1595 17.8127 5.25019 17.7167 5.28381C17.6404 5.31059 17.5526 5.30623 17.4652 5.30189C17.4327 5.30028 17.4002 5.29867 17.3685 5.29867ZM9.99562 10.3228C9.98859 10.8685 9.54121 11.3087 8.99389 11.3072C8.44735 11.3056 8.00075 10.8631 7.99529 10.3173C7.98982 9.75986 8.45984 9.29778 9.01888 9.31185C9.56698 9.32592 10.0026 9.77706 9.99562 10.3228ZM9.0056 9.84352C8.95216 9.91496 8.89653 9.97779 8.84721 10.0335C8.75242 10.1406 8.68097 10.2213 8.69329 10.2861C8.71029 10.3772 8.80272 10.454 8.89492 10.5307C8.93404 10.5633 8.97312 10.5957 9.00638 10.6293C9.03769 10.5963 9.07572 10.5639 9.11375 10.5315L9.11377 10.5315C9.19997 10.4582 9.28612 10.3849 9.29371 10.304C9.30093 10.2291 9.23589 10.1467 9.14926 10.0369C9.10478 9.98057 9.05461 9.917 9.0056 9.84352ZM10.0145 4.6435C10.5509 4.63021 11.0053 4.16343 10.999 3.62942C10.9936 3.09072 10.5337 2.6349 9.9973 2.63568C9.4453 2.6349 8.97528 3.11809 8.99323 3.66695C9.01041 4.20331 9.48356 4.65601 10.0145 4.6435ZM10.2699 3.49555C10.3244 3.54356 10.3862 3.59806 10.4587 3.6521C10.383 3.70228 10.3164 3.75488 10.2576 3.80122C10.1461 3.8892 10.0631 3.95465 10.0012 3.93826C9.91204 3.91525 9.84089 3.82047 9.76975 3.72571C9.73936 3.68523 9.70898 3.64475 9.67719 3.60988C9.71153 3.5805 9.74551 3.54457 9.7795 3.50861C9.85679 3.42686 9.93416 3.34502 10.016 3.34013C10.0888 3.33603 10.1659 3.40396 10.2699 3.49555Z" fill="#333333"/>
</svg>
