<svg width="24" height="24" viewBox="0 0 24 24" fill="none" xmlns="http://www.w3.org/2000/svg">
<path d="M17.0351 22H3.46444C2.0522 21.2967 1.91981 19.9487 2.03014 19.3626H17.9178C18.006 20.3297 17.3661 21.5238 17.0351 22Z" stroke="#333333" stroke-width="0.8" stroke-linejoin="round"/>
<path d="M3.35411 19.3626C3.24378 17.0916 4.43535 12.5495 10.0843 12.5495C15.7332 12.5495 16.9983 17.0916 16.9248 19.3626" stroke="#333333" stroke-width="0.8"/>
<path d="M6.22272 17.3846C6.33305 16.8352 6.84057 15.6703 7.98801 15.4066" stroke="#333333" stroke-width="0.8" stroke-linecap="round" stroke-linejoin="round"/>
<path d="M9.31198 14.967H10.0843" stroke="#333333" stroke-width="0.8" stroke-linecap="round" stroke-linejoin="round"/>
<path d="M10.0843 12.4396V10.3517" stroke="#333333" stroke-width="0.8"/>
<path d="M8.76031 10.3517H11.2979" stroke="#333333" stroke-width="0.8" stroke-linecap="round" stroke-linejoin="round"/>
<path d="M12.8426 12.989V3C12.8426 2.44771 13.2903 2 13.8426 2H21C21.5523 2 22 2.44772 22 3V20.8901C22 21.4424 21.5523 21.8901 21 21.8901H17.1455" stroke="#333333" stroke-width="0.8"/>
<path d="M16.5938 4.85715H18.4694" stroke="#333333" stroke-width="0.8" stroke-linecap="round" stroke-linejoin="round"/>
<path d="M15 9H19.96" stroke="#333333" stroke-linecap="round"/>
<path d="M15 11H19.96" stroke="#333333" stroke-linecap="round"/>
</svg>
