<svg width="24" height="24" viewBox="0 0 24 24" fill="none" xmlns="http://www.w3.org/2000/svg">
<path fill-rule="evenodd" clip-rule="evenodd" d="M16.6562 4.37529C16.4223 4.37529 16.1907 4.42136 15.9746 4.51088C15.7585 4.6004 15.5621 4.7316 15.3967 4.89701C15.2313 5.06241 15.1001 5.25877 15.0106 5.47489C14.9211 5.691 14.875 5.92262 14.875 6.15654C14.875 6.39046 14.9211 6.62208 15.0106 6.8382C15.1001 7.05431 15.2313 7.25067 15.3967 7.41607C15.5621 7.58148 15.7585 7.71269 15.9746 7.8022C16.1907 7.89172 16.4223 7.93779 16.6562 7.93779C17.1287 7.93779 17.5817 7.75012 17.9158 7.41607C18.2498 7.08203 18.4375 6.62896 18.4375 6.15654C18.4375 5.68412 18.2498 5.23106 17.9158 4.89701C17.5817 4.56296 17.1287 4.37529 16.6562 4.37529ZM13.7469 5.56279C13.8832 4.89168 14.2472 4.28832 14.7775 3.85494C15.3077 3.42156 15.9714 3.18481 16.6562 3.18481C17.3411 3.18481 18.0048 3.42156 18.535 3.85494C19.0653 4.28832 19.4293 4.89168 19.5656 5.56279H22V6.75029H19.5656C19.4293 7.4214 19.0653 8.02476 18.535 8.45814C18.0048 8.89152 17.3411 9.12827 16.6562 9.12827C15.9714 9.12827 15.3077 8.89152 14.7775 8.45814C14.2472 8.02476 13.8832 7.4214 13.7469 6.75029H3V5.56279H13.7469ZM8.34375 10.3128C7.87133 10.3128 7.41827 10.5005 7.08422 10.8345C6.75017 11.1686 6.5625 11.6216 6.5625 12.094C6.5625 12.5665 6.75017 13.0195 7.08422 13.3536C7.41827 13.6876 7.87133 13.8753 8.34375 13.8753C8.81617 13.8753 9.26924 13.6876 9.60328 13.3536C9.93733 13.0195 10.125 12.5665 10.125 12.094C10.125 11.6216 9.93733 11.1686 9.60328 10.8345C9.26924 10.5005 8.81617 10.3128 8.34375 10.3128ZM5.43438 11.5003C5.57065 10.8292 5.93475 10.2258 6.46497 9.79244C6.9952 9.35906 7.65895 9.12231 8.34375 9.12231C9.02855 9.12231 9.6923 9.35906 10.2225 9.79244C10.7528 10.2258 11.1168 10.8292 11.2531 11.5003H22V12.6878H11.2531C11.1168 13.3589 10.7528 13.9623 10.2225 14.3956C9.6923 14.829 9.02855 15.0658 8.34375 15.0658C7.65895 15.0658 6.9952 14.829 6.46497 14.3956C5.93475 13.9623 5.57065 13.3589 5.43438 12.6878H3V11.5003H5.43438ZM16.6562 16.2503C16.1838 16.2503 15.7308 16.438 15.3967 16.772C15.0627 17.1061 14.875 17.5591 14.875 18.0315C14.875 18.504 15.0627 18.957 15.3967 19.2911C15.7308 19.6251 16.1838 19.8128 16.6562 19.8128C17.1287 19.8128 17.5817 19.6251 17.9158 19.2911C18.2498 18.957 18.4375 18.504 18.4375 18.0315C18.4375 17.5591 18.2498 17.1061 17.9158 16.772C17.5817 16.438 17.1287 16.2503 16.6562 16.2503ZM13.7469 17.4378C13.8832 16.7667 14.2472 16.1633 14.7775 15.7299C15.3077 15.2966 15.9714 15.0598 16.6562 15.0598C17.3411 15.0598 18.0048 15.2966 18.535 15.7299C19.0653 16.1633 19.4293 16.7667 19.5656 17.4378H22V18.6253H19.5656C19.4293 19.2964 19.0653 19.8998 18.535 20.3331C18.0048 20.7665 17.3411 21.0033 16.6562 21.0033C15.9714 21.0033 15.3077 20.7665 14.7775 20.3331C14.2472 19.8998 13.8832 19.2964 13.7469 18.6253H3V17.4378H13.7469Z" fill="#333333"/>
</svg>
