<svg width="24" height="24" viewBox="0 0 24 24" fill="none" xmlns="http://www.w3.org/2000/svg">
<path d="M8 11.9997C8 12.8377 7.32088 13.5097 6.48323 13.4999C5.65854 13.4901 5.00153 12.8286 5 12.005C4.99848 11.1655 5.68293 10.4859 6.51601 10.5002C7.34375 10.5146 8 11.1775 8 11.9997Z" fill="#333333"/>
<path d="M12.0056 13.5C11.1892 13.503 10.491 12.8021 10.5001 11.9887C10.5099 11.1874 11.1952 10.5045 11.9943 10.5C12.804 10.4955 13.5104 11.2063 13.4999 12.0159C13.4893 12.8202 12.8086 13.497 12.0056 13.5Z" fill="#333333"/>
<path d="M18.9999 12.0192C18.9938 12.8388 18.3268 13.4985 17.5027 13.5C16.6648 13.5015 15.9939 12.826 16 11.9861C16.0061 11.1673 16.6763 10.5023 17.4981 10.5C18.3344 10.4985 19.0068 11.1786 18.9999 12.0192Z" fill="#333333"/>
<rect x="2.4" y="2.4" width="19.2" height="19.2" rx="9.6" stroke="#333333" stroke-width="0.8"/>
</svg>
