<svg width="76" height="76" viewBox="0 0 76 76" fill="none" xmlns="http://www.w3.org/2000/svg">
<g filter="url(#filter0_d_638_8132)">
<rect x="10" y="5" width="56" height="56" rx="6" fill="white"/>
<path d="M51.0758 32.8345C50.749 28.531 47.7093 19.9241 38.1655 19.9241" stroke="#333333" stroke-width="2" stroke-linecap="round"/>
<path d="M21.7793 33.1655C22.0552 38.5724 25.6855 49.3862 38 49.3862" stroke="#333333" stroke-width="2" stroke-linecap="round"/>
<path d="M54.0552 32.8345C53.7849 27.5379 50.2287 16.9448 38.1655 16.9448" stroke="#333333" stroke-width="2" stroke-linecap="round"/>
<circle cx="38" cy="33" r="0.5" fill="#333333"/>
<rect x="34.4" y="29.4" width="7.2" height="7.2" rx="3.6" stroke="#333333" stroke-width="0.8"/>
<rect x="31.8828" y="26.8828" width="12.5655" height="12.5655" rx="6.28276" stroke="#333333" stroke-width="2"/>
<path d="M28.069 33.1655C28.2897 36.4759 30.6179 43.0966 38.1655 43.0966" stroke="#333333" stroke-width="2" stroke-linecap="round"/>
<path d="M47.7655 32.8345C47.5557 29.6345 45.3419 23.2345 38.1655 23.2345" stroke="#333333" stroke-width="2" stroke-linecap="round"/>
<path d="M24.9242 33.1655C25.2552 37.5241 28.3338 46.2414 38.0001 46.2414" stroke="#333333" stroke-width="2" stroke-linecap="round"/>
<rect x="18.9724" y="13.9724" width="37.9989" height="37.9989" rx="18.9994" stroke="#333333" stroke-width="2"/>
</g>
<defs>
<filter id="filter0_d_638_8132" x="0" y="0" width="76" height="76" filterUnits="userSpaceOnUse" color-interpolation-filters="sRGB">
<feFlood flood-opacity="0" result="BackgroundImageFix"/>
<feColorMatrix in="SourceAlpha" type="matrix" values="0 0 0 0 0 0 0 0 0 0 0 0 0 0 0 0 0 0 127 0" result="hardAlpha"/>
<feOffset dy="5"/>
<feGaussianBlur stdDeviation="5"/>
<feComposite in2="hardAlpha" operator="out"/>
<feColorMatrix type="matrix" values="0 0 0 0 0 0 0 0 0 0 0 0 0 0 0 0 0 0 0.15 0"/>
<feBlend mode="normal" in2="BackgroundImageFix" result="effect1_dropShadow_638_8132"/>
<feBlend mode="normal" in="SourceGraphic" in2="effect1_dropShadow_638_8132" result="shape"/>
</filter>
</defs>
</svg>
