<svg width="76" height="76" viewBox="0 0 76 76" fill="none" xmlns="http://www.w3.org/2000/svg">
<g filter="url(#filter0_d_638_2217)">
<rect x="10" y="5" width="56" height="56" rx="6" fill="white"/>
<path d="M46.3146 33.8343L45.7528 24.3961H42.9438M46.3146 33.8343H43.618M46.3146 33.8343H51.2584M58 51.1376L56.6517 33.8343H54.0674M58 51.1376L55.4157 47.4298M58 51.1376H52.7191M34.1798 51.1376H18L19.573 24.3961H24.9663M34.1798 51.1376L35.9775 33.8343H40.6966M34.1798 51.1376H52.7191M40.1348 37.4298C40.1348 37.4298 40.2472 41.9241 40.2472 43.9466C40.2472 45.9692 47.1011 45.9692 47.1011 43.9466C47.1011 41.9241 47.1011 37.4298 47.1011 37.4298M43.618 33.8343L42.9438 24.3961M43.618 33.8343H40.6966M42.9438 24.3961H40.2472M40.6966 33.8343L40.2472 24.3961M40.2472 24.3961H35.9775M40.2472 24.3961C40.2472 24.3961 40.2472 25.0701 40.2472 19.3399C40.2472 13.6097 29.1236 13.4973 29.1236 19.3399C29.1236 25.1825 29.1236 24.3961 29.1236 24.3961M35.9775 24.3961V27.5421M35.9775 24.3961H29.1236M35.9775 24.3961C35.9775 24.3961 35.9775 23.9465 35.9775 18.8905C35.9775 13.8344 25.0787 13.8344 24.9663 18.8905C24.8539 23.9465 24.9663 24.3961 24.9663 24.3961M24.9663 24.3961V29.677M24.9663 24.3961H29.1236M24.9663 29.677C24.9663 29.677 22.9438 30.1265 22.9438 31.3624C22.9438 32.5982 22.9438 36.5309 22.9438 36.5309H27.2135C27.2135 36.5309 27.2135 32.7106 27.2135 31.3624C27.2135 30.0142 24.9663 29.677 24.9663 29.677ZM54.0674 33.8343L55.4157 47.4298M54.0674 33.8343H51.2584M55.4157 47.4298L52.7191 51.1376M52.7191 51.1376L51.2584 33.8343" stroke="#333333" stroke-width="2" stroke-linecap="round" stroke-linejoin="round"/>
</g>
<defs>
<filter id="filter0_d_638_2217" x="0" y="0" width="76" height="76" filterUnits="userSpaceOnUse" color-interpolation-filters="sRGB">
<feFlood flood-opacity="0" result="BackgroundImageFix"/>
<feColorMatrix in="SourceAlpha" type="matrix" values="0 0 0 0 0 0 0 0 0 0 0 0 0 0 0 0 0 0 127 0" result="hardAlpha"/>
<feOffset dy="5"/>
<feGaussianBlur stdDeviation="5"/>
<feComposite in2="hardAlpha" operator="out"/>
<feColorMatrix type="matrix" values="0 0 0 0 0 0 0 0 0 0 0 0 0 0 0 0 0 0 0.15 0"/>
<feBlend mode="normal" in2="BackgroundImageFix" result="effect1_dropShadow_638_2217"/>
<feBlend mode="normal" in="SourceGraphic" in2="effect1_dropShadow_638_2217" result="shape"/>
</filter>
</defs>
</svg>
