<svg width="16" height="22" viewBox="0 0 16 22" fill="none" xmlns="http://www.w3.org/2000/svg">
<path d="M10.7779 21.4C10.9988 21.4 11.1779 21.2209 11.1779 21C11.1779 20.7791 10.9988 20.6 10.7779 20.6V21.4ZM5.44454 20.6C5.22363 20.6 5.04454 20.7791 5.04454 21C5.04454 21.2209 5.22363 21.4 5.44454 21.4V20.6ZM8.11116 8.15556H1.00004V8.95556H8.11116V8.15556ZM1.00004 8.55556C1.40004 8.55556 1.40004 8.55571 1.40004 8.55586C1.40004 8.55589 1.40004 8.55601 1.40004 8.55607C1.40004 8.55618 1.40004 8.55623 1.40004 8.55623C1.40004 8.55621 1.40004 8.55596 1.40005 8.55548C1.40005 8.55451 1.40007 8.55261 1.40011 8.54981C1.40019 8.54422 1.40037 8.53503 1.40074 8.52248C1.40148 8.49738 1.40302 8.45892 1.40618 8.40903C1.41253 8.30911 1.42537 8.16409 1.45128 7.98917C1.50341 7.6373 1.60693 7.17495 1.81001 6.71801C2.01293 6.26145 2.30911 5.82376 2.74004 5.50056C3.16605 5.18105 3.74712 4.95556 4.5556 4.95556V4.15556C3.5863 4.15556 2.83404 4.43006 2.26004 4.86056C1.69098 5.28735 1.32049 5.84967 1.07896 6.3931C0.837606 6.93616 0.7189 7.47381 0.659918 7.87194C0.630277 8.07202 0.615337 8.2395 0.607792 8.35833C0.604016 8.41782 0.60208 8.4653 0.601088 8.49879C0.600591 8.51554 0.600331 8.52881 0.600194 8.53835C0.600125 8.54312 0.600088 8.54696 0.600068 8.54983C0.600058 8.55127 0.600052 8.55247 0.600048 8.55343C0.600047 8.5539 0.600046 8.55432 0.600045 8.55468C0.600045 8.55485 0.600044 8.55507 0.600044 8.55516C0.600044 8.55537 0.600044 8.55556 1.00004 8.55556ZM4.5556 4.95556C5.36408 4.95556 5.94515 5.18105 6.37116 5.50056C6.80209 5.82376 7.09827 6.26145 7.30119 6.71801C7.50427 7.17496 7.60779 7.6373 7.65992 7.98917C7.68583 8.16409 7.69867 8.30911 7.70501 8.40903C7.70818 8.45892 7.70972 8.49738 7.71046 8.52248C7.71083 8.53503 7.71101 8.54422 7.71109 8.54981C7.71113 8.55261 7.71114 8.55451 7.71115 8.55548C7.71116 8.55596 7.71116 8.55621 7.71116 8.55623C7.71116 8.55623 7.71116 8.55618 7.71116 8.55607C7.71116 8.55601 7.71116 8.55589 7.71116 8.55586C7.71116 8.55571 7.71116 8.55556 8.11116 8.55556C8.51116 8.55556 8.51116 8.55537 8.51116 8.55516C8.51116 8.55507 8.51116 8.55485 8.51115 8.55468C8.51115 8.55432 8.51115 8.5539 8.51115 8.55343C8.51115 8.55247 8.51114 8.55127 8.51113 8.54983C8.51111 8.54696 8.51107 8.54312 8.51101 8.53835C8.51087 8.52881 8.51061 8.51554 8.51011 8.49879C8.50912 8.4653 8.50718 8.41782 8.50341 8.35833C8.49586 8.2395 8.48092 8.07202 8.45128 7.87194C8.3923 7.47381 8.27359 6.93616 8.03224 6.3931C7.79071 5.84966 7.42022 5.28735 6.85116 4.86056C6.27716 4.43006 5.52489 4.15556 4.5556 4.15556V4.95556ZM3.66671 5C4.06671 5 4.06671 5.0002 4.06671 5.00039C4.06671 5.00043 4.06671 5.0006 4.06671 5.00069C4.06671 5.00086 4.06671 5.00097 4.06671 5.00102C4.06671 5.00112 4.06671 5.00099 4.06671 5.00063C4.06672 4.9999 4.06674 4.99824 4.06678 4.99569C4.06687 4.99059 4.06708 4.9819 4.06752 4.96988C4.06841 4.94583 4.07027 4.90849 4.07414 4.85977C4.08188 4.7622 4.09761 4.61986 4.12947 4.44784C4.19349 4.10211 4.32087 3.64617 4.57193 3.19426C4.82171 2.74466 5.19257 2.30096 5.74751 1.968C6.30185 1.63539 7.06195 1.4 8.11116 1.4V0.6C6.93814 0.6 6.03157 0.864607 5.33591 1.282C4.64085 1.69904 4.17838 2.25534 3.8726 2.80574C3.56811 3.35383 3.41771 3.89789 3.34284 4.30216C3.30525 4.50514 3.28626 4.6753 3.27664 4.79648C3.27183 4.85714 3.26935 4.90574 3.26807 4.94027C3.26743 4.95755 3.26709 4.97133 3.26691 4.98136C3.26682 4.98637 3.26677 4.99046 3.26674 4.99357C3.26673 4.99513 3.26672 4.99645 3.26672 4.99752C3.26671 4.99806 3.26671 4.99853 3.26671 4.99895C3.26671 4.99915 3.26671 4.99942 3.26671 4.99952C3.26671 4.99977 3.26671 5 3.66671 5ZM8.11116 1.4C9.16036 1.4 9.92046 1.63539 10.4748 1.968C11.0297 2.30096 11.4006 2.74466 11.6504 3.19426C11.9014 3.64617 12.0288 4.10211 12.0928 4.44784C12.1247 4.61986 12.1404 4.7622 12.1482 4.85977C12.152 4.90849 12.1539 4.94583 12.1548 4.96988C12.1552 4.9819 12.1554 4.99059 12.1555 4.99569C12.1556 4.99824 12.1556 4.9999 12.1556 5.00063C12.1556 5.00099 12.1556 5.00112 12.1556 5.00102C12.1556 5.00097 12.1556 5.00086 12.1556 5.00069C12.1556 5.0006 12.1556 5.00043 12.1556 5.00039C12.1556 5.0002 12.1556 5 12.5556 5C12.9556 5 12.9556 4.99977 12.9556 4.99952C12.9556 4.99942 12.9556 4.99915 12.9556 4.99895C12.9556 4.99853 12.9556 4.99806 12.9556 4.99752C12.9556 4.99645 12.9556 4.99513 12.9556 4.99357C12.9555 4.99046 12.9555 4.98637 12.9554 4.98136C12.9552 4.97133 12.9549 4.95755 12.9542 4.94027C12.953 4.90574 12.9505 4.85714 12.9457 4.79648C12.936 4.6753 12.9171 4.50514 12.8795 4.30216C12.8046 3.89789 12.6542 3.35383 12.3497 2.80574C12.0439 2.25534 11.5815 1.69904 10.8864 1.282C10.1907 0.864607 9.28417 0.6 8.11116 0.6V1.4ZM8.11121 21.4H10.7779V20.6H8.11121V21.4ZM8.11121 20.6H5.44454V21.4H8.11121V20.6ZM8.51121 21V16.1111H7.71121V21H8.51121ZM8.18276 15.7176C5.79061 15.2826 4.10021 14.4443 3.00955 13.2627C1.92441 12.087 1.39147 10.5263 1.40004 8.5573L0.600048 8.55381C0.590816 10.6754 1.16901 12.448 2.42168 13.8053C3.66883 15.1565 5.54291 16.0507 8.03965 16.5047L8.18276 15.7176ZM8.15538 16.5087C12.3075 16.0473 15.9316 12.7026 15.6212 8.52592L14.8234 8.58519C15.0934 12.2185 11.9149 15.286 8.06703 15.7136L8.15538 16.5087ZM15.2223 8.15556H1.00004V8.95556H15.2223V8.15556ZM15.2223 8.15556H8.11116V8.95556H15.2223V8.15556ZM8.11116 8.55556C8.51116 8.55556 8.51116 8.55572 8.51116 8.55586C8.51116 8.55589 8.51116 8.55602 8.51116 8.55607C8.51116 8.55618 8.51115 8.55624 8.51115 8.55623C8.51115 8.55621 8.51116 8.55596 8.51116 8.55548C8.51117 8.55451 8.51118 8.55261 8.51122 8.54982C8.5113 8.54422 8.51148 8.53503 8.51185 8.52248C8.51259 8.49738 8.51413 8.45892 8.5173 8.40903C8.52364 8.30911 8.53648 8.16409 8.5624 7.98918C8.61453 7.63731 8.71804 7.17496 8.92113 6.71801C9.12405 6.26145 9.42023 5.82376 9.85117 5.50056C10.2772 5.18105 10.8582 4.95556 11.6667 4.95556V4.15556C10.6974 4.15556 9.94517 4.43006 9.37117 4.86055C8.8021 5.28735 8.43161 5.84966 8.19009 6.3931C7.94872 6.93615 7.83002 7.4738 7.77103 7.87193C7.74139 8.07202 7.72645 8.2395 7.7189 8.35833C7.71513 8.41781 7.71319 8.46529 7.7122 8.49879C7.7117 8.51554 7.71144 8.52881 7.71131 8.53834C7.71124 8.54312 7.7112 8.54695 7.71118 8.54983C7.71117 8.55127 7.71116 8.55247 7.71116 8.55342C7.71116 8.5539 7.71116 8.55432 7.71116 8.55467C7.71116 8.55485 7.71116 8.55507 7.71116 8.55516C7.71116 8.55536 7.71116 8.55555 8.11116 8.55556ZM11.6667 4.95556C12.4752 4.95556 13.0563 5.18105 13.4823 5.50056C13.9132 5.82376 14.2094 6.26145 14.4123 6.71801C14.6154 7.17496 14.7189 7.63731 14.7711 7.98918C14.797 8.1641 14.8098 8.30911 14.8162 8.40903C14.8193 8.45892 14.8209 8.49738 14.8216 8.52248C14.822 8.53503 14.8222 8.54422 14.8223 8.54982C14.8223 8.55262 14.8223 8.55451 14.8223 8.55548C14.8223 8.55596 14.8223 8.55622 14.8223 8.55623C14.8223 8.55624 14.8223 8.55618 14.8223 8.55607C14.8223 8.55602 14.8223 8.55589 14.8223 8.55586C14.8223 8.55572 14.8223 8.55556 15.2223 8.55556C15.6223 8.55555 15.6223 8.55536 15.6223 8.55516C15.6223 8.55507 15.6223 8.55485 15.6223 8.55467C15.6223 8.55432 15.6223 8.5539 15.6223 8.55342C15.6223 8.55247 15.6223 8.55127 15.6223 8.54983C15.6223 8.54695 15.6222 8.54311 15.6222 8.53834C15.622 8.5288 15.6218 8.51553 15.6213 8.49878C15.6203 8.46529 15.6183 8.41781 15.6146 8.35833C15.607 8.2395 15.5921 8.07201 15.5624 7.87193C15.5035 7.4738 15.3847 6.93615 15.1434 6.3931C14.9018 5.84966 14.5314 5.28735 13.9623 4.86055C13.3883 4.43006 12.636 4.15556 11.6667 4.15556V4.95556Z" fill="#333333"/>
</svg>
