<svg width="76" height="76" viewBox="0 0 76 76" fill="none" xmlns="http://www.w3.org/2000/svg">
<g filter="url(#filter0_d_638_5646)">
<rect x="10" y="5" width="56" height="56" rx="6" fill="white"/>
<path d="M43.5557 54C44.108 54 44.5557 53.5523 44.5557 53C44.5557 52.4477 44.108 52 43.5557 52V54ZM32.8891 52C32.3368 52 31.8891 52.4477 31.8891 53C31.8891 53.5523 32.3368 54 32.8891 54V52ZM38.2223 27.1111H24.0001V29.1111H38.2223V27.1111ZM24.0001 28.1111C25.0001 28.1111 25.0001 28.1115 25.0001 28.1119C25.0001 28.112 25.0001 28.1123 25.0001 28.1125C25.0001 28.1128 25.0001 28.113 25.0001 28.1132C25.0001 28.1134 25.0001 28.1131 25.0001 28.1124C25.0001 28.1109 25.0001 28.1076 25.0002 28.1025C25.0003 28.0923 25.0007 28.0749 25.0014 28.0509C25.0028 28.0028 25.0058 27.9281 25.012 27.8307C25.0244 27.6356 25.0495 27.3512 25.1004 27.0077C25.2029 26.3155 25.4062 25.4096 25.8028 24.5172C26.199 23.6258 26.7728 22.7816 27.6001 22.1611C28.4151 21.5499 29.5344 21.1111 31.1112 21.1111V19.1111C29.1324 19.1111 27.5851 19.6724 26.4001 20.5611C25.2274 21.4406 24.4679 22.5964 23.9752 23.705C23.4829 24.8126 23.2417 25.9067 23.122 26.7146C23.0618 27.121 23.0314 27.4616 23.016 27.704C23.0083 27.8254 23.0043 27.9226 23.0023 27.9917C23.0012 28.0262 23.0007 28.0538 23.0004 28.0738C23.0003 28.0839 23.0002 28.092 23.0001 28.0983C23.0001 28.1014 23.0001 28.104 23.0001 28.1062C23.0001 28.1072 23.0001 28.1082 23.0001 28.109C23.0001 28.1094 23.0001 28.1099 23.0001 28.1101C23.0001 28.1106 23.0001 28.1111 24.0001 28.1111ZM31.1112 21.1111C32.688 21.1111 33.8073 21.5499 34.6223 22.1611C35.4496 22.7816 36.0234 23.6258 36.4196 24.5172C36.8162 25.4096 37.0195 26.3155 37.122 27.0077C37.1729 27.3512 37.198 27.6356 37.2104 27.8307C37.2166 27.9281 37.2196 28.0028 37.221 28.0509C37.2217 28.0749 37.2221 28.0923 37.2222 28.1025C37.2223 28.1076 37.2223 28.1109 37.2223 28.1124C37.2223 28.1131 37.2223 28.1134 37.2223 28.1132C37.2223 28.113 37.2223 28.1128 37.2223 28.1125C37.2223 28.1123 37.2223 28.112 37.2223 28.1119C37.2223 28.1115 37.2223 28.1111 38.2223 28.1111C39.2223 28.1111 39.2223 28.1106 39.2223 28.1101C39.2223 28.1099 39.2223 28.1094 39.2223 28.109C39.2223 28.1082 39.2223 28.1072 39.2223 28.1062C39.2223 28.104 39.2223 28.1014 39.2223 28.0983C39.2222 28.092 39.2221 28.0839 39.222 28.0738C39.2217 28.0538 39.2212 28.0262 39.2201 27.9917C39.2181 27.9226 39.2141 27.8254 39.2064 27.704C39.191 27.4616 39.1606 27.121 39.1004 26.7146C38.9807 25.9067 38.7395 24.8126 38.2472 23.705C37.7545 22.5964 36.995 21.4406 35.8223 20.5611C34.6373 19.6724 33.09 19.1111 31.1112 19.1111V21.1111ZM29.3334 21C30.3334 21 30.3334 21.0005 30.3334 21.001C30.3334 21.0011 30.3334 21.0016 30.3334 21.0018C30.3334 21.0023 30.3334 21.0027 30.3334 21.0029C30.3334 21.0034 30.3334 21.0034 30.3334 21.003C30.3334 21.0022 30.3335 20.9995 30.3335 20.995C30.3337 20.986 30.3341 20.9699 30.3349 20.9472C30.3366 20.9017 30.3402 20.8298 30.3476 20.7354C30.3627 20.5461 30.3933 20.2684 30.4556 19.9321C30.5809 19.2553 30.8299 18.3654 31.3187 17.4856C31.8042 16.6116 32.5231 15.7524 33.5979 15.1075C34.6713 14.4635 36.1549 14 38.2223 14V12C35.8453 12 33.9956 12.5365 32.5689 13.3925C31.1438 14.2476 30.1959 15.3884 29.5704 16.5144C28.948 17.6346 28.6415 18.7447 28.489 19.5679C28.4124 19.9816 28.3736 20.3289 28.3539 20.5771C28.3441 20.7014 28.3389 20.8015 28.3363 20.8731C28.3349 20.909 28.3342 20.9378 28.3339 20.9591C28.3337 20.9698 28.3336 20.9786 28.3335 20.9854C28.3335 20.9888 28.3334 20.9917 28.3334 20.9942C28.3334 20.9954 28.3334 20.9965 28.3334 20.9975C28.3334 20.9979 28.3334 20.9986 28.3334 20.9988C28.3334 20.9994 28.3334 21 29.3334 21ZM38.2223 14C40.2898 14 41.7734 14.4635 42.8467 15.1075C43.9215 15.7524 44.6404 16.6116 45.1259 17.4856C45.6147 18.3654 45.8637 19.2553 45.989 19.9321C46.0513 20.2684 46.082 20.5461 46.097 20.7354C46.1045 20.8298 46.108 20.9017 46.1097 20.9472C46.1106 20.9699 46.1109 20.986 46.1111 20.995C46.1112 20.9995 46.1112 21.0022 46.1112 21.003C46.1112 21.0034 46.1112 21.0034 46.1112 21.0029C46.1112 21.0027 46.1112 21.0023 46.1112 21.0018C46.1112 21.0016 46.1112 21.0011 46.1112 21.001C46.1112 21.0005 46.1112 21 47.1112 21C48.1112 21 48.1112 20.9994 48.1112 20.9988C48.1112 20.9986 48.1112 20.9979 48.1112 20.9975C48.1112 20.9965 48.1112 20.9954 48.1112 20.9942C48.1112 20.9917 48.1112 20.9888 48.1111 20.9854C48.1111 20.9786 48.111 20.9698 48.1108 20.9591C48.1104 20.9378 48.1097 20.909 48.1083 20.8731C48.1057 20.8015 48.1006 20.7014 48.0907 20.5771C48.071 20.3289 48.0322 19.9816 47.9556 19.5679C47.8032 18.7447 47.4966 17.6346 46.8742 16.5144C46.2487 15.3884 45.3009 14.2476 43.8757 13.3925C42.449 12.5365 40.5993 12 38.2223 12V14ZM38.2224 54H43.5557V52H38.2224V54ZM38.2224 52H32.8891V54H38.2224V52ZM39.2224 53V43.2222H37.2224V53H39.2224ZM38.4013 42.2384C33.6431 41.3732 30.3083 39.7107 28.1661 37.3897C26.0377 35.0837 24.9831 32.0152 25.0001 28.1155L23.0001 28.1068C22.9815 32.3881 24.1492 35.9864 26.6964 38.7462C29.2298 41.491 33.0239 43.2934 38.0435 44.2061L38.4013 42.2384ZM38.3328 44.2161C46.713 43.285 54.0727 36.5263 53.4419 28.037L51.4474 28.1852C51.9772 35.316 45.7318 41.3817 38.112 42.2283L38.3328 44.2161ZM52.4446 27.1111H24.0001V29.1111H52.4446V27.1111ZM52.4446 27.1111H38.2223V29.1111H52.4446V27.1111ZM38.2223 28.1111C39.2223 28.1111 39.2223 28.1115 39.2223 28.1119C39.2223 28.112 39.2223 28.1123 39.2223 28.1125C39.2223 28.1128 39.2223 28.1131 39.2223 28.1132C39.2223 28.1134 39.2223 28.1131 39.2223 28.1124C39.2223 28.1109 39.2224 28.1076 39.2224 28.1025C39.2226 28.0923 39.2229 28.0749 39.2236 28.0509C39.225 28.0028 39.228 27.9281 39.2342 27.8307C39.2466 27.6356 39.2717 27.3512 39.3226 27.0077C39.4252 26.3155 39.6284 25.4096 40.025 24.5173C40.4212 23.6258 40.995 22.7816 41.8223 22.1611C42.6374 21.5499 43.7567 21.1111 45.3335 21.1111V19.1111C43.3547 19.1111 41.8073 19.6724 40.6223 20.5611C39.4497 21.4406 38.6901 22.5964 38.1974 23.705C37.7051 24.8126 37.4639 25.9067 37.3442 26.7146C37.284 27.121 37.2536 27.4616 37.2382 27.704C37.2305 27.8254 37.2265 27.9226 37.2245 27.9916C37.2235 28.0262 37.2229 28.0538 37.2226 28.0738C37.2225 28.0839 37.2224 28.092 37.2224 28.0983C37.2223 28.1014 37.2223 28.104 37.2223 28.1061C37.2223 28.1072 37.2223 28.1082 37.2223 28.109C37.2223 28.1094 37.2223 28.1099 37.2223 28.1101C37.2223 28.1106 37.2223 28.1111 38.2223 28.1111ZM45.3335 21.1111C46.9102 21.1111 48.0296 21.5499 48.8446 22.1611C49.6719 22.7816 50.2457 23.6258 50.6419 24.5173C51.0385 25.4096 51.2418 26.3155 51.3443 27.0077C51.3952 27.3512 51.4204 27.6356 51.4328 27.8307C51.4389 27.9281 51.4419 28.0028 51.4433 28.0509C51.4441 28.0749 51.4444 28.0923 51.4445 28.1025C51.4446 28.1076 51.4446 28.1109 51.4446 28.1124C51.4446 28.1131 51.4446 28.1134 51.4446 28.1132C51.4446 28.1131 51.4446 28.1128 51.4446 28.1125C51.4446 28.1123 51.4446 28.112 51.4446 28.1119C51.4446 28.1115 51.4446 28.1111 52.4446 28.1111C53.4446 28.1111 53.4446 28.1106 53.4446 28.1101C53.4446 28.1099 53.4446 28.1094 53.4446 28.109C53.4446 28.1082 53.4446 28.1072 53.4446 28.1061C53.4446 28.104 53.4446 28.1014 53.4446 28.0982C53.4445 28.092 53.4445 28.0839 53.4443 28.0738C53.444 28.0538 53.4435 28.0262 53.4425 27.9916C53.4404 27.9226 53.4364 27.8253 53.4287 27.704C53.4133 27.4616 53.3829 27.121 53.3227 26.7146C53.203 25.9067 52.9618 24.8126 52.4695 23.705C51.9768 22.5964 51.2173 21.4406 50.0446 20.5611C48.8596 19.6724 47.3123 19.1111 45.3335 19.1111V21.1111Z" fill="#333333"/>
</g>
<defs>
<filter id="filter0_d_638_5646" x="0" y="0" width="76" height="76" filterUnits="userSpaceOnUse" color-interpolation-filters="sRGB">
<feFlood flood-opacity="0" result="BackgroundImageFix"/>
<feColorMatrix in="SourceAlpha" type="matrix" values="0 0 0 0 0 0 0 0 0 0 0 0 0 0 0 0 0 0 127 0" result="hardAlpha"/>
<feOffset dy="5"/>
<feGaussianBlur stdDeviation="5"/>
<feComposite in2="hardAlpha" operator="out"/>
<feColorMatrix type="matrix" values="0 0 0 0 0 0 0 0 0 0 0 0 0 0 0 0 0 0 0.15 0"/>
<feBlend mode="normal" in2="BackgroundImageFix" result="effect1_dropShadow_638_5646"/>
<feBlend mode="normal" in="SourceGraphic" in2="effect1_dropShadow_638_5646" result="shape"/>
</filter>
</defs>
</svg>
