<svg width="24" height="24" viewBox="0 0 24 24" fill="none" xmlns="http://www.w3.org/2000/svg">
<path d="M4.5974 8.83871H2.3C2.13431 8.83871 2 8.70439 2 8.53871V7.34405C2 7.23181 2.06266 7.12895 2.16241 7.07747L11.8624 2.07102C11.9487 2.02646 12.0513 2.02646 12.1376 2.07102L21.8376 7.07747C21.9373 7.12895 22 7.23181 22 7.34405V8.53871C22 8.70439 21.8657 8.83871 21.7 8.83871H20.0519M4.5974 8.83871L11.8598 4.78787C11.9474 4.73902 12.0536 4.73716 12.1428 4.78292L20.0519 8.83871M4.5974 8.83871L5.24675 17.871M4.5974 8.83871H7.71429M20.0519 8.83871H19.2727M3.2987 19.9355H2.3C2.13431 19.9355 2 20.0698 2 20.2355V21.7C2 21.8657 2.13431 22 2.3 22H21.7C21.8657 22 22 21.8657 22 21.7V20.2355C22 20.0698 21.8657 19.9355 21.7 19.9355H20.7013M3.2987 19.9355V18.171C3.2987 18.0053 3.43302 17.871 3.5987 17.871H5.24675M3.2987 19.9355H20.7013M20.7013 19.9355V18.171C20.7013 18.0053 20.567 17.871 20.4013 17.871H18.7857M5.24675 17.871H7.32468M7.32468 17.871L7.71429 8.83871M7.32468 17.871H11.0909M7.71429 8.83871H10.4416M11.0909 17.871L10.4416 8.83871M11.0909 17.871H13.039M10.4416 8.83871H13.4286M13.039 17.871L13.4286 8.83871M13.039 17.871H16.8701M13.4286 8.83871H16.4156M16.8701 17.871L16.4156 8.83871M16.8701 17.871H18.7857M16.4156 8.83871H19.2727M18.7857 17.871L19.2727 8.83871" stroke="#333333" stroke-width="0.8"/>
</svg>
