<svg width="24" height="24" viewBox="0 0 24 24" fill="none" xmlns="http://www.w3.org/2000/svg">
<path d="M2.74168 11.9523C1.72454 15.5421 4.87837 16.9352 6.58243 17.183C8.03043 16.8555 11.1384 16.2271 10.0523 11.9523C10.847 8.52711 9.31068 7.25262 6.37052 5.04883C2.4715 8.02262 2.3267 10.8902 2.74168 11.9523Z" stroke="#333333" stroke-width="0.8" stroke-linejoin="round"/>
<path d="M13.4445 10.638C12.428 15.1297 15.5798 16.8728 17.2828 17.1829C18.7299 16.7732 21.8358 15.9869 20.7505 10.638C22.0001 7 20.2211 5.25751 17.2828 2.5C13.3862 6.22098 12.5001 8 13.4445 10.638Z" stroke="#333333" stroke-width="0.8" stroke-linejoin="round"/>
<path d="M2 22H22" stroke="#333333" stroke-width="0.8" stroke-linecap="round"/>
<path d="M6.53174 22.0001V12.1221" stroke="#333333" stroke-width="0.8" stroke-linecap="round"/>
<path d="M8.60758 12.7223C8.66967 12.5103 8.54815 12.2881 8.33614 12.226C8.12413 12.1639 7.90193 12.2854 7.83983 12.4974L8.60758 12.7223ZM6.95698 14.3595C7.15374 13.9228 7.41748 13.7599 7.70272 13.6099C7.97112 13.4688 8.44507 13.2771 8.60758 12.7223L7.83983 12.4974C7.79184 12.6613 7.70006 12.7074 7.33036 12.9019C6.9775 13.0874 6.53079 13.3579 6.22759 14.0309L6.95698 14.3595Z" fill="#333333"/>
<path d="M17.2266 22.0001V12.3049" stroke="#333333" stroke-width="0.8" stroke-linecap="round"/>
<path d="M18.9751 12.4878C19.0546 13.619 17.8096 13.417 17.2533 14.6829C16.8559 13.444 16.1142 14.05 15.293 12.7437" stroke="#333333" stroke-width="0.8" stroke-linecap="round"/>
</svg>
