<svg width="24" height="24" viewBox="0 0 24 24" fill="none" xmlns="http://www.w3.org/2000/svg">
<path d="M16.1573 12.4171L15.8764 7.69804H14.4719M16.1573 12.4171H14.809M16.1573 12.4171H18.6292M22 21.0688L21.3258 12.4171H20.0337M22 21.0688L20.7079 19.2149M22 21.0688H19.3596M10.0899 21.0688H2L2.78652 7.69804H5.48315M10.0899 21.0688L10.9888 12.4171H13.3483M10.0899 21.0688H19.3596M13.0674 14.2149C13.0674 14.2149 13.1236 16.462 13.1236 17.4733C13.1236 18.4846 16.5506 18.4846 16.5506 17.4733C16.5506 16.462 16.5506 14.2149 16.5506 14.2149M14.809 12.4171L14.4719 7.69804M14.809 12.4171H13.3483M14.4719 7.69804H13.1236M13.3483 12.4171L13.1236 7.69804M13.1236 7.69804H10.9888M13.1236 7.69804C13.1236 7.69804 13.1236 8.03506 13.1236 5.16995C13.1236 2.30484 7.5618 2.24867 7.5618 5.16995C7.5618 8.09123 7.5618 7.69804 7.5618 7.69804M10.9888 7.69804V9.27107M10.9888 7.69804H7.5618M10.9888 7.69804C10.9888 7.69804 10.9888 7.47326 10.9888 4.94523C10.9888 2.4172 5.53933 2.4172 5.48315 4.94523C5.42697 7.47326 5.48315 7.69804 5.48315 7.69804M5.48315 7.69804V10.3385M5.48315 7.69804H7.5618M5.48315 10.3385C5.48315 10.3385 4.47191 10.5633 4.47191 11.1812C4.47191 11.7991 4.47191 13.7655 4.47191 13.7655H6.60674C6.60674 13.7655 6.60674 11.8553 6.60674 11.1812C6.60674 10.5071 5.48315 10.3385 5.48315 10.3385ZM20.0337 12.4171L20.7079 19.2149M20.0337 12.4171H18.6292M20.7079 19.2149L19.3596 21.0688M19.3596 21.0688L18.6292 12.4171" stroke="#333333" stroke-width="0.8" stroke-linecap="round" stroke-linejoin="round"/>
</svg>
