<svg width="20" height="20" viewBox="0 0 20 20" fill="none" xmlns="http://www.w3.org/2000/svg">
<g clip-path="url(#clip0_740_10199)">
<mask id="mask0_740_10199" style="mask-type:luminance" maskUnits="userSpaceOnUse" x="0" y="3" width="20" height="14">
<path d="M0.839844 3.33008H19.1681V16.6601H0.839844V3.33008Z" fill="white"/>
</mask>
<g mask="url(#mask0_740_10199)">
<path fill-rule="evenodd" clip-rule="evenodd" d="M0.839844 3.33008H19.1681V16.6601H0.839844V3.33008Z" fill="#000099"/>
<path fill-rule="evenodd" clip-rule="evenodd" d="M4.64648 3.33008L18.3671 16.6679V3.33789L4.64648 3.33008Z" fill="#FFCC00"/>
<path fill-rule="evenodd" clip-rule="evenodd" d="M14.9411 15.867L14.1919 15.3384L13.424 15.8644L13.714 15L12.9568 14.4663H13.8966L14.1866 13.6019L14.4739 14.4689H15.4136L14.6618 15.0078L14.9411 15.867ZM17.124 16.1377L16.1842 16.1351L15.8969 15.2682L15.607 16.1325H14.6672L15.4244 16.6662L15.1344 17.5306L15.9023 17.0047L16.6541 17.5332L16.3722 16.674L17.124 16.1377ZM12.9461 13.3468L13.6979 12.8078L12.7581 12.8052L12.4708 11.9409L12.1808 12.8052L11.241 12.8026L11.9982 13.3363L11.7082 14.2033L12.4762 13.6748L13.228 14.2059L12.9461 13.3468ZM11.2196 11.6675L11.9714 11.1312L11.0316 11.1286L10.7443 10.2616L10.4516 11.126H9.51455L10.2717 11.6597L9.98175 12.524L10.7497 11.9981L11.4988 12.5266L11.2196 11.6675ZM9.50918 10.0117L10.261 9.47272H9.32123L9.03661 8.60315L8.74663 9.46752H7.80686L8.56404 9.99864L8.27406 10.8656L9.04198 10.3371L9.7938 10.8682L9.51187 10.009L9.50918 10.0117ZM7.78 8.33759L8.53182 7.80127L7.59205 7.79866L7.30475 6.93169L7.01208 7.79606H6.07499L6.83486 8.32978L6.54488 9.19415L7.3128 8.66824L8.06194 9.19675L7.78269 8.33759H7.78ZM6.07231 6.67395L6.82144 6.13502H5.88167L5.59705 5.26544L5.30438 6.13241H4.36461L5.12717 6.66353L4.83449 7.5279L5.60242 7.00199L6.34887 7.53311L6.07231 6.67395ZM4.35387 5.0077L5.103 4.46877H4.16323L3.87861 3.59919L3.58594 4.46616H2.64617L3.40873 4.99728L3.11337 5.86425L3.88398 5.33574L4.63043 5.86686L4.35387 5.0077ZM2.63543 3.34145L3.38188 2.80252H2.44211L2.15481 1.93555L1.8675 2.79991H0.927734L1.68761 3.33103L1.39762 4.1954L2.16555 3.66949L2.91199 4.20061L2.63543 3.34145Z" fill="white"/>
</g>
</g>
<defs>
<clipPath id="clip0_740_10199">
<rect x="0.839844" y="3.33008" width="18.33" height="13.33" rx="2" fill="white"/>
</clipPath>
</defs>
</svg>
