<svg width="14" height="11" viewBox="0 0 14 11" fill="none" xmlns="http://www.w3.org/2000/svg">
<g id="Flag_of_the_Valencian_Community_(2x3) 1">
<g clip-path="url(#clip0_2600_18555)">
<path id="Vector" d="M14 0H0V11H14V0Z" fill="#FCDD09"/>
<path id="Vector_2" d="M4.66667 0H0V11H4.66667V0Z" fill="#0072BC"/>
<path id="Vector_3" d="M14 2.44545V1.22338H4.67324V0H3.63986V11H4.67324V9.77662H14V8.55455H4.67324V7.33377H14V6.11169H4.67324V4.88831H14V3.66623H4.67324V2.44545H14Z" fill="#DA121A"/>
<path id="Vector_4" d="M2.13039 10.0299C2.13039 10.0299 1.70695 11.1377 1.51826 10.6065C1.51826 10.6065 1.57202 10.6312 1.6137 10.5818C1.651 10.5377 1.64661 10.4961 1.60383 10.4351C1.55775 10.3688 1.42502 10.3987 1.39869 10.4766C1.33835 10.6584 1.48206 10.8987 1.6126 10.887C1.95706 10.8597 1.99436 10.4234 2.22254 10.0519C2.2357 10.0273 2.13039 10.0299 2.13039 10.0299Z" fill="#FCDD09" stroke="black" stroke-width="0.0125372"/>
<path id="Vector_5" d="M2.13807 8.75583C2.13807 8.75583 1.71462 7.64804 1.52594 8.17921C1.52594 8.17921 1.57969 8.15453 1.62138 8.20389C1.65867 8.24804 1.65429 8.2896 1.6115 8.35064C1.56543 8.41687 1.43269 8.387 1.40636 8.30908C1.34603 8.12726 1.48974 7.8896 1.62028 7.89869C1.96474 7.92596 2.00204 8.36233 2.23022 8.73376C2.24228 8.75583 2.13807 8.75583 2.13807 8.75583Z" fill="#FCDD09" stroke="black" stroke-width="0.0125372"/>
<path id="Vector_6" d="M3.55869 9.01554C3.49835 9.1532 3.00031 9.37918 3.00031 9.37918C3.00031 9.37918 3.48519 9.59736 3.5521 9.74281L3.55869 9.9558C3.31186 9.5584 3.06503 9.52073 2.87415 9.50905C2.73922 9.50125 2.75129 9.59476 2.77652 9.63242C2.99812 9.96619 2.7118 10.0623 2.66901 10.3389C2.66682 10.3532 2.63391 10.2922 2.62294 10.2116C2.61636 10.1597 2.62952 10.0818 2.62952 10.0818C2.52969 10.2753 2.40573 10.1207 2.32894 10.3155C2.32894 10.3155 2.31249 10.2857 2.30371 10.2766C2.28067 10.2519 2.21046 10.2649 2.19949 10.0454C2.19949 10.0376 2.11832 10.0623 2.11832 10.0623C2.16439 9.88047 2.55602 9.67918 2.454 9.5584C2.33772 9.42593 2.33004 9.84281 2.14903 9.87268C2.13916 9.87528 2.17646 9.7519 2.17646 9.7519C2.09089 9.7571 2.05359 9.87268 2.04591 9.94151L2.02507 9.87788C1.94389 9.82333 2.04591 9.5519 2.00861 9.50515C1.98009 9.46879 1.88246 9.61814 1.84077 9.64281C1.79909 9.66749 1.56323 9.66749 1.67951 9.83632C1.68829 9.8506 1.65648 9.75969 1.71023 9.74801C1.77056 9.73632 1.76837 9.81943 1.76837 9.82593C1.76837 9.85969 1.71462 9.94671 1.62905 9.89736C1.62466 9.89476 1.46779 9.75969 1.67293 9.56879C1.67293 9.56879 1.54678 9.65969 1.41623 9.49736C1.38771 9.46359 1.35041 9.41943 1.30434 9.38437C1.35041 9.3506 1.38332 9.31034 1.41184 9.27398C1.54458 9.11164 1.66854 9.19995 1.66854 9.19995C1.4634 9.00905 1.61918 8.87398 1.62466 8.87138C1.70804 8.82203 1.76179 8.90775 1.76398 8.94281C1.76398 8.9506 1.76618 9.03372 1.70584 9.02073C1.65209 9.00904 1.6828 8.91943 1.67512 8.93242C1.55884 9.10125 1.7958 9.10125 1.83858 9.12593C1.88027 9.1506 1.9779 9.29995 2.00642 9.26359C2.04372 9.21684 1.9417 8.94411 2.02288 8.89086L2.04153 8.82723C2.0514 8.89606 2.0887 9.01164 2.17426 9.01684C2.17426 9.01684 2.13696 8.89346 2.14684 8.89606C2.32675 8.92333 2.33772 9.34281 2.45181 9.20775C2.55383 9.08956 2.1611 8.88827 2.11612 8.70645C2.11612 8.70645 2.1973 8.73112 2.1973 8.72333C2.20717 8.50255 2.27848 8.51424 2.29932 8.48956C2.3081 8.47918 2.32236 8.4506 2.32236 8.4506C2.39915 8.64411 2.52531 8.48697 2.62294 8.68177C2.62294 8.68177 2.60868 8.60385 2.61416 8.5519C2.62404 8.47138 2.65804 8.41164 2.66024 8.42463C2.70631 8.70255 2.99153 8.79476 2.76994 9.12982C2.74471 9.16619 2.73264 9.26229 2.86977 9.2532C3.06064 9.24151 3.30747 9.20125 3.5521 8.80385L3.55869 9.01554Z" fill="#FCDD09" stroke="black" stroke-width="0.0125372"/>
<path id="Vector_7" d="M2.02398 9.87531C2.05141 9.60518 2.24339 9.51687 2.2401 9.3844C2.23571 9.25194 2.04154 9.11428 2.0185 8.8883M2.29385 10.2688C2.14246 9.89609 2.62953 9.77012 2.61527 9.3844C2.60101 9.01817 2.13807 8.85713 2.29165 8.49609M2.99484 9.37921H1.30215" stroke="black" stroke-width="0.0125372"/>
<path id="Vector_8" d="M2.84124 7.31432C2.78749 7.14029 2.63171 7.09094 2.54286 7.08835C2.44303 7.08315 2.28725 7.24549 2.19181 7.31432C2.10625 7.37536 1.95376 7.29484 1.92853 7.22341C1.87478 7.06627 1.95925 7.0364 2.00093 7.04419C2.00093 7.04419 1.95157 7.15718 2.03384 7.14289C2.0854 7.1325 2.09966 7.04159 2.09199 7.00523C2.07553 6.9312 1.98667 6.939 1.95047 6.95068C1.83638 6.98965 1.85503 7.17926 1.89452 7.25068C1.95047 7.35848 2.09199 7.37406 2.18084 7.35848C2.31797 7.3338 2.42767 7.16887 2.50885 7.17406C2.52969 7.17406 2.55273 7.26237 2.53189 7.26757C2.39476 7.29744 2.41341 7.41302 2.41341 7.41302V7.41562C2.41341 7.41562 2.39476 7.52861 2.53189 7.56107C2.55273 7.56627 2.5253 7.65718 2.50446 7.65718C2.42328 7.66237 2.31797 7.49224 2.18084 7.47017C2.09199 7.45588 1.95047 7.47016 1.89452 7.57796C1.85723 7.64939 1.83858 7.8377 1.95047 7.87796C1.98558 7.88965 2.07334 7.89744 2.09199 7.82341C2.10076 7.78705 2.0876 7.69354 2.03384 7.68575C1.95047 7.67146 2.00093 7.78445 2.00093 7.78445C1.95925 7.79484 1.87478 7.76237 1.92853 7.60523C1.95376 7.5338 2.10734 7.45328 2.19181 7.51432C2.28725 7.58575 2.44303 7.74549 2.54286 7.74029C2.63171 7.7351 2.78749 7.68835 2.84124 7.51432V7.31172V7.31432Z" fill="#FCDD09" stroke="black" stroke-width="0.0125372"/>
<path id="Vector_9" d="M3.52797 7.19874C3.50932 7.31432 3.26249 7.41432 3.26249 7.41432C3.26249 7.41432 3.50493 7.56367 3.53784 7.68445L3.53126 7.82471C3.45228 7.50783 3.1517 7.48316 3.1517 7.48316C3.21642 7.59095 3.27237 7.739 3.11879 7.88575C3.11879 7.88575 3.16486 7.74809 3.14182 7.71692C3.14182 7.71692 3.12098 7.80264 3.03432 7.88186C2.99921 7.91432 2.90158 7.90913 2.8577 7.9403L2.895 7.80004C2.84892 7.91302 2.72057 7.92731 2.72057 7.92731C2.7118 7.88835 2.71618 7.79484 2.75568 7.72341C2.83027 7.58835 2.81382 7.48965 2.81382 7.48965C2.74909 7.65848 2.49459 7.67406 2.44632 7.63251C2.43974 7.62731 2.50227 7.55458 2.50227 7.55458C2.47923 7.55978 2.4156 7.50523 2.4167 7.49095C2.4189 7.46887 2.46058 7.42212 2.46826 7.40783C2.46826 7.40783 2.42109 7.36108 2.4189 7.339C2.4167 7.32471 2.48142 7.27017 2.50446 7.27536C2.50446 7.27536 2.43974 7.20134 2.44851 7.19744C2.49569 7.15588 2.75129 7.17017 2.81601 7.3403C2.81601 7.3403 2.83466 7.24419 2.76006 7.10653C2.72057 7.0351 2.71618 6.939 2.72277 6.90264C2.72277 6.90264 2.85331 6.91692 2.89719 7.02991L2.85989 6.88965C2.90377 6.91952 3.00141 6.91432 3.03651 6.94809C3.12317 7.02601 3.14402 7.11303 3.14402 7.11303C3.16705 7.08056 3.12098 6.94419 3.12098 6.94419C3.27456 7.09095 3.21861 7.239 3.15389 7.34679C3.15389 7.34679 3.45666 7.32212 3.53345 7.00523L3.52797 7.19874Z" fill="#FCDD09" stroke="black" stroke-width="0.0125372"/>
<path id="Vector_10" d="M2.09857 7.45194C2.01519 7.45454 1.90111 7.52337 1.79799 7.50649C1.72339 7.4948 1.59065 7.38831 1.59065 7.38831C1.59065 7.38831 1.72558 7.30519 1.7936 7.28701C1.9033 7.25714 2.013 7.37012 2.09637 7.37272C2.11392 7.37272 2.11502 7.45194 2.09857 7.45194Z" fill="#FCDD09" stroke="black" stroke-width="0.0125372"/>
<path id="Vector_11" d="M2.10077 7.25583C2.14684 7.24414 2.13807 7.41297 2.13807 7.41297C2.13807 7.43505 2.14465 7.55973 2.10077 7.57011C2.0514 7.56232 2.06566 7.41297 2.06566 7.41297C2.06566 7.41297 2.05908 7.25323 2.10077 7.25583Z" fill="#FCDD09" stroke="black" stroke-width="0.0125372"/>
<g id="Vector_12">
<path d="M2.41013 7.40777L3.26908 7.41556L2.41013 7.40777ZM2.89171 7.81816L3.01458 7.41297L2.89171 7.81816ZM3.01348 7.41297L2.89281 7.01556L3.01348 7.41297Z" fill="#FCDD09"/>
<path d="M2.41013 7.40777L3.26908 7.41556M2.89171 7.81816L3.01458 7.41297M3.01348 7.41297L2.89281 7.01556" stroke="black" stroke-width="0.0125372"/>
</g>
<path id="Vector_13" d="M2.13807 6.10134C2.13807 6.10134 1.71462 7.20913 1.52594 6.67796C1.52594 6.67796 1.57969 6.70263 1.62138 6.65328C1.65867 6.60913 1.65429 6.56757 1.6115 6.50653C1.56543 6.4403 1.43269 6.47017 1.40636 6.54809C1.34603 6.72991 1.48974 6.97017 1.62028 6.95848C1.96474 6.93121 2.00204 6.49484 2.23022 6.12341C2.24228 6.09874 2.13807 6.10134 2.13807 6.10134Z" fill="#FCDD09" stroke="black" stroke-width="0.0125372"/>
<path id="Vector_14" d="M2.14464 4.82724C2.14464 4.82724 1.7212 3.71945 1.53251 4.25062C1.53251 4.25062 1.58627 4.22595 1.62795 4.2753C1.66525 4.31945 1.66086 4.36101 1.61808 4.42205C1.57201 4.48828 1.43927 4.45841 1.41294 4.38049C1.3526 4.19867 1.49631 3.96101 1.62686 3.9701C1.97132 3.99737 2.00861 4.43374 2.23679 4.80517C2.24776 4.82984 2.14464 4.82724 2.14464 4.82724Z" fill="#FCDD09" stroke="black" stroke-width="0.0125372"/>
<path id="Vector_15" d="M3.56528 5.08698C3.50494 5.22465 3.0069 5.45062 3.0069 5.45062C3.0069 5.45062 3.49178 5.6688 3.5587 5.81426L3.56528 6.02724C3.31845 5.62984 3.07162 5.59218 2.88075 5.58049C2.74581 5.5727 2.75788 5.6662 2.78311 5.70387C3.00471 6.03763 2.71839 6.13374 2.6756 6.41036C2.67341 6.42465 2.6405 6.36361 2.62953 6.28309C2.62295 6.23114 2.63611 6.15322 2.63611 6.15322C2.53628 6.34672 2.41232 6.19218 2.33553 6.38698C2.33553 6.38698 2.31908 6.35711 2.3103 6.34802C2.28726 6.32335 2.21706 6.33633 2.20609 6.11685C2.20609 6.10906 2.12491 6.13374 2.12491 6.13374C2.17098 5.95192 2.56261 5.75062 2.46059 5.62984C2.34431 5.49737 2.33663 5.91426 2.15562 5.94413C2.14575 5.94672 2.18305 5.82335 2.18305 5.82335C2.09748 5.82854 2.06018 5.94413 2.0525 6.01296L2.03166 5.94932C1.95048 5.89478 2.0525 5.62335 2.01521 5.57659C1.98668 5.54023 1.88905 5.68958 1.84736 5.71426C1.80568 5.73893 1.56982 5.73893 1.6861 5.90776C1.69488 5.92205 1.66307 5.83114 1.71682 5.81945C1.77716 5.80776 1.77496 5.89088 1.77496 5.89737C1.77496 5.93114 1.72121 6.01815 1.63564 5.9688C1.63125 5.9662 1.47438 5.83114 1.67952 5.63763C1.67952 5.63763 1.55337 5.72854 1.42282 5.5662C1.3943 5.53244 1.357 5.48828 1.31093 5.45322C1.357 5.41945 1.38991 5.37919 1.41844 5.34283C1.55117 5.17789 1.67513 5.2688 1.67513 5.2688C1.46999 5.07789 1.62577 4.94283 1.63125 4.94023C1.71463 4.89088 1.76838 4.97659 1.77057 5.01166C1.77057 5.01945 1.77277 5.10257 1.71243 5.08958C1.65868 5.07789 1.6894 4.98828 1.68172 5.00127C1.56543 5.1701 1.80239 5.1701 1.84517 5.19478C1.88686 5.21945 1.98449 5.3688 2.01301 5.33244C2.05031 5.28569 1.94719 5.01296 2.02947 4.95971L2.04812 4.89607C2.05799 4.96491 2.09529 5.08049 2.18085 5.08569C2.18085 5.08569 2.14356 4.96231 2.15343 4.96491C2.33334 4.99218 2.34431 5.41166 2.4584 5.27659C2.56042 5.15841 2.16769 4.95711 2.12271 4.7753C2.12271 4.7753 2.20389 4.79997 2.20389 4.79218C2.21376 4.5714 2.28507 4.58309 2.30591 4.55841C2.31469 4.54802 2.32895 4.51945 2.32895 4.51945C2.40574 4.71296 2.5319 4.55581 2.62953 4.75062C2.62953 4.75062 2.61527 4.6727 2.62075 4.62075C2.63063 4.54023 2.66463 4.48049 2.66683 4.49348C2.7129 4.7714 2.99812 4.86361 2.77653 5.19867C2.7513 5.23504 2.73923 5.32854 2.87636 5.32205C3.06724 5.31036 3.31406 5.2701 3.5587 4.8727L3.56528 5.08698Z" fill="#FCDD09" stroke="black" stroke-width="0.0125372"/>
<path id="Vector_16" d="M2.03276 5.94673C2.06018 5.6766 2.25216 5.58828 2.24887 5.45582C2.24448 5.32335 2.05031 5.18569 2.02727 4.95971M2.30043 6.34023C2.14904 5.9675 2.63611 5.84153 2.62185 5.45582C2.60759 5.08958 2.14465 4.92854 2.29823 4.5675M3.00141 5.45322H1.30873" stroke="black" stroke-width="0.0125372"/>
<path id="Vector_17" d="M2.1238 2.21425C2.1238 2.21425 1.70036 3.32204 1.51167 2.79087C1.51167 2.79087 1.56542 2.81555 1.60711 2.7662C1.64441 2.72204 1.64002 2.68048 1.59724 2.61945C1.55116 2.55321 1.41842 2.58308 1.3921 2.661C1.33176 2.84282 1.47547 3.08308 1.60601 3.07139C1.95047 3.04412 1.98777 2.60776 2.21595 2.23633C2.22802 2.21165 2.1238 2.21425 2.1238 2.21425Z" fill="#FCDD09" stroke="black" stroke-width="0.0125372"/>
<path id="Vector_18" d="M2.13039 0.940256C2.13039 0.940256 1.70695 -0.167536 1.51826 0.363633C1.51826 0.363633 1.57202 0.338957 1.6137 0.388308C1.651 0.432464 1.64661 0.474022 1.60383 0.535061C1.55775 0.601295 1.42502 0.571425 1.39869 0.493503C1.33835 0.311685 1.48206 0.071425 1.6126 0.0831133C1.95487 0.112983 1.99436 0.54675 2.22254 0.920776C2.2357 0.942854 2.13039 0.940256 2.13039 0.940256Z" fill="#FCDD09" stroke="black" stroke-width="0.0125372"/>
<path id="Vector_19" d="M3.55101 1.20128C3.49067 1.33894 2.99263 1.56491 2.99263 1.56491C2.99263 1.56491 3.47751 1.78309 3.54443 1.92855L3.55101 2.14154C3.30418 1.74413 3.05736 1.70647 2.86648 1.69478C2.72935 1.68699 2.74361 1.7805 2.76884 1.81816C2.99044 2.15193 2.70412 2.24803 2.66134 2.52465C2.65914 2.53894 2.62623 2.4779 2.61526 2.39738C2.60868 2.34543 2.62185 2.26751 2.62185 2.26751C2.52202 2.46102 2.39806 2.30647 2.32127 2.49868C2.32127 2.49868 2.30481 2.46881 2.29603 2.45972C2.273 2.43504 2.20279 2.44803 2.19182 2.22855C2.19182 2.22076 2.11064 2.24543 2.11064 2.24543C2.15671 2.06361 2.54835 1.86231 2.44632 1.74154C2.33004 1.60907 2.32236 2.02595 2.14136 2.05582C2.13148 2.05842 2.16878 1.93504 2.16878 1.93504C2.08322 1.94024 2.04592 2.05582 2.03824 2.12465L2.01739 2.06102C1.93622 2.00647 2.03604 1.73504 2.00094 1.68829C1.97242 1.65193 1.87478 1.80128 1.8331 1.82595C1.79141 1.85063 1.55555 1.85063 1.67184 2.01946C1.68061 2.03374 1.6488 1.94283 1.70255 1.93115C1.76289 1.91946 1.7607 2.00257 1.7607 2.00907C1.7607 2.04283 1.70694 2.12985 1.62138 2.0805C1.61699 2.0779 1.46012 1.94283 1.66526 1.74933C1.66526 1.74933 1.5391 1.84024 1.40856 1.6779C1.38003 1.64413 1.34274 1.59998 1.29666 1.56491C1.34274 1.53115 1.37565 1.49089 1.40417 1.45452C1.53691 1.29218 1.66087 1.3805 1.66087 1.3805C1.45573 1.18959 1.6115 1.05452 1.61699 1.05193C1.70255 1.00257 1.75411 1.08829 1.75631 1.12335C1.75631 1.13115 1.7585 1.21426 1.69817 1.20128C1.64441 1.18959 1.67513 1.09998 1.66745 1.11296C1.55117 1.2818 1.78812 1.2818 1.8309 1.30647C1.87259 1.33115 1.97022 1.4805 1.99875 1.44413C2.03604 1.39738 1.93402 1.12465 2.0152 1.07141L2.03385 1.00777C2.04372 1.0766 2.08102 1.19218 2.16659 1.19738C2.16659 1.19738 2.12929 1.074 2.13916 1.0766C2.31907 1.10387 2.33004 1.52335 2.44413 1.38829C2.54615 1.27011 2.15342 1.06881 2.10845 0.88699C2.10845 0.88699 2.18962 0.911665 2.18962 0.903873C2.1995 0.683094 2.2708 0.694782 2.29165 0.670107C2.30042 0.659717 2.31468 0.631146 2.31468 0.631146C2.39147 0.824652 2.51763 0.667509 2.61526 0.862315C2.61526 0.862315 2.601 0.784393 2.60649 0.732445C2.61636 0.651925 2.65037 0.592185 2.65256 0.605172C2.69864 0.883094 2.98386 0.975302 2.76226 1.31037C2.73703 1.34673 2.72496 1.44283 2.86209 1.43374C3.05297 1.42205 3.2998 1.3818 3.54443 0.984393L3.55101 1.20128Z" fill="#FCDD09" stroke="black" stroke-width="0.0125372"/>
<path id="Vector_20" d="M2.01849 2.05976C2.04592 1.78963 2.23789 1.70132 2.2346 1.56885C2.23021 1.43639 2.03604 1.29872 2.01301 1.07275M2.28726 2.45327C2.13587 2.08054 2.62294 1.95457 2.60868 1.56885C2.59442 1.20262 2.13148 1.04158 2.28506 0.680542M2.98825 1.56626H1.29666" stroke="black" stroke-width="0.0125372"/>
<path id="Vector_21" d="M2.83358 3.41039C2.77983 3.23636 2.62405 3.18701 2.5352 3.18442C2.43537 3.17922 2.27959 3.34156 2.18415 3.41039C2.09859 3.47143 1.9461 3.39091 1.92087 3.31948C1.86712 3.16234 1.95159 3.13247 1.99327 3.14026C1.99327 3.14026 1.94391 3.25325 2.02618 3.23896C2.07774 3.22857 2.092 3.13766 2.08213 3.1013C2.06568 3.02727 1.97792 3.03507 1.94281 3.04675C1.82872 3.08571 1.84737 3.27533 1.88686 3.34675C1.94281 3.45455 2.08433 3.47013 2.17318 3.45455C2.30811 3.42987 2.42001 3.26494 2.50119 3.27013C2.52203 3.27013 2.54507 3.35844 2.52423 3.36364C2.3871 3.39351 2.40575 3.50909 2.40575 3.50909V3.51169C2.40575 3.51169 2.3871 3.62468 2.52423 3.65455C2.54507 3.65974 2.51764 3.75065 2.4968 3.75065C2.41562 3.75584 2.31031 3.58571 2.17318 3.56364C2.08433 3.54935 1.94281 3.56364 1.88686 3.67143C1.84957 3.74286 1.83092 3.93117 1.94281 3.97143C1.97792 3.98312 2.06568 3.99091 2.08433 3.91688C2.0931 3.88052 2.07994 3.78701 2.02838 3.77922C1.94501 3.76494 1.99547 3.87792 1.99547 3.87792C1.95378 3.88831 1.86931 3.85584 1.92307 3.6987C1.9483 3.62727 2.10188 3.54675 2.18635 3.60779C2.28179 3.67662 2.43756 3.83896 2.53739 3.83377C2.62625 3.82857 2.78202 3.78182 2.83578 3.60779V3.41169H2.83358V3.41039Z" fill="#FCDD09" stroke="black" stroke-width="0.0125372"/>
<path id="Vector_22" d="M3.52139 3.29481C3.50274 3.41039 3.25592 3.51039 3.25592 3.51039C3.25592 3.51039 3.49836 3.65974 3.53127 3.78052L3.52468 3.92078C3.4457 3.6039 3.14512 3.57922 3.14512 3.57922C3.20984 3.68702 3.26579 3.83507 3.11221 3.98182C3.11221 3.98182 3.15828 3.84416 3.13525 3.81299C3.13525 3.81299 3.1144 3.8987 3.02774 3.97793C2.99264 4.01169 2.895 4.0052 2.85112 4.03637L2.88842 3.89611C2.84235 4.00909 2.714 4.02338 2.714 4.02338C2.70522 3.98442 2.70961 3.89091 2.75129 3.81948C2.82589 3.68442 2.80724 3.58572 2.80724 3.58572C2.74252 3.75455 2.48801 3.77013 2.43974 3.72858C2.43316 3.72338 2.49569 3.65065 2.49569 3.65065C2.47265 3.65585 2.40903 3.6013 2.41012 3.58702C2.41232 3.56494 2.454 3.51819 2.46168 3.5039C2.46168 3.5039 2.41451 3.45715 2.41232 3.43507C2.41012 3.42078 2.47485 3.36624 2.49789 3.37143C2.49789 3.37143 2.43316 3.29741 2.44194 3.29351C2.48911 3.25195 2.74471 3.26624 2.80944 3.43637C2.80944 3.43637 2.82808 3.34026 2.75129 3.2026C2.7118 3.13117 2.70741 3.03507 2.71619 2.9987C2.71619 2.9987 2.84673 3.01299 2.89061 3.12598L2.85332 2.98572C2.8972 3.01559 2.99483 3.01039 3.02993 3.04416C3.1166 3.12208 3.13744 3.20909 3.13744 3.20909C3.16048 3.17663 3.1144 3.04026 3.1144 3.04026C3.26798 3.18702 3.21204 3.33507 3.14731 3.44286C3.14731 3.44286 3.45009 3.41819 3.52688 3.1013L3.52139 3.29481Z" fill="#FCDD09" stroke="black" stroke-width="0.0125372"/>
<path id="Vector_23" d="M2.09309 3.55063C2.00972 3.55323 1.89563 3.62206 1.79251 3.60518C1.71791 3.59349 1.58517 3.487 1.58517 3.487C1.58517 3.487 1.72011 3.40388 1.78812 3.3857C1.89782 3.35583 2.00752 3.46882 2.09089 3.47141C2.10516 3.47141 2.10954 3.54804 2.09309 3.55063Z" fill="#FCDD09" stroke="black" stroke-width="0.0125372"/>
<path id="Vector_24" d="M2.09529 3.35197C2.14136 3.34028 2.13259 3.50651 2.13259 3.50651C2.13259 3.53119 2.13917 3.65327 2.09529 3.66366C2.04592 3.65586 2.06019 3.50651 2.06019 3.50651C2.06019 3.50651 2.0536 3.34937 2.09529 3.35197Z" fill="#FCDD09" stroke="black" stroke-width="0.0125372"/>
<g id="Vector_25">
<path d="M2.40353 3.5065L3.26249 3.51429L2.40353 3.5065ZM2.88293 3.91429L3.00579 3.5091L2.88293 3.91429ZM3.00689 3.5091L2.88622 3.11169L3.00689 3.5091Z" fill="#FCDD09"/>
<path d="M2.40353 3.5065L3.26249 3.51429M2.88293 3.91429L3.00579 3.5091M3.00689 3.5091L2.88622 3.11169" stroke="black" stroke-width="0.0125372"/>
</g>
<path id="Vector_26" d="M3.54663 8.58573C3.46106 8.3156 3.155 8.34547 3.155 8.34547C3.155 8.34547 3.46216 8.34807 3.54114 8.03119L3.54663 8.58573Z" fill="#FCDD09" stroke="black" stroke-width="0.0125372"/>
<path id="Vector_27" d="M3.54663 10.2C3.46106 10.4701 3.155 10.4403 3.155 10.4403C3.155 10.4403 3.46216 10.4377 3.54114 10.7546L3.54663 10.2Z" fill="#FCDD09" stroke="black" stroke-width="0.0125372"/>
<path id="Vector_28" d="M2.83905 10.448C2.83905 10.448 2.96521 10.5688 3.05077 10.5441C3.05077 10.5441 2.95314 10.6545 3.03432 10.7428C3.03432 10.7428 3.05955 10.6273 3.17583 10.6078C3.27347 10.5909 3.31296 10.4948 3.31296 10.448V10.4506C3.31515 10.4039 3.27566 10.3104 3.17583 10.2909C3.05955 10.2688 3.03432 10.1558 3.03432 10.1558C2.95314 10.2415 3.05077 10.3545 3.05077 10.3545C2.9663 10.3298 2.83905 10.448 2.83905 10.448Z" fill="#FCDD09" stroke="black" stroke-width="0.0125372"/>
<path id="Vector_29" d="M3.53564 6.25067C3.45008 6.5208 3.14401 6.49093 3.14401 6.49093C3.14401 6.49093 3.45117 6.48833 3.53016 6.80522L3.53564 6.25067Z" fill="#FCDD09" stroke="black" stroke-width="0.0125372"/>
<path id="Vector_30" d="M3.54663 4.68699C3.46106 4.41686 3.155 4.44673 3.155 4.44673C3.155 4.44673 3.46216 4.44933 3.54114 4.13245L3.54663 4.68699Z" fill="#FCDD09" stroke="black" stroke-width="0.0125372"/>
<path id="Vector_31" d="M3.54663 2.32727C3.46106 2.5974 3.155 2.56753 3.155 2.56753C3.155 2.56753 3.46216 2.56493 3.54114 2.88182L3.54663 2.32727Z" fill="#FCDD09" stroke="black" stroke-width="0.0125372"/>
<path id="Vector_32" d="M3.54663 0.77531C3.46106 0.50518 3.155 0.53505 3.155 0.53505C3.155 0.53505 3.46216 0.537647 3.54114 0.220764L3.54663 0.77531Z" fill="#FCDD09" stroke="black" stroke-width="0.0125372"/>
<path id="Vector_33" d="M3.63988 -0.0194702H3.52579V11.0247H3.63988V-0.0194702Z" fill="#FCDD09" stroke="black" stroke-width="0.0125372"/>
<path id="Vector_34" d="M2.84564 8.32858C2.84564 8.32858 2.9718 8.44936 3.05736 8.42469C3.05736 8.42469 2.95973 8.53508 3.04091 8.62339C3.04091 8.62339 3.06614 8.50781 3.18242 8.48832C3.28006 8.47144 3.31955 8.37534 3.31955 8.32858V8.33118C3.32174 8.28443 3.28225 8.19092 3.18242 8.17144C3.06614 8.14936 3.04091 8.03638 3.04091 8.03638C2.95973 8.12209 3.05736 8.23508 3.05736 8.23508C2.9718 8.2104 2.84564 8.32858 2.84564 8.32858Z" fill="#FCDD09" stroke="black" stroke-width="0.0125372"/>
<path id="Vector_35" d="M2.83905 6.49484C2.83905 6.49484 2.96521 6.61562 3.05077 6.59095C3.05077 6.59095 2.95314 6.70134 3.03432 6.78965C3.03432 6.78965 3.05955 6.67407 3.17583 6.65459C3.27347 6.6377 3.31296 6.5416 3.31296 6.49484V6.49744C3.31515 6.45069 3.27566 6.35718 3.17583 6.3377C3.05955 6.31562 3.03432 6.20264 3.03432 6.20264C2.95314 6.28835 3.05077 6.40134 3.05077 6.40134C2.9663 6.37666 2.83905 6.49484 2.83905 6.49484Z" fill="#FCDD09" stroke="black" stroke-width="0.0125372"/>
<path id="Vector_36" d="M2.84564 4.44937C2.84564 4.44937 2.9718 4.57015 3.05736 4.54548C3.05736 4.54548 2.95973 4.65587 3.04091 4.74418C3.04091 4.74418 3.06614 4.62859 3.18242 4.60911C3.28006 4.59223 3.31955 4.49613 3.31955 4.44937V4.45197C3.32174 4.40522 3.28225 4.31171 3.18242 4.29223C3.06614 4.27015 3.04091 4.15717 3.04091 4.15717C2.95973 4.24288 3.05736 4.35587 3.05736 4.35587C2.9718 4.33119 2.84564 4.44937 2.84564 4.44937Z" fill="#FCDD09" stroke="black" stroke-width="0.0125372"/>
<path id="Vector_37" d="M2.84564 2.56882C2.84564 2.56882 2.9718 2.6896 3.05736 2.66492C3.05736 2.66492 2.95973 2.77531 3.04091 2.86362C3.04091 2.86362 3.06614 2.74804 3.18242 2.72856C3.28006 2.71168 3.31955 2.61557 3.31955 2.56882V2.57142C3.32174 2.52466 3.28225 2.43116 3.18242 2.41168C3.06614 2.3896 3.04091 2.27661 3.04091 2.27661C2.95973 2.36233 3.05736 2.47531 3.05736 2.47531C2.9718 2.45064 2.84564 2.56882 2.84564 2.56882Z" fill="#FCDD09" stroke="black" stroke-width="0.0125372"/>
<path id="Vector_38" d="M2.8533 0.529879C2.8533 0.529879 2.97946 0.650658 3.06502 0.625983C3.06502 0.625983 2.96739 0.736372 3.04857 0.824684C3.04857 0.824684 3.0738 0.709099 3.19008 0.689619C3.28772 0.672736 3.32721 0.576632 3.32721 0.529879V0.532476C3.3294 0.485723 3.28991 0.392216 3.19008 0.372736C3.0738 0.350658 3.04857 0.237671 3.04857 0.237671C2.96739 0.323385 3.06502 0.436372 3.06502 0.436372C2.98055 0.412996 2.8533 0.529879 2.8533 0.529879Z" fill="#FCDD09" stroke="black" stroke-width="0.0125372"/>
<path id="Vector_39" d="M4.28051 10.3935C4.28051 10.4948 4.21031 10.5779 4.12474 10.5779C4.03917 10.5779 3.96896 10.4974 3.96896 10.3935C3.96896 10.2922 4.03917 10.2091 4.12474 10.2091C4.2125 10.2091 4.28051 10.2922 4.28051 10.3935Z" fill="white" stroke="black" stroke-width="0.0125372"/>
<path id="Vector_40" d="M4.28051 7.94809C4.28051 8.04939 4.21031 8.1325 4.12474 8.1325C4.03917 8.1325 3.96896 8.05198 3.96896 7.94809C3.96896 7.84679 4.03917 7.76367 4.12474 7.76367C4.2125 7.76627 4.28051 7.84679 4.28051 7.94809Z" fill="white" stroke="black" stroke-width="0.0125372"/>
<path id="Vector_41" d="M4.28051 5.50522C4.28051 5.60651 4.21031 5.68963 4.12474 5.68963C4.03917 5.68963 3.96896 5.60911 3.96896 5.50522C3.96896 5.40392 4.03917 5.3208 4.12474 5.3208C4.2125 5.3208 4.28051 5.40132 4.28051 5.50522Z" fill="white" stroke="black" stroke-width="0.0125372"/>
<path id="Vector_42" d="M4.28051 3.05972C4.28051 3.16102 4.21031 3.24414 4.12474 3.24414C4.03917 3.24414 3.96896 3.16362 3.96896 3.05972C3.96896 2.95842 4.03917 2.87531 4.12474 2.87531C4.2125 2.87531 4.28051 2.95842 4.28051 3.05972Z" fill="white" stroke="black" stroke-width="0.0125372"/>
<path id="Vector_43" d="M4.28051 0.616911C4.28051 0.718209 4.21031 0.801326 4.12474 0.801326C4.03917 0.801326 3.96896 0.720807 3.96896 0.616911C3.96896 0.515612 4.03917 0.432495 4.12474 0.432495C4.2125 0.432495 4.28051 0.513015 4.28051 0.616911Z" fill="white" stroke="black" stroke-width="0.0125372"/>
<path id="Vector_44" d="M3.86806 1.84932L4.12476 1.54413L4.38255 1.84932L4.12476 2.15062L3.86806 1.84932Z" fill="#FCDD09" stroke="black" stroke-width="0.0125372"/>
<path id="Vector_45" d="M3.88669 1.84934L3.96348 1.94155H4.04466V2.03765L4.12364 2.12856H4.12693L4.20372 2.03765V1.94155H4.2849L4.36389 1.84934V1.84674L4.2849 1.75324H4.20372V1.65713L4.12693 1.56622H4.12364L4.04466 1.65713V1.75324H3.96348L3.88669 1.84674V1.84934Z" fill="#DA121A" stroke="black" stroke-width="0.0125372"/>
<path id="Vector_46" d="M4.01724 1.6052C4.02931 1.61949 4.01724 1.65715 3.98982 1.68572C3.96239 1.71819 3.93168 1.73247 3.9218 1.71819C3.90974 1.7039 3.9218 1.66884 3.94923 1.63767C3.97336 1.6052 4.00517 1.59092 4.01724 1.6052Z" fill="#FCDD09" stroke="black" stroke-width="0.0125372"/>
<path id="Vector_47" d="M4.23336 1.6052C4.22129 1.61949 4.23336 1.65715 4.26078 1.68572C4.28821 1.71819 4.31892 1.73247 4.3288 1.71819C4.34086 1.7039 4.3288 1.66884 4.30137 1.63767C4.27614 1.6052 4.24542 1.59092 4.23336 1.6052Z" fill="#FCDD09" stroke="black" stroke-width="0.0125372"/>
<path id="Vector_48" d="M4.23336 2.08959C4.22129 2.0753 4.23336 2.04024 4.26078 2.00907C4.28821 1.9766 4.31892 1.96232 4.3288 1.9766C4.34086 1.99089 4.3288 2.02855 4.30137 2.05712C4.27614 2.08699 4.24542 2.10128 4.23336 2.08959Z" fill="#FCDD09" stroke="black" stroke-width="0.0125372"/>
<path id="Vector_49" d="M4.01724 2.08959C4.00517 2.10387 3.97336 2.08959 3.94923 2.05712C3.9218 2.02465 3.90974 1.98829 3.9218 1.9766C3.93387 1.96232 3.96568 1.9766 3.98982 2.00907C4.01505 2.03764 4.02821 2.0753 4.01724 2.08959Z" fill="#FCDD09" stroke="black" stroke-width="0.0125372"/>
<path id="Vector_50" d="M4.04466 1.50259C4.04466 1.48831 4.07318 1.47272 4.10939 1.46882C4.11597 1.46882 4.12584 1.45844 4.12584 1.45844C4.12584 1.45844 4.13571 1.46882 4.1401 1.46882C4.1774 1.47142 4.20592 1.48571 4.20592 1.50259C4.20592 1.52207 4.16862 1.53636 4.12255 1.53636C4.07977 1.53766 4.04466 1.51947 4.04466 1.50259Z" fill="#FCDD09" stroke="black" stroke-width="0.0125372"/>
<path id="Vector_51" d="M4.20812 2.19221C4.20812 2.2065 4.1796 2.22208 4.1434 2.22598C4.13681 2.22598 4.12694 2.23637 4.12694 2.23637C4.12694 2.23637 4.11707 2.22598 4.11268 2.22598C4.07538 2.22338 4.04686 2.2091 4.04686 2.19221C4.04686 2.17273 4.08416 2.15845 4.13023 2.15845C4.17082 2.15845 4.20812 2.17533 4.20812 2.19221Z" fill="#FCDD09" stroke="black" stroke-width="0.0125372"/>
<path id="Vector_52" d="M3.83074 1.94414C3.81867 1.94414 3.80551 1.91038 3.80222 1.86752C3.80222 1.85973 3.79344 1.84804 3.79344 1.84804C3.79344 1.84804 3.80222 1.83635 3.80222 1.83116C3.80441 1.787 3.81648 1.75323 3.83074 1.75323C3.8472 1.75323 3.85926 1.79739 3.85926 1.84934C3.86146 1.89999 3.8472 1.94414 3.83074 1.94414Z" fill="#FCDD09" stroke="black" stroke-width="0.0125372"/>
<path id="Vector_53" d="M4.41984 1.75067C4.4319 1.75067 4.44507 1.78444 4.44836 1.82729C4.44836 1.83509 4.45713 1.84678 4.45713 1.84678C4.45713 1.84678 4.44836 1.85846 4.44836 1.86366C4.44616 1.90781 4.4341 1.94158 4.41984 1.94158C4.40338 1.94158 4.39131 1.89742 4.39131 1.84548C4.39022 1.79483 4.40338 1.75067 4.41984 1.75067Z" fill="#FCDD09" stroke="black" stroke-width="0.0125372"/>
<path id="Vector_54" d="M4.07976 4.70262C4.07976 4.73249 4.1006 4.75717 4.12583 4.75717C4.15106 4.75717 4.173 4.73249 4.173 4.70262C4.173 4.67275 4.15216 4.64808 4.12583 4.64808C4.1006 4.64548 4.07976 4.67015 4.07976 4.70262Z" fill="#FCDD09" stroke="black" stroke-width="0.0125372"/>
<path id="Vector_55" d="M4.07976 3.84026C4.07976 3.87013 4.1006 3.8948 4.12583 3.8948C4.15106 3.8948 4.173 3.87013 4.173 3.84026C4.173 3.81039 4.15216 3.78571 4.12583 3.78571C4.1006 3.78311 4.07976 3.80779 4.07976 3.84026Z" fill="#FCDD09" stroke="black" stroke-width="0.0125372"/>
<path id="Vector_56" d="M4.29697 4.27269C4.29697 4.4714 4.22018 4.63373 4.12254 4.63373C4.0271 4.63373 3.94812 4.4714 3.94812 4.27269C3.94812 4.07399 4.02491 3.90906 4.12254 3.90906C4.22018 3.90906 4.29697 4.0714 4.29697 4.27269Z" fill="#FCDD09" stroke="black" stroke-width="0.0125372"/>
<path id="Vector_57" d="M4.27064 4.26754C4.27064 4.09611 4.2125 3.95585 4.1401 3.93896C4.13571 3.93896 4.12584 3.96104 4.12584 3.96104C4.12584 3.96104 4.11597 3.93896 4.11158 3.93896C4.03917 3.95585 3.98103 4.09611 3.98103 4.26754C3.98103 4.26754 3.98103 4.26754 3.98103 4.27013C3.98103 4.27013 3.98103 4.27013 3.98103 4.27273C3.98103 4.44416 4.03917 4.58442 4.11158 4.6013C4.11597 4.6013 4.12584 4.57922 4.12584 4.57922C4.12584 4.57922 4.13571 4.6013 4.1401 4.6013C4.2125 4.58442 4.27064 4.44416 4.27064 4.27273C4.27064 4.27273 4.27064 4.27273 4.27064 4.27013C4.27064 4.27013 4.27064 4.27013 4.27064 4.26754Z" fill="#078930" stroke="black" stroke-width="0.0125372"/>
<path id="Vector_58" d="M4.35291 4.2727C4.35291 4.25841 4.34304 4.24542 4.32988 4.24542C4.31781 4.24542 4.30684 4.25711 4.30684 4.2727C4.30684 4.28698 4.31671 4.29997 4.32988 4.29997C4.34304 4.29867 4.35291 4.28698 4.35291 4.2727Z" fill="#FCDD09" stroke="black" stroke-width="0.0125372"/>
<path id="Vector_59" d="M3.94263 4.2727C3.94263 4.25841 3.93276 4.24542 3.9196 4.24542C3.90643 4.24542 3.89656 4.25711 3.89656 4.2727C3.89656 4.28698 3.90643 4.29997 3.9196 4.29997C3.93276 4.29997 3.94263 4.28698 3.94263 4.2727Z" fill="#FCDD09" stroke="black" stroke-width="0.0125372"/>
<path id="Vector_60" d="M4.27503 4.59093C4.27503 4.57665 4.26516 4.56366 4.252 4.56366C4.23883 4.56366 4.22896 4.57535 4.22896 4.59093C4.22896 4.60522 4.23883 4.61821 4.252 4.61821C4.26516 4.61821 4.27503 4.60652 4.27503 4.59093Z" fill="#FCDD09" stroke="black" stroke-width="0.0125372"/>
<path id="Vector_61" d="M4.02163 4.59093C4.02163 4.57665 4.01176 4.56366 3.99859 4.56366C3.98653 4.56366 3.97556 4.57535 3.97556 4.59093C3.97556 4.60522 3.98543 4.61821 3.99859 4.61821C4.01066 4.61821 4.02163 4.60652 4.02163 4.59093Z" fill="#FCDD09" stroke="black" stroke-width="0.0125372"/>
<path id="Vector_62" d="M3.95909 4.43894C3.95909 4.40907 3.93825 4.3844 3.91302 4.3844C3.88779 4.3844 3.86584 4.40907 3.86584 4.43894C3.86584 4.46881 3.88669 4.49349 3.91302 4.49349C3.93825 4.49349 3.95909 4.46881 3.95909 4.43894Z" fill="#FCDD09" stroke="black" stroke-width="0.0125372"/>
<path id="Vector_63" d="M4.38474 4.43638C4.38474 4.40651 4.36389 4.38184 4.33866 4.38184C4.31343 4.38184 4.29259 4.40651 4.29259 4.43638C4.29259 4.46625 4.31343 4.49093 4.33866 4.49093C4.36389 4.49093 4.38474 4.46625 4.38474 4.43638Z" fill="#FCDD09" stroke="black" stroke-width="0.0125372"/>
<path id="Vector_64" d="M3.97556 3.95064C3.97556 3.96492 3.98543 3.97791 3.99859 3.97791C4.01066 3.97791 4.02163 3.96622 4.02163 3.95064C4.02163 3.93505 4.01176 3.92337 3.99859 3.92337C3.98653 3.92077 3.97556 3.93376 3.97556 3.95064Z" fill="#FCDD09" stroke="black" stroke-width="0.0125372"/>
<path id="Vector_65" d="M4.22896 3.95064C4.22896 3.96492 4.23883 3.97791 4.252 3.97791C4.26516 3.97791 4.27503 3.96622 4.27503 3.95064C4.27503 3.93505 4.26516 3.92337 4.252 3.92337C4.23883 3.92077 4.22896 3.93376 4.22896 3.95064Z" fill="#FCDD09" stroke="black" stroke-width="0.0125372"/>
<path id="Vector_66" d="M4.29149 4.10258C4.29149 4.13245 4.31233 4.15713 4.33756 4.15713C4.36279 4.15713 4.38364 4.13245 4.38364 4.10258C4.38364 4.07271 4.36279 4.04803 4.33756 4.04803C4.31233 4.04803 4.29149 4.07141 4.29149 4.10258Z" fill="#FCDD09" stroke="black" stroke-width="0.0125372"/>
<path id="Vector_67" d="M3.86584 4.10258C3.86584 4.13245 3.88669 4.15713 3.91302 4.15713C3.93825 4.15713 3.95909 4.13245 3.95909 4.10258C3.95909 4.07271 3.93825 4.04803 3.91302 4.04803C3.88669 4.04933 3.86584 4.07401 3.86584 4.10258Z" fill="#FCDD09" stroke="black" stroke-width="0.0125372"/>
<path id="Vector_68" d="M4.07976 9.55064C4.07976 9.58051 4.1006 9.60518 4.12583 9.60518C4.15106 9.60518 4.173 9.58051 4.173 9.55064C4.173 9.52077 4.15216 9.49609 4.12583 9.49609C4.1006 9.49739 4.07976 9.52207 4.07976 9.55064Z" fill="#FCDD09" stroke="black" stroke-width="0.0125372"/>
<path id="Vector_69" d="M4.07976 8.68962C4.07976 8.71949 4.1006 8.74416 4.12583 8.74416C4.15106 8.74416 4.173 8.71949 4.173 8.68962C4.173 8.65975 4.15216 8.63507 4.12583 8.63507C4.1006 8.63507 4.07976 8.65975 4.07976 8.68962Z" fill="#FCDD09" stroke="black" stroke-width="0.0125372"/>
<path id="Vector_70" d="M4.29697 9.12209C4.29697 9.32079 4.22018 9.48572 4.12254 9.48572C4.0271 9.48572 3.94812 9.32339 3.94812 9.12209C3.94812 8.92339 4.02491 8.76105 4.12254 8.76105C4.22018 8.76105 4.29697 8.92209 4.29697 9.12209Z" fill="#FCDD09" stroke="black" stroke-width="0.0125372"/>
<path id="Vector_71" d="M4.27064 9.11946C4.27064 8.94804 4.2125 8.80778 4.1401 8.79089C4.13571 8.79089 4.12584 8.81297 4.12584 8.81297C4.12584 8.81297 4.11597 8.79089 4.11158 8.79089C4.03917 8.80778 3.98103 8.94804 3.98103 9.11946V9.12206C3.98103 9.12206 3.98103 9.12206 3.98103 9.12466C3.98103 9.29609 4.03917 9.43635 4.11158 9.45323C4.11597 9.45323 4.12584 9.43115 4.12584 9.43115C4.12584 9.43115 4.13571 9.45323 4.1401 9.45323C4.2125 9.43635 4.27064 9.29609 4.27064 9.12466C4.27064 9.12466 4.27064 9.12466 4.27064 9.12206C4.27064 9.11946 4.27064 9.11946 4.27064 9.11946Z" fill="#078930" stroke="black" stroke-width="0.0125372"/>
<path id="Vector_72" d="M4.35291 9.12206C4.35291 9.10778 4.34304 9.09479 4.32988 9.09479C4.31781 9.09479 4.30684 9.10648 4.30684 9.12206C4.30684 9.13635 4.31671 9.14933 4.32988 9.14933C4.34304 9.14803 4.35291 9.13635 4.35291 9.12206Z" fill="#FCDD09" stroke="black" stroke-width="0.0125372"/>
<path id="Vector_73" d="M3.94263 9.12206C3.94263 9.10778 3.93276 9.09479 3.9196 9.09479C3.90643 9.09479 3.89656 9.10648 3.89656 9.12206C3.89656 9.13635 3.90643 9.14933 3.9196 9.14933C3.93276 9.14933 3.94263 9.13635 3.94263 9.12206Z" fill="#FCDD09" stroke="black" stroke-width="0.0125372"/>
<path id="Vector_74" d="M4.27503 9.44024C4.27503 9.42595 4.26516 9.41296 4.252 9.41296C4.23883 9.41296 4.22896 9.42465 4.22896 9.44024C4.22896 9.45582 4.23883 9.46751 4.252 9.46751C4.26516 9.46751 4.27503 9.45582 4.27503 9.44024Z" fill="#FCDD09" stroke="black" stroke-width="0.0125372"/>
<path id="Vector_75" d="M4.02163 9.44024C4.02163 9.42595 4.01176 9.41296 3.99859 9.41296C3.98653 9.41296 3.97556 9.42465 3.97556 9.44024C3.97556 9.45582 3.98543 9.46751 3.99859 9.46751C4.01066 9.46751 4.02163 9.45582 4.02163 9.44024Z" fill="#FCDD09" stroke="black" stroke-width="0.0125372"/>
<path id="Vector_76" d="M3.95909 9.28831C3.95909 9.25844 3.93825 9.23376 3.91302 9.23376C3.88779 9.23376 3.86584 9.25844 3.86584 9.28831C3.86584 9.31818 3.88669 9.34286 3.91302 9.34286C3.93825 9.34286 3.95909 9.31818 3.95909 9.28831Z" fill="#FCDD09" stroke="black" stroke-width="0.0125372"/>
<path id="Vector_77" d="M4.38474 9.28569C4.38474 9.25582 4.36389 9.23114 4.33866 9.23114C4.31343 9.23114 4.29259 9.25582 4.29259 9.28569C4.29259 9.31556 4.31343 9.34023 4.33866 9.34023C4.36389 9.34023 4.38474 9.31815 4.38474 9.28569Z" fill="#FCDD09" stroke="black" stroke-width="0.0125372"/>
<path id="Vector_78" d="M3.97556 8.79998C3.97556 8.81426 3.98543 8.82725 3.99859 8.82725C4.01066 8.82725 4.02163 8.81556 4.02163 8.79998C4.02163 8.78569 4.01176 8.77271 3.99859 8.77271C3.98653 8.77271 3.97556 8.78569 3.97556 8.79998Z" fill="#FCDD09" stroke="black" stroke-width="0.0125372"/>
<path id="Vector_79" d="M4.22896 8.79998C4.22896 8.81426 4.23883 8.82725 4.252 8.82725C4.26516 8.82725 4.27503 8.81556 4.27503 8.79998C4.27503 8.78569 4.26516 8.77271 4.252 8.77271C4.23883 8.77271 4.22896 8.78569 4.22896 8.79998Z" fill="#FCDD09" stroke="black" stroke-width="0.0125372"/>
<path id="Vector_80" d="M4.29149 8.95195C4.29149 8.98182 4.31233 9.00649 4.33756 9.00649C4.36279 9.00649 4.38364 8.98182 4.38364 8.95195C4.38364 8.92208 4.36279 8.8974 4.33756 8.8974C4.31233 8.8974 4.29149 8.92208 4.29149 8.95195Z" fill="#FCDD09" stroke="black" stroke-width="0.0125372"/>
<path id="Vector_81" d="M3.86584 8.95456C3.86584 8.98443 3.88669 9.00911 3.91302 9.00911C3.93825 9.00911 3.95909 8.98443 3.95909 8.95456C3.95909 8.92469 3.93825 8.90001 3.91302 8.90001C3.88669 8.89872 3.86584 8.92209 3.86584 8.95456Z" fill="#FCDD09" stroke="black" stroke-width="0.0125372"/>
<path id="Vector_82" d="M4.38255 6.72986L4.12476 7.03506L3.86806 6.72986L4.12476 6.42596L4.38255 6.72986Z" fill="#FCDD09" stroke="black" stroke-width="0.0125372"/>
<path id="Vector_83" d="M3.88669 6.73504L3.96348 6.82595H4.04466V6.92205L4.12364 7.01296H4.12693L4.20372 6.92205V6.82595H4.2849L4.36389 6.73504V6.72984L4.2849 6.63893H4.20372V6.54283L4.12693 6.45062H4.12364L4.04466 6.54283V6.63893H3.96348L3.88669 6.72984V6.73504Z" fill="#DA121A" stroke="black" stroke-width="0.0125372"/>
<path id="Vector_84" d="M4.01724 6.49223C4.02931 6.50652 4.01724 6.54158 3.98982 6.57275C3.96239 6.60522 3.93168 6.61951 3.9218 6.60522C3.90974 6.59094 3.9218 6.55587 3.94923 6.5247C3.97336 6.49223 4.00517 6.47665 4.01724 6.49223Z" fill="#FCDD09" stroke="black" stroke-width="0.0125372"/>
<path id="Vector_85" d="M4.23335 6.4896C4.24542 6.47532 4.27723 6.4896 4.30137 6.52207C4.32879 6.55454 4.34086 6.5909 4.32879 6.60259C4.31673 6.61687 4.28491 6.60259 4.26078 6.57012C4.23335 6.54155 4.22019 6.50389 4.23335 6.4896Z" fill="#FCDD09" stroke="black" stroke-width="0.0125372"/>
<path id="Vector_86" d="M4.23336 6.97276C4.22129 6.95847 4.23336 6.92341 4.26078 6.89224C4.28821 6.86107 4.31892 6.84548 4.3288 6.85977C4.34086 6.87406 4.3288 6.90912 4.30137 6.94029C4.27395 6.97146 4.24542 6.98834 4.23336 6.97276Z" fill="#FCDD09" stroke="black" stroke-width="0.0125372"/>
<path id="Vector_87" d="M4.01724 6.97277C4.00517 6.98705 3.97336 6.97277 3.94703 6.9403C3.9196 6.90783 3.90754 6.87147 3.9196 6.85978C3.93167 6.84549 3.96349 6.85978 3.98762 6.89225C4.01724 6.92471 4.02821 6.96108 4.01724 6.97277Z" fill="#FCDD09" stroke="black" stroke-width="0.0125372"/>
<path id="Vector_88" d="M4.04466 6.38571C4.04466 6.37142 4.07318 6.35584 4.10939 6.35194C4.11597 6.35194 4.12584 6.34155 4.12584 6.34155C4.12584 6.34155 4.13571 6.35194 4.1401 6.35194C4.1774 6.35454 4.20592 6.36883 4.20592 6.38571C4.20592 6.40519 4.16862 6.41947 4.12255 6.41947C4.07977 6.42077 4.04466 6.40649 4.04466 6.38571Z" fill="#FCDD09" stroke="black" stroke-width="0.0125372"/>
<path id="Vector_89" d="M4.20812 7.07926C4.20812 7.09354 4.1796 7.10913 4.1434 7.11302C4.13681 7.11302 4.12694 7.12341 4.12694 7.12341C4.12694 7.12341 4.11707 7.11302 4.11268 7.11302C4.07538 7.11043 4.04686 7.09614 4.04686 7.07926C4.04686 7.05978 4.08416 7.04549 4.13023 7.04549C4.17082 7.04419 4.20812 7.05848 4.20812 7.07926Z" fill="#FCDD09" stroke="black" stroke-width="0.0125372"/>
<path id="Vector_90" d="M3.83074 6.8286C3.81867 6.8286 3.80551 6.79484 3.80222 6.75198C3.80222 6.74419 3.79344 6.7325 3.79344 6.7325C3.79344 6.7325 3.80222 6.72081 3.80222 6.71562C3.80441 6.67146 3.81648 6.6377 3.83074 6.6377C3.8472 6.6377 3.85926 6.68185 3.85926 6.7338C3.86146 6.78705 3.8472 6.8286 3.83074 6.8286Z" fill="#FCDD09" stroke="black" stroke-width="0.0125372"/>
<path id="Vector_91" d="M4.41984 6.63635C4.4319 6.63635 4.44507 6.67012 4.44836 6.71298C4.44836 6.72077 4.45713 6.73246 4.45713 6.73246C4.45713 6.73246 4.44836 6.74414 4.44836 6.74934C4.44616 6.7935 4.4341 6.82726 4.41984 6.82726C4.40338 6.82726 4.39131 6.78311 4.39131 6.73116C4.39022 6.67791 4.40338 6.63635 4.41984 6.63635Z" fill="#FCDD09" stroke="black" stroke-width="0.0125372"/>
</g>
</g>
<defs>
<clipPath id="clip0_2600_18555">
<rect width="14" height="11" rx="1.77778" fill="white"/>
</clipPath>
</defs>
</svg>
