<svg width="20" height="20" viewBox="0 0 20 20" fill="none" xmlns="http://www.w3.org/2000/svg">
<g clip-path="url(#clip0_592_105717)">
<path d="M0.833984 3.33398H19.1673V16.6673H0.833984V3.33398Z" fill="#012169"/>
<path d="M2.98242 3.33398L9.97201 8.36176L16.9329 3.33398H19.1673V5.05621L12.2923 10.0284L19.1673 14.9729V16.6673H16.8757L10.0007 11.6951L3.1543 16.6673H0.833984V15.0007L7.68034 10.0562L0.833984 5.11176V3.33398H2.98242Z" fill="white"/>
<path d="M12.9798 11.1395L19.1673 15.5562V16.6673L11.4043 11.1395H12.9798ZM7.70898 11.6951L7.88086 12.6673L2.38086 16.6673H0.833984L7.70898 11.6951ZM19.1673 3.33398V3.41732L12.0345 8.63954L12.0918 7.41732L17.735 3.33398H19.1673ZM0.833984 3.33398L7.68034 8.22287H5.96159L0.833984 4.50065V3.33398Z" fill="#C8102E"/>
<path d="M7.73763 3.33398V16.6673H12.321V3.33398H7.73763ZM0.833984 7.77843V12.2229H19.1673V7.77843H0.833984Z" fill="white"/>
<path d="M0.833984 8.6951V11.3618H19.1673V8.6951H0.833984ZM8.6543 3.33398V16.6673H11.4043V3.33398H8.6543Z" fill="#C8102E"/>
</g>
<defs>
<clipPath id="clip0_592_105717">
<rect x="0.833984" y="3.33398" width="18.3333" height="13.3333" rx="2" fill="white"/>
</clipPath>
</defs>
</svg>
