<svg width="14" height="11" viewBox="0 0 14 11" fill="none" xmlns="http://www.w3.org/2000/svg">
<g id="Flag_of_Galicia 1">
<g clip-path="url(#clip0_2600_18648)">
<g id="g5162">
<path id="rect733" d="M13 -0.100069H0.222269C-0.385244 -0.100069 -0.877731 0.392457 -0.877731 1.00002V9.99985C-0.877731 10.6074 -0.385243 11.0999 0.22227 11.0999H13C13.6076 11.0999 14.1 10.6074 14.1 9.99985V1.00002C14.1 0.392456 13.6076 -0.100069 13 -0.100069Z" fill="white" stroke="#D9D9D9" stroke-width="0.2"/>
<path id="path556" d="M14 9.39888L1.34111 6.10352e-05H-0.777779V1.56589L11.9286 11.0001H14V9.39888Z" fill="#0099CC"/>
</g>
<g id="g4979">
<path id="path558" d="M6.5276 8.39329C5.04652 8.39329 5.09462 6.83736 5.09462 6.83736V4.44928H7.96052V6.83736C7.96052 6.83736 8.01069 8.39329 6.5276 8.39329Z" fill="#005BBF"/>
<path id="path559" d="M6.5276 8.39329C5.04652 8.39329 5.09462 6.83736 5.09462 6.83736V4.44928H7.96052V6.83736C7.96052 6.83736 8.01069 8.39329 6.5276 8.39329Z" stroke="black" stroke-width="0.0447288"/>
<path id="path560" d="M6.515 2.9463C6.515 2.9463 6.20944 2.78031 5.92038 3.02471C5.92038 3.02471 5.40024 2.94089 5.36196 3.4972C5.36043 3.51973 5.35729 3.56121 5.36658 3.5733C5.37587 3.58539 5.38515 3.60791 5.38515 3.62337C5.38515 3.63896 5.39444 3.64761 5.39758 3.65448C5.40065 3.66142 5.4084 3.67179 5.40994 3.70118C5.41148 3.73058 5.40687 3.74438 5.43165 3.77377C5.45638 3.80317 5.45792 3.88792 5.45792 3.91209C5.45792 3.93627 5.47342 4.00371 5.48425 4.01758C5.49507 4.03139 5.51365 4.06594 5.51365 4.09533C5.51365 4.12472 5.52448 4.20597 5.5198 4.22665C5.51519 4.24739 5.54767 4.27335 5.57713 4.28372C5.60653 4.29409 5.97197 4.42719 6.50459 4.41682C7.03727 4.40645 7.22906 4.37481 7.44914 4.28544C7.48316 4.27163 7.48937 4.24052 7.48629 4.22321C7.48316 4.20597 7.48629 4.15068 7.49558 4.13681C7.50487 4.12301 7.56681 4.01237 7.55439 3.99162C7.54202 3.97088 7.54202 3.9259 7.55439 3.90866C7.56681 3.89135 7.60556 3.80819 7.61319 3.77377C7.62088 3.73929 7.62189 3.69867 7.63609 3.68665C7.65034 3.67463 7.65514 3.63565 7.65786 3.62753C7.66064 3.61934 7.67099 3.59397 7.68543 3.58241C7.68543 3.58241 7.71229 3.44185 7.69572 3.37276C7.67927 3.3036 7.58633 3.00622 7.20854 3.06851C7.20854 3.06851 6.92776 2.83104 6.51488 2.9463" fill="#D81126"/>
<path id="path561" d="M6.515 2.9463C6.515 2.9463 6.20944 2.78031 5.92038 3.02471C5.92038 3.02471 5.40024 2.94089 5.36196 3.4972C5.36043 3.51973 5.35729 3.56121 5.36658 3.5733C5.37587 3.58539 5.38515 3.60791 5.38515 3.62337C5.38515 3.63896 5.39444 3.64761 5.39758 3.65448C5.40065 3.66142 5.4084 3.67179 5.40994 3.70118C5.41148 3.73058 5.40687 3.74438 5.43165 3.77377C5.45638 3.80317 5.45792 3.88792 5.45792 3.91209C5.45792 3.93627 5.47342 4.00371 5.48425 4.01758C5.49507 4.03139 5.51365 4.06594 5.51365 4.09533C5.51365 4.12472 5.52448 4.20597 5.5198 4.22665C5.51519 4.24739 5.54767 4.27335 5.57713 4.28372C5.60653 4.29409 5.97197 4.42719 6.50459 4.41682C7.03727 4.40645 7.22906 4.37481 7.44914 4.28544C7.48316 4.27163 7.48937 4.24052 7.48629 4.22321C7.48316 4.20597 7.48629 4.15068 7.49558 4.13681C7.50487 4.12301 7.56681 4.01237 7.55439 3.99162C7.54202 3.97088 7.54202 3.9259 7.55439 3.90866C7.56681 3.89135 7.60556 3.80819 7.61319 3.77377C7.62088 3.73929 7.62189 3.69867 7.63609 3.68665C7.65034 3.67463 7.65514 3.63565 7.65786 3.62753C7.66064 3.61934 7.67099 3.59397 7.68543 3.58241C7.68543 3.58241 7.71229 3.44185 7.69572 3.37276C7.67927 3.3036 7.58633 3.00622 7.20854 3.06851C7.20854 3.06851 6.92776 2.83104 6.51488 2.9463H6.515Z" stroke="black" stroke-width="0.0670399"/>
<path id="path562" d="M7.53729 3.98193C6.37704 3.57159 5.48283 3.96158 5.48283 3.96158C5.48283 3.96158 5.49111 4.00683 5.50141 4.02063C5.51176 4.03444 5.52619 4.06674 5.52619 4.09098C5.52619 4.11516 5.52826 4.14977 5.52826 4.1682C5.52826 4.18656 5.5156 4.26927 5.5818 4.26828C5.5818 4.26828 6.38822 3.91508 7.43832 4.28644C7.43832 4.28644 7.46707 4.25764 7.46813 4.21616C7.46914 4.17468 7.47529 4.13088 7.48978 4.10783C7.50422 4.08477 7.53723 4.01277 7.53723 3.98193" fill="#BCAC0B"/>
<path id="path563" d="M6.46158 6.14117H5.95783C5.95783 6.14117 5.90825 6.64365 6.2964 6.79584V6.84195H6.37899V6.90186C6.37899 6.90186 6.23653 7.04474 6.36035 7.20842V7.25915H6.38106V7.33981H6.40372V7.47112C6.40372 7.47112 6.38514 7.94025 5.97327 8.16497V8.19264H7.073V8.16497C6.66118 7.94025 6.64255 7.47112 6.64255 7.47112V7.33981H6.66521V7.25915H6.68585V7.20842C6.80974 7.04474 6.66728 6.90186 6.66728 6.90186V6.84195H6.74986V6.79584C7.13802 6.64365 7.08844 6.14117 7.08844 6.14117H6.46152" fill="#C8B100" fill-opacity="0.941176"/>
<path id="path564" d="M6.46158 6.14117H5.95783C5.95783 6.14117 5.90825 6.64365 6.2964 6.79584V6.84195H6.37899V6.90186C6.37899 6.90186 6.23653 7.04474 6.36035 7.20842V7.25915H6.38106V7.33981H6.40372V7.47112C6.40372 7.47112 6.38514 7.94025 5.97327 8.16497V8.19264H7.073V8.16497C6.66118 7.94025 6.64255 7.47112 6.64255 7.47112V7.33981H6.66521V7.25915H6.68585V7.20842C6.80974 7.04474 6.66728 6.90186 6.66728 6.90186V6.84195H6.74986V6.79584C7.13802 6.64365 7.08844 6.14117 7.08844 6.14117H6.46152H6.46158Z" stroke="black" stroke-width="0.0447288"/>
<path id="path565" d="M6.27984 6.78894H6.76608M6.2964 6.83042H6.74957M6.37899 6.89958H6.66391M6.36035 7.2142H6.68556M6.38207 7.25284H6.66598M6.38207 7.33125H6.66491M6.20867 7.96802H6.8373M6.03113 8.13052H7.01591M5.99397 8.15469H7.05407" stroke="black" stroke-width="0.0112089"/>
<path id="path566" d="M6.52736 6.11151C6.70473 6.11151 6.84855 5.95093 6.84855 5.7529C6.84855 5.55487 6.70473 5.39429 6.52736 5.39429C6.35 5.39429 6.20618 5.55487 6.20618 5.7529C6.20618 5.95093 6.35 6.11151 6.52736 6.11151Z" fill="#CCCCCC"/>
<path id="path567" d="M6.52736 6.11151C6.70473 6.11151 6.84855 5.95093 6.84855 5.7529C6.84855 5.55487 6.70473 5.39429 6.52736 5.39429C6.35 5.39429 6.20618 5.55487 6.20618 5.7529C6.20618 5.95093 6.35 6.11151 6.52736 6.11151Z" stroke="black" stroke-width="0.0447288"/>
<path id="path568" d="M5.77999 5.05783H5.57973V4.83417H5.40219V5.05783H5.20193V5.25599H5.40219V5.47959H5.57973V5.25599H5.77999V5.05783Z" fill="#CCCCCC"/>
<path id="path569" d="M5.77999 5.05783H5.57973V4.83417H5.40219V5.05783H5.20193V5.25599H5.40219V5.47959H5.57973V5.25599H5.77999V5.05783Z" stroke="black" stroke-width="0.0447288"/>
<path id="path570" d="M7.86131 5.05783H7.66105V4.83417H7.48345V5.05783H7.28325V5.25599H7.48345V5.47959H7.66105V5.25599H7.86131V5.05783Z" fill="#CCCCCC"/>
<path id="path571" d="M7.86131 5.05783H7.66105V4.83417H7.48345V5.05783H7.28325V5.25599H7.48345V5.47959H7.66105V5.25599H7.86131V5.05783Z" stroke="black" stroke-width="0.0447288"/>
<path id="path572" d="M6.8066 4.77682H6.60634V4.55322H6.4288V4.77682H6.22855V4.97505H6.4288V5.19865H6.60634V4.97505H6.8066V4.77682Z" fill="#CCCCCC"/>
<path id="path573" d="M6.8066 4.77682H6.60634V4.55322H6.4288V4.77682H6.22855V4.97505H6.4288V5.19865H6.60634V4.97505H6.8066V4.77682Z" stroke="black" stroke-width="0.0447288"/>
<path id="path574" d="M5.77999 6.0259H5.57973V5.80231H5.40219V6.0259H5.20193V6.22413H5.40219V6.44773H5.57973V6.22413H5.77999V6.0259Z" fill="#CCCCCC"/>
<path id="path575" d="M5.77999 6.0259H5.57973V5.80231H5.40219V6.0259H5.20193V6.22413H5.40219V6.44773H5.57973V6.22413H5.77999V6.0259Z" stroke="black" stroke-width="0.0447288"/>
<path id="path576" d="M7.86131 6.0259H7.66105V5.80231H7.48345V6.0259H7.28325V6.22413H7.48345V6.44773H7.66105V6.22413H7.86131V6.0259Z" fill="#CCCCCC"/>
<path id="path577" d="M7.86131 6.0259H7.66105V5.80231H7.48345V6.0259H7.28325V6.22413H7.48345V6.44773H7.66105V6.22413H7.86131V6.0259Z" stroke="black" stroke-width="0.0447288"/>
<path id="path578" d="M5.77999 7.00363H5.57973V6.77997H5.40219V7.00363H5.20193V7.20186H5.40219V7.42539H5.57973V7.20186H5.77999V7.00363Z" fill="#CCCCCC"/>
<path id="path579" d="M5.77999 7.00363H5.57973V6.77997H5.40219V7.00363H5.20193V7.20186H5.40219V7.42539H5.57973V7.20186H5.77999V7.00363Z" stroke="black" stroke-width="0.0447288"/>
<path id="path580" d="M7.86131 7.00363H7.66105V6.77997H7.48345V7.00363H7.28325V7.20186H7.48345V7.42539H7.66105V7.20186H7.86131V7.00363Z" fill="#CCCCCC"/>
<path id="path581" d="M7.86131 7.00363H7.66105V6.77997H7.48345V7.00363H7.28325V7.20186H7.48345V7.42539H7.66105V7.20186H7.86131V7.00363Z" stroke="black" stroke-width="0.0447288"/>
<path id="path582" d="M6.52476 2.46764C6.63119 2.46764 6.7175 2.37133 6.7175 2.25249C6.7175 2.13366 6.63119 2.03735 6.52476 2.03735C6.41833 2.03735 6.33208 2.13366 6.33208 2.25249C6.33208 2.37133 6.41833 2.46764 6.52476 2.46764Z" fill="#005BBF"/>
<path id="path583" d="M6.52476 2.46764C6.63119 2.46764 6.7175 2.37133 6.7175 2.25249C6.7175 2.13366 6.63119 2.03735 6.52476 2.03735C6.41833 2.03735 6.33208 2.13366 6.33208 2.25249C6.33208 2.37133 6.41833 2.46764 6.52476 2.46764Z" stroke="black" stroke-width="0.0447288"/>
<path id="path584" d="M6.70443 2.21443H6.54647V1.9292H6.60682V1.87213H6.54647V1.80469H6.49536V1.87213H6.43496V1.9292H6.49536V2.21443H6.34515V2.25247H6.49536V2.25419H6.54647V2.25247H6.70443V2.21443Z" fill="#FFCC00"/>
<path id="path585" d="M6.70443 2.21443H6.54647V1.9292H6.60682V1.87213H6.54647V1.80469H6.49536V1.87213H6.43496V1.9292H6.49536V2.21443H6.34515V2.25247H6.49536V2.25419H6.54647V2.25247H6.70443V2.21443Z" fill="#BCAC0B" stroke="black" stroke-width="0.022311"/>
<path id="path586" d="M5.75319 2.72505C5.75319 2.72505 5.89565 2.70662 5.97818 2.74348C5.97818 2.74348 5.88358 2.86363 5.90387 3.02237C5.91423 3.10308 5.92866 3.14457 5.94931 3.18374C5.96996 3.22297 5.99261 3.30363 5.98025 3.36816H6.00711C6.00711 3.36816 6.03397 3.23678 5.98853 3.163C5.9431 3.08928 5.92038 2.98782 5.96581 2.8818C6.01119 2.77578 6.07727 2.7343 6.07727 2.7343C6.15365 2.76885 6.31474 2.73655 6.36012 2.69969C6.40549 2.66276 6.42821 2.6121 6.34361 2.60747C6.25901 2.60285 6.11448 2.60516 6.01539 2.68819C6.01539 2.68819 5.96374 2.62128 5.70569 2.65358C5.44763 2.68588 5.2611 2.80894 5.20401 3.06854C5.17514 3.19992 5.28452 3.47649 5.38569 3.54334C5.38569 3.54334 5.38261 3.49842 5.39291 3.46612C5.39291 3.46612 5.22051 3.25058 5.27216 3.05004C5.32375 2.8495 5.53022 2.71812 5.75319 2.72505Z" fill="#FFCC00"/>
<path id="path587" d="M5.75319 2.72505C5.75319 2.72505 5.89565 2.70662 5.97818 2.74348C5.97818 2.74348 5.88358 2.86363 5.90387 3.02237C5.91423 3.10308 5.92866 3.14457 5.94931 3.18374C5.96996 3.22297 5.99261 3.30363 5.98025 3.36816H6.00711C6.00711 3.36816 6.03397 3.23678 5.98853 3.163C5.9431 3.08928 5.92038 2.98782 5.96581 2.8818C6.01119 2.77578 6.07727 2.7343 6.07727 2.7343C6.15365 2.76885 6.31474 2.73655 6.36012 2.69969C6.40549 2.66276 6.42821 2.6121 6.34361 2.60747C6.25901 2.60285 6.11448 2.60516 6.01539 2.68819C6.01539 2.68819 5.96374 2.62128 5.70569 2.65358C5.44763 2.68588 5.2611 2.80894 5.20401 3.06854C5.17514 3.19992 5.28452 3.47649 5.38569 3.54334C5.38569 3.54334 5.38261 3.49842 5.39291 3.46612C5.39291 3.46612 5.22051 3.25058 5.27216 3.05004C5.32375 2.8495 5.53022 2.71812 5.75319 2.72505Z" fill="#BCAC0B" stroke="black" stroke-width="0.0290364"/>
<path id="path588" d="M6.23819 2.68532C6.28279 2.68129 6.31853 2.67263 6.31805 2.66583C6.31758 2.65916 6.28102 2.65691 6.23641 2.66094C6.19181 2.66497 6.15607 2.67369 6.15655 2.68043C6.15702 2.68717 6.19358 2.68935 6.23819 2.68532Z" fill="white"/>
<path id="path589" d="M6.07573 2.7331C6.12685 2.67953 6.23369 2.6432 6.2941 2.65879C6.35444 2.67431 6.28321 2.68297 6.2631 2.68468C6.24298 2.6864 6.20269 2.69505 6.14389 2.68468" stroke="black" stroke-width="0.0290364"/>
<path id="path590" d="M7.29325 2.74226C7.29325 2.74226 7.15086 2.7239 7.06827 2.76075C7.06827 2.76075 7.16292 2.88084 7.14257 3.03964C7.13228 3.12036 7.11784 3.16184 7.0972 3.20101C7.07649 3.24011 7.05383 3.3209 7.0662 3.38544H7.03934C7.03934 3.38544 7.01254 3.25405 7.05791 3.18027C7.10335 3.10649 7.12607 3.00509 7.08063 2.89907C7.03526 2.79299 6.96917 2.75151 6.96917 2.75151C6.8928 2.78612 6.73176 2.75382 6.68633 2.71696C6.64101 2.68004 6.61823 2.62937 6.70283 2.62475C6.78749 2.62012 6.93202 2.62244 7.03111 2.7054C7.03111 2.7054 7.0827 2.63855 7.34076 2.67085C7.59888 2.70309 7.78535 2.82621 7.84244 3.08574C7.87137 3.21713 7.76192 3.49377 7.66076 3.56061C7.66076 3.56061 7.66389 3.5157 7.65354 3.4834C7.65354 3.4834 7.82593 3.26786 7.77435 3.06732C7.7227 2.86677 7.51629 2.73539 7.29325 2.74226Z" fill="#FFCC00"/>
<path id="path591" d="M7.29325 2.74226C7.29325 2.74226 7.15086 2.7239 7.06827 2.76075C7.06827 2.76075 7.16292 2.88084 7.14257 3.03964C7.13228 3.12036 7.11784 3.16184 7.0972 3.20101C7.07649 3.24011 7.05383 3.3209 7.0662 3.38544H7.03934C7.03934 3.38544 7.01254 3.25405 7.05791 3.18027C7.10335 3.10649 7.12607 3.00509 7.08063 2.89907C7.03526 2.79299 6.96917 2.75151 6.96917 2.75151C6.8928 2.78612 6.73176 2.75382 6.68633 2.71696C6.64101 2.68004 6.61823 2.62937 6.70283 2.62475C6.78749 2.62012 6.93202 2.62244 7.03111 2.7054C7.03111 2.7054 7.0827 2.63855 7.34076 2.67085C7.59888 2.70309 7.78535 2.82621 7.84244 3.08574C7.87137 3.21713 7.76192 3.49377 7.66076 3.56061C7.66076 3.56061 7.66389 3.5157 7.65354 3.4834C7.65354 3.4834 7.82593 3.26786 7.77435 3.06732C7.7227 2.86677 7.51629 2.73539 7.29325 2.74226Z" fill="#BCAC0B" stroke="black" stroke-width="0.0290364"/>
<path id="path592" d="M6.80826 2.70267C6.76371 2.69864 6.72792 2.68992 6.72839 2.68318C6.72892 2.67644 6.76542 2.67426 6.81003 2.67829C6.85464 2.68232 6.89043 2.69104 6.88996 2.69778C6.88943 2.70451 6.85286 2.70669 6.80826 2.70267Z" fill="white"/>
<path id="path593" d="M6.97071 2.75042C6.91965 2.69678 6.81281 2.66052 6.75241 2.67604C6.69201 2.69163 6.76324 2.70028 6.78335 2.702C6.80352 2.70372 6.84375 2.71237 6.90262 2.702" stroke="black" stroke-width="0.0290364"/>
<path id="path594" d="M6.39112 2.56599V3.17917C6.38491 3.23908 6.45714 3.32436 6.50879 3.34973C6.50879 3.34973 6.6306 3.30362 6.63882 3.17917V2.53137H6.59753V3.09152C6.59552 3.14918 6.56245 3.25289 6.51701 3.26907C6.51701 3.26907 6.42827 3.25289 6.42413 3.09383V2.54762L6.39112 2.56599Z" fill="#FFCC00"/>
<path id="path595" d="M6.39112 2.56599V3.17917C6.38491 3.23908 6.45714 3.32436 6.50879 3.34973C6.50879 3.34973 6.6306 3.30362 6.63882 3.17917V2.53137H6.59753V3.09152C6.59552 3.14918 6.56245 3.25289 6.51701 3.26907C6.51701 3.26907 6.42827 3.25289 6.42413 3.09383V2.54762L6.39112 2.56599Z" fill="#BCAC0B" stroke="black" stroke-width="0.0290364"/>
<path id="path596" d="M5.17614 3.40458C5.21241 3.40458 5.24181 3.37175 5.24181 3.33126C5.24181 3.29083 5.21241 3.25793 5.17614 3.25793C5.13988 3.25793 5.11047 3.29076 5.11047 3.33126C5.11047 3.37175 5.13988 3.40458 5.17614 3.40458Z" fill="white"/>
<path id="path597" d="M5.17614 3.40458C5.21241 3.40458 5.24181 3.37175 5.24181 3.33126C5.24181 3.29083 5.21241 3.25793 5.17614 3.25793C5.13988 3.25793 5.11047 3.29076 5.11047 3.33126C5.11047 3.37175 5.13988 3.40458 5.17614 3.40458Z" stroke="black" stroke-width="0.0447288"/>
<path id="path598" d="M5.13508 3.23606C5.17141 3.23606 5.20081 3.20323 5.20081 3.16274C5.20081 3.12231 5.17141 3.08942 5.13508 3.08942C5.09882 3.08942 5.06942 3.12225 5.06942 3.16274C5.06942 3.20323 5.09882 3.23606 5.13508 3.23606Z" fill="white"/>
<path id="path599" d="M5.13508 3.23606C5.17141 3.23606 5.20081 3.20323 5.20081 3.16274C5.20081 3.12231 5.17141 3.08942 5.13508 3.08942C5.09882 3.08942 5.06942 3.12225 5.06942 3.16274C5.06942 3.20323 5.09882 3.23606 5.13508 3.23606Z" stroke="black" stroke-width="0.0447288"/>
<path id="path600" d="M5.1568 3.03208C5.19306 3.03208 5.22247 2.99925 5.22247 2.9587C5.22247 2.91821 5.19306 2.88538 5.1568 2.88538C5.12053 2.88538 5.09113 2.91821 5.09113 2.9587C5.09113 2.99925 5.12053 3.03208 5.1568 3.03208Z" fill="white"/>
<path id="path601" d="M5.1568 3.03208C5.19306 3.03208 5.22247 2.99925 5.22247 2.9587C5.22247 2.91821 5.19306 2.88538 5.1568 2.88538C5.12053 2.88538 5.09113 2.91821 5.09113 2.9587C5.09113 2.99925 5.12053 3.03208 5.1568 3.03208Z" stroke="black" stroke-width="0.0447288"/>
<path id="path602" d="M5.25897 2.86265C5.29529 2.86265 5.32469 2.82982 5.32469 2.78933C5.32469 2.74877 5.29529 2.71594 5.25897 2.71594C5.2227 2.71594 5.1933 2.74877 5.1933 2.78933C5.1933 2.82982 5.2227 2.86265 5.25897 2.86265Z" fill="white"/>
<path id="path603" d="M5.25897 2.86265C5.29529 2.86265 5.32469 2.82982 5.32469 2.78933C5.32469 2.74877 5.29529 2.71594 5.25897 2.71594C5.2227 2.71594 5.1933 2.74877 5.1933 2.78933C5.1933 2.82982 5.2227 2.86265 5.25897 2.86265Z" stroke="black" stroke-width="0.0447288"/>
<path id="path604" d="M5.37977 2.73905C5.41604 2.73905 5.44544 2.70622 5.44544 2.66567C5.44544 2.62518 5.41604 2.59235 5.37977 2.59235C5.34351 2.59235 5.31404 2.62518 5.31404 2.66567C5.31404 2.70622 5.34351 2.73905 5.37977 2.73905Z" fill="white"/>
<path id="path605" d="M5.37977 2.73905C5.41604 2.73905 5.44544 2.70622 5.44544 2.66567C5.44544 2.62518 5.41604 2.59235 5.37977 2.59235C5.34351 2.59235 5.31404 2.62518 5.31404 2.66567C5.31404 2.70622 5.34351 2.73905 5.37977 2.73905Z" stroke="black" stroke-width="0.0447288"/>
<path id="path606" d="M5.53536 2.6699C5.57163 2.6699 5.60103 2.63707 5.60103 2.59651C5.60103 2.55602 5.57163 2.52319 5.53536 2.52319C5.4991 2.52319 5.4697 2.55602 5.4697 2.59651C5.4697 2.63707 5.4991 2.6699 5.53536 2.6699Z" fill="white"/>
<path id="path607" d="M5.53536 2.6699C5.57163 2.6699 5.60103 2.63707 5.60103 2.59651C5.60103 2.55602 5.57163 2.52319 5.53536 2.52319C5.4991 2.52319 5.4697 2.55602 5.4697 2.59651C5.4697 2.63707 5.4991 2.6699 5.53536 2.6699Z" stroke="black" stroke-width="0.0447288"/>
<path id="path608" d="M5.69794 2.63706C5.7342 2.63706 5.7636 2.60417 5.7636 2.56368C5.7636 2.52319 5.7342 2.49036 5.69794 2.49036C5.66167 2.49036 5.63227 2.52319 5.63227 2.56368C5.63227 2.60417 5.66167 2.63706 5.69794 2.63706Z" fill="white"/>
<path id="path609" d="M5.69794 2.63706C5.7342 2.63706 5.7636 2.60417 5.7636 2.56368C5.7636 2.52319 5.7342 2.49036 5.69794 2.49036C5.66167 2.49036 5.63227 2.52319 5.63227 2.56368C5.63227 2.60417 5.66167 2.63706 5.69794 2.63706Z" stroke="black" stroke-width="0.0447288"/>
<path id="path610" d="M5.85282 2.62669C5.88908 2.62669 5.91849 2.59379 5.91849 2.5533C5.91849 2.51281 5.88908 2.47998 5.85282 2.47998C5.81649 2.47998 5.78709 2.51281 5.78709 2.5533C5.78709 2.59379 5.81649 2.62669 5.85282 2.62669Z" fill="white"/>
<path id="path611" d="M5.85282 2.62669C5.88908 2.62669 5.91849 2.59379 5.91849 2.5533C5.91849 2.51281 5.88908 2.47998 5.85282 2.47998C5.81649 2.47998 5.78709 2.51281 5.78709 2.5533C5.78709 2.59379 5.81649 2.62669 5.85282 2.62669Z" stroke="black" stroke-width="0.0447288"/>
<path id="path612" d="M5.99214 2.64048C6.02841 2.64048 6.05781 2.60765 6.05781 2.56716C6.05781 2.5266 6.02841 2.49377 5.99214 2.49377C5.95587 2.49377 5.92647 2.5266 5.92647 2.56716C5.92647 2.60765 5.95587 2.64048 5.99214 2.64048Z" fill="white"/>
<path id="path613" d="M5.99214 2.64048C6.02841 2.64048 6.05781 2.60765 6.05781 2.56716C6.05781 2.5266 6.02841 2.49377 5.99214 2.49377C5.95587 2.49377 5.92647 2.5266 5.92647 2.56716C5.92647 2.60765 5.95587 2.64048 5.99214 2.64048Z" stroke="black" stroke-width="0.0447288"/>
<path id="path614" d="M6.3894 2.58512C6.42567 2.58512 6.45513 2.55229 6.45513 2.5118C6.45513 2.47137 6.42567 2.43848 6.3894 2.43848C6.35314 2.43848 6.32373 2.47131 6.32373 2.5118C6.32373 2.55229 6.35314 2.58512 6.3894 2.58512Z" fill="white"/>
<path id="path615" d="M6.3894 2.58512C6.42567 2.58512 6.45513 2.55229 6.45513 2.5118C6.45513 2.47137 6.42567 2.43848 6.3894 2.43848C6.35314 2.43848 6.32373 2.47131 6.32373 2.5118C6.32373 2.55229 6.35314 2.58512 6.3894 2.58512Z" stroke="black" stroke-width="0.0447288"/>
<path id="path616" d="M6.51636 2.6232C6.55262 2.6232 6.58209 2.59038 6.58209 2.54988C6.58209 2.50939 6.55262 2.47656 6.51636 2.47656C6.48009 2.47656 6.45069 2.50939 6.45069 2.54988C6.45069 2.59038 6.48009 2.6232 6.51636 2.6232Z" fill="white"/>
<path id="path617" d="M6.51636 2.6232C6.55262 2.6232 6.58209 2.59038 6.58209 2.54988C6.58209 2.50939 6.55262 2.47656 6.51636 2.47656C6.48009 2.47656 6.45069 2.50939 6.45069 2.54988C6.45069 2.59038 6.48009 2.6232 6.51636 2.6232Z" stroke="black" stroke-width="0.0447288"/>
<path id="path618" d="M6.51636 3.16599C6.55262 3.16599 6.58209 3.13316 6.58209 3.09267C6.58209 3.05218 6.55262 3.01935 6.51636 3.01935C6.48009 3.01935 6.45069 3.05218 6.45069 3.09267C6.45069 3.13316 6.48009 3.16599 6.51636 3.16599Z" fill="white"/>
<path id="path619" d="M6.51636 3.16599C6.55262 3.16599 6.58209 3.13316 6.58209 3.09267C6.58209 3.05218 6.55262 3.01935 6.51636 3.01935C6.48009 3.01935 6.45069 3.05218 6.45069 3.09267C6.45069 3.13316 6.48009 3.16599 6.51636 3.16599Z" stroke="black" stroke-width="0.0447288"/>
<path id="path620" d="M7.87433 3.45127C7.91059 3.45127 7.93999 3.41844 7.93999 3.37789C7.93999 3.33739 7.91059 3.30457 7.87433 3.30457C7.838 3.30457 7.8086 3.33739 7.8086 3.37789C7.8086 3.41844 7.838 3.45127 7.87433 3.45127Z" fill="white"/>
<path id="path621" d="M7.87433 3.45127C7.91059 3.45127 7.93999 3.41844 7.93999 3.37789C7.93999 3.33739 7.91059 3.30457 7.87433 3.30457C7.838 3.30457 7.8086 3.33739 7.8086 3.37789C7.8086 3.41844 7.838 3.45127 7.87433 3.45127Z" stroke="black" stroke-width="0.0447288"/>
<path id="path622" d="M7.90834 3.26883C7.94467 3.26883 7.97407 3.236 7.97407 3.19551C7.97407 3.15502 7.94467 3.12219 7.90834 3.12219C7.87208 3.12219 7.84268 3.15502 7.84268 3.19551C7.84268 3.236 7.87208 3.26883 7.90834 3.26883Z" fill="white"/>
<path id="path623" d="M7.90834 3.26883C7.94467 3.26883 7.97407 3.236 7.97407 3.19551C7.97407 3.15502 7.94467 3.12219 7.90834 3.12219C7.87208 3.12219 7.84268 3.15502 7.84268 3.19551C7.84268 3.236 7.87208 3.26883 7.90834 3.26883Z" stroke="black" stroke-width="0.0447288"/>
<path id="path624" d="M7.88048 3.07878C7.9168 3.07878 7.94621 3.04595 7.94621 3.00539C7.94621 2.9649 7.9168 2.93207 7.88048 2.93207C7.84421 2.93207 7.81481 2.9649 7.81481 3.00539C7.81481 3.04595 7.84421 3.07878 7.88048 3.07878Z" fill="white"/>
<path id="path625" d="M7.88048 3.07878C7.9168 3.07878 7.94621 3.04595 7.94621 3.00539C7.94621 2.9649 7.9168 2.93207 7.88048 2.93207C7.84421 2.93207 7.81481 2.9649 7.81481 3.00539C7.81481 3.04595 7.84421 3.07878 7.88048 3.07878Z" stroke="black" stroke-width="0.0447288"/>
<path id="path626" d="M7.80925 2.89897C7.84557 2.89897 7.87498 2.86607 7.87498 2.82558C7.87498 2.78515 7.84557 2.75226 7.80925 2.75226C7.77298 2.75226 7.74358 2.78509 7.74358 2.82558C7.74358 2.86607 7.77298 2.89897 7.80925 2.89897Z" fill="white"/>
<path id="path627" d="M7.80925 2.89897C7.84557 2.89897 7.87498 2.86607 7.87498 2.82558C7.87498 2.78515 7.84557 2.75226 7.80925 2.75226C7.77298 2.75226 7.74358 2.78509 7.74358 2.82558C7.74358 2.86607 7.77298 2.89897 7.80925 2.89897Z" stroke="black" stroke-width="0.0447288"/>
<path id="path628" d="M7.6885 2.77445C7.72477 2.77445 7.75417 2.74162 7.75417 2.70113C7.75417 2.66064 7.72477 2.62781 7.6885 2.62781C7.65224 2.62781 7.62278 2.66064 7.62278 2.70113C7.62278 2.74162 7.65224 2.77445 7.6885 2.77445Z" fill="white"/>
<path id="path629" d="M7.6885 2.77445C7.72477 2.77445 7.75417 2.74162 7.75417 2.70113C7.75417 2.66064 7.72477 2.62781 7.6885 2.62781C7.65224 2.62781 7.62278 2.66064 7.62278 2.70113C7.62278 2.74162 7.65224 2.77445 7.6885 2.77445Z" stroke="black" stroke-width="0.0447288"/>
<path id="path630" d="M7.54297 2.69492C7.57923 2.69492 7.60864 2.66209 7.60864 2.6216C7.60864 2.58111 7.57923 2.54828 7.54297 2.54828C7.50664 2.54828 7.47724 2.58111 7.47724 2.6216C7.47724 2.66209 7.50664 2.69492 7.54297 2.69492Z" fill="white"/>
<path id="path631" d="M7.54297 2.69492C7.57923 2.69492 7.60864 2.66209 7.60864 2.6216C7.60864 2.58111 7.57923 2.54828 7.54297 2.54828C7.50664 2.54828 7.47724 2.58111 7.47724 2.6216C7.47724 2.66209 7.50664 2.69492 7.54297 2.69492Z" stroke="black" stroke-width="0.0447288"/>
<path id="path632" d="M7.37726 2.65256C7.41358 2.65256 7.44299 2.61973 7.44299 2.57924C7.44299 2.53882 7.41358 2.50592 7.37726 2.50592C7.34099 2.50592 7.31159 2.53875 7.31159 2.57924C7.31159 2.61973 7.34099 2.65256 7.37726 2.65256Z" fill="white"/>
<path id="path633" d="M7.37726 2.65256C7.41358 2.65256 7.44299 2.61973 7.44299 2.57924C7.44299 2.53882 7.41358 2.50592 7.37726 2.50592C7.34099 2.50592 7.31159 2.53875 7.31159 2.57924C7.31159 2.61973 7.34099 2.65256 7.37726 2.65256Z" stroke="black" stroke-width="0.0447288"/>
<path id="path634" d="M7.22552 2.63877C7.26184 2.63877 7.29124 2.60594 7.29124 2.56539C7.29124 2.52496 7.26184 2.49207 7.22552 2.49207C7.18925 2.49207 7.15985 2.52489 7.15985 2.56539C7.15985 2.60594 7.18925 2.63877 7.22552 2.63877Z" fill="white"/>
<path id="path635" d="M7.22552 2.63877C7.26184 2.63877 7.29124 2.60594 7.29124 2.56539C7.29124 2.52496 7.26184 2.49207 7.22552 2.49207C7.18925 2.49207 7.15985 2.52489 7.15985 2.56539C7.15985 2.60594 7.18925 2.63877 7.22552 2.63877Z" stroke="black" stroke-width="0.0447288"/>
<path id="path636" d="M7.08797 2.61857C7.12429 2.61857 7.15369 2.58574 7.15369 2.54524C7.15369 2.50475 7.12429 2.47192 7.08797 2.47192C7.0517 2.47192 7.0223 2.50475 7.0223 2.54524C7.0223 2.58574 7.0517 2.61857 7.08797 2.61857Z" fill="white"/>
<path id="path637" d="M7.08797 2.61857C7.12429 2.61857 7.15369 2.58574 7.15369 2.54524C7.15369 2.50475 7.12429 2.47192 7.08797 2.47192C7.0517 2.47192 7.0223 2.50475 7.0223 2.54524C7.0223 2.58574 7.0517 2.61857 7.08797 2.61857Z" stroke="black" stroke-width="0.0447288"/>
<path id="path638" d="M7.17677 3.21879C7.21303 3.21879 7.24243 3.1859 7.24243 3.1454C7.24243 3.10498 7.21303 3.07208 7.17677 3.07208C7.1405 3.07208 7.1111 3.10491 7.1111 3.1454C7.1111 3.1859 7.1405 3.21879 7.17677 3.21879Z" fill="white"/>
<path id="path639" d="M7.17677 3.21879C7.21303 3.21879 7.24243 3.1859 7.24243 3.1454C7.24243 3.10498 7.21303 3.07208 7.17677 3.07208C7.1405 3.07208 7.1111 3.10491 7.1111 3.1454C7.1111 3.1859 7.1405 3.21879 7.17677 3.21879Z" stroke="black" stroke-width="0.0447288"/>
<path id="path640" d="M7.21084 3.077C7.24711 3.077 7.27651 3.04417 7.27651 3.00368C7.27651 2.96319 7.24711 2.93036 7.21084 2.93036C7.17452 2.93036 7.14512 2.96319 7.14512 3.00368C7.14512 3.04417 7.17452 3.077 7.21084 3.077Z" fill="white"/>
<path id="path641" d="M7.21084 3.077C7.24711 3.077 7.27651 3.04417 7.27651 3.00368C7.27651 2.96319 7.24711 2.93036 7.21084 2.93036C7.17452 2.93036 7.14512 2.96319 7.14512 3.00368C7.14512 3.04417 7.17452 3.077 7.21084 3.077Z" stroke="black" stroke-width="0.0447288"/>
<path id="path642" d="M6.65882 2.60764C6.69514 2.60764 6.72455 2.57475 6.72455 2.53426C6.72455 2.49377 6.69514 2.46094 6.65882 2.46094C6.62255 2.46094 6.59315 2.49377 6.59315 2.53426C6.59315 2.57475 6.62255 2.60764 6.65882 2.60764Z" fill="white"/>
<path id="path643" d="M6.65882 2.60764C6.69514 2.60764 6.72455 2.57475 6.72455 2.53426C6.72455 2.49377 6.69514 2.46094 6.65882 2.46094C6.62255 2.46094 6.59315 2.49377 6.59315 2.53426C6.59315 2.57475 6.62255 2.60764 6.65882 2.60764Z" stroke="black" stroke-width="0.0447288"/>
<path id="path644" d="M6.3374 2.58774C6.37372 2.58774 6.40313 2.55491 6.40313 2.51436C6.40313 2.47393 6.37372 2.4411 6.3374 2.4411C6.30114 2.4411 6.27173 2.47386 6.27173 2.51436C6.27173 2.55491 6.30114 2.58774 6.3374 2.58774Z" fill="white"/>
<path id="path645" d="M6.3374 2.58774C6.37372 2.58774 6.40313 2.55491 6.40313 2.51436C6.40313 2.47393 6.37372 2.4411 6.3374 2.4411C6.30114 2.4411 6.27173 2.47386 6.27173 2.51436C6.27173 2.55491 6.30114 2.58774 6.3374 2.58774Z" stroke="black" stroke-width="0.0447288"/>
<path id="path646" d="M6.26002 2.58426C6.29628 2.58426 6.32569 2.55143 6.32569 2.51094C6.32569 2.47045 6.29628 2.43762 6.26002 2.43762C6.22375 2.43762 6.19435 2.47045 6.19435 2.51094C6.19435 2.55143 6.22375 2.58426 6.26002 2.58426Z" fill="white"/>
<path id="path647" d="M6.26002 2.58426C6.29628 2.58426 6.32569 2.55143 6.32569 2.51094C6.32569 2.47045 6.29628 2.43762 6.26002 2.43762C6.22375 2.43762 6.19435 2.47045 6.19435 2.51094C6.19435 2.55143 6.22375 2.58426 6.26002 2.58426Z" stroke="black" stroke-width="0.0447288"/>
<path id="path648" d="M5.8427 3.2205C5.87897 3.2205 5.90843 3.18767 5.90843 3.14711C5.90843 3.10662 5.87897 3.07379 5.8427 3.07379C5.80644 3.07379 5.77703 3.10662 5.77703 3.14711C5.77703 3.18767 5.80644 3.2205 5.8427 3.2205Z" fill="white"/>
<path id="path649" d="M5.8427 3.2205C5.87897 3.2205 5.90843 3.18767 5.90843 3.14711C5.90843 3.10662 5.87897 3.07379 5.8427 3.07379C5.80644 3.07379 5.77703 3.10662 5.77703 3.14711C5.77703 3.18767 5.80644 3.2205 5.8427 3.2205Z" stroke="black" stroke-width="0.0447288"/>
<path id="path650" d="M5.82336 3.04502C5.85962 3.04502 5.88908 3.01219 5.88908 2.9717C5.88908 2.93121 5.85962 2.89838 5.82336 2.89838C5.78709 2.89838 5.75769 2.93121 5.75769 2.9717C5.75769 3.01219 5.78709 3.04502 5.82336 3.04502Z" fill="white"/>
<path id="path651" d="M5.82336 3.04502C5.85962 3.04502 5.88908 3.01219 5.88908 2.9717C5.88908 2.93121 5.85962 2.89838 5.82336 2.89838C5.78709 2.89838 5.75769 2.93121 5.75769 2.9717C5.75769 3.01219 5.78709 3.04502 5.82336 3.04502Z" stroke="black" stroke-width="0.0447288"/>
<path id="path652" d="M5.8698 2.87558C5.90612 2.87558 5.93552 2.84276 5.93552 2.80226C5.93552 2.76177 5.90612 2.72894 5.8698 2.72894C5.83353 2.72894 5.80413 2.76177 5.80413 2.80226C5.80413 2.84276 5.83353 2.87558 5.8698 2.87558Z" fill="white"/>
<path id="path653" d="M5.8698 2.87558C5.90612 2.87558 5.93552 2.84276 5.93552 2.80226C5.93552 2.76177 5.90612 2.72894 5.8698 2.72894C5.83353 2.72894 5.80413 2.76177 5.80413 2.80226C5.80413 2.84276 5.83353 2.87558 5.8698 2.87558Z" stroke="black" stroke-width="0.0447288"/>
<path id="path654" d="M6.15856 2.60069C6.19488 2.60069 6.22428 2.56786 6.22428 2.52737C6.22428 2.48681 6.19488 2.45398 6.15856 2.45398C6.12229 2.45398 6.09289 2.48681 6.09289 2.52737C6.09289 2.56786 6.12229 2.60069 6.15856 2.60069Z" fill="white"/>
<path id="path655" d="M6.15856 2.60069C6.19488 2.60069 6.22428 2.56786 6.22428 2.52737C6.22428 2.48681 6.19488 2.45398 6.15856 2.45398C6.12229 2.45398 6.09289 2.48681 6.09289 2.52737C6.09289 2.56786 6.12229 2.60069 6.15856 2.60069Z" stroke="black" stroke-width="0.0447288"/>
<path id="path656" d="M6.04941 2.65086C6.08573 2.65086 6.11513 2.61803 6.11513 2.57754C6.11513 2.53698 6.08573 2.50415 6.04941 2.50415C6.01314 2.50415 5.98374 2.53698 5.98374 2.57754C5.98374 2.61803 6.01314 2.65086 6.04941 2.65086Z" fill="white"/>
<path id="path657" d="M6.04941 2.65086C6.08573 2.65086 6.11513 2.61803 6.11513 2.57754C6.11513 2.53698 6.08573 2.50415 6.04941 2.50415C6.01314 2.50415 5.98374 2.53698 5.98374 2.57754C5.98374 2.61803 6.01314 2.65086 6.04941 2.65086Z" stroke="black" stroke-width="0.0447288"/>
<path id="path658" d="M5.94493 2.74943C5.9812 2.74943 6.0106 2.71653 6.0106 2.67604C6.0106 2.63555 5.9812 2.60272 5.94493 2.60272C5.90861 2.60272 5.8792 2.63555 5.8792 2.67604C5.8792 2.71653 5.90861 2.74943 5.94493 2.74943Z" fill="white"/>
<path id="path659" d="M5.94493 2.74943C5.9812 2.74943 6.0106 2.71653 6.0106 2.67604C6.0106 2.63555 5.9812 2.60272 5.94493 2.60272C5.90861 2.60272 5.8792 2.63555 5.8792 2.67604C5.8792 2.71653 5.90861 2.74943 5.94493 2.74943Z" stroke="black" stroke-width="0.0447288"/>
<path id="path660" d="M6.51636 2.70622C6.55262 2.70622 6.58209 2.67332 6.58209 2.63283C6.58209 2.5924 6.55262 2.55951 6.51636 2.55951C6.48009 2.55951 6.45069 2.59234 6.45069 2.63283C6.45069 2.67332 6.48009 2.70622 6.51636 2.70622Z" fill="white"/>
<path id="path661" d="M6.51636 2.70622C6.55262 2.70622 6.58209 2.67332 6.58209 2.63283C6.58209 2.5924 6.55262 2.55951 6.51636 2.55951C6.48009 2.55951 6.45069 2.59234 6.45069 2.63283C6.45069 2.67332 6.48009 2.70622 6.51636 2.70622Z" stroke="black" stroke-width="0.0447288"/>
<path id="path662" d="M6.51636 2.84446C6.55262 2.84446 6.58209 2.81163 6.58209 2.77114C6.58209 2.73064 6.55262 2.69781 6.51636 2.69781C6.48009 2.69781 6.45069 2.73064 6.45069 2.77114C6.45069 2.81163 6.48009 2.84446 6.51636 2.84446Z" fill="white"/>
<path id="path663" d="M6.51636 2.84446C6.55262 2.84446 6.58209 2.81163 6.58209 2.77114C6.58209 2.73064 6.55262 2.69781 6.51636 2.69781C6.48009 2.69781 6.45069 2.73064 6.45069 2.77114C6.45069 2.81163 6.48009 2.84446 6.51636 2.84446Z" stroke="black" stroke-width="0.0447288"/>
<path id="path664" d="M6.51636 2.99314C6.55262 2.99314 6.58209 2.96031 6.58209 2.91982C6.58209 2.87939 6.55262 2.8465 6.51636 2.8465C6.48009 2.8465 6.45069 2.87933 6.45069 2.91982C6.45069 2.96031 6.48009 2.99314 6.51636 2.99314Z" fill="white"/>
<path id="path665" d="M6.51636 2.99314C6.55262 2.99314 6.58209 2.96031 6.58209 2.91982C6.58209 2.87939 6.55262 2.8465 6.51636 2.8465C6.48009 2.8465 6.45069 2.87933 6.45069 2.91982C6.45069 2.96031 6.48009 2.99314 6.51636 2.99314Z" stroke="black" stroke-width="0.0447288"/>
<path id="path666" d="M6.74401 2.5886C6.78027 2.5886 6.80968 2.55571 6.80968 2.51522C6.80968 2.47479 6.78027 2.44189 6.74401 2.44189C6.70768 2.44189 6.67828 2.47472 6.67828 2.51522C6.67828 2.55571 6.70768 2.5886 6.74401 2.5886Z" fill="white"/>
<path id="path667" d="M6.74401 2.5886C6.78027 2.5886 6.80968 2.55571 6.80968 2.51522C6.80968 2.47479 6.78027 2.44189 6.74401 2.44189C6.70768 2.44189 6.67828 2.47472 6.67828 2.51522C6.67828 2.55571 6.70768 2.5886 6.74401 2.5886Z" stroke="black" stroke-width="0.0447288"/>
<path id="path668" d="M6.83381 2.56791C6.87008 2.56791 6.89948 2.53502 6.89948 2.49452C6.89948 2.4541 6.87008 2.4212 6.83381 2.4212C6.79749 2.4212 6.76809 2.45403 6.76809 2.49452C6.76809 2.53502 6.79749 2.56791 6.83381 2.56791Z" fill="white"/>
<path id="path669" d="M6.83381 2.56791C6.87008 2.56791 6.89948 2.53502 6.89948 2.49452C6.89948 2.4541 6.87008 2.4212 6.83381 2.4212C6.79749 2.4212 6.76809 2.45403 6.76809 2.49452C6.76809 2.53502 6.79749 2.56791 6.83381 2.56791Z" stroke="black" stroke-width="0.0447288"/>
<path id="path670" d="M6.93522 2.58604C6.97148 2.58604 7.00088 2.55314 7.00088 2.51265C7.00088 2.47216 6.97148 2.43933 6.93522 2.43933C6.89895 2.43933 6.86955 2.47216 6.86955 2.51265C6.86955 2.55314 6.89895 2.58604 6.93522 2.58604Z" fill="white"/>
<path id="path671" d="M6.93522 2.58604C6.97148 2.58604 7.00088 2.55314 7.00088 2.51265C7.00088 2.47216 6.97148 2.43933 6.93522 2.43933C6.89895 2.43933 6.86955 2.47216 6.86955 2.51265C6.86955 2.55314 6.89895 2.58604 6.93522 2.58604Z" stroke="black" stroke-width="0.0447288"/>
<path id="path672" d="M7.18913 2.89719C7.2254 2.89719 7.25486 2.86436 7.25486 2.82387C7.25486 2.78338 7.2254 2.75055 7.18913 2.75055C7.15287 2.75055 7.12346 2.78338 7.12346 2.82387C7.12346 2.86436 7.15287 2.89719 7.18913 2.89719Z" fill="white"/>
<path id="path673" d="M7.18913 2.89719C7.2254 2.89719 7.25486 2.86436 7.25486 2.82387C7.25486 2.78338 7.2254 2.75055 7.18913 2.75055C7.15287 2.75055 7.12346 2.78338 7.12346 2.82387C7.12346 2.86436 7.15287 2.89719 7.18913 2.89719Z" stroke="black" stroke-width="0.0447288"/>
<path id="path674" d="M7.03738 2.65171C7.07371 2.65171 7.10311 2.61888 7.10311 2.57839C7.10311 2.53783 7.07371 2.505 7.03738 2.505C7.00112 2.505 6.97172 2.53783 6.97172 2.57839C6.97172 2.61888 7.00112 2.65171 7.03738 2.65171Z" fill="white"/>
<path id="path675" d="M7.03738 2.65171C7.07371 2.65171 7.10311 2.61888 7.10311 2.57839C7.10311 2.53783 7.07371 2.505 7.03738 2.505C7.00112 2.505 6.97172 2.53783 6.97172 2.57839C6.97172 2.61888 7.00112 2.65171 7.03738 2.65171Z" stroke="black" stroke-width="0.0447288"/>
<path id="path676" d="M7.13032 2.75199C7.16659 2.75199 7.19599 2.71916 7.19599 2.67861C7.19599 2.63811 7.16659 2.60529 7.13032 2.60529C7.094 2.60529 7.0646 2.63811 7.0646 2.67861C7.0646 2.71916 7.094 2.75199 7.13032 2.75199Z" fill="white"/>
<path id="path677" d="M7.13032 2.75199C7.16659 2.75199 7.19599 2.71916 7.19599 2.67861C7.19599 2.63811 7.16659 2.60529 7.13032 2.60529C7.094 2.60529 7.0646 2.63811 7.0646 2.67861C7.0646 2.71916 7.094 2.75199 7.13032 2.75199Z" stroke="black" stroke-width="0.0447288"/>
<path id="path678" d="M6.51216 3.85034L6.33876 3.94718L6.49482 4.0569L6.67982 3.95365L6.51216 3.85034Z" fill="white"/>
<path id="path679" d="M6.51216 3.85034L6.33876 3.94718L6.49482 4.0569L6.67982 3.95365L6.51216 3.85034Z" stroke="black" stroke-width="0.022311"/>
<path id="path680" d="M6.13306 3.87067L5.87293 3.91558C5.87293 3.91558 5.8698 4.07121 5.88222 4.10926L6.1485 4.06771C6.1485 4.06771 6.16092 3.92252 6.13306 3.87067Z" fill="white"/>
<path id="path681" d="M6.13306 3.87067L5.87293 3.91558C5.87293 3.91558 5.8698 4.07121 5.88222 4.10926L6.1485 4.06771C6.1485 4.06771 6.16092 3.92252 6.13306 3.87067Z" stroke="black" stroke-width="0.022311"/>
<path id="path682" d="M6.10413 3.92596C6.10413 3.92596 5.94724 3.94208 5.90801 3.95827L5.91009 4.06428C5.91009 4.06428 6.01332 4.04354 6.10827 4.03429L6.10413 3.92596Z" fill="#058E6E" fill-opacity="0.941176"/>
<path id="path683" d="M6.10413 3.92596C6.10413 3.92596 5.94724 3.94208 5.90801 3.95827L5.91009 4.06428C5.91009 4.06428 6.01332 4.04354 6.10827 4.03429L6.10413 3.92596Z" stroke="black" stroke-width="0.022311"/>
<path id="path684" d="M6.87475 3.87903L7.13482 3.92401C7.13482 3.92401 7.13796 4.07957 7.12553 4.11762L6.85925 4.07614C6.85925 4.07614 6.84683 3.93088 6.87475 3.87903Z" fill="white"/>
<path id="path685" d="M6.87475 3.87903L7.13482 3.92401C7.13482 3.92401 7.13796 4.07957 7.12553 4.11762L6.85925 4.07614C6.85925 4.07614 6.84683 3.93088 6.87475 3.87903Z" stroke="black" stroke-width="0.022311"/>
<path id="path686" d="M6.90362 3.93439C6.90362 3.93439 7.06052 3.9505 7.09974 3.96662L7.09767 4.07264C7.09767 4.07264 6.99443 4.0519 6.89948 4.04272L6.90362 3.93439Z" fill="#058E6E" fill-opacity="0.941176"/>
<path id="path687" d="M6.90362 3.93439C6.90362 3.93439 7.06052 3.9505 7.09974 3.96662L7.09767 4.07264C7.09767 4.07264 6.99443 4.0519 6.89948 4.04272L6.90362 3.93439Z" stroke="black" stroke-width="0.022311"/>
<path id="path688" d="M5.48271 4.00899C5.48271 4.00899 6.3952 3.63063 7.55551 4.04096M5.51986 4.22677C5.51986 4.22677 6.40248 3.85819 7.49097 4.24315M5.524 3.99512L5.70154 4.05272L5.57766 4.20028" stroke="black" stroke-width="0.022311"/>
<path id="path689" d="M5.52814 4.17262L5.62931 4.0781L5.51371 4.05273C5.51371 4.05273 5.52945 4.07268 5.52619 4.09098C5.523 4.10928 5.52714 4.15651 5.52814 4.17262Z" fill="#FF0000"/>
<path id="path690" d="M5.52814 4.17262L5.62931 4.0781L5.51371 4.05273C5.51371 4.05273 5.52945 4.07268 5.52619 4.09098C5.523 4.10928 5.52714 4.15651 5.52814 4.17262Z" stroke="black" stroke-width="0.022311"/>
<path id="path691" d="M7.53587 4.0332L7.34697 4.07125L7.47393 4.23718" stroke="black" stroke-width="0.022311"/>
<path id="path692" d="M7.48014 4.17842L7.40891 4.09539L7.51108 4.08502C7.51108 4.08502 7.48322 4.10576 7.48322 4.12307C7.48322 4.14038 7.48635 4.16455 7.48014 4.17842Z" fill="#FF0000"/>
<path id="path693" d="M7.48014 4.17842L7.40891 4.09539L7.51108 4.08502C7.51108 4.08502 7.48322 4.10576 7.48322 4.12307C7.48322 4.14038 7.48635 4.16455 7.48014 4.17842Z" stroke="black" stroke-width="0.022311"/>
<path id="path694" d="M5.75526 4.00972C5.77135 4.00972 5.78443 3.99803 5.78443 3.98357C5.78443 3.96923 5.77135 3.95754 5.75526 3.95754C5.73911 3.95754 5.72604 3.96923 5.72604 3.98357C5.72604 3.99803 5.73911 4.00972 5.75526 4.00972ZM6.2628 3.94512C6.27895 3.94512 6.29202 3.93343 6.29202 3.9191C6.29202 3.90463 6.27895 3.89301 6.2628 3.89301C6.24671 3.89301 6.23363 3.90463 6.23363 3.9191C6.23363 3.93343 6.24671 3.94512 6.2628 3.94512ZM6.2628 4.03734C6.27895 4.03734 6.29202 4.02564 6.29202 4.01124C6.29202 3.99684 6.27895 3.98522 6.2628 3.98522C6.24671 3.98522 6.23363 3.99684 6.23363 4.01124C6.23363 4.02564 6.24671 4.03734 6.2628 4.03734ZM6.76241 3.94975C6.77856 3.94975 6.79163 3.93812 6.79163 3.92365C6.79163 3.90932 6.77856 3.89763 6.76241 3.89763C6.74632 3.89763 6.73324 3.90925 6.73324 3.92365C6.73324 3.93812 6.74632 3.94975 6.76241 3.94975ZM7.25787 4.05121C7.27403 4.05121 7.2871 4.03952 7.2871 4.02505C7.2871 4.01071 7.27403 3.99902 7.25787 3.99902C7.24178 3.99902 7.22871 4.01071 7.22871 4.02505C7.22871 4.03952 7.24178 4.05121 7.25787 4.05121ZM7.24965 4.12492C7.2658 4.12492 7.27888 4.11323 7.27888 4.0989C7.27888 4.08456 7.2658 4.07274 7.24965 4.07274C7.2335 4.07274 7.22043 4.0845 7.22043 4.0989C7.22043 4.11323 7.2335 4.12492 7.24965 4.12492ZM6.76241 4.04196C6.77856 4.04196 6.79163 4.03027 6.79163 4.01587C6.79163 4.00153 6.77856 3.98984 6.76241 3.98984C6.74632 3.98984 6.73324 4.00147 6.73324 4.01587C6.73324 4.03027 6.74632 4.04196 6.76241 4.04196ZM5.77975 4.12492C5.79584 4.12492 5.80892 4.11323 5.80892 4.0989C5.80892 4.08456 5.79584 4.07274 5.77975 4.07274C5.7636 4.07274 5.75053 4.0845 5.75053 4.0989C5.75053 4.11323 5.7636 4.12492 5.77975 4.12492Z" stroke="black" stroke-width="0.022311"/>
<path id="path695" d="M5.46621 3.71164C5.46621 3.71164 5.47035 3.90987 5.58595 3.8822C5.70155 3.85452 5.68918 3.69315 5.69746 3.68397C5.70569 3.67472 5.71805 3.67472 5.71805 3.67472C5.71805 3.67472 5.73456 3.83147 5.84187 3.81304C5.94925 3.79461 5.94511 3.601 5.93274 3.5687L5.95753 3.55945C5.95753 3.55945 5.99877 3.78536 6.12265 3.75313C6.24653 3.72083 6.23417 3.57795 6.23417 3.57795H6.24369C6.24369 3.57795 6.27132 3.73007 6.37041 3.72083C6.46945 3.71164 6.49015 3.67472 6.47773 3.52259L6.54381 3.50879C6.54381 3.50879 6.51902 3.73007 6.6387 3.72545C6.7585 3.72083 6.76259 3.61481 6.77087 3.59638H6.78891C6.78891 3.59638 6.79566 3.75313 6.89475 3.75313C6.99384 3.75313 7.01443 3.61943 7.01443 3.5687L7.11122 3.57352C7.11122 3.57352 7.01035 3.7808 7.15902 3.80848C7.30763 3.83609 7.31177 3.67472 7.31177 3.67472H7.34064C7.34064 3.67472 7.3365 3.8822 7.41909 3.88682C7.50162 3.89145 7.55119 3.85914 7.55942 3.70702L7.60485 3.72545C7.60485 3.72545 7.56545 3.97137 7.41081 3.92824C7.32822 3.90525 7.30343 3.79923 7.30757 3.77156C7.30757 3.77156 7.24983 3.88676 7.13831 3.8499C7.02686 3.81304 7.03922 3.72545 7.03922 3.69777C7.03922 3.69777 6.97219 3.83523 6.87819 3.80372C6.79566 3.77611 6.76259 3.74381 6.76259 3.67928C6.76259 3.67928 6.72129 3.78529 6.6387 3.78074C6.55612 3.77611 6.51488 3.72076 6.51074 3.6701C6.51074 3.6701 6.49435 3.76918 6.38272 3.77611C6.30841 3.78074 6.26712 3.73932 6.25061 3.6839C6.25061 3.6839 6.22926 3.7843 6.12265 3.79917C6.05663 3.80841 5.99054 3.76693 5.97398 3.69777C5.97398 3.69777 5.95753 3.8314 5.85016 3.8499C5.74278 3.86833 5.71799 3.78536 5.71799 3.78536C5.71799 3.78536 5.6974 3.89144 5.61067 3.91443C5.52395 3.93749 5.46615 3.89607 5.4455 3.79923C5.42485 3.7024 5.43313 3.66091 5.43313 3.66091L5.46615 3.71158" fill="#FFCC00"/>
<path id="path696" d="M5.46621 3.71164C5.46621 3.71164 5.47035 3.90987 5.58595 3.8822C5.70155 3.85452 5.68918 3.69315 5.69746 3.68397C5.70569 3.67472 5.71805 3.67472 5.71805 3.67472C5.71805 3.67472 5.73456 3.83147 5.84187 3.81304C5.94925 3.79461 5.94511 3.601 5.93274 3.5687L5.95753 3.55945C5.95753 3.55945 5.99877 3.78536 6.12265 3.75313C6.24653 3.72083 6.23417 3.57795 6.23417 3.57795H6.24369C6.24369 3.57795 6.27132 3.73007 6.37041 3.72083C6.46945 3.71164 6.49015 3.67472 6.47773 3.52259L6.54381 3.50879C6.54381 3.50879 6.51902 3.73007 6.6387 3.72545C6.7585 3.72083 6.76259 3.61481 6.77087 3.59638H6.78891C6.78891 3.59638 6.79566 3.75313 6.89475 3.75313C6.99384 3.75313 7.01443 3.61943 7.01443 3.5687L7.11122 3.57352C7.11122 3.57352 7.01035 3.7808 7.15902 3.80848C7.30763 3.83609 7.31177 3.67472 7.31177 3.67472H7.34064C7.34064 3.67472 7.3365 3.8822 7.41909 3.88682C7.50162 3.89145 7.55119 3.85914 7.55942 3.70702L7.60485 3.72545C7.60485 3.72545 7.56545 3.97137 7.41081 3.92824C7.32822 3.90525 7.30343 3.79923 7.30757 3.77156C7.30757 3.77156 7.24983 3.88676 7.13831 3.8499C7.02686 3.81304 7.03922 3.72545 7.03922 3.69777C7.03922 3.69777 6.97219 3.83523 6.87819 3.80372C6.79566 3.77611 6.76259 3.74381 6.76259 3.67928C6.76259 3.67928 6.72129 3.78529 6.6387 3.78074C6.55612 3.77611 6.51488 3.72076 6.51074 3.6701C6.51074 3.6701 6.49435 3.76918 6.38272 3.77611C6.30841 3.78074 6.26712 3.73932 6.25061 3.6839C6.25061 3.6839 6.22926 3.7843 6.12265 3.79917C6.05663 3.80841 5.99054 3.76693 5.97398 3.69777C5.97398 3.69777 5.95753 3.8314 5.85016 3.8499C5.74278 3.86833 5.71799 3.78536 5.71799 3.78536C5.71799 3.78536 5.6974 3.89144 5.61067 3.91443C5.52395 3.93749 5.46615 3.89607 5.4455 3.79923C5.42485 3.7024 5.43313 3.66091 5.43313 3.66091L5.46615 3.71158L5.46621 3.71164Z" fill="#BCAC0B" stroke="black" stroke-width="0.0290364"/>
<path id="path697" d="M5.70569 3.72032C5.72829 3.72032 5.74657 3.69991 5.74657 3.67467C5.74657 3.64951 5.72829 3.62903 5.70569 3.62903C5.68309 3.62903 5.66481 3.64951 5.66481 3.67467C5.66481 3.69991 5.68309 3.72032 5.70569 3.72032Z" fill="#FFCC00"/>
<path id="path698" d="M5.70569 3.72032C5.72829 3.72032 5.74657 3.69991 5.74657 3.67467C5.74657 3.64951 5.72829 3.62903 5.70569 3.62903C5.68309 3.62903 5.66481 3.64951 5.66481 3.67467C5.66481 3.69991 5.68309 3.72032 5.70569 3.72032Z" fill="#BCAC0B" stroke="black" stroke-width="0.0290364"/>
<path id="path699" d="M6.24375 3.62419C6.26635 3.62419 6.28463 3.60371 6.28463 3.57854C6.28463 3.55331 6.26635 3.5329 6.24375 3.5329C6.22115 3.5329 6.20287 3.55331 6.20287 3.57854C6.20287 3.60371 6.22115 3.62419 6.24375 3.62419Z" fill="#FFCC00"/>
<path id="path700" d="M6.24375 3.62419C6.26635 3.62419 6.28463 3.60371 6.28463 3.57854C6.28463 3.55331 6.26635 3.5329 6.24375 3.5329C6.22115 3.5329 6.20287 3.55331 6.20287 3.57854C6.20287 3.60371 6.22115 3.62419 6.24375 3.62419Z" fill="#BCAC0B" stroke="black" stroke-width="0.0290364"/>
<path id="path701" d="M6.78903 3.64201C6.81163 3.64201 6.82991 3.62153 6.82991 3.59636C6.82991 3.57113 6.81163 3.55072 6.78903 3.55072C6.76643 3.55072 6.74815 3.57113 6.74815 3.59636C6.74815 3.62153 6.76643 3.64201 6.78903 3.64201Z" fill="#FFCC00"/>
<path id="path702" d="M6.78903 3.64201C6.81163 3.64201 6.82991 3.62153 6.82991 3.59636C6.82991 3.57113 6.81163 3.55072 6.78903 3.55072C6.76643 3.55072 6.74815 3.57113 6.74815 3.59636C6.74815 3.62153 6.76643 3.64201 6.78903 3.64201Z" fill="#BCAC0B" stroke="black" stroke-width="0.0290364"/>
<path id="path703" d="M7.33017 3.73911C7.35277 3.73911 7.37105 3.71864 7.37105 3.69347C7.37105 3.66824 7.35277 3.64783 7.33017 3.64783C7.30763 3.64783 7.28935 3.66824 7.28935 3.69347C7.28935 3.71864 7.30763 3.73911 7.33017 3.73911Z" fill="#FFCC00"/>
<path id="path704" d="M7.33017 3.73911C7.35277 3.73911 7.37105 3.71864 7.37105 3.69347C7.37105 3.66824 7.35277 3.64783 7.33017 3.64783C7.30763 3.64783 7.28935 3.66824 7.28935 3.69347C7.28935 3.71864 7.30763 3.73911 7.33017 3.73911Z" fill="#BCAC0B" stroke="black" stroke-width="0.0290364"/>
<path id="path705" d="M6.49228 3.57329H6.45513C6.44584 3.61477 6.36686 3.64073 6.36686 3.64073C6.35757 3.6079 6.37769 3.5612 6.37769 3.5612C6.28634 3.53524 6.28634 3.49891 6.28634 3.49891C6.30025 3.46436 6.3839 3.45921 6.3839 3.45921C6.36219 3.4281 6.36686 3.37796 6.36686 3.37796C6.42259 3.38146 6.46903 3.44362 6.46903 3.44362C6.46903 3.44362 6.4133 3.41258 6.41951 3.30187C6.41951 3.30187 6.45045 3.30022 6.46903 3.32261C6.46903 3.32261 6.46903 3.20338 6.51393 3.18958H6.51855C6.56345 3.20338 6.56345 3.32261 6.56345 3.32261C6.58203 3.30022 6.61297 3.30187 6.61297 3.30187C6.61918 3.41251 6.56345 3.44362 6.56345 3.44362C6.56345 3.44362 6.60989 3.38146 6.66562 3.37796C6.66562 3.37796 6.6703 3.42803 6.64858 3.45921C6.64858 3.45921 6.73224 3.46436 6.74614 3.49891C6.74614 3.49891 6.74614 3.53524 6.6548 3.5612C6.6548 3.5612 6.67491 3.6079 6.66562 3.64073C6.66562 3.64073 6.58664 3.61477 6.57735 3.57329H6.49222" fill="#FFCC00"/>
<path id="path706" d="M6.49228 3.57329H6.45513C6.44584 3.61477 6.36686 3.64073 6.36686 3.64073C6.35757 3.6079 6.37769 3.5612 6.37769 3.5612C6.28634 3.53524 6.28634 3.49891 6.28634 3.49891C6.30025 3.46436 6.3839 3.45921 6.3839 3.45921C6.36219 3.4281 6.36686 3.37796 6.36686 3.37796C6.42259 3.38146 6.46903 3.44362 6.46903 3.44362C6.46903 3.44362 6.4133 3.41258 6.41951 3.30187C6.41951 3.30187 6.45045 3.30022 6.46903 3.32261C6.46903 3.32261 6.46903 3.20338 6.51393 3.18958H6.51855C6.56345 3.20338 6.56345 3.32261 6.56345 3.32261C6.58203 3.30022 6.61297 3.30187 6.61297 3.30187C6.61918 3.41251 6.56345 3.44362 6.56345 3.44362C6.56345 3.44362 6.60989 3.38146 6.66562 3.37796C6.66562 3.37796 6.6703 3.42803 6.64858 3.45921C6.64858 3.45921 6.73224 3.46436 6.74614 3.49891C6.74614 3.49891 6.74614 3.53524 6.6548 3.5612C6.6548 3.5612 6.67491 3.6079 6.66562 3.64073C6.66562 3.64073 6.58664 3.61477 6.57735 3.57329H6.49222H6.49228Z" fill="#BCAC0B" stroke="black" stroke-width="0.0290364"/>
<path id="path707" d="M6.5134 3.59686C6.55476 3.59686 6.58824 3.55948 6.58824 3.5133C6.58824 3.4672 6.55476 3.42981 6.5134 3.42981C6.47211 3.42981 6.43862 3.4672 6.43862 3.5133C6.43862 3.55948 6.47211 3.59686 6.5134 3.59686Z" fill="white"/>
<path id="path708" d="M6.5134 3.59686C6.55476 3.59686 6.58824 3.55948 6.58824 3.5133C6.58824 3.4672 6.55476 3.42981 6.5134 3.42981C6.47211 3.42981 6.43862 3.4672 6.43862 3.5133C6.43862 3.55948 6.47211 3.59686 6.5134 3.59686Z" stroke="black" stroke-width="0.0179342"/>
<path id="path709" d="M6.5134 3.559C6.536 3.559 6.55434 3.53858 6.55434 3.51335C6.55434 3.48818 6.536 3.46777 6.5134 3.46777C6.49086 3.46777 6.47258 3.48818 6.47258 3.51335C6.47258 3.53858 6.49086 3.559 6.5134 3.559Z" fill="white"/>
<path id="path710" d="M6.5134 3.559C6.536 3.559 6.55434 3.53858 6.55434 3.51335C6.55434 3.48818 6.536 3.46777 6.5134 3.46777C6.49086 3.46777 6.47258 3.48818 6.47258 3.51335C6.47258 3.53858 6.49086 3.559 6.5134 3.559Z" stroke="black" stroke-width="0.0112089"/>
<path id="path711" d="M7.08075 3.62743L7.11707 3.63621C7.1182 3.67895 7.19061 3.72288 7.19061 3.72288C7.20581 3.69296 7.19499 3.64262 7.19499 3.64262C7.28917 3.63879 7.29597 3.60332 7.29597 3.60332C7.28893 3.5662 7.20818 3.54143 7.20818 3.54143C7.23522 3.51613 7.24019 3.46599 7.24019 3.46599C7.18505 3.45628 7.12784 3.50615 7.12784 3.50615C7.12784 3.50615 7.18824 3.48891 7.20309 3.37926C7.20309 3.37926 7.1731 3.37034 7.1508 3.38785C7.1508 3.38785 7.17328 3.27126 7.13204 3.24722L7.12749 3.24609C7.08099 3.24907 7.05845 3.36565 7.05845 3.36565C7.04454 3.3393 7.01396 3.33368 7.01396 3.33368C6.98698 3.44036 7.03561 3.48396 7.03561 3.48396C7.03561 3.48396 7.00195 3.41216 6.94811 3.39564C6.94811 3.39564 6.93409 3.44353 6.94941 3.47907C6.94941 3.47907 6.86671 3.46447 6.84653 3.49499C6.84653 3.49499 6.83973 3.53046 6.92409 3.57736C6.92409 3.57736 6.89558 3.61825 6.89848 3.65253C6.89848 3.65253 6.98059 3.64579 6.99751 3.60741L7.03378 3.61613L7.08075 3.62743Z" fill="#FFCC00"/>
<path id="path712" d="M7.08075 3.62743L7.11707 3.63621C7.1182 3.67895 7.19061 3.72288 7.19061 3.72288C7.20581 3.69296 7.19499 3.64262 7.19499 3.64262C7.28917 3.63879 7.29597 3.60332 7.29597 3.60332C7.28893 3.5662 7.20818 3.54143 7.20818 3.54143C7.23522 3.51613 7.24019 3.46599 7.24019 3.46599C7.18505 3.45628 7.12784 3.50615 7.12784 3.50615C7.12784 3.50615 7.18824 3.48891 7.20309 3.37926C7.20309 3.37926 7.1731 3.37034 7.1508 3.38785C7.1508 3.38785 7.17328 3.27126 7.13204 3.24722L7.12749 3.24609C7.08099 3.24907 7.05845 3.36565 7.05845 3.36565C7.04454 3.3393 7.01396 3.33368 7.01396 3.33368C6.98698 3.44036 7.03561 3.48396 7.03561 3.48396C7.03561 3.48396 7.00195 3.41216 6.94811 3.39564C6.94811 3.39564 6.93409 3.44353 6.94941 3.47907C6.94941 3.47907 6.86671 3.46447 6.84653 3.49499C6.84653 3.49499 6.83973 3.53046 6.92409 3.57736C6.92409 3.57736 6.89558 3.61825 6.89848 3.65253C6.89848 3.65253 6.98059 3.64579 6.99751 3.60741L7.03378 3.61613L7.08075 3.62743Z" fill="#BCAC0B" stroke="black" stroke-width="0.0290364"/>
<path id="path713" d="M7.05555 3.64548C7.0152 3.63577 6.98952 3.59132 6.99822 3.5462C7.00692 3.50115 7.04673 3.47242 7.08714 3.48219C7.12755 3.49191 7.15322 3.53636 7.14452 3.58148C7.13577 3.62653 7.09595 3.65526 7.05555 3.64548Z" fill="white"/>
<path id="path714" d="M7.05555 3.64548C7.0152 3.63577 6.98952 3.59132 6.99822 3.5462C7.00692 3.50115 7.04673 3.47242 7.08714 3.48219C7.12755 3.49191 7.15322 3.53636 7.14452 3.58148C7.13577 3.62653 7.09595 3.65526 7.05555 3.64548Z" stroke="black" stroke-width="0.0179342"/>
<path id="path715" d="M7.06277 3.60847C7.04064 3.60318 7.02662 3.57888 7.03141 3.55424C7.03614 3.52967 7.05791 3.51394 7.07998 3.51929C7.10205 3.52458 7.11607 3.54895 7.11134 3.57353C7.10654 3.59816 7.08477 3.61382 7.06277 3.60847Z" fill="white"/>
<path id="path716" d="M7.06277 3.60847C7.04064 3.60318 7.02662 3.57888 7.03141 3.55424C7.03614 3.52967 7.05791 3.51394 7.07998 3.51929C7.10205 3.52458 7.11607 3.54895 7.11134 3.57353C7.10654 3.59816 7.08477 3.61382 7.06277 3.60847Z" stroke="black" stroke-width="0.0112089"/>
<path id="path717" d="M5.92706 3.61929L5.89021 3.6247C5.88589 3.66724 5.81064 3.70456 5.81064 3.70456C5.79756 3.67339 5.812 3.62418 5.812 3.62418C5.71841 3.61189 5.71409 3.57589 5.71409 3.57589C5.72385 3.53963 5.80608 3.52212 5.80608 3.52212C5.78094 3.49451 5.77964 3.44411 5.77964 3.44411C5.83531 3.43942 5.88873 3.49418 5.88873 3.49418C5.88873 3.49418 5.8298 3.47152 5.82288 3.36095C5.82288 3.36095 5.85341 3.35467 5.87447 3.37422C5.87447 3.37422 5.86039 3.25599 5.90316 3.23564L5.90778 3.23505C5.95392 3.24205 5.968 3.36035 5.968 3.36035C5.9838 3.33538 6.01468 3.33248 6.01468 3.33248C6.03391 3.44127 5.98232 3.48024 5.98232 3.48024C5.98232 3.48024 6.02101 3.41181 6.07585 3.40018C6.07585 3.40018 6.08638 3.44913 6.06857 3.48315C6.06857 3.48315 6.15205 3.47595 6.16998 3.50818C6.16998 3.50818 6.17424 3.54418 6.08674 3.58335C6.08674 3.58335 6.11224 3.62662 6.10691 3.66057C6.10691 3.66057 6.02557 3.6465 6.01143 3.60674L5.97457 3.61222L5.92706 3.61929Z" fill="#FFCC00"/>
<path id="path718" d="M5.92706 3.61929L5.89021 3.6247C5.88589 3.66724 5.81064 3.70456 5.81064 3.70456C5.79756 3.67339 5.812 3.62418 5.812 3.62418C5.71841 3.61189 5.71409 3.57589 5.71409 3.57589C5.72385 3.53963 5.80608 3.52212 5.80608 3.52212C5.78094 3.49451 5.77964 3.44411 5.77964 3.44411C5.83531 3.43942 5.88873 3.49418 5.88873 3.49418C5.88873 3.49418 5.8298 3.47152 5.82288 3.36095C5.82288 3.36095 5.85341 3.35467 5.87447 3.37422C5.87447 3.37422 5.86039 3.25599 5.90316 3.23564L5.90778 3.23505C5.95392 3.24205 5.968 3.36035 5.968 3.36035C5.9838 3.33538 6.01468 3.33248 6.01468 3.33248C6.03391 3.44127 5.98232 3.48024 5.98232 3.48024C5.98232 3.48024 6.02101 3.41181 6.07585 3.40018C6.07585 3.40018 6.08638 3.44913 6.06857 3.48315C6.06857 3.48315 6.15205 3.47595 6.16998 3.50818C6.16998 3.50818 6.17424 3.54418 6.08674 3.58335C6.08674 3.58335 6.11224 3.62662 6.10691 3.66057C6.10691 3.66057 6.02557 3.6465 6.01143 3.60674L5.97457 3.61222L5.92706 3.61929Z" fill="#BCAC0B" stroke="black" stroke-width="0.0290364"/>
<path id="path719" d="M5.95079 3.63956C5.99178 3.63348 6.0206 3.59147 6.01509 3.54569C6.00965 3.49998 5.97202 3.46781 5.93109 3.47396C5.89009 3.48003 5.86134 3.52205 5.86678 3.56776C5.87222 3.61347 5.90985 3.64563 5.95079 3.63956Z" fill="white"/>
<path id="path720" d="M5.95079 3.63956C5.99178 3.63348 6.0206 3.59147 6.01509 3.54569C6.00965 3.49998 5.97202 3.46781 5.93109 3.47396C5.89009 3.48003 5.86134 3.52205 5.86678 3.56776C5.87222 3.61347 5.90985 3.64563 5.95079 3.63956Z" stroke="black" stroke-width="0.0179342"/>
<path id="path721" d="M5.94635 3.60199C5.96871 3.59869 5.98445 3.57576 5.98143 3.55073C5.97847 3.52576 5.95794 3.50826 5.93558 3.51149C5.91316 3.51486 5.89742 3.53778 5.90044 3.56275C5.9034 3.58779 5.92399 3.60529 5.94635 3.60199Z" fill="white"/>
<path id="path722" d="M5.94635 3.60199C5.96871 3.59869 5.98445 3.57576 5.98143 3.55073C5.97847 3.52576 5.95794 3.50826 5.93558 3.51149C5.91316 3.51486 5.89742 3.53778 5.90044 3.56275C5.9034 3.58779 5.92399 3.60529 5.94635 3.60199Z" stroke="black" stroke-width="0.0112089"/>
<path id="path723" d="M7.59929 3.79682C7.59929 3.79682 7.58054 3.74186 7.53912 3.76161C7.49771 3.78136 7.50197 3.78856 7.46494 3.78605C7.46494 3.78605 7.4505 3.73664 7.46872 3.71531C7.46872 3.71531 7.40956 3.6906 7.39714 3.63261C7.39714 3.63261 7.42885 3.59152 7.50398 3.60684C7.50398 3.60684 7.50162 3.56516 7.51191 3.5468C7.51191 3.5468 7.5926 3.57468 7.59302 3.62494C7.59302 3.62494 7.56882 3.52632 7.61142 3.45472C7.61142 3.45472 7.64922 3.47282 7.6468 3.51774C7.6468 3.51774 7.66419 3.42533 7.77606 3.45016C7.77606 3.45016 7.71542 3.51021 7.7124 3.53768C7.70939 3.56516 7.6588 3.612 7.65792 3.62759C7.65715 3.64311 7.651 3.67039 7.63615 3.6867C7.6213 3.70302 7.61982 3.7307 7.621 3.73935C7.62201 3.74814 7.61846 3.78599 7.59929 3.79682Z" fill="#FFCC00"/>
<path id="path724" d="M7.59929 3.79682C7.59929 3.79682 7.58054 3.74186 7.53912 3.76161C7.49771 3.78136 7.50197 3.78856 7.46494 3.78605C7.46494 3.78605 7.4505 3.73664 7.46872 3.71531C7.46872 3.71531 7.40956 3.6906 7.39714 3.63261C7.39714 3.63261 7.42885 3.59152 7.50398 3.60684C7.50398 3.60684 7.50162 3.56516 7.51191 3.5468C7.51191 3.5468 7.5926 3.57468 7.59302 3.62494C7.59302 3.62494 7.56882 3.52632 7.61142 3.45472C7.61142 3.45472 7.64922 3.47282 7.6468 3.51774C7.6468 3.51774 7.66419 3.42533 7.77606 3.45016C7.77606 3.45016 7.71542 3.51021 7.7124 3.53768C7.70939 3.56516 7.6588 3.612 7.65792 3.62759C7.65715 3.64311 7.651 3.67039 7.63615 3.6867C7.6213 3.70302 7.61982 3.7307 7.621 3.73935C7.62201 3.74814 7.61846 3.78599 7.59929 3.79682Z" fill="#BCAC0B" stroke="black" stroke-width="0.0290364"/>
<path id="path725" d="M7.53871 3.68718C7.54664 3.64194 7.58592 3.61234 7.62645 3.62119C7.63798 3.62364 7.64828 3.62905 7.65703 3.63645C7.65478 3.65211 7.64851 3.67318 7.63621 3.68672C7.62136 3.70304 7.61988 3.73071 7.621 3.73937C7.62183 3.74624 7.61964 3.77094 7.60947 3.7866C7.60562 3.7864 7.60172 3.786 7.59787 3.78514C7.55741 3.77636 7.5309 3.7325 7.53871 3.68718Z" fill="white"/>
<path id="path726" d="M7.53871 3.68718C7.54664 3.64194 7.58592 3.61234 7.62645 3.62119C7.63798 3.62364 7.64828 3.62905 7.65703 3.63645C7.65478 3.65211 7.64851 3.67318 7.63621 3.68672C7.62136 3.70304 7.61988 3.73071 7.621 3.73937C7.62183 3.74624 7.61964 3.77094 7.60947 3.7866C7.60562 3.7864 7.60172 3.786 7.59787 3.78514C7.55741 3.77636 7.5309 3.7325 7.53871 3.68718Z" stroke="black" stroke-width="0.0179342"/>
<path id="path727" d="M7.57208 3.69445C7.57634 3.66974 7.59781 3.65356 7.62 3.65838C7.63005 3.66056 7.63839 3.66684 7.64431 3.67529C7.64194 3.67939 7.63928 3.68335 7.63621 3.68672C7.62136 3.70303 7.61988 3.73071 7.621 3.73937C7.62118 3.74115 7.62118 3.74419 7.62088 3.74775C7.61562 3.74901 7.61 3.74921 7.60438 3.74795C7.58219 3.74313 7.56776 3.71922 7.57208 3.69445Z" fill="white"/>
<path id="path728" d="M7.57208 3.69445C7.57634 3.66974 7.59781 3.65356 7.62 3.65838C7.63005 3.66056 7.63839 3.66684 7.64431 3.67529C7.64194 3.67939 7.63928 3.68335 7.63621 3.68672C7.62136 3.70303 7.61988 3.73071 7.621 3.73937C7.62118 3.74115 7.62118 3.74419 7.62088 3.74775C7.61562 3.74901 7.61 3.74921 7.60438 3.74795C7.58219 3.74313 7.56776 3.71922 7.57208 3.69445Z" stroke="black" stroke-width="0.0112089"/>
<path id="path729" d="M5.43166 3.77384C5.43166 3.77384 5.45331 3.72027 5.49354 3.74273C5.53382 3.76519 5.52915 3.77213 5.56636 3.77213C5.56636 3.77213 5.58334 3.72371 5.56636 3.70125C5.56636 3.70125 5.62671 3.68051 5.64221 3.62344C5.64221 3.62344 5.6128 3.58024 5.5369 3.59061C5.5369 3.59061 5.54158 3.54906 5.53229 3.5301C5.53229 3.5301 5.45023 3.55256 5.4471 3.60269C5.4471 3.60269 5.47656 3.50586 5.43781 3.43155C5.43781 3.43155 5.39912 3.44707 5.39912 3.49205C5.39912 3.49205 5.38675 3.39865 5.2737 3.41596C5.2737 3.41596 5.33096 3.47996 5.33256 3.50758C5.3341 3.53525 5.38208 3.58539 5.38208 3.60098C5.38208 3.6165 5.38675 3.64418 5.40066 3.66148C5.41462 3.67879 5.41462 3.7064 5.41302 3.71505C5.41148 3.72364 5.41302 3.76169 5.43166 3.77384Z" fill="#FFCC00"/>
<path id="path730" d="M5.43166 3.77384C5.43166 3.77384 5.45331 3.72027 5.49354 3.74273C5.53382 3.76519 5.52915 3.77213 5.56636 3.77213C5.56636 3.77213 5.58334 3.72371 5.56636 3.70125C5.56636 3.70125 5.62671 3.68051 5.64221 3.62344C5.64221 3.62344 5.6128 3.58024 5.5369 3.59061C5.5369 3.59061 5.54158 3.54906 5.53229 3.5301C5.53229 3.5301 5.45023 3.55256 5.4471 3.60269C5.4471 3.60269 5.47656 3.50586 5.43781 3.43155C5.43781 3.43155 5.39912 3.44707 5.39912 3.49205C5.39912 3.49205 5.38675 3.39865 5.2737 3.41596C5.2737 3.41596 5.33096 3.47996 5.33256 3.50758C5.3341 3.53525 5.38208 3.58539 5.38208 3.60098C5.38208 3.6165 5.38675 3.64418 5.40066 3.66148C5.41462 3.67879 5.41462 3.7064 5.41302 3.71505C5.41148 3.72364 5.41302 3.76169 5.43166 3.77384Z" fill="#BCAC0B" stroke="black" stroke-width="0.0290364"/>
<path id="path731" d="M5.49791 3.66849C5.49247 3.62271 5.4549 3.59061 5.41391 3.59669C5.40231 3.5984 5.39172 3.60309 5.38255 3.6099C5.38397 3.62568 5.38906 3.64709 5.40065 3.66149C5.41462 3.67879 5.41462 3.7064 5.41302 3.71506C5.41184 3.72179 5.41266 3.74663 5.42207 3.76288C5.42586 3.76295 5.42976 3.76288 5.43367 3.76229C5.4746 3.75621 5.50342 3.7142 5.49791 3.66849Z" fill="white"/>
<path id="path732" d="M5.49791 3.66849C5.49247 3.62271 5.4549 3.59061 5.41391 3.59669C5.40231 3.5984 5.39172 3.60309 5.38255 3.6099C5.38397 3.62568 5.38906 3.64709 5.40065 3.66149C5.41462 3.67879 5.41462 3.7064 5.41302 3.71506C5.41184 3.72179 5.41266 3.74663 5.42207 3.76288C5.42586 3.76295 5.42976 3.76288 5.43367 3.76229C5.4746 3.75621 5.50342 3.7142 5.49791 3.66849Z" stroke="black" stroke-width="0.0179342"/>
<path id="path733" d="M5.46431 3.67342C5.46135 3.64846 5.44077 3.63088 5.4184 3.63419C5.40817 3.63577 5.39953 3.64145 5.3932 3.64945C5.39539 3.65374 5.39776 3.65784 5.40066 3.66147C5.41462 3.67878 5.41462 3.70639 5.41302 3.71504C5.41272 3.71676 5.41261 3.71973 5.41267 3.72336C5.41787 3.72501 5.42349 3.72554 5.42917 3.72475C5.45153 3.72138 5.46727 3.69846 5.46431 3.67342Z" fill="white"/>
<path id="path734" d="M5.46431 3.67342C5.46135 3.64846 5.44077 3.63088 5.4184 3.63419C5.40817 3.63577 5.39953 3.64145 5.3932 3.64945C5.39539 3.65374 5.39776 3.65784 5.40066 3.66147C5.41462 3.67878 5.41462 3.70639 5.41302 3.71504C5.41272 3.71676 5.41261 3.71973 5.41267 3.72336C5.41787 3.72501 5.42349 3.72554 5.42917 3.72475C5.45153 3.72138 5.46727 3.69846 5.46431 3.67342Z" stroke="black" stroke-width="0.0112089"/>
<path id="path735" d="M5.55702 4.27862C5.55702 4.27862 6.38822 3.91506 7.43832 4.28642" stroke="black" stroke-width="0.0670399"/>
<path id="path736" d="M7.55551 3.98914C6.3952 3.57881 5.47035 3.96609 5.47035 3.96609" stroke="black" stroke-width="0.022311"/>
<path id="path737" d="M6.51086 3.89838L6.41792 3.95023L6.50157 4.00902L6.60066 3.95366L6.51086 3.89838Z" fill="#FF0000"/>
<path id="path738" d="M6.51086 3.89838L6.41792 3.95023L6.50157 4.00902L6.60066 3.95366L6.51086 3.89838Z" stroke="black" stroke-width="0.022311"/>
</g>
</g>
<rect x="0.05" y="0.05" width="13.9" height="10.9" rx="1.72778" stroke="black" stroke-width="0.1"/>
</g>
<defs>
<clipPath id="clip0_2600_18648">
<rect width="14" height="11" rx="1.77778" fill="white"/>
</clipPath>
</defs>
</svg>
