<svg width="14" height="11" viewBox="0 0 14 11" fill="none" xmlns="http://www.w3.org/2000/svg">
<g id="Flag-Val_d&#39;_Aran 1">
<g clip-path="url(#clip0_2600_19059)">
<g id="layer1">
<path id="rect3461" d="M14 0H0V11H14V0Z" fill="#800000"/>
<g id="g2546">
<g id="layer2">
<g id="g2527">
<path id="path5237" fill-rule="evenodd" clip-rule="evenodd" d="M6.97708 4.29793C6.9632 4.27527 6.96273 4.2618 6.94632 4.25543L6.94553 4.35225C6.94558 4.35842 6.93141 4.33224 6.92108 4.31783L6.93054 4.50555C6.8801 4.46685 6.90342 4.46493 6.85245 4.43831C6.93377 4.61184 6.81553 4.46252 6.79724 4.5233L6.9684 4.57171L6.97708 4.29793Z" fill="#EAC102" stroke="black" stroke-width="0.00262781"/>
<path id="path5235" fill-rule="evenodd" clip-rule="evenodd" d="M7.02722 4.29793C7.0411 4.27527 7.04157 4.2618 7.05798 4.25543L7.05877 4.35225C7.05872 4.35842 7.07289 4.33224 7.08322 4.31783L7.07376 4.50555C7.1242 4.46685 7.10088 4.46493 7.15185 4.43831C7.07053 4.61184 7.18877 4.46252 7.20706 4.5233L7.0359 4.57171L7.02722 4.29793Z" fill="#EAC102" stroke="black" stroke-width="0.00262781"/>
<path id="path4583" fill-rule="evenodd" clip-rule="evenodd" d="M6.4266 4.75604C6.46501 4.84698 6.49987 4.8801 6.51956 4.88821C6.53924 4.89632 6.54361 4.88354 6.54303 4.88566L6.58364 4.89981C6.5749 4.93199 6.54095 4.95057 6.50458 4.93559C6.46821 4.9206 6.42929 4.87611 6.38835 4.77918L6.4266 4.75604Z" fill="#EAC102" stroke="black" stroke-width="0.00262781"/>
<path id="path4581" fill-rule="evenodd" clip-rule="evenodd" d="M7.75728 4.48344C7.73629 4.47803 7.71365 4.47658 7.69411 4.51344L7.68366 4.47095C7.6515 4.47324 7.64852 4.52079 7.61856 4.54474L7.569 4.55031C7.57644 4.60724 7.5734 4.62802 7.57058 4.65079L7.48004 4.68289C7.5152 4.70865 7.5463 4.73666 7.55795 4.77709L7.75728 4.48344Z" fill="#EAC102" stroke="black" stroke-width="0.00262781"/>
<path id="path4461" fill-rule="evenodd" clip-rule="evenodd" d="M7.57478 4.75604C7.53638 4.84698 7.50151 4.8801 7.48182 4.88821C7.46214 4.89632 7.45777 4.88354 7.45835 4.88566L7.41774 4.89981C7.42649 4.93199 7.46043 4.95057 7.4968 4.93559C7.53317 4.9206 7.5721 4.87611 7.61303 4.77918L7.57478 4.75604Z" fill="#EAC102" stroke="black" stroke-width="0.00262781"/>
<path id="path3640" fill-rule="evenodd" clip-rule="evenodd" d="M6.97919 4.60565C6.97567 4.70618 6.91597 4.78118 6.83703 4.80217C6.75808 4.82316 6.6608 4.78967 6.58417 4.66277L6.54716 4.68452C6.55646 4.73378 6.55814 4.7741 6.5546 4.80176C6.55106 4.82942 6.54324 4.84185 6.53599 4.84616C6.52875 4.85048 6.51611 4.85056 6.49513 4.83476C6.47416 4.81896 6.44731 4.78779 6.41759 4.73911L6.38437 4.77072C6.41617 4.82282 6.44572 4.8584 6.4736 4.87941C6.50147 4.90041 6.53007 4.90746 6.55394 4.89326C6.57782 4.87906 6.59105 4.8475 6.59585 4.80999C6.59784 4.79447 6.59818 4.77713 6.59761 4.75874C6.67515 4.84772 6.76726 4.87403 6.84571 4.85317C6.9146 4.83485 6.97338 4.77999 7.00216 4.70342C7.03095 4.77999 7.08973 4.83485 7.15862 4.85317C7.23707 4.87403 7.32918 4.84772 7.40672 4.75874C7.40615 4.77713 7.40649 4.79447 7.40848 4.80999C7.41328 4.8475 7.42651 4.87906 7.45038 4.89326C7.47426 4.90746 7.50286 4.90041 7.53073 4.87941C7.55861 4.8584 7.58816 4.82282 7.61996 4.77072L7.58674 4.73911C7.55702 4.78779 7.53016 4.81896 7.50919 4.83476C7.48822 4.85056 7.47558 4.85048 7.46833 4.84616C7.46108 4.84185 7.45327 4.82942 7.44973 4.80176C7.44619 4.7741 7.44787 4.73378 7.45717 4.68452L7.42016 4.66277C7.34352 4.78967 7.24624 4.82316 7.1673 4.80217C7.08836 4.78118 7.02866 4.70618 7.02514 4.60565L7.00216 4.60687L6.97919 4.60565Z" fill="#EAC102" stroke="black" stroke-width="0.00262781"/>
<g id="g4543">
<g id="path2929">
<path fill-rule="evenodd" clip-rule="evenodd" d="M7.00159 4.64223C7.01471 4.65738 7.03461 4.7192 7.04662 4.69712C7.0507 4.69113 7.05151 4.66441 7.06212 4.65273C7.07273 4.64105 7.0695 4.64074 7.08908 4.62876C7.10867 4.61678 7.16985 4.62396 7.16985 4.62396L7.16498 4.61202C7.16498 4.61202 7.17472 4.61202 7.18125 4.60723C7.18778 4.60244 7.19188 4.5904 7.19188 4.5904C7.19188 4.5904 7.1911 4.58802 7.18702 4.57724C7.18294 4.56646 7.16985 4.5605 7.16985 4.5605C7.16985 4.5605 7.18129 4.55808 7.19272 4.55449C7.20414 4.55089 7.20905 4.5245 7.20905 4.5245C7.20905 4.5245 7.20821 4.51972 7.20495 4.51613C7.20169 4.51254 7.18535 4.51378 7.18535 4.51378C7.18535 4.51378 7.18862 4.51018 7.19515 4.4994C7.20168 4.48862 7.20738 4.47664 7.20738 4.47664C7.20738 4.47664 7.20741 4.4766 7.20252 4.4742C7.19762 4.4718 7.19515 4.47307 7.19515 4.47307C7.19515 4.47307 7.20005 4.46581 7.20168 4.45982C7.20332 4.45383 7.19925 4.43227 7.19925 4.43227L7.18862 4.44308L7.18535 4.43227C7.18535 4.43227 7.1788 4.43472 7.17145 4.43951C7.16411 4.4443 7.15595 4.45624 7.15595 4.45624L7.15269 4.43829C7.15269 4.43829 7.1217 4.46706 7.11272 4.47664C7.10374 4.48623 7.08498 4.51495 7.08172 4.50776C7.07845 4.50058 7.08826 4.479 7.09805 4.45624C7.10784 4.43348 7.12662 4.41196 7.12662 4.41196C7.12662 4.41196 7.12663 4.40719 7.12418 4.4036C7.12173 4.4 7.11355 4.39513 7.11355 4.39513C7.11355 4.39513 7.11928 4.38801 7.12092 4.37962C7.12255 4.37124 7.12008 4.35565 7.12008 4.35565L7.11515 4.358C7.11515 4.358 7.11352 4.34608 7.11189 4.33769C7.11025 4.32931 7.10535 4.32331 7.10535 4.32331C7.10535 4.32331 7.10292 4.32331 7.09965 4.32331C7.09639 4.32331 7.09235 4.33045 7.09235 4.33045L7.08415 4.31607L7.06705 4.35687C7.06705 4.35687 7.07032 4.33293 7.07032 4.30657C7.07032 4.28022 7.05969 4.25505 7.05969 4.25505C7.05969 4.25505 7.0548 4.25986 7.04745 4.26944C7.04011 4.27902 7.03599 4.29811 7.03599 4.29811C7.03599 4.29811 7.03113 4.27422 7.02542 4.25505C7.02179 4.24685 7.00804 4.21183 7.00217 4.21471C6.99538 4.21452 6.98314 4.24461 6.97892 4.25505C6.97321 4.27422 6.96829 4.29811 6.96829 4.29811C6.96829 4.29811 6.96423 4.27902 6.95689 4.26944C6.94954 4.25986 6.94459 4.25505 6.94459 4.25505C6.94459 4.25505 6.93402 4.28022 6.93402 4.30657C6.93402 4.33293 6.93729 4.35687 6.93729 4.35687L6.92012 4.31607L6.91199 4.33045C6.91199 4.33045 6.90789 4.32331 6.90462 4.32331C6.90136 4.32331 6.89892 4.32331 6.89892 4.32331C6.89892 4.32331 6.89402 4.32931 6.89239 4.33769C6.89076 4.34608 6.88912 4.358 6.88912 4.358L6.88425 4.35565C6.88425 4.35565 6.88179 4.37124 6.88342 4.37962C6.88505 4.38801 6.89079 4.39513 6.89079 4.39513C6.89079 4.39513 6.8826 4.4 6.88015 4.4036C6.87771 4.40719 6.87772 4.41196 6.87772 4.41196C6.87772 4.41196 6.89649 4.43348 6.90629 4.45624C6.91608 4.479 6.92582 4.50058 6.92255 4.50776C6.91929 4.51495 6.90053 4.48623 6.89155 4.47664C6.88258 4.46706 6.85159 4.43829 6.85159 4.43829L6.84832 4.45624C6.84832 4.45624 6.84017 4.4443 6.83282 4.43951C6.82548 4.43472 6.81892 4.43227 6.81892 4.43227L6.81566 4.44308L6.80509 4.43227C6.80509 4.43227 6.80096 4.45383 6.80259 4.45982C6.80422 4.46581 6.80912 4.47307 6.80912 4.47307C6.80912 4.47307 6.80672 4.4718 6.80182 4.4742C6.79692 4.4766 6.79689 4.47664 6.79689 4.47664C6.79689 4.47664 6.80259 4.48862 6.80912 4.4994C6.81565 4.51018 6.81892 4.51378 6.81892 4.51378C6.81892 4.51378 6.80259 4.51254 6.79932 4.51613C6.79606 4.51972 6.79529 4.5245 6.79529 4.5245C6.79529 4.5245 6.8002 4.55089 6.81162 4.55449C6.82305 4.55808 6.83442 4.5605 6.83442 4.5605C6.83442 4.5605 6.8214 4.56646 6.81732 4.57724C6.81324 4.58802 6.81239 4.5904 6.81239 4.5904C6.81239 4.5904 6.81649 4.60244 6.82302 4.60723C6.82955 4.61202 6.83935 4.61202 6.83935 4.61202L6.83442 4.62396C6.83442 4.62396 6.89567 4.61678 6.91525 4.62876C6.93484 4.64074 6.93155 4.64105 6.94215 4.65273C6.95276 4.66441 6.95497 4.69033 6.95765 4.69712C6.96796 4.72316 6.98874 4.65738 7.00168 4.64223" fill="#EAC102"/>
<path d="M7.00159 4.64223C7.01471 4.65738 7.03461 4.7192 7.04662 4.69712C7.0507 4.69113 7.05151 4.66441 7.06212 4.65273C7.07273 4.64105 7.0695 4.64074 7.08908 4.62876C7.10867 4.61678 7.16985 4.62396 7.16985 4.62396L7.16498 4.61202C7.16498 4.61202 7.17472 4.61202 7.18125 4.60723C7.18778 4.60244 7.19188 4.5904 7.19188 4.5904C7.19188 4.5904 7.1911 4.58802 7.18702 4.57724C7.18294 4.56646 7.16985 4.5605 7.16985 4.5605C7.16985 4.5605 7.18129 4.55808 7.19272 4.55449C7.20414 4.55089 7.20905 4.5245 7.20905 4.5245C7.20905 4.5245 7.20821 4.51972 7.20495 4.51613C7.20169 4.51254 7.18535 4.51378 7.18535 4.51378C7.18535 4.51378 7.18862 4.51018 7.19515 4.4994C7.20168 4.48861 7.20738 4.47664 7.20738 4.47664C7.20738 4.47664 7.20741 4.4766 7.20252 4.4742C7.19762 4.4718 7.19515 4.47307 7.19515 4.47307C7.19515 4.47307 7.20005 4.46581 7.20168 4.45982C7.20332 4.45383 7.19925 4.43227 7.19925 4.43227L7.18862 4.44308L7.18535 4.43227C7.18535 4.43227 7.1788 4.43472 7.17145 4.43951C7.16411 4.4443 7.15595 4.45624 7.15595 4.45624L7.15269 4.43829C7.15269 4.43829 7.1217 4.46706 7.11272 4.47664C7.10374 4.48623 7.08498 4.51495 7.08172 4.50776C7.07845 4.50058 7.08826 4.479 7.09805 4.45624C7.10784 4.43348 7.12662 4.41196 7.12662 4.41196C7.12662 4.41196 7.12663 4.40719 7.12418 4.4036C7.12173 4.4 7.11355 4.39513 7.11355 4.39513C7.11355 4.39513 7.11928 4.38801 7.12092 4.37962C7.12255 4.37124 7.12008 4.35565 7.12008 4.35565L7.11515 4.358C7.11515 4.358 7.11352 4.34608 7.11189 4.33769C7.11025 4.32931 7.10535 4.32331 7.10535 4.32331C7.10535 4.32331 7.10292 4.32331 7.09965 4.32331C7.09639 4.32331 7.09235 4.33045 7.09235 4.33045L7.08415 4.31607L7.06705 4.35687C7.06705 4.35687 7.07032 4.33293 7.07032 4.30657C7.07032 4.28022 7.05969 4.25505 7.05969 4.25505C7.05969 4.25505 7.0548 4.25986 7.04745 4.26944C7.04011 4.27902 7.03599 4.29811 7.03599 4.29811C7.03599 4.29811 7.03113 4.27422 7.02542 4.25505C7.02179 4.24685 7.00804 4.21183 7.00217 4.21471C6.99538 4.21452 6.98314 4.24461 6.97892 4.25505C6.97321 4.27422 6.96829 4.29811 6.96829 4.29811C6.96829 4.29811 6.96423 4.27902 6.95689 4.26944C6.94954 4.25986 6.94459 4.25505 6.94459 4.25505C6.94459 4.25505 6.93402 4.28022 6.93402 4.30657C6.93402 4.33293 6.93729 4.35687 6.93729 4.35687L6.92012 4.31607L6.91199 4.33045C6.91199 4.33045 6.90789 4.32331 6.90462 4.32331C6.90136 4.32331 6.89892 4.32331 6.89892 4.32331C6.89892 4.32331 6.89402 4.32931 6.89239 4.33769C6.89076 4.34608 6.88912 4.358 6.88912 4.358L6.88425 4.35565C6.88425 4.35565 6.88179 4.37124 6.88342 4.37962C6.88505 4.38801 6.89079 4.39513 6.89079 4.39513C6.89079 4.39513 6.8826 4.4 6.88015 4.4036C6.87771 4.40719 6.87772 4.41196 6.87772 4.41196C6.87772 4.41196 6.89649 4.43348 6.90629 4.45624C6.91608 4.479 6.92582 4.50058 6.92255 4.50776C6.91929 4.51495 6.90053 4.48623 6.89155 4.47664C6.88258 4.46706 6.85159 4.43829 6.85159 4.43829L6.84832 4.45624C6.84832 4.45624 6.84017 4.4443 6.83282 4.43951C6.82548 4.43472 6.81892 4.43227 6.81892 4.43227L6.81566 4.44308L6.80509 4.43227C6.80509 4.43227 6.80096 4.45383 6.80259 4.45982C6.80422 4.46581 6.80912 4.47307 6.80912 4.47307C6.80912 4.47307 6.80672 4.4718 6.80182 4.4742C6.79692 4.4766 6.79689 4.47664 6.79689 4.47664C6.79689 4.47664 6.80259 4.48861 6.80912 4.4994C6.81565 4.51018 6.81892 4.51378 6.81892 4.51378C6.81892 4.51378 6.80259 4.51254 6.79932 4.51613C6.79606 4.51972 6.79529 4.5245 6.79529 4.5245C6.79529 4.5245 6.8002 4.55089 6.81162 4.55449C6.82305 4.55808 6.83442 4.5605 6.83442 4.5605C6.83442 4.5605 6.8214 4.56646 6.81732 4.57724C6.81324 4.58802 6.81239 4.5904 6.81239 4.5904C6.81239 4.5904 6.81649 4.60244 6.82302 4.60723C6.82955 4.61202 6.83935 4.61202 6.83935 4.61202L6.83442 4.62396C6.83442 4.62396 6.89567 4.61678 6.91525 4.62876C6.93484 4.64074 6.93155 4.64105 6.94215 4.65273C6.95276 4.66441 6.95497 4.69033 6.95765 4.69712C6.96796 4.72316 6.98874 4.65738 7.00168 4.64223" stroke="black" stroke-width="0.00262781"/>
</g>
<g id="g4534">
<path id="path2979" d="M7.0022 4.24921C7.0022 4.3704 7.0022 4.4916 7.0022 4.6128" stroke="black" stroke-width="0.00131391" stroke-linecap="round" stroke-linejoin="round"/>
<path id="path2981" d="M6.91101 4.3739C6.92371 4.41342 6.93679 4.45429 6.95968 4.48456C6.9768 4.51122 6.99501 4.53952 6.99986 4.57594L7.0005 4.57895L7.00116 4.58211" stroke="black" stroke-width="0.00131391" stroke-linecap="round" stroke-linejoin="round"/>
<path id="path2983" d="M7.09337 4.3739C7.08067 4.41342 7.06759 4.45429 7.04469 4.48456C7.02757 4.51122 7.00937 4.53952 7.00451 4.57594L7.00388 4.57895L7.00322 4.58211" stroke="black" stroke-width="0.00131391" stroke-linecap="round" stroke-linejoin="round"/>
<path id="path3957" d="M6.95609 4.32629C6.96292 4.35024 6.97248 4.3725 6.98574 4.39056C6.99326 4.40228 6.99904 4.41561 7.00116 4.43124" stroke="black" stroke-width="0.00131391" stroke-linecap="round" stroke-linejoin="round"/>
<path id="path3959" d="M7.04829 4.32629C7.04146 4.35024 7.0319 4.3725 7.01864 4.39056C7.01112 4.40228 7.00534 4.41561 7.00322 4.43124" stroke="black" stroke-width="0.00131391" stroke-linecap="round" stroke-linejoin="round"/>
<path id="path3971" d="M6.8495 4.50848C6.87454 4.53211 6.9005 4.5566 6.93075 4.56439C6.95485 4.57362 6.9806 4.5835 6.99784 4.61056L6.99947 4.61263L7.00117 4.61479" stroke="black" stroke-width="0.00131391" stroke-linecap="round" stroke-linejoin="round"/>
<path id="path3973" d="M7.15489 4.50848C7.12985 4.53211 7.10389 4.5566 7.07364 4.56439C7.04954 4.57362 7.02379 4.5835 7.00655 4.61056L7.00492 4.61263L7.00322 4.61479" stroke="black" stroke-width="0.00131391" stroke-linecap="round" stroke-linejoin="round"/>
</g>
</g>
<path id="path9052" fill-rule="evenodd" clip-rule="evenodd" d="M7.00171 4.84625C6.85121 4.84813 6.69899 4.8483 6.55118 4.88587C6.5182 4.89828 6.47105 4.90521 6.45866 4.94915C6.4546 4.98586 6.4919 5.00141 6.51519 5.0115C6.62616 5.0512 6.74342 5.05456 6.85839 5.06076C7.03728 5.06504 7.21731 5.06678 7.39486 5.03713C7.44337 5.02597 7.49678 5.01907 7.53667 4.98145C7.56049 4.95365 7.53412 4.91477 7.50779 4.90678C7.41747 4.86548 7.31896 4.86104 7.22343 4.85263C7.1496 4.84783 7.07564 4.84631 7.00171 4.84625Z" fill="#EAC102" stroke="black" stroke-width="0.00262781"/>
<path id="path9054" fill-rule="evenodd" clip-rule="evenodd" d="M7.00216 4.89136C6.92013 4.89136 6.85095 4.89326 6.79265 4.89657C6.78099 4.89723 6.76973 4.89797 6.75892 4.89874C6.62927 4.90792 6.55975 4.92415 6.52249 4.93897C6.51939 4.94021 6.51644 4.9414 6.51377 4.94261C6.50045 4.94866 6.49226 4.95444 6.48727 4.95914C6.48629 4.96006 6.48545 4.96095 6.4847 4.9618C6.48392 4.96267 6.48327 4.96348 6.4827 4.96426C6.47937 4.96885 6.47946 4.97163 6.47946 4.97163L6.50779 5.09352H6.60042H7.4039H7.49652L7.52485 4.97163C7.52485 4.97163 7.52494 4.96885 7.52161 4.96426C7.52105 4.96348 7.5204 4.96267 7.51962 4.9618C7.51506 4.95666 7.50653 4.94987 7.49054 4.94261C7.49052 4.9426 7.49048 4.94262 7.49046 4.94261C7.45571 4.92687 7.38585 4.90868 7.24539 4.89874C7.24537 4.89873 7.24534 4.89874 7.24531 4.89874C7.2345 4.89797 7.22333 4.89723 7.21167 4.89657C7.15336 4.89326 7.08419 4.89136 7.00216 4.89136Z" fill="#EAC102" stroke="black" stroke-width="0.00262781"/>
<g id="g9200">
<path id="path9202" fill-rule="evenodd" clip-rule="evenodd" d="M6.54619 5.0989C6.54619 5.0989 6.64471 5.03961 7.00216 5.03961C7.35842 5.03961 7.45813 5.0989 7.45813 5.0989C7.45813 5.0989 7.3748 5.15819 7.00216 5.15819C6.62834 5.15819 6.54619 5.0989 6.54619 5.0989Z" fill="#EAC102" stroke="black" stroke-width="0.00262781"/>
<g id="g9204">
<path id="path9206" d="M6.88609 5.16763V5.03046" stroke="black" stroke-width="0.00136668"/>
<path id="path9208" d="M6.86514 5.16763V5.03046" stroke="black" stroke-width="0.00201206"/>
<path id="path9210" d="M6.84537 5.16763V5.03046" stroke="black" stroke-width="0.0026954"/>
<path id="path9212" d="M6.82574 5.16763V5.03046" stroke="black" stroke-width="0.00337875"/>
<path id="path9214" d="M6.80827 5.16763V5.03046" stroke="black" stroke-width="0.00406208"/>
<path id="path9216" d="M6.77495 5.16021L6.77449 5.03535M6.79075 5.16185V5.03125" stroke="black" stroke-width="0.00474542"/>
<path id="path9218" d="M6.7442 5.15447V5.03944M6.75979 5.15776L6.75933 5.03534" stroke="black" stroke-width="0.00539081"/>
<path id="path9220" d="M6.70293 5.14809V5.04702M6.71647 5.14973V5.04373M6.73042 5.15301V5.04291" stroke="black" stroke-width="0.00607415"/>
<path id="path9222" d="M6.68846 5.14727V5.0495" stroke="black" stroke-width="0.00675749"/>
<path id="path9224" d="M6.67497 5.14229V5.05109" stroke="black" stroke-width="0.00744083"/>
<path id="path9226" d="M6.66051 5.13987V5.05524" stroke="black" stroke-width="0.00812417"/>
<path id="path9228" d="M6.63089 5.13249L6.63043 5.06511M6.64607 5.13577V5.06018" stroke="black" stroke-width="0.00876955"/>
<path id="path9230" d="M6.61571 5.12674V5.06757" stroke="black" stroke-width="0.00926308"/>
<path id="path9232" d="M6.60181 5.1219V5.07263" stroke="black" stroke-width="0.00994641"/>
<path id="path9234" d="M6.58664 5.11531V5.07672" stroke="black" stroke-width="0.0105918"/>
<path id="path9236" d="M6.57104 5.11118V5.08331" stroke="black" stroke-width="0.0112372"/>
<path id="path9238" d="M6.55452 5.10585V5.09155" stroke="black" stroke-width="0.0132492"/>
<path id="path9240" d="M6.96945 5.16024V5.03457M6.93395 5.16435L6.93441 5.03128M6.90808 5.16599V5.03046" stroke="black" stroke-width="0.000683341"/>
<path id="path9242" d="M7.11821 5.16763V5.03046" stroke="black" stroke-width="0.00136668"/>
<path id="path9244" d="M7.13916 5.16763V5.03046" stroke="black" stroke-width="0.00201206"/>
<path id="path9246" d="M7.15894 5.16763V5.03046" stroke="black" stroke-width="0.0026954"/>
<path id="path9248" d="M7.17854 5.16763V5.03046" stroke="black" stroke-width="0.00337875"/>
<path id="path9250" d="M7.19601 5.16763V5.03046" stroke="black" stroke-width="0.00406208"/>
<path id="path9252" d="M7.22933 5.16021L7.22979 5.03535M7.21353 5.16185V5.03125" stroke="black" stroke-width="0.00474542"/>
<path id="path9254" d="M7.26009 5.15447V5.03944M7.24451 5.15776L7.24497 5.03534" stroke="black" stroke-width="0.00539081"/>
<path id="path9256" d="M7.30137 5.14809V5.04702M7.28783 5.14973V5.04373M7.27388 5.15301V5.04291" stroke="black" stroke-width="0.00607415"/>
<path id="path9258" d="M7.31583 5.14727V5.0495" stroke="black" stroke-width="0.00675749"/>
<path id="path9260" d="M7.32933 5.14229V5.05109" stroke="black" stroke-width="0.00744083"/>
<path id="path9262" d="M7.3438 5.13987V5.05524" stroke="black" stroke-width="0.00812417"/>
<path id="path9264" d="M7.37341 5.13249L7.37387 5.06511M7.35823 5.13577V5.06018" stroke="black" stroke-width="0.00876955"/>
<path id="path9266" d="M7.38858 5.12674V5.06757" stroke="black" stroke-width="0.00926308"/>
<path id="path9268" d="M7.40248 5.1219V5.07263" stroke="black" stroke-width="0.00994641"/>
<path id="path9270" d="M7.41766 5.11531V5.07672" stroke="black" stroke-width="0.0105918"/>
<path id="path9272" d="M7.43326 5.11118V5.08331" stroke="black" stroke-width="0.0112372"/>
<path id="path9274" d="M7.44977 5.10585V5.09155" stroke="black" stroke-width="0.0132492"/>
<path id="path9276" d="M7.03484 5.16024V5.03457M7.07033 5.16435L7.06987 5.03128M7.0962 5.16599V5.03046" stroke="black" stroke-width="0.000683341"/>
</g>
<path id="path9278" fill-rule="evenodd" clip-rule="evenodd" d="M7.00175 4.9989C6.86306 5.00063 6.72278 5.00081 6.58656 5.03544C6.55617 5.04687 6.51268 5.05324 6.50127 5.09374C6.49753 5.12757 6.53187 5.14192 6.55334 5.15122C6.65561 5.18781 6.76372 5.19092 6.86969 5.19664C7.03454 5.20059 7.2004 5.20211 7.36404 5.17479C7.40875 5.1645 7.45797 5.15815 7.49473 5.12348C7.51668 5.09785 7.49243 5.06203 7.46816 5.05466C7.38492 5.0166 7.29414 5.01254 7.2061 5.00479C7.13805 5.00037 7.06989 4.99896 7.00175 4.9989ZM7.00214 5.03961C7.3584 5.03961 7.45813 5.09891 7.45813 5.09891C7.45813 5.09891 7.37477 5.1582 7.00214 5.1582C6.62831 5.1582 6.54622 5.09891 6.54622 5.09891C6.54622 5.09891 6.64469 5.03961 7.00214 5.03961Z" fill="#EAC102" stroke="black" stroke-width="0.00262781"/>
</g>
<g id="g5253">
<path id="path4138" fill-rule="evenodd" clip-rule="evenodd" d="M7.55593 4.78508C7.55451 4.77866 7.55655 4.77108 7.5518 4.75723C7.54706 4.74339 7.54958 4.74477 7.53824 4.72622C7.5269 4.70766 7.47945 4.68225 7.47945 4.68225L7.4863 4.676C7.4863 4.676 7.47903 4.67112 7.47546 4.66435C7.4719 4.65758 7.47208 4.64669 7.47208 4.64669C7.47208 4.64669 7.47333 4.64534 7.47927 4.6395C7.48521 4.63366 7.49655 4.6359 7.49655 4.6359C7.49655 4.6359 7.48867 4.62836 7.48114 4.62002C7.47361 4.61168 7.47709 4.58996 7.47709 4.58996C7.47709 4.58996 7.47903 4.58684 7.48243 4.58584C7.48582 4.58485 7.49762 4.59398 7.49762 4.59398C7.49762 4.59398 7.49616 4.58968 7.49421 4.57854C7.49226 4.56739 7.49124 4.55578 7.49124 4.55578C7.49124 4.55578 7.49122 4.55573 7.49551 4.55643C7.4998 4.55713 7.50133 4.55928 7.50133 4.55928C7.50133 4.55928 7.49962 4.55156 7.50002 4.54637C7.50042 4.54117 7.50925 4.52743 7.50925 4.52743L7.51423 4.54066L7.51958 4.53433C7.51958 4.53433 7.52381 4.53942 7.52799 4.5466C7.53216 4.55377 7.53498 4.56661 7.53498 4.56661L7.54226 4.55508C7.54226 4.55508 7.55755 4.59165 7.56164 4.60314C7.56574 4.61464 7.57198 4.645 7.57635 4.64138C7.58072 4.63776 7.57924 4.61709 7.57809 4.59555C7.57694 4.57401 7.56875 4.54886 7.56875 4.54886C7.56875 4.54886 7.57005 4.54539 7.57284 4.54399C7.57563 4.54259 7.58302 4.54316 7.58302 4.54316C7.58302 4.54316 7.58067 4.53507 7.58172 4.52812C7.58276 4.52117 7.58883 4.51098 7.58883 4.51098L7.59182 4.51521C7.59182 4.51521 7.59623 4.5073 7.5997 4.50198C7.60318 4.49667 7.60847 4.4947 7.60847 4.4947C7.60847 4.4947 7.6103 4.49593 7.61272 4.49756C7.61515 4.49919 7.62113 4.50768 7.62113 4.50768L7.63108 4.50124L7.63279 4.53965C7.65542 4.5145 7.65371 4.487 7.68393 4.46948C7.68393 4.46948 7.69359 4.48033 7.69647 4.49101C7.69935 4.50169 7.69682 4.52145 7.69682 4.52145C7.69682 4.52145 7.70827 4.49209 7.73771 4.48491C7.76531 4.47817 7.77728 4.50043 7.78087 4.50547C7.71718 4.51557 7.69789 4.59128 7.66265 4.678C7.66031 4.68352 7.63285 4.75548 7.62881 4.76146C7.62477 4.76744 7.62 4.77354 7.61484 4.77966C7.60967 4.78578 7.60411 4.79187 7.59839 4.7978C7.5724 4.82028 7.55247 4.82909 7.55593 4.78508Z" fill="#EAC102" stroke="black" stroke-width="0.00262781"/>
<path id="path4140" d="M7.61002 4.54956C7.59902 4.63932 7.64749 4.66973 7.64708 4.72351" stroke="black" stroke-width="0.00131391" stroke-linecap="round" stroke-linejoin="round"/>
<path id="path4142" d="M7.67311 4.50537C7.64788 4.58568 7.67509 4.59342 7.66732 4.65137" stroke="black" stroke-width="0.00131391" stroke-linecap="round" stroke-linejoin="round"/>
<path id="path4144" d="M7.52147 4.6106C7.56086 4.77555 7.60913 4.69419 7.63615 4.73453" stroke="black" stroke-width="0.00131391" stroke-linecap="round" stroke-linejoin="round"/>
<g id="g9000">
<path id="path9002" d="M7.61959 4.76223C7.61994 4.76246 7.6202 4.76282 7.62056 4.76304C7.64079 4.77569 7.66714 4.76334 7.67941 4.73551C7.69169 4.70768 7.68526 4.67485 7.66503 4.66221C7.66467 4.66199 7.66427 4.66193 7.66391 4.66173L7.61959 4.76223Z" fill="#E3E4E5" stroke="black" stroke-width="0.00262791"/>
<path id="path9004" d="M7.665 4.65007L7.67627 4.65703L7.62319 4.77598L7.61192 4.76902C7.62843 4.72063 7.64727 4.67654 7.665 4.65007Z" fill="#EAC102" stroke="black" stroke-width="0.00262791"/>
</g>
</g>
<g id="g9046">
<path id="path9048" fill-rule="evenodd" clip-rule="evenodd" d="M7.0567 4.57987C7.0567 4.61582 7.03229 4.64496 7.00217 4.64496C6.97205 4.64496 6.94763 4.61582 6.94763 4.57987C6.94763 4.54392 6.97205 4.51477 7.00217 4.51477C7.03229 4.51477 7.0567 4.54392 7.0567 4.57987Z" fill="#EAC102" stroke="black" stroke-width="0.00262781" stroke-linecap="round" stroke-linejoin="round"/>
<path id="path9050" fill-rule="evenodd" clip-rule="evenodd" d="M7.04551 4.57987C7.04551 4.60845 7.0261 4.63161 7.00215 4.63161C6.97821 4.63161 6.9588 4.60845 6.9588 4.57987C6.9588 4.5513 6.97821 4.52814 7.00215 4.52814C7.0261 4.52814 7.04551 4.5513 7.04551 4.57987Z" fill="#E3E4E5" stroke="black" stroke-width="0.00262781" stroke-linecap="round" stroke-linejoin="round"/>
</g>
<path id="path2509" fill-rule="evenodd" clip-rule="evenodd" d="M6.24272 4.48344C6.26371 4.47803 6.28635 4.47658 6.30589 4.51344L6.31634 4.47095C6.3485 4.47324 6.35148 4.52079 6.38145 4.54474L6.431 4.55031C6.42356 4.60724 6.4266 4.62802 6.42942 4.65079L6.51996 4.68289C6.4848 4.70865 6.4537 4.73666 6.44205 4.77709L6.24272 4.48344Z" fill="#EAC102" stroke="black" stroke-width="0.00262781"/>
<g id="g2511">
<path id="path2513" fill-rule="evenodd" clip-rule="evenodd" d="M6.44407 4.78508C6.44549 4.77866 6.44345 4.77108 6.4482 4.75723C6.45294 4.74339 6.45042 4.74477 6.46176 4.72622C6.4731 4.70766 6.52055 4.68225 6.52055 4.68225L6.5137 4.676C6.5137 4.676 6.52097 4.67112 6.52454 4.66435C6.5281 4.65758 6.52792 4.64669 6.52792 4.64669C6.52792 4.64669 6.52667 4.64534 6.52073 4.6395C6.51479 4.63366 6.50345 4.6359 6.50345 4.6359C6.50345 4.6359 6.51133 4.62836 6.51886 4.62002C6.52639 4.61168 6.52291 4.58996 6.52291 4.58996C6.52291 4.58996 6.52097 4.58684 6.51757 4.58584C6.51418 4.58485 6.50238 4.59398 6.50238 4.59398C6.50238 4.59398 6.50384 4.58968 6.50579 4.57854C6.50774 4.56739 6.50876 4.55578 6.50876 4.55578C6.50876 4.55578 6.50878 4.55573 6.50449 4.55643C6.5002 4.55713 6.49867 4.55928 6.49867 4.55928C6.49867 4.55928 6.50038 4.55156 6.49998 4.54637C6.49958 4.54117 6.49075 4.52743 6.49075 4.52743L6.48577 4.54066L6.48042 4.53433C6.48042 4.53433 6.47619 4.53942 6.47201 4.5466C6.46784 4.55377 6.46502 4.56661 6.46502 4.56661L6.45774 4.55508C6.45774 4.55508 6.44245 4.59165 6.43836 4.60314C6.43426 4.61464 6.42802 4.645 6.42365 4.64138C6.41928 4.63776 6.42076 4.61709 6.42191 4.59555C6.42306 4.57401 6.43125 4.54886 6.43125 4.54886C6.43125 4.54886 6.42995 4.54539 6.42716 4.54399C6.42437 4.54259 6.41698 4.54316 6.41698 4.54316C6.41698 4.54316 6.41933 4.53507 6.41828 4.52812C6.41724 4.52117 6.41117 4.51098 6.41117 4.51098L6.40818 4.51521C6.40818 4.51521 6.40377 4.5073 6.4003 4.50198C6.39682 4.49667 6.39153 4.4947 6.39153 4.4947C6.39153 4.4947 6.3897 4.49593 6.38728 4.49756C6.38485 4.49919 6.37887 4.50768 6.37887 4.50768L6.36892 4.50124L6.36721 4.53965C6.34458 4.5145 6.34629 4.487 6.31607 4.46948C6.31607 4.46948 6.30641 4.48033 6.30353 4.49101C6.30065 4.50169 6.30318 4.52145 6.30318 4.52145C6.30318 4.52145 6.29173 4.49209 6.26229 4.48491C6.23469 4.47817 6.22272 4.50043 6.21913 4.50547C6.28282 4.51557 6.30211 4.59128 6.33735 4.678C6.33969 4.68352 6.36715 4.75548 6.37119 4.76146C6.37523 4.76744 6.38 4.77354 6.38516 4.77966C6.39033 4.78578 6.39589 4.79187 6.40161 4.7978C6.4276 4.82028 6.44753 4.82909 6.44407 4.78508Z" fill="#EAC102" stroke="black" stroke-width="0.00262781"/>
<path id="path2515" d="M6.38998 4.54956C6.40098 4.63932 6.35251 4.66973 6.35292 4.72351" stroke="black" stroke-width="0.00131391" stroke-linecap="round" stroke-linejoin="round"/>
<path id="path2517" d="M6.3269 4.50537C6.35213 4.58568 6.32492 4.59342 6.3327 4.65137" stroke="black" stroke-width="0.00131391" stroke-linecap="round" stroke-linejoin="round"/>
<path id="path2519" d="M6.47855 4.6106C6.43916 4.77555 6.39088 4.69419 6.36386 4.73453" stroke="black" stroke-width="0.00131391" stroke-linecap="round" stroke-linejoin="round"/>
<g id="g2521">
<path id="path2523" d="M6.38041 4.76223C6.38006 4.76246 6.3798 4.76282 6.37944 4.76304C6.35921 4.77569 6.33286 4.76334 6.32059 4.73551C6.30831 4.70768 6.31474 4.67485 6.33497 4.66221C6.33533 4.66199 6.33573 4.66193 6.33609 4.66173L6.38041 4.76223Z" fill="#E3E4E5" stroke="black" stroke-width="0.00262791"/>
<path id="path2525" d="M6.33502 4.65007L6.32375 4.65703L6.37682 4.77598L6.38809 4.76902C6.37158 4.72063 6.35274 4.67654 6.33502 4.65007Z" fill="#EAC102" stroke="black" stroke-width="0.00262791"/>
</g>
</g>
<g id="g5296">
<g id="g5278">
<path id="path9012" fill-rule="evenodd" clip-rule="evenodd" d="M7.50004 4.636C7.49393 4.66324 7.47044 4.67884 7.44757 4.67084C7.42471 4.66285 7.41112 4.63429 7.41723 4.60705C7.42335 4.57982 7.44684 4.56422 7.4697 4.57221C7.49257 4.58021 7.50615 4.60877 7.50004 4.636Z" fill="#E3E4E5" stroke="black" stroke-width="0.0026284" stroke-linecap="round" stroke-linejoin="round"/>
<g id="g4435">
<path id="path9014" fill-rule="evenodd" clip-rule="evenodd" d="M7.4167 4.63275C7.43497 4.64897 7.4554 4.65941 7.4809 4.66581C7.47565 4.68242 7.46381 4.6708 7.46254 4.68611C7.46126 4.70142 7.40885 4.67783 7.4172 4.66409C7.42556 4.65036 7.4103 4.64886 7.4167 4.63275Z" fill="#EAC102" stroke="black" stroke-width="0.00262781"/>
<path id="path9160" d="M7.46441 4.67741C7.4497 4.67445 7.43316 4.66713 7.42096 4.65656" stroke="black" stroke-width="0.00131391"/>
</g>
</g>
<g id="g5286">
<path id="path5288" fill-rule="evenodd" clip-rule="evenodd" d="M6.50432 4.636C6.51043 4.66324 6.53393 4.67884 6.55679 4.67084C6.57966 4.66285 6.59324 4.63429 6.58713 4.60705C6.58102 4.57982 6.55753 4.56422 6.53466 4.57221C6.5118 4.58021 6.49821 4.60877 6.50432 4.636Z" fill="#E3E4E5" stroke="black" stroke-width="0.0026284" stroke-linecap="round" stroke-linejoin="round"/>
<g id="g5290">
<path id="path5292" fill-rule="evenodd" clip-rule="evenodd" d="M6.58766 4.63275C6.5694 4.64897 6.54896 4.65941 6.52346 4.66581C6.52871 4.68242 6.54055 4.6708 6.54183 4.68611C6.54311 4.70142 6.59552 4.67783 6.58716 4.66409C6.57881 4.65036 6.59407 4.64886 6.58766 4.63275Z" fill="#EAC102" stroke="black" stroke-width="0.00262781"/>
<path id="path5294" d="M6.53993 4.67741C6.55464 4.67445 6.57119 4.66713 6.58339 4.65656" stroke="black" stroke-width="0.00131391"/>
</g>
</g>
</g>
</g>
<path id="path2433" fill-rule="evenodd" clip-rule="evenodd" d="M7.55637 5.9043C7.37175 5.9043 7.1871 5.9043 7.00249 5.9043C6.81592 5.9043 6.62937 5.9043 6.44281 5.9043C6.44293 5.97704 6.44281 6.04979 6.44316 6.12253C6.45175 6.42474 6.63704 6.70084 6.87367 6.76467C6.91584 6.77749 6.95895 6.78329 7.002 6.78279C7.18246 6.78072 7.36144 6.66607 7.46121 6.47558C7.53521 6.34363 7.56248 6.18039 7.55637 6.02143C7.55637 5.98239 7.55637 5.94334 7.55637 5.9043Z" fill="#EAC102" stroke="black" stroke-width="0.00262781"/>
<path id="path5214" fill-rule="evenodd" clip-rule="evenodd" d="M6.44304 5.11224C6.4434 5.37626 6.44296 5.64028 6.44339 5.90428C6.62995 5.90428 6.8165 5.90428 7.00307 5.90428C7.18768 5.90428 7.37233 5.90428 7.55695 5.90428C7.55695 5.64027 7.55695 5.37626 7.55695 5.11224C7.37217 5.11224 7.18736 5.11224 7.00258 5.11224C6.81605 5.11224 6.62957 5.11224 6.44304 5.11224Z" fill="#E3E4E5" stroke="black" stroke-width="0.00262781"/>
<path id="path2460" fill-rule="evenodd" clip-rule="evenodd" d="M6.56558 5.9043V6.52081C6.60103 6.57601 6.64296 6.62448 6.68972 6.66427V5.9043H6.56558ZM6.81379 5.9043V6.74288C6.83344 6.75147 6.85341 6.75914 6.87391 6.76467C6.89506 6.7711 6.91643 6.77571 6.93793 6.7787V5.9043H6.81379ZM7.06207 5.9043V6.77774C7.10438 6.77146 7.14606 6.75911 7.18621 6.74122V5.9043H7.06207ZM7.31029 5.9043V6.66383C7.3572 6.62494 7.3993 6.57724 7.43443 6.52186V5.9043H7.31029Z" fill="#ED1C24" stroke="black" stroke-width="0.00262781"/>
<g id="g5069">
<path id="path22648" fill-rule="evenodd" clip-rule="evenodd" d="M7.52182 5.48245C7.52251 5.53879 7.48466 5.54877 7.46961 5.54824C7.45472 5.54771 7.45154 5.55027 7.43473 5.53986C7.41792 5.52946 7.41747 5.524 7.40237 5.50662C7.38732 5.48929 7.36497 5.48548 7.36461 5.48326C7.36483 5.4807 7.38725 5.47698 7.40212 5.45949C7.41702 5.44195 7.41744 5.43921 7.43413 5.42863C7.45083 5.41804 7.45401 5.41783 7.4689 5.41715C7.48395 5.41646 7.52113 5.42556 7.52182 5.48245Z" fill="black" stroke="#646464" stroke-width="0.00262781"/>
<path id="path22650" d="M6.6341 5.76325L6.68612 5.76297L6.68614 5.64006L6.64757 5.63984L6.64757 5.59954L6.68615 5.59977L6.68616 5.5452L6.71455 5.54537L6.71454 5.59993L6.75311 5.60016L6.75311 5.64045L6.71453 5.64023L6.71451 5.76314L6.76654 5.76402L6.76655 5.69953L6.79493 5.69969L6.79492 5.76419L6.84335 5.76447L6.84337 5.64098L6.79793 5.64071L6.79794 5.60042L6.84337 5.60068L6.84339 5.48269L6.5574 5.48102L6.55738 5.59817L6.59677 5.5984L6.59677 5.63973L6.55738 5.6395L6.55736 5.7628L6.60571 5.76308L6.60572 5.69859L6.63411 5.69876L6.6341 5.76325Z" fill="black" stroke="#646464" stroke-width="0.00262781"/>
<path id="path22652" d="M7.354 5.41995L7.354 5.45166L7.35399 5.4908L7.35399 5.52261L7.25572 5.52204L7.25572 5.49023L6.5511 5.48612L6.55111 5.44698L7.25573 5.45109L7.25573 5.41937L7.354 5.41995Z" fill="black" stroke="#646464" stroke-width="0.00262781"/>
<path id="path22654" d="M6.48156 5.455C6.4766 5.45984 6.47757 5.47644 6.48156 5.48003C6.48575 5.48381 6.49377 5.48857 6.51589 5.49525C6.53767 5.50181 6.5571 5.5028 6.5571 5.5028L6.55711 5.43042C6.55711 5.43042 6.53651 5.43136 6.5159 5.43846C6.4953 5.44556 6.48615 5.45054 6.48156 5.455Z" fill="black" stroke="#646464" stroke-width="0.00262781"/>
<path id="rect22656" d="M6.83112 5.44219L6.84299 5.44226L6.84298 5.49587L6.83111 5.49581L6.83112 5.44219Z" fill="black" stroke="#646464" stroke-width="0.00262783"/>
<path id="rect22658" d="M6.55701 5.4406L6.56888 5.44067L6.56887 5.49429L6.557 5.49422L6.55701 5.4406Z" fill="black" stroke="#646464" stroke-width="0.00262783"/>
<path id="rect22660" d="M6.64838 5.44115L6.66025 5.44122L6.66024 5.49484L6.64837 5.49477L6.64838 5.44115Z" fill="black" stroke="#646464" stroke-width="0.00262783"/>
<path id="rect22662" d="M6.73975 5.4417L6.75162 5.44177L6.75161 5.49539L6.73974 5.49532L6.73975 5.4417Z" fill="black" stroke="#646464" stroke-width="0.00262783"/>
<path id="path22664" fill-rule="evenodd" clip-rule="evenodd" d="M7.29403 5.30298C7.26725 5.34063 7.2641 5.3778 7.27008 5.40484C7.27593 5.43132 7.3142 5.45531 7.33026 5.4353C7.34629 5.41531 7.34279 5.39848 7.32845 5.38308C7.31448 5.36807 7.29939 5.39136 7.29939 5.39136C7.29939 5.39136 7.2997 5.36875 7.31139 5.35244C7.32307 5.33613 7.33205 5.32671 7.34701 5.31808C7.36139 5.30979 7.38959 5.31003 7.38959 5.31003C7.38959 5.31003 7.38125 5.32815 7.37987 5.34078C7.37849 5.35341 7.38545 5.35853 7.38545 5.35853C7.38545 5.35853 7.40836 5.32803 7.42579 5.32876C7.44321 5.32948 7.45518 5.34165 7.46182 5.36314C7.46845 5.38463 7.45244 5.4213 7.45244 5.4213C7.45244 5.4213 7.43915 5.39325 7.42689 5.39936C7.41444 5.40557 7.40908 5.41238 7.41184 5.43413C7.41455 5.45548 7.43732 5.47302 7.45258 5.4731C7.46751 5.47317 7.47903 5.46723 7.48767 5.44723C7.49637 5.4271 7.5037 5.37476 7.493 5.34209C7.48238 5.30964 7.46002 5.27782 7.42808 5.26278C7.4122 5.2553 7.38825 5.24786 7.36205 5.25507C7.33585 5.26228 7.30742 5.28415 7.29403 5.30298Z" fill="black" stroke="#646464" stroke-width="0.00262781"/>
<path id="path22666" fill-rule="evenodd" clip-rule="evenodd" d="M7.46777 5.65395C7.49455 5.61629 7.4977 5.57913 7.49172 5.55209C7.48587 5.5256 7.4476 5.50161 7.43154 5.52163C7.4155 5.54161 7.41901 5.55844 7.43335 5.57385C7.44731 5.58885 7.46241 5.56556 7.46241 5.56556C7.46241 5.56556 7.4621 5.58817 7.45041 5.60448C7.43872 5.6208 7.42975 5.63021 7.41479 5.63884C7.4004 5.64714 7.37221 5.64689 7.37221 5.64689C7.37221 5.64689 7.38055 5.62878 7.38193 5.61615C7.38331 5.60351 7.37634 5.5984 7.37634 5.5984C7.37634 5.5984 7.35343 5.62889 7.33601 5.62816C7.31858 5.62744 7.30662 5.61527 7.29998 5.59378C7.29334 5.57229 7.30936 5.53562 7.30936 5.53562C7.30936 5.53562 7.32265 5.56367 7.33491 5.55756C7.34736 5.55135 7.35272 5.54454 7.34996 5.5228C7.34725 5.50144 7.32447 5.4839 7.30921 5.48383C7.29429 5.48375 7.28277 5.48969 7.27412 5.50969C7.26542 5.52982 7.2581 5.58216 7.2688 5.61484C7.27942 5.64729 7.30178 5.6791 7.33372 5.69415C7.34959 5.70162 7.37355 5.70907 7.39975 5.70185C7.42595 5.69464 7.45438 5.67277 7.46777 5.65395Z" fill="black" stroke="#646464" stroke-width="0.00262781"/>
</g>
<path id="path2302" fill-rule="evenodd" clip-rule="evenodd" d="M6.44267 5.11224C6.44312 5.44899 6.44175 5.78577 6.44336 6.12248C6.45196 6.42468 6.63727 6.70069 6.8739 6.76451C7.09282 6.83108 7.33789 6.71145 7.46146 6.47552C7.53546 6.34358 7.56272 6.18029 7.55661 6.02135C7.55661 5.71831 7.55661 5.41528 7.55661 5.11224C7.1853 5.11224 6.81398 5.11224 6.44267 5.11224Z" stroke="black" stroke-width="0.00788344"/>
</g>
</g>
<path id="path3465" fill-rule="evenodd" clip-rule="evenodd" d="M7.08692 0.451416C6.97638 0.451416 6.88689 0.557582 6.88689 0.687858C6.88689 0.776528 6.92845 0.853461 6.98985 0.893792C6.48696 1.31812 5.91893 1.28245 5.35078 1.24533C5.35315 1.23083 5.35431 1.21558 5.35431 1.20027C5.35431 1.06999 5.26482 0.964516 5.15428 0.964516C5.04375 0.964516 4.95425 1.06999 4.95425 1.20027C4.95425 1.33054 5.04375 1.43671 5.15428 1.43671C5.21451 1.43671 5.26876 1.40522 5.30548 1.35558C6.07763 2.41979 6.13482 3.21349 6.4886 4.01122C6.40347 3.15136 6.30336 2.29243 5.67142 1.47554C6.24634 1.55111 6.69844 1.40253 7.06868 1.10527L7.07633 1.05743L7.08457 1.10527C7.45481 1.40253 7.9069 1.55111 8.48183 1.47554C7.84989 2.29243 7.74978 3.15136 7.66465 4.01122C8.01843 3.21349 8.07562 2.41979 8.84777 1.35558C8.88449 1.40522 8.93874 1.43671 8.99896 1.43671C9.1095 1.43671 9.19899 1.33054 9.19899 1.20027C9.19899 1.06999 9.1095 0.964516 8.99896 0.964516C8.88843 0.964516 8.79894 1.06999 8.79894 1.20027C8.79894 1.21558 8.8001 1.23083 8.80247 1.24533C8.23752 1.28224 7.67241 1.3182 7.17164 0.901419C7.23993 0.863818 7.28754 0.782511 7.28754 0.687858C7.28754 0.557582 7.19746 0.451416 7.08692 0.451416Z" fill="#FFCC00"/>
<path id="path2669" fill-rule="evenodd" clip-rule="evenodd" d="M6.4886 6.97748C6.13482 7.77521 6.07763 8.56891 5.30548 9.63312C5.26876 9.58348 5.21451 9.55199 5.15428 9.55199C5.04375 9.55199 4.95425 9.65816 4.95425 9.78844C4.95425 9.91871 5.04375 10.0242 5.15428 10.0242C5.26482 10.0242 5.35431 9.91871 5.35431 9.78844C5.35431 9.77312 5.35315 9.75787 5.35078 9.74337C5.91893 9.70625 6.48696 9.67058 6.98985 10.0949C6.92845 10.1352 6.88689 10.2122 6.88689 10.3008C6.88689 10.4311 6.97638 10.5373 7.08692 10.5373C7.19746 10.5373 7.28754 10.4311 7.28754 10.3008C7.28754 10.2062 7.23993 10.1249 7.17164 10.0873C7.67241 9.6705 8.23752 9.70646 8.80247 9.74337C8.8001 9.75787 8.79894 9.77312 8.79894 9.78844C8.79894 9.91871 8.88843 10.0242 8.99896 10.0242C9.1095 10.0242 9.19899 9.91871 9.19899 9.78844C9.19899 9.65816 9.1095 9.55199 8.99896 9.55199C8.93874 9.55199 8.88449 9.58348 8.84777 9.63312C8.07562 8.56891 8.01843 7.77521 7.66465 6.97748C7.74978 7.83734 7.84989 8.69627 8.48183 9.51316C7.9069 9.43759 7.45481 9.58618 7.08457 9.88343L7.07633 9.93127L7.06868 9.88343C6.69844 9.58618 6.24634 9.43759 5.67142 9.51316C6.30336 8.69627 6.40347 7.83734 6.4886 6.97748Z" fill="#FFCC00"/>
<path id="path3469" fill-rule="evenodd" clip-rule="evenodd" d="M11.2789 5.51216C11.2789 5.38188 11.1888 5.27641 11.0782 5.27641C11.003 5.27641 10.9377 5.32539 10.9035 5.39775C10.5435 4.80506 10.5737 4.1356 10.6052 3.46599C10.6175 3.46878 10.6305 3.47015 10.6435 3.47015C10.754 3.47015 10.8435 3.36468 10.8435 3.23441C10.8435 3.10413 10.754 2.99866 10.6435 2.99866C10.5329 2.99866 10.4429 3.10413 10.4429 3.23441C10.4429 3.30538 10.4696 3.36933 10.5117 3.4126C9.60873 4.32263 8.93529 4.39003 8.25842 4.80699C8.988 4.70666 9.71679 4.58867 10.4099 3.84389C10.3458 4.52148 10.4719 5.05431 10.7241 5.49066L10.7647 5.49967L10.7241 5.50938C10.4719 5.94573 10.3458 6.47856 10.4099 7.15616C9.71679 6.41137 8.988 6.29338 8.25842 6.19305C8.93529 6.61001 9.60873 6.67741 10.5117 7.58744C10.4696 7.63071 10.4429 7.69466 10.4429 7.76564C10.4429 7.89591 10.5329 8.00139 10.6435 8.00139C10.754 8.00139 10.8435 7.89591 10.8435 7.76564C10.8435 7.63536 10.754 7.52989 10.6435 7.52989C10.6305 7.52989 10.6175 7.53126 10.6052 7.53405C10.5739 6.86822 10.5434 6.2022 10.897 5.612C10.9289 5.69249 10.9979 5.7486 11.0782 5.7486C11.1888 5.7486 11.2789 5.64243 11.2789 5.51216Z" fill="#FFCC00"/>
<path id="path3459" fill-rule="evenodd" clip-rule="evenodd" d="M5.74157 4.80699C5.06471 4.39003 4.39127 4.32263 3.4883 3.4126C3.53042 3.36933 3.55714 3.30538 3.55714 3.23441C3.55714 3.10413 3.46706 2.99866 3.35652 2.99866C3.24598 2.99866 3.15649 3.10413 3.15649 3.23441C3.15649 3.36468 3.24598 3.47015 3.35652 3.47015C3.36951 3.47015 3.38245 3.46878 3.39476 3.46599C3.42625 4.1356 3.45651 4.80506 3.09648 5.39775C3.06226 5.32539 2.99698 5.27641 2.92175 5.27641C2.81121 5.27641 2.72113 5.38188 2.72113 5.51216C2.72113 5.64243 2.81121 5.7486 2.92175 5.7486C3.00206 5.7486 3.07105 5.69249 3.10295 5.612C3.45658 6.2022 3.42607 6.86822 3.39476 7.53405C3.38245 7.53126 3.36951 7.52989 3.35652 7.52989C3.24598 7.52989 3.15649 7.63536 3.15649 7.76564C3.15649 7.89591 3.24598 8.00139 3.35652 8.00139C3.46705 8.00139 3.55714 7.89591 3.55714 7.76564C3.55714 7.69466 3.53042 7.63071 3.4883 7.58744C4.39127 6.67741 5.06471 6.61001 5.74157 6.19305C5.012 6.29338 4.2832 6.41137 3.59008 7.15616C3.6542 6.47856 3.52813 5.94573 3.27592 5.50938L3.23532 5.49967L3.27592 5.49066C3.52813 5.05431 3.6542 4.52148 3.59008 3.84389C4.2832 4.58867 5.012 4.70666 5.74157 4.80699Z" fill="#FFCC00"/>
</g>
</g>
</g>
<defs>
<clipPath id="clip0_2600_19059">
<rect width="14" height="11" rx="1.77778" fill="white"/>
</clipPath>
</defs>
</svg>
