<svg width="20" height="20" viewBox="0 0 20 20" fill="none" xmlns="http://www.w3.org/2000/svg">
<path d="M8.16797 5.33398C8.16797 4.22941 9.0634 3.33398 10.168 3.33398H17.168C18.2725 3.33398 19.168 4.22941 19.168 5.33398V14.6673C19.168 15.7719 18.2725 16.6673 17.168 16.6673H10.168C9.0634 16.6673 8.16797 15.7719 8.16797 14.6673V5.33398Z" fill="#FF0000"/>
<path d="M4.34766 3.33398H15.3477V16.6673H4.34766V3.33398Z" fill="#FF0000"/>
<path d="M0.833984 5.33398C0.833984 4.22941 1.72941 3.33398 2.83398 3.33398H6.16732C7.27189 3.33398 8.16732 4.22941 8.16732 5.33398V14.6673C8.16732 15.7719 7.27189 16.6673 6.16732 16.6673H2.83399C1.72942 16.6673 0.833984 15.7719 0.833984 14.6673V5.33398Z" fill="#006600"/>
<path d="M2.36133 3.33398H9.69466V16.6673H2.36133V3.33398Z" fill="#006600"/>
<path fill-rule="evenodd" clip-rule="evenodd" d="M10.5599 11.8398C9.63464 11.8121 5.40365 9.25095 5.375 8.83984L5.60703 8.46484C6.02813 9.05651 10.3536 11.5482 10.7805 11.4593L10.5599 11.8398Z" fill="#FFFF00" stroke="black" stroke-width="0.075" stroke-linecap="round" stroke-linejoin="round"/>
<path fill-rule="evenodd" clip-rule="evenodd" d="M5.55685 8.41124C5.47378 8.62791 6.66258 9.33902 8.08914 10.1835C9.51857 11.0251 10.7503 11.5446 10.8391 11.4724L10.8821 11.3946C10.8649 11.4224 10.8248 11.4307 10.7589 11.4112C10.3722 11.3029 9.36675 10.8557 8.12065 10.1224C6.8717 9.38902 5.78888 8.71402 5.61987 8.42791C5.6067 8.40108 5.60078 8.37145 5.60268 8.3418H5.59696L5.56258 8.40291L5.55685 8.41124ZM10.5785 11.8501C10.5641 11.8779 10.5326 11.8779 10.4782 11.8724C10.1345 11.8362 9.08602 11.3418 7.84565 10.6224C6.4019 9.78346 5.21024 9.02235 5.34201 8.82235L5.37638 8.76124L5.38211 8.76402C5.26753 9.10291 7.73393 10.4696 7.88003 10.5585C9.30659 11.414 10.5097 11.9168 10.6157 11.7862L10.5785 11.8501Z" fill="#FFFF00" stroke="black" stroke-width="0.075" stroke-linecap="round" stroke-linejoin="round"/>
<path fill-rule="evenodd" clip-rule="evenodd" d="M8.17292 9.08976C9.09531 9.08142 10.2354 8.96753 10.8943 8.71198L10.751 8.48976C10.3643 8.69809 9.21849 8.83698 8.16432 8.85642C6.92109 8.84531 6.04167 8.73142 5.60052 8.44531L5.46875 8.6842C6.27656 9.01753 7.10729 9.08698 8.17292 9.08976Z" fill="#FFFF00"/>
<path d="M8.17292 9.08976C9.09531 9.08142 10.2354 8.96753 10.8943 8.71198L10.751 8.48976C10.3643 8.69809 9.21849 8.83698 8.16432 8.85642C6.92109 8.84531 6.04167 8.73142 5.60052 8.44531L5.46875 8.6842C6.27656 9.01753 7.10729 9.08698 8.17292 9.08976" stroke="black" stroke-width="0.075" stroke-linecap="round" stroke-linejoin="round"/>
<path fill-rule="evenodd" clip-rule="evenodd" d="M10.9318 8.71714C10.9089 8.75326 10.4792 8.89492 9.84896 9.00048C9.29341 9.08211 8.7322 9.12205 8.17031 9.11992C7.63197 9.12188 7.0941 9.08847 6.56042 9.01992C5.8987 8.91992 5.55781 8.78103 5.42891 8.73103L5.46042 8.66992C5.82422 8.80881 6.16797 8.89214 6.56901 8.95326C7.0988 9.02262 7.63285 9.05696 8.16745 9.05603C8.72642 9.0566 9.28466 9.01668 9.8375 8.93659C10.482 8.83381 10.8344 8.70325 10.8859 8.64492L10.9318 8.71992V8.71714ZM10.8057 8.49214C10.737 8.5477 10.3875 8.66714 9.77448 8.76159C9.24512 8.83585 8.71092 8.87299 8.17604 8.8727C7.54583 8.8727 7.02734 8.82826 6.6349 8.7727C6.01042 8.69492 5.67812 8.55048 5.55781 8.51159L5.59505 8.45048C5.68958 8.4977 6.00755 8.6227 6.64062 8.70881C7.14954 8.77491 7.66259 8.80647 8.17604 8.80325C8.70711 8.80341 9.23749 8.76628 9.76302 8.69214C10.3789 8.60881 10.7112 8.45881 10.7628 8.41992L10.8057 8.49214ZM5.13958 10.1671C5.70677 10.4644 6.97005 10.6116 8.16458 10.6227C9.25312 10.6255 10.6682 10.4616 11.1982 10.1894L11.1839 9.89214C11.0177 10.1421 9.49948 10.3838 8.15313 10.3755C6.80677 10.3644 5.55495 10.1644 5.13672 9.90326V10.1671" fill="#FFFF00"/>
<path d="M5.13958 10.1671C5.70677 10.4644 6.97005 10.6116 8.16458 10.6227C9.25312 10.6255 10.6682 10.4616 11.1982 10.1894L11.1839 9.89214C11.0177 10.1421 9.49948 10.3838 8.15312 10.3755C6.80677 10.3644 5.55495 10.1644 5.13672 9.90326V10.1671M10.9318 8.71714C10.9089 8.75326 10.4792 8.89492 9.84896 9.00048C9.29341 9.08211 8.7322 9.12205 8.17031 9.11992C7.63197 9.12188 7.0941 9.08847 6.56042 9.01992C5.8987 8.91992 5.55781 8.78103 5.42891 8.73103L5.46042 8.66992C5.82422 8.80881 6.16797 8.89214 6.56901 8.95326C7.0988 9.02262 7.63285 9.05696 8.16745 9.05603C8.72642 9.0566 9.28466 9.01668 9.8375 8.93659C10.482 8.83381 10.8344 8.70325 10.8859 8.64492L10.9318 8.71992V8.71714ZM10.8057 8.49214C10.737 8.5477 10.3875 8.66714 9.77448 8.76159C9.24512 8.83585 8.71092 8.87299 8.17604 8.8727C7.54583 8.8727 7.02734 8.82826 6.6349 8.7727C6.01042 8.69492 5.67812 8.55048 5.55781 8.51159L5.59505 8.45048C5.68958 8.4977 6.00755 8.6227 6.64062 8.70881C7.14954 8.77491 7.66259 8.80647 8.17604 8.80325C8.70711 8.80341 9.23749 8.76628 9.76302 8.69214C10.3789 8.60881 10.7112 8.45881 10.7628 8.41992L10.8057 8.49214V8.49214Z" stroke="black" stroke-width="0.075" stroke-linecap="round" stroke-linejoin="round"/>
<path fill-rule="evenodd" clip-rule="evenodd" d="M11.226 10.1263V10.1958C11.1458 10.2902 10.6474 10.4291 10.0229 10.5291C9.40251 10.6156 8.77624 10.6565 8.14948 10.6513C7.55517 10.6563 6.96136 10.6163 6.37344 10.5319C5.93474 10.4827 5.50607 10.3704 5.10156 10.1986V10.118C5.37943 10.2958 6.12995 10.4291 6.38203 10.468C6.83464 10.5347 7.41615 10.5847 8.14948 10.5847C8.92005 10.5847 9.53594 10.5319 10.0115 10.4625C10.4612 10.3986 11.1 10.2347 11.226 10.1263ZM11.226 9.87635V9.94579C11.1458 10.0375 10.6474 10.1763 10.0229 10.2763C9.40258 10.3638 8.77631 10.4055 8.14948 10.4013C7.55522 10.4047 6.96153 10.3648 6.37344 10.2819C5.93474 10.2327 5.50607 10.1204 5.10156 9.94857V9.86523C5.37943 10.0458 6.13281 10.1763 6.38203 10.2152C6.96722 10.2984 7.55806 10.3383 8.14948 10.3347C8.92005 10.3347 9.5388 10.2791 10.0115 10.2097C10.4612 10.1486 11.1 9.98468 11.226 9.87635ZM8.16094 11.7875C6.85469 11.7819 5.73464 11.443 5.49688 11.3875L5.66875 11.6486C6.47224 11.9245 7.32011 12.059 8.1724 12.0458C9.16641 12.018 10.0344 11.943 10.6445 11.6541L10.8221 11.3819C10.4068 11.5736 8.9888 11.7875 8.15807 11.7875" fill="#FFFF00"/>
<path d="M8.16094 11.7875C6.85469 11.7819 5.73464 11.443 5.49688 11.3875L5.66875 11.6486C6.47224 11.9245 7.32011 12.059 8.1724 12.0458C9.16641 12.018 10.0344 11.943 10.6445 11.6541L10.8221 11.3819C10.4068 11.5736 8.9888 11.7875 8.15807 11.7875M11.226 10.1263V10.1958C11.1458 10.2902 10.6474 10.4291 10.0229 10.5291C9.40251 10.6156 8.77624 10.6565 8.14948 10.6513C7.55517 10.6563 6.96136 10.6163 6.37344 10.5319C5.93474 10.4827 5.50607 10.3704 5.10156 10.1986V10.118C5.37943 10.2958 6.12995 10.4291 6.38203 10.468C6.83464 10.5347 7.41615 10.5847 8.14948 10.5847C8.92005 10.5847 9.53594 10.5319 10.0115 10.4625C10.4612 10.3986 11.1 10.2347 11.226 10.1263V10.1263ZM11.226 9.87635V9.94579C11.1458 10.0375 10.6474 10.1763 10.0229 10.2763C9.40258 10.3638 8.77632 10.4055 8.14948 10.4013C7.55522 10.4047 6.96153 10.3648 6.37344 10.2819C5.93474 10.2327 5.50607 10.1204 5.10156 9.94857V9.86523C5.37943 10.0458 6.13281 10.1763 6.38203 10.2152C6.96722 10.2984 7.55806 10.3383 8.14948 10.3347C8.92005 10.3347 9.5388 10.2791 10.0115 10.2097C10.4612 10.1486 11.1 9.98468 11.226 9.87635V9.87635Z" stroke="black" stroke-width="0.075" stroke-linecap="round" stroke-linejoin="round"/>
<path fill-rule="evenodd" clip-rule="evenodd" d="M10.7133 11.5929C10.6872 11.6304 10.6605 11.6674 10.6331 11.704C10.3466 11.804 9.88828 11.9096 9.69922 11.9374C9.1919 12.029 8.67699 12.0755 8.16094 12.0763C7.00365 12.0596 6.05547 11.8401 5.61146 11.6513L5.57422 11.5929L5.57995 11.5818L5.6401 11.6068C6.45537 11.8684 7.30793 12.0043 8.16667 12.0096C8.70521 12.0096 9.24089 11.9513 9.67344 11.8763C10.338 11.7457 10.6073 11.6485 10.6904 11.604L10.7104 11.5929H10.7133ZM10.8651 11.3485C10.8462 11.381 10.8271 11.4134 10.8078 11.4457C10.6531 11.5013 10.2349 11.6179 9.62474 11.7013C9.2237 11.754 8.97448 11.8068 8.17526 11.8207C7.26164 11.8118 6.35363 11.6809 5.47682 11.4318L5.44531 11.3624C6.33615 11.6011 7.25411 11.7317 8.17812 11.7513C8.90859 11.7374 9.22083 11.6846 9.61901 11.6318C10.3294 11.5263 10.6875 11.4096 10.7935 11.379C10.7936 11.3772 10.7936 11.3753 10.7935 11.3735L10.868 11.3457L10.8651 11.3485Z" fill="#FFFF00" stroke="black" stroke-width="0.075" stroke-linecap="round" stroke-linejoin="round"/>
<path fill-rule="evenodd" clip-rule="evenodd" d="M10.8831 9.93398C10.8859 10.7673 10.4448 11.5173 10.0925 11.8451C9.57206 12.3373 8.8771 12.6176 8.15026 12.6284C7.2823 12.6423 6.46589 12.0951 6.24532 11.8534C5.75187 11.346 5.47103 10.6785 5.45756 9.98121C5.50912 9.0701 5.87865 8.43676 6.41146 8.00065C6.92905 7.58748 7.58015 7.36424 8.25053 7.3701C8.64186 7.38849 9.02492 7.48596 9.37515 7.65625C9.72539 7.82654 10.0351 8.0659 10.2844 8.35898C10.6425 8.78121 10.8 9.23954 10.8831 9.93398ZM8.15599 7.08398C8.95736 7.08396 9.72624 7.39113 10.295 7.93852C10.8638 8.48591 11.1864 9.22915 11.1925 10.0062C11.1925 10.3918 11.1141 10.7736 10.962 11.1298C10.8098 11.486 10.5868 11.8097 10.3056 12.0824C10.0244 12.355 9.69066 12.5713 9.3233 12.7188C8.95594 12.8664 8.56221 12.9423 8.16459 12.9423C7.76696 12.9423 7.37323 12.8664 7.00587 12.7188C6.63852 12.5713 6.30473 12.355 6.02356 12.0824C5.7424 11.8097 5.51937 11.486 5.36721 11.1298C5.21504 10.7736 5.13672 10.3918 5.13672 10.0062C5.13386 8.3951 6.49167 7.08398 8.15599 7.08398Z" fill="#FFFF00"/>
<path d="M8.15599 7.08398C8.95736 7.08396 9.72624 7.39113 10.295 7.93852C10.8638 8.48591 11.1864 9.22915 11.1925 10.0062C11.1925 10.3918 11.1141 10.7736 10.962 11.1298C10.8098 11.486 10.5868 11.8097 10.3056 12.0824C10.0244 12.355 9.69066 12.5713 9.3233 12.7188C8.95594 12.8664 8.56221 12.9423 8.16459 12.9423C7.76696 12.9423 7.37323 12.8664 7.00587 12.7188C6.63852 12.5713 6.30473 12.355 6.02356 12.0824C5.7424 11.8097 5.51937 11.486 5.36721 11.1298C5.21504 10.7736 5.13672 10.3918 5.13672 10.0062C5.13386 8.3951 6.49167 7.08398 8.15599 7.08398M10.8831 9.93398C10.8859 10.7673 10.4448 11.5173 10.0925 11.8451C9.57206 12.3373 8.8771 12.6176 8.15026 12.6284C7.2823 12.6423 6.46589 12.0951 6.24532 11.8534C5.75187 11.346 5.47103 10.6785 5.45756 9.98121C5.50912 9.0701 5.87865 8.43676 6.41146 8.00065C6.92905 7.58748 7.58015 7.36424 8.25053 7.3701C8.64186 7.38849 9.02492 7.48596 9.37515 7.65625C9.72539 7.82654 10.0351 8.0659 10.2844 8.35898C10.6425 8.78121 10.8 9.23954 10.8831 9.93398V9.93398Z" stroke="black" stroke-width="0.075" stroke-linecap="round" stroke-linejoin="round"/>
<path fill-rule="evenodd" clip-rule="evenodd" d="M8.16471 7.07031C9.8319 7.07031 11.1897 8.38698 11.1897 10.0036C11.1897 11.6203 9.8319 12.937 8.16758 12.937C6.50326 12.937 5.14258 11.6203 5.14258 10.0036C5.14258 8.38698 6.50039 7.07031 8.16758 7.07031H8.16471ZM5.2056 10.0009C5.2056 11.5786 6.54336 12.8703 8.16471 12.8703C9.78607 12.8703 11.1238 11.5786 11.1238 10.0009C11.1238 8.42309 9.78607 7.13142 8.16471 7.13142C6.54336 7.13142 5.2056 8.42309 5.2056 10.0009Z" fill="#FFFF00" stroke="black" stroke-width="0.075" stroke-linecap="round" stroke-linejoin="round"/>
<path fill-rule="evenodd" clip-rule="evenodd" d="M8.16654 7.31445C8.9005 7.31665 9.60376 7.60036 10.1228 8.10362C10.6418 8.60689 10.9343 9.28884 10.9366 10.0006C10.9343 10.7125 10.6418 11.3948 10.1229 11.8985C9.60402 12.4022 8.90077 12.6865 8.16654 12.6895C6.64831 12.6895 5.39648 11.4783 5.39648 10.0006C5.3995 9.28906 5.69231 8.60754 6.21115 8.10443C6.72998 7.60132 7.4328 7.31738 8.16654 7.31445ZM5.46237 10.0006C5.46237 11.445 6.68268 12.6228 8.16654 12.6228C9.65039 12.6228 10.8707 11.4422 10.8707 10.0006C10.8707 8.55612 9.65039 7.37834 8.16654 7.37834C7.45028 7.38127 6.76421 7.65847 6.25773 8.1496C5.75126 8.64073 5.46539 9.30601 5.46237 10.0006Z" fill="#FFFF00" stroke="black" stroke-width="0.075" stroke-linecap="round" stroke-linejoin="round"/>
<path fill-rule="evenodd" clip-rule="evenodd" d="M8.28997 7.05664H8.0293V12.9539H8.28711L8.28997 7.05664Z" fill="#FFFF00" stroke="black" stroke-width="0.075" stroke-linecap="round" stroke-linejoin="round"/>
<path fill-rule="evenodd" clip-rule="evenodd" d="M8.26172 7.02344H8.3276V12.9873H8.26458V7.02344H8.26172ZM8.00391 7.02344H8.07266V12.9873H8.00677V7.02344H8.00391Z" fill="#FFFF00" stroke="black" stroke-width="0.075" stroke-linecap="round" stroke-linejoin="round"/>
<path fill-rule="evenodd" clip-rule="evenodd" d="M11.1913 10.1175V9.90087L11.0079 9.7342L9.9681 9.46753L8.47279 9.32031L6.6681 9.4092L5.38477 9.70365L5.12695 9.88976V10.1092L5.78294 9.82309L7.34128 9.58698H8.83945L9.93945 9.70365L10.7014 9.88142L11.1913 10.1175Z" fill="#FFFF00" stroke="black" stroke-width="0.075" stroke-linecap="round" stroke-linejoin="round"/>
<path fill-rule="evenodd" clip-rule="evenodd" d="M8.16667 9.55188C8.87995 9.55188 9.57031 9.61577 10.1232 9.71854C10.6904 9.82966 11.0885 9.96854 11.226 10.1213V10.1991C11.0599 10.0047 10.5242 9.86577 10.1089 9.78243C9.56458 9.68243 8.87708 9.61577 8.1638 9.61577C7.41615 9.61577 6.71719 9.68799 6.17865 9.78799C5.74896 9.87132 5.17318 10.038 5.10156 10.1991V10.1185C5.1388 10.0074 5.56849 9.84077 6.17005 9.72132C6.71146 9.61854 7.41042 9.55188 8.1638 9.55188H8.16667ZM8.16667 9.2991C8.82266 9.29782 9.47746 9.3536 10.1232 9.46577C10.6904 9.57688 11.0885 9.71577 11.226 9.87132V9.94632C11.0599 9.75466 10.5242 9.61299 10.1089 9.53243C9.56458 9.42966 8.87708 9.36577 8.1638 9.36577C7.49897 9.36373 6.83538 9.42138 6.18151 9.53799C5.76615 9.61299 5.16745 9.78521 5.10156 9.94632V9.86854C5.14167 9.75743 5.57708 9.58243 6.17005 9.47132C6.71432 9.36854 7.41042 9.2991 8.16667 9.2991ZM8.14948 8.01577C9.27526 8.01021 10.2578 8.16854 10.7076 8.39077L10.8708 8.66854C10.4812 8.46299 9.42135 8.25188 8.15234 8.27966C7.11823 8.28799 6.0125 8.39077 5.45964 8.67966L5.65443 8.36299C6.1099 8.13243 7.18125 8.01577 8.14948 8.01577Z" fill="#FFFF00"/>
<path d="M8.14948 8.01577C9.27526 8.01021 10.2578 8.16854 10.7076 8.39077L10.8708 8.66854C10.4812 8.46299 9.42135 8.25188 8.15234 8.27966C7.11823 8.28799 6.0125 8.39077 5.45964 8.67966L5.65443 8.36299C6.1099 8.13243 7.18125 8.01577 8.14948 8.01577M8.16667 9.55188C8.87995 9.55188 9.57031 9.61577 10.1232 9.71854C10.6904 9.82966 11.0885 9.96854 11.226 10.1213V10.1991C11.0599 10.0047 10.5242 9.86577 10.1089 9.78243C9.56458 9.68243 8.87708 9.61577 8.1638 9.61577C7.41615 9.61577 6.71719 9.68799 6.17865 9.78799C5.74896 9.87132 5.17318 10.038 5.10156 10.1991V10.1185C5.1388 10.0074 5.56849 9.84077 6.17005 9.72132C6.71146 9.61854 7.41042 9.55188 8.1638 9.55188H8.16667ZM8.16667 9.2991C8.82266 9.29782 9.47746 9.3536 10.1232 9.46577C10.6904 9.57688 11.0885 9.71577 11.226 9.87132V9.94632C11.0599 9.75466 10.5242 9.61299 10.1089 9.53243C9.56458 9.42966 8.87708 9.36577 8.1638 9.36577C7.49897 9.36373 6.83538 9.42138 6.18151 9.53799C5.76615 9.61299 5.16745 9.78521 5.10156 9.94632V9.86854C5.14167 9.75743 5.57708 9.58243 6.17005 9.47132C6.71432 9.36854 7.41042 9.2991 8.16667 9.2991V9.2991Z" stroke="black" stroke-width="0.075" stroke-linecap="round" stroke-linejoin="round"/>
<path fill-rule="evenodd" clip-rule="evenodd" d="M8.16654 8.2436C8.75433 8.23398 9.34187 8.27395 9.92253 8.36304C10.3809 8.44638 10.8191 8.5686 10.8822 8.63527L10.9309 8.7186C10.779 8.62416 10.398 8.51582 9.91107 8.42693C9.42409 8.33805 8.80247 8.30749 8.16367 8.31027C7.43893 8.30749 6.87461 8.3436 6.39336 8.42693C6.06161 8.47202 5.73952 8.56863 5.43945 8.71305L5.48815 8.62693C5.66003 8.5436 5.92643 8.44082 6.37904 8.36027C6.88034 8.27138 7.45039 8.24638 8.16654 8.2436ZM8.16654 7.9936C8.77956 7.98804 9.38685 8.02138 9.85951 8.10471C10.1657 8.1488 10.4621 8.24271 10.7361 8.38249L10.8077 8.4936C10.6874 8.36304 10.2348 8.23805 9.83086 8.17138C9.36107 8.09082 8.77956 8.06027 8.16654 8.05471C7.59589 8.04978 7.0258 8.09066 6.46211 8.17693C6.16737 8.21676 5.8811 8.3021 5.61419 8.42971L5.67721 8.33805C5.84336 8.25471 6.11263 8.17693 6.45065 8.11304C7.01806 8.02564 7.59205 7.98475 8.16654 7.99082V7.9936ZM9.66758 11.2242C9.17106 11.1408 8.66748 11.1036 8.16367 11.113C6.28737 11.1353 5.68294 11.488 5.60846 11.5936L5.46523 11.3714C5.94648 11.038 6.96628 10.8492 8.17513 10.8658C8.80247 10.8769 9.34388 10.9186 9.79648 11.0047L9.66758 11.2269" fill="#FFFF00"/>
<path d="M9.66758 11.2242C9.17106 11.1408 8.66748 11.1036 8.16367 11.113C6.28737 11.1353 5.68294 11.488 5.60846 11.5936L5.46523 11.3714C5.94648 11.038 6.96628 10.8492 8.17513 10.8658C8.80247 10.8769 9.34388 10.9186 9.79648 11.0047L9.66758 11.2269M8.16654 8.2436C8.75433 8.23398 9.34187 8.27395 9.92253 8.36304C10.3809 8.44638 10.8191 8.5686 10.8822 8.63527L10.9309 8.7186C10.779 8.62416 10.398 8.51582 9.91107 8.42693C9.42409 8.33805 8.80247 8.30749 8.16367 8.31027C7.43893 8.30749 6.87461 8.3436 6.39336 8.42693C6.06161 8.47202 5.73952 8.56863 5.43945 8.71305L5.48815 8.62693C5.66003 8.5436 5.92643 8.44082 6.37904 8.36027C6.88034 8.27138 7.45039 8.24638 8.16654 8.2436V8.2436ZM8.16654 7.9936C8.77956 7.98804 9.38685 8.02138 9.85951 8.10471C10.1657 8.1488 10.4621 8.24271 10.7361 8.38249L10.8077 8.4936C10.6874 8.36304 10.2348 8.23805 9.83086 8.17138C9.36107 8.09082 8.77956 8.06027 8.16654 8.05471C7.59589 8.04978 7.0258 8.09066 6.46211 8.17693C6.16737 8.21676 5.8811 8.3021 5.61419 8.42971L5.67721 8.33805C5.84336 8.25471 6.11263 8.17693 6.45065 8.11304C7.01806 8.02564 7.59205 7.98475 8.16654 7.99082V7.9936Z" stroke="black" stroke-width="0.075" stroke-linecap="round" stroke-linejoin="round"/>
<path fill-rule="evenodd" clip-rule="evenodd" d="M8.15612 11.0817C8.67747 11.0901 9.18737 11.1095 9.68294 11.1984L9.64857 11.2595C9.19023 11.1762 8.69753 11.1484 8.15898 11.1484C7.46289 11.1428 6.76393 11.2067 6.15378 11.3762C5.96185 11.429 5.64388 11.5484 5.60951 11.6484L5.57513 11.5928C5.58659 11.5317 5.77565 11.4095 6.13659 11.3151C6.83555 11.1206 7.48867 11.0845 8.15612 11.0817ZM8.17904 10.8262C8.72932 10.8256 9.27858 10.8721 9.82044 10.9651L9.7832 11.029C9.25408 10.9348 8.71698 10.8893 8.17904 10.8928C7.48581 10.8928 6.74961 10.9428 6.0793 11.1317C5.86445 11.1928 5.48919 11.3262 5.47773 11.429L5.44336 11.3678C5.44909 11.2734 5.77279 11.1484 6.06497 11.0678C6.73815 10.8762 7.47721 10.829 8.17904 10.8262Z" fill="#FFFF00" stroke="black" stroke-width="0.075" stroke-linecap="round" stroke-linejoin="round"/>
<path fill-rule="evenodd" clip-rule="evenodd" d="M10.8414 11.4029L10.618 11.7446L9.96771 11.1862L8.28906 10.089L6.39271 9.08069L5.41016 8.75569L5.61927 8.37791L5.69089 8.3418L6.30104 8.48902L8.31771 9.49735L9.48073 10.2085L10.4576 10.889L10.8557 11.3335L10.8414 11.4029Z" fill="#FFFF00" stroke="black" stroke-width="0.075" stroke-linecap="round" stroke-linejoin="round"/>
<path fill-rule="evenodd" clip-rule="evenodd" d="M5.37708 8.76567C5.54896 8.65456 6.8151 9.199 8.14427 9.97678C9.46484 10.7546 10.731 11.6323 10.6164 11.7962L10.5792 11.8546L10.562 11.8684C10.5648 11.8657 10.5849 11.8407 10.562 11.7823C10.5047 11.6018 9.60521 10.9073 8.11849 10.0351C6.66615 9.199 5.45729 8.69344 5.33984 8.83789L5.37708 8.76567ZM10.8885 11.4018C10.9974 11.1907 9.82292 10.3323 8.36484 9.49622C6.87526 8.67678 5.79818 8.19344 5.60052 8.33789L5.56042 8.41844C5.56042 8.42122 5.56042 8.41289 5.57187 8.40456C5.60625 8.37678 5.66641 8.37678 5.69219 8.37678C6.03021 8.38233 6.99557 8.81289 8.35052 9.56567C8.94635 9.899 10.8599 11.0934 10.8513 11.4268C10.8513 11.4546 10.8542 11.4601 10.8427 11.4768L10.8914 11.4046L10.8885 11.4018Z" fill="#FFFF00" stroke="black" stroke-width="0.075" stroke-linecap="round" stroke-linejoin="round"/>
<path d="M6.35156 10.3282C6.35202 10.5582 6.39951 10.7858 6.4913 10.9979C6.58308 11.21 6.71733 11.4023 6.88629 11.5637C7.05318 11.728 7.25195 11.8587 7.47116 11.9482C7.69037 12.0377 7.92567 12.0843 8.16351 12.0852C8.64487 12.0852 9.1065 11.8997 9.44685 11.5696C9.61521 11.4073 9.74884 11.2143 9.84008 11.0018C9.93132 10.7893 9.97836 10.5613 9.97852 10.3311V7.98444L6.35156 7.97852V10.3282Z" fill="white" stroke="black" stroke-width="0.0933336"/>
<path d="M6.41797 10.3303C6.41861 10.5509 6.46431 10.7692 6.55241 10.9726C6.64052 11.176 6.76929 11.3605 6.9313 11.5154C7.25662 11.8325 7.69837 12.0116 8.15964 12.0132C8.6201 12.0135 9.06185 11.8366 9.38798 11.5214C9.54944 11.3662 9.67765 11.1816 9.76522 10.9782C9.8528 10.7748 9.89801 10.5566 9.89826 10.3362V8.05469H6.42408V10.3303M9.20464 8.73913V10.188L9.20159 10.3391C9.20262 10.4715 9.17609 10.6027 9.12358 10.7249C9.07108 10.8471 8.99368 10.9578 8.89603 11.0503C8.70172 11.2393 8.43797 11.3459 8.1627 11.3465C7.87547 11.3465 7.62186 11.228 7.43242 11.0443C7.23743 10.8559 7.12753 10.6001 7.12686 10.3332V8.73321L9.20464 8.73913Z" fill="#FF0000"/>
<path d="M6.41797 10.3303C6.41861 10.5509 6.46431 10.7692 6.55241 10.9726C6.64052 11.176 6.76929 11.3605 6.9313 11.5154C7.25662 11.8325 7.69837 12.0116 8.15964 12.0132C8.6201 12.0135 9.06185 11.8366 9.38798 11.5214C9.54944 11.3662 9.67765 11.1816 9.76522 10.9782C9.8528 10.7748 9.89801 10.5566 9.89826 10.3362V8.05469H6.42408V10.3303M9.20464 8.73913V10.188L9.20159 10.3391C9.20262 10.4715 9.17609 10.6027 9.12358 10.7249C9.07108 10.8471 8.99368 10.9578 8.89603 11.0503C8.70172 11.2393 8.43797 11.3459 8.1627 11.3465C7.87547 11.3465 7.62186 11.228 7.43242 11.0443C7.23743 10.8559 7.12753 10.6001 7.12686 10.3332V8.73321L9.20464 8.73913Z" stroke="black" stroke-width="0.0666669"/>
<path d="M6.64453 8.6507C6.64759 8.48774 6.76675 8.44922 6.76675 8.44922C6.76981 8.44922 6.89814 8.4907 6.89814 8.65366H6.64453" fill="#FFFF00"/>
<path d="M6.54108 8.45218L6.51969 8.63885H6.64802C6.64802 8.48477 6.77024 8.46107 6.77024 8.46107C6.7733 8.46107 6.89247 8.49366 6.89552 8.63885H7.02386L6.99941 8.44922H6.54108V8.45218ZM6.51052 8.64181H7.02997C7.03913 8.64181 7.0483 8.6507 7.0483 8.66255C7.0483 8.67737 7.03913 8.68626 7.02997 8.68626H6.51052C6.50135 8.68626 6.49219 8.67737 6.49219 8.66255C6.49219 8.6507 6.50135 8.64181 6.51358 8.64181H6.51052Z" fill="#FFFF00" stroke="black" stroke-width="0.0666669"/>
<path d="M6.69946 8.63887C6.69946 8.54109 6.76974 8.51443 6.76974 8.51443C6.76974 8.51443 6.84002 8.54406 6.84002 8.63887H6.69946ZM6.52224 8.3722H7.0203C7.02946 8.3722 7.03863 8.38405 7.03863 8.39591C7.03863 8.4048 7.02946 8.41368 7.0203 8.41368H6.52224C6.51307 8.41368 6.50391 8.4048 6.50391 8.39294C6.50391 8.38405 6.51307 8.37517 6.52224 8.37517V8.3722ZM6.53446 8.41665H7.00502C7.01419 8.41665 7.02335 8.42554 7.02335 8.43739C7.02335 8.44924 7.01419 8.45813 7.00502 8.45813H6.53141C6.51918 8.45813 6.51307 8.44924 6.51307 8.43739C6.51307 8.42554 6.51918 8.41665 6.53141 8.41665H6.53446ZM6.68724 8.10257H6.72391V8.12628H6.75141V8.10257H6.79113V8.12924H6.81863V8.09961H6.8553V8.15887C6.8553 8.17072 6.84919 8.17665 6.84002 8.17665H6.70557C6.69641 8.17665 6.68724 8.17072 6.68724 8.16183V8.10257ZM6.8278 8.18257L6.83696 8.3722H6.70557L6.71474 8.17961H6.8278" fill="#FFFF00"/>
<path d="M6.8278 8.18257L6.83696 8.3722H6.70557L6.71474 8.17961H6.8278M6.69946 8.63887C6.69946 8.54109 6.76974 8.51443 6.76974 8.51443C6.76974 8.51443 6.84002 8.54406 6.84002 8.63887H6.69946ZM6.52224 8.3722H7.0203C7.02946 8.3722 7.03863 8.38405 7.03863 8.39591C7.03863 8.4048 7.02946 8.41368 7.0203 8.41368H6.52224C6.51307 8.41368 6.50391 8.4048 6.50391 8.39294C6.50391 8.38405 6.51307 8.37517 6.52224 8.37517V8.3722ZM6.53446 8.41665H7.00502C7.01419 8.41665 7.02335 8.42554 7.02335 8.43739C7.02335 8.44924 7.01419 8.45813 7.00502 8.45813H6.53141C6.51918 8.45813 6.51307 8.44924 6.51307 8.43739C6.51307 8.42554 6.51918 8.41665 6.53141 8.41665H6.53446ZM6.68724 8.10257H6.72391V8.12628H6.75141V8.10257H6.79113V8.12924H6.81863V8.09961H6.8553V8.15887C6.8553 8.17072 6.84919 8.17665 6.84002 8.17665H6.70557C6.69641 8.17665 6.68724 8.17072 6.68724 8.16183V8.10257Z" stroke="black" stroke-width="0.0666669"/>
<path d="M6.6691 8.27148V8.37223H6.54688V8.27148H6.6691Z" fill="#FFFF00" stroke="black" stroke-width="0.0666669"/>
<path d="M6.6691 8.27148V8.37223H6.54688V8.27148H6.6691Z" fill="#FFFF00" stroke="black" stroke-width="0.0666669"/>
<path d="M6.52539 8.19336H6.56206V8.22299H6.58956V8.19336H6.62622V8.22299H6.65372V8.19336H6.69039V8.25262C6.69039 8.26447 6.68428 8.2704 6.67511 8.2704H6.54372C6.53886 8.2704 6.5342 8.26852 6.53076 8.26519C6.52732 8.26186 6.52539 8.25733 6.52539 8.25262V8.19336Z" fill="#FFFF00" stroke="black" stroke-width="0.0666669"/>
<path d="M6.52539 8.19336H6.56206V8.22299H6.58956V8.19336H6.62622V8.22299H6.65372V8.19336H6.69039V8.25262C6.69039 8.26447 6.68428 8.2704 6.67511 8.2704H6.54372C6.53886 8.2704 6.5342 8.26852 6.53076 8.26519C6.52732 8.26186 6.52539 8.25733 6.52539 8.25262V8.19336Z" fill="#FFFF00" stroke="black" stroke-width="0.0666669"/>
<path d="M6.75781 8.24185C6.75781 8.22407 6.78531 8.22407 6.78531 8.24185V8.28926H6.75781V8.24185Z" fill="black"/>
<path d="M6.5957 8.3063C6.5957 8.28852 6.62015 8.28852 6.62015 8.3063V8.34186H6.5957V8.3063Z" fill="black"/>
<path d="M6.5957 8.3063C6.5957 8.28852 6.62015 8.28852 6.62015 8.3063V8.34186H6.5957V8.3063Z" fill="black"/>
<path d="M6.64453 8.6507C6.64759 8.48774 6.76675 8.44922 6.76675 8.44922C6.76981 8.44922 6.89814 8.4907 6.89814 8.65366H6.64453" fill="#FFFF00"/>
<path d="M6.54108 8.45218L6.51969 8.63885H6.64802C6.64802 8.48477 6.77024 8.46107 6.77024 8.46107C6.7733 8.46107 6.89247 8.49366 6.89552 8.63885H7.02386L6.99941 8.44922H6.54108V8.45218ZM6.51052 8.64181H7.02997C7.03913 8.64181 7.0483 8.6507 7.0483 8.66255C7.0483 8.67737 7.03913 8.68626 7.02997 8.68626H6.51052C6.50135 8.68626 6.49219 8.67737 6.49219 8.66255C6.49219 8.6507 6.50135 8.64181 6.51358 8.64181H6.51052Z" fill="#FFFF00" stroke="black" stroke-width="0.0666669"/>
<path d="M6.69946 8.63887C6.69946 8.54109 6.76974 8.51443 6.76974 8.51443C6.76974 8.51443 6.84002 8.54406 6.84002 8.63887H6.69946ZM6.52224 8.3722H7.0203C7.02946 8.3722 7.03863 8.38405 7.03863 8.39591C7.03863 8.4048 7.02946 8.41368 7.0203 8.41368H6.52224C6.51307 8.41368 6.50391 8.4048 6.50391 8.39294C6.50391 8.38405 6.51307 8.37517 6.52224 8.37517V8.3722ZM6.53446 8.41665H7.00502C7.01419 8.41665 7.02335 8.42554 7.02335 8.43739C7.02335 8.44924 7.01419 8.45813 7.00502 8.45813H6.53141C6.51918 8.45813 6.51307 8.44924 6.51307 8.43739C6.51307 8.42554 6.51918 8.41665 6.53141 8.41665H6.53446ZM6.68724 8.10257H6.72391V8.12628H6.75141V8.10257H6.79113V8.12924H6.81863V8.09961H6.8553V8.15887C6.8553 8.17072 6.84919 8.17665 6.84002 8.17665H6.70557C6.69641 8.17665 6.68724 8.17072 6.68724 8.16183V8.10257ZM6.8278 8.18257L6.83696 8.3722H6.70557L6.71474 8.17961H6.8278" fill="#FFFF00"/>
<path d="M6.8278 8.18257L6.83696 8.3722H6.70557L6.71474 8.17961H6.8278M6.69946 8.63887C6.69946 8.54109 6.76974 8.51443 6.76974 8.51443C6.76974 8.51443 6.84002 8.54406 6.84002 8.63887H6.69946ZM6.52224 8.3722H7.0203C7.02946 8.3722 7.03863 8.38405 7.03863 8.39591C7.03863 8.4048 7.02946 8.41368 7.0203 8.41368H6.52224C6.51307 8.41368 6.50391 8.4048 6.50391 8.39294C6.50391 8.38405 6.51307 8.37517 6.52224 8.37517V8.3722ZM6.53446 8.41665H7.00502C7.01419 8.41665 7.02335 8.42554 7.02335 8.43739C7.02335 8.44924 7.01419 8.45813 7.00502 8.45813H6.53141C6.51918 8.45813 6.51307 8.44924 6.51307 8.43739C6.51307 8.42554 6.51918 8.41665 6.53141 8.41665H6.53446ZM6.68724 8.10257H6.72391V8.12628H6.75141V8.10257H6.79113V8.12924H6.81863V8.09961H6.8553V8.15887C6.8553 8.17072 6.84919 8.17665 6.84002 8.17665H6.70557C6.69641 8.17665 6.68724 8.17072 6.68724 8.16183V8.10257Z" stroke="black" stroke-width="0.0666669"/>
<path d="M6.6691 8.27148V8.37223H6.54688V8.27148H6.6691Z" fill="#FFFF00" stroke="black" stroke-width="0.0666669"/>
<path d="M6.6691 8.27148V8.37223H6.54688V8.27148H6.6691Z" fill="#FFFF00" stroke="black" stroke-width="0.0666669"/>
<path d="M6.52539 8.19336H6.56206V8.22299H6.58956V8.19336H6.62622V8.22299H6.65372V8.19336H6.69039V8.25262C6.69039 8.26447 6.68428 8.2704 6.67511 8.2704H6.54372C6.53886 8.2704 6.5342 8.26852 6.53076 8.26519C6.52732 8.26186 6.52539 8.25733 6.52539 8.25262V8.19336Z" fill="#FFFF00" stroke="black" stroke-width="0.0666669"/>
<path d="M6.52539 8.19336H6.56206V8.22299H6.58956V8.19336H6.62622V8.22299H6.65372V8.19336H6.69039V8.25262C6.69039 8.26447 6.68428 8.2704 6.67511 8.2704H6.54372C6.53886 8.2704 6.5342 8.26852 6.53076 8.26519C6.52732 8.26186 6.52539 8.25733 6.52539 8.25262V8.19336Z" fill="#FFFF00" stroke="black" stroke-width="0.0666669"/>
<path d="M6.75781 8.24185C6.75781 8.22407 6.78531 8.22407 6.78531 8.24185V8.28926H6.75781V8.24185Z" fill="black"/>
<path d="M6.5957 8.3063C6.5957 8.28852 6.62015 8.28852 6.62015 8.3063V8.34186H6.5957V8.3063Z" fill="black"/>
<path d="M6.5957 8.3063C6.5957 8.28852 6.62015 8.28852 6.62015 8.3063V8.34186H6.5957V8.3063Z" fill="black"/>
<path d="M7.19447 11.4527C7.07724 11.3356 7.13292 11.2265 7.13292 11.2265C7.13507 11.2244 7.25581 11.1655 7.37518 11.2804L7.19664 11.4548" fill="#FFFF00"/>
<path d="M6.97605 11.3825L7.09777 11.529L7.18814 11.4407C7.07525 11.332 7.14395 11.2312 7.14395 11.2312C7.1461 11.2291 7.2539 11.1702 7.36243 11.2705L7.45281 11.1823L7.29665 11.0653L6.97388 11.3804L6.97605 11.3825ZM7.09348 11.5373L7.45928 11.1801C7.46574 11.1738 7.47871 11.1738 7.48739 11.1822C7.49825 11.1926 7.49831 11.2052 7.49185 11.2115L7.12605 11.5687C7.11959 11.575 7.10663 11.575 7.09577 11.5646C7.08709 11.5562 7.08703 11.5437 7.09564 11.5352L7.09348 11.5373Z" fill="#FFFF00" stroke="black" stroke-width="0.0666669"/>
<path d="M7.226 11.4061C7.15438 11.3371 7.18432 11.27 7.18432 11.27C7.18432 11.27 7.25549 11.2426 7.32494 11.3094L7.226 11.4061ZM6.90593 11.3398L7.25652 10.9974C7.26297 10.9911 7.2781 10.9932 7.28678 11.0016C7.2933 11.0078 7.29335 11.0204 7.2869 11.0267L6.93631 11.3691C6.92986 11.3754 6.9169 11.3754 6.90821 11.367C6.9017 11.3608 6.90165 11.3482 6.9081 11.3419L6.90593 11.3398ZM6.94709 11.3628L7.27832 11.0393C7.28477 11.033 7.29773 11.033 7.30641 11.0413C7.3151 11.0497 7.31515 11.0622 7.3087 11.0685L6.97532 11.3941C6.96671 11.4025 6.9559 11.4004 6.94722 11.3921C6.93854 11.3837 6.93633 11.3733 6.94493 11.3649L6.94709 11.3628ZM6.82458 11.0362L6.85039 11.011L6.86775 11.0277L6.88711 11.0088L6.86975 10.9921L6.89771 10.9648L6.91724 10.9836L6.9366 10.9647L6.9149 10.9438L6.94071 10.9186L6.98411 10.9604C6.99279 10.9688 6.99283 10.9771 6.98638 10.9834L6.89174 11.0759C6.88529 11.0822 6.8745 11.0843 6.86799 11.078L6.82458 11.0362ZM6.98212 10.996L7.12747 11.1235L7.03498 11.2138L6.90037 11.0716L6.97995 10.9939" fill="#FFFF00"/>
<path d="M6.98212 10.996L7.12747 11.1235L7.03498 11.2138L6.90037 11.0716L6.97995 10.9939M7.226 11.4061C7.15438 11.3371 7.18432 11.27 7.18432 11.27C7.18432 11.27 7.25549 11.2426 7.32494 11.3094L7.226 11.4061ZM6.90593 11.3398L7.25652 10.9974C7.26297 10.9911 7.2781 10.9932 7.28678 11.0016C7.2933 11.0078 7.29335 11.0204 7.2869 11.0267L6.93631 11.3691C6.92986 11.3754 6.9169 11.3754 6.90821 11.367C6.9017 11.3608 6.90165 11.3482 6.9081 11.3419L6.90593 11.3398ZM6.94709 11.3628L7.27832 11.0393C7.28477 11.033 7.29773 11.033 7.30641 11.0413C7.3151 11.0497 7.31515 11.0622 7.3087 11.0685L6.97532 11.3941C6.96671 11.4025 6.9559 11.4004 6.94722 11.3921C6.93854 11.3837 6.93633 11.3733 6.94493 11.3649L6.94709 11.3628ZM6.82458 11.0362L6.85039 11.011L6.86775 11.0277L6.88711 11.0088L6.86975 10.9921L6.89771 10.9648L6.91724 10.9836L6.9366 10.9647L6.9149 10.9438L6.94071 10.9186L6.98411 10.9604C6.99279 10.9688 6.99283 10.9771 6.98638 10.9834L6.89174 11.0759C6.88529 11.0822 6.8745 11.0843 6.86799 11.078L6.82458 11.0362Z" stroke="black" stroke-width="0.0666669"/>
<path d="M6.93565 11.1679L7.00945 11.239L6.9234 11.323L6.84961 11.252L6.93565 11.1679Z" fill="#FFFF00" stroke="black" stroke-width="0.0666669"/>
<path d="M6.93565 11.1679L7.00945 11.239L6.9234 11.323L6.84961 11.252L6.93565 11.1679Z" fill="#FFFF00" stroke="black" stroke-width="0.0666669"/>
<path d="M6.77734 11.2129L6.80316 11.1877L6.82487 11.2086L6.84424 11.1897L6.82253 11.1688L6.84835 11.1436L6.87006 11.1645L6.88942 11.1455L6.86771 11.1246L6.89353 11.0994L6.93695 11.1412C6.94564 11.1496 6.94568 11.158 6.93922 11.1643L6.8467 11.2546C6.84328 11.258 6.83862 11.2599 6.83376 11.2599C6.82889 11.2599 6.82422 11.258 6.82076 11.2547L6.77734 11.2129Z" fill="#FFFF00" stroke="black" stroke-width="0.0666669"/>
<path d="M6.77734 11.2129L6.80316 11.1877L6.82487 11.2086L6.84424 11.1897L6.82253 11.1688L6.84835 11.1436L6.87006 11.1645L6.88942 11.1455L6.86771 11.1246L6.89353 11.0994L6.93695 11.1412C6.94564 11.1496 6.94568 11.158 6.93922 11.1643L6.8467 11.2546C6.84328 11.258 6.83862 11.2599 6.83376 11.2599C6.82889 11.2599 6.82422 11.258 6.82076 11.2547L6.77734 11.2129Z" fill="#FFFF00" stroke="black" stroke-width="0.0666669"/>
<path d="M6.97656 11.0856C6.96354 11.073 6.98289 11.0541 6.99591 11.0667L7.03062 11.1001L7.01127 11.119L6.97656 11.0856Z" fill="black"/>
<path d="M6.91015 11.2438C6.89714 11.2312 6.91434 11.2144 6.92735 11.227L6.95339 11.252L6.93619 11.2688L6.91015 11.2438Z" fill="black"/>
<path d="M6.91015 11.2438C6.89714 11.2312 6.91434 11.2144 6.92735 11.227L6.95339 11.252L6.93619 11.2688L6.91015 11.2438Z" fill="black"/>
<path d="M6.64453 8.6507C6.64759 8.48774 6.76675 8.44922 6.76675 8.44922C6.76981 8.44922 6.89814 8.4907 6.89814 8.65366H6.64453" fill="#FFFF00"/>
<path d="M6.54108 8.45218L6.51969 8.63885H6.64802C6.64802 8.48477 6.77024 8.46107 6.77024 8.46107C6.7733 8.46107 6.89247 8.49366 6.89552 8.63885H7.02386L6.99941 8.44922H6.54108V8.45218ZM6.51052 8.64181H7.02997C7.03913 8.64181 7.0483 8.6507 7.0483 8.66255C7.0483 8.67737 7.03913 8.68626 7.02997 8.68626H6.51052C6.50135 8.68626 6.49219 8.67737 6.49219 8.66255C6.49219 8.6507 6.50135 8.64181 6.51358 8.64181H6.51052Z" fill="#FFFF00" stroke="black" stroke-width="0.0666669"/>
<path d="M6.69946 8.63887C6.69946 8.54109 6.76974 8.51443 6.76974 8.51443C6.76974 8.51443 6.84002 8.54406 6.84002 8.63887H6.69946ZM6.52224 8.3722H7.0203C7.02946 8.3722 7.03863 8.38405 7.03863 8.39591C7.03863 8.4048 7.02946 8.41368 7.0203 8.41368H6.52224C6.51307 8.41368 6.50391 8.4048 6.50391 8.39294C6.50391 8.38405 6.51307 8.37517 6.52224 8.37517V8.3722ZM6.53446 8.41665H7.00502C7.01419 8.41665 7.02335 8.42554 7.02335 8.43739C7.02335 8.44924 7.01419 8.45813 7.00502 8.45813H6.53141C6.51918 8.45813 6.51307 8.44924 6.51307 8.43739C6.51307 8.42554 6.51918 8.41665 6.53141 8.41665H6.53446ZM6.68724 8.10257H6.72391V8.12628H6.75141V8.10257H6.79113V8.12924H6.81863V8.09961H6.8553V8.15887C6.8553 8.17072 6.84919 8.17665 6.84002 8.17665H6.70557C6.69641 8.17665 6.68724 8.17072 6.68724 8.16183V8.10257ZM6.8278 8.18257L6.83696 8.3722H6.70557L6.71474 8.17961H6.8278" fill="#FFFF00"/>
<path d="M6.8278 8.18257L6.83696 8.3722H6.70557L6.71474 8.17961H6.8278M6.69946 8.63887C6.69946 8.54109 6.76974 8.51443 6.76974 8.51443C6.76974 8.51443 6.84002 8.54406 6.84002 8.63887H6.69946ZM6.52224 8.3722H7.0203C7.02946 8.3722 7.03863 8.38405 7.03863 8.39591C7.03863 8.4048 7.02946 8.41368 7.0203 8.41368H6.52224C6.51307 8.41368 6.50391 8.4048 6.50391 8.39294C6.50391 8.38405 6.51307 8.37517 6.52224 8.37517V8.3722ZM6.53446 8.41665H7.00502C7.01419 8.41665 7.02335 8.42554 7.02335 8.43739C7.02335 8.44924 7.01419 8.45813 7.00502 8.45813H6.53141C6.51918 8.45813 6.51307 8.44924 6.51307 8.43739C6.51307 8.42554 6.51918 8.41665 6.53141 8.41665H6.53446ZM6.68724 8.10257H6.72391V8.12628H6.75141V8.10257H6.79113V8.12924H6.81863V8.09961H6.8553V8.15887C6.8553 8.17072 6.84919 8.17665 6.84002 8.17665H6.70557C6.69641 8.17665 6.68724 8.17072 6.68724 8.16183V8.10257Z" stroke="black" stroke-width="0.0666669"/>
<path d="M6.6691 8.27148V8.37223H6.54688V8.27148H6.6691Z" fill="#FFFF00" stroke="black" stroke-width="0.0666669"/>
<path d="M6.6691 8.27148V8.37223H6.54688V8.27148H6.6691Z" fill="#FFFF00" stroke="black" stroke-width="0.0666669"/>
<path d="M6.52539 8.19336H6.56206V8.22299H6.58956V8.19336H6.62622V8.22299H6.65372V8.19336H6.69039V8.25262C6.69039 8.26447 6.68428 8.2704 6.67511 8.2704H6.54372C6.53886 8.2704 6.5342 8.26852 6.53076 8.26519C6.52732 8.26186 6.52539 8.25733 6.52539 8.25262V8.19336Z" fill="#FFFF00" stroke="black" stroke-width="0.0666669"/>
<path d="M6.52539 8.19336H6.56206V8.22299H6.58956V8.19336H6.62622V8.22299H6.65372V8.19336H6.69039V8.25262C6.69039 8.26447 6.68428 8.2704 6.67511 8.2704H6.54372C6.53886 8.2704 6.5342 8.26852 6.53076 8.26519C6.52732 8.26186 6.52539 8.25733 6.52539 8.25262V8.19336Z" fill="#FFFF00" stroke="black" stroke-width="0.0666669"/>
<path d="M6.75781 8.24185C6.75781 8.22407 6.78531 8.22407 6.78531 8.24185V8.28926H6.75781V8.24185Z" fill="black"/>
<path d="M6.5957 8.3063C6.5957 8.28852 6.62015 8.28852 6.62015 8.3063V8.34186H6.5957V8.3063Z" fill="black"/>
<path d="M6.5957 8.3063C6.5957 8.28852 6.62015 8.28852 6.62015 8.3063V8.34186H6.5957V8.3063Z" fill="black"/>
<path d="M9.68359 8.6507C9.68054 8.48774 9.56137 8.44922 9.56137 8.44922C9.55832 8.44922 9.42998 8.4907 9.42998 8.65366H9.68359" fill="#FFFF00"/>
<path d="M9.78705 8.45218L9.80844 8.63885H9.6801C9.6801 8.48477 9.55788 8.46107 9.55788 8.46107C9.55483 8.46107 9.43566 8.49366 9.4326 8.63885H9.30427L9.32871 8.44922H9.78705V8.45218ZM9.8176 8.64181H9.29816C9.28899 8.64181 9.27982 8.6507 9.27982 8.66255C9.27982 8.67737 9.28899 8.68626 9.29816 8.68626H9.8176C9.82677 8.68626 9.83594 8.67737 9.83594 8.66255C9.83594 8.6507 9.82677 8.64181 9.81455 8.64181H9.8176Z" fill="#FFFF00" stroke="black" stroke-width="0.0666669"/>
<path d="M9.62866 8.63887C9.62866 8.54109 9.55838 8.51443 9.55838 8.51443C9.55838 8.51443 9.48811 8.54406 9.48811 8.63887H9.62866ZM9.80589 8.3722H9.30783C9.29866 8.3722 9.28949 8.38405 9.28949 8.39591C9.28949 8.4048 9.29866 8.41368 9.30783 8.41368H9.80589C9.81505 8.41368 9.82422 8.4048 9.82422 8.39294C9.82422 8.38405 9.81505 8.37517 9.80589 8.37517V8.3722ZM9.79366 8.41665H9.32311C9.31394 8.41665 9.30477 8.42554 9.30477 8.43739C9.30477 8.44924 9.31394 8.45813 9.32311 8.45813H9.79672C9.80894 8.45813 9.81505 8.44924 9.81505 8.43739C9.81505 8.42554 9.80894 8.41665 9.79672 8.41665H9.79366ZM9.64088 8.10257H9.60422V8.12628H9.57672V8.10257H9.537V8.12924H9.5095V8.09961H9.47283V8.15887C9.47283 8.17072 9.47894 8.17665 9.48811 8.17665H9.62255C9.63172 8.17665 9.64088 8.17072 9.64088 8.16183V8.10257ZM9.50033 8.18257L9.49116 8.3722H9.62255L9.61338 8.17961H9.50033" fill="#FFFF00"/>
<path d="M9.50033 8.18257L9.49116 8.3722H9.62255L9.61338 8.17961H9.50033M9.62866 8.63887C9.62866 8.54109 9.55838 8.51443 9.55838 8.51443C9.55838 8.51443 9.48811 8.54406 9.48811 8.63887H9.62866ZM9.80589 8.3722H9.30783C9.29866 8.3722 9.28949 8.38405 9.28949 8.39591C9.28949 8.4048 9.29866 8.41368 9.30783 8.41368H9.80589C9.81505 8.41368 9.82422 8.4048 9.82422 8.39294C9.82422 8.38405 9.81505 8.37517 9.80589 8.37517V8.3722ZM9.79366 8.41665H9.32311C9.31394 8.41665 9.30477 8.42554 9.30477 8.43739C9.30477 8.44924 9.31394 8.45813 9.32311 8.45813H9.79672C9.80894 8.45813 9.81505 8.44924 9.81505 8.43739C9.81505 8.42554 9.80894 8.41665 9.79672 8.41665H9.79366ZM9.64088 8.10257H9.60422V8.12628H9.57672V8.10257H9.537V8.12924H9.5095V8.09961H9.47283V8.15887C9.47283 8.17072 9.47894 8.17665 9.48811 8.17665H9.62255C9.63172 8.17665 9.64088 8.17072 9.64088 8.16183V8.10257Z" stroke="black" stroke-width="0.0666669"/>
<path d="M9.65903 8.27148V8.37223H9.78125V8.27148H9.65903Z" fill="#FFFF00" stroke="black" stroke-width="0.0666669"/>
<path d="M9.65903 8.27148V8.37223H9.78125V8.27148H9.65903Z" fill="#FFFF00" stroke="black" stroke-width="0.0666669"/>
<path d="M9.80273 8.19336H9.76607V8.22299H9.73857V8.19336H9.7019V8.22299H9.6744V8.19336H9.63773V8.25262C9.63773 8.26447 9.64385 8.2704 9.65301 8.2704H9.7844C9.78926 8.2704 9.79393 8.26852 9.79736 8.26519C9.8008 8.26186 9.80273 8.25733 9.80273 8.25262V8.19336Z" fill="#FFFF00" stroke="black" stroke-width="0.0666669"/>
<path d="M9.80273 8.19336H9.76607V8.22299H9.73857V8.19336H9.7019V8.22299H9.6744V8.19336H9.63773V8.25262C9.63773 8.26447 9.64385 8.2704 9.65301 8.2704H9.7844C9.78926 8.2704 9.79393 8.26852 9.79736 8.26519C9.8008 8.26186 9.80273 8.25733 9.80273 8.25262V8.19336Z" fill="#FFFF00" stroke="black" stroke-width="0.0666669"/>
<path d="M9.57031 8.24185C9.57031 8.22407 9.54281 8.22407 9.54281 8.24185V8.28926H9.57031V8.24185Z" fill="black"/>
<path d="M9.73242 8.3063C9.73242 8.28852 9.70798 8.28852 9.70798 8.3063V8.34186H9.73242V8.3063Z" fill="black"/>
<path d="M9.73242 8.3063C9.73242 8.28852 9.70798 8.28852 9.70798 8.3063V8.34186H9.73242V8.3063Z" fill="black"/>
<path d="M9.68359 8.6507C9.68054 8.48774 9.56137 8.44922 9.56137 8.44922C9.55832 8.44922 9.42998 8.4907 9.42998 8.65366H9.68359" fill="#FFFF00"/>
<path d="M9.78705 8.45218L9.80844 8.63885H9.6801C9.6801 8.48477 9.55788 8.46107 9.55788 8.46107C9.55483 8.46107 9.43566 8.49366 9.4326 8.63885H9.30427L9.32871 8.44922H9.78705V8.45218ZM9.8176 8.64181H9.29816C9.28899 8.64181 9.27982 8.6507 9.27982 8.66255C9.27982 8.67737 9.28899 8.68626 9.29816 8.68626H9.8176C9.82677 8.68626 9.83594 8.67737 9.83594 8.66255C9.83594 8.6507 9.82677 8.64181 9.81455 8.64181H9.8176Z" fill="#FFFF00" stroke="black" stroke-width="0.0666669"/>
<path d="M9.62866 8.63887C9.62866 8.54109 9.55838 8.51443 9.55838 8.51443C9.55838 8.51443 9.48811 8.54406 9.48811 8.63887H9.62866ZM9.80589 8.3722H9.30783C9.29866 8.3722 9.28949 8.38405 9.28949 8.39591C9.28949 8.4048 9.29866 8.41368 9.30783 8.41368H9.80589C9.81505 8.41368 9.82422 8.4048 9.82422 8.39294C9.82422 8.38405 9.81505 8.37517 9.80589 8.37517V8.3722ZM9.79366 8.41665H9.32311C9.31394 8.41665 9.30477 8.42554 9.30477 8.43739C9.30477 8.44924 9.31394 8.45813 9.32311 8.45813H9.79672C9.80894 8.45813 9.81505 8.44924 9.81505 8.43739C9.81505 8.42554 9.80894 8.41665 9.79672 8.41665H9.79366ZM9.64088 8.10257H9.60422V8.12628H9.57672V8.10257H9.537V8.12924H9.5095V8.09961H9.47283V8.15887C9.47283 8.17072 9.47894 8.17665 9.48811 8.17665H9.62255C9.63172 8.17665 9.64088 8.17072 9.64088 8.16183V8.10257ZM9.50033 8.18257L9.49116 8.3722H9.62255L9.61338 8.17961H9.50033" fill="#FFFF00"/>
<path d="M9.50033 8.18257L9.49116 8.3722H9.62255L9.61338 8.17961H9.50033M9.62866 8.63887C9.62866 8.54109 9.55838 8.51443 9.55838 8.51443C9.55838 8.51443 9.48811 8.54406 9.48811 8.63887H9.62866ZM9.80589 8.3722H9.30783C9.29866 8.3722 9.28949 8.38405 9.28949 8.39591C9.28949 8.4048 9.29866 8.41368 9.30783 8.41368H9.80589C9.81505 8.41368 9.82422 8.4048 9.82422 8.39294C9.82422 8.38405 9.81505 8.37517 9.80589 8.37517V8.3722ZM9.79366 8.41665H9.32311C9.31394 8.41665 9.30477 8.42554 9.30477 8.43739C9.30477 8.44924 9.31394 8.45813 9.32311 8.45813H9.79672C9.80894 8.45813 9.81505 8.44924 9.81505 8.43739C9.81505 8.42554 9.80894 8.41665 9.79672 8.41665H9.79366ZM9.64088 8.10257H9.60422V8.12628H9.57672V8.10257H9.537V8.12924H9.5095V8.09961H9.47283V8.15887C9.47283 8.17072 9.47894 8.17665 9.48811 8.17665H9.62255C9.63172 8.17665 9.64088 8.17072 9.64088 8.16183V8.10257Z" stroke="black" stroke-width="0.0666669"/>
<path d="M9.65903 8.27148V8.37223H9.78125V8.27148H9.65903Z" fill="#FFFF00" stroke="black" stroke-width="0.0666669"/>
<path d="M9.65903 8.27148V8.37223H9.78125V8.27148H9.65903Z" fill="#FFFF00" stroke="black" stroke-width="0.0666669"/>
<path d="M9.80273 8.19336H9.76607V8.22299H9.73857V8.19336H9.7019V8.22299H9.6744V8.19336H9.63773V8.25262C9.63773 8.26447 9.64385 8.2704 9.65301 8.2704H9.7844C9.78926 8.2704 9.79393 8.26852 9.79736 8.26519C9.8008 8.26186 9.80273 8.25733 9.80273 8.25262V8.19336Z" fill="#FFFF00" stroke="black" stroke-width="0.0666669"/>
<path d="M9.80273 8.19336H9.76607V8.22299H9.73857V8.19336H9.7019V8.22299H9.6744V8.19336H9.63773V8.25262C9.63773 8.26447 9.64385 8.2704 9.65301 8.2704H9.7844C9.78926 8.2704 9.79393 8.26852 9.79736 8.26519C9.8008 8.26186 9.80273 8.25733 9.80273 8.25262V8.19336Z" fill="#FFFF00" stroke="black" stroke-width="0.0666669"/>
<path d="M9.57031 8.24185C9.57031 8.22407 9.54281 8.22407 9.54281 8.24185V8.28926H9.57031V8.24185Z" fill="black"/>
<path d="M9.73242 8.3063C9.73242 8.28852 9.70798 8.28852 9.70798 8.3063V8.34186H9.73242V8.3063Z" fill="black"/>
<path d="M9.73242 8.3063C9.73242 8.28852 9.70798 8.28852 9.70798 8.3063V8.34186H9.73242V8.3063Z" fill="black"/>
<path d="M9.13171 11.4527C9.24893 11.3356 9.19325 11.2265 9.19325 11.2265C9.1911 11.2244 9.07037 11.1655 8.95099 11.2804L9.12954 11.4548" fill="#FFFF00"/>
<path d="M9.35012 11.3825L9.2284 11.529L9.13803 11.4407C9.25093 11.332 9.18222 11.2312 9.18222 11.2312C9.18007 11.2291 9.07227 11.1702 8.96374 11.2705L8.87336 11.1823L9.02953 11.0653L9.35229 11.3804L9.35012 11.3825ZM9.23269 11.5373L8.86689 11.1801C8.86043 11.1738 8.84746 11.1738 8.83878 11.1822C8.82792 11.1926 8.82787 11.2052 8.83432 11.2115L9.20012 11.5687C9.20658 11.575 9.21955 11.575 9.2304 11.5646C9.23909 11.5562 9.23914 11.5437 9.23054 11.5352L9.23269 11.5373Z" fill="#FFFF00" stroke="black" stroke-width="0.0666669"/>
<path d="M9.10212 11.4061C9.17374 11.3371 9.14381 11.27 9.14381 11.27C9.14381 11.27 9.07263 11.2426 9.00318 11.3094L9.10212 11.4061ZM9.4222 11.3398L9.07161 10.9974C9.06515 10.9911 9.05002 10.9932 9.04134 11.0016C9.03483 11.0078 9.03477 11.0204 9.04122 11.0267L9.39181 11.3691C9.39827 11.3754 9.41123 11.3754 9.41991 11.367C9.42642 11.3608 9.42648 11.3482 9.42003 11.3419L9.4222 11.3398ZM9.38104 11.3628L9.04981 11.0393C9.04336 11.033 9.03039 11.033 9.02171 11.0413C9.01303 11.0497 9.01297 11.0622 9.01942 11.0685L9.35281 11.3941C9.36141 11.4025 9.37222 11.4004 9.3809 11.3921C9.38959 11.3837 9.39179 11.3733 9.38319 11.3649L9.38104 11.3628ZM9.50354 11.0362L9.47773 11.011L9.46037 11.0277L9.44101 11.0088L9.45838 10.9921L9.43042 10.9648L9.41088 10.9836L9.39153 10.9647L9.41323 10.9438L9.38742 10.9186L9.34401 10.9604C9.33533 10.9688 9.33529 10.9771 9.34174 10.9834L9.43638 11.0759C9.44284 11.0822 9.45363 11.0843 9.46014 11.078L9.50354 11.0362ZM9.34601 10.996L9.20066 11.1235L9.29315 11.2138L9.42776 11.0716L9.34818 10.9939" fill="#FFFF00"/>
<path d="M9.34601 10.996L9.20066 11.1235L9.29315 11.2138L9.42776 11.0716L9.34818 10.9939M9.10212 11.4061C9.17374 11.3371 9.14381 11.27 9.14381 11.27C9.14381 11.27 9.07263 11.2426 9.00319 11.3094L9.10212 11.4061ZM9.4222 11.3398L9.07161 10.9974C9.06515 10.9911 9.05002 10.9932 9.04134 11.0016C9.03483 11.0078 9.03477 11.0204 9.04122 11.0267L9.39181 11.3691C9.39827 11.3754 9.41123 11.3754 9.41991 11.367C9.42642 11.3608 9.42648 11.3482 9.42003 11.3419L9.4222 11.3398ZM9.38104 11.3628L9.04981 11.0393C9.04336 11.033 9.03039 11.033 9.02171 11.0413C9.01303 11.0497 9.01297 11.0622 9.01942 11.0685L9.35281 11.3941C9.36141 11.4025 9.37222 11.4004 9.3809 11.3921C9.38959 11.3837 9.39179 11.3733 9.38319 11.3649L9.38104 11.3628ZM9.50354 11.0362L9.47773 11.011L9.46037 11.0277L9.44101 11.0088L9.45838 10.9921L9.43042 10.9648L9.41088 10.9836L9.39153 10.9647L9.41323 10.9438L9.38742 10.9186L9.34401 10.9604C9.33533 10.9688 9.33529 10.9771 9.34174 10.9834L9.43638 11.0759C9.44284 11.0822 9.45363 11.0843 9.46014 11.078L9.50354 11.0362Z" stroke="black" stroke-width="0.0666669"/>
<path d="M9.39247 11.1679L9.31868 11.239L9.40472 11.323L9.47852 11.252L9.39247 11.1679Z" fill="#FFFF00" stroke="black" stroke-width="0.0666669"/>
<path d="M9.39247 11.1679L9.31868 11.239L9.40472 11.323L9.47852 11.252L9.39247 11.1679Z" fill="#FFFF00" stroke="black" stroke-width="0.0666669"/>
<path d="M9.55078 11.2129L9.52496 11.1877L9.50325 11.2086L9.48389 11.1897L9.5056 11.1688L9.47978 11.1436L9.45807 11.1645L9.4387 11.1455L9.46041 11.1246L9.43459 11.0994L9.39117 11.1412C9.38249 11.1496 9.38245 11.158 9.3889 11.1643L9.48143 11.2546C9.48485 11.258 9.48951 11.2599 9.49437 11.2599C9.49923 11.2599 9.50391 11.258 9.50736 11.2547L9.55078 11.2129Z" fill="#FFFF00" stroke="black" stroke-width="0.0666669"/>
<path d="M9.55078 11.2129L9.52496 11.1877L9.50325 11.2086L9.48389 11.1897L9.5056 11.1688L9.47978 11.1436L9.45807 11.1645L9.4387 11.1455L9.46041 11.1246L9.43459 11.0994L9.39117 11.1412C9.38249 11.1496 9.38245 11.158 9.3889 11.1643L9.48143 11.2546C9.48485 11.258 9.48951 11.2599 9.49437 11.2599C9.49923 11.2599 9.50391 11.258 9.50736 11.2547L9.55078 11.2129Z" fill="#FFFF00" stroke="black" stroke-width="0.0666669"/>
<path d="M9.35157 11.0856C9.36458 11.073 9.34523 11.0541 9.33221 11.0667L9.2975 11.1001L9.31686 11.119L9.35157 11.0856Z" fill="black"/>
<path d="M9.41797 11.2438C9.43099 11.2312 9.41379 11.2144 9.40077 11.227L9.37474 11.252L9.39194 11.2688L9.41797 11.2438Z" fill="black"/>
<path d="M9.41797 11.2438C9.43099 11.2312 9.41379 11.2144 9.40077 11.227L9.37474 11.252L9.39194 11.2688L9.41797 11.2438Z" fill="black"/>
<path d="M7.94142 10.0739C7.94086 10.1364 7.9649 10.1968 8.00864 10.2428C8.02904 10.2649 8.05399 10.2827 8.08187 10.2949C8.10976 10.3072 8.13997 10.3136 8.17058 10.3139C8.23475 10.3139 8.29281 10.2843 8.33253 10.2428C8.37627 10.1968 8.4003 10.1364 8.39975 10.0739V9.75391H7.94142V10.0739Z" fill="#003399"/>
<path d="M8.04779 9.91897C8.0731 9.91897 8.09362 9.89907 8.09362 9.87452C8.09362 9.84998 8.0731 9.83008 8.04779 9.83008C8.02247 9.83008 8.00195 9.84998 8.00195 9.87452C8.00195 9.89907 8.02247 9.91897 8.04779 9.91897Z" fill="white"/>
<path d="M8.30169 9.91897C8.32701 9.91897 8.34753 9.89907 8.34753 9.87452C8.34753 9.84998 8.32701 9.83008 8.30169 9.83008C8.27638 9.83008 8.25586 9.84998 8.25586 9.87452C8.25586 9.89907 8.27638 9.91897 8.30169 9.91897Z" fill="white"/>
<path d="M8.17279 10.0381C8.1981 10.0381 8.21862 10.0182 8.21862 9.99366C8.21862 9.96912 8.1981 9.94922 8.17279 9.94922C8.14747 9.94922 8.12695 9.96912 8.12695 9.99366C8.12695 10.0182 8.14747 10.0381 8.17279 10.0381Z" fill="white"/>
<path d="M8.04779 10.1631C8.0731 10.1631 8.09362 10.1432 8.09362 10.1187C8.09362 10.0941 8.0731 10.0742 8.04779 10.0742C8.02247 10.0742 8.00195 10.0941 8.00195 10.1187C8.00195 10.1432 8.02247 10.1631 8.04779 10.1631Z" fill="white"/>
<path d="M8.30169 10.1631C8.32701 10.1631 8.34753 10.1432 8.34753 10.1187C8.34753 10.0941 8.32701 10.0742 8.30169 10.0742C8.27638 10.0742 8.25586 10.0941 8.25586 10.1187C8.25586 10.1432 8.27638 10.1631 8.30169 10.1631Z" fill="white"/>
<path d="M7.94142 10.0739C7.94086 10.1364 7.9649 10.1968 8.00864 10.2428C8.02904 10.2649 8.05399 10.2827 8.08187 10.2949C8.10976 10.3072 8.13997 10.3136 8.17058 10.3139C8.23475 10.3139 8.29281 10.2843 8.33253 10.2428C8.37627 10.1968 8.4003 10.1364 8.39975 10.0739V9.75391H7.94142V10.0739Z" fill="#003399"/>
<path d="M8.04779 9.91897C8.0731 9.91897 8.09362 9.89907 8.09362 9.87452C8.09362 9.84998 8.0731 9.83008 8.04779 9.83008C8.02247 9.83008 8.00195 9.84998 8.00195 9.87452C8.00195 9.89907 8.02247 9.91897 8.04779 9.91897Z" fill="white"/>
<path d="M8.30169 9.91897C8.32701 9.91897 8.34753 9.89907 8.34753 9.87452C8.34753 9.84998 8.32701 9.83008 8.30169 9.83008C8.27638 9.83008 8.25586 9.84998 8.25586 9.87452C8.25586 9.89907 8.27638 9.91897 8.30169 9.91897Z" fill="white"/>
<path d="M8.17279 10.0381C8.1981 10.0381 8.21862 10.0182 8.21862 9.99366C8.21862 9.96912 8.1981 9.94922 8.17279 9.94922C8.14747 9.94922 8.12695 9.96912 8.12695 9.99366C8.12695 10.0182 8.14747 10.0381 8.17279 10.0381Z" fill="white"/>
<path d="M8.04779 10.1631C8.0731 10.1631 8.09362 10.1432 8.09362 10.1187C8.09362 10.0941 8.0731 10.0742 8.04779 10.0742C8.02247 10.0742 8.00195 10.0941 8.00195 10.1187C8.00195 10.1432 8.02247 10.1631 8.04779 10.1631Z" fill="white"/>
<path d="M8.30169 10.1631C8.32701 10.1631 8.34753 10.1432 8.34753 10.1187C8.34753 10.0941 8.32701 10.0742 8.30169 10.0742C8.27638 10.0742 8.25586 10.0941 8.25586 10.1187C8.25586 10.1432 8.27638 10.1631 8.30169 10.1631Z" fill="white"/>
<path d="M7.94142 10.0739C7.94086 10.1364 7.9649 10.1968 8.00864 10.2428C8.02904 10.2649 8.05399 10.2827 8.08187 10.2949C8.10976 10.3072 8.13997 10.3136 8.17058 10.3139C8.23475 10.3139 8.29281 10.2843 8.33253 10.2428C8.37627 10.1968 8.4003 10.1364 8.39975 10.0739V9.75391H7.94142V10.0739Z" fill="#003399"/>
<path d="M8.04779 9.91897C8.0731 9.91897 8.09362 9.89907 8.09362 9.87452C8.09362 9.84998 8.0731 9.83008 8.04779 9.83008C8.02247 9.83008 8.00195 9.84998 8.00195 9.87452C8.00195 9.89907 8.02247 9.91897 8.04779 9.91897Z" fill="white"/>
<path d="M8.30169 9.91897C8.32701 9.91897 8.34753 9.89907 8.34753 9.87452C8.34753 9.84998 8.32701 9.83008 8.30169 9.83008C8.27638 9.83008 8.25586 9.84998 8.25586 9.87452C8.25586 9.89907 8.27638 9.91897 8.30169 9.91897Z" fill="white"/>
<path d="M8.17279 10.0381C8.1981 10.0381 8.21862 10.0182 8.21862 9.99366C8.21862 9.96912 8.1981 9.94922 8.17279 9.94922C8.14747 9.94922 8.12695 9.96912 8.12695 9.99366C8.12695 10.0182 8.14747 10.0381 8.17279 10.0381Z" fill="white"/>
<path d="M8.04779 10.1631C8.0731 10.1631 8.09362 10.1432 8.09362 10.1187C8.09362 10.0941 8.0731 10.0742 8.04779 10.0742C8.02247 10.0742 8.00195 10.0941 8.00195 10.1187C8.00195 10.1432 8.02247 10.1631 8.04779 10.1631Z" fill="white"/>
<path d="M8.30169 10.1631C8.32701 10.1631 8.34753 10.1432 8.34753 10.1187C8.34753 10.0941 8.32701 10.0742 8.30169 10.0742C8.27638 10.0742 8.25586 10.0941 8.25586 10.1187C8.25586 10.1432 8.27638 10.1631 8.30169 10.1631Z" fill="white"/>
<path d="M7.94142 10.0739C7.94086 10.1364 7.9649 10.1968 8.00864 10.2428C8.02904 10.2649 8.05399 10.2827 8.08187 10.2949C8.10976 10.3072 8.13997 10.3136 8.17058 10.3139C8.23475 10.3139 8.29281 10.2843 8.33253 10.2428C8.37627 10.1968 8.4003 10.1364 8.39975 10.0739V9.75391H7.94142V10.0739Z" fill="#003399"/>
<path d="M8.04779 9.91897C8.0731 9.91897 8.09362 9.89907 8.09362 9.87452C8.09362 9.84998 8.0731 9.83008 8.04779 9.83008C8.02247 9.83008 8.00195 9.84998 8.00195 9.87452C8.00195 9.89907 8.02247 9.91897 8.04779 9.91897Z" fill="white"/>
<path d="M8.30169 9.91897C8.32701 9.91897 8.34753 9.89907 8.34753 9.87452C8.34753 9.84998 8.32701 9.83008 8.30169 9.83008C8.27638 9.83008 8.25586 9.84998 8.25586 9.87452C8.25586 9.89907 8.27638 9.91897 8.30169 9.91897Z" fill="white"/>
<path d="M8.17279 10.0381C8.1981 10.0381 8.21862 10.0182 8.21862 9.99366C8.21862 9.96912 8.1981 9.94922 8.17279 9.94922C8.14747 9.94922 8.12695 9.96912 8.12695 9.99366C8.12695 10.0182 8.14747 10.0381 8.17279 10.0381Z" fill="white"/>
<path d="M8.04779 10.1631C8.0731 10.1631 8.09362 10.1432 8.09362 10.1187C8.09362 10.0941 8.0731 10.0742 8.04779 10.0742C8.02247 10.0742 8.00195 10.0941 8.00195 10.1187C8.00195 10.1432 8.02247 10.1631 8.04779 10.1631Z" fill="white"/>
<path d="M8.30169 10.1631C8.32701 10.1631 8.34753 10.1432 8.34753 10.1187C8.34753 10.0941 8.32701 10.0742 8.30169 10.0742C8.27638 10.0742 8.25586 10.0941 8.25586 10.1187C8.25586 10.1432 8.27638 10.1631 8.30169 10.1631Z" fill="white"/>
<path d="M7.94142 10.0739C7.94086 10.1364 7.9649 10.1968 8.00864 10.2428C8.02904 10.2649 8.05399 10.2827 8.08187 10.2949C8.10976 10.3072 8.13997 10.3136 8.17058 10.3139C8.23475 10.3139 8.29281 10.2843 8.33253 10.2428C8.37627 10.1968 8.4003 10.1364 8.39975 10.0739V9.75391H7.94142V10.0739Z" fill="#003399"/>
<path d="M8.04779 9.91897C8.0731 9.91897 8.09362 9.89907 8.09362 9.87452C8.09362 9.84998 8.0731 9.83008 8.04779 9.83008C8.02247 9.83008 8.00195 9.84998 8.00195 9.87452C8.00195 9.89907 8.02247 9.91897 8.04779 9.91897Z" fill="white"/>
<path d="M8.30169 9.91897C8.32701 9.91897 8.34753 9.89907 8.34753 9.87452C8.34753 9.84998 8.32701 9.83008 8.30169 9.83008C8.27638 9.83008 8.25586 9.84998 8.25586 9.87452C8.25586 9.89907 8.27638 9.91897 8.30169 9.91897Z" fill="white"/>
<path d="M8.17279 10.0381C8.1981 10.0381 8.21862 10.0182 8.21862 9.99366C8.21862 9.96912 8.1981 9.94922 8.17279 9.94922C8.14747 9.94922 8.12695 9.96912 8.12695 9.99366C8.12695 10.0182 8.14747 10.0381 8.17279 10.0381Z" fill="white"/>
<path d="M8.04779 10.1631C8.0731 10.1631 8.09362 10.1432 8.09362 10.1187C8.09362 10.0941 8.0731 10.0742 8.04779 10.0742C8.02247 10.0742 8.00195 10.0941 8.00195 10.1187C8.00195 10.1432 8.02247 10.1631 8.04779 10.1631Z" fill="white"/>
<path d="M8.30169 10.1631C8.32701 10.1631 8.34753 10.1432 8.34753 10.1187C8.34753 10.0941 8.32701 10.0742 8.30169 10.0742C8.27638 10.0742 8.25586 10.0941 8.25586 10.1187C8.25586 10.1432 8.27638 10.1631 8.30169 10.1631Z" fill="white"/>
</svg>
