<svg width="20" height="20" viewBox="0 0 20 20" fill="none" xmlns="http://www.w3.org/2000/svg">
<g clip-path="url(#clip0_740_10212)">
<path d="M0.839844 3.33008H19.1698V16.6601H0.839844V3.33008Z" fill="#EE1C25"/>
<path d="M0.839844 3.33008H19.1698V12.2167H0.839844V3.33008Z" fill="#0B4EA2"/>
<path d="M0.839844 3.33008H19.1698V7.77341H0.839844V3.33008Z" fill="white"/>
<path d="M7.51339 13.6281C6.28184 13.0533 4.51758 11.9091 4.51758 9.65135C4.51758 7.3908 4.63214 6.36328 4.63214 6.36328H10.3975C10.3975 6.36328 10.5092 7.3908 10.5092 9.65135C10.5092 11.9119 8.74493 13.0505 7.51339 13.6281Z" fill="white"/>
<path d="M7.51317 13.3271C6.38187 12.7995 4.76367 11.7497 4.76367 9.67802C4.76367 7.60632 4.86678 6.66211 4.86678 6.66211H10.1596C10.1596 6.66211 10.2598 7.60632 10.2598 9.67802C10.2627 11.7525 8.64448 12.7995 7.51317 13.3271Z" fill="#EE1C25"/>
<path d="M7.75395 9.13429C8.0604 9.13985 8.65899 9.15096 9.18884 8.97878C9.18884 8.97878 9.17739 9.16484 9.17739 9.37868C9.17739 9.59251 9.19171 9.77858 9.19171 9.77858C8.70482 9.62028 8.1005 9.61751 7.75395 9.62028V10.7644H7.27279V9.62028C6.9291 9.61751 6.32478 9.62028 5.83789 9.77858C5.83789 9.77858 5.85221 9.59251 5.85221 9.37868C5.85221 9.16207 5.83789 8.97878 5.83789 8.97878C6.36774 9.15096 6.96633 9.13985 7.26992 9.13429V8.41503C6.99211 8.41503 6.59114 8.42614 6.13575 8.57332C6.13575 8.57332 6.15007 8.39004 6.15007 8.17342C6.15007 7.95959 6.13575 7.77352 6.13575 7.77352C6.59114 7.92071 6.99211 7.93459 7.26992 7.93182C7.2556 7.47638 7.11813 6.9043 7.11813 6.9043C7.11813 6.9043 7.40167 6.92374 7.51337 6.92374C7.62793 6.92374 7.90861 6.9043 7.90861 6.9043C7.90861 6.9043 7.77113 7.47638 7.75681 7.93182C8.03463 7.93459 8.4356 7.92071 8.89098 7.77352C8.89098 7.77352 8.87666 7.95959 8.87666 8.17342C8.87666 8.39004 8.89098 8.57332 8.89098 8.57332C8.52394 8.45856 8.13947 8.40504 7.75395 8.41503V9.13707V9.13429Z" fill="white"/>
<path d="M7.51301 10.6426C6.94306 10.6426 6.63947 11.4063 6.63947 11.4063C6.63947 11.4063 6.46763 11.0453 6.00365 11.0453C5.6886 11.0453 5.45948 11.3146 5.31055 11.5673C5.88336 12.4477 6.797 12.992 7.51301 13.328C8.22903 12.9948 9.14553 12.4477 9.71547 11.5673C9.56654 11.3174 9.33742 11.0453 9.02237 11.0453C8.55839 11.0453 8.38655 11.4063 8.38655 11.4063C8.38655 11.4063 8.08582 10.6426 7.51301 10.6426Z" fill="#0B4EA2"/>
</g>
<defs>
<clipPath id="clip0_740_10212">
<rect x="0.839844" y="3.33008" width="18.33" height="13.33" rx="2" fill="white"/>
</clipPath>
</defs>
</svg>
