<svg width="20" height="20" viewBox="0 0 20 20" fill="none" xmlns="http://www.w3.org/2000/svg">
<g clip-path="url(#clip0_740_10201)">
<mask id="mask0_740_10201" style="mask-type:luminance" maskUnits="userSpaceOnUse" x="0" y="3" width="20" height="14">
<path d="M0.840576 3.33008H19.1688V16.6601H0.837891L0.840576 3.33008Z" fill="white"/>
</mask>
<g mask="url(#mask0_740_10201)">
<path fill-rule="evenodd" clip-rule="evenodd" d="M-0.421875 3.33008H27.0731V16.6601H-0.421875V3.33008Z" fill="white"/>
<path fill-rule="evenodd" clip-rule="evenodd" d="M-0.421875 12.2168H27.0731V16.661H-0.421875V12.2168Z" fill="#D50000"/>
<path fill-rule="evenodd" clip-rule="evenodd" d="M-0.421875 7.77344H27.0731V12.215H-0.421875V7.77344Z" fill="#0000BF"/>
<path fill-rule="evenodd" clip-rule="evenodd" d="M7.37646 5.75056C7.26906 7.35432 7.20462 8.23431 6.95491 8.64046C6.68103 9.07785 6.4179 9.39808 5.35193 9.78601C4.28864 9.39808 4.02551 9.07785 3.75163 8.64046C3.49924 8.23431 3.43748 7.35432 3.33008 5.75056L3.48581 5.69849C3.80265 5.60476 4.03893 5.52926 4.21346 5.49541C4.46317 5.44334 4.67798 5.38606 5.34924 5.37305C6.02051 5.38346 6.23531 5.44595 6.48502 5.49802C6.65687 5.53446 6.90389 5.60216 7.21804 5.69849L7.37646 5.75056Z" fill="#D50000"/>
<path fill-rule="evenodd" clip-rule="evenodd" d="M7.21929 5.69849C7.11726 7.29965 7.03134 8.03384 6.89708 8.38531C6.63932 8.98933 6.23119 9.31998 5.35049 9.635C4.46979 9.31998 4.06166 8.98933 3.80121 8.38531C3.66696 8.03124 3.58641 7.29965 3.48438 5.69588C3.79584 5.60216 4.0375 5.52926 4.21203 5.49541C4.46174 5.44334 4.67654 5.38346 5.34781 5.37305C6.01907 5.38346 6.23387 5.44334 6.48359 5.49541C6.73212 5.55027 6.97767 5.61718 7.21929 5.69588V5.69849Z" fill="#0000BF"/>
<path fill-rule="evenodd" clip-rule="evenodd" d="M5.35103 6.18945L5.39131 6.28578L5.57926 6.31182L5.45844 6.38211L5.57389 6.45762L5.40474 6.48365L5.35103 6.57217L5.29733 6.48105L5.13623 6.46022L5.24363 6.38211L5.13086 6.31182L5.31076 6.28578L5.35103 6.18945Z" fill="#FFDF00"/>
<path fill-rule="evenodd" clip-rule="evenodd" d="M6.83491 8.00622L6.73019 7.92811L6.6577 7.80835L6.5127 7.68599L6.43484 7.56362L6.28984 7.43605L6.22003 7.31368L6.13948 7.2538L6.09115 7.20434L5.9569 7.31629L5.88708 7.43865L5.79848 7.51676L5.69913 7.44126L5.62663 7.31629L5.35007 6.83984L5.07351 7.31629L5.00101 7.44126L4.90167 7.51676L4.81306 7.43865L4.74056 7.31629L4.609 7.20434L4.55798 7.2512L4.48011 7.31368L4.4103 7.43605L4.26531 7.56362L4.18744 7.68599L4.04245 7.80835L3.96995 7.92811L3.86523 8.00622C3.92427 8.36458 4.09915 8.69551 4.36466 8.95129C4.6527 9.19033 4.9867 9.37173 5.34739 9.48502C5.71082 9.37426 6.04707 9.19263 6.33549 8.95129C6.49122 8.79508 6.78121 8.44882 6.83491 8.00622Z" fill="white"/>
<path fill-rule="evenodd" clip-rule="evenodd" d="M5.79106 5.51432L5.83402 5.61065L6.02197 5.63669L5.89846 5.70698L6.0166 5.78248L5.84745 5.80852L5.79374 5.89704L5.74004 5.80592L5.57894 5.78509L5.68634 5.70698L5.57357 5.63669L5.75078 5.61065L5.79374 5.51432H5.79106ZM4.90499 5.51432L4.94795 5.61065L5.1359 5.63408L5.01508 5.70438L5.13053 5.77988L4.96138 5.80592L4.90767 5.89444L4.85397 5.80592L4.69287 5.78248L4.80027 5.70438L4.6875 5.63408L4.8674 5.60805L4.90767 5.51172L4.90499 5.51432Z" fill="#FFDF00"/>
<path fill-rule="evenodd" clip-rule="evenodd" d="M6.60402 8.61583H6.40532L6.21737 8.60281L5.99451 8.49867H5.74211L5.52462 8.60281L5.3501 8.61843L5.17825 8.60281L4.96076 8.49867H4.70568L4.48014 8.60281L4.29487 8.61843L4.0908 8.61583L3.99414 8.45441L3.99683 8.4492L4.29755 8.49867L4.48282 8.48565L4.70568 8.37891H4.95808L5.17825 8.48305L5.3501 8.49867L5.52462 8.48305L5.74211 8.37891H5.99451L6.22005 8.48305L6.40532 8.49867L6.69531 8.4466L6.70068 8.45701L6.60133 8.61583H6.60402ZM4.28413 8.86316L4.48282 8.85014L4.70568 8.746H4.95808L5.17825 8.85014L5.3501 8.86316L5.52194 8.85014L5.74211 8.746H5.99451L6.21737 8.85014L6.41875 8.86316L6.54763 8.70695H6.54495L6.40532 8.7434L6.22005 8.73038L5.99719 8.62624H5.7448L5.52462 8.73038L5.35278 8.746L5.17825 8.73038L4.96076 8.62624H4.70568L4.48014 8.73038L4.29487 8.746L4.16061 8.71216V8.71736L4.28144 8.86316H4.28413Z" fill="#0000BF"/>
</g>
</g>
<defs>
<clipPath id="clip0_740_10201">
<rect x="0.839844" y="3.33008" width="18.33" height="13.33" rx="2" fill="white"/>
</clipPath>
</defs>
</svg>
