<svg width="20" height="20" viewBox="0 0 20 20" fill="none" xmlns="http://www.w3.org/2000/svg">
<g clip-path="url(#clip0_740_10210)">
<path d="M0.839844 3.33008H19.1698V16.6601H0.839844V3.33008Z" fill="#E41E20"/>
<path d="M8.63092 5.92188C8.49917 5.92188 8.27864 5.96353 8.2815 6.06073C7.90917 6.00241 7.87194 6.1496 7.89485 6.2829C7.92922 6.23013 7.97218 6.19958 8.00655 6.19681C8.05524 6.18847 8.10679 6.20514 8.16121 6.23569C8.21254 6.26691 8.25886 6.30527 8.29868 6.34955C8.16694 6.38009 8.06383 6.36065 7.96073 6.34399C7.90246 6.33195 7.84707 6.30934 7.79747 6.27734C7.75451 6.24957 7.74019 6.2218 7.67432 6.15793C7.59699 6.08017 7.51393 6.10239 7.53971 6.2218C7.59985 6.33288 7.7001 6.38287 7.82611 6.40509C7.88626 6.41342 7.97791 6.43286 8.08102 6.43286C8.18412 6.43286 8.29868 6.41897 8.36169 6.43286C8.32446 6.45507 8.2815 6.49673 8.19558 6.51062C8.10966 6.52728 7.98077 6.46063 7.90058 6.44397C7.90917 6.50784 7.99509 6.56894 8.16121 6.60226C8.43616 6.6578 8.66242 6.70224 8.81422 6.78277C8.93426 6.84767 9.04026 6.93442 9.1264 7.03826C9.26101 7.191 9.2696 7.31042 9.27533 7.33819C9.30397 7.58257 9.21518 7.72142 9.04907 7.76586C8.96887 7.7853 8.81994 7.74642 8.76839 7.68532C8.71111 7.62423 8.66242 7.5187 8.67674 7.35207C8.69106 7.29098 8.76553 7.12157 8.70252 7.08825C8.40388 6.92912 8.09486 6.78905 7.77742 6.66891C7.70582 6.64114 7.64854 6.73556 7.62563 6.77444C7.41415 6.74586 7.21189 6.67196 7.03354 6.55811C6.8552 6.44426 6.70524 6.29333 6.59457 6.11627C6.47428 5.90521 6.27093 6.11627 6.3053 6.319C6.35971 6.54116 6.53442 6.70224 6.74636 6.81887C6.96117 6.93273 7.23325 7.04659 7.50534 7.04104C7.65427 7.06881 7.65141 7.2521 7.4767 7.2882C7.13015 7.2882 6.85233 7.28265 6.5917 7.03826C6.39408 6.86331 6.28525 7.07159 6.33967 7.18822C6.43704 7.55202 6.97262 7.65477 7.51393 7.53814C7.72587 7.50481 7.59985 7.72142 7.54257 7.7242C7.31345 7.8825 6.90961 8.03524 6.55161 7.7242C6.38835 7.60201 6.27666 7.70199 6.33967 7.87694C6.49719 8.33516 7.10437 8.23796 7.51966 8.0158C7.62563 7.95748 7.72301 8.09078 7.59412 8.19353C7.07573 8.54344 6.81796 8.549 6.58311 8.4157C6.29098 8.30184 6.26806 8.61565 6.43991 8.72118C6.6318 8.83226 7.12155 8.74895 7.48243 8.52678C7.63709 8.4157 7.64281 8.59065 7.54544 8.66008C7.11869 9.01832 6.94971 9.11274 6.50578 9.05443C6.28525 9.03776 6.28811 9.30159 6.45996 9.40434C6.69767 9.54597 7.16165 9.31269 7.51966 9.0211C7.67145 8.94334 7.69723 9.07109 7.62277 9.22383C7.46422 9.44135 7.24868 9.61391 6.9984 9.7237C6.79792 9.79868 6.60889 9.78757 6.47428 9.74314C6.30816 9.6876 6.28811 9.85423 6.37976 10.0042C6.43418 10.0958 6.66044 10.1236 6.90675 10.0403C7.15306 9.95698 7.41655 9.75703 7.59699 9.52653C7.75451 9.39045 7.73733 9.57096 7.66286 9.69871C7.30199 10.2541 6.96976 10.4596 6.53156 10.4263C6.33967 10.393 6.29384 10.5374 6.417 10.6762C6.63466 10.8484 6.90389 10.8429 7.14447 10.6707C7.35354 10.4763 7.75738 10.0486 7.96932 9.8209C8.11825 9.70704 8.16694 9.8209 8.12111 10.0542C8.08102 10.1875 7.98364 10.3319 7.71155 10.4319C7.52539 10.5346 7.66573 10.6762 7.8032 10.6818C7.88053 10.6818 8.03519 10.5929 8.15548 10.4652C8.31014 10.293 8.3216 10.1791 8.40752 9.91254C8.48771 9.7848 8.63378 9.84589 8.63378 9.97919C8.56218 10.2458 8.5049 10.293 8.36169 10.4013C8.22708 10.5263 8.45621 10.5679 8.53354 10.5152C8.75693 10.3708 8.83713 10.1819 8.91159 10.0097C8.96887 9.88755 9.12353 9.94587 9.04907 10.1486C8.87722 10.6318 8.59082 10.8206 8.09534 10.9206C8.04665 10.929 8.01514 10.9567 8.03233 11.0123L8.23281 11.2067C7.92636 11.2955 7.67718 11.3455 7.36786 11.4288L6.94398 11.1567C6.90675 11.0678 6.8867 10.929 6.6633 11.0262C6.51437 10.9595 6.44277 10.9845 6.35971 11.0539C6.48 11.0539 6.53156 11.0873 6.58025 11.14C6.64326 11.2983 6.78646 11.315 6.93253 11.2705C7.02704 11.3455 7.07573 11.4066 7.17311 11.4844L6.69481 11.4705C6.52297 11.2955 6.39122 11.3039 6.27093 11.4427C6.17641 11.4566 6.13918 11.4566 6.07617 11.5649C6.17355 11.526 6.23656 11.5149 6.27952 11.5566C6.45996 11.6593 6.57738 11.6371 6.66617 11.5566L7.16738 11.5871C7.10437 11.6427 7.01845 11.6704 6.95257 11.7204C6.69481 11.6482 6.55733 11.7482 6.51151 11.9509C6.47531 12.0322 6.4634 12.1217 6.47714 12.2092C6.50005 12.1259 6.54301 12.0565 6.61748 12.0148C6.8466 12.0703 6.93253 11.9787 6.94685 11.8454C7.06141 11.7565 7.22752 11.7371 7.33922 11.6482C7.47097 11.6871 7.53398 11.7121 7.66573 11.7537C7.71155 11.8926 7.81752 11.9454 7.98937 11.9093C8.18985 11.9148 8.15548 11.9981 8.17267 12.062C8.22995 11.9704 8.22708 11.8787 8.10106 11.7954C8.05524 11.676 7.95213 11.6205 7.82039 11.6899C7.69437 11.6566 7.66286 11.6066 7.53684 11.5705C7.85189 11.4733 8.07529 11.451 8.39033 11.3538L8.61087 11.5427C8.65383 11.5677 8.69392 11.5732 8.7197 11.5427C8.91732 11.265 9.00611 11.0234 9.18654 10.8401C9.25814 10.7623 9.34693 10.6624 9.44431 10.6374C9.493 10.6235 9.55314 10.6318 9.59324 10.6735C9.63047 10.7123 9.66198 10.7873 9.65052 10.9012C9.63047 11.0595 9.59038 11.1122 9.54455 11.2067C9.49586 11.3039 9.44145 11.3622 9.3813 11.4372C9.26674 11.5843 9.11208 11.6704 9.02043 11.7288C8.83713 11.8426 8.76266 11.7926 8.61946 11.7843C8.43616 11.8037 8.39033 11.8898 8.53927 12.0092C8.67674 12.0814 8.80276 12.0898 8.90587 12.0703C8.99179 12.0537 9.09489 11.9454 9.16936 11.8871C9.24955 11.7954 9.38703 11.9037 9.29251 12.012C9.12353 12.2064 8.95742 12.3342 8.74834 12.3314C8.52781 12.3592 8.57077 12.4786 8.71397 12.5369C8.97747 12.6396 9.21232 12.4452 9.33261 12.3147C9.42426 12.2175 9.49013 12.2147 9.47581 12.3675C9.3813 12.6424 9.25815 12.7479 9.05193 12.7618C8.88582 12.7452 8.88295 12.8729 9.00611 12.9562C9.28106 13.1395 9.48154 12.8229 9.57606 12.6341C9.64193 12.4619 9.74504 12.5424 9.75649 12.6841C9.75649 12.8757 9.67057 13.0284 9.43285 13.2228C9.61329 13.5033 9.82523 13.7894 10.0057 14.0698L10.5556 8.12688L10.0057 7.191C9.94838 7.14101 9.75363 6.91885 9.70494 6.88552C9.68489 6.86886 9.6763 6.85775 9.70207 6.84664C9.72785 6.83554 9.788 6.82443 9.83096 6.81887C9.71639 6.70501 9.61329 6.66891 9.39276 6.60781C9.44717 6.5856 9.49873 6.59671 9.65911 6.59115C9.5607 6.46294 9.42655 6.36466 9.27247 6.30789C9.39276 6.22458 9.41567 6.21902 9.53596 6.12182C9.34623 6.10761 9.15882 6.0722 8.97747 6.0163C8.86916 5.96639 8.75299 5.93447 8.63378 5.92188H8.63092ZM8.65383 6.15515C8.76266 6.15515 8.82854 6.19125 8.82854 6.23569C8.82854 6.28012 8.76266 6.31622 8.65383 6.31622C8.54499 6.31622 8.47626 6.27456 8.47626 6.23291C8.47626 6.18847 8.54499 6.15515 8.65383 6.15515Z" fill="black"/>
<path d="M11.3789 5.92188C11.5106 5.92188 11.7311 5.96353 11.7283 6.06073C12.1006 6.00241 12.1378 6.1496 12.1149 6.2829C12.0805 6.23013 12.0376 6.19958 12.0032 6.19681C11.9545 6.18847 11.903 6.20514 11.8486 6.23569C11.7972 6.26691 11.7509 6.30527 11.7111 6.34955C11.8428 6.38009 11.9459 6.36065 12.049 6.34399C12.1073 6.33195 12.1627 6.30934 12.2123 6.27734C12.2553 6.24957 12.2696 6.2218 12.3354 6.15793C12.4128 6.08017 12.4958 6.10239 12.4701 6.2218C12.4099 6.33288 12.3097 6.38287 12.1837 6.40509C12.1235 6.41342 12.0319 6.43286 11.9288 6.43286C11.8256 6.43286 11.7111 6.41897 11.6481 6.43286C11.6853 6.45507 11.7283 6.49673 11.8142 6.51062C11.9001 6.52728 12.029 6.46063 12.1092 6.44397C12.1006 6.50784 12.0147 6.56894 11.8486 6.60226C11.5736 6.6578 11.3473 6.70224 11.1956 6.78277C11.0755 6.84767 10.9695 6.93442 10.8834 7.03826C10.7488 7.191 10.7402 7.31042 10.7344 7.33819C10.7058 7.58257 10.7946 7.72142 10.9607 7.76586C11.0409 7.7853 11.1898 7.74642 11.2414 7.68532C11.2987 7.62423 11.3473 7.5187 11.333 7.35207C11.3187 7.29098 11.2442 7.12157 11.3072 7.08825C11.6059 6.92912 11.9149 6.78905 12.2323 6.66891C12.3039 6.64114 12.3612 6.73556 12.3841 6.77444C12.5956 6.74586 12.7979 6.67196 12.9762 6.55811C13.1546 6.44426 13.3045 6.29333 13.4152 6.11627C13.5355 5.90521 13.7388 6.11627 13.7045 6.319C13.6501 6.54116 13.4753 6.70224 13.2634 6.81887C13.0486 6.93273 12.7765 7.04659 12.5044 7.04104C12.3555 7.06881 12.3584 7.2521 12.5331 7.2882C12.8796 7.2882 13.1574 7.28265 13.4181 7.03826C13.6157 6.86331 13.7245 7.07159 13.6701 7.18822C13.5727 7.55202 13.0371 7.65477 12.4958 7.53814C12.2839 7.50481 12.4099 7.72142 12.4672 7.7242C12.6963 7.8825 13.1002 8.03524 13.4582 7.7242C13.6214 7.60201 13.7331 7.70199 13.6701 7.87694C13.5126 8.33516 12.9054 8.23796 12.4901 8.0158C12.3841 7.95748 12.2868 8.09078 12.4156 8.19353C12.934 8.54344 13.1918 8.549 13.4267 8.4157C13.7188 8.30184 13.7417 8.61565 13.5699 8.72118C13.378 8.83226 12.8882 8.74895 12.5273 8.52678C12.3727 8.4157 12.367 8.59065 12.4643 8.66008C12.8911 9.01832 13.0601 9.11274 13.504 9.05443C13.7245 9.03776 13.7217 9.30159 13.5498 9.40434C13.3121 9.54597 12.8481 9.31269 12.4901 9.0211C12.3383 8.94334 12.3125 9.07109 12.387 9.22383C12.5455 9.44135 12.7611 9.61391 13.0114 9.7237C13.2119 9.79868 13.4009 9.78757 13.5355 9.74314C13.7016 9.6876 13.7217 9.85423 13.63 10.0042C13.5756 10.0958 13.3493 10.1236 13.103 10.0403C12.8567 9.95698 12.5932 9.75703 12.4128 9.52653C12.2553 9.39045 12.2724 9.57096 12.3469 9.69871C12.7078 10.2541 13.04 10.4596 13.4782 10.4263C13.6701 10.393 13.7159 10.5374 13.5928 10.6762C13.3751 10.8484 13.1059 10.8429 12.8653 10.6707C12.6562 10.4763 12.2524 10.0486 12.0404 9.8209C11.8915 9.70704 11.8428 9.8209 11.8887 10.0542C11.9288 10.1875 12.0261 10.3319 12.2982 10.4319C12.4844 10.5346 12.344 10.6762 12.2066 10.6818C12.1292 10.6818 11.9746 10.5929 11.8543 10.4652C11.6996 10.293 11.6882 10.1791 11.6022 9.91254C11.5221 9.7848 11.376 9.84589 11.376 9.97919C11.4476 10.2458 11.5049 10.293 11.6481 10.4013C11.7827 10.5263 11.5536 10.5679 11.4762 10.5152C11.2528 10.3708 11.1726 10.1819 11.0982 10.0097C11.0409 9.88755 10.8862 9.94587 10.9607 10.1486C11.1325 10.6318 11.4189 10.8206 11.9144 10.9206C11.9631 10.929 11.9946 10.9567 11.9774 11.0123L11.777 11.2067C12.0834 11.2955 12.3326 11.3455 12.6419 11.4288L13.0658 11.1567C13.103 11.0678 13.1231 10.929 13.3465 11.0262C13.4954 10.9595 13.567 10.9845 13.6501 11.0539C13.5298 11.0539 13.4782 11.0873 13.4295 11.14C13.3665 11.2983 13.2233 11.315 13.0772 11.2705C12.9827 11.3455 12.934 11.4066 12.8367 11.4844L13.315 11.4705C13.4868 11.2955 13.6185 11.3039 13.7388 11.4427C13.8334 11.4566 13.8706 11.4566 13.9336 11.5649C13.8362 11.526 13.7732 11.5149 13.7302 11.5566C13.5498 11.6593 13.4324 11.6371 13.3436 11.5566L12.8424 11.5871C12.9054 11.6427 12.9913 11.6704 13.0572 11.7204C13.315 11.6482 13.4524 11.7482 13.4983 11.9509C13.5345 12.0322 13.5464 12.1217 13.5326 12.2092C13.5097 12.1259 13.4668 12.0565 13.3923 12.0148C13.1632 12.0703 13.0772 11.9787 13.0629 11.8454C12.9484 11.7565 12.7822 11.7371 12.6705 11.6482C12.5388 11.6871 12.4758 11.7121 12.344 11.7537C12.2982 11.8926 12.1922 11.9454 12.0204 11.9093C11.8199 11.9148 11.8543 11.9981 11.8371 12.062C11.7798 11.9704 11.7827 11.8787 11.9087 11.7954C11.9545 11.676 12.0576 11.6205 12.1894 11.6899C12.3154 11.6566 12.3469 11.6066 12.4729 11.5705C12.1579 11.4733 11.9345 11.451 11.6194 11.3538L11.3989 11.5427C11.3559 11.5677 11.3158 11.5732 11.2901 11.5427C11.0924 11.265 11.0037 11.0234 10.8232 10.8401C10.7516 10.7623 10.6628 10.6624 10.5655 10.6374C10.5168 10.6235 10.4566 10.6318 10.4165 10.6735C10.3793 10.7123 10.3478 10.7873 10.3592 10.9012C10.3793 11.0595 10.4194 11.1122 10.4652 11.2067C10.5139 11.3039 10.5683 11.3622 10.6285 11.4372C10.743 11.5843 10.8977 11.6704 10.9893 11.7288C11.1726 11.8426 11.2471 11.7926 11.3903 11.7843C11.5736 11.8037 11.6194 11.8898 11.4705 12.0092C11.333 12.0814 11.207 12.0898 11.1039 12.0703C11.018 12.0537 10.9149 11.9454 10.8404 11.8871C10.7602 11.7954 10.6227 11.9037 10.7173 12.012C10.8862 12.2064 11.0523 12.3342 11.2614 12.3314C11.482 12.3592 11.439 12.4786 11.2958 12.5369C11.0323 12.6396 10.7974 12.4452 10.6772 12.3147C10.5855 12.2175 10.5196 12.2147 10.534 12.3675C10.6285 12.6424 10.7516 12.7479 10.9578 12.7618C11.1239 12.7452 11.1268 12.8729 11.0037 12.9562C10.7287 13.1395 10.5282 12.8229 10.4337 12.6341C10.3678 12.4619 10.2647 12.5424 10.2533 12.6841C10.2533 12.8757 10.3392 13.0284 10.5769 13.2228C10.3965 13.5033 10.1845 13.7894 10.0041 14.0698L9.4542 8.12688L10.0041 7.191C10.0614 7.14101 10.2561 6.91885 10.3048 6.88552C10.3249 6.86886 10.3335 6.85775 10.3077 6.84664C10.2819 6.83554 10.2218 6.82443 10.1788 6.81887C10.2934 6.70501 10.3965 6.66891 10.617 6.60781C10.5626 6.5856 10.511 6.59671 10.3507 6.59115C10.4491 6.46294 10.5832 6.36466 10.7373 6.30789C10.617 6.22458 10.5941 6.21902 10.4738 6.12182C10.6635 6.10761 10.8509 6.0722 11.0323 6.0163C11.1406 5.96639 11.2568 5.93447 11.376 5.92188H11.3789ZM11.3559 6.15515C11.2471 6.15515 11.1812 6.19125 11.1812 6.23569C11.1812 6.28012 11.2471 6.31622 11.3559 6.31622C11.4648 6.31622 11.5335 6.27456 11.5335 6.23291C11.5335 6.18847 11.4648 6.15515 11.3559 6.15515Z" fill="black"/>
</g>
<defs>
<clipPath id="clip0_740_10210">
<rect x="0.839844" y="3.33008" width="18.33" height="13.33" rx="2" fill="white"/>
</clipPath>
</defs>
</svg>
